<svg width="24" height="24" viewBox="0 0 24 24" fill="none" xmlns="http://www.w3.org/2000/svg">
<path fill-rule="evenodd" clip-rule="evenodd" d="M20.56 9.21994L22.42 11.3399C22.75 11.7199 22.75 12.2799 22.41 12.6399L20.55 14.7599L20.81 17.5699C20.86 18.0699 20.53 18.5299 20.04 18.6399L17.28 19.2699L15.84 21.6999C15.59 22.1299 15.05 22.3099 14.59 22.1099L12 20.9999L9.41002 22.1299C8.94002 22.3299 8.41002 22.1499 8.15002 21.7199L6.71002 19.2999L3.95002 18.6699C3.47002 18.5599 3.13002 18.0999 3.18002 17.5999L3.44002 14.7799L1.58002 12.6599C1.25002 12.2799 1.25002 11.7199 1.58002 11.3399L3.44002 9.20994L3.18002 6.40994C3.13002 5.89994 3.47002 5.44994 3.96002 5.33994L6.71002 4.71994L8.16002 2.29994C8.41002 1.86994 8.95002 1.68994 9.41002 1.88994L12 2.99994L14.6 1.86994C15.06 1.66994 15.59 1.84994 15.85 2.27994L17.29 4.70994L20.05 5.33994C20.53 5.44994 20.87 5.90994 20.82 6.40994L20.56 9.21994ZM11 8.99999C11 10.1046 10.1046 11 9 11C7.89543 11 7 10.1046 7 8.99999C7 7.89543 7.89543 6.99999 9 6.99999C10.1046 6.99999 11 7.89543 11 8.99999ZM9.8 8.99999C9.8 9.44182 9.44183 9.79999 9 9.79999C8.55817 9.79999 8.2 9.44182 8.2 8.99999C8.2 8.55816 8.55817 8.19999 9 8.19999C9.44183 8.19999 9.8 8.55816 9.8 8.99999ZM17 15C17 16.1046 16.1046 17 15 17C13.8954 17 13 16.1046 13 15C13 13.8954 13.8954 13 15 13C16.1046 13 17 13.8954 17 15ZM15.8002 15C15.8002 15.4418 15.442 15.8 15.0002 15.8C14.5584 15.8 14.2002 15.4418 14.2002 15C14.2002 14.5582 14.5584 14.2 15.0002 14.2C15.442 14.2 15.8002 14.5582 15.8002 15ZM14.2312 7.34481C14.4891 6.98542 14.9896 6.90319 15.349 7.16114C15.7084 7.41909 15.7906 7.91954 15.5326 8.27892L9.51177 16.6675C9.25382 17.0269 8.75337 17.1092 8.39398 16.8512C8.03459 16.5933 7.95236 16.0928 8.21031 15.7334L14.2312 7.34481Z" fill="#231F20"/>
</svg>
