<svg width="24" height="24" viewBox="0 0 24 24" fill="none" xmlns="http://www.w3.org/2000/svg">
<path d="M16.6924 11.0355C16.3019 10.645 16.3019 10.0118 16.6924 9.62132L17.753 8.56066C18.3388 7.97487 18.3388 7.02513 17.753 6.43934C17.1673 5.85355 16.2175 5.85355 15.6317 6.43934L11.3891 10.682C10.8033 11.2678 10.8033 12.2175 11.3891 12.8033C11.5131 12.9273 11.6533 13.025 11.803 13.0965L10.3535 14.546C10.2215 14.447 10.0949 14.3376 9.97487 14.2175C8.60804 12.8507 8.60804 10.6346 9.97487 9.26777L14.2175 5.02513C15.5843 3.65829 17.8004 3.65829 19.1673 5.02513C20.5341 6.39196 20.5341 8.60804 19.1673 9.97487L18.1066 11.0355C17.7161 11.4261 17.0829 11.4261 16.6924 11.0355Z" fill="#91B1B8"/>
<path d="M7.5 13.1569C7.10948 12.7663 6.47631 12.7663 6.08579 13.1569L5.02513 14.2175C3.65829 15.5843 3.65829 17.8004 5.02513 19.1673C6.39196 20.5341 8.60804 20.5341 9.97487 19.1673L14.2175 14.9246C15.5843 13.5578 15.5843 11.3417 14.2175 9.97487C14.0975 9.85483 13.9709 9.74534 13.8389 9.64638L12.3894 11.0959C12.5391 11.1674 12.6793 11.2651 12.8033 11.3891C13.3891 11.9749 13.3891 12.9246 12.8033 13.5104L8.56066 17.753C7.97487 18.3388 7.02513 18.3388 6.43934 17.753C5.85355 17.1673 5.85355 16.2175 6.43934 15.6317L7.5 14.5711C7.89052 14.1805 7.89052 13.5474 7.5 13.1569Z" fill="#91B1B8"/>
</svg>
