<svg width="24" height="24" viewBox="0 0 24 24" fill="none" xmlns="http://www.w3.org/2000/svg">
<path fill-rule="evenodd" clip-rule="evenodd" d="M11.6611 8.63067L11.6989 9.25351L11.0693 9.17725C8.77784 8.88489 6.77593 7.89343 5.0762 6.22829L4.24522 5.40207L4.03118 6.0122C3.57791 7.37228 3.8675 8.80863 4.8118 9.77467C5.31542 10.3085 5.20211 10.3848 4.33335 10.067C4.03118 9.96533 3.76677 9.88907 3.74159 9.9272C3.65346 10.0162 3.95563 11.1729 4.19485 11.6305C4.52221 12.266 5.18951 12.8889 5.91977 13.2575L6.53671 13.5498L5.80646 13.5626C5.10138 13.5626 5.0762 13.5753 5.15174 13.8422C5.40356 14.6684 6.39822 15.5455 7.50619 15.9268L8.28681 16.1937L7.60691 16.6005C6.59966 17.1852 5.41615 17.5157 4.23263 17.5411C3.66605 17.5538 3.2002 17.6047 3.2002 17.6428C3.2002 17.7699 4.73625 18.4817 5.63019 18.7614C8.31199 19.5876 11.4974 19.2317 13.8896 17.8208C15.5894 16.8166 17.2891 14.8209 18.0823 12.8889C18.5104 11.8593 18.9385 9.97804 18.9385 9.07556C18.9385 8.49085 18.9763 8.41459 19.6813 7.71548C20.0968 7.30873 20.4871 6.86384 20.5627 6.73673C20.6886 6.49522 20.676 6.49522 20.0339 6.71131C18.9637 7.09264 18.8126 7.0418 19.3414 6.4698C19.7317 6.06305 20.1975 5.32581 20.1975 5.10972C20.1975 5.07159 20.0087 5.13514 19.7946 5.24954C19.568 5.37665 19.0644 5.56732 18.6867 5.68171L18.0068 5.8978L17.3898 5.47834C17.0499 5.24954 16.5714 4.99532 16.3196 4.91905C15.6775 4.7411 14.6954 4.76652 14.1163 4.9699C12.5424 5.54189 11.5478 7.01637 11.6611 8.63067Z" fill="#231F20"/>
</svg>
