<svg width="24" height="24" viewBox="0 0 24 24" fill="none" xmlns="http://www.w3.org/2000/svg">
<path fill-rule="evenodd" clip-rule="evenodd" d="M16 6H20C21.11 6 22 6.89 22 8V19C22 20.11 21.11 21 20 21H4C2.89 21 2 20.11 2 19L2.01 8C2.01 6.89 2.89 6 4 6H8V4C8 2.89 8.89 2 10 2H14C15.11 2 16 2.89 16 4V6ZM10 6H14V4H10V6ZM15.0458 13.916L15.9252 14.5939C15.9985 14.658 16.0259 14.768 15.971 14.8504L15.1466 16.2702C15.0916 16.3618 14.9817 16.3985 14.8901 16.3618L13.8641 15.9496C13.6626 16.1145 13.4244 16.2428 13.1771 16.3527L13.0214 17.4336C13.0122 17.5344 12.9206 17.6076 12.8198 17.6076H11.1802C11.0794 17.6076 10.9969 17.5344 10.9786 17.4336L10.8229 16.3527C10.5664 16.2519 10.3374 16.1145 10.1267 15.9496L9.10993 16.3618C9.00917 16.3893 8.89924 16.3618 8.85344 16.2702L8.02902 14.8504C7.97405 14.7588 8.00154 14.6489 8.07482 14.5847L8.94504 13.9069C8.92672 13.7786 8.91756 13.6412 8.91756 13.5038C8.91756 13.3664 8.92672 13.229 8.94504 13.1008L8.07482 12.4229C7.99237 12.3588 7.98321 12.2489 8.02902 12.1573L8.85344 10.7374C8.9084 10.6458 9.01833 10.6092 9.10993 10.6458L10.1267 11.058C10.3374 10.8932 10.5756 10.7649 10.8229 10.655L10.9786 9.57407C10.9878 9.47331 11.0794 9.40002 11.1802 9.40002H12.8198C12.9114 9.40002 13.0031 9.47331 13.0122 9.58323L13.1679 10.6641C13.4244 10.7649 13.6534 10.9023 13.8641 11.0672L14.8809 10.655C14.9817 10.6275 15.0916 10.655 15.1374 10.7466L15.9618 12.1664C16.0168 12.258 15.9893 12.368 15.916 12.4321L15.0458 13.1099C15.0733 13.2382 15.0824 13.3756 15.0824 13.513C15.0824 13.6504 15.0641 13.7878 15.0458 13.916ZM10.7588 13.5038C10.7588 14.1909 11.3176 14.7405 11.9954 14.7405C12.6733 14.7405 13.2321 14.1909 13.2321 13.5038C13.2321 12.8168 12.6824 12.2672 11.9954 12.2672C11.3084 12.2672 10.7588 12.8168 10.7588 13.5038Z" fill="black"/>
</svg>
