<svg width="24" height="24" viewBox="0 0 24 24" fill="none" xmlns="http://www.w3.org/2000/svg">
<path fill-rule="evenodd" clip-rule="evenodd" d="M10 16V8C10 6.9 10.89 6 12 6H21V5C21 3.9 20.1 3 19 3H5C3.89 3 3 3.9 3 5V19C3 20.1 3.89 21 5 21H14.7088C14.5745 20.6936 14.5 20.3553 14.5 20C14.5 19.1832 14.8939 18.4565 15.5016 18H12C10.89 18 10 17.1 10 16ZM19 21H17C16.45 21 16 20.55 16 20C16 19.45 16.45 19 17 19H19V18V17C19 16.45 19.45 16 20 16C20.55 16 21 16.45 21 17V18V19H23C23.55 19 24 19.45 24 20C24 20.55 23.55 21 23 21H21V23C21 23.55 20.55 24 20 24C19.45 24 19 23.55 19 23V21ZM22 15C22 15.1414 21.9707 15.2759 21.9177 15.3979C21.4587 14.8494 20.7694 14.5 20 14.5C18.9769 14.5 18.0953 15.1179 17.7088 16H13C12.45 16 12 15.55 12 15V9C12 8.45 12.45 8 13 8H21C21.5523 8 22 8.44772 22 9V15ZM16 13.5C15.17 13.5 14.5 12.83 14.5 12C14.5 11.17 15.17 10.5 16 10.5C16.83 10.5 17.5 11.17 17.5 12C17.5 12.83 16.83 13.5 16 13.5Z" fill="black"/>
</svg>
