<svg width="24" height="24" viewBox="0 0 24 24" fill="none" xmlns="http://www.w3.org/2000/svg">
<path fill-rule="evenodd" clip-rule="evenodd" d="M4.3351 7.00001L3.22114 3.93943C3.0323 3.42061 2.45862 3.1531 1.9398 3.34193C1.42076 3.53085 1.15328 4.10489 1.3425 4.62382L5.53791 16.1296C5.72848 16.6523 6.22544 17 6.78174 17H9.25435C7.87364 17 6.75435 18.1193 6.75435 19.5C6.75435 20.8807 7.87364 22 9.25435 22C10.6351 22 11.7543 20.8807 11.7543 19.5C11.7543 18.1193 10.6351 17 9.25435 17H16.3114C14.9346 17.0046 13.8199 18.1221 13.8199 19.5C13.8199 20.8807 14.9392 22 16.3199 22C17.7007 22 18.8199 20.8807 18.8199 19.5C18.8199 18.1221 17.7053 17.0046 16.3285 17H18.9998C19.5521 17 19.9998 16.5523 19.9998 16C19.9998 15.4477 19.5521 15 18.9998 15H7.24686L6.88289 14H19.4997C20.2134 14 20.8553 13.5651 21.1203 12.9019L22.9365 8.19782C23.1659 7.6241 22.7437 7.00001 22.1263 7.00001H4.3351ZM16.3199 18.6667C16.7802 18.6667 17.1533 19.0398 17.1533 19.5C17.1533 19.9602 16.7802 20.3333 16.3199 20.3333C15.8597 20.3333 15.4866 19.9602 15.4866 19.5C15.4866 19.0398 15.8597 18.6667 16.3199 18.6667ZM9.25435 18.6667C9.71458 18.6667 10.0877 19.0398 10.0877 19.5C10.0877 19.9602 9.71458 20.3333 9.25435 20.3333C8.79411 20.3333 8.42101 19.9602 8.42101 19.5C8.42101 19.0398 8.79411 18.6667 9.25435 18.6667Z" fill="black"/>
</svg>
