<svg width="256" height="270" viewBox="0 0 256 270" fill="none" xmlns="http://www.w3.org/2000/svg">
<path d="M209.9 73.469C211.315 70.4846 213.021 67.663 214.99 65.0497C219.99 58.1144 230.74 58.9142 230.5 58.7984C228.41 57.746 228.21 55.7043 226.2 54.7256C224.19 53.7469 224.2 55.778 222.11 54.7256C220.06 53.7363 219.9 51.6736 217.77 50.6423C215.64 49.6109 215.85 51.6947 213.77 50.6423C211.69 49.5898 211.48 47.5482 209.47 46.58C207.34 45.5275 207.54 47.6324 205.47 46.58C203.4 45.5275 203.18 43.4859 201.17 42.5176C201.17 42.5176 191.11 39.7393 180.68 57.2514" fill="white"/>
<path d="M209.9 74.2478C209.786 74.2488 209.673 74.2237 209.57 74.1741C209.395 74.0793 209.261 73.9165 209.198 73.7202C209.134 73.5239 209.146 73.3093 209.23 73.1217C210.668 70.0684 212.408 67.183 214.42 64.513C217.13 60.7453 222.06 58.4721 228.42 58.0722C228.17 57.767 227.95 57.4723 227.74 57.1882C227.281 56.4462 226.652 55.8381 225.91 55.4201C225.71 55.2863 225.477 55.2152 225.24 55.2152C225.003 55.2152 224.77 55.2863 224.57 55.4201C224.158 55.6541 223.698 55.7766 223.23 55.7766C222.762 55.7766 222.302 55.6541 221.89 55.4201H221.83C220.852 54.9116 220.02 54.1378 219.42 53.1785C218.939 52.3994 218.274 51.7649 217.49 51.3368C217.291 51.1891 217.053 51.1099 216.81 51.1099C216.566 51.1099 216.329 51.1891 216.13 51.3368C215.728 51.5858 215.271 51.7171 214.805 51.7171C214.339 51.7171 213.881 51.5858 213.48 51.3368C212.486 50.8237 211.632 50.0522 211 49.0952C210.543 48.354 209.913 47.7488 209.17 47.3376C208.97 47.1928 208.733 47.1153 208.49 47.1153C208.247 47.1153 208.01 47.1928 207.81 47.3376C207.41 47.5921 206.952 47.7266 206.485 47.7266C206.018 47.7266 205.56 47.5921 205.16 47.3376C204.159 46.8103 203.307 46.0155 202.69 45.0329C202.247 44.3137 201.643 43.7208 200.93 43.3069C200.14 43.1385 190.93 41.6441 181.32 57.6723C181.272 57.7687 181.206 57.8537 181.126 57.9219C181.045 57.9902 180.952 58.0402 180.853 58.0689C180.753 58.0976 180.649 58.1043 180.547 58.0886C180.444 58.0729 180.346 58.0352 180.259 57.9778C180.171 57.9203 180.095 57.8445 180.037 57.7549C179.978 57.6653 179.938 57.564 179.918 57.4573C179.899 57.3506 179.9 57.2407 179.923 57.1346C179.946 57.0286 179.989 56.9286 180.05 56.8409C190.66 39.0762 200.93 41.6757 201.37 41.7914L201.49 41.844C202.456 42.3581 203.28 43.1267 203.88 44.0752C204.356 44.8483 205.014 45.479 205.79 45.9063C205.984 46.0462 206.214 46.121 206.45 46.121C206.685 46.121 206.915 46.0462 207.11 45.9063C207.517 45.6515 207.981 45.517 208.455 45.517C208.928 45.517 209.393 45.6515 209.8 45.9063C210.762 46.4266 211.584 47.194 212.19 48.1375C212.662 48.9181 213.325 49.5506 214.11 49.9687C214.303 50.1128 214.533 50.1902 214.77 50.1902C215.006 50.1902 215.237 50.1128 215.43 49.9687C215.836 49.7116 216.301 49.5758 216.775 49.5758C217.249 49.5758 217.714 49.7116 218.12 49.9687C219.127 50.5 219.985 51.2979 220.61 52.284C221.054 52.996 221.659 53.5816 222.37 53.9889C222.592 54.1332 222.849 54.2096 223.11 54.2096C223.371 54.2096 223.627 54.1332 223.85 53.9889C224.249 53.7557 224.698 53.6334 225.155 53.6334C225.612 53.6334 226.061 53.7557 226.46 53.9889C227.422 54.5091 228.244 55.2765 228.85 56.22C229.322 56.9998 229.981 57.635 230.76 58.0617C230.916 58.1351 231.044 58.2634 231.12 58.4246C231.197 58.5858 231.218 58.77 231.18 58.9457C231.06 59.5666 230.51 59.5772 230.12 59.5772C223.42 59.6508 218.24 61.7556 215.54 65.5022C213.603 68.0721 211.928 70.848 210.54 73.7847C210.483 73.9153 210.393 74.0273 210.28 74.1088C210.168 74.1903 210.036 74.2383 209.9 74.2478Z" fill="#FF6433"/>
<path d="M84.1698 225.342L29.2498 192.412C23.6998 189.034 24.3898 183.151 30.7998 179.257L79.3598 149.295C85.7698 145.411 95.4598 144.98 101.01 148.358L155.93 181.33C161.48 184.698 160.78 190.581 154.38 194.475L105.82 224.437C99.4098 228.289 89.7198 228.688 84.1698 225.342Z" fill="#BEDCE3"/>
<path d="M30.2798 174.806C30.2798 184.035 34.5898 187.908 36.8398 189.287C42.5598 192.77 63.8398 205.494 79.3298 214.702C84.1853 217.605 89.8071 218.764 95.3444 218.005C100.882 217.245 106.033 214.608 110.02 210.493L165.3 152.347C167.18 150.379 169.529 148.979 172.1 148.295C178.38 146.622 206.57 134.246 216.41 124.679C224.29 117.018 226.04 96.7904 226.04 89.3393C226.04 85.1297 223.48 81.1306 217.89 77.2472L170 50.737C169.473 50.4466 168.897 50.2701 168.304 50.2177C167.712 50.1653 167.115 50.238 166.55 50.4318L133.77 63.8921C131.74 64.7835 129.901 66.0932 128.36 67.7439L124.89 71.3116C124.623 71.5901 124.472 71.9685 124.47 72.364V76.8578L121.47 74.9529L31.6698 171.164" fill="white"/>
<path d="M91.9998 218.975C87.4436 218.99 82.9626 217.753 78.9998 215.387C55.2198 201.211 40.9198 192.655 36.5098 189.971C34.4198 188.697 29.5698 184.709 29.5698 174.795C29.5698 174.586 29.6488 174.385 29.7895 174.237C29.9301 174.089 30.1209 174.006 30.3198 174.006C30.5187 174.006 30.7095 174.089 30.8502 174.237C30.9908 174.385 31.0698 174.586 31.0698 174.795C31.0698 183.856 35.3998 187.424 37.2598 188.603C41.6698 191.286 55.9598 199.842 79.7398 214.018C84.4627 216.81 89.917 217.919 95.288 217.179C100.659 216.439 105.659 213.891 109.54 209.914L164.81 151.768C166.794 149.719 169.263 148.266 171.96 147.559C178.38 145.854 206.42 133.393 215.96 124.132C223.67 116.639 225.35 96.4958 225.35 89.4026C225.35 85.3613 222.8 81.6148 217.54 77.9734L169.64 51.4316C169.201 51.1909 168.722 51.0446 168.229 51.0012C167.736 50.9578 167.24 51.0183 166.77 51.1791L134 64.6289C132.067 65.4784 130.316 66.7273 128.85 68.3018L125.41 71.88C125.289 72.0091 125.221 72.1828 125.22 72.3641V76.8579C125.218 76.9982 125.182 77.1357 125.116 77.2573C125.049 77.3789 124.954 77.4805 124.84 77.5525C124.724 77.6227 124.593 77.6596 124.46 77.6596C124.326 77.6596 124.195 77.6227 124.08 77.5525L121.58 75.9633L32.1998 171.733C32.1309 171.807 32.0486 171.867 31.9578 171.908C31.867 171.949 31.7693 171.971 31.6704 171.973C31.5715 171.974 31.4733 171.955 31.3814 171.917C31.2895 171.878 31.2057 171.821 31.1348 171.748C31.0639 171.676 31.0073 171.589 30.9681 171.494C30.929 171.398 30.9081 171.295 30.9068 171.191C30.9054 171.087 30.9235 170.984 30.96 170.887C30.9966 170.79 31.0509 170.702 31.1198 170.628L120.93 74.4058C121.047 74.2775 121.201 74.195 121.369 74.172C121.536 74.1491 121.706 74.187 121.85 74.2795L123.72 75.4687V72.3115C123.72 72.0118 123.776 71.7152 123.886 71.4388C123.996 71.1624 124.157 70.9117 124.36 70.7013L127.83 67.1231C129.442 65.4053 131.362 64.0423 133.48 63.1134L166.26 49.6425C166.927 49.4083 167.631 49.3175 168.332 49.3753C169.033 49.4332 169.716 49.6386 170.34 49.9793L218.24 76.479C224.02 80.4782 226.79 84.6457 226.79 89.2658C226.79 96.6327 225.02 117.302 216.92 125.185C207.05 134.783 179 147.201 172.29 148.99C169.847 149.636 167.616 150.963 165.83 152.831L110.55 210.977C105.599 216.095 98.9394 218.966 91.9998 218.975Z" fill="#231F20"/>
<path d="M97.1999 198.884C96.7849 198.886 96.3771 198.77 96.0199 198.548L48.0899 169.164C47.7809 168.977 47.5166 168.718 47.3172 168.407C47.1178 168.096 46.9886 167.741 46.9394 167.37C46.8902 166.998 46.9223 166.62 47.0333 166.263C47.1443 165.907 47.3313 165.581 47.5799 165.312L122.67 83.3613C123.038 82.9579 123.525 82.6977 124.052 82.6231C124.578 82.5486 125.114 82.6641 125.57 82.9509L173.57 113.008C173.875 113.199 174.135 113.461 174.331 113.773C174.526 114.085 174.651 114.44 174.698 114.811C174.744 115.182 174.71 115.559 174.597 115.914C174.485 116.268 174.298 116.592 174.05 116.86L98.8799 198.169C98.6602 198.401 98.3981 198.584 98.1094 198.707C97.8206 198.83 97.5113 198.89 97.1999 198.884ZM124.37 84.1717C124.254 84.1717 124.14 84.1959 124.034 84.2429C123.927 84.2899 123.831 84.3587 123.75 84.4453L48.6599 166.407C48.5694 166.504 48.5016 166.623 48.4617 166.752C48.4218 166.882 48.4109 167.019 48.4299 167.154C48.4482 167.287 48.4946 167.413 48.5655 167.524C48.6365 167.635 48.7302 167.728 48.8399 167.796L96.7699 197.179C96.9296 197.271 97.1129 197.306 97.2929 197.279C97.4729 197.253 97.6401 197.166 97.7699 197.032L173 115.755C173.09 115.659 173.157 115.542 173.197 115.415C173.237 115.287 173.248 115.151 173.23 115.018C173.214 114.882 173.169 114.751 173.098 114.636C173.027 114.521 172.932 114.425 172.82 114.355L124.82 84.3085C124.684 84.2231 124.528 84.1794 124.37 84.1822V84.1717Z" fill="#231F20"/>
<path d="M189.29 112.924C189.191 112.926 189.093 112.907 189.002 112.867C188.91 112.827 188.828 112.768 188.76 112.693C188.619 112.545 188.541 112.344 188.541 112.135C188.541 111.926 188.619 111.725 188.76 111.577L194.29 105.715C195.341 104.576 196.532 103.589 197.83 102.779L197.95 102.716L204 100.295C204.094 100.255 204.195 100.234 204.297 100.236C204.399 100.237 204.5 100.26 204.593 100.304C204.686 100.347 204.771 100.409 204.84 100.487C204.91 100.565 204.965 100.658 205 100.758C205.04 100.857 205.06 100.964 205.059 101.072C205.059 101.179 205.037 101.286 204.996 101.384C204.955 101.483 204.895 101.572 204.82 101.645C204.745 101.718 204.656 101.775 204.56 101.811L198.56 104.189C197.398 104.929 196.329 105.82 195.38 106.841L189.85 112.714C189.775 112.788 189.687 112.844 189.591 112.881C189.494 112.917 189.392 112.932 189.29 112.924Z" fill="#231F20"/>
<path d="M186.28 101.842C186.146 101.839 186.015 101.799 185.9 101.726L136 70.7538C135.842 70.6415 135.73 70.4697 135.688 70.2736C135.646 70.0775 135.676 69.8719 135.773 69.6987C135.87 69.5255 136.026 69.3978 136.21 69.3415C136.393 69.2853 136.59 69.3049 136.76 69.3962L186.65 100.369C186.815 100.474 186.935 100.642 186.986 100.838C187.036 101.034 187.012 101.243 186.92 101.421C186.857 101.543 186.765 101.646 186.653 101.72C186.54 101.793 186.412 101.836 186.28 101.842Z" fill="#FF6433"/>
<path d="M90.8699 211.219C87.5232 211.22 84.2357 210.29 81.3399 208.525L31.7599 178.32C31.1663 177.966 30.6578 177.472 30.2735 176.879C29.8891 176.285 29.639 175.606 29.5425 174.895C29.4459 174.184 29.5055 173.459 29.7165 172.776C29.9275 172.092 30.2845 171.469 30.7599 170.953L120.93 74.4054C120.999 74.3309 121.081 74.2717 121.172 74.2313C121.263 74.1909 121.361 74.1701 121.46 74.1701C121.559 74.1701 121.657 74.1909 121.748 74.2313C121.839 74.2717 121.921 74.3309 121.99 74.4054C122.13 74.5534 122.209 74.754 122.209 74.9632C122.209 75.1723 122.13 75.3729 121.99 75.5209L31.8799 172.059C31.5601 172.397 31.3195 172.809 31.1772 173.262C31.0348 173.715 30.9947 174.196 31.0599 174.668C31.1211 175.141 31.2834 175.593 31.5346 175.991C31.7857 176.388 32.1192 176.721 32.5099 176.963L82.0899 207.167C85.4244 209.187 89.2954 210.004 93.1124 209.493C96.9293 208.982 100.483 207.171 103.23 204.336L185.74 114.881C185.843 114.768 185.977 114.69 186.124 114.658C186.27 114.626 186.422 114.641 186.56 114.702C186.698 114.761 186.816 114.861 186.9 114.99C186.983 115.119 187.029 115.272 187.03 115.428V130.162L188.54 128.594V112.587L124.54 72.6899C124.379 72.5813 124.262 72.4125 124.214 72.2174C124.166 72.0223 124.189 71.8152 124.28 71.6375C124.38 71.4639 124.54 71.3375 124.726 71.2846C124.912 71.2317 125.111 71.2563 125.28 71.3534L189.68 111.492C189.792 111.561 189.886 111.659 189.951 111.777C190.016 111.895 190.05 112.029 190.05 112.166V129.004C190.046 129.215 189.963 129.415 189.82 129.562L186.82 132.719C186.712 132.826 186.578 132.899 186.433 132.929C186.288 132.959 186.138 132.944 186 132.888C185.862 132.827 185.745 132.725 185.663 132.593C185.581 132.462 185.538 132.308 185.54 132.151V117.417L104.3 205.536C100.703 209.207 95.8809 211.248 90.8699 211.219Z" fill="#231F20"/>
<path d="M186.28 116.176C186.147 116.177 186.016 116.141 185.9 116.071L121.08 75.6372C120.919 75.5285 120.802 75.3598 120.754 75.1646C120.706 74.9695 120.729 74.7624 120.82 74.5848C120.922 74.4129 121.082 74.2887 121.268 74.2378C121.454 74.1869 121.652 74.2131 121.82 74.3111L186.63 114.745C186.777 114.828 186.892 114.962 186.958 115.124C187.023 115.285 187.035 115.465 186.991 115.635C186.947 115.804 186.85 115.953 186.715 116.057C186.581 116.161 186.417 116.214 186.25 116.208L186.28 116.176Z" fill="#231F20"/>
<path d="M105.42 131.699L98.3099 139.508C97.99 139.873 97.5624 140.115 97.096 140.193C96.6297 140.271 96.152 140.182 95.7399 139.939L89.1499 135.793C88.8951 135.62 88.6808 135.39 88.5231 135.118C88.3654 134.846 88.2685 134.539 88.2396 134.222C88.2107 133.905 88.2506 133.585 88.3563 133.287C88.4621 132.988 88.6308 132.719 88.8499 132.499L95.9999 124.679C96.3198 124.314 96.7474 124.072 97.2137 123.994C97.68 123.916 98.1578 124.005 98.5699 124.248L105.15 128.405C105.403 128.579 105.614 128.812 105.769 129.086C105.924 129.359 106.018 129.666 106.044 129.983C106.07 130.3 106.027 130.619 105.919 130.916C105.811 131.213 105.64 131.481 105.42 131.699Z" fill="#EEF0F1"/>
<path d="M118.75 117.07L111.63 124.879C111.313 125.25 110.885 125.495 110.418 125.573C109.95 125.652 109.471 125.559 109.06 125.311L102.48 121.164C102.225 120.993 102.009 120.763 101.851 120.491C101.692 120.22 101.594 119.914 101.564 119.596C101.535 119.279 101.574 118.959 101.678 118.66C101.783 118.361 101.952 118.091 102.17 117.87L109.3 110.051C109.62 109.685 110.048 109.444 110.514 109.365C110.98 109.287 111.458 109.377 111.87 109.619L118.45 113.829C118.696 114.002 118.903 114.23 119.055 114.498C119.207 114.765 119.301 115.065 119.329 115.375C119.358 115.685 119.321 115.998 119.221 116.291C119.121 116.584 118.96 116.85 118.75 117.07Z" fill="#FF6433"/>
<path d="M92.2101 146.296L85.0801 154.115C84.7626 154.482 84.3359 154.723 83.8705 154.8C83.405 154.876 82.9287 154.783 82.5201 154.536L75.9301 150.39C75.6754 150.218 75.4611 149.987 75.3034 149.715C75.1457 149.443 75.0488 149.137 75.0199 148.82C74.991 148.502 75.0309 148.182 75.1366 147.884C75.2423 147.585 75.4111 147.316 75.6301 147.096L82.7501 139.234C83.07 138.869 83.4977 138.627 83.964 138.549C84.4303 138.471 84.9081 138.56 85.3201 138.803L91.9101 143.012C92.1632 143.185 92.3759 143.415 92.5324 143.686C92.689 143.957 92.7853 144.262 92.8141 144.578C92.843 144.894 92.8036 145.212 92.6991 145.51C92.5945 145.807 92.4273 146.076 92.2101 146.296Z" fill="#EEF0F1"/>
<path d="M119.07 162.829L112 170.607C111.682 170.971 111.256 171.212 110.791 171.291C110.327 171.369 109.85 171.28 109.44 171.038L102.89 166.902C102.639 166.73 102.427 166.5 102.272 166.23C102.117 165.959 102.021 165.656 101.992 165.342C101.963 165.027 102.002 164.71 102.106 164.414C102.209 164.117 102.375 163.849 102.59 163.629L109.67 155.852C109.99 155.491 110.417 155.253 110.881 155.176C111.345 155.1 111.82 155.19 112.23 155.431L118.78 159.556C119.03 159.73 119.241 159.96 119.395 160.231C119.55 160.502 119.644 160.805 119.672 161.12C119.7 161.434 119.66 161.751 119.556 162.047C119.452 162.343 119.286 162.61 119.07 162.829Z" fill="#EEF0F1"/>
<path d="M105.53 154.694L98.4098 162.513C98.0899 162.879 97.6623 163.12 97.196 163.199C96.7297 163.277 96.2519 163.187 95.8398 162.945L89.2598 158.788C89.0068 158.615 88.7941 158.385 88.6375 158.114C88.481 157.843 88.3847 157.538 88.3559 157.222C88.327 156.907 88.3663 156.588 88.4709 156.29C88.5755 155.993 88.7427 155.724 88.9598 155.504L96.0798 147.653C96.3997 147.288 96.8274 147.046 97.2937 146.968C97.76 146.89 98.2378 146.979 98.6498 147.222L105.23 151.368C105.49 151.54 105.709 151.772 105.87 152.047C106.031 152.321 106.13 152.632 106.159 152.953C106.188 153.275 106.147 153.599 106.037 153.901C105.928 154.203 105.755 154.474 105.53 154.694Z" fill="#FF6433"/>
<path d="M79.4498 160.44L72.3698 168.207C72.0515 168.572 71.6256 168.813 71.161 168.891C70.6964 168.969 70.2203 168.88 69.8098 168.638L63.2698 164.492C63.0185 164.319 62.8073 164.089 62.6519 163.819C62.4965 163.549 62.4008 163.246 62.372 162.931C62.3432 162.617 62.382 162.3 62.4855 162.003C62.5889 161.707 62.7545 161.439 62.9698 161.219L70.0498 153.442C70.368 153.077 70.7939 152.836 71.2585 152.758C71.7231 152.679 72.1992 152.768 72.6098 153.01L79.1498 157.125C79.4081 157.297 79.6256 157.528 79.7856 157.802C79.9456 158.076 80.0438 158.385 80.0728 158.705C80.1018 159.025 80.0607 159.348 79.9527 159.649C79.8447 159.95 79.6726 160.22 79.4498 160.44Z" fill="#FF6433"/>
<path d="M106 177.184L98.9198 184.962C98.5993 185.323 98.1729 185.561 97.7089 185.637C97.2448 185.713 96.7698 185.624 96.3598 185.383L89.8098 181.257C89.5585 181.084 89.3473 180.855 89.1919 180.584C89.0365 180.314 88.9409 180.011 88.9121 179.696C88.8833 179.382 88.922 179.065 89.0255 178.769C89.129 178.472 89.2945 178.204 89.5098 177.984L96.5898 170.207C96.9081 169.842 97.334 169.601 97.7986 169.523C98.2631 169.444 98.7392 169.533 99.1498 169.775L105.7 173.911C105.951 174.084 106.162 174.314 106.318 174.584C106.473 174.854 106.569 175.158 106.598 175.472C106.626 175.786 106.588 176.103 106.484 176.4C106.381 176.696 106.215 176.964 106 177.184Z" fill="#EEF0F1"/>
<path d="M92.7098 168.796L85.6198 176.573C85.3019 176.935 84.8771 177.174 84.4143 177.25C83.9515 177.327 83.4778 177.237 83.0698 176.994L76.5198 172.911C76.2685 172.738 76.0573 172.508 75.9019 172.238C75.7465 171.968 75.6508 171.665 75.622 171.35C75.5932 171.036 75.632 170.719 75.7355 170.422C75.8389 170.126 76.0045 169.858 76.2198 169.638L83.2998 161.861C83.618 161.496 84.0439 161.255 84.5085 161.177C84.9731 161.098 85.4492 161.187 85.8598 161.429L92.4098 165.544C92.6576 165.717 92.8657 165.946 93.0189 166.214C93.1721 166.482 93.2664 166.783 93.2952 167.095C93.3239 167.406 93.2863 167.721 93.185 168.015C93.0837 168.309 92.9214 168.576 92.7098 168.796Z" fill="#EEF0F1"/>
<path d="M118.91 139.929L111.83 147.706C111.512 148.068 111.088 148.307 110.625 148.383C110.162 148.46 109.688 148.369 109.28 148.127L102.73 144.002C102.479 143.829 102.268 143.599 102.112 143.329C101.957 143.059 101.861 142.755 101.832 142.441C101.804 142.127 101.842 141.81 101.946 141.513C102.049 141.217 102.215 140.949 102.43 140.729L109.51 132.951C109.826 132.586 110.251 132.345 110.715 132.268C111.179 132.192 111.653 132.284 112.06 132.53L118.61 136.656C118.862 136.828 119.073 137.058 119.228 137.328C119.384 137.599 119.479 137.902 119.508 138.216C119.537 138.531 119.498 138.848 119.395 139.144C119.291 139.441 119.126 139.709 118.91 139.929Z" fill="#FF6433"/>
<path d="M132.08 125.468L125 133.288C124.68 133.653 124.252 133.895 123.786 133.973C123.32 134.051 122.842 133.962 122.43 133.719L115.84 129.509C115.585 129.337 115.371 129.106 115.213 128.834C115.055 128.562 114.958 128.256 114.93 127.939C114.901 127.622 114.941 127.302 115.046 127.003C115.152 126.705 115.321 126.435 115.54 126.215L122.66 118.396C122.979 118.029 123.407 117.787 123.875 117.711C124.342 117.634 124.82 117.727 125.23 117.975L131.82 122.122C132.081 122.296 132.3 122.532 132.46 122.81C132.619 123.089 132.716 123.402 132.741 123.727C132.766 124.051 132.72 124.377 132.605 124.679C132.49 124.981 132.31 125.251 132.08 125.468Z" fill="#EEF0F1"/>
<path d="M132.21 148.316L125.13 156.073C124.811 156.437 124.386 156.678 123.921 156.757C123.456 156.835 122.98 156.746 122.57 156.504L116 152.389C115.748 152.217 115.537 151.987 115.382 151.717C115.226 151.447 115.131 151.143 115.102 150.829C115.073 150.514 115.112 150.197 115.215 149.901C115.319 149.604 115.484 149.336 115.7 149.116L122.78 141.339C123.096 140.974 123.521 140.733 123.984 140.656C124.448 140.58 124.923 140.672 125.33 140.918L131.88 145.043C132.133 145.213 132.347 145.441 132.505 145.71C132.663 145.979 132.762 146.282 132.794 146.596C132.825 146.911 132.789 147.229 132.688 147.527C132.587 147.824 132.424 148.094 132.21 148.316Z" fill="#FF6433"/>
<path d="M145.45 133.899L138.33 141.718C138.01 142.084 137.582 142.325 137.116 142.403C136.65 142.482 136.172 142.392 135.76 142.15L129.18 138.003C128.924 137.832 128.709 137.602 128.551 137.33C128.392 137.058 128.294 136.753 128.264 136.435C128.234 136.118 128.273 135.798 128.378 135.499C128.483 135.2 128.651 134.93 128.87 134.709L136 126.89C136.32 126.524 136.747 126.283 137.214 126.204C137.68 126.126 138.158 126.215 138.57 126.458L145.15 130.668C145.394 130.841 145.599 131.069 145.75 131.335C145.901 131.602 145.994 131.9 146.023 132.209C146.052 132.518 146.015 132.829 145.916 133.121C145.817 133.413 145.658 133.679 145.45 133.899Z" fill="#EEF0F1"/>
<path d="M158.71 119.238L151.63 127.016C151.311 127.38 150.886 127.621 150.421 127.7C149.956 127.778 149.48 127.689 149.07 127.447L116 106.609C115.748 106.437 115.537 106.207 115.382 105.937C115.226 105.667 115.131 105.363 115.102 105.049C115.073 104.734 115.112 104.417 115.215 104.121C115.319 103.824 115.484 103.556 115.7 103.336L122.78 95.559C123.098 95.1969 123.522 94.9583 123.985 94.8819C124.448 94.8055 124.922 94.8958 125.33 95.1381L158.42 115.997C158.665 116.171 158.871 116.4 159.022 116.668C159.173 116.935 159.266 117.235 159.294 117.545C159.321 117.855 159.283 118.168 159.182 118.461C159.081 118.754 158.92 119.019 158.71 119.238Z" fill="#FF6433"/>
<path d="M190.21 69.2698C184.738 66.0037 178.589 64.1971 172.3 64.0078C172.228 63.9655 172.15 63.9336 172.07 63.9131L170.72 63.5553C170.905 63.1757 170.958 62.7402 170.87 62.3239C170.766 61.9769 170.597 61.6549 170.374 61.3768C170.151 61.0986 169.878 60.8697 169.57 60.7032C169.43 60.6233 169.276 60.5762 169.117 60.5653C168.958 60.5544 168.799 60.5799 168.65 60.6401C168.568 60.6692 168.495 60.7222 168.44 60.7929C168.385 60.8637 168.351 60.9494 168.34 61.04C168.339 61.1307 168.362 61.2199 168.406 61.2979C168.45 61.3759 168.514 61.4395 168.59 61.482C168.78 61.5811 168.949 61.7186 169.088 61.8865C169.227 62.0545 169.333 62.2496 169.4 62.4608C169.426 62.6396 169.413 62.8223 169.363 62.9953C169.313 63.1683 169.226 63.3273 169.11 63.4605H169.06L168.39 64.1551L168.3 64.2183H168.25C168.179 64.2614 168.12 64.3246 168.081 64.4009C168.043 64.4772 168.025 64.5634 168.03 64.6498L168.48 68.3542L168.34 68.4279L168.5 68.5226L168.76 70.6275C168.743 70.6609 168.719 70.6897 168.69 70.7116H168.54C168.388 70.7383 168.232 70.7383 168.08 70.7116C167.917 70.6973 167.757 70.6656 167.6 70.6169L167.44 70.5433C167.4 70.5201 167.366 70.4877 167.34 70.4485L164.66 65.3023C164.608 65.2054 164.532 65.1254 164.44 65.0707C164.243 64.9635 164.021 64.9195 163.8 64.9444C163.694 64.9425 163.59 64.9696 163.497 65.0231C163.404 65.0767 163.326 65.1547 163.27 65.2496C163.236 65.3101 163.218 65.3792 163.218 65.4496C163.218 65.52 163.236 65.5891 163.27 65.6496L164.54 68.0911L163.93 68.3227L161.86 67.0703C161.724 66.9739 161.616 66.8389 161.55 66.6809C161.397 66.1784 161.429 65.6337 161.64 65.1549C162.06 64.0078 162.73 62.3239 163 61.6504C163.42 60.598 163.77 59.7455 163.84 59.5456C163.875 59.4322 163.868 59.3094 163.822 59.2007C163.776 59.0919 163.693 59.0049 163.59 58.9562C163.49 58.8988 163.382 58.8596 163.27 58.8405C163.111 58.7919 162.941 58.7973 162.785 58.8559C162.629 58.9144 162.494 59.0231 162.4 59.1667C162.34 59.3246 160.89 62.8922 160.2 64.7655C160.051 65.1037 159.969 65.4697 159.957 65.8421C159.945 66.2144 160.004 66.5855 160.13 66.9335C160.241 67.1841 160.397 67.4094 160.59 67.5965L161.1 67.9122C160.749 68.4682 160.509 69.0938 160.396 69.7507C160.282 70.4076 160.297 71.082 160.44 71.7325C161.02 74.6477 163.81 77.8154 168.09 80.4149C173.712 83.7424 180.031 85.5504 186.48 85.6769C189.171 85.7642 191.849 85.2401 194.33 84.1404C196.69 82.9722 197.97 81.2463 198.06 79.1415C198.07 76.0895 195.18 72.2903 190.21 69.2698ZM162.06 69.2067C162.11 69.1015 162.16 68.9857 162.22 68.8805L162.49 69.0383L162.06 69.2067ZM161.85 70.0591L166.36 73.6794L166.45 73.7426C166.692 73.8808 166.975 73.9148 167.24 73.8373L173.33 72.1535C173.419 72.1384 173.502 72.0995 173.572 72.0405C173.642 71.9815 173.697 71.9044 173.73 71.8167C173.757 71.7202 173.754 71.6172 173.722 71.5226C173.689 71.428 173.629 71.3467 173.55 71.2905L171 69.3014C171.201 69.272 171.396 69.2117 171.58 69.1225C171.73 69.0504 171.868 68.9546 171.99 68.8384C172.127 68.7049 172.233 68.5414 172.302 68.3594C172.371 68.1774 172.401 67.9816 172.39 67.7859C172.734 67.7913 173.075 67.7196 173.39 67.5755C173.521 67.5155 173.64 67.4288 173.74 67.3205C173.839 67.2121 173.918 67.0842 173.97 66.944C174.024 66.7694 174.04 66.5844 174.017 66.4025C173.995 66.2205 173.934 66.046 173.84 65.8916C173.702 65.6218 173.538 65.3679 173.35 65.1339C178.966 65.4807 184.435 67.1571 189.35 70.0381C193.98 72.848 196.67 76.2684 196.56 79.1835C196.49 80.9306 195.39 82.3408 193.39 83.3932C187.78 86.1821 176.85 84.5824 169.02 79.8255C165.11 77.4471 162.52 74.5635 161.93 71.9956C161.786 71.3413 161.786 70.6609 161.93 70.0065L161.85 70.0591ZM170.6 66.7651C170.692 66.9632 170.762 67.1715 170.81 67.386C170.855 67.5076 170.872 67.6386 170.86 67.7684C170.848 67.8982 170.807 68.0232 170.74 68.1332L170.63 68.2174C170.577 68.2236 170.523 68.2236 170.47 68.2174C170.326 68.1987 170.185 68.1598 170.05 68.1017H169.92L169.74 65.8074L170.01 65.9758C170.12 66.0368 170.219 66.1189 170.3 66.2179L170.6 66.7651ZM172.48 66.5862C172.476 66.6023 172.468 66.6172 172.458 66.63C172.447 66.6427 172.435 66.6529 172.42 66.6599C172.324 66.6803 172.226 66.6803 172.13 66.6599L172.01 66.4283C171.93 66.2494 171.84 66.0705 171.75 65.9127L171.6 65.6706C171.444 65.4692 171.25 65.3043 171.03 65.1865L170 64.513L171.33 64.8602C171.599 65.14 171.852 65.4351 172.09 65.7443C172.223 65.9238 172.337 66.1178 172.43 66.3231C172.465 66.4026 172.485 66.4883 172.49 66.5757L172.48 66.5862ZM170.2 70.6906L170.14 70.2065L171.7 71.4168L167.1 72.6902L163.6 69.8802L165.04 69.3225L165.9 70.9747C166.028 71.2068 166.215 71.3964 166.44 71.522C166.609 71.6284 166.79 71.7099 166.98 71.7641C167.274 71.8576 167.575 71.9245 167.88 71.964C168.268 72.0229 168.662 72.0229 169.05 71.964C169.214 71.9222 169.375 71.8659 169.53 71.7956C169.744 71.7184 169.927 71.567 170.049 71.3663C170.17 71.1656 170.224 70.9274 170.2 70.6906Z" fill="#231F20"/>
<path d="M182.14 80.1409V80.1936C182.131 80.2952 182.152 80.3974 182.201 80.486C182.249 80.5745 182.322 80.6452 182.41 80.6882C182.533 80.7631 182.669 80.8097 182.81 80.825H182.94C183.31 80.825 183.59 80.6566 183.63 80.3935C183.747 80.0651 183.93 79.7671 184.166 79.52C184.403 79.273 184.687 79.0827 185 78.9622C185.949 78.5392 186.97 78.3278 188 78.3413C188.11 78.3475 188.219 78.327 188.32 78.2814C188.42 78.2357 188.509 78.1662 188.58 78.0782C188.619 78.027 188.644 77.9665 188.655 77.9021C188.665 77.8377 188.66 77.7716 188.64 77.7099C188.591 77.5787 188.499 77.4704 188.38 77.4047C188.208 77.3076 188.015 77.2604 187.82 77.2679C186.548 77.2608 185.289 77.5295 184.12 78.0572C183.663 78.2259 183.247 78.5008 182.905 78.8615C182.562 79.2222 182.301 79.6595 182.14 80.1409Z" fill="#231F20"/>
<path d="M178.07 79.247C178.059 79.3504 178.079 79.4549 178.127 79.5456C178.176 79.6363 178.25 79.7086 178.34 79.7522C178.467 79.8243 178.606 79.8707 178.75 79.889H178.87C179.016 79.91 179.164 79.8775 179.29 79.797C179.415 79.7165 179.511 79.5929 179.56 79.447C179.756 78.892 180.064 78.3883 180.463 77.9705C180.862 77.5527 181.342 77.2306 181.87 77.0264C183.4 76.3374 185.046 75.9795 186.71 75.974C186.819 75.9779 186.928 75.9563 187.028 75.9109C187.128 75.8654 187.218 75.7971 187.29 75.7109C187.317 75.6538 187.331 75.5907 187.331 75.5267C187.331 75.4628 187.317 75.3997 187.29 75.3426C187.269 75.2769 187.237 75.2162 187.194 75.1638C187.151 75.1114 187.099 75.0685 187.04 75.0374C186.87 74.9351 186.675 74.8875 186.48 74.9006C184.572 74.8949 182.684 75.2996 180.93 76.0898C180.257 76.3537 179.65 76.775 179.155 77.322C178.659 77.8689 178.288 78.5271 178.07 79.247Z" fill="#231F20"/>
<path d="M169.67 77.7311C169.792 77.8061 169.929 77.8527 170.07 77.8679H170.21C170.355 77.8878 170.503 77.8534 170.627 77.7708C170.752 77.6882 170.844 77.5624 170.89 77.4154C170.89 77.2996 171.47 74.7423 175.15 72.9111C177.913 71.6908 180.883 71.0715 183.88 71.0904C183.989 71.0943 184.097 71.0728 184.198 71.0273C184.298 70.9818 184.388 70.9135 184.46 70.8273C184.497 70.7753 184.521 70.7148 184.532 70.6507C184.542 70.5867 184.538 70.521 184.52 70.459C184.476 70.3251 184.387 70.2128 184.27 70.1433C184.098 70.0471 183.905 70 183.71 70.0064C180.456 69.9845 177.233 70.665 174.24 72.006C170.04 74.1108 169.44 77.0892 169.41 77.2049C169.392 77.3106 169.407 77.4196 169.454 77.5148C169.501 77.6101 169.577 77.6862 169.67 77.7311Z" fill="#231F20"/>
<path d="M173.92 78.1102C173.905 78.2127 173.922 78.3177 173.969 78.409C174.016 78.5002 174.09 78.5727 174.18 78.6153C174.304 78.6858 174.44 78.7321 174.58 78.7521H174.71C174.854 78.7726 175.001 78.7397 175.125 78.6591C175.249 78.5785 175.343 78.4552 175.39 78.3101C175.39 78.3101 175.84 76.3526 178.54 75.0056C180.585 74.1031 182.782 73.6415 185 73.6479C185.109 73.6518 185.218 73.6303 185.318 73.5848C185.418 73.5393 185.508 73.471 185.58 73.3848C185.607 73.3277 185.621 73.2646 185.621 73.2007C185.621 73.1367 185.607 73.0737 185.58 73.0165C185.559 72.9508 185.527 72.8901 185.484 72.8377C185.441 72.7853 185.389 72.7424 185.33 72.7113C185.158 72.6143 184.965 72.567 184.77 72.5745C182.286 72.5526 179.824 73.0722 177.54 74.1005C174.4 75.7107 173.94 77.9839 173.92 78.1102Z" fill="#231F20"/>
</svg>
