<svg width="256" height="256" viewBox="0 0 256 256" fill="none" xmlns="http://www.w3.org/2000/svg">
<path d="M110.2 128.9L46.3999 166.6C46.1999 166.7 46.0999 166.8 45.9999 167C45.8999 167.2 45.8999 167.3 45.8999 167.5C45.8999 167.7 45.9999 167.9 45.9999 168C45.9999 168.1 46.1999 168.3 46.3999 168.4L139.2 222.3C140.8 223.2 142.5 223.7 144.4 223.7C146.3 223.7 148 223.2 149.6 222.3L209.8 187.7C210 187.6 210.1 187.5 210.2 187.3C210.3 187.1 210.3 187 210.3 186.8C210.3 186.6 210.2 186.4 210.2 186.3C210.1 186.1 210 186 209.8 185.9L110.2 128.9Z" fill="#BEDCE3"/>
<path fill-rule="evenodd" clip-rule="evenodd" d="M47.1997 148.4V153.6C47.1997 154.7 47.4997 155.7 47.9997 156.6C48.4997 157.5 49.2997 158.3 50.1997 158.8L138.8 209.1C139.7 209.6 140.7 209.9 141.8 209.9C142.8 209.9 143.9 209.6 144.8 209.1L204.5 174.8C205.4 174.3 206.2 173.5 206.7 172.6C207.2 171.7 207.5 170.7 207.5 169.6V94.9001C207.5 93.4001 206.9 91.9001 205.9 90.8001C204.8 89.7001 203.4 89.0001 201.9 88.9001L68.3997 81.6001C67.5997 81.6001 66.7997 81.7001 65.9997 82.0001C65.1997 82.3001 64.4997 82.7001 63.9997 83.3001C63.3997 83.9001 62.8997 84.5001 62.5997 85.3001C62.2997 86.0001 62.0997 86.9001 62.0997 87.7001V133C62.0997 134.1 61.7997 135.1 61.2997 136C60.7997 136.9 59.9997 137.7 59.0997 138.2L50.1997 143.3C49.2997 143.8 48.4997 144.6 47.9997 145.5C47.4997 146.3 47.1997 147.3 47.1997 148.4Z" fill="white"/>
<path d="M61.7998 136.1L156.4 190.1" stroke="#231F20" stroke-width="2" stroke-linecap="round" stroke-linejoin="round"/>
<path d="M146.1 190.9C146.1 192 145.7 193.1 144.9 193.9C144.1 194.7 143 195.1 141.9 195.1C140.8 195.1 139.7 194.7 138.9 193.9C138.1 193.1 137.7 192 137.7 190.9V124.3C137.7 123.2 138.1 122.1 138.9 121.3C139.7 120.5 140.8 120.1 141.9 120.1C143 120.1 144.1 120.5 144.9 121.3C145.7 122.1 146.1 123.2 146.1 124.3V190.9Z" fill="#BEDCE3"/>
<path d="M96.1997 69.7999L142.2 127.3L207.4 89.2999L161.2 32.3999L96.1997 69.7999Z" fill="white"/>
<path d="M62.1001 70.6001V136.4" stroke="#231F20" stroke-width="2" stroke-linecap="round" stroke-linejoin="round"/>
<path d="M51 147.1L141.6 199" stroke="#231F20" stroke-width="2" stroke-linecap="round" stroke-linejoin="round"/>
<path d="M47.1997 156.6V148.5C47.1997 147.4 47.4997 146.4 47.9997 145.4C48.4997 144.5 49.2997 143.7 50.2997 143.2L62.0997 136.4" stroke="#231F20" stroke-width="2" stroke-linecap="round" stroke-linejoin="round"/>
<path d="M59.6998 141.6C59.6998 142.7 59.2998 143.8 58.4998 144.6C57.6998 145.4 56.5998 145.8 55.4998 145.8C54.8998 145.8 54.3998 145.7 53.8998 145.5C53.3998 145.3 52.8998 145 52.4998 144.6C52.0998 144.2 51.7998 143.7 51.5998 143.2C51.3998 142.7 51.2998 142.1 51.2998 141.6V74.9998C51.2998 73.8998 51.7998 72.7998 52.5998 71.9998C53.3998 71.1998 54.4998 70.7998 55.5998 70.7998C56.6998 70.7998 57.7998 71.2998 58.5998 71.9998C59.3998 72.7998 59.7998 73.8998 59.7998 74.9998V141.6H59.6998Z" fill="#BEDCE3"/>
<path d="M84.5001 155.4C84.5001 156.5 84.1001 157.6 83.3001 158.4C82.5001 159.2 81.4001 159.6 80.3001 159.6C79.2001 159.6 78.1001 159.1 77.3001 158.3C76.5001 157.5 76.1001 156.4 76.1001 155.3V88.8001C76.1001 88.2001 76.2001 87.7001 76.4001 87.2001C76.6001 86.7001 76.9001 86.2001 77.3001 85.8001C77.7001 85.4001 78.2001 85.1001 78.7001 84.9001C79.2001 84.7001 79.8001 84.6001 80.3001 84.6001C81.4001 84.6001 82.5001 85.0001 83.3001 85.8001C84.1001 86.6001 84.5001 87.7001 84.5001 88.8001V155.4Z" fill="#BEDCE3"/>
<path d="M115.3 172.8C115.3 173.9 114.8 175 114 175.8C113.2 176.6 112.1 177 111 177C109.9 177 108.8 176.6 108 175.8C107.2 175 106.8 173.9 106.8 172.8V106.3C106.8 105.2 107.3 104.1 108.1 103.3C108.9 102.5 110 102.1 111.1 102.1C112.2 102.1 113.3 102.5 114.1 103.3C114.9 104.1 115.3 105.2 115.3 106.3V172.8Z" fill="#BEDCE3"/>
<path d="M141.8 210.7V201.6C141.8 200.8 142 200 142.4 199.4C142.8 198.7 143.4 198.2 144.1 197.8L156.8 190.6" stroke="#231F20" stroke-width="2" stroke-linecap="round" stroke-linejoin="round"/>
<path d="M207.5 161.1V168.4C207.5 169.8 207.1 171.2 206.4 172.4C205.7 173.6 204.7 174.6 203.5 175.3L141.7 211L47.1001 157" stroke="#231F20" stroke-width="2" stroke-linecap="round" stroke-linejoin="round"/>
<path d="M156.7 124.6V190.4L207.4 161.4V94.7997C207.4 94.1997 207.3 93.6997 207 93.1997C206.7 92.6997 206.3 92.2997 205.8 92.0997C205.3 91.7997 204.8 91.6997 204.2 91.6997C203.7 91.6997 203.1 91.7997 202.6 92.0997L142.2 127.2" stroke="#231F20" stroke-width="2" stroke-linecap="round" stroke-linejoin="round"/>
<path d="M113.7 36.2999L47.5 72.8999L96.1 69.7999L160.2 32.8999L113.7 36.2999Z" fill="white"/>
<path d="M114.6 35.6998L157.6 32.6998C158.7 32.5998 159.8 32.7998 160.8 33.1998C161.8 33.5998 162.7 34.2998 163.4 35.1998L204.7 85.9998" stroke="#231F20" stroke-width="2" stroke-linecap="round" stroke-linejoin="round"/>
<path d="M51.8997 72.6001L93.3997 70.0001C94.2997 69.9001 95.0997 70.1001 95.8997 70.5001C96.6997 70.8001 97.3997 71.4001 97.8997 72.0001L137.9 121.9C138.1 122.1 138.3 122.4 138.3 122.8C138.3 123.1 138.2 123.5 138 123.7C137.8 124 137.5 124.1 137.2 124.2C136.9 124.2 136.5 124.2 136.3 124L51.2997 75.0001C51.0997 74.9001 50.8997 74.6001 50.7997 74.4001C50.6997 74.1001 50.6997 73.9001 50.6997 73.6001C50.7997 73.3001 50.8997 73.1001 51.0997 72.9001C51.3997 72.7001 51.5997 72.6001 51.8997 72.6001Z" fill="white" stroke="#231F20" stroke-width="2" stroke-linecap="round" stroke-linejoin="round"/>
<path d="M70.5999 78.7999L93.1999 77.3999H93.2999C93.2999 77.3999 93.3999 77.3999 93.3999 77.4999L116 105V105.1V105.2L115.9 105.3H115.8L70.4999 79.1999L70.3999 79.0999V78.9999C70.3999 78.9999 70.3999 78.8999 70.4999 78.8999C70.5999 78.7999 70.5999 78.7999 70.5999 78.7999Z" fill="#EF5023"/>
<path d="M59 67.3997L114.6 35.6997" stroke="#231F20" stroke-width="2" stroke-linecap="round" stroke-linejoin="round"/>
<path d="M96.1997 69.7999L160.5 33.3999" stroke="#231F20" stroke-width="2" stroke-linecap="round" stroke-linejoin="round"/>
<path d="M106.21 154.62L103.67 153.14V152.48C103.67 151.4 102.99 150.12 102.14 149.63L98.8802 147.73C98.2102 144.32 96.0502 140.84 93.5002 139.35C90.9502 137.86 88.7802 138.82 88.1202 141.46L84.8602 139.56C84.0202 139.07 83.3302 139.56 83.3302 140.64V141.3L80.7902 139.82C77.7002 138.02 75.2002 139.79 75.2002 143.77V184.39C75.2002 188.37 77.7102 193.06 80.7902 194.85L106.22 209.66C109.31 211.46 111.81 209.69 111.81 205.71V165.09C111.81 161.11 109.3 156.42 106.22 154.63L106.21 154.62Z" fill="#BEDCE3"/>
<path d="M94.2104 214.65L68.7804 199.84C65.6904 198.04 63.1904 193.35 63.1904 189.38V148.76C63.1904 144.78 65.7004 143.01 68.7804 144.81L94.2104 159.62C97.3004 161.42 99.8004 166.11 99.8004 170.08V210.7C99.8004 214.68 97.2904 216.45 94.2104 214.65Z" fill="#21C68B"/>
<path d="M92.2805 175.49L70.7305 162.84" stroke="white" stroke-width="4" stroke-linecap="round" stroke-linejoin="round"/>
<path d="M92.2805 184.05L70.7305 171.4" stroke="white" stroke-width="4" stroke-linecap="round" stroke-linejoin="round"/>
<path d="M92.2805 192.6L70.7305 179.95" stroke="white" stroke-width="4" stroke-linecap="round" stroke-linejoin="round"/>
<path d="M92.2805 201.16L70.7305 188.51" stroke="white" stroke-width="4" stroke-linecap="round" stroke-linejoin="round"/>
<path d="M88.1106 163.92L74.8906 156.22C72.9306 155.08 71.3306 152.09 71.3306 149.56V145.63C71.3306 144.55 72.0106 144.06 72.8606 144.55L76.1206 146.45C76.7906 143.82 78.9506 142.86 81.5006 144.34C84.0606 145.83 86.2206 149.31 86.8806 152.72L90.1406 154.62C90.9806 155.11 91.6706 156.39 91.6706 157.47V161.4C91.6706 163.93 90.0706 165.06 88.1106 163.91V163.92Z" fill="#403C3D"/>
<path d="M94.2102 159.62L91.6702 158.14V157.48C91.6702 156.4 90.9902 155.12 90.1402 154.63L86.8802 152.73C86.2102 149.32 84.0502 145.84 81.5002 144.35C78.9502 142.86 76.7802 143.82 76.1202 146.46L72.8602 144.56C72.0202 144.07 71.3302 144.56 71.3302 145.64V146.3L68.7902 144.82C65.7002 143.02 63.2002 144.79 63.2002 148.77V189.39C63.2002 193.37 65.7102 198.06 68.7902 199.85L94.2202 214.66C97.3102 216.46 99.8102 214.69 99.8102 210.71V170.09C99.8102 166.11 97.3002 161.42 94.2202 159.63L94.2102 159.62Z" stroke="#231F20" stroke-width="2" stroke-linecap="round" stroke-linejoin="round"/>
</svg>
