<svg width="256" height="256" viewBox="0 0 256 256" fill="none" xmlns="http://www.w3.org/2000/svg">
<path d="M51 180L128 136L205 180L128 224L51 180Z" fill="#BEDCE3"/>
<path d="M51 168L128 124L205 168L128 212L51 168Z" fill="white"/>
<path d="M128 124L51 167.598V99.0979L128 55.5V124Z" fill="#BEDCE3"/>
<path d="M205 99.0977L128 55.4998V124L205 167.598V99.0977Z" fill="white"/>
<path d="M128 212L51 167.598V99.0979L128 143.5V212Z" fill="white"/>
<path d="M205 167.539L128 212V143.557L205 99V167.539Z" fill="#BEDCE3"/>
<path d="M163 192.014L179 182.757V143L163 152.194V192.014Z" fill="#F05023"/>
<path fill-rule="evenodd" clip-rule="evenodd" d="M50.5002 98.1339C50.8097 97.9553 51.191 97.9554 51.5004 98.1342L128 142.345L204.5 98.1342C204.809 97.9554 205.19 97.9553 205.5 98.1339C205.809 98.3125 206 98.6427 206 99V167.539C206 167.896 205.809 168.226 205.5 168.405L128.5 212.866C128.191 213.045 127.809 213.045 127.5 212.866L50.5 168.405C50.1906 168.226 50 167.896 50 167.539V99C50 98.6427 50.1907 98.3125 50.5002 98.1339ZM52 100.733V166.962L128 210.845L204 166.962V100.733L128.5 144.366C128.191 144.545 127.809 144.545 127.5 144.366L52 100.733Z" fill="#231F20"/>
<path fill-rule="evenodd" clip-rule="evenodd" d="M204.446 100.333C203.986 100.027 203.862 99.4061 204.168 98.9463L219.577 75.7939L144.312 32.3346L128.832 55.5551C128.526 56.0146 127.905 56.1388 127.445 55.8324C126.986 55.5261 126.862 54.9052 127.168 54.4457L143.168 30.4451C143.46 30.0063 144.043 29.8701 144.5 30.1337L221.5 74.5948C221.739 74.733 221.911 74.9639 221.974 75.2329C222.037 75.5019 221.986 75.7849 221.832 76.0149L205.832 100.054C205.526 100.514 204.906 100.639 204.446 100.333Z" fill="#231F20"/>
<path fill-rule="evenodd" clip-rule="evenodd" d="M51.5541 100.332C52.0138 100.026 52.1385 99.4056 51.8325 98.9458L36.4229 75.7934L45 70.8409C45.4783 70.5647 45.6422 69.9531 45.366 69.4748C45.0898 68.9966 44.4782 68.8327 44 69.1089L34.5 74.5943C34.2607 74.7325 34.0893 74.9634 34.0263 75.2324C33.9634 75.5014 34.0145 75.7844 34.1675 76.0144L50.1675 100.054C50.4735 100.514 51.0943 100.638 51.5541 100.332ZM128.555 55.832C129.014 55.5256 129.138 54.9047 128.832 54.4452L112.832 30.4446C112.54 30.0058 111.957 29.8696 111.5 30.1333L84 46.0122C83.5217 46.2884 83.3578 46.9 83.634 47.3783C83.9102 47.8565 84.5218 48.0204 85 47.7442L111.688 32.3341L127.168 55.5546C127.474 56.0141 128.095 56.1383 128.555 55.832Z" fill="#231F20"/>
<path d="M221 123.039L144 167.5L128 143.5L205 98.9995L221 123.039Z" fill="white"/>
<path fill-rule="evenodd" clip-rule="evenodd" d="M205.832 98.4456C205.54 98.0062 204.957 97.8697 204.5 98.1338L127.5 142.634C127.26 142.772 127.089 143.003 127.026 143.272C126.963 143.541 127.015 143.824 127.168 144.054L143.168 168.055C143.46 168.494 144.043 168.63 144.5 168.366L221.5 123.905C221.739 123.767 221.911 123.536 221.974 123.267C222.037 122.998 221.986 122.715 221.832 122.485L205.832 98.4456ZM204.688 100.335L219.577 122.706L144.312 166.165L129.423 143.832L204.688 100.335Z" fill="#231F20"/>
<path d="M35 123.039L112 167.5L128 143.5L51 98.9995L35 123.039Z" fill="white"/>
<path fill-rule="evenodd" clip-rule="evenodd" d="M50.6876 97.6641L129.423 143.167L112.832 168.055C112.54 168.494 111.957 168.63 111.5 168.366L34.5 123.905C34.2607 123.767 34.0893 123.536 34.0263 123.267C33.9634 122.998 34.0145 122.715 34.1675 122.485L50.6876 97.6641ZM51.3124 100.335L36.4229 122.706L111.688 166.165L126.577 143.832L51.3124 100.335Z" fill="#231F20"/>
</svg>
