<svg width="256" height="256" viewBox="0 0 256 256" fill="none" xmlns="http://www.w3.org/2000/svg">
<path d="M141 76.5602C146.76 79.8802 151.41 87.9402 151.39 94.5602L151.25 145.47C151.25 152.08 146.55 154.76 140.79 151.47L102.53 129.38L82.4 138.63L82.46 117.77L75.33 113.66C69.58 110.34 64.93 102.26 64.94 95.6602L65.09 44.7602C65.09 38.1402 69.79 35.4802 75.54 38.7602L141 76.5602Z" fill="white"/>
<path d="M92.72 133.51L166.72 176.68C166.865 176.77 166.984 176.895 167.067 177.044C167.15 177.192 167.193 177.36 167.193 177.53C167.193 177.7 167.15 177.868 167.067 178.016C166.984 178.165 166.865 178.29 166.72 178.38L148.22 189.38C146.719 190.269 145.01 190.744 143.266 190.758C141.522 190.772 139.805 190.324 138.29 189.46L62.56 146.26C62.4108 146.171 62.2872 146.046 62.2013 145.895C62.1155 145.744 62.0703 145.574 62.0703 145.4C62.0703 145.226 62.1155 145.056 62.2013 144.905C62.2872 144.754 62.4108 144.629 62.56 144.54L82.3 133.29C83.93 132.36 81.21 137.72 83.02 137.79C84.61 137.85 91.3 132.68 92.72 133.51Z" fill="#BEDCE3"/>
<path d="M164.25 86.7202C164.001 83.1925 162.934 79.7714 161.132 76.7284C159.33 73.6854 156.844 71.1043 153.87 69.1902L88.4501 31.4202C88.1101 31.2302 87.7701 31.0502 87.4501 30.8902C85.4401 30.0002 83.0001 29.5602 81.0001 30.7002L68.1001 38.0602C68.546 37.8052 69.0282 37.6197 69.5301 37.5102C71.6198 37.1731 73.7599 37.6297 75.5301 38.7902L141 76.5602C144.046 78.5103 146.579 81.1628 148.387 84.295C150.195 87.4272 151.225 90.9475 151.39 94.5602L151.25 145.47C151.273 146.881 151.001 148.281 150.45 149.58C149.979 150.648 149.194 151.548 148.2 152.16L161.1 144.8C161.821 144.332 162.44 143.721 162.918 143.006C163.396 142.291 163.723 141.486 163.88 140.64C164.06 139.806 164.151 138.954 164.15 138.1L164.3 87.2002C164.26 87.0002 164.25 86.8702 164.25 86.7202Z" fill="white"/>
<path d="M148.32 84.25C150.154 87.3832 151.185 90.9217 151.32 94.55L151.18 145.46C151.203 146.871 150.93 148.271 150.38 149.57C149.909 150.638 149.124 151.538 148.13 152.15L161.03 144.79C161.751 144.321 162.37 143.711 162.848 142.996C163.326 142.281 163.653 141.476 163.81 140.63C163.99 139.795 164.081 138.944 164.08 138.09L164.23 87.19C164.23 87.03 164.23 86.87 164.23 86.72C163.977 82.994 162.801 79.3893 160.81 76.23L148.32 84.25Z" fill="#BEDCE3"/>
<path fill-rule="evenodd" clip-rule="evenodd" d="M80.5046 29.8314C82.9185 28.4554 85.7396 29.0393 87.8547 29.9758C87.8689 29.9821 87.883 29.9887 87.897 29.9957C88.2314 30.1629 88.585 30.3501 88.9376 30.5472L88.9498 30.554L154.38 68.3241C154.388 68.3286 154.395 68.3332 154.403 68.3379C154.409 68.3416 154.415 68.3454 154.421 68.3493C157.525 70.3476 160.121 73.0421 162.002 76.2188C163.883 79.3956 164.998 82.9671 165.257 86.6498C165.258 86.6631 165.259 86.6764 165.259 86.6897C165.26 86.6998 165.26 86.71 165.26 86.7201V87.1902L165.11 138.089C165.11 138.09 165.11 138.089 165.11 138.089C165.11 139.009 165.013 139.928 164.82 140.827C164.638 141.801 164.26 142.728 163.709 143.552C163.156 144.38 162.44 145.086 161.605 145.629C161.594 145.636 161.582 145.643 161.571 145.649C161.566 145.653 161.561 145.656 161.555 145.659L148.655 153.019C148.176 153.292 147.565 153.125 147.291 152.646C147.018 152.166 147.185 151.555 147.664 151.282L160.538 143.936C161.136 143.544 161.649 143.035 162.046 142.44C162.449 141.838 162.724 141.16 162.857 140.448C162.858 140.438 162.86 140.429 162.862 140.419C163.027 139.654 163.11 138.874 163.11 138.091L163.26 87.1902V87.1883L163.26 87.1872L163.26 86.7564C163.018 83.396 161.998 80.1371 160.281 77.2378C158.563 74.3354 156.193 71.8726 153.359 70.044L87.962 32.2931C87.9599 32.292 87.9579 32.2908 87.9559 32.2897C87.6381 32.1122 87.3213 31.9444 87.0237 31.7951C85.1248 30.9589 83.0754 30.6683 81.4953 31.5688C81.4952 31.5688 81.4954 31.5687 81.4953 31.5688L68.5953 38.9287C68.1156 39.2024 67.5049 39.0354 67.2312 38.5557C66.9575 38.076 67.1245 37.4653 67.6042 37.1916L80.5046 29.8314Z" fill="black"/>
<path fill-rule="evenodd" clip-rule="evenodd" d="M68.655 38.916C67.1798 39.7593 66.09 41.666 66.09 44.7604V44.7633L65.94 95.6619C65.94 95.6621 65.94 95.6616 65.94 95.6619C65.9355 98.7439 67.0256 102.242 68.8412 105.391C70.6567 108.539 73.1428 111.243 75.8294 112.794M75.8294 112.794L82.9594 116.904C83.27 117.083 83.461 117.415 83.4599 117.773L83.4045 137.066L102.071 128.462C102.366 128.326 102.709 128.342 102.99 128.504L141.246 150.592C141.246 150.592 141.247 150.592 141.247 150.593C143.943 152.132 146.162 152.153 147.643 151.305C149.12 150.459 150.21 148.549 150.21 145.46C150.21 144.908 150.658 144.46 151.21 144.46C151.762 144.46 152.21 144.908 152.21 145.46C152.21 148.981 150.95 151.717 148.637 153.041C146.328 154.363 143.317 154.078 140.254 152.329L140.25 152.326L102.438 130.495L82.8186 139.539C82.5085 139.681 82.1469 139.656 81.8596 139.472C81.5723 139.287 81.399 138.969 81.4 138.627L81.4583 118.347L74.8306 114.527C71.7674 112.758 69.053 109.762 67.1087 106.39C65.1644 103.019 63.9346 99.1767 63.94 95.6589L64.09 44.7604C64.09 44.7599 64.09 44.7594 64.09 44.7589C64.0903 41.2339 65.3505 38.5012 67.6624 37.1797C69.9704 35.8604 72.9778 36.1476 76.0354 37.8917L76.0399 37.8943L122.28 64.5843C122.758 64.8604 122.922 65.4719 122.646 65.9503C122.37 66.4286 121.758 66.5925 121.28 66.3164L75.0445 39.629C75.0437 39.6286 75.043 39.6282 75.0423 39.6277C72.3509 38.0931 70.1341 38.0706 68.655 38.916" fill="black"/>
<path d="M107.59 82.7804V80.5904L105.42 79.3404V73.3404C106.42 73.4204 107.08 72.7104 107.08 71.4104C107.024 70.4642 106.747 69.5442 106.271 68.7245C105.795 67.9047 105.134 67.208 104.34 66.6904C102.83 65.8204 101.6 66.5204 101.6 68.2504C101.679 69.687 102.267 71.0485 103.26 72.0904V78.0904L101.09 76.8404V79.0004C93.8198 76.5204 88.3398 80.7604 88.3398 89.6204C88.3398 99.7604 95.4998 112.11 104.34 117.22C113.18 122.33 120.34 118.22 120.34 108.09C120.34 99.2604 114.87 88.7104 107.59 82.7804ZM113.84 110.41C107.03 107.811 100.673 104.157 94.9998 99.5804C94.1257 98.8782 93.4075 98.0016 92.8909 97.0064C92.3744 96.0112 92.0709 94.9194 91.9998 93.8004V89.6304C91.9998 87.8904 93.3799 87.3604 94.8699 88.5404C100.529 93.1224 106.873 96.787 113.67 99.4004C114.497 99.8113 115.199 100.436 115.704 101.21C116.209 101.983 116.497 102.878 116.54 103.8V108.18C116.61 110.06 115.44 111 113.84 110.41ZM98.5398 94.1804C97.4698 93.5604 96.6098 94.0504 96.6098 95.2804C96.6461 95.951 96.8397 96.6037 97.175 97.1857C97.5103 97.7677 97.9779 98.2626 98.5398 98.6304C99.6198 99.2504 100.49 98.7504 100.49 97.5204C100.452 96.8491 100.256 96.1963 99.9168 95.6157C99.5778 95.0351 99.1059 94.5432 98.5398 94.1804ZM110.14 100.87C109.06 100.25 108.14 100.74 108.14 101.97C108.183 102.648 108.387 103.305 108.735 103.887C109.083 104.47 109.564 104.961 110.14 105.32C111.21 105.94 112.08 105.45 112.08 104.22C112.042 103.549 111.846 102.896 111.509 102.314C111.172 101.732 110.703 101.238 110.14 100.87Z" fill="#21C68B"/>
<path d="M141.6 185.94L193.46 216.08C193.605 216.17 193.724 216.295 193.807 216.444C193.89 216.593 193.933 216.76 193.933 216.93C193.933 217.1 193.89 217.268 193.807 217.417C193.724 217.565 193.605 217.691 193.46 217.78L182 224.62C180.499 225.509 178.79 225.984 177.046 225.998C175.302 226.012 173.585 225.565 172.07 224.7L119.4 194.7C119.251 194.612 119.127 194.486 119.041 194.335C118.955 194.184 118.91 194.014 118.91 193.84C118.91 193.667 118.955 193.496 119.041 193.345C119.127 193.195 119.251 193.069 119.4 192.98L131.81 185.93C133.301 185.078 134.989 184.631 136.706 184.633C138.423 184.635 140.111 185.085 141.6 185.94Z" fill="#BEDCE3"/>
<path d="M191 154.1C190.828 151.639 190.083 149.252 188.824 147.131C187.565 145.009 185.828 143.211 183.75 141.88C183.51 141.79 138.13 115.49 137.92 115.42C137.195 114.943 136.36 114.658 135.494 114.592C134.628 114.525 133.76 114.68 132.97 115.04L124 120.12C124.341 119.93 124.708 119.791 125.09 119.71C126.52 119.515 127.972 119.842 129.18 120.63L174.79 147C176.901 148.361 178.656 150.207 179.91 152.382C181.164 154.558 181.88 157.002 182 159.51L181.9 195C181.905 195.797 181.787 196.59 181.55 197.35C181.253 198.309 180.626 199.131 179.78 199.67C180.28 199.32 188.98 194.54 189.33 194.12C190.004 193.461 190.464 192.615 190.65 191.69C190.77 191.108 190.831 190.515 190.83 189.92L190.94 154.43C191 154.32 191 154.21 191 154.1Z" fill="white"/>
<path d="M174.79 147C176.888 148.374 178.634 150.222 179.886 152.396C181.139 154.569 181.863 157.006 182 159.51L181.9 195C181.9 199.61 178.62 201.48 174.6 199.16L148 183.76L134 190.24V175.7L129 172.83C126.888 171.455 125.13 169.601 123.87 167.419C122.61 165.236 121.884 162.787 121.75 160.27L121.85 124.78C121.85 120.17 125.12 118.31 129.14 120.63L174.79 147Z" fill="white"/>
<path fill-rule="evenodd" clip-rule="evenodd" d="M124.482 120.976C123.583 121.487 122.85 122.69 122.85 124.78V124.783L122.75 160.245C122.879 162.594 123.56 164.881 124.736 166.919C125.913 168.957 127.552 170.69 129.522 171.977L134.498 174.833C134.808 175.011 135 175.342 135 175.7V188.676L147.58 182.853C147.875 182.716 148.219 182.732 148.5 182.895L175.127 198.287C175.889 198.696 176.739 198.915 177.603 198.925C178.472 198.935 179.331 198.734 180.106 198.339C180.598 198.089 181.2 198.284 181.451 198.776C181.702 199.268 181.506 199.87 181.014 200.121C179.951 200.663 178.773 200.939 177.58 200.925C176.386 200.911 175.215 200.607 174.165 200.04C174.156 200.036 174.148 200.031 174.14 200.026L147.949 184.886L134.42 191.148C134.11 191.291 133.749 191.267 133.462 191.083C133.174 190.899 133 190.582 133 190.24V176.279L128.502 173.698C128.486 173.688 128.47 173.679 128.455 173.668C126.21 172.208 124.343 170.238 123.004 167.919C121.666 165.6 120.894 162.997 120.751 160.323C120.75 160.305 120.75 160.286 120.75 160.267L120.85 124.78C120.85 124.78 120.85 124.779 120.85 124.779C120.85 122.26 121.752 120.228 123.493 119.237C125.23 118.249 127.449 118.5 129.64 119.764L151.64 132.474C152.118 132.751 152.282 133.362 152.006 133.841C151.73 134.319 151.118 134.482 150.64 134.206L128.64 121.496C126.811 120.441 125.385 120.462 124.482 120.976Z" fill="black"/>
<path d="M179.94 153.35C181.218 155.528 181.939 157.987 182.04 160.51L181.94 194C181.945 194.797 181.827 195.59 181.59 196.35C181.293 197.309 180.666 198.131 179.82 198.67C180.32 198.32 189.02 193.54 189.37 193.12C190.044 192.461 190.504 191.615 190.69 190.69C190.81 190.108 190.87 189.515 190.87 188.92L190.98 155.43C190.98 155.32 190.98 155.21 190.98 155.1C190.822 152.793 190.156 150.55 189.03 148.53L179.94 153.35Z" fill="#BEDCE3"/>
<path d="M151.84 168.35C152.951 169.068 153.875 170.04 154.536 171.186C155.197 172.332 155.575 173.619 155.64 174.94C155.64 177.37 153.93 178.34 151.82 177.12C150.711 176.399 149.788 175.426 149.125 174.281C148.463 173.136 148.081 171.851 148.01 170.53C148 168.1 149.73 167.13 151.84 168.35Z" fill="#F05023"/>
<path d="M152.46 142.55C157.52 145.47 161.78 151.18 161.76 157.32C161.76 160.95 160.54 162.45 156.6 163.75C156.09 163.876 155.642 164.182 155.341 164.612C155.039 165.043 154.904 165.568 154.96 166.09V167.48L148.74 163.89V161.79C148.74 159.88 149.16 158.89 150.2 158.34C153.28 156.73 155.52 156.45 155.53 154.26C155.507 153.23 155.218 152.224 154.693 151.337C154.167 150.451 153.422 149.715 152.53 149.2C149.96 147.72 148.59 148.83 148.42 151.07L142.04 146.91C142.66 140.52 146.7 139.22 152.46 142.55Z" fill="#F05023"/>
<path fill-rule="evenodd" clip-rule="evenodd" d="M132.535 114.131C133.478 113.7 134.516 113.515 135.551 113.595C136.567 113.673 137.548 114.003 138.404 114.555C138.411 114.559 138.417 114.562 138.423 114.566C138.453 114.582 138.493 114.604 138.54 114.631C138.635 114.684 138.77 114.761 138.943 114.86C139.288 115.057 139.788 115.344 140.419 115.707C141.681 116.433 143.472 117.467 145.616 118.706C149.904 121.183 155.604 124.48 161.305 127.777L161.77 128.047C167.315 131.254 172.824 134.44 176.998 136.852C179.143 138.092 180.936 139.126 182.2 139.854C182.831 140.218 183.33 140.504 183.675 140.701C183.847 140.8 183.979 140.875 184.069 140.926C184.115 140.951 184.148 140.97 184.168 140.981C184.171 140.983 184.174 140.984 184.176 140.985C184.208 141.001 184.239 141.019 184.269 141.038C186.478 142.453 188.326 144.364 189.664 146.62C191.003 148.876 191.795 151.414 191.978 154.031C191.979 154.054 191.98 154.077 191.98 154.1V154.43L191.87 189.919C191.87 189.92 191.87 189.92 191.87 189.921C191.871 190.582 191.804 191.242 191.67 191.89C191.446 193.001 190.895 194.02 190.089 194.816C189.991 194.919 189.885 194.996 189.842 195.028L189.837 195.031C189.753 195.093 189.652 195.16 189.543 195.231C189.324 195.373 189.033 195.551 188.697 195.751C188.023 196.153 187.132 196.666 186.187 197.203C185.105 197.819 184.01 198.434 183.049 198.974C182.271 199.412 181.581 199.8 181.055 200.099C180.575 200.373 179.965 200.205 179.691 199.725C179.418 199.245 179.585 198.635 180.065 198.361C180.534 198.095 181.24 197.697 182.039 197.248C183.041 196.685 184.189 196.039 185.198 195.465C186.141 194.929 187.017 194.424 187.673 194.033C188.002 193.837 188.268 193.674 188.456 193.552C188.552 193.49 188.618 193.445 188.659 193.415C188.662 193.413 188.665 193.41 188.668 193.408C188.669 193.407 188.67 193.406 188.671 193.405C189.202 192.887 189.564 192.221 189.71 191.493L189.711 191.488C189.817 190.973 189.871 190.448 189.87 189.921L189.87 189.917L189.98 154.43V154.428V154.136C189.815 151.843 189.118 149.619 187.944 147.641C186.772 145.666 185.158 143.99 183.228 142.746C183.22 142.742 183.212 142.737 183.204 142.733C183.174 142.717 183.134 142.694 183.087 142.668C182.991 142.614 182.855 142.536 182.682 142.437C182.335 142.239 181.834 141.951 181.202 141.587C179.937 140.859 178.143 139.823 175.997 138.584C171.817 136.169 166.299 132.977 160.748 129.766L160.303 129.508C154.603 126.211 148.903 122.914 144.616 120.438C142.472 119.199 140.682 118.166 139.421 117.44C138.791 117.078 138.293 116.792 137.951 116.596C137.779 116.498 137.648 116.424 137.559 116.374C137.514 116.348 137.482 116.33 137.462 116.32C137.46 116.319 137.459 116.318 137.457 116.317C137.421 116.299 137.385 116.278 137.351 116.256C136.767 115.872 136.095 115.642 135.398 115.589C134.714 115.536 134.029 115.655 133.404 115.933L124.494 120.99C124.013 121.263 123.403 121.094 123.13 120.614C122.858 120.134 123.026 119.523 123.507 119.251L132.457 114.171C132.482 114.156 132.508 114.143 132.535 114.131Z" fill="black"/>
</svg>
