<svg width="256" height="256" viewBox="0 0 256 256" fill="none" xmlns="http://www.w3.org/2000/svg">
<path d="M141 76.5597C146.76 79.8797 151.41 87.9397 151.39 94.5597L151.25 145.47C151.25 152.08 146.55 154.76 140.79 151.47L102.53 129.38L82.4 138.63L82.46 117.77L75.33 113.66C69.58 110.34 64.93 102.26 64.94 95.6597L65.09 44.7597C65.09 38.1397 69.79 35.4797 75.54 38.7597L141 76.5597Z" fill="white"/>
<path d="M92.93 133.679L166.7 176.679C166.845 176.769 166.964 176.894 167.047 177.043C167.13 177.192 167.173 177.359 167.173 177.529C167.173 177.7 167.13 177.867 167.047 178.016C166.964 178.165 166.845 178.29 166.7 178.379L148.2 189.379C146.699 190.268 144.99 190.744 143.246 190.758C141.502 190.772 139.785 190.324 138.27 189.459L62.54 146.259C62.3908 146.171 62.2672 146.045 62.1813 145.894C62.0954 145.744 62.0503 145.573 62.0503 145.399C62.0503 145.226 62.0954 145.055 62.1813 144.905C62.2672 144.754 62.3908 144.628 62.54 144.539L82.3 133.289C83.73 132.479 81.64 138.489 83.23 138.449C85 138.389 91.31 132.739 92.93 133.679Z" fill="#BEDCE3"/>
<path d="M164.25 86.7197C164.001 83.192 162.934 79.7709 161.132 76.7279C159.33 73.6849 156.844 71.1039 153.87 69.1897L88.4501 31.4197C88.1101 31.2297 87.7701 31.0497 87.4501 30.8897C85.4401 29.9997 83.0001 29.5597 81.0001 30.6997L68.1001 38.0597C68.546 37.8047 69.0282 37.6192 69.5301 37.5097C71.6198 37.1726 73.7599 37.6292 75.5301 38.7897L141 76.5597C144.046 78.5098 146.579 81.1623 148.387 84.2945C150.195 87.4267 151.225 90.947 151.39 94.5597L151.25 145.47C151.273 146.881 151.001 148.281 150.45 149.58C149.979 150.648 149.194 151.548 148.2 152.16L161.1 144.8C161.821 144.331 162.44 143.721 162.918 143.006C163.396 142.29 163.723 141.485 163.88 140.64C164.06 139.805 164.151 138.954 164.15 138.1L164.3 87.1997C164.26 86.9997 164.25 86.8697 164.25 86.7197Z" fill="white"/>
<path d="M148.32 84.2495C150.154 87.3827 151.185 90.9212 151.32 94.5495L151.18 145.459C151.203 146.87 150.93 148.27 150.38 149.569C149.909 150.638 149.124 151.537 148.13 152.149L161.03 144.789C161.751 144.321 162.37 143.71 162.848 142.995C163.326 142.28 163.653 141.475 163.81 140.629C163.99 139.795 164.081 138.943 164.08 138.089L164.23 87.1895C164.23 87.0295 164.23 86.8695 164.23 86.7195C163.977 82.9935 162.801 79.3888 160.81 76.2295L148.32 84.2495Z" fill="#BEDCE3"/>
<path fill-rule="evenodd" clip-rule="evenodd" d="M80.5046 29.8309C82.9185 28.4549 85.7396 29.0388 87.8547 29.9753C87.8689 29.9816 87.883 29.9883 87.897 29.9952C88.2314 30.1624 88.585 30.3497 88.9376 30.5467L88.9498 30.5535L154.38 68.3236C154.388 68.3281 154.395 68.3327 154.403 68.3374C154.409 68.3411 154.415 68.3449 154.421 68.3488C157.525 70.3471 160.121 73.0416 162.002 76.2183C163.883 79.3951 164.998 82.9666 165.257 86.6494C165.258 86.6626 165.259 86.6759 165.259 86.6892C165.26 86.6993 165.26 86.7095 165.26 86.7197V87.1897L165.11 138.089C165.11 138.089 165.11 138.089 165.11 138.089C165.11 139.009 165.013 139.927 164.82 140.827C164.638 141.8 164.26 142.727 163.709 143.551C163.156 144.379 162.44 145.086 161.605 145.628C161.594 145.635 161.582 145.642 161.571 145.649C161.566 145.652 161.561 145.655 161.555 145.658L148.655 153.018C148.176 153.292 147.565 153.125 147.291 152.645C147.018 152.166 147.185 151.555 147.664 151.281L160.538 143.936C161.136 143.543 161.649 143.035 162.046 142.44C162.449 141.838 162.724 141.16 162.857 140.447C162.858 140.438 162.86 140.428 162.862 140.419C163.027 139.654 163.11 138.873 163.11 138.09L163.26 87.1897V87.1878L163.26 87.1867L163.26 86.7559C163.018 83.3955 161.998 80.1366 160.281 77.2373C158.563 74.335 156.193 71.8722 153.359 70.0435L87.962 32.2926C87.9599 32.2915 87.9579 32.2904 87.9559 32.2892C87.6381 32.1117 87.3213 31.9439 87.0237 31.7947C85.1248 30.9584 83.0754 30.6678 81.4953 31.5683C81.4952 31.5683 81.4954 31.5682 81.4953 31.5683L68.5953 38.9282C68.1156 39.2019 67.5049 39.0349 67.2312 38.5552C66.9575 38.0755 67.1245 37.4648 67.6042 37.1911L80.5046 29.8309Z" fill="black"/>
<path fill-rule="evenodd" clip-rule="evenodd" d="M68.655 38.9155C67.1798 39.7588 66.09 41.6655 66.09 44.7599V44.7628L65.94 95.6614C65.94 95.6616 65.94 95.6611 65.94 95.6614C65.9355 98.7434 67.0256 102.242 68.8412 105.39C70.6567 108.538 73.1428 111.242 75.8294 112.794M75.8294 112.794L82.9594 116.903C83.27 117.083 83.461 117.414 83.4599 117.773L83.4045 137.066L102.071 128.462C102.366 128.326 102.709 128.341 102.99 128.504L141.246 150.592C141.246 150.592 141.247 150.592 141.247 150.592C143.943 152.132 146.162 152.152 147.643 151.305C149.12 150.459 150.21 148.549 150.21 145.46C150.21 144.908 150.658 144.46 151.21 144.46C151.762 144.46 152.21 144.908 152.21 145.46C152.21 148.981 150.95 151.716 148.637 153.04C146.328 154.362 143.317 154.078 140.254 152.328L140.25 152.326L102.438 130.495L82.8186 139.538C82.5085 139.681 82.1469 139.656 81.8596 139.471C81.5723 139.287 81.399 138.968 81.4 138.627L81.4583 118.347L74.8306 114.526C71.7674 112.758 69.053 109.761 67.1087 106.389C65.1644 103.018 63.9346 99.1762 63.94 95.6584L64.09 44.7599C64.09 44.7594 64.09 44.7589 64.09 44.7584C64.0903 41.2335 65.3505 38.5008 67.6624 37.1792C69.9704 35.8599 72.9778 36.1471 76.0354 37.8913L76.0399 37.8938L122.28 64.5838C122.758 64.8599 122.922 65.4715 122.646 65.9498C122.37 66.4281 121.758 66.592 121.28 66.316L75.0445 39.6285C75.0437 39.6281 75.043 39.6277 75.0423 39.6273C72.3509 38.0926 70.1341 38.0701 68.655 38.9155" fill="black"/>
<path d="M87.69 79.1099C89.2441 80.1261 90.5355 81.4959 91.4584 83.1071C92.3813 84.7184 92.9096 86.5252 93 88.3799C93 91.7999 90.6 93.1599 87.62 91.4399C86.0604 90.4285 84.7625 89.0621 83.8326 87.4526C82.9027 85.8431 82.3672 84.0362 82.27 82.1799C82.31 78.7599 84.72 77.3999 87.69 79.1099Z" fill="#21C68B"/>
<path d="M108.16 90.9097C109.722 91.9208 111.021 93.2885 111.952 94.9002C112.882 96.5118 113.416 98.3213 113.51 100.18C113.51 103.6 111.11 104.96 108.13 103.24C106.571 102.232 105.274 100.869 104.344 99.2631C103.414 97.6569 102.878 95.8531 102.78 93.9997C102.79 90.5597 105.2 89.1997 108.16 90.9097Z" fill="#21C68B"/>
<path d="M128.64 102.709C130.207 103.721 131.51 105.092 132.442 106.707C133.374 108.323 133.908 110.137 134 111.999C134 115.419 131.59 116.779 128.62 115.059C127.059 114.05 125.76 112.684 124.829 111.074C123.899 109.464 123.365 107.656 123.27 105.799C123.27 102.359 125.68 100.999 128.64 102.709Z" fill="#21C68B"/>
<path d="M141.6 185.94L193.46 216.08C193.605 216.169 193.724 216.295 193.807 216.443C193.89 216.592 193.933 216.759 193.933 216.93C193.933 217.1 193.89 217.267 193.807 217.416C193.724 217.565 193.605 217.69 193.46 217.78L182 224.62C180.499 225.508 178.79 225.984 177.046 225.998C175.302 226.012 173.585 225.564 172.07 224.7L119.4 194.7C119.251 194.611 119.127 194.485 119.041 194.335C118.955 194.184 118.91 194.013 118.91 193.84C118.91 193.666 118.955 193.496 119.041 193.345C119.127 193.194 119.251 193.068 119.4 192.98L131.81 185.93C133.301 185.078 134.989 184.631 136.706 184.632C138.423 184.634 140.111 185.085 141.6 185.94Z" fill="#BEDCE3"/>
<path d="M191 154.1C190.828 151.639 190.083 149.252 188.824 147.13C187.565 145.008 185.828 143.21 183.75 141.88C183.51 141.79 138.13 115.49 137.92 115.42C137.195 114.943 136.36 114.658 135.494 114.591C134.628 114.525 133.76 114.679 132.97 115.04L124 120.12C124.341 119.929 124.708 119.791 125.09 119.71C126.52 119.515 127.972 119.841 129.18 120.63L174.79 147C176.901 148.361 178.656 150.206 179.91 152.382C181.164 154.558 181.88 157.001 182 159.51L181.9 195C181.905 195.797 181.787 196.589 181.55 197.35C181.253 198.308 180.626 199.13 179.78 199.67C180.28 199.32 188.98 194.54 189.33 194.12C190.004 193.461 190.464 192.614 190.65 191.69C190.77 191.108 190.831 190.514 190.83 189.92L190.94 154.43C191 154.32 191 154.21 191 154.1Z" fill="white"/>
<path d="M174.79 147C176.888 148.374 178.634 150.222 179.886 152.395C181.139 154.568 181.863 157.005 182 159.51L181.9 195C181.9 199.61 178.62 201.48 174.6 199.16L148 183.76L134 190.24V175.7L129 172.83C126.888 171.455 125.13 169.601 123.87 167.418C122.61 165.236 121.884 162.786 121.75 160.27L121.85 124.78C121.85 120.17 125.12 118.31 129.14 120.63L174.79 147Z" fill="white"/>
<path fill-rule="evenodd" clip-rule="evenodd" d="M124.482 120.975C123.583 121.487 122.85 122.689 122.85 124.78V124.783L122.75 160.244C122.879 162.594 123.56 164.88 124.736 166.918C125.913 168.957 127.552 170.689 129.522 171.977L134.498 174.833C134.808 175.011 135 175.342 135 175.7V188.675L147.58 182.852C147.875 182.716 148.219 182.731 148.5 182.894L175.127 198.287C175.889 198.695 176.739 198.914 177.603 198.924C178.472 198.935 179.331 198.734 180.106 198.339C180.598 198.088 181.2 198.284 181.451 198.776C181.702 199.268 181.506 199.87 181.014 200.121C179.951 200.663 178.773 200.938 177.58 200.924C176.386 200.91 175.215 200.607 174.165 200.04C174.156 200.035 174.148 200.03 174.14 200.026L147.949 184.885L134.42 191.147C134.11 191.291 133.749 191.266 133.462 191.082C133.174 190.899 133 190.581 133 190.24V176.279L128.502 173.697C128.486 173.688 128.47 173.678 128.455 173.668C126.21 172.207 124.343 170.237 123.004 167.918C121.666 165.599 120.894 162.997 120.751 160.323C120.75 160.304 120.75 160.286 120.75 160.267L120.85 124.78C120.85 124.779 120.85 124.779 120.85 124.778C120.85 122.26 121.752 120.228 123.493 119.237C125.23 118.248 127.449 118.499 129.64 119.764L151.64 132.474C152.118 132.75 152.282 133.362 152.006 133.84C151.73 134.318 151.118 134.482 150.64 134.206L128.64 121.496C126.811 120.44 125.385 120.461 124.482 120.975Z" fill="black"/>
<path d="M179.94 152.35C181.218 154.528 181.939 156.987 182.04 159.51L181.94 193C181.945 193.796 181.827 194.589 181.59 195.35C181.293 196.308 180.666 197.13 179.82 197.67C180.32 197.32 189.02 192.54 189.37 192.12C190.044 191.461 190.504 190.614 190.69 189.69C190.81 189.107 190.87 188.514 190.87 187.92L190.98 154.43C190.98 154.32 190.98 154.21 190.98 154.1C190.822 151.793 190.156 149.549 189.03 147.53L179.94 152.35Z" fill="#BEDCE3"/>
<path d="M151.84 168.349C152.951 169.067 153.875 170.039 154.536 171.185C155.197 172.331 155.575 173.618 155.64 174.939C155.64 177.369 153.93 178.339 151.82 177.119C150.711 176.399 149.788 175.426 149.125 174.281C148.463 173.136 148.081 171.85 148.01 170.529C148 168.099 149.73 167.129 151.84 168.349Z" fill="#F05023"/>
<path d="M152.46 142.55C157.52 145.47 161.78 151.18 161.76 157.32C161.76 160.95 160.54 162.45 156.6 163.75C156.09 163.875 155.642 164.181 155.341 164.612C155.039 165.042 154.904 165.567 154.96 166.09V167.48L148.74 163.89V161.79C148.74 159.88 149.16 158.89 150.2 158.34C153.28 156.73 155.52 156.45 155.53 154.26C155.507 153.23 155.218 152.223 154.693 151.337C154.167 150.451 153.422 149.715 152.53 149.2C149.96 147.72 148.59 148.83 148.42 151.07L142.04 146.91C142.66 140.52 146.7 139.22 152.46 142.55Z" fill="#F05023"/>
<path fill-rule="evenodd" clip-rule="evenodd" d="M132.535 114.13C133.478 113.699 134.516 113.515 135.551 113.594C136.567 113.672 137.548 114.003 138.404 114.555C138.411 114.558 138.417 114.562 138.423 114.565C138.453 114.582 138.493 114.604 138.54 114.63C138.635 114.684 138.77 114.761 138.943 114.859C139.288 115.057 139.788 115.343 140.419 115.707C141.681 116.433 143.472 117.467 145.616 118.705C149.904 121.182 155.604 124.479 161.305 127.777L161.77 128.046C167.315 131.253 172.824 134.44 176.998 136.852C179.143 138.091 180.936 139.126 182.2 139.853C182.831 140.217 183.33 140.504 183.675 140.701C183.847 140.799 183.979 140.874 184.069 140.925C184.115 140.951 184.148 140.969 184.168 140.981C184.171 140.982 184.174 140.984 184.176 140.985C184.208 141.001 184.239 141.018 184.269 141.038C186.478 142.452 188.326 144.364 189.664 146.62C191.003 148.876 191.795 151.414 191.978 154.03C191.979 154.053 191.98 154.077 191.98 154.1V154.43L191.87 189.919C191.87 189.919 191.87 189.92 191.87 189.92C191.871 190.582 191.804 191.241 191.67 191.889C191.446 193.001 190.895 194.02 190.089 194.816C189.991 194.919 189.885 194.996 189.842 195.027L189.837 195.031C189.753 195.092 189.652 195.16 189.543 195.23C189.324 195.372 189.033 195.55 188.697 195.751C188.023 196.153 187.132 196.665 186.187 197.203C185.105 197.819 184.01 198.434 183.049 198.974C182.271 199.411 181.581 199.799 181.055 200.099C180.575 200.372 179.965 200.205 179.691 199.725C179.418 199.245 179.585 198.634 180.065 198.361C180.534 198.094 181.24 197.697 182.039 197.247C183.041 196.684 184.189 196.039 185.198 195.464C186.141 194.928 187.017 194.424 187.673 194.033C188.002 193.836 188.268 193.673 188.456 193.551C188.552 193.49 188.618 193.444 188.659 193.414C188.662 193.412 188.665 193.41 188.668 193.408C188.669 193.407 188.67 193.406 188.671 193.405C189.202 192.886 189.564 192.22 189.71 191.493L189.711 191.488C189.817 190.972 189.871 190.447 189.87 189.921L189.87 189.917L189.98 154.43V154.427V154.136C189.815 151.843 189.118 149.618 187.944 147.64C186.772 145.665 185.158 143.99 183.228 142.746C183.22 142.741 183.212 142.737 183.204 142.733C183.174 142.716 183.134 142.694 183.087 142.667C182.991 142.613 182.855 142.536 182.682 142.437C182.335 142.238 181.834 141.951 181.202 141.587C179.937 140.858 178.143 139.823 175.997 138.583C171.817 136.168 166.299 132.976 160.748 129.765L160.303 129.508C154.603 126.21 148.903 122.914 144.616 120.437C142.472 119.199 140.682 118.166 139.421 117.44C138.791 117.077 138.293 116.792 137.951 116.596C137.779 116.498 137.648 116.423 137.559 116.373C137.514 116.348 137.482 116.33 137.462 116.319C137.46 116.318 137.459 116.317 137.457 116.317C137.421 116.298 137.385 116.278 137.351 116.255C136.767 115.871 136.095 115.642 135.398 115.588C134.714 115.536 134.029 115.654 133.404 115.932L124.494 120.99C124.013 121.262 123.403 121.094 123.13 120.614C122.858 120.133 123.026 119.523 123.507 119.25L132.457 114.17C132.482 114.156 132.508 114.142 132.535 114.13Z" fill="black"/>
</svg>
