<svg width="256" height="256" viewBox="0 0 256 256" fill="none" xmlns="http://www.w3.org/2000/svg">
<path d="M39.3599 148.19L158.79 219C160.471 219.966 162.376 220.474 164.315 220.474C166.254 220.474 168.159 219.966 169.84 219L216.61 190.26C216.78 190.163 216.922 190.023 217.021 189.853C217.119 189.683 217.171 189.491 217.171 189.295C217.171 189.099 217.119 188.906 217.021 188.737C216.922 188.567 216.78 188.427 216.61 188.33L90.4999 117.33C90.3479 117.242 90.1754 117.196 89.9999 117.196C89.8244 117.196 89.6519 117.242 89.4999 117.33L39.3599 146.27C39.1918 146.367 39.0522 146.507 38.9552 146.676C38.8582 146.844 38.8071 147.035 38.8071 147.23C38.8071 147.424 38.8582 147.615 38.9552 147.784C39.0522 147.952 39.1918 148.092 39.3599 148.19Z" fill="#BEDCE3"/>
<path d="M60.1997 64.9998L106.65 36.4998C106.65 36.4998 121 29.2198 139.87 54.7198C156.51 39.1998 202 76.8998 198.45 120C208.63 125.74 228.59 154.57 214.61 169.47L168.22 198" fill="white"/>
<path d="M154.9 146.69L197.54 120.15C197.54 120.15 215.17 129.36 218.61 153.42C220.72 167.84 211.01 171.64 211.01 171.64L172.42 194.27C172.42 194.27 176.47 181.15 172.42 169.54C167.639 161.167 161.745 153.48 154.9 146.69Z" fill="white"/>
<path d="M217.24 145.11L173 172.25C179.18 185.3 171.82 194.74 171.82 194.74L210.4 172C210.4 172 220.98 167.09 218.9 152.64C218.526 150.094 217.971 147.577 217.24 145.11Z" fill="#BEDCE3"/>
<path d="M206.45 126.32C204.116 123.812 201.42 121.668 198.45 119.96L154.23 147.13C156.546 149.367 158.733 151.734 160.78 154.22L206.45 126.32Z" fill="#BEDCE3"/>
<path d="M79 66.2597C81.3786 67.2683 83.5412 68.7247 85.37 70.5497C89.0117 74.138 92.4535 77.9237 95.68 81.8896C97.1085 80.8575 98.6779 80.0357 100.34 79.4496L138.91 55.3896L139.82 54.3896C139.33 52.4796 133.22 44.7396 122.38 38.3896L79 66.2597Z" fill="#BEDCE3"/>
<path d="M182.36 72.6597L138.9 99.8297C147.35 109.89 154.07 123.83 154.23 147.13L198.45 120C198.45 120 202 93.5397 182.36 72.6597Z" fill="#BEDCE3"/>
<path d="M154.23 147.13C154.459 145.386 154.573 143.629 154.57 141.87C154.57 120.46 139.57 94.28 120.99 83.41C110.89 77.49 101.83 77.34 95.6798 81.89C91.5401 75.7123 86.1295 70.4893 79.8098 66.57C64.9998 57.9 52.9998 64.71 52.9998 81.79C53.0132 84.1028 53.2172 86.4106 53.6098 88.69C43.8598 85.39 36.5498 91.1 36.5498 103.07C36.5498 116.84 46.2198 133.66 58.1398 140.65L153.06 196.28C164.98 203.28 174.65 197.78 174.65 184.01C174.68 170.69 165.62 154.5 154.23 147.13Z" fill="white"/>
<path fill-rule="evenodd" clip-rule="evenodd" d="M60.3574 63.6539C65.6308 60.6605 72.7321 61.2677 80.315 65.7068C80.3223 65.7111 80.3296 65.7155 80.3369 65.7199C86.4897 69.5358 91.7968 74.5641 95.9371 80.4948C102.485 76.2445 111.637 76.7683 121.495 82.5471C130.971 88.0909 139.478 97.4986 145.615 108.189C151.751 118.88 155.569 130.948 155.57 141.868C155.572 143.462 155.482 145.054 155.298 146.637C160.946 150.445 165.962 156.311 169.596 162.853C173.342 169.596 175.665 177.141 175.65 184.012C175.649 191.105 173.15 196.341 168.819 198.803C164.489 201.264 158.692 200.747 152.553 197.142L57.6342 141.513C51.4889 137.909 45.979 131.811 42.0078 124.901C38.0366 117.99 35.5498 110.171 35.5498 103.07C35.5498 96.9 37.4354 92.1453 40.7875 89.3819C43.8202 86.8818 47.8801 86.1531 52.3831 87.2856C52.1386 85.4662 52.0105 83.6324 51.9998 81.7956L51.9998 81.7898C51.9998 73.04 55.0815 66.6487 60.3574 63.6539ZM53.9998 81.7869C54.0131 84.0439 54.2122 86.2958 54.5953 88.5201C54.6551 88.8674 54.5276 89.2207 54.2597 89.4498C53.9918 89.6789 53.6231 89.75 53.2892 89.637C48.6561 88.0689 44.7757 88.6861 42.0597 90.9251C39.3192 93.1843 37.5498 97.2696 37.5498 103.07C37.5498 109.738 39.898 117.215 43.7418 123.904C47.5856 130.593 52.8709 136.401 58.6457 139.787L153.565 195.417C159.347 198.812 164.346 199.045 167.831 197.064C171.314 195.084 173.65 190.685 173.65 184.01V184.008C173.664 177.559 171.473 170.349 167.848 163.824C164.224 157.301 159.215 151.547 153.687 147.969C153.362 147.76 153.188 147.382 153.238 146.999C153.462 145.299 153.573 143.586 153.57 141.871V141.87C153.57 131.381 149.889 119.654 143.88 109.185C137.871 98.7163 129.589 89.5991 120.485 84.2729C110.579 78.4669 101.982 78.4711 96.2746 82.6937C96.0549 82.8562 95.7782 82.9218 95.5089 82.8751C95.2397 82.8284 95.0012 82.6735 94.8491 82.4465C90.7909 76.3906 85.4878 71.27 79.2936 67.4264C72.0711 63.2016 65.7715 62.8804 61.3447 65.3932C56.9187 67.9056 54.0005 73.4583 53.9998 81.7869Z" fill="#231F20"/>
<path fill-rule="evenodd" clip-rule="evenodd" d="M199.302 119.436C199.591 119.907 199.444 120.523 198.973 120.812L154.753 147.982C154.283 148.271 153.667 148.124 153.378 147.653C153.088 147.183 153.236 146.567 153.706 146.278L197.926 119.108C198.397 118.818 199.013 118.966 199.302 119.436Z" fill="#231F20"/>
<path fill-rule="evenodd" clip-rule="evenodd" d="M140.742 54.1859C141.031 54.6564 140.884 55.2723 140.414 55.5615L134.054 59.4715L134.054 59.4715L122.474 66.5915C122.003 66.8807 121.387 66.7339 121.098 66.2634C120.809 65.7929 120.956 65.177 121.426 64.8878L133.006 57.7678L133.006 57.7677L139.366 53.8577C139.837 53.5685 140.452 53.7154 140.742 54.1859Z" fill="#231F20"/>
<path fill-rule="evenodd" clip-rule="evenodd" d="M107.128 37.3794L60.7228 65.8521C60.2521 66.1409 59.6363 65.9935 59.3475 65.5227C59.0587 65.052 59.2061 64.4362 59.6769 64.1474L106.127 35.6474C106.15 35.6333 106.173 35.6202 106.197 35.608L106.65 36.4998C106.197 35.608 106.198 35.6075 106.199 35.607L106.201 35.6059L106.207 35.6032L106.222 35.5959C106.233 35.5903 106.248 35.583 106.267 35.5742C106.305 35.5567 106.356 35.5333 106.421 35.5053C106.551 35.4494 106.737 35.375 106.975 35.2922C107.451 35.1267 108.138 34.9275 109.016 34.7754C110.775 34.4707 113.294 34.3565 116.408 35.0727C122.507 36.4755 130.757 41.0295 140.029 53.2636C144.483 49.7211 150.505 49.3977 156.838 51.356C163.582 53.4416 170.851 58.1522 177.434 64.6665C190.471 77.566 201.049 97.776 199.495 119.457C202.077 121.056 205.097 123.889 208.007 127.42C211.141 131.222 214.201 135.902 216.498 140.881C221.052 150.753 222.773 162.23 215.339 170.154C215.278 170.219 215.209 170.275 215.134 170.322L168.744 198.852C168.273 199.141 167.657 198.994 167.368 198.524C167.079 198.053 167.226 197.437 167.696 197.148L213.97 168.689C220.415 161.714 219.137 151.377 214.682 141.719C212.464 136.91 209.499 132.375 206.464 128.692C203.415 124.992 200.351 122.22 197.959 120.871C197.619 120.679 197.421 120.307 197.453 119.918C199.198 98.7346 188.884 78.8096 176.028 66.0881C169.602 59.7299 162.601 55.2316 156.247 53.2667C149.889 51.3004 144.351 51.9073 140.552 55.4511C140.344 55.6454 140.062 55.7416 139.778 55.7156C139.495 55.6895 139.236 55.5437 139.066 55.3146C129.729 42.6977 121.611 38.3216 115.959 37.0218C113.127 36.3705 110.879 36.4826 109.358 36.746C108.596 36.878 108.014 37.0483 107.632 37.1813C107.441 37.2478 107.299 37.3049 107.21 37.3431C107.174 37.3585 107.147 37.3707 107.128 37.3794Z" fill="#231F20"/>
<path d="M102.41 140.25C102.124 140.754 102.046 141.35 102.194 141.911C102.342 142.471 102.703 142.952 103.2 143.25L110.85 147.73C113.385 149.216 116.408 149.635 119.252 148.893C122.096 148.152 124.528 146.31 126.015 143.775C127.502 141.239 127.92 138.217 127.178 135.373C126.437 132.529 124.595 130.096 122.06 128.61L106.76 119.61C105.505 118.873 104.118 118.39 102.677 118.19C101.236 117.99 99.7691 118.075 98.3611 118.442C96.9531 118.809 95.6312 119.45 94.4711 120.328C93.311 121.206 92.3353 122.304 91.6 123.56C91.4329 123.811 91.3188 124.094 91.2646 124.391C91.2104 124.688 91.2173 124.992 91.2849 125.286C91.3524 125.58 91.4792 125.858 91.6575 126.101C91.8358 126.344 92.0618 126.549 92.3218 126.702C92.5818 126.855 92.8703 126.954 93.1697 126.992C93.469 127.03 93.7729 127.006 94.0629 126.923C94.3528 126.839 94.6227 126.697 94.8561 126.506C95.0894 126.315 95.2813 126.078 95.42 125.81C95.8611 125.056 96.4465 124.396 97.1426 123.869C97.8387 123.341 98.6319 122.956 99.477 122.735C100.322 122.514 101.202 122.461 102.068 122.581C102.933 122.7 103.766 122.989 104.52 123.43L119.82 132.43C120.586 132.865 121.259 133.448 121.798 134.145C122.337 134.842 122.732 135.64 122.96 136.491C123.188 137.342 123.245 138.23 123.127 139.104C123.009 139.977 122.719 140.818 122.273 141.578C121.827 142.339 121.234 143.002 120.529 143.531C119.824 144.061 119.021 144.444 118.167 144.66C117.313 144.876 116.424 144.92 115.552 144.79C114.681 144.659 113.844 144.357 113.09 143.9L105.44 139.42C105.187 139.274 104.907 139.18 104.618 139.142C104.328 139.105 104.034 139.126 103.752 139.203C103.47 139.28 103.206 139.412 102.976 139.592C102.746 139.772 102.553 139.995 102.41 140.25Z" fill="#F05023"/>
<path d="M72.9999 125.57L89.8299 135.43C91.0873 136.165 92.4775 136.645 93.9207 136.841C95.3639 137.038 96.8317 136.948 98.24 136.576C99.6484 136.205 100.97 135.559 102.128 134.676C103.286 133.793 104.259 132.69 104.99 131.43C105.137 131.179 105.233 130.902 105.273 130.614C105.313 130.326 105.296 130.033 105.222 129.751C105.149 129.47 105.021 129.206 104.846 128.974C104.67 128.742 104.451 128.547 104.2 128.4C103.949 128.253 103.672 128.157 103.384 128.117C103.096 128.077 102.803 128.094 102.521 128.167C102.24 128.241 101.976 128.369 101.744 128.544C101.512 128.72 101.317 128.939 101.17 129.19C100.277 130.711 98.8172 131.815 97.1106 132.259C95.4041 132.704 93.5909 132.452 92.0699 131.56L75.2398 121.7C73.8479 120.746 72.8706 119.299 72.506 117.651C72.1414 116.004 72.4167 114.279 73.2763 112.827C74.1359 111.375 75.5153 110.304 77.1352 109.831C78.755 109.358 80.494 109.518 81.9999 110.28L91.1698 115.65C91.4211 115.817 91.7038 115.931 92.0006 115.985C92.2974 116.04 92.6022 116.033 92.8963 115.965C93.1903 115.898 93.4676 115.771 93.711 115.592C93.9544 115.414 94.1589 115.188 94.3121 114.928C94.4652 114.668 94.5637 114.38 94.6017 114.08C94.6396 113.781 94.616 113.477 94.5325 113.187C94.449 112.897 94.3073 112.627 94.116 112.394C93.9247 112.161 93.6878 111.969 93.4198 111.83L84.2398 106.45C81.7044 104.959 78.6807 104.537 75.8339 105.276C72.987 106.015 70.5504 107.855 69.0598 110.39C67.5693 112.925 67.1471 115.949 67.886 118.796C68.6249 121.643 70.4644 124.079 72.9999 125.57Z" fill="#21C68B"/>
</svg>
