<svg width="257" height="259" viewBox="0 0 257 259" fill="none" xmlns="http://www.w3.org/2000/svg">
<path d="M117.14 190.54C117.14 202.03 99.6198 211.35 77.9898 211.35C56.3598 211.35 38.8398 202 38.8398 190.54C38.8398 179.08 56.3698 169.74 77.9898 169.74C99.6098 169.74 117.14 179.05 117.14 190.54Z" fill="#BEDCE3"/>
<path d="M116.07 143.06C116.07 155 133.97 164.68 156.07 164.68C178.17 164.68 196.07 155 196.07 143.06C196.07 131.12 178.18 121.44 156.07 121.44C133.96 121.44 116.07 131.12 116.07 143.06Z" fill="#BEDCE3"/>
<path d="M112.62 175.11V187.26C112.62 187.64 112.62 188.01 112.62 188.38C112.16 194.07 107.38 199.62 98.6899 203.32C83.2399 209.89 61.2999 208.13 49.6899 199.4C45.0599 195.91 42.7899 191.88 42.6899 187.83V174.92L112.62 175.11Z" fill="white"/>
<path d="M77.6897 208C66.8797 208 56.1896 205.22 49.1996 200C44.5296 196.48 42.0096 192.28 41.8896 187.85V174.17L113.37 174.36V187.36C113.393 187.733 113.393 188.107 113.37 188.48C112.88 194.69 107.64 200.37 98.9896 204.05C92.2208 206.763 84.981 208.106 77.6897 208ZM43.3896 175.64V187.76C43.4896 191.76 45.8096 195.54 50.0996 198.76C61.5096 207.34 83.1596 209.06 98.3596 202.59C106.48 199.14 111.36 193.92 111.84 188.28C111.858 187.947 111.858 187.613 111.84 187.28V175.86L43.3896 175.64Z" fill="#E54419"/>
<path d="M77.6196 193.05C96.9496 193.05 112.62 184.185 112.62 173.25C112.62 162.315 96.9496 153.45 77.6196 153.45C58.2897 153.45 42.6196 162.315 42.6196 173.25C42.6196 184.185 58.2897 193.05 77.6196 193.05Z" fill="white"/>
<path d="M77.6898 193.78C66.8798 193.78 56.1898 191.01 49.1998 185.78C43.9198 181.78 41.3498 176.85 41.9598 171.83C42.6898 165.83 47.9598 160.33 56.2898 156.76C71.9298 150.11 94.2898 151.91 106.04 160.76C111.32 164.76 113.89 169.68 113.28 174.7C112.55 180.7 107.28 186.21 98.9498 189.77C92.1976 192.498 84.9717 193.861 77.6898 193.78ZM77.5998 154.2C70.5028 154.124 63.4608 155.453 56.8798 158.11C48.9998 161.46 44.1198 166.52 43.4498 172C42.8998 176.47 45.2698 180.93 50.0998 184.57C61.5098 193.15 83.1598 194.87 98.3598 188.4C106.23 185.05 111.13 180 111.79 174.53C112.34 170.06 109.97 165.6 105.14 161.97C98.3898 156.87 88.0598 154.2 77.5998 154.2Z" fill="#E54419"/>
<path d="M77.6197 188.461C93.7299 188.461 106.79 181.651 106.79 173.251C106.79 164.85 93.7299 158.041 77.6197 158.041C61.5096 158.041 48.4497 164.85 48.4497 173.251C48.4497 181.651 61.5096 188.461 77.6197 188.461Z" fill="white"/>
<path d="M77.6796 189.19C68.6796 189.19 59.6796 187.06 53.8796 183.01C49.4796 179.95 47.2996 176.13 47.7596 172.24C48.3096 167.5 52.6996 163.18 59.8096 160.39C72.8696 155.27 91.5096 156.66 101.36 163.49C105.77 166.49 107.94 170.36 107.49 174.25C106.93 179 102.54 183.31 95.4296 186.1C89.7527 188.211 83.7358 189.258 77.6796 189.19ZM77.6096 158.78C71.7243 158.714 65.8771 159.731 60.3596 161.78C53.7796 164.36 49.7296 168.23 49.2496 172.41C48.8596 175.72 50.8096 179.04 54.7296 181.76C64.2196 188.34 82.2296 189.66 94.8796 184.69C101.46 182.12 105.51 178.24 106 174.07C106.38 170.76 104.43 167.43 100.51 164.71C94.8996 160.83 86.3096 158.78 77.6096 158.78Z" fill="#E54419"/>
<path d="M86.1997 183.65C86.0696 183.652 85.9416 183.617 85.8297 183.55L76.3097 178.23L72.9997 180.06C72.8285 180.153 72.6274 180.175 72.4401 180.121C72.2529 180.067 72.0946 179.941 71.9997 179.77C71.9117 179.598 71.8927 179.399 71.9466 179.213C72.0005 179.027 72.1232 178.869 72.2897 178.77L74.7697 177.39L61.3097 169.87C61.1933 169.807 61.0964 169.713 61.0295 169.598C60.9625 169.484 60.928 169.353 60.9297 169.22C60.9294 169.087 60.9644 168.955 61.0311 168.839C61.0978 168.723 61.1939 168.627 61.3097 168.56L67.4297 165.12C69.9031 163.698 72.6718 162.866 75.5197 162.69C77.5598 162.568 79.6029 162.871 81.5197 163.58C84.5797 164.76 88.5197 166.78 86.9697 170.74C86.1997 172.74 83.6397 174.17 82.2697 174.93L77.8397 177.39L86.5497 182.26C86.7181 182.357 86.8425 182.515 86.8966 182.702C86.9506 182.888 86.9303 183.089 86.8397 183.26C86.7783 183.377 86.6863 183.475 86.5736 183.544C86.4609 183.612 86.3317 183.649 86.1997 183.65ZM63.1997 169.19L76.2897 176.51L81.5397 173.59C82.6597 172.98 84.9797 171.7 85.5397 170.18C86.0997 168.66 86.0097 166.91 80.9497 164.96C79.231 164.325 77.3985 164.056 75.5697 164.17C72.9509 164.33 70.4044 165.093 68.1297 166.4L63.1997 169.19Z" fill="#E54419"/>
<path d="M76.7095 182.33C76.5748 182.33 76.4427 182.293 76.3268 182.225C76.2108 182.156 76.1151 182.058 76.0495 181.94C75.9598 181.767 75.941 181.566 75.997 181.38C76.053 181.193 76.1794 181.035 76.3495 180.94L88.4695 174.22C88.5557 174.17 88.651 174.137 88.75 174.124C88.849 174.111 88.9495 174.118 89.0458 174.144C89.1421 174.17 89.2322 174.216 89.3108 174.277C89.3894 174.339 89.4549 174.415 89.5035 174.503C89.5521 174.59 89.5828 174.686 89.5938 174.785C89.6048 174.884 89.5959 174.985 89.5675 175.08C89.5392 175.176 89.4921 175.265 89.4289 175.342C89.3657 175.42 89.2877 175.484 89.1995 175.53L77.0695 182.26C76.9569 182.312 76.8334 182.336 76.7095 182.33Z" fill="#E54419"/>
<path d="M99.6898 155.71V167.86C99.7097 168.23 99.7097 168.6 99.6898 168.97C99.2298 174.67 94.4498 180.22 85.7598 183.91C70.3198 190.49 48.3698 188.73 36.7598 179.99C32.1198 176.51 29.8498 172.47 29.7598 168.42V155.52L99.6898 155.71Z" fill="white"/>
<path d="M64.75 188.62C53.94 188.62 43.25 185.85 36.26 180.62C31.6 177.11 29.07 172.91 28.96 168.47V154.76L100.44 154.96V167.91C100.459 168.283 100.459 168.657 100.44 169.03C99.94 175.25 94.7 180.93 86.06 184.6C79.2925 187.337 72.0493 188.703 64.75 188.62ZM30.46 156.27V168.39C30.56 172.39 32.88 176.17 37.17 179.39C48.58 187.97 70.23 189.69 85.43 183.22C93.54 179.77 98.43 174.55 98.9 168.91C98.9185 168.577 98.9185 168.243 98.9 167.91V156.46L30.46 156.27Z" fill="#E54419"/>
<path d="M64.6797 173.64C84.0097 173.64 99.6797 164.775 99.6797 153.84C99.6797 142.905 84.0097 134.04 64.6797 134.04C45.3497 134.04 29.6797 142.905 29.6797 153.84C29.6797 164.775 45.3497 173.64 64.6797 173.64Z" fill="white"/>
<path d="M64.7498 174.38C53.9398 174.38 43.2498 171.6 36.2598 166.38C30.9798 162.38 28.4098 157.46 29.0198 152.44C29.7598 146.44 35.0198 140.93 43.3498 137.37C58.9998 130.71 81.3498 132.51 93.1098 141.37C98.3898 145.37 100.96 150.3 100.35 155.32C99.6098 161.32 94.3498 166.82 86.0198 170.39C79.2628 173.111 72.0337 174.467 64.7498 174.38ZM64.6598 134.79C57.5622 134.717 50.5202 136.049 43.9398 138.71C36.0698 142.06 31.1798 147.11 30.5098 152.58C29.9698 157.05 32.3298 161.51 37.1698 165.15C48.5698 173.73 70.2198 175.45 85.4298 168.98C93.2998 165.63 98.1898 160.57 98.8598 155.11C99.3998 150.64 97.0398 146.18 92.1998 142.54C85.4598 137.47 75.1198 134.79 64.6598 134.79Z" fill="#E54419"/>
<path d="M64.6798 169.05C80.7899 169.05 93.8498 162.241 93.8498 153.84C93.8498 145.44 80.7899 138.63 64.6798 138.63C48.5696 138.63 35.5098 145.44 35.5098 153.84C35.5098 162.241 48.5696 169.05 64.6798 169.05Z" fill="white"/>
<path d="M64.7399 169.79C55.7399 169.79 46.7899 167.65 40.9399 163.6C36.5399 160.6 34.3699 156.73 34.8199 152.84C35.3699 148.1 39.8199 143.78 46.8799 140.99C59.8799 135.87 78.5699 137.26 88.4299 144.08C92.8299 147.14 94.9999 150.96 94.5499 154.85C93.9999 159.59 89.5499 163.91 82.4899 166.7C76.8119 168.807 70.7958 169.854 64.7399 169.79ZM64.6699 139.38C58.7846 139.314 52.9374 140.331 47.4199 142.38C40.8499 145 36.7999 148.84 36.3099 153C35.9199 156.32 37.8699 159.64 41.7999 162.36C51.2899 169 69.2999 170.26 81.9999 165.3C88.5699 162.72 92.6199 158.85 93.1099 154.67C93.4999 151.36 91.5499 148.04 87.6199 145.32C81.9999 141.43 73.3699 139.38 64.6699 139.38Z" fill="#E54419"/>
<path d="M73.26 164.24C73.1345 164.24 73.0109 164.209 72.9 164.15L63.38 158.83L60.1 160.66C59.9282 160.751 59.728 160.771 59.5415 160.717C59.355 160.663 59.1967 160.539 59.1 160.37C59.0069 160.199 58.9851 159.998 59.0394 159.811C59.0937 159.624 59.2197 159.465 59.39 159.37L61.84 158L48.38 150.48C48.2655 150.412 48.1705 150.316 48.104 150.2C48.0374 150.084 48.0017 149.954 48 149.82C48.0004 149.688 48.0358 149.558 48.1025 149.444C48.1693 149.33 48.265 149.236 48.38 149.17L54.5 145.72C56.9769 144.299 59.7493 143.471 62.6 143.3C64.6404 143.171 66.685 143.475 68.6 144.19C71.67 145.36 75.6 147.39 74.06 151.34C73.28 153.34 70.72 154.78 69.35 155.53L64.92 158L73.63 162.87C73.7729 162.953 73.8846 163.08 73.9481 163.232C74.0115 163.384 74.0231 163.553 73.981 163.712C73.9388 163.871 73.8454 164.012 73.7151 164.113C73.5848 164.214 73.4248 164.27 73.26 164.27V164.24ZM50.26 149.79L63.36 157.11L68.6 154.19C69.72 153.57 72.05 152.3 72.6 150.78C73.15 149.26 73.06 147.5 68.01 145.56C66.2888 144.921 64.4522 144.652 62.62 144.77C60.0217 144.939 57.4968 145.702 55.24 147L50.26 149.79Z" fill="#E54419"/>
<path d="M63.7697 162.92C63.6368 162.923 63.5058 162.889 63.3911 162.822C63.2763 162.755 63.1824 162.658 63.1197 162.54C63.0292 162.369 63.0088 162.168 63.0629 161.982C63.117 161.795 63.2413 161.637 63.4097 161.54L75.5397 154.81C75.7131 154.723 75.9134 154.706 76.0993 154.762C76.2853 154.817 76.4429 154.942 76.5397 155.11C76.6294 155.283 76.6482 155.485 76.5922 155.671C76.5363 155.858 76.4098 156.015 76.2397 156.11L64.1197 162.83C64.0113 162.886 63.8916 162.917 63.7697 162.92Z" fill="#E54419"/>
<path d="M115 139.71V151.86C115.02 152.23 115.02 152.6 115 152.97C114.54 158.67 109.76 164.22 101.07 167.91C85.6198 174.49 63.6798 172.73 52.0698 163.99C47.4398 160.51 45.1698 156.47 45.0698 152.42V139.52L115 139.71Z" fill="white"/>
<path d="M80.0698 172.62C69.2598 172.62 58.5698 169.85 51.5798 164.62C46.9198 161.11 44.3898 156.91 44.2798 152.47V138.76L115.76 138.96V151.91C115.779 152.283 115.779 152.657 115.76 153.03C115.26 159.25 110.02 164.93 101.37 168.6C94.6061 171.338 87.366 172.704 80.0698 172.62ZM45.7798 140.27V152.39C45.8798 156.39 48.1998 160.17 52.4898 163.39C63.8898 171.97 85.5498 173.69 100.75 167.22C108.86 163.77 113.75 158.55 114.22 152.91C114.238 152.577 114.238 152.243 114.22 151.91V140.46L45.7798 140.27Z" fill="#E54419"/>
<path d="M79.9995 157.64C99.3295 157.64 115 148.775 115 137.84C115 126.905 99.3295 118.04 79.9995 118.04C60.6695 118.04 44.9995 126.905 44.9995 137.84C44.9995 148.775 60.6695 157.64 79.9995 157.64Z" fill="white"/>
<path d="M80.0696 158.38C69.2596 158.38 58.5696 155.6 51.5796 150.38C46.2996 146.38 43.7296 141.46 44.3396 136.44C45.0796 130.44 50.3396 124.93 58.6696 121.37C74.3196 114.71 96.6696 116.51 108.42 125.37C113.71 129.37 116.28 134.3 115.67 139.32C114.93 145.32 109.67 150.82 101.33 154.39C94.5764 157.112 87.3504 158.469 80.0696 158.38ZM79.9996 118.79C72.902 118.717 65.86 120.049 59.2796 122.71C51.4096 126.06 46.5196 131.11 45.8496 136.58C45.3096 141.05 47.6696 145.51 52.5096 149.15C63.9196 157.73 85.5696 159.45 100.77 152.98C108.64 149.63 113.53 144.57 114.2 139.11C114.74 134.64 112.38 130.18 107.54 126.54C100.77 121.47 90.4396 118.79 79.9996 118.79Z" fill="#E54419"/>
<path d="M79.9996 153.05C96.1097 153.05 109.17 146.241 109.17 137.84C109.17 129.44 96.1097 122.63 79.9996 122.63C63.8894 122.63 50.8296 129.44 50.8296 137.84C50.8296 146.241 63.8894 153.05 79.9996 153.05Z" fill="white"/>
<path d="M80.0595 153.79C71.0595 153.79 62.0595 151.65 56.2595 147.6C51.8595 144.6 49.6795 140.73 50.1395 136.84C50.6895 132.1 55.1395 127.78 62.1395 124.99C75.1995 119.87 93.8395 121.26 103.699 128.08C108.099 131.14 110.269 134.96 109.819 138.85C109.269 143.59 104.819 147.91 97.7595 150.7C92.0972 152.801 86.0985 153.848 80.0595 153.79ZM79.9995 123.38C74.1142 123.314 68.2669 124.331 62.7495 126.38C56.1695 129 52.1195 132.84 51.6295 137C51.2395 140.32 53.1895 143.64 57.1195 146.36C66.6095 152.94 84.6195 154.25 97.2695 149.29C103.839 146.71 107.889 142.84 108.379 138.66C108.769 135.35 106.819 132.03 102.889 129.31C97.2795 125.43 88.6895 123.38 79.9995 123.38Z" fill="#E54419"/>
<path d="M88.5798 148.24C88.4512 148.239 88.3246 148.208 88.2098 148.15L78.6998 142.83L75.4098 144.66C75.2365 144.752 75.0341 144.772 74.8459 144.717C74.6578 144.661 74.499 144.534 74.4035 144.363C74.308 144.191 74.2834 143.989 74.3351 143.8C74.3868 143.611 74.5105 143.449 74.6798 143.35L77.1598 142L63.6998 134.45C63.5854 134.382 63.4903 134.285 63.4238 134.17C63.3573 134.054 63.3215 133.924 63.3198 133.79C63.3202 133.658 63.3556 133.528 63.4223 133.414C63.4891 133.3 63.5848 133.205 63.6998 133.14L69.8198 129.69C72.2967 128.269 75.0692 127.441 77.9198 127.27C79.9601 127.144 82.0042 127.447 83.9198 128.16C86.9898 129.33 90.9198 131.36 89.3798 135.31C88.5998 137.31 86.0398 138.75 84.6698 139.5L80.2298 142L88.9998 146.84C89.1427 146.922 89.2545 147.049 89.3179 147.202C89.3813 147.354 89.3929 147.523 89.3508 147.682C89.3087 147.841 89.2152 147.982 89.0849 148.083C88.9546 148.184 88.7946 148.239 88.6298 148.24H88.5798ZM65.5798 133.79L78.6798 141.11L83.9198 138.19C85.0398 137.57 87.3698 136.3 87.9198 134.78C88.4698 133.26 88.3898 131.5 83.3398 129.56C81.6186 128.921 79.782 128.652 77.9498 128.77C75.3474 128.933 72.818 129.696 70.5598 131L65.5798 133.79Z" fill="#E54419"/>
<path d="M79.0895 146.92C78.9566 146.923 78.8256 146.889 78.7109 146.822C78.5962 146.755 78.5022 146.658 78.4395 146.54C78.349 146.369 78.3286 146.168 78.3827 145.982C78.4368 145.795 78.5611 145.637 78.7295 145.54L90.8595 138.81C91.033 138.723 91.2332 138.706 91.4192 138.762C91.6051 138.817 91.7627 138.942 91.8595 139.11C91.9492 139.283 91.9681 139.485 91.9121 139.671C91.8561 139.858 91.7296 140.015 91.5595 140.11L79.4395 146.83C79.3311 146.886 79.2115 146.917 79.0895 146.92Z" fill="#E54419"/>
<path d="M191 127.6V139.75C191 140.12 191 140.49 191 140.86C190.55 146.56 185.76 152.1 177.08 155.8C161.63 162.38 139.69 160.62 128.08 151.88C123.45 148.4 121.17 144.36 121.08 140.31V127.4L191 127.6Z" fill="white"/>
<path d="M156.09 160.51C145.29 160.51 134.6 157.74 127.61 152.51C122.94 149 120.41 144.8 120.3 140.36V126.65L191.78 126.85V139.85C191.799 140.223 191.799 140.597 191.78 140.97C191.28 147.19 186.04 152.86 177.4 156.54C170.629 159.259 163.386 160.609 156.09 160.51ZM121.8 128.16V140.28C121.9 144.28 124.22 148.05 128.51 151.28C139.92 159.86 161.57 161.58 176.77 155.11C184.88 151.66 189.77 146.44 190.24 140.8C190.24 140.46 190.24 140.11 190.24 139.8V128.34L121.8 128.16Z" fill="#231F20"/>
<path d="M156.03 145.53C175.36 145.53 191.03 136.665 191.03 125.73C191.03 114.795 175.36 105.93 156.03 105.93C136.7 105.93 121.03 114.795 121.03 125.73C121.03 136.665 136.7 145.53 156.03 145.53Z" fill="white"/>
<path d="M156.09 146.26C145.29 146.26 134.6 143.49 127.61 138.26C122.33 134.26 119.75 129.34 120.37 124.32C121.1 118.32 126.32 112.81 134.7 109.25C150.34 102.59 172.7 104.39 184.45 113.25C189.73 117.25 192.3 122.18 191.69 127.25C190.96 133.25 185.69 138.75 177.36 142.32C170.599 145.024 163.37 146.363 156.09 146.26ZM156 106.68C148.899 106.607 141.854 107.939 135.27 110.6C127.41 113.95 122.51 119 121.85 124.47C121.3 128.94 123.66 133.4 128.5 137.03C139.91 145.62 161.56 147.34 176.76 140.87C184.63 137.52 189.52 132.46 190.19 127C190.73 122.53 188.37 118.07 183.54 114.43C176.8 109.35 166.47 106.68 156 106.68Z" fill="#231F20"/>
<path d="M156.03 140.94C172.14 140.94 185.2 134.13 185.2 125.73C185.2 117.33 172.14 110.52 156.03 110.52C139.92 110.52 126.86 117.33 126.86 125.73C126.86 134.13 139.92 140.94 156.03 140.94Z" fill="white"/>
<path d="M156.09 141.68C147.09 141.68 138.09 139.54 132.29 135.49C127.88 132.44 125.71 128.62 126.16 124.73C126.72 119.99 131.16 115.67 138.22 112.88C151.28 107.76 169.92 109.15 179.77 115.97C184.17 119.03 186.35 122.85 185.89 126.74C185.34 131.48 180.95 135.8 173.89 138.59C168.196 140.701 162.162 141.748 156.09 141.68ZM156 111.27C150.114 111.204 144.267 112.221 138.75 114.27C132.17 116.84 128.12 120.72 127.63 124.89C127.25 128.2 129.19 131.53 133.12 134.25C142.61 140.82 160.62 142.14 173.27 137.18C179.85 134.6 183.9 130.73 184.38 126.55C184.77 123.24 182.82 119.92 178.89 117.2C173.3 113.32 164.71 111.27 156 111.27Z" fill="#231F20"/>
<path d="M191 113.65V125.8C191 126.17 191 126.54 191 126.91C190.55 132.61 185.76 138.16 177.08 141.85C161.63 148.43 139.69 146.67 128.08 137.93C123.45 134.45 121.17 130.41 121.08 126.36V113.46L191 113.65Z" fill="white"/>
<path d="M156.09 146.56C145.29 146.56 134.6 143.79 127.61 138.56C122.94 135.05 120.41 130.85 120.3 126.41V112.7L191.78 112.9V125.85C191.799 126.223 191.799 126.597 191.78 126.97C191.28 133.19 186.04 138.87 177.4 142.54C170.632 145.277 163.389 146.643 156.09 146.56ZM121.8 114.21V126.33C121.9 130.33 124.22 134.11 128.51 137.33C139.92 145.92 161.57 147.63 176.77 141.16C184.88 137.71 189.77 132.5 190.24 126.85C190.24 126.51 190.24 126.16 190.24 125.85V114.39L121.8 114.21Z" fill="#231F20"/>
<path d="M156.03 131.58C175.36 131.58 191.03 122.715 191.03 111.78C191.03 100.845 175.36 91.98 156.03 91.98C136.7 91.98 121.03 100.845 121.03 111.78C121.03 122.715 136.7 131.58 156.03 131.58Z" fill="white"/>
<path d="M156.09 132.32C145.29 132.32 134.6 129.54 127.61 124.32C122.33 120.32 119.75 115.39 120.37 110.32C121.1 104.32 126.32 98.8101 134.7 95.2501C150.34 88.5901 172.7 90.3901 184.45 99.2501C189.73 103.25 192.3 108.18 191.69 113.25C190.96 119.25 185.69 124.75 177.36 128.32C170.603 131.045 163.374 132.404 156.09 132.32ZM156 92.7301C148.899 92.6569 141.854 93.9891 135.27 96.6501C127.41 100 122.51 105.05 121.85 110.52C121.3 114.99 123.66 119.45 128.5 123.09C139.91 131.67 161.56 133.39 176.76 126.92C184.63 123.57 189.52 118.51 190.19 113.05C190.73 108.58 188.37 104.12 183.54 100.48C176.8 95.4101 166.47 92.7301 156 92.7301Z" fill="#231F20"/>
<path d="M156.03 126.99C172.14 126.99 185.2 120.181 185.2 111.78C185.2 103.38 172.14 96.5703 156.03 96.5703C139.92 96.5703 126.86 103.38 126.86 111.78C126.86 120.181 139.92 126.99 156.03 126.99Z" fill="white"/>
<path d="M156.09 127.73C147.09 127.73 138.09 125.59 132.29 121.54C127.88 118.49 125.71 114.67 126.16 110.78C126.72 106.04 131.16 101.72 138.22 98.93C151.28 93.81 169.92 95.2 179.77 102.02C184.17 105.08 186.35 108.9 185.89 112.79C185.34 117.53 180.94 121.85 173.89 124.64C168.196 126.751 162.162 127.798 156.09 127.73ZM156 97.32C150.114 97.254 144.267 98.2709 138.75 100.32C132.17 102.9 128.12 106.77 127.63 110.94C127.25 114.26 129.19 117.58 133.12 120.3C142.61 126.88 160.62 128.19 173.27 123.23C179.85 120.65 183.9 116.78 184.38 112.6C184.77 109.29 182.82 105.97 178.89 103.25C173.31 99.37 164.72 97.32 156 97.32Z" fill="#231F20"/>
<path d="M191 99.6998V111.85C191 112.22 191 112.59 191 112.96C190.55 118.66 185.76 124.21 177.08 127.9C161.63 134.48 139.69 132.72 128.08 123.98C123.45 120.5 121.17 116.46 121.08 112.41V99.5098L191 99.6998Z" fill="white"/>
<path d="M156.09 132.61C145.29 132.61 134.6 129.84 127.61 124.61C122.94 121.1 120.41 116.9 120.3 112.46V98.75L191.78 98.95V111.95C191.799 112.32 191.799 112.69 191.78 113.06C191.28 119.28 186.04 124.96 177.4 128.63C170.63 131.353 163.386 132.706 156.09 132.61ZM121.8 100.26V112.38C121.9 116.38 124.22 120.16 128.51 123.38C139.92 131.97 161.57 133.68 176.77 127.21C184.88 123.76 189.77 118.55 190.24 112.9C190.24 112.56 190.24 112.21 190.24 111.9V100.45L121.8 100.26Z" fill="#231F20"/>
<path d="M156.03 117.63C175.36 117.63 191.03 108.765 191.03 97.8298C191.03 86.8946 175.36 78.0298 156.03 78.0298C136.7 78.0298 121.03 86.8946 121.03 97.8298C121.03 108.765 136.7 117.63 156.03 117.63Z" fill="white"/>
<path d="M156.09 118.37C145.29 118.37 134.6 115.59 127.61 110.37C122.33 106.37 119.75 101.44 120.37 96.37C121.1 90.37 126.32 84.86 134.7 81.3C150.34 74.65 172.7 76.44 184.45 85.3C189.73 89.3 192.3 94.23 191.69 99.3C190.96 105.3 185.69 110.81 177.36 114.37C170.603 117.095 163.374 118.454 156.09 118.37ZM156 78.78C148.899 78.7068 141.854 80.039 135.27 82.7C127.41 86.05 122.51 91.1 121.85 96.57C121.3 101.04 123.66 105.5 128.5 109.14C139.91 117.72 161.56 119.44 176.76 112.97C184.63 109.62 189.52 104.56 190.19 99.1C190.73 94.63 188.37 90.17 183.54 86.53C176.8 81.46 166.47 78.78 156 78.78Z" fill="#231F20"/>
<path d="M156.03 113.04C172.14 113.04 185.2 106.23 185.2 97.8301C185.2 89.4299 172.14 82.6201 156.03 82.6201C139.92 82.6201 126.86 89.4299 126.86 97.8301C126.86 106.23 139.92 113.04 156.03 113.04Z" fill="white"/>
<path d="M156.09 113.78C147.09 113.78 138.09 111.64 132.29 107.59C127.88 104.59 125.71 100.72 126.16 96.8301C126.72 92.0901 131.16 87.7701 138.22 84.9801C151.28 79.8601 169.92 81.2501 179.77 88.0801C184.17 91.0801 186.35 94.9501 185.89 98.8401C185.34 103.58 180.94 107.9 173.89 110.69C168.196 112.801 162.162 113.848 156.09 113.78ZM156 83.3701C150.114 83.3041 144.267 84.321 138.75 86.3701C132.19 89.0001 128.14 92.8301 127.65 97.0001C127.27 100.32 129.21 103.64 133.14 106.36C142.63 112.94 160.64 114.25 173.29 109.29C179.87 106.71 183.92 102.84 184.4 98.6601C184.79 95.3501 182.84 92.0301 178.91 89.3101C173.3 85.4201 164.71 83.3701 156 83.3701Z" fill="#231F20"/>
<path d="M208.14 85.7501V97.9001C208.16 98.2698 208.16 98.6403 208.14 99.0101C207.68 104.71 202.9 110.26 194.21 113.96C178.76 120.53 156.82 118.77 145.21 110.03C140.58 106.55 138.31 102.52 138.21 98.4701V85.5601L208.14 85.7501Z" fill="white"/>
<path d="M173.2 118.66C162.39 118.66 151.7 115.89 144.71 110.66C140.05 107.15 137.52 102.95 137.41 98.5101V84.8101L208.89 85.0001V98.0001C208.909 98.3698 208.909 98.7403 208.89 99.1101C208.39 105.33 203.15 111.01 194.51 114.69C187.739 117.41 180.496 118.759 173.2 118.66ZM138.91 86.3101V98.4301C139.01 102.43 141.33 106.21 145.62 109.43C157.03 118.02 178.68 119.74 193.88 113.26C201.99 109.81 206.88 104.6 207.35 98.9501C207.369 98.617 207.369 98.2831 207.35 97.9501V86.5001L138.91 86.3101Z" fill="#231F20"/>
<path d="M173.13 103.69C192.46 103.69 208.13 94.8256 208.13 83.8903C208.13 72.9551 192.46 64.0903 173.13 64.0903C153.8 64.0903 138.13 72.9551 138.13 83.8903C138.13 94.8256 153.8 103.69 173.13 103.69Z" fill="white"/>
<path d="M173.2 104.42C162.39 104.42 151.7 101.64 144.71 96.4203C139.43 92.4203 136.86 87.4903 137.47 82.4203C138.21 76.4203 143.47 70.9203 151.8 67.3503C167.45 60.7003 189.8 62.5003 201.55 71.3503C206.84 75.3503 209.41 80.2803 208.8 85.3503C208.06 91.3503 202.8 96.8603 194.47 100.42C187.714 103.145 180.485 104.504 173.2 104.42ZM173.11 64.8303C166.012 64.7571 158.97 66.0893 152.39 68.7503C144.52 72.1003 139.63 77.1603 138.96 82.6203C138.42 87.0903 140.78 91.5503 145.62 95.1903C157.02 103.77 178.68 105.49 193.88 99.0203C201.75 95.6703 206.64 90.6203 207.31 85.1503C207.85 80.6803 205.49 76.2203 200.65 72.5803C193.91 67.5103 183.57 64.8303 173.11 64.8303Z" fill="#231F20"/>
<path d="M173.13 99.1002C189.24 99.1002 202.3 92.2904 202.3 83.8902C202.3 75.4899 189.24 68.6802 173.13 68.6802C157.02 68.6802 143.96 75.4899 143.96 83.8902C143.96 92.2904 157.02 99.1002 173.13 99.1002Z" fill="white"/>
<path d="M173.19 99.8304C164.19 99.8304 155.19 97.6904 149.39 93.6404C144.99 90.6404 142.82 86.7704 143.27 82.8804C143.82 78.1404 148.22 73.8204 155.33 71.0304C168.39 65.9104 187.03 67.3004 196.88 74.1304C201.28 77.1804 203.45 81.0004 203 84.8904C202.45 89.6304 198.05 93.9504 190.94 96.7404C185.262 98.8469 179.246 99.8943 173.19 99.8304ZM173.12 69.4204C167.235 69.3544 161.388 70.3713 155.87 72.4204C149.3 75.0004 145.25 78.8704 144.76 83.0504C144.37 86.3604 146.32 89.6804 150.25 92.4004C159.74 98.9804 177.75 100.29 190.4 95.3304C197 92.7604 201 88.8904 201.51 84.7104C201.9 81.4004 199.95 78.0804 196.02 75.3604C190.41 71.4704 181.82 69.4204 173.12 69.4204Z" fill="#231F20"/>
<path d="M191 71.7999V83.9999C191 84.3699 191 84.7399 191 85.1099C190.55 90.8099 185.76 96.3599 177.08 100.11C161.63 106.68 139.69 104.92 128.08 96.1799C123.45 92.6999 121.17 88.6699 121.08 84.6199V71.6099L191 71.7999Z" fill="white"/>
<path d="M156.09 104.72C145.29 104.72 134.6 101.94 127.61 96.7199C122.94 93.2099 120.41 89.0099 120.3 84.5799V70.8599L191.78 71.0499V83.9999C191.799 84.3696 191.799 84.7401 191.78 85.1099C191.28 91.3299 186.04 97.0099 177.4 100.69C170.633 103.43 163.39 104.8 156.09 104.72ZM121.8 72.3599V84.4799C121.9 88.4799 124.22 92.2599 128.51 95.4799C139.92 104.06 161.57 105.78 176.77 99.3099C184.88 95.8499 189.77 90.6399 190.24 84.9899C190.24 84.6499 190.24 84.3099 190.24 83.9899V72.5499L121.8 72.3599Z" fill="#231F20"/>
<path d="M156.03 89.7401C175.36 89.7401 191.03 80.8754 191.03 69.9401C191.03 59.0049 175.36 50.1401 156.03 50.1401C136.7 50.1401 121.03 59.0049 121.03 69.9401C121.03 80.8754 136.7 89.7401 156.03 89.7401Z" fill="white"/>
<path d="M156.09 90.4701C145.29 90.4701 134.6 87.7001 127.61 82.4701C122.33 78.4701 119.75 73.5401 120.37 68.4701C121.1 62.4701 126.32 56.9701 134.7 53.4001C150.34 46.7501 172.7 48.5501 184.45 57.4001C189.73 61.4001 192.3 66.3201 191.69 71.3401C190.96 77.3401 185.69 82.8501 177.36 86.4101C170.608 89.1552 163.378 90.5351 156.09 90.4701ZM156 50.8801C148.899 50.8069 141.854 52.1391 135.27 54.8001C127.41 58.1501 122.51 63.2101 121.85 68.6701C121.3 73.1401 123.66 77.6001 128.5 81.2401C139.91 89.8201 161.56 91.5401 176.76 85.0701C184.63 81.7201 189.52 76.6701 190.19 71.2001C190.74 66.7301 188.37 62.2701 183.54 58.6301C176.8 53.5601 166.47 50.8801 156 50.8801Z" fill="#231F20"/>
<path d="M156.03 85.15C172.14 85.15 185.2 78.3402 185.2 69.94C185.2 61.5397 172.14 54.73 156.03 54.73C139.92 54.73 126.86 61.5397 126.86 69.94C126.86 78.3402 139.92 85.15 156.03 85.15Z" fill="white"/>
<path d="M156.09 85.8802C147.09 85.8802 138.09 83.7502 132.29 79.7002C127.88 76.6402 125.71 72.8202 126.16 68.9302C126.72 64.1902 131.16 59.8702 138.22 57.0802C151.28 51.9602 169.92 53.3502 179.77 60.1802C184.17 63.1802 186.35 67.0502 185.89 70.9402C185.34 75.6802 180.95 80.0002 173.89 82.7902C168.197 84.9059 162.163 85.9534 156.09 85.8802ZM156 55.4702C150.114 55.4042 144.267 56.4211 138.75 58.4702C132.17 61.0502 128.12 64.9202 127.63 69.1002C127.25 72.4102 129.19 75.7302 133.12 78.4502C142.61 85.0302 160.62 86.3402 173.27 81.3802C179.85 78.8102 183.9 74.9302 184.38 70.7602C184.77 67.4402 182.82 64.1202 178.89 61.4002C173.3 57.5202 164.71 55.4702 156 55.4702Z" fill="#231F20"/>
<path d="M191 57.8502V70.0002C191 70.3702 191 70.7402 191 71.1102C190.55 76.8102 185.76 82.3502 177.08 86.0502C161.63 92.6202 139.69 90.8602 128.08 82.1302C123.45 78.6402 121.17 74.6102 121.08 70.5602V57.6602L191 57.8502Z" fill="white"/>
<path d="M156.09 90.7702C145.29 90.7702 134.6 87.9902 127.61 82.7702C122.94 79.2502 120.41 75.0502 120.3 70.6202V56.9102L191.78 57.1002V70.1002C191.799 70.4699 191.799 70.8404 191.78 71.2102C191.28 77.4302 186.04 83.1102 177.4 86.7902C170.63 89.5131 163.386 90.8659 156.09 90.7702ZM121.8 58.4102V70.5302C121.9 74.5302 124.22 78.3102 128.51 81.5302C139.92 90.1102 161.57 91.8302 176.77 85.3602C184.88 81.9102 189.77 76.6902 190.24 71.0502C190.24 70.7002 190.24 70.3602 190.24 70.0502V58.6002L121.8 58.4102Z" fill="#231F20"/>
<path d="M156.03 75.7904C175.36 75.7904 191.03 66.9257 191.03 55.9904C191.03 45.0552 175.36 36.1904 156.03 36.1904C136.7 36.1904 121.03 45.0552 121.03 55.9904C121.03 66.9257 136.7 75.7904 156.03 75.7904Z" fill="white"/>
<path d="M156.09 76.5202C145.29 76.5202 134.6 73.7502 127.61 68.5202C122.33 64.5202 119.75 59.5902 120.37 54.5702C121.1 48.5702 126.32 43.0702 134.7 39.5002C150.34 32.8502 172.7 34.6502 184.45 43.5002C189.73 47.5002 192.3 52.4202 191.69 57.4402C190.96 63.4402 185.69 68.9502 177.36 72.5102C170.604 75.2382 163.375 76.6011 156.09 76.5202ZM156 36.9302C148.899 36.857 141.854 38.1892 135.27 40.8502C127.41 44.2002 122.51 49.2602 121.85 54.7202C121.3 59.1902 123.66 63.6502 128.5 67.2902C139.91 75.8702 161.56 77.5902 176.76 71.1202C184.63 67.7702 189.52 62.7202 190.19 57.2502C190.73 52.7802 188.37 48.3202 183.54 44.6902C176.8 39.6102 166.47 36.9302 156 36.9302Z" fill="#231F20"/>
<path d="M156.03 71.2003C172.14 71.2003 185.2 64.3905 185.2 55.9903C185.2 47.59 172.14 40.7803 156.03 40.7803C139.92 40.7803 126.86 47.59 126.86 55.9903C126.86 64.3905 139.92 71.2003 156.03 71.2003Z" fill="white"/>
<path d="M156.09 71.93C147.09 71.93 138.09 69.8 132.29 65.75C127.88 62.69 125.71 58.87 126.16 54.98C126.72 50.24 131.16 45.92 138.22 43.13C151.28 38.01 169.92 39.4 179.77 46.23C184.17 49.28 186.35 53.1 185.89 56.99C185.34 61.74 180.95 66.05 173.89 68.84C168.197 70.9557 162.163 72.0032 156.09 71.93ZM156 41.52C150.114 41.454 144.267 42.4709 138.75 44.52C132.17 47.1 128.12 50.97 127.63 55.15C127.25 58.46 129.19 61.78 133.12 64.5C142.61 71.08 160.62 72.4 173.27 67.43C179.85 64.86 183.9 60.98 184.38 56.81C184.77 53.5 182.82 50.17 178.89 47.45C173.3 43.57 164.72 41.52 156 41.52Z" fill="#231F20"/>
<path d="M164.6 66.3904C164.473 66.3913 164.348 66.3567 164.24 66.2904L154.72 61.0004L151.44 62.8304C151.269 62.9236 151.067 62.9453 150.88 62.891C150.693 62.8367 150.535 62.7107 150.44 62.5404C150.352 62.3681 150.333 62.1688 150.387 61.9829C150.441 61.7971 150.563 61.6389 150.73 61.5404L153.2 60.1604L139.75 52.6404C139.632 52.5773 139.534 52.4836 139.465 52.3691C139.397 52.2547 139.36 52.1239 139.36 51.9904C139.362 51.8559 139.398 51.7242 139.467 51.6084C139.535 51.4926 139.633 51.3968 139.75 51.3304L145.86 47.8904C148.335 46.466 151.109 45.6375 153.96 45.4704C155.999 45.3406 158.044 45.6404 159.96 46.3504C163.02 47.5304 166.96 49.5504 165.41 53.5104C164.64 55.5104 162.08 56.9404 160.7 57.7004L156.28 60.1604L165 65.0004C165.148 65.0802 165.265 65.2075 165.332 65.3617C165.399 65.516 165.412 65.6882 165.369 65.8509C165.327 66.0136 165.231 66.1572 165.096 66.2586C164.962 66.3601 164.798 66.4136 164.63 66.4104L164.6 66.3904ZM141.6 51.9304L154.69 59.2504L160 56.3304C161.12 55.7204 163.45 54.4404 164 52.9204C164.55 51.4004 164.47 49.6404 159.41 47.7004C157.687 47.066 155.852 46.797 154.02 46.9104C151.404 47.0712 148.862 47.8344 146.59 49.1404L141.6 51.9304Z" fill="#231F20"/>
<path d="M155.12 65.0701C154.952 65.0732 154.788 65.0198 154.653 64.9183C154.519 64.8168 154.423 64.6733 154.381 64.5106C154.338 64.3479 154.351 64.1756 154.418 64.0214C154.485 63.8672 154.602 63.7399 154.75 63.6601L166.88 56.9401C166.966 56.8897 167.061 56.857 167.16 56.8439C167.259 56.8308 167.36 56.8376 167.456 56.8639C167.553 56.8902 167.643 56.9354 167.721 56.997C167.8 57.0585 167.865 57.1351 167.914 57.2223C167.963 57.3095 167.993 57.4055 168.004 57.5048C168.015 57.604 168.006 57.7044 167.978 57.8001C167.95 57.8958 167.903 57.9849 167.839 58.0622C167.776 58.1395 167.698 58.2034 167.61 58.2501L155.48 65.0001C155.367 65.051 155.244 65.075 155.12 65.0701Z" fill="#231F20"/>
<path d="M176.23 224.07L219.29 199.28C223.77 196.7 223.21 192.18 218.04 189.19C212.86 186.19 195.75 186.19 191.27 188.77L153.09 210.77C146.22 214.83 153.02 220.4 158.75 223.31C163.93 226.33 171.75 226.65 176.23 224.07Z" fill="#BEDCE3"/>
<path d="M159.45 172L221.71 148.78V195C221.91 196.5 221.12 198 219.28 199L177.18 223.38C173.53 225.49 167.18 225.22 162.95 222.79C160.73 221.51 159.55 219.87 159.47 218.31L159.45 172Z" fill="white"/>
<path d="M171 225.53C168.06 225.558 165.162 224.835 162.58 223.43C160.26 222.1 158.91 220.36 158.74 218.52C158.725 218.448 158.725 218.373 158.74 218.3V172C158.74 171.846 158.787 171.696 158.874 171.569C158.962 171.442 159.086 171.345 159.23 171.29L221.49 148.08C221.603 148.036 221.724 148.02 221.845 148.034C221.965 148.048 222.08 148.091 222.18 148.16C222.279 148.23 222.361 148.323 222.416 148.431C222.472 148.539 222.501 148.659 222.5 148.78V194.87C222.74 196.71 221.72 198.45 219.69 199.62L177.56 224C175.539 225.06 173.281 225.586 171 225.53ZM160.2 218.13C160.205 218.173 160.205 218.217 160.2 218.26C160.27 219.62 161.4 221.03 163.31 222.13C167.31 224.44 173.31 224.71 176.79 222.72L218.88 198.34C220.38 197.48 221.11 196.34 220.94 195.07V149.88L160.2 172.54V218.13Z" fill="#231F20"/>
<path d="M177.18 177L219.28 152.62C222.93 150.51 222.47 146.83 218.28 144.4C214.07 141.97 207.7 141.71 204.05 143.81L161.95 168.19C158.3 170.3 158.76 173.98 162.95 176.41C167.16 178.83 173.53 179.09 177.18 177Z" fill="white"/>
<path d="M171 179.14C168.062 179.167 165.165 178.448 162.58 177.05C160.12 175.63 158.72 173.7 158.72 171.75C158.773 170.857 159.064 169.994 159.563 169.252C160.063 168.51 160.753 167.915 161.56 167.53L203.65 143.15C207.5 140.93 214.22 141.15 218.65 143.74C221.1 145.16 222.51 147.09 222.51 149.04C222.456 149.931 222.164 150.792 221.664 151.532C221.165 152.273 220.476 152.866 219.67 153.25L177.58 177.64C175.551 178.693 173.286 179.209 171 179.14ZM210.21 143.14C208.192 143.083 206.193 143.541 204.4 144.47L162.31 168.85C161.733 169.106 161.235 169.512 160.867 170.025C160.5 170.539 160.277 171.141 160.22 171.77C160.22 173.17 161.35 174.63 163.33 175.77C167.33 178.08 173.33 178.34 176.8 176.36L218.9 152C219.49 151.738 219.997 151.32 220.367 150.792C220.737 150.263 220.956 149.644 221 149C221 147.6 219.87 146.14 217.89 145C215.532 143.731 212.888 143.084 210.21 143.12V143.14Z" fill="#231F20"/>
<path d="M186.43 115.47C189.111 113.927 192.151 113.115 195.245 113.118C198.339 113.121 201.378 113.937 204.056 115.485C206.735 117.033 208.959 119.259 210.506 121.938C212.053 124.617 212.868 127.656 212.87 130.75V149.88C212.87 151.76 210.28 153.27 207.08 153.27C203.88 153.27 201.29 151.76 201.29 149.9C201.29 149.9 201.29 149.9 201.29 149.83H201.23V133.22C201.228 131.91 200.882 130.623 200.227 129.488C199.572 128.354 198.63 127.411 197.496 126.755C196.362 126.099 195.075 125.752 193.765 125.749C192.455 125.747 191.167 126.088 190.03 126.74C187.188 128.374 184.827 130.728 183.186 133.565C181.544 136.402 180.68 139.622 180.68 142.9V168.4H180.62C180.55 170.23 177.99 171.7 174.83 171.7C171.67 171.7 169.08 170.21 169.05 168.37V145.53C169.05 139.434 170.657 133.446 173.708 128.169C176.759 122.892 181.147 118.512 186.43 115.47Z" fill="white"/>
<path d="M174.84 172.45C171.26 172.45 168.41 170.71 168.31 168.45V145.53C168.32 139.305 169.965 133.192 173.08 127.802C176.195 122.413 180.671 117.936 186.06 114.82L186.43 115.47L186.06 114.82C188.855 113.209 192.024 112.361 195.25 112.363C198.476 112.365 201.645 113.216 204.438 114.83C207.231 116.445 209.55 118.766 211.162 121.56C212.773 124.355 213.621 127.524 213.62 130.75V149.88C213.625 149.92 213.625 149.96 213.62 150C213.49 152.31 210.62 154 207.09 154C203.56 154 200.74 152.3 200.56 150.09C200.519 150.002 200.499 149.907 200.5 149.81V133.22C200.501 132.041 200.191 130.882 199.603 129.861C199.014 128.839 198.167 127.99 197.147 127.4C196.127 126.809 194.969 126.497 193.79 126.495C192.611 126.494 191.452 126.802 190.43 127.39C187.7 128.957 185.43 131.215 183.85 133.938C182.271 136.661 181.436 139.752 181.43 142.9V168.4C181.432 168.53 181.398 168.659 181.33 168.77C181 170.86 178.25 172.45 174.84 172.45ZM169.84 168.3C169.84 169.56 171.89 170.9 174.84 170.9C177.79 170.9 179.84 169.57 179.84 168.33C179.84 168.233 179.86 168.138 179.9 168.05V142.9C179.906 139.491 180.807 136.143 182.515 133.193C184.223 130.242 186.677 127.793 189.63 126.09C190.881 125.358 192.304 124.97 193.754 124.965C195.204 124.961 196.629 125.34 197.885 126.064C199.141 126.788 200.183 127.831 200.906 129.088C201.629 130.345 202.006 131.77 202 133.22V149.59C202.04 149.681 202.06 149.78 202.06 149.88C202.06 151.16 204.12 152.54 207.06 152.54C210 152.54 212.06 151.18 212.06 149.95V130.75C212.061 127.787 211.282 124.877 209.802 122.31C208.322 119.744 206.192 117.613 203.628 116.13C201.063 114.647 198.153 113.866 195.19 113.864C192.228 113.862 189.317 114.64 186.75 116.12C181.587 119.101 177.298 123.388 174.314 128.55C171.33 133.712 169.756 139.568 169.75 145.53L169.84 168.3Z" fill="#FF6433"/>
<path d="M190.16 185.16C190.271 183.185 190.846 181.264 191.838 179.553C192.83 177.841 194.212 176.388 195.87 175.31C199.02 173.49 201.58 174.95 201.58 178.57C201.441 181.269 200.426 183.849 198.69 185.92V197.38L193.05 200.64V189.18C191.32 189.05 190.16 187.6 190.16 185.16Z" fill="white"/>
<path d="M193.05 201.39C192.951 201.391 192.853 201.373 192.762 201.336C192.67 201.298 192.587 201.243 192.517 201.173C192.447 201.103 192.392 201.02 192.355 200.928C192.317 200.837 192.299 200.739 192.3 200.64V189.81C190.5 189.35 189.41 187.63 189.41 185.16C189.513 183.052 190.118 180.998 191.176 179.172C192.233 177.345 193.713 175.798 195.49 174.66C197.27 173.66 198.97 173.5 200.29 174.26C200.977 174.735 201.525 175.385 201.876 176.143C202.228 176.901 202.371 177.738 202.29 178.57C202.158 181.349 201.146 184.014 199.4 186.18V197.38C199.402 197.511 199.368 197.641 199.303 197.755C199.238 197.869 199.144 197.964 199.03 198.03L193.38 201.29C193.28 201.351 193.167 201.385 193.05 201.39ZM198.43 175.28C197.654 175.316 196.9 175.55 196.24 175.96C194.692 176.967 193.402 178.325 192.476 179.923C191.55 181.521 191.014 183.316 190.91 185.16C190.91 187.1 191.73 188.33 193.11 188.43C193.298 188.445 193.474 188.531 193.602 188.67C193.73 188.809 193.801 188.991 193.8 189.18V199.34L197.94 196.95V185.95C197.94 185.778 198 185.612 198.11 185.48C199.74 183.543 200.695 181.128 200.83 178.6C200.897 178.031 200.813 177.454 200.586 176.927C200.36 176.401 199.999 175.943 199.54 175.6C199.206 175.394 198.822 175.284 198.43 175.28Z" fill="#FF6433"/>
<path d="M197.71 197V185.5C199.445 183.425 200.456 180.841 200.59 178.14C200.651 177.473 200.547 176.801 200.287 176.184C200.028 175.566 199.62 175.023 199.1 174.6C200.59 174.91 201.58 176.32 201.58 178.6C201.44 181.299 200.426 183.879 198.69 185.95V197.41L193.05 200.67V199.67L197.71 197Z" fill="#FF6433"/>
</svg>
