<svg width="256" height="256" viewBox="0 0 256 256" fill="none" xmlns="http://www.w3.org/2000/svg">
<path d="M74.1001 193C74.1001 193 83.5001 214.8 127.1 222.9C148.5 226.2 186.8 227.2 195.8 219.8C208.5 209.3 173.1 197.6 173.1 197.6L74.1001 193Z" fill="#BEDCE3"/>
<path d="M176 138.1C168.1 125.2 143 112.4 143 112.4C143 112.4 141.3 111.7 138.1 110.9C138.1 110.9 133.7 102.9 133.4 99.2996C133.1 95.6996 137.1 88.1996 137.1 88.1996C137.1 88.1996 144 70.7996 142.1 63.1996C140.2 55.5996 135.9 39.6996 109.1 37.9996C82.2001 36.2996 83.7001 62.2996 83.4001 67.1996C83.2001 72.1996 85.3001 104.3 90.8001 105.2C96.3001 106.2 99.2001 105.9 104.2 105.5C103.5 107.8 103 109.3 101.4 111.6C99.3001 111.8 97.4001 111.8 94.7001 112.3C94.7001 112.3 85.4001 114.1 80.9001 117.2C69.7001 125.1 67.5001 140.6 64.5001 148.3C59.5001 161.3 58.6001 178 58.6001 178C58.6001 178 60.1001 186.9 74.1001 193C85.1001 201.4 104 218.5 162.5 213.3C185.9 216.7 188.5 203.5 188.5 203.5C188.5 203.5 184 151 176 138.1Z" fill="white"/>
<path d="M141.3 113.1C141.3 113.1 140.5 114.6 138.8 116.5C137.5 117.9 135.4 119.8 135.4 119.8C135.4 119.8 124.1 106.6 125.7 99.1C123.1 101 118.1 102.7 112.7 103.7C108.8 104.4 101 105 97.6001 105.1C103.7 104.1 110.9 102 116.5 98.6C127.8 91.7 124.2 78.5 124.2 78.5C124.2 78.5 125.6 74.1 125.5 70.3C125.4 67.5 130.9 63.3 130.9 63.3C130.9 63.3 139 60.9 139.9 64.9C140.6 68.2 132.5 77.7 132.5 77.7L133.6 93.6C133.6 93.6 131.8 97.9 132.6 100.7C133.1 102.5 134.6 106.7 137.2 111.5C139.4 111.8 139.9 112.6 141.3 113.1Z" fill="#BEDCE3"/>
<path d="M85.3003 52.2001C86.7003 53.8001 94.0003 54.6001 97.1003 53.5001C103.7 51.3001 105.7 48.9001 113.7 48.5001C122.1 48.0001 125.9 53.7001 125.9 53.7001C125.9 53.7001 128 56.3001 127.2 61.0001C127.2 61.0001 141.1 61.3001 140.6 59.3001C138.7 51.7001 135.8 39.7001 109 38.0001C92.1003 37.0001 87.3003 43.5001 85.3003 52.2001Z" fill="#BEDCE3"/>
<path d="M74.9001 135.1C74.9001 135.1 69.5001 155.1 68.1001 170.7C66.9001 183.6 66.1001 188.5 66.1001 188.5L74.1001 193.2L73.4001 163.8L74.9001 135.1Z" fill="#BEDCE3"/>
<path d="M74.1 193.1L73.5 166.2" stroke="#1D1D1B" stroke-width="2" stroke-miterlimit="10"/>
<path d="M73.5 166.2C73.5 166.2 73.6 159.6 74.1 151.8C74.2 149.5 74.4 147.2 74.7 144.9C75 141.4 75.5 138 76 135.1" fill="white"/>
<path d="M73.5 166.2C73.5 166.2 73.6 159.6 74.1 151.8C74.2 149.5 74.4 147.2 74.7 144.9C75 141.4 75.5 138 76 135.1" stroke="#1D1D1B" stroke-width="2" stroke-miterlimit="10" stroke-linecap="round" stroke-linejoin="round"/>
<path d="M155.7 149.7C155.9 162.9 162.4 213.4 162.4 213.4" stroke="#1D1D1B" stroke-width="2" stroke-miterlimit="10" stroke-linecap="round"/>
<path d="M173.6 139.2C165.6 144.9 174.8 155.9 177.6 178.1C180.3 199.8 174.6 212.7 174.6 212.7C174.6 212.7 184.6 213 187.5 203.5C183.2 158.5 178 136.1 173.6 139.2Z" fill="#BEDCE3"/>
<path d="M133.9 78.0993C133.9 78.0993 140.7 71.6993 141.4 66.2993C141.7 64.8993 140.9 60.5993 135.8 60.8993C139.4 49.0993 133.8 40.2993 129.7 41.1993C133.3 37.9993 133.1 35.2993 133.1 35.2993C133.1 35.2993 140.3 34.8993 143 44.2993C145.7 53.6993 144.7 65.1993 142.8 73.7993C140.2 85.4993 136.5 91.6993 134.7 91.6993C132.8 91.6993 133.9 78.0993 133.9 78.0993Z" fill="#BEDCE3"/>
<path d="M176 138.1C168.1 125.2 143 112.4 143 112.4C143 112.4 141.3 111.7 138.1 110.9C138.1 110.9 133.7 102.9 133.4 99.2996C133.1 95.6996 137.1 88.1996 137.1 88.1996C137.1 88.1996 144 70.7996 142.1 63.1996C140.2 55.5996 135.9 39.6996 109.1 37.9996C82.2001 36.2996 83.7001 62.2996 83.4001 67.1996C83.2001 72.1996 85.3001 104.3 90.8001 105.2C96.1001 106.1 99.0001 105.9 103.7 105.6C103.9 105.6 104.1 105.8 104 106C103.4 108.1 102.9 109.5 101.4 111.6C99.3001 111.8 97.4001 111.8 94.7001 112.3C94.7001 112.3 85.7001 115.1 81.2001 118.2C70.0001 126.1 65.4001 139.6 63.3001 147.8C59.9001 161.3 58.6001 178 58.6001 178C58.6001 178 60.1001 186.9 74.1001 193C83.3001 205.9 117.2 219.5 162.5 213.3C185.9 216.7 188.5 203.5 188.5 203.5C188.5 203.5 184 151 176 138.1Z" stroke="#1D1D1B" stroke-width="2" stroke-miterlimit="10"/>
<path d="M94.7002 112.399C94.7002 112.399 98.0002 110.799 102.6 109.399C102.6 109.399 102.5 116.999 108.3 123.599C102.1 132.799 100.2 134.999 100.2 134.999C100.2 134.999 95.1002 124.599 94.7002 112.399Z" fill="white" stroke="#1D1D1B" stroke-width="2" stroke-miterlimit="10" stroke-linecap="round" stroke-linejoin="round"/>
<path d="M76.9999 50.4998C80.1999 51.3998 88.6999 51.8998 95.2999 49.6998C101.9 47.4998 105.7 44.3998 113.7 44.7998C121.7 45.1998 125.2 52.7998 125.2 52.7998C125.2 52.7998 124.5 60.1998 123.5 64.8998C122.6 69.1998 123.2 71.4998 125.3 72.0998C127.9 72.7998 129.6 70.8998 130.1 68.1998C130.3 66.9998 131 63.2998 131 63.2998C131 63.2998 135 60.7998 137.5 62.6998C140.7 65.1998 139.5 70.7998 132.6 77.6998C133 87.8998 131.4 92.9998 135 92.8998C138.6 92.7998 143.9 79.8998 145.5 65.0998C147.1 50.2998 144.6 33.2998 131.3 33.5998C126.9 24.7998 112.9 20.4998 102.5 21.8998C92.2999 23.0998 82.5999 34.5998 79.1999 36.9998C75.6999 39.4998 70.9999 39.6998 70.9999 39.6998C70.9999 39.6998 72.8999 43.3998 77.1999 43.4998C74.2999 46.4998 70.3999 46.0998 70.3999 46.0998C70.3999 46.0998 72.7999 49.2998 76.9999 50.4998Z" fill="white" stroke="#1D1D1B" stroke-width="2" stroke-miterlimit="10" stroke-linecap="round" stroke-linejoin="round"/>
<path d="M116.5 124.7L122.5 138.4C122.5 138.4 139 124.8 143.8 112.8C139 109 136.3 106.3 136.3 106.4C136.3 106.4 129.2 119.4 116.5 124.7Z" fill="white" stroke="#1D1D1B" stroke-width="2" stroke-miterlimit="10" stroke-linecap="round" stroke-linejoin="round"/>
<path d="M116.4 124.9C112.4 130.5 110.7 140.8 110.7 140.8C110.7 140.8 107.2 131.4 108.3 123.7" stroke="#1D1D1B" stroke-width="2" stroke-miterlimit="10" stroke-linecap="round" stroke-linejoin="round"/>
<path d="M145.6 197.7L121.3 190.4C120.5 190.1 119.9 189.4 119.9 188.5L119.8 171.8C119.8 170.5 121.1 169.5 122.4 169.9L146.7 177.2C147.5 177.5 148.1 178.2 148.1 179.1L148.2 195.8C148.2 197.1 146.9 198 145.6 197.7Z" fill="#BEDCE3"/>
<path d="M141.9 192.8L117.7 185.5C116.9 185.2 116.3 184.5 116.3 183.6L116.2 166.3C116.2 165.3 117.2 164.5 118.2 164.8L143 172.3C143.8 172.6 144.4 173.3 144.4 174.2L144.5 190.8C144.5 192.2 143.2 193.2 141.9 192.8Z" fill="#EF5023" stroke="#1D1D1B" stroke-width="2" stroke-miterlimit="10"/>
<path d="M127.1 182.7L122 181.2V171.6L127 173.1L127.1 182.7Z" fill="white"/>
<path d="M130.6 168.6L129.1 168.2C128.6 168 128.2 167.6 128.2 167V162.2C128.2 161.4 129 160.8 129.8 161L131.3 161.4C131.8 161.6 132.2 162 132.2 162.6V167.8C132.2 168.7 131.4 168.8 130.6 168.6Z" fill="white" stroke="#1D1D1B" stroke-width="2" stroke-miterlimit="10"/>
</svg>
