<svg width="256" height="256" viewBox="0 0 256 256" fill="none" xmlns="http://www.w3.org/2000/svg">
<path d="M224.1 174.4L141.6 224.6C141.1 224.9 140.6 224.9 140.1 224.6L44.2998 169.5C43.2998 168.9 43.2998 167.6 44.2998 167L47.8998 164.9L130.1 116.6C130.6 116.3 131.1 116.3 131.6 116.6L224.1 171.9C225 172.5 225 173.9 224.1 174.4Z" fill="#BEDCE3"/>
<path d="M208 72.8998L130.4 117.7C130 118 129.4 118 128.9 117.7L51.8999 73.1998C50.8999 72.5998 50.8999 71.1998 51.8999 70.6998L129.5 25.8998C129.9 25.5998 130.5 25.5998 131 25.8998L208 70.2998C209 70.8998 209 72.2998 208 72.8998Z" fill="white"/>
<path d="M127.5 209.099L49.8997 164.399C49.4997 164.099 49.1997 163.699 49.1997 163.099V74.0991C49.1997 72.9991 50.3997 72.2991 51.3997 72.7991L129 117.599C129.4 117.899 129.7 118.299 129.7 118.899V207.899C129.7 208.999 128.5 209.699 127.5 209.099Z" fill="white"/>
<path d="M82.2998 90.3996V111.3C82.2998 111.8 82.5998 112.3 82.9998 112.6L95.3998 119.7C96.3998 120.3 97.5998 119.6 97.5998 118.4V99.1996L174.7 54.6996C175.7 54.0996 175.7 52.6996 174.7 52.1996L162.3 45.1996C161.9 44.8996 161.3 44.8996 160.9 45.1996L82.2998 90.3996Z" fill="#BEDCE3"/>
<path d="M116.5 187.1L93.8997 174C93.4997 173.7 93.1997 173.3 93.1997 172.7V160.4C93.1997 159.3 94.3997 158.6 95.3997 159.1L118 172.1C118.4 172.4 118.7 172.8 118.7 173.4V185.7C118.7 187 117.5 187.7 116.5 187.1Z" fill="#EF5023"/>
<path d="M209.8 164.399L131.9 209.099C130.9 209.699 129.7 208.999 129.7 207.799V118.799C129.7 118.299 130 117.799 130.4 117.499L208.3 72.6992C209.3 72.0992 210.5 72.7992 210.5 73.9992V163.099C210.5 163.699 210.2 164.199 209.8 164.399Z" fill="#BEDCE3"/>
<path fill-rule="evenodd" clip-rule="evenodd" d="M201.26 142.789C201.542 143.264 201.385 143.878 200.91 144.159L170.71 162.059C170.235 162.341 169.621 162.184 169.34 161.709C169.058 161.234 169.215 160.62 169.69 160.339L199.89 142.439C200.365 142.157 200.979 142.314 201.26 142.789Z" fill="#1D1D1B"/>
<path fill-rule="evenodd" clip-rule="evenodd" d="M191.758 156.685C192.042 157.159 191.888 157.773 191.414 158.057L170.714 170.457C170.24 170.741 169.626 170.587 169.342 170.113C169.058 169.639 169.212 169.025 169.686 168.742L190.386 156.342C190.86 156.058 191.474 156.212 191.758 156.685Z" fill="#1D1D1B"/>
<path fill-rule="evenodd" clip-rule="evenodd" d="M131.342 24.8581L210.198 70.2329C210.234 70.253 210.267 70.2753 210.3 70.2996C210.897 70.7479 211.4 71.5229 211.4 72.3996V163.1C211.4 164.109 210.865 164.776 210.3 165.2C210.268 165.224 210.234 165.246 210.199 165.266L131.143 210.841C130.41 211.352 129.391 211.353 128.657 210.841L49.4012 165.266C49.3661 165.246 49.3322 165.224 49.2997 165.2C48.702 164.751 48.1997 163.976 48.1997 163.1V72.3996C48.1997 71.5665 48.6713 70.7118 49.4231 70.3202L128.858 24.8573C129.591 24.3468 130.61 24.347 131.342 24.8581ZM130.1 26.4746C130.043 26.4746 130.009 26.4925 130 26.4996C129.967 26.5244 129.932 26.547 129.896 26.5675L50.3964 72.0675C50.3802 72.0768 50.3637 72.0857 50.3469 72.094C50.3471 72.0939 50.347 72.094 50.3466 72.0943C50.3421 72.0973 50.3031 72.1237 50.2616 72.1941C50.2181 72.2681 50.1997 72.3447 50.1997 72.3996V163.1C50.1997 163.215 50.2852 163.419 50.4617 163.569L129.698 209.133C129.733 209.153 129.767 209.175 129.8 209.2C129.809 209.207 129.843 209.225 129.9 209.225C129.956 209.225 129.99 209.207 130 209.2C130.032 209.175 130.065 209.153 130.1 209.133L209.142 163.567C209.243 163.485 209.303 163.414 209.338 163.355C209.372 163.297 209.4 163.222 209.4 163.1V72.3996C209.4 72.2843 209.314 72.08 209.138 71.9299L130.301 26.5664C130.266 26.5462 130.232 26.5239 130.2 26.4996C130.19 26.4925 130.156 26.4746 130.1 26.4746Z" fill="#1D1D1B"/>
</svg>
