<svg width="256" height="256" viewBox="0 0 256 256" fill="none" xmlns="http://www.w3.org/2000/svg">
<g clip-path="url(#clip0_18402_34361)">
<path d="M182 178.5L189.71 182.79C190.11 183.02 190.25 183.53 190.02 183.94C189.95 184.07 189.84 184.18 189.71 184.25L76.2898 249.7C75.3998 250.22 74.2898 250.22 73.3998 249.7L66.6398 246.36C66.0298 246.01 65.8198 245.23 66.1698 244.63C66.2798 244.44 66.4398 244.28 66.6398 244.16L181.32 178.16" fill="#BEDCE3"/>
<path d="M74.6802 231.64L178.23 171.16V6L97.8202 53L98.1402 79.71C86.2502 79.17 74.6802 93.78 74.6802 93.78V231.64Z" fill="white"/>
<path fill-rule="evenodd" clip-rule="evenodd" d="M171.964 9.66574C172.242 10.1426 172.081 10.7551 171.605 11.0336L98.8271 53.5401L99.1401 79.6681C99.1434 79.9433 99.0332 80.2076 98.8354 80.3989C98.6376 80.5902 98.3697 80.6915 98.0948 80.6791C92.5386 80.4267 86.9237 83.7341 82.5849 87.2863C80.4389 89.0434 78.6538 90.8198 77.4048 92.158C76.781 92.8264 76.2926 93.3837 75.9616 93.772C75.8494 93.9037 75.7553 94.0159 75.6802 94.1064V229.898L177.23 170.586V12.5701C177.23 12.0178 177.678 11.5701 178.23 11.5701C178.782 11.5701 179.23 12.0178 179.23 12.5701V171.16C179.23 171.516 179.041 171.844 178.735 172.024L75.1845 232.504C74.8752 232.684 74.493 232.686 74.1824 232.507C73.8717 232.329 73.6802 231.998 73.6802 231.64V93.7501C73.6802 93.5247 73.7563 93.3059 73.8962 93.1293L74.6802 93.7501C73.8962 93.1293 73.8964 93.129 73.8967 93.1287L73.8974 93.1278L73.8996 93.125L73.9072 93.1155L73.935 93.0809C73.959 93.051 73.9941 93.0078 74.0398 92.952C74.1312 92.8405 74.2654 92.679 74.4395 92.4747C74.7876 92.0662 75.296 91.4863 75.9427 90.7934C77.2347 89.4091 79.0852 87.5668 81.3179 85.7388C85.4902 82.3229 91.1749 78.8089 97.128 78.6697L96.8202 52.9821C96.8159 52.6223 97.0052 52.288 97.3158 52.1066L170.596 9.30658C171.073 9.02804 171.685 9.18884 171.964 9.66574Z" fill="#231F20"/>
<path fill-rule="evenodd" clip-rule="evenodd" d="M98.3134 52.1002C98.7937 52.3727 98.9622 52.9831 98.6896 53.4634L75.5496 94.2434C75.277 94.7238 74.6667 94.8922 74.1863 94.6196C73.706 94.3471 73.5376 93.7367 73.8101 93.2564L96.9501 52.4764C97.2227 51.996 97.833 51.8276 98.3134 52.1002Z" fill="#231F20"/>
<path fill-rule="evenodd" clip-rule="evenodd" d="M89.5342 202.537C89.8122 203.014 89.6508 203.626 89.1736 203.904L86.7536 205.314C86.2764 205.592 85.6642 205.431 85.3861 204.954C85.1081 204.476 85.2695 203.864 85.7467 203.586L88.1667 202.176C88.6439 201.898 89.2562 202.06 89.5342 202.537Z" fill="#231F20"/>
<path fill-rule="evenodd" clip-rule="evenodd" d="M168.104 156.646C168.382 157.123 168.221 157.735 167.744 158.014L115.844 188.324C115.367 188.602 114.755 188.441 114.476 187.964C114.198 187.487 114.359 186.875 114.836 186.597L166.736 156.287C167.213 156.008 167.825 156.169 168.104 156.646Z" fill="#231F20"/>
<path fill-rule="evenodd" clip-rule="evenodd" d="M89.5342 187.216C89.8122 187.694 89.6508 188.306 89.1736 188.584L86.7536 189.994C86.2764 190.272 85.6642 190.111 85.3861 189.633C85.1081 189.156 85.2695 188.544 85.7467 188.266L88.1667 186.856C88.6439 186.578 89.2562 186.739 89.5342 187.216Z" fill="#231F20"/>
<path fill-rule="evenodd" clip-rule="evenodd" d="M168.104 141.326C168.382 141.803 168.221 142.415 167.744 142.694L115.844 173.004C115.367 173.282 114.755 173.121 114.476 172.645C114.198 172.168 114.359 171.555 114.836 171.277L166.736 140.967C167.213 140.688 167.825 140.849 168.104 141.326Z" fill="#231F20"/>
<path fill-rule="evenodd" clip-rule="evenodd" d="M134.514 145.615C134.792 146.092 134.631 146.705 134.155 146.983L86.7546 174.673C86.2777 174.952 85.6653 174.791 85.3867 174.314C85.1081 173.837 85.2689 173.225 85.7457 172.946L133.146 145.256C133.623 144.978 134.235 145.138 134.514 145.615Z" fill="#231F20"/>
<path fill-rule="evenodd" clip-rule="evenodd" d="M168.104 126.006C168.382 126.483 168.221 127.095 167.744 127.374L153.474 135.704C152.997 135.982 152.385 135.821 152.106 135.344C151.828 134.867 151.989 134.255 152.466 133.976L166.736 125.646C167.213 125.368 167.825 125.529 168.104 126.006Z" fill="#231F20"/>
<path fill-rule="evenodd" clip-rule="evenodd" d="M114.194 142.166C114.472 142.643 114.311 143.255 113.835 143.534L86.7546 159.354C86.2777 159.632 85.6653 159.471 85.3867 158.995C85.1081 158.518 85.2689 157.905 85.7457 157.627L112.826 141.807C113.303 141.528 113.915 141.689 114.194 142.166Z" fill="#231F20"/>
<path fill-rule="evenodd" clip-rule="evenodd" d="M168.104 110.686C168.382 111.163 168.221 111.775 167.744 112.054L152.554 120.924C152.077 121.202 151.465 121.041 151.186 120.564C150.908 120.087 151.069 119.475 151.546 119.197L166.736 110.327C167.213 110.048 167.825 110.209 168.104 110.686Z" fill="#231F20"/>
<path fill-rule="evenodd" clip-rule="evenodd" d="M97.8136 136.416C98.0922 136.893 97.9314 137.505 97.4545 137.784L86.7545 144.034C86.2776 144.312 85.6652 144.151 85.3867 143.674C85.1081 143.198 85.2689 142.585 85.7458 142.307L96.4458 136.057C96.9227 135.778 97.5351 135.939 97.8136 136.416Z" fill="#231F20"/>
<path fill-rule="evenodd" clip-rule="evenodd" d="M168.104 95.3658C168.382 95.8428 168.221 96.4552 167.744 96.7335L156.844 103.094C156.367 103.372 155.755 103.211 155.476 102.734C155.198 102.257 155.359 101.644 155.836 101.366L166.736 95.0061C167.213 94.7277 167.825 94.8888 168.104 95.3658Z" fill="#231F20"/>
<path fill-rule="evenodd" clip-rule="evenodd" d="M109.914 114.026C110.192 114.502 110.031 115.115 109.555 115.393L86.7546 128.713C86.2777 128.992 85.6653 128.831 85.3867 128.354C85.1081 127.878 85.2689 127.265 85.7457 126.986L108.546 113.666C109.023 113.388 109.635 113.549 109.914 114.026Z" fill="#231F20"/>
<path fill-rule="evenodd" clip-rule="evenodd" d="M168.104 80.0463C168.382 80.5234 168.221 81.1357 167.744 81.4139L153.474 89.7339C152.996 90.012 152.384 89.8508 152.106 89.3737C151.828 88.8965 151.989 88.2843 152.466 88.0061L166.736 79.6861C167.213 79.4079 167.826 79.5692 168.104 80.0463Z" fill="#231F20"/>
<path fill-rule="evenodd" clip-rule="evenodd" d="M168.104 64.7155C168.382 65.1924 168.221 65.8048 167.745 66.0834L86.7546 113.393C86.2777 113.672 85.6653 113.511 85.3867 113.034C85.1081 112.557 85.2689 111.945 85.7458 111.666L166.736 64.3564C167.213 64.0778 167.825 64.2386 168.104 64.7155Z" fill="#231F20"/>
<path fill-rule="evenodd" clip-rule="evenodd" d="M168.103 49.3956C168.382 49.8724 168.221 50.4849 167.744 50.7635L132.624 71.2835C132.147 71.5621 131.535 71.4014 131.256 70.9245C130.978 70.4477 131.138 69.8353 131.615 69.5566L166.735 49.0366C167.212 48.758 167.825 48.9187 168.103 49.3956Z" fill="#231F20"/>
<path fill-rule="evenodd" clip-rule="evenodd" d="M168.103 41.7356C168.382 42.2125 168.221 42.8249 167.744 43.1034L132.624 63.6134C132.147 63.892 131.535 63.7311 131.256 63.2542C130.978 62.7773 131.139 62.1649 131.615 61.8864L166.735 41.3764C167.212 41.0979 167.825 41.2587 168.103 41.7356Z" fill="#231F20"/>
<path fill-rule="evenodd" clip-rule="evenodd" d="M168.103 34.0759C168.382 34.5529 168.221 35.1653 167.744 35.4438L132.624 55.9538C132.147 56.2323 131.535 56.0715 131.256 55.5945C130.978 55.1176 131.139 54.5052 131.615 54.2267L166.735 33.7167C167.212 33.4382 167.825 33.599 168.103 34.0759Z" fill="#231F20"/>
<path fill-rule="evenodd" clip-rule="evenodd" d="M91.0735 194.199C91.0465 197.396 92.0786 199.686 93.8463 200.721C95.6141 201.755 98.1162 201.534 100.89 199.945C103.637 198.371 106.455 195.549 108.636 191.823C110.816 188.098 111.897 184.259 111.924 181.093C111.951 177.896 110.919 175.606 109.151 174.572C107.383 173.537 104.881 173.759 102.107 175.348C99.3602 176.921 96.5422 179.743 94.3616 183.469C92.181 187.195 91.1003 191.034 91.0735 194.199ZM89.0737 194.182C89.1039 190.608 90.311 186.431 92.6356 182.459C94.9602 178.487 98.0117 175.389 101.113 173.612C104.187 171.852 107.511 171.294 110.161 172.846C112.812 174.397 113.953 177.568 113.924 181.11C113.893 184.684 112.686 188.862 110.362 192.834C108.037 196.805 104.985 199.904 101.884 201.68C98.8107 203.441 95.4867 203.998 92.8361 202.447C90.1856 200.895 89.0438 197.724 89.0737 194.182Z" fill="#F05023"/>
<path fill-rule="evenodd" clip-rule="evenodd" d="M96.2643 191.223C96.2507 192.889 96.7892 193.939 97.5539 194.386C98.3187 194.834 99.4976 194.789 100.943 193.962C102.361 193.15 103.846 191.673 105.003 189.697C106.159 187.72 106.72 185.703 106.733 184.069C106.747 182.403 106.208 181.354 105.444 180.906C104.679 180.459 103.5 180.503 102.054 181.331C100.636 182.142 99.1518 183.619 97.995 185.595C96.8382 187.572 96.2777 189.589 96.2643 191.223ZM94.2645 191.207C94.2812 189.164 94.9681 186.808 96.269 184.585C97.5698 182.363 99.288 180.61 101.061 179.595C102.806 178.596 104.807 178.216 106.454 179.18C108.101 180.144 108.75 182.074 108.733 184.085C108.716 186.128 108.029 188.484 106.729 190.707C105.428 192.93 103.71 194.682 101.937 195.697C100.191 196.697 98.1907 197.076 96.5437 196.112C94.8968 195.148 94.248 193.218 94.2645 191.207Z" fill="#F05023"/>
<path fill-rule="evenodd" clip-rule="evenodd" d="M142.905 85.3213C143.299 85.466 143.56 85.8407 143.56 86.2598V97.9998C143.56 98.5521 143.112 98.9998 142.56 98.9998C142.008 98.9998 141.56 98.5521 141.56 97.9998V88.9779L134.411 97.3779C134.054 97.7985 133.422 97.8493 133.002 97.4914C132.581 97.1334 132.53 96.5023 132.888 96.0817L141.798 85.6117C142.07 85.2925 142.512 85.1766 142.905 85.3213Z" fill="#231F20"/>
<path fill-rule="evenodd" clip-rule="evenodd" d="M125.048 106.839C125.469 107.197 125.52 107.828 125.162 108.248L104.888 132.067L141.56 137.307V108.26C141.56 107.708 142.008 107.26 142.56 107.26C143.112 107.26 143.56 107.708 143.56 108.26V138.46C143.56 138.75 143.434 139.026 143.215 139.216C142.996 139.406 142.706 139.491 142.419 139.45L102.809 133.79C102.448 133.739 102.144 133.495 102.015 133.154C101.886 132.813 101.953 132.429 102.189 132.152L123.639 106.952C123.997 106.531 124.628 106.481 125.048 106.839Z" fill="#231F20"/>
<path fill-rule="evenodd" clip-rule="evenodd" d="M124.085 94.7045C124.304 94.5146 124.595 94.429 124.882 94.47L150.102 98.07C150.462 98.1215 150.766 98.3651 150.895 98.7058C151.024 99.0466 150.958 99.4305 150.722 99.708L125.502 129.348C125.23 129.667 124.788 129.783 124.395 129.638C124.002 129.494 123.74 129.119 123.74 128.7V95.46C123.74 95.1701 123.866 94.8945 124.085 94.7045ZM125.74 96.6128V125.982L148.023 99.7936L125.74 96.6128Z" fill="#231F20"/>
</g>
<defs>
<clipPath id="clip0_18402_34361">
<rect width="124.13" height="244.09" fill="white" transform="translate(66 6)"/>
</clipPath>
</defs>
</svg>
