<svg width="256" height="256" viewBox="0 0 256 256" fill="none" xmlns="http://www.w3.org/2000/svg">
<path fill-rule="evenodd" clip-rule="evenodd" d="M21.1999 134.52L8.12988 141.07L146 200L247.23 156.17L235.55 150.33L147.55 189.57L21.1999 134.52Z" fill="#BEDCE3"/>
<path fill-rule="evenodd" clip-rule="evenodd" d="M110.85 87.7397L56.3398 111.44L146.5 151.5L203.45 126.29L110.85 87.7397Z" fill="#BEDCE3"/>
<path fill-rule="evenodd" clip-rule="evenodd" d="M94.3723 57.894C94.5853 58.4036 94.3448 58.9893 93.8352 59.2023L13.8896 92.6055V130.555L146.548 188.507L244.28 145.368V108.548L132.034 60.218C131.527 59.9996 131.293 59.4113 131.511 58.9041C131.73 58.3968 132.318 58.1627 132.825 58.3811L245.675 106.971C246.042 107.129 246.28 107.49 246.28 107.89V146.02C246.28 146.416 246.046 146.774 245.683 146.934L146.953 190.514C146.697 190.627 146.406 190.628 146.149 190.516L12.4893 132.126C12.1251 131.967 11.8896 131.607 11.8896 131.21V91.9396C11.8896 91.5362 12.132 91.1724 12.5041 91.0169L93.0641 57.3569C93.5737 57.1439 94.1594 57.3844 94.3723 57.894Z" fill="#231F20"/>
<path fill-rule="evenodd" clip-rule="evenodd" d="M11.9759 91.533C12.2005 91.0284 12.7916 90.8015 13.2962 91.0262L146.551 150.356L244.876 106.975C245.381 106.752 245.971 106.981 246.194 107.486C246.417 107.991 246.188 108.582 245.683 108.805L146.953 152.365C146.695 152.479 146.4 152.478 146.143 152.363L12.4827 92.8532C11.9781 92.6286 11.7512 92.0375 11.9759 91.533Z" fill="#231F20"/>
<path fill-rule="evenodd" clip-rule="evenodd" d="M59.3585 130.096L59.3604 130.1L59.3721 130.131C59.3835 130.16 59.4022 130.207 59.4287 130.271C59.4817 130.398 59.566 130.591 59.6858 130.84C59.9256 131.337 60.3076 132.059 60.8662 132.927C61.9835 134.663 63.8064 136.982 66.6129 139.271C72.2074 143.834 81.7974 148.346 97.7142 147.753C98.2661 147.733 98.7302 148.163 98.7507 148.715C98.7713 149.267 98.3406 149.731 97.7887 149.752C81.4276 150.361 71.3513 145.716 65.3489 140.821C62.3569 138.381 60.3987 135.896 59.1845 134.009C58.5775 133.066 58.1561 132.272 57.884 131.708C57.7479 131.425 57.6491 131.2 57.583 131.041C57.55 130.962 57.5251 130.9 57.5078 130.855C57.4992 130.833 57.4925 130.815 57.4876 130.802L57.4816 130.786L57.4796 130.781L57.4789 130.779C57.4786 130.778 57.4783 130.777 58.4187 130.437L57.4783 130.777C57.2905 130.258 57.5594 129.685 58.0788 129.497C58.5976 129.309 59.1701 129.577 59.3585 130.095" fill="#F05023"/>
</svg>
