<svg width="256" height="256" viewBox="0 0 256 256" fill="none" xmlns="http://www.w3.org/2000/svg">
<path d="M152.36 223.77L170.12 213.53C170.74 213.18 170.74 212.29 170.12 211.93L111.58 178.12C108.75 176.48 105.25 176.47 102.41 178.09L84.4801 188.28C83.8601 188.63 83.8601 189.52 84.4801 189.88L143.14 223.76C145.99 225.41 149.51 225.41 152.36 223.76V223.77Z" fill="#BEDCE3"/>
<path d="M136.9 67.96C135.36 61.81 132.13 53.81 125.42 49.93C122.09 48 119.56 47.78 117.67 48.49L117.61 48.44L117.12 48.73C116.9 48.84 116.68 48.97 116.48 49.11L101.93 57.66L89.7302 37.34C89.0202 36.16 88.0902 35.44 87.2602 35.26L87.2402 35.21L87.1802 35.24C86.4902 35.12 84.7802 36.14 84.7702 36.17L65.6802 47.14L83.8302 101.79L92.5002 102.72C99.5202 117.96 109.5 132.28 121.02 143.24L110.26 149.54C108.25 150.72 108.69 154.94 111.18 157.96C114.52 162.01 118.06 165.79 121.76 169.24L121.72 172.58L146.45 199.99L165.65 189.18C167.86 188.75 168.18 185.21 166.26 181.87L159.79 170.6L176.01 161.28C177.41 160.63 178.74 159.86 180 158.99L180.13 158.92C189.27 152.5 194.84 140.21 194.84 123.17C194.84 114.69 193.45 105.8 190.94 96.92C190.27 94.56 188.14 92.71 186.81 93.39L156.96 108.63C153.99 103.16 152.61 98.19 152.09 93.97L163.83 87.2C163.83 83.1 161.06 70.52 151.11 64.78C148.24 63.12 146 63 144.26 63.76C143.91 63.91 143.58 64.11 143.26 64.33L136.92 67.98L136.9 67.96Z" fill="white"/>
<path d="M166.14 189L146.56 199.76C147.17 198.34 146.89 196.01 145.61 193.78L134.84 175.04L155.58 163.1L166.37 181.82C168.4 185.32 167.94 189.01 165.45 189.2L166.15 189.01L166.14 189Z" fill="#91B1B8"/>
<path d="M119.71 87.1099L98.9304 98.9599L69.0804 49.2499C68.0804 47.5899 66.6304 46.8199 65.6904 47.2199L86.4104 35.3299C87.3404 34.9299 88.8004 35.6799 89.8304 37.3999L119.71 87.1099Z" fill="#BEDCE3"/>
<path d="M154.03 79.7802L132.96 91.6102C132.96 91.6102 127.18 103.77 136.28 120.54L157.48 109.72L156.95 108.7C147.82 91.9202 153.63 79.7402 153.63 79.7402L154.02 79.7802H154.03Z" fill="#91B1B8" stroke="#231F20" stroke-width="2" stroke-linecap="round" stroke-linejoin="round"/>
<path d="M117.61 88.1C117.61 88.1 116.53 68.65 104.77 61.85C100.85 59.59 98.0503 59.67 96.0903 60.85L116.2 49.89L115.96 49.62C117.93 47.88 120.98 47.34 125.52 49.95C137.32 56.77 138.34 76.23 138.34 76.23L117.61 88.1Z" fill="#BEDCE3"/>
<path d="M177.3 160.63L159.79 170.6C168.73 164.13 174.16 151.91 174.16 135.09C174.16 126.61 172.77 117.72 170.26 108.84C169.59 106.48 167.46 104.63 166.13 105.31L188.45 93.5698L188.47 93.5298C189.54 94.0698 190.64 95.3898 191.07 96.8998C193.56 105.75 194.94 114.7 194.94 123.18C194.94 141.95 188.18 154.98 177.31 160.69L177.28 160.64L177.3 160.63Z" fill="#BEDCE3"/>
<path d="M163.81 87.1802L143.16 99.0902C143.16 94.9902 140.39 82.4102 130.44 76.6702C127.29 74.8502 124.9 74.8902 123.09 75.9002L144.24 63.7402L144.26 63.7902C146.01 63.0202 148.26 63.1202 151.15 64.7902C161.11 70.5102 163.88 83.0502 163.88 87.2002L163.81 87.1802Z" fill="white"/>
<path d="M134.84 175.04L145.61 193.78C147.62 197.28 147.18 200.99 144.68 201.14C136.64 201.62 127.42 199.2 117.61 193.54C107.8 187.88 98.5802 179.64 90.5402 169.88C88.0502 166.86 87.6102 162.64 89.6202 161.46L100.38 155.16C79.8102 135.61 64.1502 105.33 61.4802 78.2301C60.2802 66.09 61.6302 55.92 64.9502 48.02C65.6202 46.43 67.7502 47.05 69.0802 49.27L98.9302 98.9801C108.04 92.7201 102.25 73.89 102.25 73.89C96.4602 72.89 92.0502 69.61 92.0502 69.61C92.0502 65.51 94.8202 56.13 104.77 61.87C116.54 68.66 117.61 88.1201 117.61 88.1201C117.61 88.1201 118.95 70.06 130.45 76.7C140.4 82.44 143.17 95.0201 143.17 99.1201C143.17 99.1201 138.76 97.31 132.98 91.63C132.98 91.63 127.2 103.79 136.3 120.56L166.15 105.32C167.48 104.64 169.62 106.49 170.28 108.85C172.79 117.74 174.18 126.63 174.18 135.1C174.18 164.44 157.66 179.75 134.85 175.06L134.84 175.04Z" fill="white"/>
<path d="M143.16 99.0998L163.81 87.1898L163.88 87.2098C163.88 84.7298 162.88 79.2698 159.97 74.0498L139.19 85.8398C142.15 91.1098 143.17 96.6298 143.17 99.0998H143.16Z" fill="#BEDCE3"/>
<path d="M117.67 48.5L96.0903 60.86" stroke="#231F20" stroke-width="2" stroke-linecap="round" stroke-linejoin="round"/>
<path d="M163.81 87.1802L143.16 99.1002" stroke="#231F20" stroke-width="2" stroke-linecap="round" stroke-linejoin="round"/>
<path d="M152.07 93.96L163.81 87.19C163.81 83.09 161.04 70.51 151.09 64.77C148.22 63.11 145.98 62.99 144.24 63.75C143.89 63.9 143.56 64.1 143.24 64.32L136.9 67.97C135.36 61.82 132.13 53.82 125.42 49.94C122.09 48.01 119.56 47.79 117.67 48.5L117.61 48.45L117.12 48.74C116.9 48.85 116.68 48.98 116.48 49.12L101.85 57.53L89.7302 37.35C89.0202 36.17 88.0902 35.45 87.2602 35.27L87.1802 35.25C86.4902 35.13 84.7802 36.15 84.7702 36.18L65.6802 47.15" stroke="#231F20" stroke-width="2" stroke-linecap="round" stroke-linejoin="round"/>
<path d="M145.84 200.73L165.65 189.18C168.01 187.76 168.18 185.21 166.26 181.87L159.79 170.6L176.01 161.28C177.41 160.63 178.74 159.86 180 158.99L180.13 158.92C189.27 152.5 194.84 140.21 194.84 123.17C194.84 114.69 193.45 105.8 190.94 96.9201C190.27 94.5601 189.81 92.8801 188.48 93.5601" stroke="#231F20" stroke-width="2" stroke-linecap="round" stroke-linejoin="round"/>
<path d="M144.67 63.5898L123.09 75.9498" stroke="#231F20" stroke-width="2" stroke-linecap="round" stroke-linejoin="round"/>
<path d="M98.9202 98.9598C108.03 92.6998 102.24 73.8698 102.24 73.8698C96.4502 72.8698 92.0402 69.5898 92.0402 69.5898C92.0402 65.4898 94.8102 56.1098 104.76 61.8498C116.53 68.6398 117.6 88.0998 117.6 88.0998C117.6 88.0998 118.94 70.0398 130.44 76.6798C140.39 82.4198 143.16 94.9998 143.16 99.0998C143.16 99.0998 138.75 97.2898 132.97 91.6098C132.97 91.6098 127.19 103.77 136.29 120.54L166.14 105.3M75.8002 122.55C68.1002 108.3 62.9102 92.7998 61.4702 78.2098C60.2702 66.0698 62.1602 55.2198 65.4802 47.3198M159.78 170.6C153.14 175.4 144.56 177.04 134.84 175.04L145.61 193.78C147.62 197.28 147.18 200.99 144.68 201.14C136.64 201.62 127.42 199.2 117.61 193.54C114.63 191.82 111.7 189.86 108.85 187.7" stroke="#231F20" stroke-width="2" stroke-linecap="round" stroke-linejoin="round"/>
<path d="M188.46 93.5498L166.14 105.29" stroke="#231F20" stroke-width="2" stroke-linecap="round" stroke-linejoin="round"/>
<path d="M179.86 159.09L159.57 170.8" stroke="#231F20" stroke-width="2" stroke-linecap="round" stroke-linejoin="round"/>
<path d="M141.51 34.07L138.69 32.44C134.97 30.54 133.03 30.68 132.18 31.89L112.95 42.96C114.05 42.78 115.69 43.16 118.04 44.36L120.86 45.99C131.69 52.97 127.43 59.74 125.12 62.3L144.88 50.9C145.22 50.83 145.53 50.66 145.77 50.39C148.07 47.83 152.33 41.07 141.51 34.08V34.07Z" fill="white"/>
<path d="M125.12 62.2901L144.88 50.8901C145.22 50.8201 145.53 50.6501 145.77 50.3801C147.48 48.4901 150.25 44.2801 147.18 39.3901L126.74 51.6501C129.47 56.3901 126.78 60.4401 125.12 62.2901Z" fill="#BEDCE3"/>
<path d="M125.12 62.2898C125.12 62.2898 145.53 50.6498 145.77 50.3798C148.07 47.8198 152.33 41.0598 141.51 34.0698L138.69 32.4398C134.97 30.5398 133.82 31.0098 132.18 31.8898L112.34 43.1398" stroke="#231F20" stroke-width="2" stroke-linecap="round" stroke-linejoin="round"/>
<path d="M116.59 59.0698L119.46 60.7298L122.32 62.3798C123.44 63.0198 124.49 62.9998 125.13 62.2898C126.9 60.3198 129.84 55.8498 126.15 50.7198C125.05 49.1898 123.36 47.5898 120.87 45.9898L118.05 44.3598C116.02 43.3298 114.52 42.8998 113.44 42.9098C108.75 42.9898 111.92 51.4998 113.78 55.7398C114.41 57.1798 115.47 58.4298 116.59 59.0698Z" fill="#F2C94C"/>
<path d="M116.59 59.0701L119.46 60.7301L122.32 62.3801C123.44 63.0201 124.49 63.0001 125.13 62.2901C127.43 59.7301 131.69 52.9701 120.87 45.9801L118.05 44.3501C116.02 43.3201 114.52 42.8901 113.44 42.9001C113.27 42.9001 113.11 42.9201 112.96 42.9401C108.98 43.5901 111.98 51.6401 113.78 55.7301C114.41 57.1701 115.47 58.4201 116.59 59.0601V59.0701Z" stroke="#231F20" stroke-width="2" stroke-linecap="round" stroke-linejoin="round"/>
<path d="M123.21 122.62L120.67 121.14V120.48C120.67 119.4 119.99 118.12 119.14 117.63L115.88 115.73C115.21 112.32 113.05 108.84 110.5 107.35C107.95 105.86 105.78 106.82 105.12 109.46L101.86 107.56C101.02 107.07 100.33 107.56 100.33 108.64V109.3L97.7902 107.82C94.7002 106.02 92.2002 107.79 92.2002 111.77V152.39C92.2002 156.37 94.7102 161.06 97.7902 162.85L123.22 177.66C126.31 179.46 128.81 177.69 128.81 173.71V133.09C128.81 129.11 126.3 124.42 123.22 122.63L123.21 122.62Z" fill="#BEDCE3"/>
<path d="M111.21 182.65L85.7804 167.84C82.6904 166.04 80.1904 161.35 80.1904 157.38V116.76C80.1904 112.78 82.7004 111.01 85.7804 112.81L111.21 127.62C114.3 129.42 116.8 134.11 116.8 138.08V178.7C116.8 182.68 114.29 184.45 111.21 182.65Z" fill="#21C68B"/>
<path d="M109.28 143.49L87.7305 130.84" stroke="white" stroke-width="4" stroke-linecap="round" stroke-linejoin="round"/>
<path d="M109.28 152.05L87.7305 139.4" stroke="white" stroke-width="4" stroke-linecap="round" stroke-linejoin="round"/>
<path d="M109.28 160.6L87.7305 147.95" stroke="white" stroke-width="4" stroke-linecap="round" stroke-linejoin="round"/>
<path d="M109.28 169.16L87.7305 156.51" stroke="white" stroke-width="4" stroke-linecap="round" stroke-linejoin="round"/>
<path d="M105.111 131.92L91.8906 124.22C89.9306 123.08 88.3306 120.09 88.3306 117.56V113.63C88.3306 112.55 89.0106 112.06 89.8606 112.55L93.1206 114.45C93.7906 111.82 95.9506 110.86 98.5006 112.34C101.061 113.83 103.221 117.31 103.881 120.72L107.141 122.62C107.981 123.11 108.671 124.39 108.671 125.47V129.4C108.671 131.93 107.071 133.06 105.111 131.91V131.92Z" fill="#403C3D"/>
<path d="M111.21 127.62L108.67 126.14V125.48C108.67 124.4 107.99 123.12 107.14 122.63L103.88 120.73C103.21 117.32 101.05 113.84 98.5002 112.35C95.9502 110.86 93.7802 111.82 93.1202 114.46L89.8602 112.56C89.0202 112.07 88.3302 112.56 88.3302 113.64V114.3L85.7902 112.82C82.7002 111.02 80.2002 112.79 80.2002 116.77V157.39C80.2002 161.37 82.7102 166.06 85.7902 167.85L111.22 182.66C114.31 184.46 116.81 182.69 116.81 178.71V138.09C116.81 134.11 114.3 129.42 111.22 127.63L111.21 127.62Z" stroke="#231F20" stroke-width="2" stroke-linecap="round" stroke-linejoin="round"/>
<path d="M152.36 223.77L170.12 213.53C170.74 213.18 170.74 212.29 170.12 211.93L111.58 178.12C108.75 176.48 105.25 176.47 102.41 178.09L84.4801 188.28C83.8601 188.63 83.8601 189.52 84.4801 189.88L143.14 223.76C145.99 225.41 149.51 225.41 152.36 223.76V223.77Z" fill="#BEDCE3"/>
<path d="M136.9 67.96C135.36 61.81 132.13 53.81 125.42 49.93C122.09 48 119.56 47.78 117.67 48.49L117.61 48.44L117.12 48.73C116.9 48.84 116.68 48.97 116.48 49.11L101.93 57.66L89.7302 37.34C89.0202 36.16 88.0902 35.44 87.2602 35.26L87.2402 35.21L87.1802 35.24C86.4902 35.12 84.7802 36.14 84.7702 36.17L65.6802 47.14L83.8302 101.79L92.5002 102.72C99.5202 117.96 109.5 132.28 121.02 143.24L110.26 149.54C108.25 150.72 108.69 154.94 111.18 157.96C114.52 162.01 118.06 165.79 121.76 169.24L121.72 172.58L146.45 199.99L165.65 189.18C167.86 188.75 168.18 185.21 166.26 181.87L159.79 170.6L176.01 161.28C177.41 160.63 178.74 159.86 180 158.99L180.13 158.92C189.27 152.5 194.84 140.21 194.84 123.17C194.84 114.69 193.45 105.8 190.94 96.92C190.27 94.56 188.14 92.71 186.81 93.39L156.96 108.63C153.99 103.16 152.61 98.19 152.09 93.97L163.83 87.2C163.83 83.1 161.06 70.52 151.11 64.78C148.24 63.12 146 63 144.26 63.76C143.91 63.91 143.58 64.11 143.26 64.33L136.92 67.98L136.9 67.96Z" fill="white"/>
<path d="M166.14 189L146.56 199.76C147.17 198.34 146.89 196.01 145.61 193.78L134.84 175.04L155.58 163.1L166.37 181.82C168.4 185.32 167.94 189.01 165.45 189.2L166.15 189.01L166.14 189Z" fill="#BEDCE3"/>
<path d="M119.71 87.1099L98.9304 98.9599L69.0804 49.2499C68.0804 47.5899 66.6304 46.8199 65.6904 47.2199L86.4104 35.3299C87.3404 34.9299 88.8004 35.6799 89.8304 37.3999L119.71 87.1099Z" fill="#BEDCE3"/>
<path d="M154.03 79.7802L132.96 91.6102C132.96 91.6102 127.18 103.77 136.28 120.54L157.48 109.72L156.95 108.7C147.82 91.9202 153.63 79.7402 153.63 79.7402L154.02 79.7802H154.03Z" fill="#BEDCE3" stroke="#231F20" stroke-width="2" stroke-linecap="round" stroke-linejoin="round"/>
<path d="M117.61 88.1C117.61 88.1 116.53 68.65 104.77 61.85C100.85 59.59 98.0503 59.67 96.0903 60.85L116.2 49.89L115.96 49.62C117.93 47.88 120.98 47.34 125.52 49.95C137.32 56.77 138.34 76.23 138.34 76.23L117.61 88.1Z" fill="#BEDCE3"/>
<path d="M177.3 160.63L159.79 170.6C168.73 164.13 174.16 151.91 174.16 135.09C174.16 126.61 172.77 117.72 170.26 108.84C169.59 106.48 167.46 104.63 166.13 105.31L188.45 93.5698L188.47 93.5298C189.54 94.0698 190.64 95.3898 191.07 96.8998C193.56 105.75 194.94 114.7 194.94 123.18C194.94 141.95 188.18 154.98 177.31 160.69L177.28 160.64L177.3 160.63Z" fill="#BEDCE3"/>
<path d="M163.81 87.1802L143.16 99.0902C143.16 94.9902 140.39 82.4102 130.44 76.6702C127.29 74.8502 124.9 74.8902 123.09 75.9002L144.24 63.7402L144.26 63.7902C146.01 63.0202 148.26 63.1202 151.15 64.7902C161.11 70.5102 163.88 83.0502 163.88 87.2002L163.81 87.1802Z" fill="white"/>
<path d="M134.84 175.04L145.61 193.78C147.62 197.28 147.18 200.99 144.68 201.14C136.64 201.62 127.42 199.2 117.61 193.54C107.8 187.88 98.5802 179.64 90.5402 169.88C88.0502 166.86 87.6102 162.64 89.6202 161.46L100.38 155.16C79.8102 135.61 64.1502 105.33 61.4802 78.2301C60.2802 66.09 61.6302 55.92 64.9502 48.02C65.6202 46.43 67.7502 47.05 69.0802 49.27L98.9302 98.9801C108.04 92.7201 102.25 73.89 102.25 73.89C96.4602 72.89 92.0502 69.61 92.0502 69.61C92.0502 65.51 94.8202 56.13 104.77 61.87C116.54 68.66 117.61 88.1201 117.61 88.1201C117.61 88.1201 118.95 70.06 130.45 76.7C140.4 82.44 143.17 95.0201 143.17 99.1201C143.17 99.1201 138.76 97.31 132.98 91.63C132.98 91.63 127.2 103.79 136.3 120.56L166.15 105.32C167.48 104.64 169.62 106.49 170.28 108.85C172.79 117.74 174.18 126.63 174.18 135.1C174.18 164.44 157.66 179.75 134.85 175.06L134.84 175.04Z" fill="white"/>
<path d="M143.16 99.0998L163.81 87.1898L163.88 87.2098C163.88 84.7298 162.88 79.2698 159.97 74.0498L139.19 85.8398C142.15 91.1098 143.17 96.6298 143.17 99.0998H143.16Z" fill="#BEDCE3"/>
<path d="M117.67 48.5L96.0903 60.86" stroke="#231F20" stroke-width="2" stroke-linecap="round" stroke-linejoin="round"/>
<path d="M163.81 87.1802L143.16 99.1002" stroke="#231F20" stroke-width="2" stroke-linecap="round" stroke-linejoin="round"/>
<path d="M152.07 93.96L163.81 87.19C163.81 83.09 161.04 70.51 151.09 64.77C148.22 63.11 145.98 62.99 144.24 63.75C143.89 63.9 143.56 64.1 143.24 64.32L136.9 67.97C135.36 61.82 132.13 53.82 125.42 49.94C122.09 48.01 119.56 47.79 117.67 48.5L117.61 48.45L117.12 48.74C116.9 48.85 116.68 48.98 116.48 49.12L101.85 57.53L89.7302 37.35C89.0202 36.17 88.0902 35.45 87.2602 35.27L87.1802 35.25C86.4902 35.13 84.7802 36.15 84.7702 36.18L65.6802 47.15" stroke="#231F20" stroke-width="2" stroke-linecap="round" stroke-linejoin="round"/>
<path d="M145.84 200.73L165.65 189.18C168.01 187.76 168.18 185.21 166.26 181.87L159.79 170.6L176.01 161.28C177.41 160.63 178.74 159.86 180 158.99L180.13 158.92C189.27 152.5 194.84 140.21 194.84 123.17C194.84 114.69 193.45 105.8 190.94 96.9201C190.27 94.5601 189.81 92.8801 188.48 93.5601" stroke="#231F20" stroke-width="2" stroke-linecap="round" stroke-linejoin="round"/>
<path d="M144.67 63.5898L123.09 75.9498" stroke="#231F20" stroke-width="2" stroke-linecap="round" stroke-linejoin="round"/>
<path d="M98.9202 98.9598C108.03 92.6998 102.24 73.8698 102.24 73.8698C96.4502 72.8698 92.0402 69.5898 92.0402 69.5898C92.0402 65.4898 94.8102 56.1098 104.76 61.8498C116.53 68.6398 117.6 88.0998 117.6 88.0998C117.6 88.0998 118.94 70.0398 130.44 76.6798C140.39 82.4198 143.16 94.9998 143.16 99.0998C143.16 99.0998 138.75 97.2898 132.97 91.6098C132.97 91.6098 127.19 103.77 136.29 120.54L166.14 105.3M75.8002 122.55C68.1002 108.3 62.9102 92.7998 61.4702 78.2098C60.2702 66.0698 62.1602 55.2198 65.4802 47.3198M159.78 170.6C153.14 175.4 144.56 177.04 134.84 175.04L145.61 193.78C147.62 197.28 147.18 200.99 144.68 201.14C136.64 201.62 127.42 199.2 117.61 193.54C114.63 191.82 111.7 189.86 108.85 187.7" stroke="#231F20" stroke-width="2" stroke-linecap="round" stroke-linejoin="round"/>
<path d="M188.46 93.5498L166.14 105.29" stroke="#231F20" stroke-width="2" stroke-linecap="round" stroke-linejoin="round"/>
<path d="M179.86 159.09L159.57 170.8" stroke="#231F20" stroke-width="2" stroke-linecap="round" stroke-linejoin="round"/>
<path d="M141.51 34.07L138.69 32.44C134.97 30.54 133.03 30.68 132.18 31.89L112.95 42.96C114.05 42.78 115.69 43.16 118.04 44.36L120.86 45.99C131.69 52.97 127.43 59.74 125.12 62.3L144.88 50.9C145.22 50.83 145.53 50.66 145.77 50.39C148.07 47.83 152.33 41.07 141.51 34.08V34.07Z" fill="white"/>
<path d="M125.12 62.2901L144.88 50.8901C145.22 50.8201 145.53 50.6501 145.77 50.3801C147.48 48.4901 150.25 44.2801 147.18 39.3901L126.74 51.6501C129.47 56.3901 126.78 60.4401 125.12 62.2901Z" fill="#BEDCE3"/>
<path d="M125.12 62.2898C125.12 62.2898 145.53 50.6498 145.77 50.3798C148.07 47.8198 152.33 41.0598 141.51 34.0698L138.69 32.4398C134.97 30.5398 133.82 31.0098 132.18 31.8898L112.34 43.1398" stroke="#231F20" stroke-width="2" stroke-linecap="round" stroke-linejoin="round"/>
<path d="M116.59 59.0698L119.46 60.7298L122.32 62.3798C123.44 63.0198 124.49 62.9998 125.13 62.2898C126.9 60.3198 129.84 55.8498 126.15 50.7198C125.05 49.1898 123.36 47.5898 120.87 45.9898L118.05 44.3598C116.02 43.3298 114.52 42.8998 113.44 42.9098C108.75 42.9898 111.92 51.4998 113.78 55.7398C114.41 57.1798 115.47 58.4298 116.59 59.0698Z" fill="#F2C94C"/>
<path d="M116.59 59.0701L119.46 60.7301L122.32 62.3801C123.44 63.0201 124.49 63.0001 125.13 62.2901C127.43 59.7301 131.69 52.9701 120.87 45.9801L118.05 44.3501C116.02 43.3201 114.52 42.8901 113.44 42.9001C113.27 42.9001 113.11 42.9201 112.96 42.9401C108.98 43.5901 111.98 51.6401 113.78 55.7301C114.41 57.1701 115.47 58.4201 116.59 59.0601V59.0701Z" stroke="#231F20" stroke-width="2" stroke-linecap="round" stroke-linejoin="round"/>
<path d="M123.21 122.62L120.67 121.14V120.48C120.67 119.4 119.99 118.12 119.14 117.63L115.88 115.73C115.21 112.32 113.05 108.84 110.5 107.35C107.95 105.86 105.78 106.82 105.12 109.46L101.86 107.56C101.02 107.07 100.33 107.56 100.33 108.64V109.3L97.7902 107.82C94.7002 106.02 92.2002 107.79 92.2002 111.77V152.39C92.2002 156.37 94.7102 161.06 97.7902 162.85L123.22 177.66C126.31 179.46 128.81 177.69 128.81 173.71V133.09C128.81 129.11 126.3 124.42 123.22 122.63L123.21 122.62Z" fill="#BEDCE3"/>
<path d="M111.21 182.65L85.7804 167.84C82.6904 166.04 80.1904 161.35 80.1904 157.38V116.76C80.1904 112.78 82.7004 111.01 85.7804 112.81L111.21 127.62C114.3 129.42 116.8 134.11 116.8 138.08V178.7C116.8 182.68 114.29 184.45 111.21 182.65Z" fill="#21C68B"/>
<path d="M109.28 143.49L87.7305 130.84" stroke="white" stroke-width="4" stroke-linecap="round" stroke-linejoin="round"/>
<path d="M109.28 152.05L87.7305 139.4" stroke="white" stroke-width="4" stroke-linecap="round" stroke-linejoin="round"/>
<path d="M109.28 160.6L87.7305 147.95" stroke="white" stroke-width="4" stroke-linecap="round" stroke-linejoin="round"/>
<path d="M109.28 169.16L87.7305 156.51" stroke="white" stroke-width="4" stroke-linecap="round" stroke-linejoin="round"/>
<path d="M105.111 131.92L91.8906 124.22C89.9306 123.08 88.3306 120.09 88.3306 117.56V113.63C88.3306 112.55 89.0106 112.06 89.8606 112.55L93.1206 114.45C93.7906 111.82 95.9506 110.86 98.5006 112.34C101.061 113.83 103.221 117.31 103.881 120.72L107.141 122.62C107.981 123.11 108.671 124.39 108.671 125.47V129.4C108.671 131.93 107.071 133.06 105.111 131.91V131.92Z" fill="#403C3D"/>
<path d="M111.21 127.62L108.67 126.14V125.48C108.67 124.4 107.99 123.12 107.14 122.63L103.88 120.73C103.21 117.32 101.05 113.84 98.5002 112.35C95.9502 110.86 93.7802 111.82 93.1202 114.46L89.8602 112.56C89.0202 112.07 88.3302 112.56 88.3302 113.64V114.3L85.7902 112.82C82.7002 111.02 80.2002 112.79 80.2002 116.77V157.39C80.2002 161.37 82.7102 166.06 85.7902 167.85L111.22 182.66C114.31 184.46 116.81 182.69 116.81 178.71V138.09C116.81 134.11 114.3 129.42 111.22 127.63L111.21 127.62Z" stroke="#231F20" stroke-width="2" stroke-linecap="round" stroke-linejoin="round"/>
</svg>
