<svg width="256" height="256" viewBox="0 0 256 256" fill="none" xmlns="http://www.w3.org/2000/svg">
<path d="M160.75 225.9L92.8504 186.5C91.1504 185.5 90.1504 183.7 90.1504 181.8L90.3504 85.5998V67.9998L90.4504 45.2998C90.4504 42.7998 93.1504 41.1998 95.3504 42.4998L175.15 88.7998C178.05 90.4998 179.85 93.5998 179.85 96.9998L179.55 210.9C179.65 215 164.35 228 160.75 225.9Z" fill="#BEDCE3"/>
<path d="M161.35 215.4L79.7503 166.7C78.0503 165.7 77.0503 163.9 77.0503 162L77.2503 65.8V48.2V25.5C77.2503 23 79.9503 21.4 82.1503 22.7L165.15 72.2C168.05 73.9 169.85 77 169.85 80.4L169.55 210.8C169.55 214.9 164.95 217.5 161.35 215.4Z" fill="white"/>
<path d="M90.9502 64.7998L142.95 95.0998" stroke="#BEDCE3" stroke-width="4" stroke-miterlimit="10" stroke-linecap="round" stroke-linejoin="round"/>
<path d="M90.9502 76.8994L128.05 98.3994" stroke="#BEDCE3" stroke-width="4" stroke-miterlimit="10" stroke-linecap="round" stroke-linejoin="round"/>
<path d="M103.25 104.899L139.05 125.499" stroke="#BEDCE3" stroke-width="2" stroke-miterlimit="10" stroke-linecap="round" stroke-linejoin="round"/>
<path d="M103.15 111.8L128.95 126.7" stroke="#BEDCE3" stroke-width="2" stroke-miterlimit="10" stroke-linecap="round" stroke-linejoin="round"/>
<path d="M103.15 130.899L128.95 145.899" stroke="#BEDCE3" stroke-width="2" stroke-miterlimit="10" stroke-linecap="round" stroke-linejoin="round"/>
<path d="M97.1503 108.899L91.0503 105.399V98.3994L97.1503 101.899V108.899Z" stroke="#BEDCE3" stroke-width="2" stroke-miterlimit="10" stroke-linecap="round" stroke-linejoin="round"/>
<path d="M103.15 124.399L138.95 144.999" stroke="#BEDCE3" stroke-width="2" stroke-miterlimit="10" stroke-linecap="round" stroke-linejoin="round"/>
<path d="M97.1503 128.4L91.0503 124.8V117.8L97.1503 121.3V128.4Z" stroke="#BEDCE3" stroke-width="2" stroke-miterlimit="10" stroke-linecap="round" stroke-linejoin="round"/>
<path d="M136.55 173.6L151.15 182" stroke="#1D1D1B" stroke-width="2" stroke-miterlimit="10"/>
<path d="M136.25 151.399L158.05 157.799C158.15 157.799 158.35 157.899 158.45 157.999L181.15 177.699C181.35 177.899 181.45 178.099 181.45 178.399L181.35 210.299C181.35 210.299 181.35 210.299 181.35 210.399C181.25 211.399 179.45 231.499 158.45 229.299C158.25 229.299 158.05 229.199 157.85 228.999C136.95 207.799 135.05 185.399 134.95 184.399C134.95 184.399 134.95 184.399 134.95 184.299L135.05 152.299C134.95 151.699 135.55 151.199 136.25 151.399Z" fill="#BEDCE3"/>
<path d="M162.25 214.5L79.6502 166.4C77.9502 165.4 76.9502 163.6 76.9502 161.7L77.1502 65.4996V47.8996L77.2502 25.0996C77.2502 22.5996 79.9502 20.9996 82.1502 22.2996L166.05 71.1996C168.95 72.8996 170.75 75.9996 170.75 79.3996L170.45 209.8C170.55 214 165.95 216.6 162.25 214.5Z" stroke="#1D1E1B" stroke-width="2" stroke-miterlimit="10"/>
<path d="M148.35 68.3998L94.6504 37.2998L94.7504 23.2998L148.35 54.3998V68.3998Z" fill="#EF5023" stroke="#1D1D1B" stroke-width="2" stroke-miterlimit="10" stroke-linecap="round" stroke-linejoin="round"/>
<path d="M100.85 40.8994V47.3994C100.85 48.9994 101.95 50.9994 103.35 51.7994L117.95 60.2994V62.6994C117.95 64.2994 119.05 66.2994 120.45 67.0994L122.15 68.0994C123.55 68.8994 124.75 68.2994 124.75 66.5994V64.1994L139.55 72.7994C140.95 73.5994 142.15 72.9994 142.15 71.2994V64.7994L100.85 40.8994Z" stroke="#1D1D1B" stroke-width="2" stroke-miterlimit="10"/>
<path d="M127.75 174.999V188.999C127.75 188.999 129.25 212.099 150.85 233.899C172.75 236.399 174.15 214.999 174.15 214.999L174.25 182.599L151.05 162.499L127.85 155.699V166.599L127.75 174.999Z" fill="#21C68B" stroke="#1D1E1B" stroke-width="2" stroke-miterlimit="10" stroke-linecap="round" stroke-linejoin="round"/>
<path d="M163.15 198L155.35 193.5L155.45 184.6L146.65 179.5L146.55 188.4L138.85 183.9V194L146.55 198.5V207.4L155.35 212.5V203.6L163.05 208.1L163.15 198Z" fill="white"/>
<path d="M160.75 225.9L92.8504 186.5C91.1504 185.5 90.1504 183.7 90.1504 181.8L90.3504 85.5998V67.9998L90.4504 45.2998C90.4504 42.7998 93.1504 41.1998 95.3504 42.4998L175.15 88.7998C178.05 90.4998 179.85 93.5998 179.85 96.9998L179.55 210.9C179.65 215 164.35 228 160.75 225.9Z" fill="#BEDCE3"/>
<path d="M161.35 215.399L79.7503 166.699C78.0503 165.699 77.0503 163.899 77.0503 161.999L77.2503 65.799V48.199V25.499C77.2503 22.999 79.9503 21.399 82.1503 22.699L165.15 72.199C168.05 73.899 169.85 76.999 169.85 80.399L169.55 210.799C169.55 214.899 164.95 217.499 161.35 215.399Z" fill="white"/>
<path fill-rule="evenodd" clip-rule="evenodd" d="M89.222 63.7922C89.7781 62.8379 91.0026 62.515 91.9569 63.0711L143.957 93.3711C144.911 93.9272 145.234 95.1517 144.678 96.1061C144.122 97.0604 142.897 97.3833 141.943 96.8272L89.9431 66.5272C88.9887 65.9711 88.6659 64.7466 89.222 63.7922Z" fill="#BEDCE3"/>
<path fill-rule="evenodd" clip-rule="evenodd" d="M89.2196 75.8969C89.7734 74.9412 90.9972 74.6155 91.9528 75.1693L129.053 96.6693C130.009 97.2232 130.334 98.4469 129.78 99.4026C129.227 100.358 128.003 100.684 127.047 100.13L89.9472 78.6302C88.9915 78.0763 88.6658 76.8526 89.2196 75.8969Z" fill="#BEDCE3"/>
<path fill-rule="evenodd" clip-rule="evenodd" d="M102.383 104.401C102.659 103.922 103.27 103.757 103.749 104.033L139.549 124.633C140.028 124.908 140.192 125.52 139.917 125.998C139.641 126.477 139.03 126.642 138.551 126.366L102.751 105.766C102.273 105.491 102.108 104.88 102.383 104.401Z" fill="#BEDCE3"/>
<path fill-rule="evenodd" clip-rule="evenodd" d="M102.284 111.299C102.56 110.821 103.172 110.657 103.65 110.933L129.45 125.833C129.928 126.109 130.092 126.721 129.816 127.199C129.54 127.677 128.928 127.841 128.45 127.565L102.65 112.665C102.172 112.389 102.008 111.777 102.284 111.299Z" fill="#BEDCE3"/>
<path fill-rule="evenodd" clip-rule="evenodd" d="M102.286 130.397C102.563 129.92 103.175 129.757 103.653 130.035L129.453 145.035C129.93 145.313 130.092 145.925 129.815 146.402C129.537 146.88 128.925 147.042 128.447 146.764L102.647 131.764C102.17 131.486 102.008 130.874 102.286 130.397Z" fill="#BEDCE3"/>
<path fill-rule="evenodd" clip-rule="evenodd" d="M90.5491 97.5341C90.8579 97.3553 91.2385 97.3545 91.548 97.532L97.648 101.032C97.9587 101.21 98.1503 101.541 98.1503 101.899V108.899C98.1503 109.256 97.9602 109.586 97.6515 109.765C97.3427 109.944 96.9621 109.944 96.6526 109.767L90.5526 106.267C90.2419 106.089 90.0503 105.758 90.0503 105.399V98.3994C90.0503 98.0426 90.2404 97.7129 90.5491 97.5341ZM92.0503 100.126V104.82L96.1503 107.173V102.479L92.0503 100.126Z" fill="#BEDCE3"/>
<path fill-rule="evenodd" clip-rule="evenodd" d="M102.283 123.901C102.559 123.422 103.17 123.257 103.649 123.533L139.449 144.133C139.928 144.408 140.092 145.02 139.817 145.498C139.541 145.977 138.93 146.142 138.451 145.866L102.651 125.266C102.173 124.991 102.008 124.38 102.283 123.901Z" fill="#BEDCE3"/>
<path fill-rule="evenodd" clip-rule="evenodd" d="M90.5491 116.934C90.8579 116.756 91.2385 116.755 91.548 116.932L97.648 120.432C97.9587 120.611 98.1503 120.942 98.1503 121.3V128.4C98.1503 128.759 97.9579 129.09 97.6461 129.268C97.3344 129.446 96.9512 129.443 96.642 129.261L90.542 125.661C90.2373 125.481 90.0503 125.154 90.0503 124.8V117.8C90.0503 117.443 90.2404 117.113 90.5491 116.934ZM92.0503 119.526V124.229L96.1503 126.648V121.879L92.0503 119.526Z" fill="#BEDCE3"/>
<path fill-rule="evenodd" clip-rule="evenodd" d="M150.651 182.866L136.051 174.466L137.049 172.732L151.649 181.132L150.651 182.866Z" fill="#1D1D1B"/>
<path d="M136.25 151.399L158.05 157.799C158.15 157.799 158.35 157.899 158.45 157.999L181.15 177.699C181.35 177.899 181.45 178.099 181.45 178.399L181.35 210.299C181.35 210.299 181.35 210.299 181.35 210.399C181.25 211.399 179.45 231.499 158.45 229.299C158.25 229.299 158.05 229.199 157.85 228.999C136.95 207.799 135.05 185.399 134.95 184.399C134.95 184.399 134.95 184.399 134.95 184.299L135.05 152.299C134.95 151.699 135.55 151.199 136.25 151.399Z" fill="#BEDCE3"/>
<path fill-rule="evenodd" clip-rule="evenodd" d="M81.6415 23.1604C80.1225 22.2629 78.2502 23.3569 78.2502 25.0995V25.1039L78.1502 47.8995V65.4995L78.1502 65.5016L77.9502 161.699C77.9505 163.248 78.7657 164.719 80.1572 165.538L162.744 213.63L162.748 213.632C165.82 215.372 169.531 213.189 169.45 209.823L169.45 209.81L169.75 79.3995V79.3973C169.749 76.3557 168.14 73.5837 165.544 72.0622L81.6466 23.1635L81.6415 23.1604ZM82.6562 21.4369C79.7763 19.7379 76.2519 21.8421 76.2502 25.0972L76.2502 25.0995L76.1502 47.8951L76.1502 47.8995V65.4995L75.9502 161.697L75.9502 161.699C75.9502 163.951 77.135 166.08 79.1432 167.261L161.747 215.364L161.757 215.369C166.079 217.822 171.56 214.814 171.45 209.789L171.75 79.4018V79.3995C171.75 75.642 169.76 72.2149 166.556 70.3368L166.554 70.3355L82.6589 21.4386L82.6562 21.4369Z" fill="#1D1E1B"/>
<path d="M148.35 68.3998L94.6504 37.2998L94.7504 23.2998L148.35 54.3998V68.3998Z" fill="#EF5023"/>
<path fill-rule="evenodd" clip-rule="evenodd" d="M94.2544 22.4315C94.5639 22.2547 94.944 22.256 95.2523 22.4349L148.852 53.5349C149.161 53.7138 149.35 54.0433 149.35 54.3998V68.3998C149.35 68.7573 149.16 69.0876 148.85 69.2662C148.54 69.4447 148.159 69.4443 147.849 69.2652L94.1492 38.1652C93.8383 37.9851 93.6478 37.652 93.6504 37.2927L93.7504 23.2927C93.753 22.9363 93.945 22.6082 94.2544 22.4315ZM95.7381 25.029L95.6545 36.7257L147.35 66.6651V54.9757L95.7381 25.029Z" fill="#1D1D1B"/>
<path fill-rule="evenodd" clip-rule="evenodd" d="M99.8501 39.165L143.15 64.2224V71.2991C143.15 72.3644 142.764 73.3615 141.859 73.8618C140.969 74.3534 139.93 74.1681 139.054 73.6674L139.048 73.6637L125.75 65.9368V66.5991C125.75 67.6644 125.364 68.6615 124.459 69.1618C123.569 69.6534 122.53 69.4681 121.654 68.9673L121.643 68.9611L119.948 67.964C119.053 67.4505 118.315 66.598 117.804 65.6894C117.291 64.7776 116.95 63.7096 116.95 62.6991V60.874L102.85 52.6652C101.954 52.1518 101.215 51.2987 100.704 50.3894C100.191 49.4776 99.8501 48.4096 99.8501 47.3991V39.165ZM101.85 42.6332V47.3991C101.85 47.9886 102.06 48.7206 102.447 49.4088C102.834 50.0983 103.344 50.644 103.846 50.9309L103.853 50.9349L118.95 59.7242V62.6991C118.95 63.2886 119.16 64.0206 119.547 64.7088C119.934 65.3983 120.444 65.944 120.946 66.2309L120.957 66.2371L122.651 67.2337C123.172 67.5295 123.431 67.4447 123.491 67.4114C123.536 67.3867 123.75 67.2338 123.75 66.5991V62.4614L140.046 71.9309C140.047 71.9314 140.048 71.932 140.049 71.9326C140.571 72.2298 140.831 72.1447 140.891 72.1114C140.936 72.0867 141.15 71.9338 141.15 71.2991V65.3758L101.85 42.6332Z" fill="#1D1D1B"/>
<path d="M127.75 174.999V188.999C127.75 188.999 129.25 212.099 150.85 233.899C172.75 236.399 174.15 214.999 174.15 214.999L174.25 182.599L151.05 162.499L127.85 155.699V166.599L127.75 174.999Z" fill="#21C68B"/>
<path fill-rule="evenodd" clip-rule="evenodd" d="M127.251 154.899C127.503 154.71 127.829 154.651 128.131 154.74L151.331 161.54C151.469 161.58 151.596 161.649 151.705 161.743L174.905 181.843C175.125 182.034 175.251 182.311 175.25 182.602L175.15 215.002C175.15 215.023 175.149 215.044 175.148 215.065L174.15 214.999C175.148 215.065 175.148 215.065 175.148 215.066L175.148 215.067L175.147 215.072L175.146 215.088L175.142 215.142C175.138 215.188 175.132 215.254 175.124 215.338C175.107 215.507 175.08 215.748 175.037 216.052C174.953 216.66 174.807 217.518 174.561 218.538C174.072 220.572 173.18 223.275 171.565 225.909C169.947 228.549 167.594 231.134 164.188 232.89C160.776 234.648 156.379 235.537 150.737 234.893C150.51 234.867 150.3 234.765 150.14 234.603C139.221 223.583 133.375 212.227 130.26 203.614C128.702 199.309 127.826 195.688 127.34 193.137C127.096 191.861 126.95 190.851 126.864 190.157C126.821 189.81 126.794 189.541 126.776 189.357C126.768 189.265 126.762 189.194 126.758 189.145L126.754 189.088L126.753 189.072L126.752 189.067L126.752 189.065C126.752 189.065 126.752 189.064 127.75 188.999L126.752 189.064C126.751 189.042 126.75 189.021 126.75 188.999V174.987L126.85 166.593V155.699C126.85 155.384 126.998 155.088 127.251 154.899ZM128.75 188.963L128.752 188.988C128.755 189.027 128.76 189.089 128.768 189.171C128.783 189.336 128.809 189.585 128.849 189.912C128.93 190.566 129.069 191.532 129.304 192.762C129.774 195.223 130.623 198.74 132.14 202.934C135.151 211.256 140.79 222.243 151.312 232.944C156.446 233.474 160.327 232.629 163.272 231.112C166.287 229.558 168.39 227.262 169.86 224.864C171.333 222.461 172.159 219.97 172.617 218.07C172.845 217.122 172.979 216.329 173.057 215.776C173.095 215.499 173.119 215.284 173.134 215.14C173.141 215.068 173.146 215.013 173.149 214.979L173.15 214.96L173.249 183.055L150.56 163.398L128.85 157.034V166.611L128.75 175.005V188.963Z" fill="#1D1E1B"/>
<path d="M163.15 197.999L155.35 193.499L155.45 184.599L146.65 179.499L146.55 188.399L138.85 183.899V193.999L146.55 198.499V207.399L155.35 212.499V203.599L163.05 208.099L163.15 197.999Z" fill="white"/>
</svg>
