<svg width="256" height="256" viewBox="0 0 256 256" fill="none" xmlns="http://www.w3.org/2000/svg">
<g clip-path="url(#clip0_18340_332)">
<path d="M171.72 121.86L241.93 162.84C242.6 163.24 242.82 164.12 242.42 164.79C242.3 164.99 242.13 165.16 241.93 165.28L136.87 225.76C135.37 226.62 133.52 226.62 132.02 225.76L64.5397 186.96C63.5197 186.36 63.1896 185.05 63.7796 184.04C63.9596 183.73 64.2197 183.47 64.5397 183.28L171.72 121.86Z" fill="#BEDCE3"/>
<path d="M242.25 138.52V143.02C242.24 143.77 241.85 144.45 241.2 144.83L137.67 204.67C135.43 205.96 132.67 205.96 130.43 204.67L62.6997 165.71C61.6297 165.09 60.9697 163.95 60.9697 162.71V159.78" fill="white"/>
<path d="M171.35 96.5303L241.56 137.51C242.23 137.91 242.45 138.79 242.05 139.46C241.93 139.66 241.76 139.83 241.56 139.95L136.5 200.43C135 201.29 133.15 201.29 131.65 200.43L60.9697 159.79L171.35 96.5303Z" fill="white"/>
<path d="M15.6498 78.1999L119.98 18.4299C121.52 17.5499 123.48 18.0499 124.41 19.5699L171.37 96.5599L60.9498 159.79L14.4698 82.7299C13.5398 81.1799 14.0298 79.1699 15.5798 78.2399C15.5998 78.2199 15.6198 78.2099 15.6498 78.1999Z" fill="white"/>
<path d="M206.38 130.03L121.46 179.06L84.5996 158.16L169.97 109.01L206.38 130.03Z" fill="white"/>
<path fill-rule="evenodd" clip-rule="evenodd" d="M242.25 137.52C242.802 137.52 243.25 137.968 243.25 138.52V143.02L243.25 143.033C243.235 144.129 242.661 145.134 241.704 145.693L241.7 145.696L138.17 205.536L138.169 205.537C135.62 207.004 132.48 207.004 129.931 205.537C129.931 205.537 129.931 205.537 129.931 205.537L62.2011 166.577L62.1984 166.575C60.8207 165.777 59.9697 164.308 59.9697 162.71V159.78C59.9697 159.228 60.4174 158.78 60.9697 158.78C61.522 158.78 61.9697 159.228 61.9697 159.78V162.71C61.9697 163.592 62.4383 164.402 63.2 164.844C63.2004 164.844 63.2007 164.845 63.2011 164.845L130.928 203.803L130.929 203.803C132.859 204.915 135.238 204.916 137.169 203.804M137.171 203.803L240.695 143.967C240.696 143.966 240.696 143.966 240.697 143.966C241.037 143.766 241.242 143.414 241.25 143.013V138.52C241.25 137.968 241.697 137.52 242.25 137.52" fill="#231F20"/>
<path fill-rule="evenodd" clip-rule="evenodd" d="M172.218 96.043C172.492 96.5222 172.326 97.1332 171.847 97.4078L62.9687 159.802L132.137 199.573C132.137 199.573 132.137 199.573 132.137 199.573C133.329 200.256 134.8 200.256 135.992 199.573C135.992 199.573 135.992 199.573 135.992 199.573L241.035 139.103C241.037 139.102 241.039 139.101 241.041 139.1C241.097 139.064 241.147 139.014 241.182 138.957C241.299 138.76 241.231 138.497 241.04 138.381C241.039 138.38 241.038 138.379 241.037 138.379L236.545 135.754C236.069 135.475 235.908 134.862 236.187 134.386C236.465 133.909 237.078 133.748 237.555 134.027L242.063 136.662C243.209 137.346 243.58 138.841 242.899 139.983L242.897 139.985C242.693 140.325 242.405 140.613 242.064 140.818L242.049 140.827L136.987 201.308C135.179 202.344 132.951 202.344 131.143 201.308L60.4615 160.667C60.151 160.489 59.9597 160.158 59.96 159.799C59.9602 159.441 60.152 159.111 60.4628 158.933L170.853 95.6726C171.332 95.398 171.943 95.5638 172.218 96.043Z" fill="#231F20"/>
<path fill-rule="evenodd" clip-rule="evenodd" d="M170.486 96.0258C170.765 95.5488 171.377 95.3879 171.854 95.6664L231.564 130.526C232.041 130.805 232.202 131.417 231.923 131.894C231.645 132.371 231.033 132.532 230.556 132.254L170.846 97.3935C170.369 97.1151 170.208 96.5027 170.486 96.0258Z" fill="#231F20"/>
<path fill-rule="evenodd" clip-rule="evenodd" d="M123.557 20.092C122.909 19.0332 121.547 18.6865 120.476 19.2983L16.1469 79.0678C16.1349 79.0746 16.1228 79.0812 16.1105 79.0876C16.1051 79.091 16.0997 79.0943 16.0943 79.0976C15.0239 79.7397 14.678 81.1326 15.3268 82.2148C15.327 82.2151 15.3267 82.2146 15.3268 82.2148L61.3012 158.436L169.981 96.2031L123.557 20.092ZM119.484 17.5618C121.493 16.4136 124.051 17.0669 125.263 19.0482L172.223 96.0393C172.364 96.2698 172.406 96.5474 172.338 96.8089C172.271 97.0704 172.101 97.2937 171.867 97.4278L61.4467 160.658C60.9751 160.928 60.3741 160.772 60.0935 160.307L13.6123 83.2446C12.4139 81.2473 13.0232 78.6533 15.0041 77.42C15.0765 77.3667 15.147 77.3281 15.2096 77.2998L119.483 17.5624L119.484 17.5618Z" fill="#231F20"/>
<path fill-rule="evenodd" clip-rule="evenodd" d="M120.273 23.6725C120.743 23.4032 121.342 23.5571 121.623 24.0197L164.273 93.9797C164.414 94.2101 164.455 94.4876 164.388 94.749C164.321 95.0105 164.151 95.2337 163.917 95.3679L63.4568 152.928C62.9852 153.198 62.3842 153.042 62.1034 152.577L19.7834 82.4267C19.6444 82.1963 19.6041 81.9196 19.6717 81.6591C19.7393 81.3986 19.909 81.1763 20.1425 81.0425L120.273 23.6725ZM22.0242 82.2694L63.3108 150.706L162.031 94.1433L120.422 25.8917L22.0242 82.2694Z" fill="#231F20"/>
<path fill-rule="evenodd" clip-rule="evenodd" d="M169.471 108.144C169.78 107.966 170.161 107.966 170.47 108.144L206.88 129.164C207.189 129.343 207.38 129.673 207.38 130.03C207.38 130.387 207.189 130.718 206.88 130.896L121.96 179.926C121.653 180.104 121.275 180.105 120.966 179.93L84.1064 159.03C83.7942 158.853 83.6008 158.522 83.5996 158.164C83.5984 157.805 83.7897 157.473 84.1007 157.294L169.471 108.144ZM86.6153 158.154L121.455 177.908L204.38 130.03L169.969 110.165L86.6153 158.154Z" fill="#231F20"/>
<path fill-rule="evenodd" clip-rule="evenodd" d="M176.337 112.201C176.612 112.679 176.448 113.291 175.969 113.566L91.259 162.346C90.7804 162.622 90.1689 162.458 89.8933 161.979C89.6177 161.5 89.7823 160.889 90.2609 160.613L174.971 111.833C175.45 111.558 176.061 111.722 176.337 112.201Z" fill="#231F20"/>
<path fill-rule="evenodd" clip-rule="evenodd" d="M182.747 115.731C183.022 116.21 182.858 116.821 182.379 117.097L97.569 165.937C97.0904 166.212 96.479 166.048 96.2034 165.569C95.9278 165.091 96.0924 164.479 96.571 164.204L181.381 115.364C181.86 115.088 182.471 115.253 182.747 115.731Z" fill="#231F20"/>
<path fill-rule="evenodd" clip-rule="evenodd" d="M182.747 115.731C183.022 116.21 182.858 116.821 182.379 117.097L97.569 165.937C97.0904 166.212 96.479 166.048 96.2034 165.569C95.9278 165.091 96.0924 164.479 96.571 164.204L181.381 115.364C181.86 115.088 182.471 115.253 182.747 115.731Z" fill="#231F20"/>
<path fill-rule="evenodd" clip-rule="evenodd" d="M188.806 119.411C189.082 119.889 188.917 120.501 188.439 120.776L103.629 169.616C103.15 169.892 102.539 169.727 102.263 169.249C101.987 168.77 102.152 168.159 102.631 167.883L187.441 119.043C187.919 118.768 188.531 118.932 188.806 119.411Z" fill="#231F20"/>
<path fill-rule="evenodd" clip-rule="evenodd" d="M194.876 122.951C195.152 123.43 194.987 124.041 194.509 124.316L110.429 172.727C109.95 173.002 109.339 172.837 109.063 172.359C108.788 171.88 108.952 171.269 109.431 170.993L193.511 122.583C193.99 122.308 194.601 122.472 194.876 122.951Z" fill="#231F20"/>
<path fill-rule="evenodd" clip-rule="evenodd" d="M200.936 126.641C201.212 127.12 201.047 127.731 200.568 128.006L116.648 176.316C116.17 176.592 115.558 176.427 115.283 175.949C115.007 175.47 115.172 174.859 115.651 174.583L199.571 126.273C200.049 125.998 200.661 126.162 200.936 126.641Z" fill="#231F20"/>
<path fill-rule="evenodd" clip-rule="evenodd" d="M163.444 111.91C163.72 111.432 164.331 111.268 164.81 111.544L200.8 132.324C201.278 132.6 201.442 133.212 201.166 133.69C200.89 134.168 200.278 134.332 199.8 134.056L163.81 113.276C163.331 113 163.168 112.388 163.444 111.91Z" fill="#231F20"/>
<path fill-rule="evenodd" clip-rule="evenodd" d="M163.444 111.91C163.72 111.432 164.331 111.268 164.81 111.544L200.8 132.324C201.278 132.6 201.442 133.212 201.166 133.69C200.89 134.168 200.278 134.332 199.8 134.056L163.81 113.276C163.331 113 163.168 112.388 163.444 111.91Z" fill="#231F20"/>
<path fill-rule="evenodd" clip-rule="evenodd" d="M156.944 115.86C157.22 115.382 157.831 115.218 158.31 115.494L194.2 136.214C194.678 136.49 194.842 137.102 194.566 137.58C194.29 138.058 193.678 138.222 193.2 137.946L157.31 117.226C156.831 116.95 156.668 116.338 156.944 115.86Z" fill="#231F20"/>
<path fill-rule="evenodd" clip-rule="evenodd" d="M156.944 115.86C157.22 115.382 157.831 115.218 158.31 115.494L194.2 136.214C194.678 136.49 194.842 137.102 194.566 137.58C194.29 138.058 193.678 138.222 193.2 137.946L157.31 117.226C156.831 116.95 156.668 116.338 156.944 115.86Z" fill="#231F20"/>
<path fill-rule="evenodd" clip-rule="evenodd" d="M150.854 119.02C151.13 118.542 151.741 118.378 152.22 118.654L188.64 139.674C189.118 139.95 189.282 140.562 189.006 141.04C188.73 141.518 188.118 141.682 187.64 141.406L151.22 120.386C150.742 120.11 150.578 119.499 150.854 119.02Z" fill="#231F20"/>
<path fill-rule="evenodd" clip-rule="evenodd" d="M150.854 119.02C151.13 118.542 151.741 118.378 152.22 118.654L188.64 139.674C189.118 139.95 189.282 140.562 189.006 141.04C188.73 141.518 188.118 141.682 187.64 141.406L151.22 120.386C150.742 120.11 150.578 119.499 150.854 119.02Z" fill="#231F20"/>
<path fill-rule="evenodd" clip-rule="evenodd" d="M144.784 122.6C145.06 122.122 145.671 121.958 146.15 122.234L182.52 143.234C182.998 143.51 183.162 144.122 182.886 144.6C182.609 145.079 181.998 145.242 181.52 144.966L145.15 123.966C144.671 123.69 144.507 123.079 144.784 122.6Z" fill="#231F20"/>
<path fill-rule="evenodd" clip-rule="evenodd" d="M144.784 122.6C145.06 122.122 145.671 121.958 146.15 122.234L182.52 143.234C182.998 143.51 183.162 144.122 182.886 144.6C182.609 145.079 181.998 145.242 181.52 144.966L145.15 123.966C144.671 123.69 144.507 123.079 144.784 122.6Z" fill="#231F20"/>
<path fill-rule="evenodd" clip-rule="evenodd" d="M138.694 126.08C138.97 125.602 139.581 125.438 140.06 125.714L170.76 143.434C171.238 143.71 171.402 144.322 171.126 144.8C170.85 145.278 170.238 145.442 169.76 145.166L139.06 127.446C138.582 127.17 138.418 126.559 138.694 126.08Z" fill="#231F20"/>
<path fill-rule="evenodd" clip-rule="evenodd" d="M138.694 126.08C138.97 125.602 139.581 125.438 140.06 125.714L170.76 143.434C171.238 143.71 171.402 144.322 171.126 144.8C170.85 145.278 170.238 145.442 169.76 145.166L139.06 127.446C138.582 127.17 138.418 126.559 138.694 126.08Z" fill="#231F20"/>
<path fill-rule="evenodd" clip-rule="evenodd" d="M132.624 129.53C132.9 129.052 133.512 128.888 133.99 129.164L164.72 146.914C165.198 147.19 165.362 147.802 165.086 148.28C164.81 148.758 164.198 148.922 163.72 148.646L132.99 130.896C132.512 130.62 132.348 130.008 132.624 129.53Z" fill="#231F20"/>
<path fill-rule="evenodd" clip-rule="evenodd" d="M132.624 129.53C132.9 129.052 133.512 128.888 133.99 129.164L164.72 146.914C165.198 147.19 165.362 147.802 165.086 148.28C164.81 148.758 164.198 148.922 163.72 148.646L132.99 130.896C132.512 130.62 132.348 130.008 132.624 129.53Z" fill="#231F20"/>
<path fill-rule="evenodd" clip-rule="evenodd" d="M126.534 133.02C126.81 132.542 127.421 132.378 127.9 132.654L158.6 150.384C159.078 150.66 159.242 151.272 158.966 151.75C158.689 152.229 158.078 152.392 157.599 152.116L126.899 134.386C126.421 134.11 126.257 133.498 126.534 133.02Z" fill="#231F20"/>
<path fill-rule="evenodd" clip-rule="evenodd" d="M126.534 133.02C126.81 132.542 127.421 132.378 127.9 132.654L158.6 150.384C159.078 150.66 159.242 151.272 158.966 151.75C158.689 152.229 158.078 152.392 157.599 152.116L126.899 134.386C126.421 134.11 126.257 133.498 126.534 133.02Z" fill="#231F20"/>
<path fill-rule="evenodd" clip-rule="evenodd" d="M120.464 136.63C120.74 136.152 121.352 135.988 121.83 136.264L152.47 153.964C152.948 154.24 153.112 154.852 152.836 155.33C152.559 155.808 151.948 155.972 151.47 155.696L120.83 137.996C120.351 137.72 120.188 137.108 120.464 136.63Z" fill="#231F20"/>
<path fill-rule="evenodd" clip-rule="evenodd" d="M120.464 136.63C120.74 136.152 121.352 135.988 121.83 136.264L152.47 153.964C152.948 154.24 153.112 154.852 152.836 155.33C152.559 155.808 151.948 155.972 151.47 155.696L120.83 137.996C120.351 137.72 120.188 137.108 120.464 136.63Z" fill="#231F20"/>
<path fill-rule="evenodd" clip-rule="evenodd" d="M114.384 140.04C114.66 139.562 115.271 139.398 115.75 139.674L152.17 160.704C152.648 160.98 152.812 161.592 152.536 162.07C152.26 162.549 151.648 162.712 151.17 162.436L114.75 141.406C114.271 141.13 114.108 140.518 114.384 140.04Z" fill="#231F20"/>
<path fill-rule="evenodd" clip-rule="evenodd" d="M114.384 140.04C114.66 139.562 115.271 139.398 115.75 139.674L152.17 160.704C152.648 160.98 152.812 161.592 152.536 162.07C152.26 162.549 151.648 162.712 151.17 162.436L114.75 141.406C114.271 141.13 114.108 140.518 114.384 140.04Z" fill="#231F20"/>
<path fill-rule="evenodd" clip-rule="evenodd" d="M108.294 143.69C108.57 143.212 109.182 143.048 109.66 143.324L146.08 164.354C146.558 164.63 146.722 165.242 146.446 165.72C146.17 166.198 145.558 166.362 145.08 166.086L108.66 145.056C108.182 144.78 108.018 144.168 108.294 143.69Z" fill="#231F20"/>
<path fill-rule="evenodd" clip-rule="evenodd" d="M108.294 143.69C108.57 143.212 109.182 143.048 109.66 143.324L146.08 164.354C146.558 164.63 146.722 165.242 146.446 165.72C146.17 166.198 145.558 166.362 145.08 166.086L108.66 145.056C108.182 144.78 108.018 144.168 108.294 143.69Z" fill="#231F20"/>
<path fill-rule="evenodd" clip-rule="evenodd" d="M102.223 147.15C102.5 146.672 103.111 146.508 103.589 146.784L140 167.804C140.478 168.08 140.642 168.692 140.366 169.17C140.089 169.648 139.478 169.812 139 169.536L102.59 148.516C102.111 148.24 101.947 147.628 102.223 147.15Z" fill="#231F20"/>
<path fill-rule="evenodd" clip-rule="evenodd" d="M96.1336 150.56C96.4097 150.082 97.0212 149.918 97.4996 150.194L133.92 171.214C134.398 171.49 134.562 172.102 134.286 172.58C134.01 173.058 133.398 173.222 132.92 172.946L96.4998 151.926C96.0215 151.65 95.8575 151.039 96.1336 150.56Z" fill="#231F20"/>
<path fill-rule="evenodd" clip-rule="evenodd" d="M96.1336 150.56C96.4097 150.082 97.0212 149.918 97.4996 150.194L133.92 171.214C134.398 171.49 134.562 172.102 134.286 172.58C134.01 173.058 133.398 173.222 132.92 172.946L96.4998 151.926C96.0215 151.65 95.8575 151.039 96.1336 150.56Z" fill="#231F20"/>
<path fill-rule="evenodd" clip-rule="evenodd" d="M90.4339 154.21C90.7099 153.732 91.3215 153.568 91.7998 153.844L127.84 174.644C128.318 174.92 128.482 175.532 128.206 176.01C127.93 176.488 127.318 176.652 126.84 176.376L90.8001 155.576C90.3218 155.3 90.1578 154.689 90.4339 154.21Z" fill="#231F20"/>
<path fill-rule="evenodd" clip-rule="evenodd" d="M110.799 39.2253C111.072 39.7053 110.905 40.3159 110.425 40.589L32.0646 85.179C31.5846 85.4522 30.974 85.2845 30.7009 84.8045C30.4277 84.3245 30.5954 83.7139 31.0754 83.4408L109.435 38.8508C109.915 38.5776 110.526 38.7453 110.799 39.2253Z" fill="#F05023"/>
<path fill-rule="evenodd" clip-rule="evenodd" d="M118.659 34.7561C118.932 35.2363 118.764 35.8467 118.284 36.1196L114.184 38.4496C113.704 38.7225 113.093 38.5544 112.82 38.0743C112.547 37.5941 112.715 36.9836 113.196 36.7108L117.296 34.3808C117.776 34.1079 118.386 34.2759 118.659 34.7561Z" fill="#F05023"/>
<path fill-rule="evenodd" clip-rule="evenodd" d="M153.909 91.2053C154.182 91.6853 154.015 92.2959 153.535 92.569L67.3146 141.629C66.8345 141.902 66.224 141.734 65.9508 141.254C65.6777 140.774 65.8454 140.164 66.3254 139.891L152.545 90.8307C153.025 90.5576 153.636 90.7253 153.909 91.2053Z" fill="#F05023"/>
<path fill-rule="evenodd" clip-rule="evenodd" d="M117.26 34.4019C117.728 34.1094 118.345 34.252 118.638 34.7205L153.888 91.1705C154.18 91.6389 154.038 92.2558 153.569 92.5483C153.101 92.8409 152.484 92.6982 152.191 92.2298L116.941 35.7798C116.649 35.3113 116.792 34.6944 117.26 34.4019Z" fill="#F05023"/>
<path fill-rule="evenodd" clip-rule="evenodd" d="M31.0403 83.462C31.5088 83.1695 32.1256 83.3121 32.4182 83.7805L67.6682 140.231C67.9607 140.699 67.8181 141.316 67.3496 141.608C66.8812 141.901 66.2643 141.758 65.9717 141.29L30.7217 84.8399C30.4292 84.3714 30.5718 83.7545 31.0403 83.462Z" fill="#F05023"/>
</g>
<defs>
<clipPath id="clip0_18340_332">
<rect width="230.25" height="222.57" fill="white" transform="translate(13 17)"/>
</clipPath>
</defs>
</svg>
