<svg width="256" height="256" viewBox="0 0 256 256" fill="none" xmlns="http://www.w3.org/2000/svg">
<g clip-path="url(#clip0_11857_456)">
<path d="M171.72 121.86L241.93 162.84C242.6 163.24 242.82 164.12 242.42 164.79C242.3 164.99 242.13 165.16 241.93 165.28L136.87 225.76C135.37 226.62 133.52 226.62 132.02 225.76L64.5397 186.96C63.5197 186.36 63.1896 185.05 63.7796 184.04C63.9596 183.73 64.2197 183.47 64.5397 183.28L171.72 121.86Z" fill="#BEDCE3"/>
<path d="M242.25 138.52V143.02C242.24 143.77 241.85 144.45 241.2 144.83L137.67 204.67C135.43 205.96 132.67 205.96 130.43 204.67L62.6997 165.71C61.6297 165.09 60.9697 163.95 60.9697 162.71V159.78" fill="white"/>
<path d="M171.35 96.5303L241.56 137.51C242.23 137.91 242.45 138.79 242.05 139.46C241.93 139.66 241.76 139.83 241.56 139.95L136.5 200.43C135 201.29 133.15 201.29 131.65 200.43L60.9697 159.79L171.35 96.5303Z" fill="white"/>
<path d="M15.6498 78.1999L119.98 18.4299C121.52 17.5499 123.48 18.0499 124.41 19.5699L171.37 96.5599L60.9498 159.79L14.4698 82.7299C13.5398 81.1799 14.0298 79.1699 15.5798 78.2399C15.5998 78.2199 15.6198 78.2099 15.6498 78.1999Z" fill="white"/>
<path d="M206.38 130.03L121.46 179.06L84.5996 158.16L169.97 109.01L206.38 130.03Z" fill="white"/>
<path fill-rule="evenodd" clip-rule="evenodd" d="M242.25 137.52C242.802 137.52 243.25 137.968 243.25 138.52V143.02L243.25 143.033C243.235 144.129 242.661 145.134 241.704 145.693L241.7 145.696L138.17 205.536L138.169 205.537C135.62 207.004 132.48 207.004 129.931 205.537C129.931 205.537 129.931 205.537 129.931 205.537L62.2011 166.577L62.1984 166.575C60.8207 165.777 59.9697 164.308 59.9697 162.71V159.78C59.9697 159.228 60.4174 158.78 60.9697 158.78C61.522 158.78 61.9697 159.228 61.9697 159.78V162.71C61.9697 163.592 62.4383 164.402 63.2 164.844C63.2004 164.844 63.2007 164.845 63.2011 164.845L130.928 203.803L130.929 203.803C132.859 204.915 135.238 204.916 137.169 203.804M137.171 203.803L240.695 143.967C240.696 143.966 240.696 143.966 240.697 143.966C241.037 143.766 241.242 143.414 241.25 143.013V138.52C241.25 137.968 241.697 137.52 242.25 137.52" fill="#231F20"/>
<path fill-rule="evenodd" clip-rule="evenodd" d="M172.218 96.043C172.492 96.5222 172.326 97.1332 171.847 97.4078L62.9687 159.802L132.137 199.573C132.137 199.573 132.137 199.573 132.137 199.573C133.329 200.256 134.8 200.256 135.992 199.573C135.992 199.573 135.992 199.573 135.992 199.573L241.035 139.103C241.037 139.102 241.039 139.101 241.041 139.1C241.097 139.064 241.147 139.014 241.182 138.957C241.299 138.76 241.231 138.497 241.04 138.381C241.039 138.38 241.038 138.379 241.037 138.379L236.545 135.754C236.069 135.475 235.908 134.862 236.187 134.386C236.465 133.909 237.078 133.748 237.555 134.027L242.063 136.662C243.209 137.346 243.58 138.841 242.899 139.983L242.897 139.985C242.693 140.325 242.405 140.613 242.064 140.818L242.049 140.827L136.987 201.308C135.179 202.344 132.951 202.344 131.143 201.308L60.4615 160.667C60.151 160.489 59.9597 160.158 59.96 159.799C59.9602 159.441 60.152 159.111 60.4628 158.933L170.853 95.6726C171.332 95.398 171.943 95.5638 172.218 96.043Z" fill="#231F20"/>
<path fill-rule="evenodd" clip-rule="evenodd" d="M170.486 96.0258C170.765 95.5488 171.377 95.3879 171.854 95.6664L231.564 130.526C232.041 130.805 232.202 131.417 231.923 131.894C231.645 132.371 231.033 132.532 230.556 132.254L170.846 97.3935C170.369 97.1151 170.208 96.5027 170.486 96.0258Z" fill="#231F20"/>
<path fill-rule="evenodd" clip-rule="evenodd" d="M123.557 20.092C122.909 19.0332 121.547 18.6865 120.476 19.2983L16.1469 79.0678C16.1349 79.0746 16.1228 79.0812 16.1105 79.0876C16.1051 79.091 16.0997 79.0943 16.0943 79.0976C15.0239 79.7397 14.678 81.1326 15.3268 82.2148C15.327 82.2151 15.3267 82.2146 15.3268 82.2148L61.3012 158.436L169.981 96.2031L123.557 20.092ZM119.484 17.5618C121.493 16.4136 124.051 17.0669 125.263 19.0482L172.223 96.0393C172.364 96.2698 172.406 96.5474 172.338 96.8089C172.271 97.0704 172.101 97.2937 171.867 97.4278L61.4467 160.658C60.9751 160.928 60.3741 160.772 60.0935 160.307L13.6123 83.2446C12.4139 81.2473 13.0232 78.6533 15.0041 77.42C15.0765 77.3667 15.147 77.3281 15.2096 77.2998L119.483 17.5624L119.484 17.5618Z" fill="#231F20"/>
<path fill-rule="evenodd" clip-rule="evenodd" d="M120.273 23.6725C120.743 23.4032 121.342 23.5571 121.623 24.0197L164.273 93.9797C164.414 94.2101 164.455 94.4876 164.388 94.749C164.321 95.0105 164.151 95.2337 163.917 95.3679L63.4568 152.928C62.9852 153.198 62.3842 153.042 62.1034 152.577L19.7834 82.4267C19.6444 82.1963 19.6041 81.9196 19.6717 81.6591C19.7393 81.3986 19.909 81.1763 20.1425 81.0425L120.273 23.6725ZM22.0242 82.2694L63.3108 150.706L162.031 94.1433L120.422 25.8917L22.0242 82.2694Z" fill="#231F20"/>
<path fill-rule="evenodd" clip-rule="evenodd" d="M169.471 108.144C169.78 107.966 170.161 107.966 170.47 108.144L206.88 129.164C207.189 129.343 207.38 129.673 207.38 130.03C207.38 130.387 207.189 130.718 206.88 130.896L121.96 179.926C121.653 180.104 121.275 180.105 120.966 179.93L84.1064 159.03C83.7942 158.853 83.6008 158.522 83.5996 158.164C83.5984 157.805 83.7897 157.473 84.1007 157.294L169.471 108.144ZM86.6153 158.154L121.455 177.908L204.38 130.03L169.969 110.165L86.6153 158.154Z" fill="#231F20"/>
<path fill-rule="evenodd" clip-rule="evenodd" d="M176.337 112.201C176.612 112.679 176.448 113.291 175.969 113.566L91.259 162.346C90.7804 162.622 90.1689 162.458 89.8933 161.979C89.6177 161.5 89.7823 160.889 90.2609 160.613L174.971 111.833C175.45 111.558 176.061 111.722 176.337 112.201Z" fill="#231F20"/>
<path fill-rule="evenodd" clip-rule="evenodd" d="M182.747 115.731C183.022 116.21 182.858 116.821 182.379 117.097L97.569 165.937C97.0904 166.212 96.479 166.048 96.2034 165.569C95.9278 165.091 96.0924 164.479 96.571 164.204L181.381 115.364C181.86 115.088 182.471 115.253 182.747 115.731Z" fill="#231F20"/>
<path fill-rule="evenodd" clip-rule="evenodd" d="M182.747 115.731C183.022 116.21 182.858 116.821 182.379 117.097L97.569 165.937C97.0904 166.212 96.479 166.048 96.2034 165.569C95.9278 165.091 96.0924 164.479 96.571 164.204L181.381 115.364C181.86 115.088 182.471 115.253 182.747 115.731Z" fill="#231F20"/>
<path fill-rule="evenodd" clip-rule="evenodd" d="M188.806 119.411C189.082 119.889 188.917 120.501 188.439 120.776L103.629 169.616C103.15 169.892 102.539 169.727 102.263 169.249C101.987 168.77 102.152 168.159 102.631 167.883L187.441 119.043C187.919 118.768 188.531 118.932 188.806 119.411Z" fill="#231F20"/>
<path fill-rule="evenodd" clip-rule="evenodd" d="M194.876 122.951C195.152 123.43 194.987 124.041 194.509 124.316L110.429 172.727C109.95 173.002 109.339 172.837 109.063 172.359C108.788 171.88 108.952 171.269 109.431 170.993L193.511 122.583C193.99 122.308 194.601 122.472 194.876 122.951Z" fill="#231F20"/>
<path fill-rule="evenodd" clip-rule="evenodd" d="M200.936 126.641C201.212 127.12 201.047 127.731 200.568 128.006L116.648 176.316C116.17 176.592 115.558 176.427 115.283 175.949C115.007 175.47 115.172 174.859 115.651 174.583L199.571 126.273C200.049 125.998 200.661 126.162 200.936 126.641Z" fill="#231F20"/>
<path fill-rule="evenodd" clip-rule="evenodd" d="M163.444 111.91C163.72 111.432 164.331 111.268 164.81 111.544L200.8 132.324C201.278 132.6 201.442 133.212 201.166 133.69C200.89 134.168 200.278 134.332 199.8 134.056L163.81 113.276C163.331 113 163.168 112.388 163.444 111.91Z" fill="#231F20"/>
<path fill-rule="evenodd" clip-rule="evenodd" d="M163.444 111.91C163.72 111.432 164.331 111.268 164.81 111.544L200.8 132.324C201.278 132.6 201.442 133.212 201.166 133.69C200.89 134.168 200.278 134.332 199.8 134.056L163.81 113.276C163.331 113 163.168 112.388 163.444 111.91Z" fill="#231F20"/>
<path fill-rule="evenodd" clip-rule="evenodd" d="M156.944 115.86C157.22 115.382 157.831 115.218 158.31 115.494L194.2 136.214C194.678 136.49 194.842 137.102 194.566 137.58C194.29 138.058 193.678 138.222 193.2 137.946L157.31 117.226C156.831 116.95 156.668 116.338 156.944 115.86Z" fill="#231F20"/>
<path fill-rule="evenodd" clip-rule="evenodd" d="M156.944 115.86C157.22 115.382 157.831 115.218 158.31 115.494L194.2 136.214C194.678 136.49 194.842 137.102 194.566 137.58C194.29 138.058 193.678 138.222 193.2 137.946L157.31 117.226C156.831 116.95 156.668 116.338 156.944 115.86Z" fill="#231F20"/>
<path fill-rule="evenodd" clip-rule="evenodd" d="M150.854 119.02C151.13 118.542 151.741 118.378 152.22 118.654L188.64 139.674C189.118 139.95 189.282 140.562 189.006 141.04C188.73 141.518 188.118 141.682 187.64 141.406L151.22 120.386C150.742 120.11 150.578 119.499 150.854 119.02Z" fill="#231F20"/>
<path fill-rule="evenodd" clip-rule="evenodd" d="M150.854 119.02C151.13 118.542 151.741 118.378 152.22 118.654L188.64 139.674C189.118 139.95 189.282 140.562 189.006 141.04C188.73 141.518 188.118 141.682 187.64 141.406L151.22 120.386C150.742 120.11 150.578 119.499 150.854 119.02Z" fill="#231F20"/>
<path fill-rule="evenodd" clip-rule="evenodd" d="M144.784 122.6C145.06 122.122 145.671 121.958 146.15 122.234L182.52 143.234C182.998 143.51 183.162 144.122 182.886 144.6C182.609 145.079 181.998 145.242 181.52 144.966L145.15 123.966C144.671 123.69 144.507 123.079 144.784 122.6Z" fill="#231F20"/>
<path fill-rule="evenodd" clip-rule="evenodd" d="M144.784 122.6C145.06 122.122 145.671 121.958 146.15 122.234L182.52 143.234C182.998 143.51 183.162 144.122 182.886 144.6C182.609 145.079 181.998 145.242 181.52 144.966L145.15 123.966C144.671 123.69 144.507 123.079 144.784 122.6Z" fill="#231F20"/>
<path fill-rule="evenodd" clip-rule="evenodd" d="M138.694 126.08C138.97 125.602 139.581 125.438 140.06 125.714L170.76 143.434C171.238 143.71 171.402 144.322 171.126 144.8C170.85 145.278 170.238 145.442 169.76 145.166L139.06 127.446C138.582 127.17 138.418 126.559 138.694 126.08Z" fill="#231F20"/>
<path fill-rule="evenodd" clip-rule="evenodd" d="M138.694 126.08C138.97 125.602 139.581 125.438 140.06 125.714L170.76 143.434C171.238 143.71 171.402 144.322 171.126 144.8C170.85 145.278 170.238 145.442 169.76 145.166L139.06 127.446C138.582 127.17 138.418 126.559 138.694 126.08Z" fill="#231F20"/>
<path fill-rule="evenodd" clip-rule="evenodd" d="M132.624 129.53C132.9 129.052 133.512 128.888 133.99 129.164L164.72 146.914C165.198 147.19 165.362 147.802 165.086 148.28C164.81 148.758 164.198 148.922 163.72 148.646L132.99 130.896C132.512 130.62 132.348 130.008 132.624 129.53Z" fill="#231F20"/>
<path fill-rule="evenodd" clip-rule="evenodd" d="M132.624 129.53C132.9 129.052 133.512 128.888 133.99 129.164L164.72 146.914C165.198 147.19 165.362 147.802 165.086 148.28C164.81 148.758 164.198 148.922 163.72 148.646L132.99 130.896C132.512 130.62 132.348 130.008 132.624 129.53Z" fill="#231F20"/>
<path fill-rule="evenodd" clip-rule="evenodd" d="M126.534 133.02C126.81 132.542 127.421 132.378 127.9 132.654L158.6 150.384C159.078 150.66 159.242 151.272 158.966 151.75C158.689 152.229 158.078 152.392 157.599 152.116L126.899 134.386C126.421 134.11 126.257 133.498 126.534 133.02Z" fill="#231F20"/>
<path fill-rule="evenodd" clip-rule="evenodd" d="M126.534 133.02C126.81 132.542 127.421 132.378 127.9 132.654L158.6 150.384C159.078 150.66 159.242 151.272 158.966 151.75C158.689 152.229 158.078 152.392 157.599 152.116L126.899 134.386C126.421 134.11 126.257 133.498 126.534 133.02Z" fill="#231F20"/>
<path fill-rule="evenodd" clip-rule="evenodd" d="M120.464 136.63C120.74 136.152 121.352 135.988 121.83 136.264L152.47 153.964C152.948 154.24 153.112 154.852 152.836 155.33C152.559 155.808 151.948 155.972 151.47 155.696L120.83 137.996C120.351 137.72 120.188 137.108 120.464 136.63Z" fill="#231F20"/>
<path fill-rule="evenodd" clip-rule="evenodd" d="M120.464 136.63C120.74 136.152 121.352 135.988 121.83 136.264L152.47 153.964C152.948 154.24 153.112 154.852 152.836 155.33C152.559 155.808 151.948 155.972 151.47 155.696L120.83 137.996C120.351 137.72 120.188 137.108 120.464 136.63Z" fill="#231F20"/>
<path fill-rule="evenodd" clip-rule="evenodd" d="M114.384 140.04C114.66 139.562 115.271 139.398 115.75 139.674L152.17 160.704C152.648 160.98 152.812 161.592 152.536 162.07C152.26 162.549 151.648 162.712 151.17 162.436L114.75 141.406C114.271 141.13 114.108 140.518 114.384 140.04Z" fill="#231F20"/>
<path fill-rule="evenodd" clip-rule="evenodd" d="M114.384 140.04C114.66 139.562 115.271 139.398 115.75 139.674L152.17 160.704C152.648 160.98 152.812 161.592 152.536 162.07C152.26 162.549 151.648 162.712 151.17 162.436L114.75 141.406C114.271 141.13 114.108 140.518 114.384 140.04Z" fill="#231F20"/>
<path fill-rule="evenodd" clip-rule="evenodd" d="M108.294 143.69C108.57 143.212 109.182 143.048 109.66 143.324L146.08 164.354C146.558 164.63 146.722 165.242 146.446 165.72C146.17 166.198 145.558 166.362 145.08 166.086L108.66 145.056C108.182 144.78 108.018 144.168 108.294 143.69Z" fill="#231F20"/>
<path fill-rule="evenodd" clip-rule="evenodd" d="M108.294 143.69C108.57 143.212 109.182 143.048 109.66 143.324L146.08 164.354C146.558 164.63 146.722 165.242 146.446 165.72C146.17 166.198 145.558 166.362 145.08 166.086L108.66 145.056C108.182 144.78 108.018 144.168 108.294 143.69Z" fill="#231F20"/>
<path fill-rule="evenodd" clip-rule="evenodd" d="M102.223 147.15C102.5 146.672 103.111 146.508 103.589 146.784L140 167.804C140.478 168.08 140.642 168.692 140.366 169.17C140.089 169.648 139.478 169.812 139 169.536L102.59 148.516C102.111 148.24 101.947 147.628 102.223 147.15Z" fill="#231F20"/>
<path fill-rule="evenodd" clip-rule="evenodd" d="M96.1336 150.56C96.4097 150.082 97.0212 149.918 97.4996 150.194L133.92 171.214C134.398 171.49 134.562 172.102 134.286 172.58C134.01 173.058 133.398 173.222 132.92 172.946L96.4998 151.926C96.0215 151.65 95.8575 151.039 96.1336 150.56Z" fill="#231F20"/>
<path fill-rule="evenodd" clip-rule="evenodd" d="M96.1336 150.56C96.4097 150.082 97.0212 149.918 97.4996 150.194L133.92 171.214C134.398 171.49 134.562 172.102 134.286 172.58C134.01 173.058 133.398 173.222 132.92 172.946L96.4998 151.926C96.0215 151.65 95.8575 151.039 96.1336 150.56Z" fill="#231F20"/>
<path fill-rule="evenodd" clip-rule="evenodd" d="M90.4339 154.21C90.7099 153.732 91.3215 153.568 91.7998 153.844L127.84 174.644C128.318 174.92 128.482 175.532 128.206 176.01C127.93 176.488 127.318 176.652 126.84 176.376L90.8001 155.576C90.3218 155.3 90.1578 154.689 90.4339 154.21Z" fill="#231F20"/>
<path fill-rule="evenodd" clip-rule="evenodd" d="M110.799 39.2253C111.072 39.7053 110.905 40.3159 110.425 40.589L32.0646 85.179C31.5846 85.4522 30.974 85.2845 30.7009 84.8045C30.4277 84.3245 30.5954 83.7139 31.0754 83.4408L109.435 38.8508C109.915 38.5776 110.526 38.7453 110.799 39.2253Z" fill="#231F20"/>
<path fill-rule="evenodd" clip-rule="evenodd" d="M118.659 34.7561C118.932 35.2363 118.764 35.8467 118.284 36.1196L114.184 38.4496C113.704 38.7225 113.093 38.5544 112.82 38.0743C112.547 37.5941 112.715 36.9836 113.196 36.7108L117.296 34.3808C117.776 34.1079 118.386 34.2759 118.659 34.7561Z" fill="#231F20"/>
<path fill-rule="evenodd" clip-rule="evenodd" d="M153.909 91.2053C154.182 91.6853 154.015 92.2959 153.535 92.569L67.3146 141.629C66.8345 141.902 66.224 141.734 65.9508 141.254C65.6777 140.774 65.8454 140.164 66.3254 139.891L152.545 90.8307C153.025 90.5576 153.636 90.7253 153.909 91.2053Z" fill="#231F20"/>
<path fill-rule="evenodd" clip-rule="evenodd" d="M117.26 34.4019C117.728 34.1094 118.345 34.252 118.638 34.7205L153.888 91.1705C154.18 91.6389 154.038 92.2558 153.569 92.5483C153.101 92.8409 152.484 92.6982 152.191 92.2298L116.941 35.7798C116.649 35.3113 116.792 34.6944 117.26 34.4019Z" fill="#231F20"/>
<path fill-rule="evenodd" clip-rule="evenodd" d="M31.0403 83.462C31.5088 83.1695 32.1256 83.3121 32.4182 83.7805L67.6682 140.231C67.9607 140.699 67.8181 141.316 67.3496 141.608C66.8812 141.901 66.2643 141.758 65.9717 141.29L30.7217 84.8399C30.4292 84.3714 30.5718 83.7545 31.0403 83.462Z" fill="#231F20"/>
<path d="M32.0994 228.85L86.1794 197.54C86.9594 197.09 87.9194 197.1 88.6894 197.56L104.029 206.76C104.479 207.01 104.649 207.59 104.389 208.04C104.299 208.19 104.179 208.32 104.029 208.4L51.5894 239.04C50.4194 239.72 48.9694 239.73 47.7894 239.07L32.1094 230.29C31.7094 230.07 31.5694 229.56 31.7894 229.16C31.8694 229.03 31.9694 228.93 32.0994 228.85Z" fill="#BEDCE3"/>
<path d="M88.6095 208.58L100.589 201.65C100.949 201.44 101.169 201.06 101.169 200.65V193.5C101.169 192.96 100.879 192.45 100.409 192.18L85.1895 183.32C84.7195 183.04 84.1295 183.04 83.6595 183.32L71.1895 190.63" fill="white"/>
<path fill-rule="evenodd" clip-rule="evenodd" d="M85.6965 182.458L100.908 191.313C100.909 191.313 100.91 191.314 100.911 191.314C101.694 191.766 102.17 192.609 102.17 193.5V200.65C102.17 201.422 101.755 202.128 101.093 202.514L101.09 202.515L89.1103 209.445C88.6323 209.722 88.0205 209.559 87.744 209.081C87.4675 208.603 87.6308 207.991 88.1089 207.714L100.086 200.786C100.086 200.786 100.086 200.786 100.087 200.786C100.144 200.752 100.17 200.698 100.17 200.65V193.5C100.17 193.312 100.066 193.136 99.9115 193.047L99.9065 193.044L84.6778 184.179C84.5231 184.087 84.3261 184.087 84.1714 184.179L84.1654 184.183L71.6953 191.493C71.2189 191.772 70.6062 191.612 70.3269 191.136C70.0476 190.659 70.2074 190.046 70.6839 189.767L83.1512 182.459C83.9344 181.994 84.9131 181.994 85.6965 182.458Z" fill="#231F20"/>
<path fill-rule="evenodd" clip-rule="evenodd" d="M100.035 194.439C100.312 194.917 100.149 195.529 99.6705 195.806L88.9405 202.016C88.4625 202.292 87.8508 202.129 87.5741 201.651C87.2975 201.173 87.4607 200.561 87.9387 200.285L98.6687 194.075C99.1467 193.798 99.7585 193.961 100.035 194.439Z" fill="#231F20"/>
<path d="M31.6496 220.43C31.6596 220.92 31.9296 221.36 32.3596 221.6L50.6396 232.4C51.1596 232.7 51.8297 232.53 52.1297 232.01C52.2297 231.84 52.2796 231.65 52.2796 231.46V222.98C52.2796 222.33 51.9396 221.73 51.3797 221.41L32.8596 210.63C32.4696 210.41 31.9796 210.54 31.7496 210.93C31.6796 211.05 31.6396 211.19 31.6396 211.34L31.6496 220.43Z" fill="white"/>
<path fill-rule="evenodd" clip-rule="evenodd" d="M30.8883 210.422C31.3947 209.563 32.4859 209.271 33.351 209.759L33.3628 209.765L51.8795 220.544C52.7577 221.047 53.2796 221.983 53.2796 222.98V231.46C53.2796 231.824 53.184 232.188 52.9938 232.513C52.4089 233.522 51.1233 233.833 50.1399 233.266L50.131 233.261L31.8602 222.466C31.1347 222.056 30.6672 221.299 30.6499 220.45L30.6496 220.431L30.6396 211.34C30.6396 211.01 30.7282 210.696 30.8859 210.426L30.8883 210.422ZM32.64 211.659L32.6496 220.416C32.6544 220.54 32.7217 220.657 32.847 220.727C32.8542 220.731 32.8613 220.735 32.8683 220.739L51.1415 231.535C51.1655 231.548 51.1915 231.551 51.2162 231.544C51.2404 231.538 51.2544 231.526 51.2635 231.51L51.2677 231.503C51.276 231.489 51.2796 231.474 51.2796 231.46V222.98C51.2796 222.678 51.1231 222.415 50.8835 222.278L50.8766 222.274L32.64 211.659Z" fill="#231F20"/>
<path d="M51.7699 232.37L87.9299 211.57C88.3499 211.33 88.6199 210.87 88.6099 210.38V201.92C88.6099 201.27 88.2699 200.67 87.7099 200.35L69.6899 189.86C69.1299 189.53 68.4399 189.53 67.8799 189.86L32.1099 210.59" fill="white"/>
<path fill-rule="evenodd" clip-rule="evenodd" d="M70.1943 188.997C70.1953 188.997 70.1963 188.998 70.1972 188.998L88.2057 199.482C88.207 199.482 88.2083 199.483 88.2097 199.484C89.0877 199.988 89.6095 200.923 89.6095 201.92V210.371C89.6227 211.233 89.1518 212.022 88.4272 212.437C88.4267 212.437 88.4262 212.438 88.4257 212.438L52.2682 233.237C51.7894 233.512 51.1781 233.347 50.9027 232.868C50.6273 232.39 50.7922 231.778 51.2709 231.503L87.4309 210.703L87.4334 210.702C87.5447 210.638 87.6121 210.514 87.6097 210.4L87.6095 210.38V201.92C87.6095 201.618 87.4529 201.355 87.2134 201.218L87.2064 201.214L87.2064 201.214L69.1864 190.724L69.1818 190.721C68.9351 190.576 68.6339 190.576 68.3872 190.721L68.381 190.725L32.611 211.455C32.1331 211.732 31.5213 211.569 31.2443 211.091C30.9674 210.613 31.1303 210.002 31.6081 209.725L67.3718 188.998C67.3731 188.998 67.3743 188.997 67.3756 188.996C68.2472 188.484 69.3228 188.484 70.1943 188.997Z" fill="#231F20"/>
<path fill-rule="evenodd" clip-rule="evenodd" d="M87.1165 203.131C87.3919 203.61 87.2271 204.222 86.7483 204.497L55.0383 222.737C54.5596 223.012 53.9483 222.847 53.6729 222.369C53.3975 221.89 53.5624 221.279 54.0411 221.003L85.7511 202.763C86.2298 202.488 86.8412 202.653 87.1165 203.131Z" fill="#231F20"/>
<path d="M83.2495 187.26L86.9695 189.41L83.2495 191.55L79.5195 189.41L83.2495 187.26Z" fill="white"/>
<path fill-rule="evenodd" clip-rule="evenodd" d="M82.7501 186.393C83.0596 186.215 83.4407 186.215 83.7499 186.394L87.4699 188.544C87.7794 188.723 87.9699 189.053 87.9695 189.411C87.9692 189.768 87.778 190.098 87.4682 190.277L83.7482 192.417C83.4398 192.594 83.0605 192.594 82.7519 192.417L79.0219 190.277C78.7115 190.099 78.5199 189.769 78.5195 189.411C78.5192 189.053 78.7101 188.722 79.0201 188.543L82.7501 186.393ZM81.5255 189.408L83.2489 190.396L84.9676 189.408L83.2489 188.414L81.5255 189.408Z" fill="#231F20"/>
<path d="M90.0796 191.28L93.7996 193.43L90.0796 195.58L86.3496 193.43L90.0796 191.28Z" fill="white"/>
<path fill-rule="evenodd" clip-rule="evenodd" d="M89.5802 190.413C89.8897 190.235 90.2708 190.235 90.58 190.414L94.3 192.564C94.6092 192.743 94.7996 193.073 94.7996 193.43C94.7996 193.787 94.6092 194.117 94.3 194.296L90.58 196.446C90.2708 196.624 89.8897 196.625 89.5802 196.446L85.8502 194.296C85.5405 194.118 85.3496 193.787 85.3496 193.43C85.3496 193.072 85.5405 192.742 85.8502 192.563L89.5802 190.413ZM88.3521 193.43L90.0789 194.425L91.8012 193.43L90.0789 192.434L88.3521 193.43Z" fill="#231F20"/>
<path d="M43.0597 209.42L67.1097 195.52C67.5197 195.28 68.0197 195.28 68.4297 195.52L76.4797 200.35C76.7197 200.49 76.7997 200.8 76.6497 201.04C76.6097 201.11 76.5497 201.17 76.4797 201.21L53.2797 214.77C52.6697 215.13 51.9097 215.13 51.2897 214.79L43.0697 210.19C42.8597 210.08 42.7797 209.81 42.8897 209.6C42.9197 209.52 42.9797 209.46 43.0597 209.42Z" fill="white"/>
<path fill-rule="evenodd" clip-rule="evenodd" d="M67.9214 196.381C67.8242 196.326 67.7119 196.326 67.6149 196.383L67.6101 196.386L67.6101 196.386L44.4105 209.794L51.7738 213.915C52.0953 214.09 52.4775 214.082 52.7715 213.909L52.7751 213.906L75.2434 200.774L67.9246 196.383C67.9235 196.382 67.9225 196.382 67.9214 196.381ZM66.6073 194.655C67.3288 194.234 68.2138 194.235 68.9349 194.657L68.9443 194.662L68.9442 194.662L76.9903 199.49C77.7023 199.91 77.9448 200.835 77.5077 201.554C77.3805 201.769 77.1981 201.95 76.9813 202.075C76.9795 202.076 76.9777 202.077 76.9759 202.078L53.788 215.631C53.7874 215.631 53.7869 215.632 53.7863 215.632C52.8616 216.177 51.7262 216.17 50.8089 215.667L50.8014 215.663L50.8014 215.662L42.5901 211.067C41.9056 210.698 41.6611 209.859 41.9776 209.189C42.1104 208.881 42.3406 208.67 42.5776 208.543L66.6046 194.657C66.6055 194.656 66.6064 194.656 66.6073 194.655Z" fill="#231F20"/>
<path fill-rule="evenodd" clip-rule="evenodd" d="M67.6804 200.866C67.8923 201.044 67.9205 201.359 67.7434 201.571L66.6734 202.851C66.6186 202.916 66.5488 202.966 66.4712 202.996C66.091 203.189 65.6107 203.086 65.3512 202.718C65.323 202.678 65.3009 202.635 65.2854 202.588L65.1813 202.276C64.7108 202.61 64.422 203.022 64.1999 203.489C64.0682 203.765 63.961 204.058 63.8519 204.373C63.8329 204.427 63.8137 204.483 63.7943 204.54C63.7068 204.794 63.6144 205.063 63.509 205.323C63.3526 205.777 62.8757 206.044 62.4089 205.938C62.2975 205.912 62.1981 205.85 62.1273 205.76C61.8073 205.355 61.7462 204.932 61.7374 204.58C61.7347 204.474 61.7371 204.353 61.7392 204.249C61.7401 204.199 61.7411 204.153 61.7413 204.114C61.7414 204.103 61.7414 204.092 61.7414 204.081C61.4673 204.474 61.3201 204.936 61.1923 205.471C61.1637 205.591 61.1359 205.717 61.1071 205.847C60.9913 206.369 60.8607 206.958 60.6097 207.497C60.4455 207.91 60.0571 208.192 59.6097 208.21C59.4623 208.216 59.3198 208.156 59.2204 208.047C58.6384 207.409 58.5234 206.734 58.4893 206.136C58.4802 205.976 58.4759 205.83 58.4718 205.693C58.4695 205.614 58.4672 205.539 58.4643 205.466C58.0749 206.213 57.8828 207.032 57.6938 207.92C57.6804 207.983 57.667 208.047 57.6535 208.11C57.4439 209.102 57.216 210.18 56.6521 211.174C56.4787 211.524 56.1751 211.817 55.7833 211.953C55.7778 211.954 55.7723 211.956 55.7668 211.958C55.5895 212.012 55.4099 212.04 55.2197 212.04C54.6888 212.04 54.1988 211.783 53.8954 211.345C53.6468 211.021 53.4685 210.65 53.373 210.245L53.371 210.236L53.3711 210.236C52.9558 208.319 53.2529 206.315 54.2221 204.608C54.4131 204.254 54.7001 203.955 55.0448 203.742C55.1651 203.66 55.2963 203.625 55.3717 203.61C55.3949 203.605 55.4184 203.602 55.442 203.601C55.7488 203.584 56.0474 203.685 56.2786 203.867L56.2913 203.877C56.6513 204.18 56.8613 204.63 56.8402 205.114C56.8793 206.305 56.6777 207.485 56.2455 208.592C56.145 208.849 55.8551 208.976 55.5979 208.876C55.3406 208.775 55.2135 208.485 55.314 208.228C55.6991 207.242 55.8776 206.19 55.84 205.128C55.8395 205.112 55.8397 205.096 55.8406 205.08C55.8505 204.917 55.7841 204.761 55.6551 204.649C55.6241 204.626 55.5885 204.611 55.5533 204.604C55.3588 204.728 55.2022 204.896 55.1005 205.086L55.0945 205.097L55.0944 205.097C54.2467 206.588 53.9846 208.34 54.3474 210.02C54.411 210.287 54.5289 210.53 54.6944 210.743C54.7011 210.752 54.7076 210.761 54.7137 210.77C54.8311 210.943 55.0164 211.04 55.2197 211.04C55.3062 211.04 55.3841 211.028 55.4637 211.005C55.5826 210.961 55.6923 210.863 55.759 210.724C55.7641 210.713 55.7697 210.702 55.7756 210.692C56.2653 209.835 56.4648 208.894 56.6834 207.864C56.6941 207.814 56.7049 207.763 56.7157 207.712C56.9415 206.651 57.2027 205.504 57.8973 204.462C58.0825 204.158 58.4239 203.941 58.8247 203.961C59.0265 203.971 59.2024 204.101 59.2705 204.292C59.4508 204.795 59.465 205.331 59.4764 205.764C59.4794 205.877 59.4822 205.983 59.4877 206.079C59.5082 206.438 59.5581 206.748 59.7188 207.041C59.9085 206.622 60.0069 206.181 60.1176 205.686C60.1497 205.542 60.1829 205.393 60.2196 205.239C60.3799 204.567 60.605 203.83 61.1658 203.198C61.3058 203.04 61.4873 202.98 61.6189 202.958C61.7569 202.934 61.8958 202.943 62.0181 202.968C62.1395 202.993 62.2729 203.042 62.3916 203.123C62.5053 203.201 62.657 203.346 62.7009 203.576L62.7013 203.578C62.7375 203.773 62.7423 203.96 62.7413 204.12C62.7408 204.19 62.7396 204.25 62.7384 204.305C62.7367 204.386 62.7351 204.457 62.7367 204.537C62.7729 204.434 62.8087 204.33 62.8454 204.224C62.8657 204.165 62.8862 204.105 62.9072 204.045C63.0179 203.726 63.14 203.388 63.2971 203.059C63.6157 202.39 64.0811 201.746 64.9085 201.264C65.0604 201.168 65.256 201.117 65.4504 201.145C65.4675 201.147 65.4843 201.151 65.501 201.155C65.72 201.21 65.9491 201.378 66.0284 201.655L66.1257 201.947L66.9761 200.929C67.1532 200.717 67.4685 200.689 67.6804 200.866ZM61.9147 203.861C61.9143 203.861 61.914 203.862 61.9136 203.862L61.9147 203.861Z" fill="#F05023"/>
<path fill-rule="evenodd" clip-rule="evenodd" d="M30.8883 210.422C31.3947 209.563 32.4859 209.271 33.351 209.759L33.3628 209.765L51.8795 220.544C52.7577 221.047 53.2796 221.983 53.2796 222.98V231.46C53.2796 231.824 53.184 232.188 52.9938 232.513C52.4089 233.522 51.1233 233.833 50.1399 233.266L50.131 233.261L31.8602 222.466C31.1347 222.056 30.6672 221.299 30.6499 220.45L30.6496 220.431L30.6396 211.34C30.6396 211.01 30.7282 210.696 30.8859 210.426L30.8883 210.422ZM32.64 211.659L32.6496 220.416C32.6544 220.54 32.7217 220.657 32.847 220.727C32.8542 220.731 32.8613 220.735 32.8683 220.739L51.1415 231.535C51.1655 231.548 51.1915 231.551 51.2162 231.544C51.2404 231.538 51.2544 231.526 51.2635 231.51L51.2677 231.503C51.276 231.489 51.2796 231.474 51.2796 231.46V222.98C51.2796 222.678 51.1231 222.415 50.8835 222.278L50.8766 222.274L32.64 211.659Z" fill="#231F20"/>
<path fill-rule="evenodd" clip-rule="evenodd" d="M36.4555 208.08C36.7317 208.558 36.5679 209.169 36.0897 209.446L32.6097 211.456C32.1314 211.732 31.5198 211.568 31.2436 211.09C30.9674 210.612 31.1311 210 31.6094 209.724L35.0894 207.714C35.5676 207.438 36.1793 207.601 36.4555 208.08Z" fill="#231F20"/>
</g>
<defs>
<clipPath id="clip0_11857_456">
<rect width="230.25" height="222.57" fill="white" transform="translate(13 17)"/>
</clipPath>
</defs>
</svg>
