<svg width="256" height="256" viewBox="0 0 256 256" fill="none" xmlns="http://www.w3.org/2000/svg">
<path d="M94.5699 140.67L19.2099 97.1602C17.7399 96.3202 17.9299 94.8202 19.6199 93.8502L71.1899 64.0802C72.0613 63.5941 73.0345 63.3192 74.0314 63.2775C75.0282 63.2359 76.021 63.4286 76.9299 63.8402L152.28 107.35C153.75 108.19 153.56 109.68 151.87 110.66L100.31 140.43C99.4378 140.914 98.4648 141.188 97.4683 141.229C96.4718 141.271 95.4794 141.079 94.5699 140.67Z" fill="white"/>
<path d="M97.0701 142.09C96.0507 142.112 95.0423 141.875 94.1401 141.4L18.7901 97.8998C18.3775 97.7 18.0272 97.3913 17.777 97.0072C17.5268 96.6231 17.3861 96.178 17.3701 95.7198C17.4185 95.1622 17.6132 94.6272 17.9345 94.1689C18.2558 93.7107 18.6924 93.3453 19.2001 93.1098L70.7601 63.3398C71.7608 62.7801 72.8803 62.4664 74.0262 62.4247C75.172 62.383 76.3113 62.6144 77.3501 63.0998L152.71 106.61C153.119 106.81 153.467 107.118 153.715 107.5C153.963 107.882 154.103 108.324 154.12 108.78C154.074 109.338 153.882 109.874 153.562 110.335C153.243 110.795 152.807 111.162 152.3 111.4L100.73 141.17C99.6083 141.783 98.3485 142.1 97.0701 142.09ZM74.4501 64.0898C73.461 64.0822 72.4854 64.3192 71.6101 64.7798L20.0501 94.5798C19.3301 94.9998 19.0501 95.4398 19.0501 95.7198C19.0501 95.9998 19.4001 96.2998 19.6101 96.4198L95.0001 139.93C95.7803 140.262 96.6257 140.413 97.4727 140.371C98.3196 140.33 99.1462 140.097 99.8901 139.69L151.46 109.92C152.18 109.51 152.46 109.06 152.46 108.78C152.46 108.5 152.11 108.2 151.9 108.08L76.5001 64.5798C75.8672 64.254 75.1615 64.0956 74.4501 64.1198V64.0898Z" fill="#231F20"/>
<path d="M69.1202 86.3898L59.1202 80.6198C58.6602 80.3498 58.7202 79.8898 59.2502 79.6198L67.7602 74.7098C68.0331 74.5565 68.3381 74.4695 68.6507 74.4556C68.9633 74.4417 69.2748 74.5013 69.5602 74.6298L79.5602 80.4098C80.0202 80.6698 79.9602 81.1398 79.4302 81.4098L70.9202 86.3298C70.6458 86.4798 70.34 86.5634 70.0273 86.5738C69.7147 86.5843 69.404 86.5212 69.1202 86.3898Z" fill="#FF6433"/>
<path fill-rule="evenodd" clip-rule="evenodd" d="M41.5501 91.7401C41.6064 91.6336 41.6837 91.5397 41.7774 91.464C41.8711 91.3882 41.9792 91.3323 42.0951 91.2996C42.211 91.2669 42.3324 91.258 42.4519 91.2736C42.5713 91.2891 42.6864 91.3288 42.7901 91.3901L83.0901 115.19C83.2939 115.327 83.4401 115.534 83.501 115.772C83.5619 116.01 83.533 116.262 83.4201 116.48C83.3648 116.588 83.2881 116.683 83.1945 116.759C83.101 116.836 82.9926 116.892 82.8763 116.925C82.7599 116.958 82.6381 116.966 82.5183 116.95C82.3985 116.934 82.2834 116.893 82.1801 116.83L62.0351 104.915L41.8901 93.0001C41.6919 92.8656 41.5486 92.6645 41.4862 92.4332C41.4238 92.202 41.4465 91.9561 41.5501 91.7401Z" fill="#231F20"/>
<path fill-rule="evenodd" clip-rule="evenodd" d="M34.9998 95.4598C35.1355 95.2518 35.3439 95.1017 35.5842 95.0389C35.8245 94.976 36.0796 95.0049 36.2998 95.1198L65.5998 112.57C65.7063 112.63 65.7999 112.711 65.8751 112.807C65.9504 112.904 66.0059 113.014 66.0384 113.132C66.0709 113.25 66.0798 113.373 66.0646 113.495C66.0494 113.616 66.0104 113.733 65.9498 113.84C65.814 114.048 65.6057 114.198 65.3654 114.261C65.1251 114.324 64.87 114.295 64.6498 114.18L35.3798 96.7298C35.2707 96.6721 35.1743 96.5932 35.096 96.4979C35.0177 96.4025 34.9592 96.2926 34.9238 96.1744C34.8884 96.0562 34.8769 95.9321 34.89 95.8094C34.903 95.6867 34.9404 95.5679 34.9998 95.4598Z" fill="#231F20"/>
<path d="M99.1401 219.46L36.4501 183.46C32.5401 181.24 32.5401 177.58 36.4501 175.32L157.25 105.94C159.446 104.845 161.866 104.274 164.32 104.274C166.774 104.274 169.194 104.845 171.39 105.94L234.08 141.94C237.98 144.16 237.98 147.82 234.08 150.08L113.28 219.47C111.086 220.573 108.664 221.146 106.209 221.144C103.753 221.143 101.332 220.566 99.1401 219.46Z" fill="#BEDCE3"/>
<path d="M237.7 122.9C237.7 121.11 236.54 119.45 234.42 118.24L171.74 82.24C169.44 81.0859 166.903 80.4849 164.33 80.4849C161.757 80.4849 159.219 81.0859 156.92 82.24L36.0998 151.61C33.9898 152.83 32.8198 154.49 32.8198 156.28V164.1C32.8198 165.9 33.9898 167.55 36.0998 168.77L98.7898 204.77C101.089 205.919 103.624 206.518 106.195 206.518C108.765 206.518 111.301 205.919 113.6 204.77L234.42 135.41C236.65 134.13 237.86 132.29 237.7 130.41V122.9Z" fill="white"/>
<path d="M106.21 199C103.577 199.047 100.976 198.424 98.6501 197.19L35.9501 161.19C33.7501 159.93 32.5301 158.19 32.5201 156.29C32.5101 154.39 33.7301 152.6 35.9501 151.29L145.19 88.5999C145.304 88.5276 145.431 88.479 145.564 88.4571C145.697 88.4352 145.833 88.4405 145.964 88.4726C146.095 88.5046 146.219 88.5629 146.327 88.6438C146.434 88.7247 146.525 88.8266 146.592 88.9434C146.66 89.0602 146.703 89.1894 146.719 89.3233C146.736 89.4572 146.725 89.5929 146.687 89.7225C146.649 89.852 146.586 89.9726 146.501 90.077C146.415 90.1814 146.31 90.2674 146.19 90.3299L37.0001 153.08C35.4301 153.99 34.5601 155.14 34.5701 156.31C34.5801 157.48 35.4401 158.59 37.0001 159.48L99.6901 195.48C101.731 196.496 103.98 197.025 106.26 197.025C108.54 197.025 110.789 196.496 112.83 195.48L124.92 188.54C125.034 188.468 125.161 188.419 125.294 188.397C125.427 188.375 125.563 188.38 125.694 188.413C125.825 188.445 125.949 188.503 126.057 188.584C126.164 188.665 126.255 188.767 126.322 188.883C126.39 189 126.433 189.129 126.449 189.263C126.466 189.397 126.455 189.533 126.417 189.662C126.379 189.792 126.316 189.913 126.231 190.017C126.145 190.121 126.04 190.207 125.92 190.27L113.82 197.22C111.475 198.447 108.856 199.06 106.21 199Z" fill="#231F20"/>
<path d="M132.44 186.34C132.266 186.339 132.094 186.292 131.944 186.205C131.793 186.117 131.667 185.991 131.58 185.84C131.514 185.726 131.47 185.601 131.452 185.471C131.434 185.34 131.442 185.208 131.476 185.08C131.509 184.953 131.567 184.834 131.647 184.729C131.727 184.624 131.826 184.536 131.94 184.47L233.58 126.11C235.14 125.2 236.01 124.11 236 122.89C235.99 121.67 235.14 120.6 233.58 119.71L170.89 83.71C168.849 82.6937 166.6 82.1648 164.32 82.1648C162.04 82.1648 159.791 82.6937 157.75 83.71L151.7 87.17C151.586 87.2423 151.459 87.2909 151.326 87.3128C151.193 87.3347 151.057 87.3294 150.926 87.2973C150.795 87.2653 150.672 87.207 150.564 87.1261C150.456 87.0452 150.365 86.9433 150.298 86.8265C150.23 86.7097 150.187 86.5805 150.171 86.4466C150.155 86.3128 150.166 86.177 150.203 86.0474C150.241 85.9179 150.304 85.7973 150.39 85.6929C150.475 85.5885 150.581 85.5025 150.7 85.44L156.75 82C159.095 80.8113 161.686 80.1919 164.315 80.1919C166.944 80.1919 169.535 80.8113 171.88 82L234.57 118C236.78 119.26 238 121 238 122.91C238 124.82 236.79 126.59 234.58 127.91L132.94 186.21C132.788 186.296 132.615 186.341 132.44 186.34Z" fill="#231F20"/>
<path d="M106.24 206.84C103.601 206.879 100.996 206.246 98.67 205L36 169C33.77 167.76 32.54 166 32.54 164.07V156.25C32.54 155.985 32.6454 155.73 32.8329 155.543C33.0205 155.355 33.2748 155.25 33.54 155.25C33.8053 155.25 34.0596 155.355 34.2471 155.543C34.4347 155.73 34.54 155.985 34.54 156.25V164.07C34.54 165.25 35.41 166.38 36.99 167.26L99.69 203.26C101.732 204.274 103.98 204.802 106.26 204.802C108.54 204.802 110.788 204.274 112.83 203.26L233.63 133.88C235.27 132.94 236.15 131.7 236.05 130.48V123.09C236.05 122.825 236.155 122.57 236.343 122.383C236.53 122.195 236.785 122.09 237.05 122.09C237.315 122.09 237.57 122.195 237.757 122.383C237.945 122.57 238.05 122.825 238.05 123.09V130.39C238.22 132.33 236.98 134.27 234.63 135.62L113.8 205C111.477 206.244 108.875 206.878 106.24 206.84Z" fill="#231F20"/>
<path d="M107.11 192.93C105.994 192.931 104.894 192.667 103.9 192.16L44.7999 158.22C44.3124 158.019 43.8954 157.678 43.602 157.24C43.3085 156.802 43.1519 156.287 43.1519 155.76C43.1519 155.233 43.3085 154.717 43.602 154.279C43.8954 153.841 44.3124 153.501 44.7999 153.3L160.12 87.05C161.131 86.5448 162.245 86.2817 163.375 86.2817C164.505 86.2817 165.619 86.5448 166.63 87.05L171.33 89.75C171.854 90.0117 172.311 90.3889 172.668 90.8532C173.025 91.3174 173.272 91.8565 173.39 92.43C173.449 92.8979 173.399 93.3732 173.245 93.8189C173.091 94.2646 172.836 94.6687 172.5 95C172.372 95.1135 172.272 95.2542 172.206 95.4117C172.141 95.5692 172.111 95.7395 172.12 95.91C172.203 96.1823 172.343 96.4338 172.531 96.6477C172.719 96.8615 172.95 97.0328 173.21 97.15L204.89 115.34C206.64 116.216 208.663 116.378 210.53 115.79C212.908 115.062 215.475 115.277 217.7 116.39L225.7 121C226.191 121.197 226.613 121.536 226.909 121.975C227.206 122.413 227.365 122.931 227.365 123.46C227.365 123.989 227.206 124.507 226.909 124.945C226.613 125.384 226.191 125.723 225.7 125.92L110.4 192.14C109.379 192.655 108.253 192.925 107.11 192.93ZM163.42 88.26C162.605 88.2587 161.8 88.447 161.07 88.81L45.7999 155C45.3199 155.28 45.1499 155.56 45.1499 155.73C45.1499 155.9 45.3199 156.18 45.7999 156.45L104.8 190.37C105.516 190.725 106.305 190.91 107.105 190.91C107.905 190.91 108.693 190.725 109.41 190.37L224.69 124.15C225.09 123.92 225.34 123.64 225.34 123.42C225.34 123.2 225.09 122.92 224.69 122.69L216.69 118.12C214.933 117.255 212.913 117.09 211.04 117.66C208.66 118.402 206.084 118.187 203.86 117.06L172.21 98.85C171.684 98.5906 171.225 98.2141 170.868 97.7495C170.511 97.2849 170.265 96.7445 170.15 96.17C170.087 95.701 170.135 95.2236 170.292 94.777C170.448 94.3303 170.708 93.927 171.05 93.6C171.177 93.4868 171.275 93.3456 171.338 93.1876C171.4 93.0296 171.425 92.8592 171.41 92.69C171.328 92.4185 171.189 92.1676 171.003 91.9538C170.817 91.74 170.588 91.5683 170.33 91.45L165.68 88.79C164.979 88.4363 164.205 88.2546 163.42 88.26Z" fill="#F05023"/>
<path d="M180.87 98.4302C178.97 98.4302 177.53 97.4302 177.53 96.0802C177.53 94.7302 178.97 93.7402 180.87 93.7402C182.77 93.7402 184.21 94.7402 184.21 96.0802C184.21 97.4202 182.78 98.4302 180.87 98.4302ZM179.59 96.0802C179.979 96.3098 180.423 96.4309 180.875 96.4309C181.327 96.4309 181.77 96.3098 182.16 96.0802C181.768 95.8576 181.325 95.7405 180.875 95.7405C180.424 95.7405 179.981 95.8576 179.59 96.0802Z" fill="#231F20"/>
<path d="M201.78 109.09C201.605 109.091 201.432 109.047 201.28 108.96L188.49 101.61C188.371 101.548 188.265 101.462 188.18 101.357C188.094 101.253 188.031 101.132 187.993 101.003C187.956 100.873 187.945 100.737 187.961 100.604C187.977 100.47 188.02 100.34 188.088 100.224C188.155 100.107 188.246 100.005 188.354 99.9241C188.462 99.8432 188.585 99.7849 188.716 99.7528C188.847 99.7207 188.983 99.7155 189.116 99.7374C189.249 99.7593 189.376 99.8078 189.49 99.8802L202.28 107.23C202.509 107.362 202.676 107.579 202.745 107.834C202.815 108.089 202.78 108.361 202.65 108.59C202.562 108.743 202.435 108.869 202.282 108.957C202.13 109.045 201.956 109.091 201.78 109.09Z" fill="#231F20"/>
<path d="M169.12 108C168.983 107.876 168.804 107.808 168.62 107.81H168.53C168.263 107.825 167.996 107.825 167.73 107.81C165.897 107.735 164.115 107.183 162.56 106.21C155.91 102.38 150.51 93.02 150.51 85.35C150.391 83.1655 151.023 81.0061 152.3 79.23C152.418 79.0868 152.478 78.9051 152.47 78.72L153.76 77.96C154.636 77.4689 155.626 77.2171 156.63 77.23C158.466 77.3052 160.251 77.8566 161.81 78.83C168.45 82.66 173.81 92.02 173.81 99.69C173.81 103.18 172.69 105.79 170.64 107.02H170.57L169.12 108Z" fill="white"/>
<path d="M156.63 78C158.331 78.08 159.983 78.5928 161.43 79.49C167.87 83.21 173.1 92.28 173.1 99.71C173.1 102.93 172.1 105.31 170.3 106.4L170.23 106.45L169.13 107.09C168.977 107.033 168.814 107.006 168.65 107.01H168.47C168.234 107.025 167.997 107.025 167.76 107.01C166.059 106.93 164.407 106.417 162.96 105.52C156.53 101.8 151.29 92.73 151.29 85.3C151.173 83.2874 151.745 81.2949 152.91 79.65C153.036 79.5018 153.129 79.3277 153.18 79.14L154.18 78.56C154.939 78.1314 155.799 77.9139 156.67 77.93L156.63 78ZM156.67 76.43C155.533 76.4185 154.413 76.7047 153.42 77.26L151 78.69L151.68 78.75C150.273 80.6541 149.567 82.9854 149.68 85.35C149.68 93.27 155.24 102.9 162.1 106.86C163.769 107.904 165.683 108.49 167.65 108.56C167.947 108.575 168.244 108.575 168.54 108.56L168.49 109.19L170.87 107.79H170.97C173.16 106.46 174.5 103.71 174.5 99.79C174.5 91.87 168.94 82.24 162.08 78.28C160.412 77.2346 158.498 76.6482 156.53 76.58L156.67 76.43Z" fill="#FF6433"/>
<path d="M168.6 109.13C173.449 106.33 173.448 97.2473 168.596 88.8437C163.744 80.4401 155.879 75.8975 151.03 78.6976C146.18 81.4977 146.181 90.58 151.033 98.9837C155.885 107.387 163.75 111.93 168.6 109.13Z" fill="#FF6433"/>
<path d="M136.23 74.17H135.68L133.68 73.99C133.659 73.8806 133.614 73.7771 133.549 73.6872C133.483 73.5972 133.398 73.523 133.3 73.47C131.221 72.1908 129.614 70.2712 128.72 68C125.09 60 126.27 47.78 131.35 40.66C132.695 38.5416 134.724 36.9467 137.1 36.14C137.197 36.1116 137.288 36.0643 137.367 36.0009C137.446 35.9374 137.512 35.8589 137.56 35.77L139.32 35.93C142.11 36.19 144.58 38.38 146.32 42.09C149.95 50.09 148.77 62.31 143.7 69.43C141.51 72.49 138.88 74.18 136.28 74.18L136.23 74.17Z" fill="white"/>
<path d="M137.88 36.5399L139.25 36.6699C141.76 36.8999 144.01 38.9399 145.59 42.3899C149.12 50.1299 148 62.0599 143 68.9999C141 71.8599 138.55 73.4299 136.2 73.4299H135.68L134.15 73.2899C134.008 73.0776 133.82 72.8999 133.6 72.7699C131.687 71.5802 130.207 69.806 129.38 67.7099C125.88 59.9399 127 47.9999 132 41.0799C133.247 39.1028 135.13 37.6105 137.34 36.8499C137.553 36.787 137.75 36.6815 137.92 36.5399H137.88ZM136.35 34.8899L136.94 35.3999C134.398 36.2526 132.224 37.9501 130.78 40.2099C125.56 47.5399 124.35 60.1099 128.08 68.2999C129.036 70.6972 130.745 72.7187 132.95 74.0599L132.49 74.6099L135.61 74.8899H135.77C135.937 74.8997 136.104 74.8997 136.27 74.8899C139.02 74.8899 141.87 73.2199 144.27 69.8299C149.49 62.4999 150.7 49.9299 146.97 41.7399C145.1 37.6399 142.34 35.4199 139.4 35.1399L136.32 34.8599L136.35 34.8899Z" fill="#FF6433"/>
<path d="M145.853 55.8565C146.907 44.889 142.628 35.5046 136.295 34.8959C129.962 34.2872 123.973 42.6847 122.919 53.6523C121.865 64.6198 126.144 74.0042 132.477 74.6129C138.811 75.2216 144.799 66.8241 145.853 55.8565Z" fill="#FF6433"/>
<mask id="mask0_30795_40180" style="mask-type:alpha" maskUnits="userSpaceOnUse" x="113" y="105" width="84" height="48">
<path d="M113 115.417L175 152.5L197 140.417L135.721 105L113 115.417Z" fill="white"/>
</mask>
<g mask="url(#mask0_30795_40180)">
<path d="M155.75 150.002C155.609 149.869 155.423 149.795 155.23 149.792H155.13C154.828 149.832 154.524 149.852 154.22 149.852C152.119 149.761 150.077 149.131 148.29 148.022C140.72 143.652 134.55 133.022 134.55 124.232C134.42 121.732 135.147 119.263 136.61 117.232C136.674 117.152 136.721 117.061 136.749 116.963C136.776 116.865 136.783 116.762 136.77 116.662L138.3 115.772C139.308 115.199 140.451 114.906 141.61 114.922C143.712 115.007 145.755 115.638 147.54 116.752C155.11 121.122 161.27 131.752 161.27 140.532C161.27 144.532 159.98 147.532 157.62 148.952L157.53 149.012L155.78 150.012L155.75 150.002Z" fill="white"/>
<path d="M141.61 115.711C143.578 115.799 145.49 116.395 147.16 117.441C154.53 121.691 160.52 132.071 160.52 140.571C160.52 144.301 159.35 147.061 157.23 148.351L157.16 148.401L155.83 149.181C155.654 149.103 155.463 149.062 155.27 149.061H155.08C154.804 149.094 154.527 149.11 154.25 149.111C152.282 149.021 150.371 148.425 148.7 147.381C141.34 143.131 135.34 132.751 135.34 124.241C135.21 121.91 135.876 119.604 137.23 117.701C137.369 117.527 137.471 117.326 137.53 117.111L138.72 116.421C139.611 115.911 140.623 115.652 141.65 115.671L141.61 115.711ZM141.65 114.171C140.353 114.172 139.08 114.517 137.96 115.171L135.3 116.731L136.07 116.801C134.486 118.967 133.699 121.612 133.84 124.291C133.84 133.291 140.16 144.231 147.95 148.731C149.846 149.913 152.018 150.578 154.25 150.661C154.584 150.663 154.919 150.639 155.25 150.591L155.19 151.311L157.89 149.731L158 149.661C160.48 148.161 162 145.031 162 140.601C162 131.601 155.69 120.671 147.89 116.171C145.995 114.987 143.823 114.322 141.59 114.241L141.65 114.171Z" fill="#FF6433"/>
<path d="M155.194 151.295C160.704 148.114 160.705 137.8 155.196 128.258C149.687 118.716 140.754 113.559 135.244 116.74C129.734 119.922 129.734 130.236 135.243 139.778C140.752 149.32 149.684 154.476 155.194 151.295Z" fill="#FF6433"/>
</g>
<path d="M76.6999 153.74L102.7 138.6C103.183 138.32 103.732 138.172 104.29 138.172C104.848 138.172 105.397 138.32 105.88 138.6L132.2 153.8C132.403 153.918 132.572 154.087 132.69 154.29C132.807 154.494 132.869 154.725 132.869 154.96C132.869 155.195 132.807 155.426 132.69 155.63C132.572 155.833 132.403 156.002 132.2 156.12L106.5 171.05C105.883 171.406 105.183 171.594 104.47 171.594C103.757 171.594 103.057 171.406 102.44 171.05L76.6999 156.17C76.4884 156.045 76.3131 155.868 76.1913 155.655C76.0694 155.442 76.0054 155.2 76.0054 154.955C76.0054 154.71 76.0694 154.468 76.1913 154.255C76.3131 154.042 76.4884 153.865 76.6999 153.74Z" fill="#D5EBEF"/>
<path d="M133.17 154.33L105.41 138.33C105.076 138.157 104.706 138.067 104.33 138.067C103.954 138.067 103.584 138.157 103.25 138.33L75.6799 154.33C75.5493 154.374 75.4358 154.458 75.3555 154.57C75.2751 154.682 75.2319 154.817 75.2319 154.955C75.2319 155.093 75.2751 155.227 75.3555 155.339C75.4358 155.451 75.5493 155.535 75.6799 155.58L103.43 171.58C103.765 171.748 104.135 171.835 104.51 171.835C104.885 171.835 105.255 171.748 105.59 171.58L133.16 155.58C133.29 155.535 133.404 155.451 133.484 155.339C133.565 155.227 133.608 155.093 133.608 154.955C133.608 154.817 133.565 154.682 133.484 154.57C133.404 154.458 133.29 154.374 133.16 154.33" fill="#D5EBEF"/>
</svg>
