<svg width="256" height="256" viewBox="0 0 256 256" fill="none" xmlns="http://www.w3.org/2000/svg">
<path d="M96.1757 188.8L224.678 136.4L132.317 94.5L3.81494 146.9L96.1757 188.8Z" fill="#BEDCE3"/>
<path d="M122.98 170.1L251.482 117.7L159.122 75.8003L30.6196 128.2L122.98 170.1Z" fill="white"/>
<path d="M122.88 171.7L26.8047 128.1L159.122 74.2002L255.197 117.8L122.88 171.7ZM34.4345 128.3L122.98 168.5L247.667 117.7L159.122 77.5002L34.4345 128.3Z" fill="#231F20"/>
<path d="M92.3608 175.3C92.3608 175.3 170.767 145.8 194.058 130.8C200.584 126.6 217.048 110.2 217.048 110.2L124.687 68.8999C124.687 68.8999 109.427 84.8999 103.304 88.8999C79.7114 104.2 0 133.9 0 133.9L92.3608 175.3Z" fill="white"/>
<path d="M92.2602 176.9L23.2907 146C22.4876 145.7 22.1864 144.8 22.4876 144C22.7888 143.2 23.6923 142.9 24.4955 143.2L92.3605 173.6C99.5888 170.9 171.369 143.6 193.255 129.5C198.375 126.2 210.221 114.8 214.437 110.6L125.088 70.5999C121.876 73.8999 109.628 86.3999 104.106 89.9999C90.2523 99.0999 57.3237 113 32.1253 123.1C31.3221 123.4 30.519 123 30.1174 122.3C29.8162 121.5 30.2178 120.7 30.9205 120.3C56.0186 110.3 88.7464 96.4999 102.4 87.4999C108.323 83.5999 123.382 67.8999 123.582 67.6999L124.285 66.8999L219.557 109.5L218.052 111C217.349 111.7 201.386 127.6 194.861 131.9C171.67 147 96.0751 175.5 92.8625 176.7L92.2602 176.9Z" fill="#231F20"/>
<path d="M111.736 153.2C111.235 153.2 110.733 153 110.431 152.5C110.03 151.8 110.231 150.9 110.933 150.4C117.459 146.2 120.671 142.6 120.671 139.1C120.671 135.9 117.66 132.5 111.937 129.1C84.3294 112.7 60.2353 128.9 60.0345 129.1C59.3318 129.6 58.4283 129.4 57.9263 128.7C57.4243 128 57.6251 127.1 58.3279 126.6C58.629 126.4 84.3294 109.1 113.544 126.5C120.37 130.6 123.683 134.7 123.683 139C123.784 143.6 120.27 148 112.64 152.8C112.238 153.1 112.038 153.2 111.736 153.2Z" fill="#231F20"/>
<path d="M115.652 109.8C106.115 114.6 103.203 121.2 111.536 126.3C118.864 130.8 127.197 135.2 139.545 129.8C148.179 126 149.785 115.1 140.549 109.9C133.12 105.7 123.884 105.7 115.652 109.8Z" fill="white"/>
<path d="M128.703 133.8C121.776 133.8 116.154 130.8 110.833 127.6C106.014 124.6 105.11 121.4 105.211 119.3C105.412 115.4 108.825 111.5 115.049 108.5C123.683 104.2 133.521 104.3 141.352 108.7C145.97 111.3 148.48 115.5 148.279 120.1C148.078 124.8 144.966 129.1 140.147 131.2C135.931 133 132.116 133.8 128.703 133.8ZM116.354 111.1C111.234 113.6 108.323 116.6 108.223 119.4C108.122 121.9 110.431 123.8 112.439 125C119.968 129.6 127.699 133.4 139.043 128.4C142.757 126.8 145.167 123.5 145.368 119.9C145.568 116.4 143.561 113.2 139.946 111.2C132.819 107.2 124.185 107.2 116.354 111.1Z" fill="#231F20"/>
<path d="M105.412 142.7C105.211 142.7 104.91 142.6 104.709 142.5L97.7817 138.7C97.079 138.3 96.7778 137.4 97.1794 136.7C97.5809 136 98.4845 135.7 99.1872 136.1L106.114 139.9C106.817 140.3 107.118 141.2 106.717 141.9C106.415 142.4 105.913 142.7 105.412 142.7Z" fill="#231F20"/>
</svg>
