<svg width="256" height="256" viewBox="0 0 256 256" fill="none" xmlns="http://www.w3.org/2000/svg">
<path d="M89.4 127.8L25.6 165.5C25.1 165.8 24.9 166.4 25.2 166.8C25.3 167 25.4 167.1 25.6 167.2L118.4 221.1C121.6 222.9 125.5 222.9 128.7 221.1L188.9 186.5C189.4 186.2 189.6 185.6 189.3 185.2C189.2 185 189.1 184.9 188.9 184.8L89.4 127.8Z" fill="#BEDCE3"/>
<path d="M26.1001 141.7V150.9C26.1001 151.6 26.5001 152.2 27.0001 152.5L120 206.2C122 207.4 124.5 207.4 126.5 206.2L187.3 171.2C188.3 170.6 188.8 169.6 188.9 168.5V160.7" fill="white"/>
<path d="M89.6998 104L26.6998 140.8C26.0998 141.1 25.8998 141.9 26.1998 142.5C26.2998 142.7 26.4998 142.9 26.6998 143L121 197.3C122.4 198.1 124 198.1 125.4 197.3L188.8 160.8L89.6998 104Z" fill="white"/>
<path d="M63.7998 165.3C63.5998 165.3 63.4998 165.3 63.2998 165.2L26.2998 143.9C25.7998 143.6 25.6998 143 25.8998 142.5C26.1998 142 26.7998 141.9 27.2998 142.1L64.2998 163.4C64.7998 163.7 64.8998 164.3 64.6998 164.8C64.4998 165.1 64.0998 165.3 63.7998 165.3Z" fill="#231F20"/>
<path d="M188.8 160.8L125.4 197.3C124.7 197.7 124 197.9 123.2 197.9V206.7C124.3 206.7 125.4 206.6 126.4 206.3L187.2 171.3C188.2 170.7 188.7 169.7 188.8 168.6V160.8Z" fill="#BEDCE3"/>
<path d="M123.2 208.1C121.9 208.1 120.6 207.8 119.5 207.1L26.5001 153.4C25.6001 152.9 25.1001 151.9 25.1001 150.9V141.7C25.1001 141.1 25.5001 140.7 26.1001 140.7C26.7001 140.7 27.1001 141.1 27.1001 141.7V150.9C27.1001 151.2 27.3001 151.5 27.5001 151.7L120.5 205.4C122.2 206.4 124.3 206.4 126 205.4L186.8 170.4C187.4 170 187.8 169.3 187.8 168.6V160.8C187.8 160.2 188.2 159.8 188.8 159.8C189.4 159.8 189.8 160.2 189.8 160.8V168.6C189.8 170.1 189 171.4 187.8 172.2L127 207.2C125.8 207.8 124.5 208.1 123.2 208.1Z" fill="#231F20"/>
<path d="M188.8 161.8C188.6 161.8 188.5 161.8 188.3 161.7L89.2002 104.9C88.7002 104.6 88.6002 104 88.8002 103.5C89.1002 103 89.7002 102.9 90.2002 103.1L189.3 159.9C189.8 160.2 189.9 160.8 189.7 161.3C189.5 161.6 189.2 161.8 188.8 161.8Z" fill="#231F20"/>
<path d="M89.7001 104L26.7001 140.8C26.4001 141 26.2001 141.2 26.1001 141.6" fill="white"/>
<path d="M26.1001 142.6C26.0001 142.6 25.9001 142.6 25.9001 142.6C25.4001 142.5 25.0001 141.9 25.2001 141.4C25.3001 140.8 25.7001 140.3 26.3001 140L89.3001 103.2C89.8001 102.9 90.4 103.1 90.7001 103.6C91.0001 104.1 90.8001 104.7 90.3001 105L27.3001 141.8C27.2001 141.8 27.2001 141.9 27.2001 142C27.0001 142.3 26.6001 142.6 26.1001 142.6Z" fill="#231F20"/>
<path d="M229.5 87.5999L135.8 33.8999C134.4 33.0999 132.6 33.4999 131.8 34.8999L89.7002 104L188.8 160.8L230.5 91.5999C231.4 90.1999 230.9 88.3999 229.5 87.5999Z" fill="white"/>
<path d="M188.8 161.8C188.6 161.8 188.5 161.8 188.3 161.7L89.2001 104.9C89.0001 104.8 88.8001 104.5 88.7001 104.3C88.6001 104 88.7001 103.8 88.8001 103.5L131 34.3999C132.1 32.5999 134.5 31.9999 136.4 33.0999L229.9 86.6999C230 86.6999 230 86.7999 230.1 86.7999C232 87.8999 232.6 90.2999 231.5 92.1999L189.8 161.4C189.5 161.6 189.2 161.8 188.8 161.8ZM91.1001 103.6L188.5 159.4L229.7 91.0999C230.2 90.1999 229.9 89.0999 229.1 88.4999C229.1 88.4999 229 88.4999 229 88.3999L135.3 34.6999C134.4 34.1999 133.2 34.4999 132.7 35.3999L91.1001 103.6Z" fill="#231F20"/>
<path d="M132.8 180.1C132.6 180.1 132.5 180.1 132.3 180L57.2998 136.7C56.9998 136.5 56.7998 136.2 56.7998 135.8C56.7998 135.4 56.9998 135.1 57.2998 134.9L88.6998 116.8C88.9998 116.6 89.3998 116.6 89.6998 116.8L165.1 160.2C165.4 160.4 165.6 160.7 165.6 161.1C165.6 161.5 165.4 161.8 165.1 162L133.3 180C133.1 180.1 132.9 180.1 132.8 180.1ZM59.7998 135.8L132.8 177.9L162.6 161L89.1998 118.8L59.7998 135.8Z" fill="#231F20"/>
<path d="M143.2 174.2C143 174.2 142.9 174.2 142.7 174.1L67.7002 130.9C67.2002 130.6 67.1002 130 67.3002 129.5C67.6002 129 68.2002 128.9 68.7002 129.1L143.7 172.3C144.2 172.6 144.3 173.2 144.1 173.7C143.9 174 143.6 174.2 143.2 174.2Z" fill="#231F20"/>
<path d="M154 168.1C153.8 168.1 153.7 168.1 153.5 168L78.3999 124.8C77.8999 124.5 77.7999 123.9 77.9999 123.4C78.2999 122.9 78.8999 122.8 79.3999 123L154.5 166.2C155 166.5 155.1 167.1 154.9 167.6C154.7 167.9 154.3 168.1 154 168.1Z" fill="#231F20"/>
<path d="M122.6 173.9C122.3 173.9 121.9 173.7 121.7 173.4C121.4 172.9 121.6 172.3 122.1 172L153 154.2C153.5 153.9 154.1 154.1 154.4 154.6C154.7 155.1 154.5 155.7 154 156L123.1 173.8C122.9 173.9 122.8 173.9 122.6 173.9Z" fill="#231F20"/>
<path d="M111.4 167.8C111.1 167.8 110.7 167.6 110.5 167.3C110.2 166.8 110.4 166.2 110.9 165.9L142.4 147.8C142.9 147.5 143.5 147.7 143.8 148.2C144.1 148.7 143.9 149.3 143.4 149.6L111.9 167.7C111.7 167.7 111.6 167.8 111.4 167.8Z" fill="#231F20"/>
<path d="M78.8998 148.8C78.5998 148.8 78.1998 148.6 77.9998 148.3C77.6998 147.8 77.8998 147.2 78.3998 146.9L109.6 128.9C110.1 128.6 110.7 128.8 111 129.3C111.3 129.8 111.1 130.4 110.6 130.7L79.3998 148.7C79.2998 148.7 79.0998 148.8 78.8998 148.8Z" fill="#231F20"/>
<path d="M68.1 142.4C67.8 142.4 67.4 142.2 67.2 141.9C66.9 141.4 67.1 140.8 67.6 140.5L98.6 122.7C99.1 122.4 99.7 122.6 100 123.1C100.3 123.6 100.1 124.2 99.6 124.5L68.6 142.3C68.4 142.4 68.3 142.4 68.1 142.4Z" fill="#231F20"/>
<path d="M110.8 155.5C110.5 155.5 110.1 155.3 109.9 155C109.6 154.5 109.8 153.9 110.3 153.6L131.4 141.4C131.9 141.1 132.5 141.3 132.8 141.8C133.1 142.3 132.9 142.9 132.4 143.2L111.3 155.4C111.1 155.5 111 155.5 110.8 155.5Z" fill="#231F20"/>
<path d="M99.8002 149.2C99.5002 149.2 99.1002 149 98.9002 148.7C98.6002 148.2 98.8002 147.6 99.3002 147.3L120.5 135.1C121 134.8 121.6 135 121.9 135.5C122.2 136 122 136.6 121.5 136.9L100.3 149.1C100.2 149.2 100 149.2 99.8002 149.2Z" fill="#231F20"/>
<path d="M156.5 72.8001L133.9 59.7001C132.6 58.9001 132.1 57.3001 132.9 56.0001L135.8 51.1001C136.6 49.8001 138.3 49.3001 139.6 50.1001L162.2 63.2001C163.5 64.0001 164 65.6001 163.2 67.0001L160.3 71.9001C159.5 73.1001 157.8 73.6001 156.5 72.8001Z" fill="#F05023"/>
<path d="M201.4 117.4L154 90L167.9 66.5L215.3 93.9L201.4 117.4Z" fill="#BEDCE3"/>
<path d="M186 143.6L138.5 116.2L152.4 92.6997L199.8 120.1L186 143.6Z" fill="#BEDCE3"/>
<path d="M153.2 81.4998C152.9 81.4998 152.5 81.3998 152.2 81.1998L128.4 67.4998C127.4 66.8998 127.1 65.6998 127.7 64.7998C128.3 63.7998 129.5 63.4998 130.4 64.0998L154.2 77.7998C155.2 78.3998 155.5 79.5998 154.9 80.4998C154.6 81.1998 153.9 81.4998 153.2 81.4998Z" fill="#F2C94C"/>
<path d="M148.6 89.3997C148.3 89.3997 147.9 89.2997 147.6 89.0997L123.9 75.3997C122.9 74.7997 122.6 73.5997 123.2 72.6997C123.8 71.6997 125 71.3997 125.9 71.9997L149.6 85.6997C150.6 86.2997 150.9 87.4998 150.3 88.3997C150 89.0998 149.3 89.3997 148.6 89.3997Z" fill="#F2C94C"/>
<path d="M143.9 97.3001C143.6 97.3001 143.2 97.2001 142.9 97.0001L119.1 83.3001C118.1 82.7001 117.8 81.5001 118.4 80.6001C119 79.6001 120.2 79.3001 121.1 79.9001L145 93.5001C146 94.1001 146.3 95.3001 145.7 96.2001C145.3 96.9001 144.6 97.3001 143.9 97.3001Z" fill="#F2C94C"/>
<path d="M139.3 105.2C139 105.2 138.6 105.1 138.3 104.9L114.5 91.1999C113.5 90.5999 113.2 89.3999 113.8 88.4999C114.4 87.5999 115.6 87.1999 116.5 87.7999L140.3 101.5C141.3 102.1 141.6 103.3 141 104.2C140.7 104.8 140 105.2 139.3 105.2Z" fill="#F2C94C"/>
<path d="M134.6 113C134.3 113 133.9 112.9 133.6 112.7L109.9 98.9998C108.9 98.3998 108.6 97.1998 109.2 96.2998C109.8 95.2998 111 94.9998 111.9 95.5998L135.6 109.3C136.6 109.9 136.9 111.1 136.3 112C136 112.7 135.3 113 134.6 113Z" fill="#F2C94C"/>
</svg>
