<svg width="256" height="256" viewBox="0 0 256 256" fill="none" xmlns="http://www.w3.org/2000/svg">
<path d="M89.3017 209.202L22.1418 170.687C17.9527 168.314 17.9527 164.407 22.1418 161.986L151.559 87.7798C155.74 85.4067 162.523 85.4067 166.704 87.7798L233.864 126.287C238.045 128.66 238.045 132.576 233.864 134.988L104.447 209.202C100.266 211.599 93.4828 211.599 89.3017 209.202Z" fill="#BEDCE3"/>
<path d="M237.992 105.781C237.992 103.851 236.744 102.063 234.47 100.747L167.161 61.897C162.772 59.3677 155.623 59.3677 151.258 61.897L21.5225 136.756C19.2563 138.072 18 139.86 18 141.791V150.224C18 152.163 19.2563 153.951 21.5225 155.259L88.8393 194.109C93.8408 196.63 99.7407 196.63 104.742 194.109L234.47 119.29C236.855 117.902 238.159 115.923 237.984 113.936V106.037C237.992 105.949 237.992 105.869 237.992 105.781Z" fill="white"/>
<path fill-rule="evenodd" clip-rule="evenodd" d="M139.867 69.4999C140.142 69.9768 139.977 70.5854 139.499 70.8593L22.634 137.911C22.6335 137.912 22.633 137.912 22.6325 137.912C20.7218 139.017 19.9939 140.322 19.9939 141.414C19.9939 142.505 20.7189 143.796 22.6266 144.878L22.6312 144.88L89.6978 183.36C89.6984 183.361 89.699 183.361 89.6996 183.361C91.6011 184.441 94.1573 185.009 96.7679 185.009C99.3785 185.009 101.935 184.44 103.836 183.361C103.837 183.361 103.837 183.361 103.838 183.36L116.773 175.941C117.25 175.667 117.86 175.832 118.134 176.309C118.408 176.786 118.243 177.394 117.766 177.668L104.827 185.089L104.823 185.092C102.549 186.383 99.6315 187 96.7679 187C93.9042 187 90.9862 186.383 88.7123 185.092L88.7085 185.089L21.6425 146.61C21.6417 146.609 21.6409 146.609 21.64 146.608C19.3658 145.318 18 143.473 18 141.414C18 139.358 19.3635 137.501 21.6352 136.188L21.638 136.186L138.506 69.1325C138.984 68.8586 139.593 69.0231 139.867 69.4999Z" fill="#231F20"/>
<path fill-rule="evenodd" clip-rule="evenodd" d="M152.068 63.6611C152.067 63.6614 152.067 63.6617 152.066 63.662L145.588 67.3897C145.11 67.6649 144.5 67.4989 144.226 67.0188C143.952 66.5388 144.117 65.9266 144.595 65.6514L151.076 61.9219L151.079 61.9201C153.356 60.621 156.277 60 159.145 60C162.012 60 164.933 60.621 167.21 61.9201L167.213 61.9223L234.36 100.631C234.36 100.631 234.361 100.631 234.361 100.631C236.636 101.93 238 103.789 238 105.86C238 107.929 236.638 109.798 234.366 111.116L234.364 111.117L125.495 173.867C125.017 174.142 124.407 173.977 124.133 173.497C123.858 173.017 124.023 172.405 124.501 172.129L233.367 109.381C233.367 109.381 233.368 109.381 233.368 109.381C235.276 108.274 236.004 106.962 236.004 105.86C236.004 104.761 235.278 103.459 233.373 102.372L233.369 102.37L166.223 63.662C166.222 63.6616 166.222 63.6613 166.221 63.661C164.317 62.5751 161.758 62.0037 159.145 62.0037C156.531 62.0037 153.971 62.5752 152.068 63.6611Z" fill="#231F20"/>
<path fill-rule="evenodd" clip-rule="evenodd" d="M235.814 108.601C236.366 108.601 238 105.446 238 106V113.768C238 115.154 237.753 116.241 237.083 117.169C236.443 118.053 235.492 118.684 234.374 119.331L234.373 119.332L104.967 194.074L104.964 194.076C102.687 195.378 99.7652 196 96.898 196C94.0308 196 91.1091 195.378 88.8324 194.076L88.8286 194.074L21.6869 155.296C21.6847 155.294 21.6825 155.293 21.6803 155.292C19.366 153.998 18 152.124 18 150.044V141.622C18 141.068 18.4469 140.619 18.9982 140.619C19.5495 140.619 19.9964 141.068 19.9964 141.622V150.044C19.9964 151.149 20.7222 152.461 22.6561 153.54L22.6686 153.548L89.8192 192.331L89.8205 192.331C91.7244 193.42 94.284 193.992 96.898 193.992C99.5119 193.992 102.071 193.42 103.975 192.332L103.977 192.331L235.814 116.129" fill="#231F20"/>
<path fill-rule="evenodd" clip-rule="evenodd" d="M174.987 77.0399C174.986 77.0399 174.987 77.0384 174.989 77.0354C174.988 77.0385 174.987 77.04 174.987 77.0399ZM175.02 77C175.053 76.9707 175.114 76.9269 175.227 76.8735C175.503 76.743 175.951 76.6363 176.5 76.6363C177.049 76.6363 177.497 76.743 177.773 76.8735C177.886 76.9269 177.947 76.9707 177.98 77C177.947 77.0293 177.886 77.0731 177.773 77.1265C177.497 77.257 177.049 77.3637 176.5 77.3637C175.951 77.3637 175.503 77.257 175.227 77.1265C175.114 77.0731 175.053 77.0293 175.02 77ZM178.013 77.0399C178.013 77.04 178.012 77.0385 178.011 77.0354C178.013 77.0384 178.014 77.0399 178.013 77.0399ZM178.011 76.9646C178.012 76.9615 178.013 76.96 178.013 76.9601C178.014 76.9601 178.013 76.9616 178.011 76.9646ZM174.989 76.9646C174.987 76.9616 174.986 76.9601 174.987 76.9601C174.987 76.96 174.988 76.9615 174.989 76.9646ZM174.233 75.4551C174.863 75.1578 175.666 75 176.5 75C177.334 75 178.137 75.1578 178.767 75.4551C179.37 75.7397 180 76.2561 180 77C180 77.7439 179.37 78.2603 178.767 78.5449C178.137 78.8422 177.334 79 176.5 79C175.666 79 174.863 78.8422 174.233 78.5449C173.63 78.2603 173 77.7439 173 77C173 76.2561 173.63 75.7397 174.233 75.4551Z" fill="#231F20"/>
<path fill-rule="evenodd" clip-rule="evenodd" d="M185.127 81.5074C185.39 81.0232 185.973 80.8564 186.429 81.1347L199.521 89.1121C199.978 89.3904 200.135 90.0085 199.873 90.4926C199.61 90.9768 199.027 91.1436 198.571 90.8653L185.479 82.8879C185.022 82.6096 184.865 81.9915 185.127 81.5074Z" fill="#231F20"/>
<path d="M138.988 110.712C139.513 110.418 139.973 110.164 140.402 109.918C140.831 109.672 140.759 109.434 140.402 109.196C140.044 108.957 139.838 108.87 139.56 108.703C139.139 108.346 138.512 108.346 138.091 108.703C136.456 109.672 136.281 109.418 138.012 110.426C138.417 110.664 138.417 110.862 138.059 111.093L137.925 111.188C136.614 112.069 136.519 112.069 135.098 111.291C134.383 110.902 134.248 110.91 133.51 111.291C132.255 112.013 130.985 112.72 129.746 113.45C129.397 113.696 128.928 113.696 128.579 113.45C127.38 112.799 127.356 112.783 128.5 112.124C130.215 111.132 131.946 110.148 133.645 109.148C133.923 108.981 134.272 108.632 134.161 108.513C133.772 108.172 133.327 107.902 132.843 107.719C132.541 107.743 132.239 107.83 131.977 107.981C130.794 108.64 129.635 109.322 128.46 109.997L123.656 112.767C122.981 113.156 122.981 113.244 123.656 113.632C124.331 114.021 124.387 114.109 123.656 114.545C122.926 114.982 122.275 115.339 121.6 115.728C121.052 116.045 121.028 116.244 121.6 116.569C122.529 117.125 123.482 117.673 124.458 118.204C124.911 118.562 125.546 118.562 125.999 118.204C126.793 117.768 126.793 117.768 127.587 118.204L127.833 118.347C128.801 118.919 128.809 118.919 127.912 119.538C127.555 119.784 127.579 120.022 127.912 120.228C129.5 121.133 131.048 122.038 132.621 122.935C132.93 123.11 133.319 123.11 133.629 122.935C133.939 122.784 134.24 122.61 134.526 122.419C134.868 122.181 134.621 121.99 134.32 121.816C133.423 121.292 132.541 120.768 131.612 120.228C131.136 119.974 131.144 119.768 131.612 119.514C132.494 119.022 133.359 118.522 134.217 118.022C134.915 117.609 134.907 117.482 134.217 117.069C133.526 116.657 133.526 116.601 134.217 116.18L134.661 115.918C134.963 115.672 135.408 115.672 135.709 115.918C135.757 115.95 135.805 115.982 135.86 116.006C136.876 116.593 136.876 116.593 135.971 117.212C135.415 117.585 135.447 117.673 136.273 118.149C136.734 118.506 137.361 118.546 137.861 118.244C138.695 117.784 139.513 117.315 140.307 116.831C140.862 116.498 140.831 116.299 140.267 115.958C140.037 115.823 139.814 115.68 139.568 115.553C139.155 115.331 139.155 115.141 139.568 114.902C140.283 114.49 140.362 114.482 141.093 114.902C141.823 115.323 142.824 115.871 143.641 116.379C144.03 116.657 144.546 116.657 144.936 116.379C145.364 116.125 145.809 115.887 146.246 115.633C146.555 115.418 146.96 115.418 147.27 115.633C147.58 115.839 148.215 116.006 147.683 116.363C147.286 116.633 146.817 116.863 146.412 117.157C145.865 117.514 145.88 117.649 146.452 117.95C146.881 118.204 147.325 118.45 147.762 118.697C148.135 118.935 148.62 118.935 148.993 118.697L150.247 117.982C150.573 117.76 151.01 117.76 151.335 117.982C151.597 118.141 151.907 118.268 152.129 118.435C152.51 118.72 153.042 118.72 153.423 118.435C154.821 117.641 156.226 116.847 157.647 116.014C158.267 115.664 159.188 115.815 159.378 116.323C159.418 116.434 159.267 116.609 159.116 116.704C158.378 117.141 157.616 117.569 156.869 118.006C156.282 118.347 156.29 118.601 156.869 118.943H156.925C158.187 119.665 158.187 119.665 159.561 119.006C159.609 118.966 159.664 118.943 159.728 118.927C160.609 118.823 160.768 119.339 161.316 119.546C161.625 119.657 161.713 119.855 161.379 120.022C159.791 120.816 160.585 121.014 161.578 121.61C161.705 121.689 161.84 121.768 161.983 121.84C162.364 122.046 162.388 122.244 161.983 122.459C161.697 122.594 161.459 122.768 161.189 122.919C160.919 123.07 160.784 123.332 161.125 123.554L161.213 123.618C162.165 124.3 162.165 124.3 161.07 124.935L160.554 125.213C160.244 125.427 159.831 125.427 159.521 125.213L159.013 124.927C158.576 124.665 158.037 124.681 157.616 124.967C156.822 125.459 156.766 125.443 155.956 124.967L155.813 124.88C155.019 124.388 154.845 124.38 153.995 124.88C153.146 125.38 152.479 125.745 151.74 126.181C151.161 126.523 151.168 126.697 151.74 127.039C152.907 127.729 152.891 127.713 151.637 128.364C150.843 128.785 150.097 129.245 149.35 129.706C148.985 129.928 148.683 129.999 148.366 129.706L148.231 129.61C147.365 128.928 146.119 129.047 145.388 129.872C145.229 130.483 146.23 130.666 146.73 130.976C147.079 131.174 147.516 131.174 147.865 130.976L148.247 130.785C148.985 130.396 149.835 130.539 150.025 131.118C150.025 131.206 149.962 131.333 149.858 131.412C149.755 131.491 149.43 131.666 149.223 131.793C148.842 132.023 148.842 132.246 149.223 132.468C149.461 132.595 149.668 132.746 149.922 132.873C150.438 133.135 150.359 133.357 149.922 133.619C148.62 134.357 148.802 134.27 147.691 133.619L110.595 112.283C109.801 111.807 109.801 111.807 110.595 111.331L147.635 90.0268C148.429 89.5744 148.429 89.5744 149.223 90.0268C149.414 90.13 149.573 90.2491 149.763 90.3443C150.081 90.511 150.041 90.6697 149.763 90.8364C149.485 91.0031 149.033 91.2571 148.675 91.4794C148.318 91.7016 148.31 91.908 148.675 92.1143C148.802 92.1699 148.921 92.2334 149.025 92.3207C149.176 92.4556 149.461 92.67 149.382 92.7573C149.096 92.9954 148.779 93.1938 148.437 93.3446C148.294 93.3446 148.151 93.3129 148.016 93.2494C147.786 93.1462 147.556 93.0271 147.341 92.8843C146.984 92.6303 146.508 92.6303 146.15 92.8843C145.063 93.5193 143.935 94.1384 142.839 94.7734C142.244 95.1147 142.26 95.2813 142.839 95.6385C143.633 96.1465 143.633 96.1465 142.839 96.6228C140.227 98.1229 137.607 99.6151 135.018 101.123C134.645 101.377 134.153 101.377 133.78 101.123C132.795 100.583 132.779 100.591 131.811 101.123C131.088 101.536 130.358 101.917 129.651 102.361C128.944 102.806 129.071 102.862 129.651 103.219C130.445 103.695 130.445 103.774 129.588 104.235C128.635 104.759 127.714 105.306 126.777 105.822C126.3 106.1 126.34 106.354 126.848 106.616C127.356 106.878 127.698 107.092 128.103 107.338C128.508 107.608 129.032 107.608 129.437 107.338C130.382 106.783 131.342 106.243 132.295 105.695C133.089 105.235 133.232 105.235 134.01 105.695L135.963 106.814C136.456 107.187 137.138 107.187 137.631 106.814C138.361 106.402 139.092 106.021 139.79 105.576C140.172 105.314 140.672 105.314 141.053 105.576C141.847 106.044 142.641 106.505 143.435 106.973C144.03 107.322 144.038 107.441 143.435 107.767C142.26 108.449 141.99 108.37 143.435 109.211C145.11 110.18 144.904 110.005 146.262 109.211C147.619 108.418 149.136 107.56 150.589 106.743C150.827 106.6 151.105 106.521 151.383 106.505C151.748 106.656 152.089 106.854 152.391 107.108C152.447 107.156 152.24 107.354 152.089 107.441C151.081 108.037 150.057 108.616 149.041 109.203C148.294 109.632 148.31 109.727 148.993 110.172C150.136 110.918 150.208 110.735 148.993 111.466C147.778 112.196 146.539 112.855 145.348 113.569C144.999 113.823 144.531 113.823 144.181 113.569C142.943 112.831 142.911 112.982 144.11 112.259C144.396 112.085 144.809 111.735 144.705 111.632C144.284 111.307 143.816 111.037 143.324 110.839C143.125 110.823 142.927 110.846 142.736 110.91C142.601 110.95 142.482 111.013 142.363 111.093C141.021 111.886 141.347 111.942 139.79 111.045C139.481 111.053 139.282 110.902 138.988 110.712ZM149.493 124.896L150.898 124.102C152.486 123.213 152.145 123.205 153.725 124.102C153.979 124.245 154.265 124.316 154.559 124.316C155.043 124.149 155.496 123.903 155.885 123.57C155.996 123.467 155.607 123.118 155.321 122.951C153.955 122.157 154.194 122.26 155.321 121.602C156.155 121.109 156.155 121.07 155.321 120.601C153.963 119.808 153.963 119.808 152.614 120.601C151.955 120.959 151.883 120.959 151.232 120.601C150.438 120.157 150.303 120.157 149.517 120.601C149.366 120.689 149.223 120.776 149.088 120.871C148.779 121.078 148.802 121.268 149.128 121.483C150.041 122.078 150.025 122.078 149.048 122.633C148.953 122.689 148.842 122.745 148.747 122.808C148.477 122.991 148.127 122.991 147.857 122.808C147.333 122.491 146.786 122.197 146.269 121.887C144.936 121.094 144.84 121.252 146.206 120.459L146.357 120.363C146.865 120.022 146.841 119.816 146.254 119.498L145.46 119.038C144.499 118.482 144.316 118.482 143.34 119.038C142.363 119.593 142.347 119.601 141.386 119.038C141.005 118.776 140.513 118.776 140.132 119.038C139.481 119.435 138.79 119.832 138.131 120.197C137.186 120.752 136.67 120.784 138.036 121.483C138.449 121.697 138.393 121.895 137.996 122.102C137.599 122.308 137.115 122.594 136.694 122.848C136.273 123.102 136.321 123.316 136.749 123.554C137.686 124.078 138.607 124.602 139.513 125.142C140.418 125.681 140.799 125.665 139.608 126.3C139.163 126.539 139.163 126.777 139.608 127.031C140.275 127.396 140.918 127.777 141.569 128.15C142.76 128.832 142.943 128.825 144.03 128.086C144.356 127.864 144.411 127.65 144.086 127.428C143.578 127.062 143.046 126.729 142.498 126.427C140.91 125.634 140.87 125.538 142.617 124.729C142.943 124.515 143.371 124.515 143.697 124.729C144.491 125.205 145.34 125.665 146.15 126.142C146.508 126.396 146.992 126.396 147.349 126.142C148.048 125.713 148.779 125.308 149.493 124.896ZM120.012 107.941C119.162 108.434 118.313 108.926 117.455 109.41C117.066 109.624 117.058 109.815 117.455 110.021C117.852 110.227 118.067 110.362 118.368 110.529C118.932 110.839 118.614 111.053 118.186 111.323C117.797 111.608 117.273 111.632 116.868 111.37C115.28 110.37 115.351 110.664 113.914 111.426H113.866C113.39 111.672 113.35 111.918 113.827 112.22C114.692 112.704 115.55 113.196 116.391 113.688C116.764 113.926 117.249 113.926 117.622 113.688L120.266 112.156C120.655 111.926 120.639 111.728 120.266 111.489C119.321 110.918 119.337 110.91 120.337 110.346L120.441 110.291C121.513 109.696 121.473 109.672 122.426 110.291C122.727 110.489 123.108 110.505 123.434 110.346C123.887 110.1 124.593 109.942 124.546 109.481C124.546 109.41 124.411 109.338 124.315 109.283C124.18 109.18 124.03 109.092 123.871 109.021C123.386 108.799 123.386 108.608 123.871 108.354C125.57 107.41 125.459 107.56 123.799 106.584C123.402 106.259 122.839 106.259 122.442 106.584L120.012 107.941Z" fill="#231F20"/>
<path d="M168.74 104.679C169.534 104.219 170.328 103.759 171.122 103.29C171.423 103.076 171.82 103.076 172.122 103.29C172.495 103.536 172.916 103.759 173.321 103.981C173.726 104.203 173.599 104.306 173.321 104.473C173.043 104.64 172.646 104.854 172.321 105.052C171.995 105.251 171.916 105.552 172.321 105.846L172.765 106.108C173.123 106.314 173.146 106.513 172.765 106.735C171.868 107.235 171.003 107.751 170.121 108.267C169.47 108.64 169.47 108.727 170.082 109.1L170.526 109.362C171.249 109.791 171.161 110.156 170.209 110.378C169.962 110.418 169.708 110.386 169.478 110.291C169.16 110.148 168.851 109.974 168.557 109.783C168.247 109.601 167.874 109.601 167.565 109.783C167.255 109.934 166.969 110.093 166.675 110.251C166 110.624 165.881 110.632 165.246 110.251L161.649 108.108C160.744 107.584 160.696 107.569 159.807 108.108C159.418 108.386 158.902 108.386 158.513 108.108C157.147 107.315 157.131 107.315 155.805 108.108C155.154 108.481 155.099 108.489 154.464 108.108C153.161 107.315 153.177 107.545 154.416 106.822C155.345 106.283 155.345 106.227 154.416 105.687C153.622 105.235 152.828 104.767 151.994 104.322C151.613 104.108 151.581 103.917 151.994 103.703L154.257 102.409C154.932 102.02 154.932 101.862 154.257 101.473C152.741 100.592 151.232 99.7106 149.692 98.8534C149.207 98.5756 149.136 98.3771 149.652 98.0596C150.724 97.4405 150.7 97.4326 151.772 98.0596C151.962 98.2025 152.177 98.3057 152.407 98.3692C152.701 98.4009 153.003 98.4009 153.296 98.3692C153.352 98.3692 153.4 98.3136 153.455 98.2898C154.9 97.4961 154.9 97.4961 156.314 98.2898C157.187 98.7899 157.274 98.7899 158.132 98.2898C158.846 97.8771 159.593 97.4961 160.276 97.0516C160.958 96.6071 161.252 97.0119 161.657 97.2103C162.062 97.4088 162.165 97.6151 161.697 97.8453C161.387 98.0041 161.085 98.1787 160.8 98.3692C160.387 98.6311 160.339 98.8931 160.847 99.1629L161.355 99.4487C161.721 99.6709 162.173 99.6709 162.539 99.4487C162.801 99.3137 163.039 99.1629 163.293 99.0201C163.436 98.9169 163.595 98.8375 163.769 98.7819C164.666 98.6629 164.881 99.1788 165.413 99.4011C165.746 99.5439 165.715 99.7265 165.413 99.8932L165.016 100.123C164.119 100.623 164.119 100.623 163.15 100.123C162.681 99.7662 162.03 99.7662 161.562 100.123C161.419 100.211 161.276 100.306 161.117 100.385C160.76 100.568 160.76 100.75 161.062 100.949L161.197 101.044C162.459 101.727 162.213 101.655 161.054 102.362C160.712 102.568 160.284 102.568 159.942 102.362C158.688 101.774 158.672 101.774 157.56 102.409C156.766 102.854 156.044 103.306 155.25 103.735C154.733 104.013 154.789 104.267 155.25 104.529L159.513 106.973C159.831 107.18 160.236 107.18 160.554 106.973H160.601C162.467 105.854 162.451 106.18 160.673 105.092C160.18 104.798 159.672 104.513 159.172 104.227C158.473 103.822 159.307 103.671 159.569 103.433C159.847 103.227 160.228 103.227 160.506 103.433L164.762 105.886C165.294 106.346 166.08 106.346 166.612 105.886C167.342 105.457 168.081 105.037 168.819 104.616L168.74 104.679ZM159.497 101.179C160.569 100.544 160.569 100.544 159.497 99.9408C159.093 99.6074 158.497 99.6074 158.092 99.9408C157.719 100.123 157.37 100.338 157.036 100.584C156.893 100.695 156.853 100.901 156.957 101.06C157.679 101.806 158.386 101.854 159.41 101.25L159.497 101.179Z" fill="#231F20"/>
<path d="M168.152 116.752C167.152 117.323 166.143 117.895 165.151 118.482C164.762 118.768 164.246 118.768 163.857 118.482L163.785 118.427C162.602 117.807 162.602 117.792 163.785 117.149C164.524 116.744 164.524 116.633 163.833 116.22L163.595 116.077C163.277 115.879 162.801 115.688 162.713 115.466C162.626 115.244 163.166 115.069 163.444 114.879C163.857 114.593 163.912 114.331 163.444 114.085L160.609 112.497C160.204 112.267 159.704 112.291 159.331 112.569C158.942 112.799 158.608 113.029 159.108 113.363L160.133 113.982C160.657 114.307 160.133 114.49 159.831 114.696C159.513 114.934 159.085 114.934 158.767 114.696C158.505 114.529 158.211 114.371 157.917 114.212C157.505 113.847 156.877 113.847 156.464 114.212C154.988 115.006 153.511 115.895 152.042 116.736C151.867 116.855 151.669 116.958 151.47 117.037C151.272 117.069 151.065 117.069 150.867 117.037C150.811 117.022 150.763 116.99 150.716 116.958C149.215 116.109 149.334 116.339 150.66 115.561C151.367 115.148 151.375 115.006 150.66 114.585C149.461 113.847 149.461 113.847 150.66 113.124L152.002 112.331C152.399 112.093 152.415 111.854 151.962 111.632C151.907 111.608 151.859 111.577 151.812 111.545C150.525 110.846 150.501 110.981 151.954 110.164C152.129 110.084 152.32 110.053 152.51 110.076C152.987 110.307 153.439 110.569 153.868 110.87C153.924 110.87 153.868 111.045 153.773 111.124C153.59 111.346 153.13 111.616 153.233 111.767C153.519 112.116 153.892 112.394 154.313 112.561C154.837 112.855 155.48 112.815 155.964 112.466L157.925 111.338C158.513 110.989 158.513 110.87 157.925 110.545C157.592 110.37 157.266 110.172 156.957 109.957C156.838 109.862 156.957 109.68 156.957 109.537H156.996C158.148 108.743 158.394 108.743 159.561 109.537C159.887 109.759 159.974 109.957 159.561 110.164C159.402 110.243 159.267 110.346 159.116 110.434C158.791 110.624 158.815 110.815 159.116 111.005L160.26 111.672C160.633 111.91 161.109 111.91 161.482 111.672C162.38 111.172 162.404 111.18 163.285 111.672C163.42 111.735 163.555 111.815 163.682 111.902C164.079 112.148 164.571 112.148 164.968 111.902C166.127 111.338 166.135 111.338 167.223 111.973L167.326 112.029C168.478 112.688 168.478 112.688 169.645 112.029C170.217 111.616 171.011 111.712 171.471 112.243C171.527 112.339 171.415 112.505 171.288 112.601C171.003 112.799 170.709 112.974 170.399 113.124C169.97 113.355 170.018 113.569 170.399 113.791L171.336 114.339C171.685 114.537 171.693 114.728 171.336 114.934C170.28 115.529 169.232 116.141 168.16 116.744L168.152 116.752ZM167.072 115.244C167.295 115.133 167.509 115.006 167.707 114.863C167.819 114.767 167.906 114.601 167.842 114.498C167.469 113.783 166.31 113.616 165.421 114.14C164.381 114.759 164.381 114.759 165.318 115.41C165.889 115.807 166.112 115.815 166.731 115.41C166.842 115.379 166.961 115.315 167.072 115.252V115.244Z" fill="#231F20"/>
<path d="M175.219 112.482C176.013 112.021 176.807 111.553 177.601 111.1C178.038 110.862 178.046 110.64 177.641 110.402C176.227 109.608 176.41 109.608 175.187 110.315L175.036 110.402C173.806 111.116 174.036 111.077 172.702 110.338C172.361 110.148 172.392 109.957 172.702 109.767L175.441 108.18C175.735 107.981 176.124 107.981 176.418 108.18L176.624 108.291C177.863 109.005 177.863 109.005 179.157 108.291C179.721 107.846 180.531 107.918 180.999 108.457C181.079 108.592 181.031 108.767 180.904 108.854C180.626 109.069 180.261 109.251 179.943 109.449C179.626 109.648 179.499 109.973 179.943 110.243C180.388 110.513 180.737 110.712 181.15 110.934C181.626 111.275 182.262 111.275 182.738 110.934C182.976 110.807 183.222 110.68 183.445 110.537C183.81 110.267 184.31 110.267 184.675 110.537C185.057 110.783 185.469 110.989 184.834 111.331C184.501 111.497 184.207 111.696 183.897 111.886C183.588 112.077 183.516 112.307 183.897 112.521C184.12 112.64 184.326 112.775 184.54 112.902C185.176 113.267 185.176 113.299 184.54 113.696C183.905 114.093 183.905 114.077 183.222 113.696L181.222 112.545C180.332 112.037 180.213 112.037 179.356 112.545C179.006 112.751 178.673 112.958 178.316 113.156C177.823 113.426 177.887 113.672 178.316 113.95C179.038 114.355 179.761 114.744 180.467 115.188C181.174 115.633 181.174 115.656 180.563 115.982C179.951 116.307 179.856 116.355 179.094 115.918C178.331 115.482 177.728 115.125 177.037 114.736C176.616 114.41 176.029 114.41 175.608 114.736L175.441 114.815L174.123 115.371C173.552 115.053 172.956 114.744 172.432 114.394C172.345 114.347 172.488 114.117 172.63 114.029C173.424 113.537 174.29 113.061 175.132 112.577L175.219 112.482Z" fill="#231F20"/>
<path d="M143.324 104.481L141.069 103.179C140.64 102.838 140.021 102.838 139.592 103.179H139.544C138.377 103.846 137.782 103.806 136.932 102.988C136.829 102.869 136.845 102.687 136.964 102.584C136.972 102.576 136.98 102.568 136.988 102.568C137.893 102.012 138.846 101.48 139.783 100.98C140.148 100.774 140.6 100.798 140.942 101.044L143.904 102.75C144.396 103.187 145.134 103.187 145.627 102.75C146.706 102.131 146.698 102.131 147.754 102.75L149.501 103.758C149.859 103.973 149.859 104.171 149.462 104.385C148.612 104.854 147.778 105.338 146.96 105.83C146.571 106.084 146.071 106.084 145.682 105.83L143.3 104.473L143.324 104.481Z" fill="#231F20"/>
<path d="M168.081 121.308L169.232 121.967C169.534 122.141 169.549 122.324 169.232 122.499L168.986 122.649C167.811 123.276 168.049 123.316 166.921 122.649C166.596 122.419 166.167 122.419 165.841 122.649L165.492 122.848C164.627 123.34 164.603 123.403 165.429 123.888C165.929 124.181 165.865 124.388 165.429 124.681C164.396 125.301 164.42 125.316 163.38 124.681C162.634 124.253 162.634 124.253 163.38 123.832C163.483 123.777 163.587 123.721 163.682 123.657C164.627 123.118 164.643 123.046 163.737 122.514C163.293 122.253 163.285 122.054 163.737 121.8C164.412 121.451 165.032 121.054 165.691 120.681C166.111 120.324 166.723 120.324 167.144 120.681L168.096 121.229L168.081 121.308Z" fill="#231F20"/>
<path d="M174.338 117.633L173.242 117.006C172.877 116.791 172.861 116.593 173.242 116.371C174.409 115.656 174.401 115.648 175.624 116.371L177.267 117.323C177.625 117.522 177.672 117.688 177.267 117.895C175.989 118.569 176.291 118.808 174.735 117.895L174.338 117.665V117.633Z" fill="#231F20"/>
<path d="M156.345 96.2022C155.948 96.4323 155.551 96.6705 155.139 96.8927C154.305 97.3372 154.09 96.7419 153.678 96.5593C153.265 96.3768 152.733 96.2419 153.36 95.8926C154.21 95.4243 155.043 94.9401 155.869 94.456C156.155 94.2575 156.536 94.2575 156.822 94.456C158.41 95.3529 158.045 95.1782 156.901 95.8767L156.345 96.2022Z" fill="#231F20"/>
<path d="M134.645 113.196C135.066 112.958 135.487 112.72 135.9 112.474C136.154 112.315 136.487 112.315 136.741 112.474C138.242 113.37 138.226 113.093 136.805 113.934C136.241 114.267 135.661 114.585 135.106 114.91C134.836 115.093 134.486 115.093 134.216 114.91C132.716 114.037 132.811 114.275 134.145 113.474L134.645 113.196Z" fill="#231F20"/>
<path d="M153.058 127.88C153.558 127.634 154.003 127.436 154.4 127.213C154.662 127.047 154.995 127.047 155.257 127.213C156.091 127.698 156.933 128.166 157.735 128.666C157.862 128.737 157.774 128.928 157.774 129.063H157.735C156.29 129.857 156.576 129.944 155.107 129.11C154.606 128.833 154.106 128.539 153.622 128.245C153.407 128.158 153.233 128.007 153.058 127.88Z" fill="#231F20"/>
<path d="M151.7 95.6864C152.574 96.2102 152.717 96.0912 151.47 96.7976C150.747 97.2103 150.74 97.2103 149.882 96.7023C149.024 96.1944 149.088 96.115 150.073 95.5514C150.716 95.1784 150.859 95.1943 151.7 95.6864Z" fill="#231F20"/>
<path d="M129.937 115.609C129.088 116.109 129.08 116.109 128.119 115.569C127.158 115.029 127.245 115.069 128.174 114.529C128.968 114.069 129.056 114.069 129.858 114.529C130.795 115.053 130.803 115.109 129.937 115.609Z" fill="#231F20"/>
<path d="M151.129 92.2332C151.923 91.7491 151.986 91.7491 152.582 92.0824C153.725 92.7254 153.725 92.7254 153.05 93.1222C151.955 93.7572 151.955 93.7572 150.954 93.2016C150.216 92.7412 150.216 92.7254 151.129 92.2332Z" fill="#231F20"/>
<path d="M167.239 101.401C168.033 100.933 168.033 100.933 168.882 101.401C169.033 101.488 169.168 101.584 169.319 101.663C169.668 101.838 169.645 102.004 169.319 102.179C169.208 102.234 169.121 102.29 169.017 102.354C168.001 102.949 167.993 102.949 167.024 102.354C166.302 101.98 166.318 101.933 167.239 101.401Z" fill="#231F20"/>
<path d="M176.918 106.044C177.767 106.544 177.767 106.544 176.6 107.195C176.044 107.505 175.87 107.497 175.226 107.116C174.218 106.536 174.218 106.536 175.226 105.949C176.02 105.521 176.02 105.521 176.918 106.044Z" fill="#231F20"/>
<path d="M133.391 103.386C132.533 102.901 132.533 102.901 133.153 102.536C134.272 101.885 134.328 101.877 134.923 102.211C136.035 102.838 136.043 102.854 135.328 103.259C134.137 103.933 134.36 103.925 133.391 103.386Z" fill="#231F20"/>
<path d="M170.725 119.657C171.614 119.157 171.646 119.157 172.511 119.657C173.377 120.157 173.305 120.197 172.21 120.792C171.566 121.141 171.455 121.125 170.415 120.514C169.836 120.189 169.843 120.157 170.725 119.657Z" fill="#231F20"/>
<path d="M151.438 131.698C150.589 131.198 150.589 131.198 151.653 130.602C152.367 130.206 152.447 130.213 153.479 130.825C154.074 131.182 154.035 131.253 153.01 131.825C152.351 132.19 152.248 132.182 151.438 131.698Z" fill="#231F20"/>
<path d="M145.896 100.219C146.69 99.7423 146.69 99.7423 147.389 100.131C148.437 100.727 148.453 100.766 147.834 101.115C146.706 101.766 146.706 101.766 145.634 101.115C144.983 100.774 144.991 100.742 145.896 100.219Z" fill="#231F20"/>
<path d="M159.109 127.301C158.259 126.817 158.259 126.817 159.109 126.316C159.958 125.816 159.958 125.824 160.594 126.182C161.666 126.809 161.681 126.84 161.054 127.205C160.006 127.817 160.006 127.817 159.109 127.301Z" fill="#231F20"/>
<path d="M140.648 120.808C140.219 121.054 139.751 121.292 139.37 121.602C139.242 121.689 139.219 121.927 139.37 121.999C140.203 122.514 141.077 123.007 141.966 123.491C142.164 123.57 142.379 123.602 142.585 123.57C143.482 123.348 143.617 122.927 142.943 122.522C142.268 122.118 142.196 121.943 142.943 121.522C144.237 120.729 144.229 120.729 142.823 120.07C142.585 119.911 142.268 119.911 142.029 120.07L140.648 120.808Z" fill="#231F20"/>
<path d="M140.648 120.808L141.997 120.014C142.236 119.855 142.553 119.855 142.791 120.014C144.197 120.713 144.205 120.713 142.91 121.467C142.18 121.887 142.18 122.022 142.91 122.467C143.641 122.911 143.45 123.26 142.553 123.514C142.347 123.546 142.132 123.514 141.934 123.435C141.045 122.951 140.171 122.459 139.337 121.943C139.218 121.871 139.242 121.633 139.337 121.546C139.75 121.316 140.219 121.078 140.648 120.808Z" fill="#231F20"/>
<path fill-rule="evenodd" clip-rule="evenodd" d="M144.418 84.9157L99.3862 110.289C98.3133 110.895 98.0093 111.547 98.0093 111.993C98.0093 112.439 98.3132 113.091 99.3857 113.697C99.3859 113.697 99.3855 113.697 99.3857 113.697L144.418 139.078C146.986 140.345 150.014 140.345 152.582 139.078L197.614 113.697C197.614 113.697 197.614 113.697 197.614 113.697C198.686 113.091 198.991 112.439 198.991 111.993C198.991 111.547 198.687 110.896 197.615 110.29M197.614 110.289L152.543 84.9158C149.99 83.6565 146.97 83.6565 144.418 84.9157M143.487 83.1683C146.623 81.6106 150.337 81.6106 153.473 83.1683C153.489 83.1761 153.504 83.1842 153.519 83.1928L198.616 108.581C200.05 109.391 201 110.589 201 111.993C201 113.397 200.05 114.596 198.616 115.406L153.56 140.801C153.544 140.81 153.529 140.818 153.513 140.826C150.361 142.391 146.639 142.391 143.487 140.826C143.478 140.821 143.469 140.817 143.461 140.812C143.454 140.809 143.447 140.805 143.44 140.801L98.3845 115.406C96.9504 114.596 96 113.397 96 111.993C96 110.589 96.9496 109.391 98.3837 108.581L98.3846 108.58L143.441 83.193C143.456 83.1844 143.471 83.1762 143.487 83.1683Z" fill="#231F20"/>
<path fill-rule="evenodd" clip-rule="evenodd" d="M83.1297 117.51C83.3979 117.024 83.9937 116.856 84.4606 117.135L119.511 138.104C119.977 138.383 120.138 139.004 119.87 139.49C119.602 139.976 119.006 140.144 118.539 139.865L83.4894 118.896C83.0226 118.617 82.8615 117.996 83.1297 117.51Z" fill="#231F20"/>
<path fill-rule="evenodd" clip-rule="evenodd" d="M76.1353 121.5C76.4149 121.023 77.0362 120.858 77.523 121.133L109.49 139.139C109.976 139.413 110.144 140.022 109.865 140.5C109.585 140.977 108.964 141.142 108.477 140.867L76.5103 122.861C76.0235 122.587 75.8556 121.978 76.1353 121.5Z" fill="#231F20"/>
<path fill-rule="evenodd" clip-rule="evenodd" d="M70.1332 125.488C70.4086 125.023 71.0206 124.862 71.5001 125.129L107.497 145.187C107.977 145.454 108.142 146.047 107.867 146.512C107.591 146.977 106.979 147.138 106.5 146.871L70.5027 126.813C70.0232 126.546 69.8578 125.953 70.1332 125.488Z" fill="#231F20"/>
<path fill-rule="evenodd" clip-rule="evenodd" d="M63.1338 128.514C63.4104 128.024 64.025 127.855 64.5064 128.136L93.4953 145.089C93.9767 145.371 94.1428 145.996 93.8662 146.486C93.5896 146.976 92.975 147.145 92.4936 146.864L63.5047 129.911C63.0233 129.629 62.8572 129.004 63.1338 128.514Z" fill="#231F20"/>
<path fill-rule="evenodd" clip-rule="evenodd" d="M48.1378 137.509C48.4227 137.023 49.0556 136.856 49.5513 137.135L65.4804 146.106C65.9761 146.385 66.1471 147.005 65.8622 147.491C65.5773 147.977 64.9444 148.144 64.4487 147.865L48.5196 138.894C48.0239 138.615 47.8529 137.995 48.1378 137.509Z" fill="#231F20"/>
<path d="M75.0164 158L73 156.928L85.9836 150L88 151.072L75.0164 158Z" fill="#F05023"/>
<path d="M98.0164 171L96 169.921L108.984 163L111 164.071L98.0164 171Z" fill="#F05023"/>
<path d="M79.601 158L78 157.06L88.399 151L90 151.932L79.601 158Z" fill="#F05023"/>
<path d="M89.601 164L88 163.06L98.399 157L100 157.932L89.601 164Z" fill="#F05023"/>
<path d="M85.7356 162L84 161.06L95.2644 155L97 155.932L85.7356 162Z" fill="#F05023"/>
<path d="M83.4537 160L83 159.751L93.5383 154L94 154.249L83.4537 160Z" fill="#F05023"/>
<path d="M87.4537 163L87 162.709L97.5383 156L98 156.282L87.4537 163Z" fill="#F05023"/>
<path d="M82.1127 160L81 159.298L90.8948 153L92 153.702L82.1127 160Z" fill="#F05023"/>
<path d="M95.6021 168L94 167.068L104.398 161L106 161.94L95.6021 168Z" fill="#F05023"/>
<path d="M93.4537 166L93 165.751L103.546 160L104 160.249L93.4537 166Z" fill="#F05023"/>
<path d="M97.4537 168L97 167.751L107.538 162L108 162.249L97.4537 168Z" fill="#F05023"/>
<path d="M91.2065 165L90 164.289L100.793 158L102 158.702L91.2065 165Z" fill="#F05023"/>
<path fill-rule="evenodd" clip-rule="evenodd" d="M154.824 67.8129C156.987 66.729 159.544 66.729 161.707 67.8129C161.724 67.8211 161.74 67.8297 161.756 67.8387L166.762 70.6982C167.815 71.3064 168.605 72.1603 168.873 73.1955C169.152 74.2737 168.81 75.3434 168 76.2006L167.998 76.2029C167.575 76.6482 167.518 77.0336 167.597 77.3418C167.687 77.6937 168.014 78.1691 168.783 78.6112L202.831 98.0653C204.736 99.0147 206.943 99.1946 208.982 98.5686L208.985 98.5677C211.524 97.7966 214.267 98.0246 216.647 99.207C216.664 99.2158 216.682 99.225 216.699 99.2347L225.26 104.133C226.266 104.708 227 105.602 227 106.703C227 107.805 226.266 108.699 225.26 109.274L101.222 180.161C101.206 180.17 101.19 180.179 101.174 180.187C99.0105 181.271 96.4618 181.271 94.2985 180.187C94.2903 180.183 94.2821 180.179 94.2739 180.174C94.2659 180.17 94.258 180.166 94.2501 180.161L30.7475 143.868C30.7474 143.868 30.7476 143.868 30.7475 143.868C29.739 143.294 29 142.401 29 141.296C29 140.193 29.7382 139.299 30.7462 138.726C30.7467 138.726 30.7471 138.726 30.7475 138.725L154.776 67.8389C154.792 67.8298 154.808 67.8211 154.824 67.8129ZM155.749 69.5822L31.744 140.456L31.742 140.457C31.094 140.825 31.0044 141.166 31.0044 141.296C31.0044 141.427 31.094 141.768 31.742 142.136L31.744 142.137L95.2237 178.418C96.8069 179.202 98.6654 179.202 100.249 178.418L224.262 107.544C224.905 107.177 224.996 106.836 224.996 106.703C224.996 106.571 224.905 106.23 224.262 105.863L215.726 100.978C213.811 100.035 211.609 99.8559 209.57 100.475L209.277 99.5214L209.573 100.474C207.032 101.254 204.279 101.027 201.904 99.8337C201.888 99.8256 201.872 99.8171 201.857 99.8083L167.781 80.3381C166.718 79.7276 165.921 78.8735 165.655 77.8344C165.378 76.752 165.731 75.6854 166.542 74.8329C166.957 74.3928 167.013 74.0069 166.932 73.6926C166.839 73.3352 166.511 72.8601 165.757 72.4239C165.757 72.4235 165.756 72.4231 165.755 72.4227L160.782 69.5823C159.199 68.7982 157.333 68.7981 155.749 69.5822Z" fill="#F05023"/>
</svg>
