<svg width="256" height="256" viewBox="0 0 256 256" fill="none" xmlns="http://www.w3.org/2000/svg">
<g clip-path="url(#clip0_23304_36413)">
<path d="M30.8601 132.33C36.9301 127.63 47.1601 120.21 59.8901 112.95C74.1501 104.81 86.1701 99.3898 93.7801 96.2598C98.6801 94.2398 105.42 94.5598 109.71 97.0098L224.39 162.43C228.68 164.88 229.23 168.73 225.69 171.53C220.15 175.9 210.58 182.81 196.46 190.86C183.58 198.21 170.7 203.99 162.52 207.42C157.62 209.48 150.81 209.18 146.49 206.72L133.86 199.52L45.9501 149.37L32.1001 141.46C27.7901 139 27.2501 135.12 30.8601 132.33Z" fill="#BEDCE3"/>
<path d="M195.97 165.92C210.09 157.87 219.66 150.96 225.2 146.59C226.755 145.36 227.521 143.927 227.527 142.5V121.5L170 90.5H28.0273V112C28.2186 113.657 29.4357 115.278 31.6298 116.53L45.4598 124.42L133.37 174.58L146 181.78C150.32 184.24 157.13 184.54 162.03 182.48C170.21 179.05 183.09 173.27 195.97 165.92Z" fill="white"/>
<path fill-rule="evenodd" clip-rule="evenodd" d="M27.0273 90.5C27.0273 89.9477 27.4751 89.5 28.0273 89.5H170C170.165 89.5 170.328 89.5411 170.474 89.6197L228.001 120.62C228.325 120.794 228.527 121.132 228.527 121.5V142.5L228.527 142.504C228.519 144.316 227.543 146.011 225.82 147.374L225.819 147.375C220.242 151.775 210.63 158.713 196.465 166.789C183.537 174.166 170.617 179.964 162.416 183.402C157.253 185.573 150.115 185.274 145.505 182.649L145.505 182.649L132.875 175.449L132.874 175.448L44.9643 125.288L44.9642 125.288L31.1343 117.398L31.1341 117.398C28.7772 116.053 27.2744 114.199 27.0339 112.115C27.0295 112.077 27.0273 112.038 27.0273 112V90.5ZM29.0273 91.5V111.938C29.1897 113.155 30.1232 114.518 32.1253 115.661C32.1254 115.661 32.1254 115.661 32.1255 115.661L45.9553 123.551L45.9554 123.551L133.865 173.711L133.865 173.711L146.495 180.911C150.524 183.206 157.006 183.507 161.642 181.558L161.643 181.558C169.803 178.136 182.642 172.374 195.474 165.051L195.475 165.051C209.549 157.027 219.078 150.145 224.58 145.805C225.965 144.709 226.521 143.541 226.527 142.499C226.527 142.498 226.527 142.497 226.527 142.496L226.527 122.097L169.747 91.5H29.0273Z" fill="#231F20"/>
<path d="M30.3801 86.3998C36.4501 81.6998 46.6801 74.2798 59.4101 67.0198C73.6701 58.8798 85.6901 53.4498 93.3001 50.3198C98.2001 48.2998 104.94 48.6198 109.23 51.0698L223.9 116.49C228.19 118.94 228.74 122.79 225.2 125.59C219.66 129.96 210.09 136.87 195.97 144.92C183.09 152.27 170.21 158.05 162.03 161.48C157.13 163.54 150.32 163.24 146 160.78L133.37 153.58L45.4601 103.42L31.6301 95.5298C27.3201 93.0698 26.7801 89.1898 30.3801 86.3998Z" fill="white"/>
<path fill-rule="evenodd" clip-rule="evenodd" d="M108.734 51.9381C104.733 49.6533 98.3193 49.3323 93.6813 51.2443L93.6805 51.2446C86.1033 54.3611 74.1228 59.7728 59.9059 67.8882L59.9055 67.8884C47.2277 75.1187 37.0375 82.5097 30.9927 87.1902C29.3889 88.4331 28.8678 89.7767 29.0296 90.9522C29.1963 92.1644 30.1312 93.5228 32.1258 94.6613L45.9557 102.551L45.9557 102.551L133.865 152.711L133.866 152.711L146.495 159.911C150.525 162.205 157.007 162.507 161.643 160.558L161.643 160.558C169.803 157.136 182.643 151.374 195.475 144.051L195.475 144.051C209.549 136.027 219.077 129.146 224.58 124.805C226.155 123.559 226.664 122.221 226.496 121.05C226.324 119.842 225.39 118.492 223.404 117.358L108.735 51.9383L108.734 51.9381ZM109.726 50.2012C105.147 47.5863 98.0815 47.2673 92.9198 49.3949C85.2769 52.5384 73.2175 57.9867 58.9144 66.1513C46.1327 73.4408 35.8631 80.8895 29.7679 85.6091L29.7676 85.6093C27.7714 87.1564 26.7624 89.1478 27.0482 91.2248C27.3289 93.2651 28.8191 95.0767 31.1344 96.3983L31.1346 96.3983L44.9645 104.288L44.9646 104.288L132.875 154.448L132.875 154.449L145.505 161.649L145.505 161.649C150.115 164.274 157.253 164.573 162.417 162.402C170.617 158.963 183.537 153.166 196.466 145.788C210.631 137.713 220.242 130.774 225.819 126.375L225.82 126.374C227.785 124.82 228.771 122.833 228.476 120.767C228.186 118.737 226.701 116.938 224.396 115.621L224.396 115.621L109.726 50.2014C109.726 50.2013 109.726 50.2012 109.726 50.2012Z" fill="#231F20"/>
<path fill-rule="evenodd" clip-rule="evenodd" d="M90.6047 50.8054C90.8809 50.7005 91.1894 50.7231 91.4474 50.8672L144.826 80.682C146.595 81.6931 147.779 83.1007 148.01 84.7258C148.246 86.3874 147.444 87.9567 145.919 89.1555C141.721 92.4651 134.5 97.6732 123.865 103.739C114.157 109.276 104.457 113.634 98.3064 116.212C94.3659 117.861 88.9399 117.645 85.408 115.631L85.4039 115.629L32.2723 85.9634C31.9815 85.801 31.7906 85.5046 31.7632 85.1727C31.7357 84.8408 31.8753 84.517 32.1354 84.3091L32.7598 85.0902C32.1354 84.3091 32.1354 84.3091 32.1354 84.3091L32.1384 84.3067L32.1464 84.3004L32.1768 84.2761L32.2953 84.1822C32.3996 84.0998 32.554 83.9784 32.7557 83.821C33.1592 83.5062 33.7521 83.0475 34.5129 82.4699C36.0343 81.3147 38.2276 79.6835 40.919 77.7757C46.2994 73.9617 53.6817 69.0347 61.6743 64.596C69.655 60.1639 76.8818 56.7187 82.1144 54.381C84.731 53.2119 86.8501 52.3194 88.3166 51.7185C89.0498 51.418 89.62 51.1905 90.0078 51.0377C90.2017 50.9613 90.35 50.9035 90.4503 50.8648L90.5644 50.8208L90.5939 50.8095L90.6047 50.8054C90.6047 50.8054 90.6047 50.8054 90.9598 51.7402L90.6047 50.8054ZM90.8828 52.8427C90.8388 52.8599 90.7915 52.8785 90.741 52.8984C90.3612 53.0481 89.7994 53.2723 89.0749 53.5692C87.6257 54.163 85.526 55.0473 82.9302 56.207C77.7378 58.5268 70.5646 61.9465 62.6453 66.3445C54.7379 70.7358 47.4201 75.6188 42.0756 79.4073C39.4045 81.3007 37.229 82.9189 35.7223 84.0628C35.2749 84.4025 34.8865 84.7003 34.5617 84.951L86.3956 113.892C89.3437 115.575 94.1152 115.798 97.5331 114.368C103.643 111.807 113.262 107.484 122.874 102.002C133.419 95.9872 140.558 90.8354 144.681 87.585L144.682 87.5839C145.816 86.6928 146.139 85.7726 146.03 85.0072C145.916 84.2055 145.285 83.2491 143.838 82.4208L143.834 82.4185L90.8828 52.8427Z" fill="#F05023"/>
<path d="M137.5 167.361C139 174.361 141.5 180.361 145 182.361C108.987 161.828 39.2929 122.103 33.8054 119.027C33.7006 118.976 33.5987 118.921 33.4999 118.861C33.3953 118.799 33.5026 118.857 33.8054 119.027C36.3527 120.261 40.5837 118.914 41.9999 111.361C43.5 103.361 48.4999 100.361 53.9999 103.361C59.4999 106.361 114 137.861 124.5 143.861C135 149.861 136 160.361 137.5 167.361Z" fill="white"/>
<path fill-rule="evenodd" clip-rule="evenodd" d="M37.5115 121.125C52.6166 129.7 106.487 160.404 139.564 179.262C141.447 180.336 143.263 181.371 145 182.361C143.495 181.501 142.175 179.902 141.04 177.801C139.535 175.016 138.355 171.351 137.5 167.361C137.346 166.642 137.197 165.886 137.043 165.102C135.694 158.252 133.921 149.245 124.5 143.861C120.783 141.737 111.552 136.418 100.932 130.298C81.554 119.131 57.5529 105.299 53.9999 103.361C48.4999 100.361 43.5 103.361 41.9999 111.361C41.1906 115.677 39.4622 117.967 37.6541 118.906C36.8866 119.305 36.1047 119.46 35.3727 119.424C34.8113 119.397 34.2792 119.256 33.8054 119.027C33.656 118.943 33.5542 118.886 33.502 118.858C33.4483 118.829 33.4469 118.83 33.4999 118.861C33.5987 118.921 33.7006 118.976 33.8054 119.027C34.0963 119.19 34.5676 119.456 35.2047 119.816C35.8222 120.166 36.5956 120.605 37.5115 121.125ZM39.6185 120.021C55.6953 129.153 105.6 157.596 138.025 176.082C137.002 173.596 136.181 170.75 135.544 167.78C135.384 167.031 135.23 166.26 135.073 165.473C133.701 158.584 132.092 150.503 123.508 145.598C119.766 143.46 110.494 138.116 99.8424 131.978C80.4855 120.823 56.576 107.045 53.0422 105.117C50.7948 103.891 48.9713 104.019 47.5864 104.916C46.0944 105.881 44.6601 108.026 43.9656 111.73C43.2155 115.73 41.6685 118.475 39.6185 120.021Z" fill="#231F20"/>
<path fill-rule="evenodd" clip-rule="evenodd" d="M216.536 141.399C216.884 141.828 216.819 142.458 216.391 142.806C203.804 153.032 188.026 160.799 171.732 168.602C171.234 168.84 170.637 168.63 170.398 168.132C170.16 167.634 170.37 167.036 170.868 166.798C187.194 158.98 202.756 151.307 215.129 141.254C215.558 140.905 216.188 140.971 216.536 141.399Z" fill="#231F20"/>
<path fill-rule="evenodd" clip-rule="evenodd" d="M158.406 93.7446C158.406 93.7448 158.405 93.7445 158.406 93.7446L162.106 95.8146C162.583 96.084 162.945 96.5094 162.945 97.0451C162.945 97.5808 162.583 98.0062 162.106 98.2756L162.104 98.2762L150.149 104.979C149.664 105.244 149.064 105.363 148.491 105.363C147.919 105.363 147.32 105.244 146.839 104.978L146.836 104.976L143.136 102.906L143.134 102.906C142.657 102.636 142.295 102.211 142.295 101.675C142.295 101.139 142.657 100.714 143.134 100.445L143.135 100.444L155.084 93.7446C155.084 93.7445 155.084 93.7447 155.084 93.7446C155.567 93.4723 156.17 93.3501 156.745 93.3501C157.319 93.3501 157.923 93.4724 158.406 93.7446ZM156.745 94.3501C156.295 94.3501 155.872 94.4482 155.576 94.6156L155.574 94.6162L143.626 101.316C143.625 101.316 143.626 101.315 143.626 101.316C143.324 101.486 143.295 101.636 143.295 101.675C143.295 101.714 143.323 101.864 143.625 102.034C143.625 102.034 143.625 102.034 143.625 102.034L147.321 104.102C147.322 104.102 147.322 104.103 147.323 104.103C147.621 104.267 148.042 104.363 148.491 104.363C148.94 104.363 149.364 104.267 149.668 104.102L161.614 97.4046C161.614 97.4045 161.614 97.4047 161.614 97.4046C161.916 97.2341 161.945 97.0844 161.945 97.0451C161.945 97.0058 161.917 96.8564 161.615 96.6859C161.615 96.6858 161.615 96.6861 161.615 96.6859L157.916 94.6165L157.914 94.6156C157.617 94.4482 157.195 94.3501 156.745 94.3501Z" fill="#231F20"/>
<path fill-rule="evenodd" clip-rule="evenodd" d="M141.156 103.404C141.156 103.404 141.155 103.404 141.156 103.404L144.856 105.474C145.333 105.744 145.695 106.169 145.695 106.705C145.695 107.24 145.333 107.666 144.856 107.935L144.854 107.936L132.906 114.635C132.905 114.635 132.906 114.635 132.906 114.635C132.422 114.908 131.82 115.03 131.245 115.03C130.67 115.03 130.068 114.908 129.585 114.636C129.585 114.636 129.585 114.636 129.585 114.636L125.886 112.566L125.884 112.565C125.407 112.296 125.045 111.87 125.045 111.335C125.045 110.799 125.407 110.374 125.884 110.104L125.885 110.104L137.834 103.404C137.834 103.404 137.834 103.404 137.834 103.404C138.317 103.132 138.92 103.01 139.495 103.01C140.069 103.01 140.673 103.132 141.156 103.404ZM139.495 104.01C139.045 104.01 138.622 104.108 138.326 104.275L138.324 104.276L126.376 110.975C126.375 110.975 126.376 110.975 126.376 110.975C126.074 111.146 126.045 111.295 126.045 111.335C126.045 111.374 126.073 111.523 126.375 111.694C126.375 111.694 126.375 111.694 126.375 111.694L130.076 113.764C130.372 113.932 130.795 114.03 131.245 114.03C131.695 114.03 132.117 113.932 132.414 113.764L132.415 113.764L144.364 107.064C144.364 107.064 144.364 107.064 144.364 107.064C144.666 106.894 144.695 106.744 144.695 106.705C144.695 106.665 144.667 106.516 144.365 106.346C144.365 106.345 144.365 106.346 144.365 106.346L140.666 104.276L140.664 104.275C140.367 104.108 139.945 104.01 139.495 104.01Z" fill="#231F20"/>
<path fill-rule="evenodd" clip-rule="evenodd" d="M123.906 113.064C123.906 113.065 123.905 113.064 123.906 113.064L127.606 115.134C128.083 115.404 128.445 115.829 128.445 116.365C128.445 116.901 128.083 117.326 127.606 117.595L127.604 117.596L115.656 124.295C115.655 124.296 115.656 124.295 115.656 124.295C115.172 124.568 114.57 124.69 113.995 124.69C113.42 124.69 112.818 124.568 112.335 124.296C112.335 124.296 112.335 124.296 112.335 124.296L108.636 122.226L108.634 122.225C108.157 121.956 107.795 121.531 107.795 120.995C107.795 120.459 108.157 120.034 108.634 119.764L108.635 119.764L120.584 113.064C120.584 113.064 120.584 113.065 120.584 113.064C121.067 112.792 121.67 112.67 122.245 112.67C122.819 112.67 123.423 112.792 123.906 113.064ZM122.245 113.67C121.795 113.67 121.372 113.768 121.076 113.935L121.074 113.936L109.126 120.635C109.125 120.636 109.126 120.635 109.126 120.635C108.824 120.806 108.795 120.956 108.795 120.995C108.795 121.034 108.823 121.184 109.125 121.354C109.125 121.354 109.125 121.354 109.125 121.354L112.826 123.424C113.122 123.592 113.545 123.69 113.995 123.69C114.445 123.69 114.867 123.592 115.164 123.424L115.165 123.424L127.114 116.724C127.114 116.724 127.114 116.725 127.114 116.724C127.416 116.554 127.445 116.404 127.445 116.365C127.445 116.326 127.417 116.176 127.115 116.006C127.115 116.006 127.115 116.006 127.115 116.006L123.416 113.936L123.414 113.935C123.117 113.768 122.695 113.67 122.245 113.67Z" fill="#231F20"/>
<path fill-rule="evenodd" clip-rule="evenodd" d="M167.106 98.6147C167.106 98.6149 167.106 98.6146 167.106 98.6147L170.806 100.685C171.283 100.954 171.645 101.38 171.645 101.915C171.645 102.451 171.283 102.876 170.806 103.146L170.805 103.146L158.856 109.846C158.856 109.846 158.856 109.846 158.856 109.846C158.373 110.118 157.77 110.24 157.195 110.24C156.621 110.24 156.018 110.118 155.535 109.846C155.535 109.846 155.535 109.846 155.535 109.846L151.836 107.777L151.834 107.776C151.357 107.506 150.995 107.081 150.995 106.545C150.995 106.01 151.357 105.584 151.834 105.315L151.836 105.314L163.784 98.6147C163.785 98.6146 163.784 98.6148 163.784 98.6147C164.268 98.3424 164.87 98.2202 165.445 98.2202C166.02 98.2202 166.623 98.3425 167.106 98.6147ZM165.445 99.2202C164.995 99.2202 164.573 99.3183 164.276 99.4857L164.275 99.4863L152.326 106.186C152.326 106.186 152.326 106.186 152.326 106.186C152.024 106.356 151.995 106.506 151.995 106.545C151.995 106.584 152.023 106.734 152.325 106.904C152.325 106.904 152.325 106.904 152.325 106.904L156.026 108.975C156.323 109.142 156.745 109.24 157.195 109.24C157.645 109.24 158.068 109.142 158.364 108.975L158.366 108.974L170.314 102.275C170.315 102.275 170.314 102.275 170.314 102.275C170.616 102.104 170.645 101.954 170.645 101.915C170.645 101.876 170.617 101.727 170.315 101.556C170.315 101.556 170.315 101.556 170.315 101.556L166.616 99.4866L166.614 99.4857C166.318 99.3183 165.895 99.2202 165.445 99.2202Z" fill="#231F20"/>
<path fill-rule="evenodd" clip-rule="evenodd" d="M149.856 108.274C149.856 108.275 149.856 108.274 149.856 108.274L153.556 110.344C154.033 110.614 154.395 111.039 154.395 111.575C154.395 112.111 154.033 112.536 153.556 112.805L153.555 112.806L141.606 119.505C141.606 119.505 141.606 119.505 141.606 119.505C141.123 119.778 140.52 119.9 139.945 119.9C139.371 119.9 138.768 119.778 138.285 119.506C138.285 119.506 138.285 119.506 138.285 119.506L134.586 117.436L134.584 117.435C134.107 117.166 133.745 116.741 133.745 116.205C133.745 115.669 134.107 115.244 134.584 114.974L134.586 114.974L146.534 108.274C146.535 108.274 146.534 108.274 146.534 108.274C147.018 108.002 147.62 107.88 148.195 107.88C148.77 107.88 149.373 108.002 149.856 108.274ZM148.195 108.88C147.745 108.88 147.323 108.978 147.026 109.145L147.025 109.146L135.076 115.845C135.076 115.845 135.076 115.845 135.076 115.845C134.774 116.016 134.745 116.166 134.745 116.205C134.745 116.244 134.773 116.394 135.075 116.564C135.075 116.564 135.075 116.564 135.075 116.564L138.776 118.634C139.073 118.802 139.495 118.9 139.945 118.9C140.395 118.9 140.818 118.802 141.114 118.634L141.116 118.634L153.064 111.934C153.065 111.934 153.064 111.934 153.064 111.934C153.366 111.764 153.395 111.614 153.395 111.575C153.395 111.536 153.367 111.386 153.065 111.216C153.065 111.216 153.065 111.216 153.065 111.216L149.366 109.146L149.364 109.145C149.068 108.978 148.645 108.88 148.195 108.88Z" fill="#231F20"/>
<path fill-rule="evenodd" clip-rule="evenodd" d="M132.606 117.935C132.606 117.935 132.606 117.934 132.606 117.935L136.306 120.005C136.783 120.274 137.145 120.699 137.145 121.235C137.145 121.771 136.783 122.196 136.306 122.466L136.305 122.466L124.356 129.166C124.356 129.166 124.356 129.165 124.356 129.166C123.873 129.438 123.27 129.56 122.695 129.56C122.121 129.56 121.518 129.438 121.035 129.166C121.035 129.166 121.035 129.166 121.035 129.166L117.336 127.096L117.334 127.096C116.857 126.826 116.495 126.401 116.495 125.865C116.495 125.329 116.857 124.904 117.334 124.635L117.336 124.634L129.284 117.935C129.285 117.934 129.284 117.935 129.284 117.935C129.768 117.662 130.37 117.54 130.945 117.54C131.52 117.54 132.123 117.662 132.606 117.935ZM130.945 118.54C130.495 118.54 130.073 118.638 129.776 118.806L129.775 118.806L117.826 125.506C117.826 125.506 117.826 125.505 117.826 125.506C117.524 125.676 117.495 125.826 117.495 125.865C117.495 125.904 117.523 126.054 117.825 126.224C117.825 126.224 117.825 126.224 117.825 126.224L121.526 128.295C121.823 128.462 122.245 128.56 122.695 128.56C123.145 128.56 123.568 128.462 123.864 128.295L123.866 128.294L135.814 121.595C135.815 121.594 135.814 121.595 135.814 121.595C136.116 121.424 136.145 121.274 136.145 121.235C136.145 121.196 136.117 121.046 135.815 120.876C135.815 120.876 135.815 120.876 135.815 120.876L132.116 118.806L132.114 118.806C131.818 118.638 131.395 118.54 130.945 118.54Z" fill="#231F20"/>
<path fill-rule="evenodd" clip-rule="evenodd" d="M175.805 103.484C175.806 103.484 175.805 103.484 175.805 103.484L179.505 105.554C179.983 105.824 180.345 106.249 180.345 106.785C180.345 107.321 179.983 107.746 179.505 108.015L179.504 108.016L167.555 114.715C167.555 114.715 167.556 114.715 167.555 114.715C167.072 114.988 166.47 115.11 165.895 115.11C165.32 115.11 164.718 114.988 164.235 114.716C164.235 114.716 164.235 114.716 164.235 114.716L160.536 112.646L160.534 112.645C160.057 112.376 159.695 111.951 159.695 111.415C159.695 110.879 160.057 110.454 160.534 110.184L160.535 110.184L172.484 103.484C172.484 103.484 172.484 103.484 172.484 103.484C172.967 103.212 173.57 103.09 174.145 103.09C174.719 103.09 175.322 103.212 175.805 103.484ZM174.145 104.09C173.695 104.09 173.272 104.188 172.975 104.355L172.974 104.356L161.025 111.055C161.025 111.055 161.026 111.055 161.025 111.055C160.724 111.226 160.695 111.376 160.695 111.415C160.695 111.454 160.723 111.604 161.025 111.774C161.025 111.774 161.025 111.774 161.025 111.774L164.725 113.844C165.022 114.012 165.445 114.11 165.895 114.11C166.345 114.11 166.767 114.012 167.064 113.844L167.065 113.844L179.014 107.144C179.014 107.144 179.014 107.144 179.014 107.144C179.316 106.974 179.345 106.824 179.345 106.785C179.345 106.746 179.317 106.596 179.015 106.426C179.015 106.426 179.015 106.426 179.015 106.426L175.316 104.356L175.314 104.355C175.017 104.188 174.595 104.09 174.145 104.09Z" fill="#231F20"/>
<path fill-rule="evenodd" clip-rule="evenodd" d="M158.555 113.154C158.556 113.154 158.555 113.154 158.555 113.154L162.255 115.224C162.733 115.494 163.095 115.919 163.095 116.455C163.095 116.99 162.733 117.416 162.255 117.685L162.254 117.686L150.301 124.388C149.819 124.653 149.218 124.772 148.645 124.772C148.072 124.772 147.471 124.653 146.988 124.388L146.986 124.386L143.286 122.316L143.284 122.315C142.807 122.046 142.445 121.62 142.445 121.085C142.445 120.549 142.807 120.124 143.284 119.854L143.285 119.854L155.234 113.154C155.234 113.154 155.234 113.154 155.234 113.154C155.717 112.882 156.32 112.76 156.895 112.76C157.469 112.76 158.072 112.882 158.555 113.154ZM156.895 113.76C156.445 113.76 156.022 113.858 155.725 114.025L155.724 114.026L143.775 120.725C143.775 120.725 143.776 120.725 143.775 120.725C143.474 120.896 143.445 121.045 143.445 121.085C143.445 121.124 143.473 121.273 143.775 121.444C143.775 121.444 143.775 121.444 143.775 121.444L147.471 123.512C147.472 123.512 147.472 123.512 147.472 123.513C147.77 123.676 148.194 123.772 148.645 123.772C149.096 123.772 149.519 123.676 149.817 123.513C149.817 123.512 149.818 123.512 149.818 123.512L161.764 116.814C161.764 116.814 161.764 116.814 161.764 116.814C162.066 116.644 162.095 116.494 162.095 116.455C162.095 116.416 162.067 116.266 161.765 116.096C161.765 116.096 161.765 116.096 161.765 116.096L158.066 114.026L158.064 114.025C157.767 113.858 157.345 113.76 156.895 113.76Z" fill="#231F20"/>
<path fill-rule="evenodd" clip-rule="evenodd" d="M141.305 122.814C141.306 122.815 141.305 122.814 141.305 122.814L145.005 124.884C145.483 125.154 145.845 125.579 145.845 126.115C145.845 126.651 145.483 127.076 145.005 127.345L145.004 127.346L133.055 134.045C133.055 134.046 133.056 134.045 133.055 134.045C132.572 134.318 131.97 134.44 131.395 134.44C130.82 134.44 130.218 134.318 129.735 134.046C129.735 134.046 129.735 134.046 129.735 134.046L126.036 131.976L126.034 131.975C125.557 131.706 125.195 131.281 125.195 130.745C125.195 130.209 125.557 129.784 126.034 129.514L126.035 129.514L137.984 122.814C137.984 122.814 137.984 122.815 137.984 122.814C138.467 122.542 139.07 122.42 139.645 122.42C140.219 122.42 140.822 122.542 141.305 122.814ZM139.645 123.42C139.195 123.42 138.772 123.518 138.475 123.685L138.474 123.686L126.525 130.385C126.525 130.386 126.526 130.385 126.525 130.385C126.224 130.556 126.195 130.706 126.195 130.745C126.195 130.784 126.223 130.934 126.525 131.104C126.525 131.104 126.525 131.104 126.525 131.104L130.225 133.174C130.522 133.342 130.945 133.44 131.395 133.44C131.845 133.44 132.267 133.342 132.564 133.174L132.565 133.174L144.514 126.474C144.514 126.474 144.514 126.475 144.514 126.474C144.816 126.304 144.845 126.154 144.845 126.115C144.845 126.076 144.817 125.926 144.515 125.756C144.515 125.756 144.515 125.756 144.515 125.756L140.816 123.686L140.814 123.685C140.517 123.518 140.095 123.42 139.645 123.42Z" fill="#231F20"/>
<path fill-rule="evenodd" clip-rule="evenodd" d="M184.506 108.365C184.506 108.365 184.505 108.365 184.506 108.365L188.206 110.435C188.683 110.704 189.045 111.13 189.045 111.665C189.045 112.201 188.683 112.626 188.206 112.896L188.205 112.896L176.256 119.596C176.256 119.596 176.256 119.596 176.256 119.596C175.773 119.868 175.17 119.99 174.595 119.99C174.02 119.99 173.418 119.868 172.935 119.596C172.935 119.596 172.935 119.596 172.935 119.596L169.236 117.527L169.234 117.526C168.757 117.256 168.395 116.831 168.395 116.295C168.395 115.76 168.757 115.334 169.234 115.065L169.235 115.064L181.184 108.365C181.185 108.365 181.184 108.365 181.184 108.365C181.667 108.092 182.27 107.97 182.845 107.97C183.42 107.97 184.023 108.092 184.506 108.365ZM182.845 108.97C182.395 108.97 181.972 109.068 181.676 109.236L181.675 109.236L169.726 115.936C169.725 115.936 169.726 115.936 169.726 115.936C169.424 116.106 169.395 116.256 169.395 116.295C169.395 116.334 169.423 116.484 169.725 116.654C169.725 116.655 169.725 116.654 169.725 116.654L173.426 118.725C173.722 118.892 174.145 118.99 174.595 118.99C175.045 118.99 175.468 118.892 175.764 118.725L175.765 118.724L187.714 112.025C187.715 112.025 187.714 112.025 187.714 112.025C188.016 111.854 188.045 111.704 188.045 111.665C188.045 111.626 188.017 111.477 187.715 111.306C187.715 111.306 187.715 111.306 187.715 111.306L184.016 109.237L184.014 109.236C183.718 109.068 183.295 108.97 182.845 108.97Z" fill="#231F20"/>
<path fill-rule="evenodd" clip-rule="evenodd" d="M167.256 118.024C167.256 118.025 167.255 118.024 167.256 118.024L170.956 120.094C171.433 120.364 171.795 120.789 171.795 121.325C171.795 121.861 171.433 122.286 170.956 122.555L170.955 122.556L159.006 129.255C159.006 129.255 159.006 129.255 159.006 129.255C158.523 129.528 157.92 129.65 157.345 129.65C156.77 129.65 156.168 129.528 155.685 129.256C155.685 129.256 155.685 129.256 155.685 129.256L151.986 127.186L151.984 127.185C151.507 126.916 151.145 126.491 151.145 125.955C151.145 125.419 151.507 124.994 151.984 124.724L151.985 124.724L163.934 118.024C163.935 118.024 163.934 118.024 163.934 118.024C164.417 117.752 165.02 117.63 165.595 117.63C166.17 117.63 166.773 117.752 167.256 118.024ZM165.595 118.63C165.145 118.63 164.722 118.728 164.426 118.895L164.425 118.896L152.476 125.595C152.476 125.595 152.476 125.595 152.476 125.595C152.174 125.766 152.145 125.916 152.145 125.955C152.145 125.994 152.173 126.144 152.475 126.314C152.475 126.314 152.475 126.314 152.475 126.314L156.176 128.384C156.472 128.552 156.895 128.65 157.345 128.65C157.795 128.65 158.218 128.552 158.514 128.384L170.464 121.684C170.465 121.684 170.464 121.685 170.464 121.684C170.766 121.514 170.795 121.364 170.795 121.325C170.795 121.286 170.767 121.136 170.465 120.966C170.465 120.966 170.465 120.966 170.465 120.966L166.766 118.896L166.764 118.895C166.468 118.728 166.045 118.63 165.595 118.63Z" fill="#231F20"/>
<path fill-rule="evenodd" clip-rule="evenodd" d="M150.006 127.685C150.006 127.685 150.005 127.684 150.006 127.685L153.706 129.755C154.183 130.024 154.545 130.449 154.545 130.985C154.545 131.521 154.183 131.946 153.706 132.216L153.705 132.216L141.756 138.916C141.756 138.916 141.756 138.915 141.756 138.916C141.273 139.188 140.67 139.31 140.095 139.31C139.52 139.31 138.918 139.188 138.435 138.916C138.435 138.916 138.435 138.916 138.435 138.916L134.736 136.846L134.734 136.846C134.257 136.576 133.895 136.151 133.895 135.615C133.895 135.079 134.257 134.654 134.734 134.385L134.735 134.384L146.684 127.685C146.685 127.684 146.684 127.685 146.684 127.685C147.167 127.412 147.77 127.29 148.345 127.29C148.92 127.29 149.523 127.412 150.006 127.685ZM148.345 128.29C147.895 128.29 147.472 128.388 147.176 128.556L147.175 128.556L135.226 135.256C135.225 135.256 135.226 135.255 135.226 135.256C134.924 135.426 134.895 135.576 134.895 135.615C134.895 135.654 134.923 135.804 135.225 135.974C135.225 135.974 135.225 135.974 135.225 135.974L138.926 138.045C139.222 138.212 139.645 138.31 140.095 138.31C140.545 138.31 140.968 138.212 141.264 138.045L141.265 138.044L153.214 131.345C153.215 131.344 153.214 131.345 153.214 131.345C153.516 131.174 153.545 131.024 153.545 130.985C153.545 130.946 153.517 130.796 153.215 130.626C153.215 130.626 153.215 130.626 153.215 130.626L149.516 128.556L149.514 128.556C149.218 128.388 148.795 128.29 148.345 128.29Z" fill="#231F20"/>
<path fill-rule="evenodd" clip-rule="evenodd" d="M193.206 113.245C193.206 113.245 193.206 113.244 193.206 113.245L194.296 113.854C195.492 114.528 196.215 115.481 196.215 116.545C196.215 117.609 195.492 118.562 194.296 119.236L194.295 119.236L184.956 124.466C184.956 124.466 184.956 124.465 184.956 124.466C184.473 124.738 183.87 124.86 183.296 124.861C182.722 124.863 182.121 124.744 181.639 124.478L181.636 124.476L177.936 122.406L177.935 122.406C177.457 122.136 177.095 121.711 177.095 121.175C177.095 120.639 177.457 120.214 177.935 119.945L177.936 119.944L189.885 113.245C189.885 113.244 189.884 113.245 189.885 113.245C190.368 112.972 190.971 112.85 191.545 112.85C192.12 112.85 192.723 112.972 193.206 113.245ZM191.545 113.85C191.095 113.85 190.673 113.948 190.376 114.116L190.375 114.116L178.426 120.816C178.426 120.816 178.426 120.815 178.426 120.816C178.124 120.986 178.095 121.136 178.095 121.175C178.095 121.214 178.123 121.364 178.425 121.534C178.425 121.534 178.425 121.534 178.425 121.534L182.122 123.602C182.122 123.602 182.122 123.603 182.123 123.603C182.42 123.767 182.844 123.862 183.294 123.861C183.745 123.86 184.168 123.762 184.465 123.595L184.466 123.594L193.805 118.364C193.805 118.364 193.805 118.365 193.805 118.364C194.828 117.788 195.215 117.111 195.215 116.545C195.215 115.979 194.828 115.302 193.805 114.726C193.805 114.726 193.806 114.726 193.805 114.726L192.716 114.116L192.715 114.116C192.418 113.948 191.995 113.85 191.545 113.85Z" fill="#F05023"/>
<path fill-rule="evenodd" clip-rule="evenodd" d="M175.956 122.895C175.956 122.895 175.956 122.894 175.956 122.895L179.656 124.965C180.133 125.234 180.495 125.659 180.495 126.195C180.495 126.731 180.133 127.156 179.656 127.425L179.655 127.426L167.706 134.125C167.706 134.126 167.706 134.125 167.706 134.125C167.223 134.398 166.62 134.52 166.045 134.52C165.471 134.52 164.868 134.398 164.385 134.126C164.385 134.126 164.385 134.126 164.385 134.126L160.686 132.056L160.685 132.055C160.207 131.786 159.845 131.361 159.845 130.825C159.845 130.289 160.207 129.864 160.685 129.595L160.686 129.594L172.635 122.895C172.635 122.894 172.634 122.895 172.635 122.895C173.118 122.622 173.721 122.5 174.295 122.5C174.87 122.5 175.473 122.622 175.956 122.895ZM174.295 123.5C173.845 123.5 173.423 123.598 173.126 123.765L173.125 123.766L161.176 130.465C161.176 130.466 161.176 130.465 161.176 130.465C160.874 130.636 160.845 130.786 160.845 130.825C160.845 130.864 160.873 131.014 161.175 131.184C161.175 131.184 161.175 131.184 161.175 131.184L164.876 133.255C165.173 133.422 165.595 133.52 166.045 133.52C166.495 133.52 166.918 133.422 167.215 133.255L167.216 133.254L179.165 126.555C179.165 126.554 179.164 126.555 179.165 126.555C179.467 126.384 179.495 126.234 179.495 126.195C179.495 126.156 179.467 126.006 179.165 125.836C179.165 125.836 179.165 125.836 179.165 125.836L175.466 123.766L175.465 123.765C175.168 123.598 174.745 123.5 174.295 123.5Z" fill="#F05023"/>
<path fill-rule="evenodd" clip-rule="evenodd" d="M158.706 132.564C158.706 132.565 158.706 132.564 158.706 132.564L162.406 134.634C162.883 134.904 163.245 135.329 163.245 135.865C163.245 136.401 162.883 136.826 162.406 137.095L162.405 137.096L153.066 142.326C153.065 142.326 153.066 142.325 153.066 142.326C151.863 143.003 150.318 143.327 148.799 143.329C147.281 143.33 145.734 143.008 144.527 142.337L144.526 142.336L143.436 141.726L143.435 141.725C142.957 141.456 142.595 141.031 142.595 140.495C142.595 139.959 142.957 139.534 143.435 139.264L143.436 139.264L155.385 132.564C155.385 132.564 155.384 132.565 155.385 132.564C155.868 132.292 156.471 132.17 157.045 132.17C157.62 132.17 158.223 132.292 158.706 132.564ZM157.045 133.17C156.595 133.17 156.173 133.268 155.876 133.435L155.875 133.436L143.926 140.135C143.926 140.136 143.926 140.135 143.926 140.135C143.624 140.306 143.595 140.456 143.595 140.495C143.595 140.534 143.623 140.684 143.925 140.854C143.925 140.854 143.925 140.854 143.925 140.854L145.013 141.463C145.013 141.463 145.013 141.463 145.013 141.463C146.036 142.031 147.405 142.33 148.799 142.329C150.193 142.327 151.558 142.027 152.575 141.454L152.576 141.454L161.915 136.224C161.915 136.224 161.914 136.225 161.915 136.224C162.216 136.054 162.245 135.904 162.245 135.865C162.245 135.826 162.217 135.676 161.915 135.506C161.915 135.506 161.915 135.506 161.915 135.506L158.216 133.436L158.215 133.435C157.918 133.268 157.495 133.17 157.045 133.17Z" fill="#F05023"/>
<path fill-rule="evenodd" clip-rule="evenodd" d="M152.163 90.0191C155.175 88.3628 158.826 88.369 161.831 90.0356L203.269 113.011C206.012 114.532 206.018 118.473 203.28 120.002L152.398 148.41C149.354 150.11 145.645 150.102 142.609 148.388L101.198 125.017C98.4685 123.477 98.49 119.539 101.236 118.029L152.163 90.0191ZM160.862 91.7847C158.457 90.4515 155.536 90.4465 153.127 91.7715L102.2 119.781C100.827 120.537 100.816 122.506 102.181 123.276L143.592 146.646C146.021 148.017 148.988 148.024 151.423 146.664L202.305 118.256C203.674 117.491 203.671 115.52 202.299 114.76L160.862 91.7847Z" fill="#231F20"/>
<path fill-rule="evenodd" clip-rule="evenodd" d="M94.2983 62.0346C96.8154 60.6502 99.867 60.6555 102.379 62.0484L137.014 81.2519C139.306 82.5228 139.311 85.8172 137.023 87.0949L94.495 110.84C91.9507 112.26 88.8502 112.253 86.3124 110.821L51.7001 91.2871C49.419 89.9998 49.437 86.7083 51.7321 85.446L94.2983 62.0346ZM101.569 63.5104C99.5589 62.396 97.1176 62.3918 95.1039 63.4993L52.5377 86.9108C51.3902 87.5419 51.3812 89.1876 52.5217 89.8313L87.134 109.365C89.1643 110.511 91.6446 110.516 93.6801 109.38L136.208 85.6353C137.352 84.9965 137.35 83.3493 136.203 82.7138L101.569 63.5104Z" fill="#231F20"/>
</g>
<defs>
<clipPath id="clip0_23304_36413">
<rect width="201.53" height="160.78" fill="white" transform="translate(27 48)"/>
</clipPath>
</defs>
</svg>
