<svg width="256" height="256" viewBox="0 0 256 256" fill="none" xmlns="http://www.w3.org/2000/svg">
<path d="M30.62 178.33L101.22 218.56C102.412 219.244 103.761 219.603 105.135 219.603C106.509 219.603 107.858 219.244 109.05 218.56L225.38 151.94C225.501 151.871 225.601 151.771 225.67 151.651C225.74 151.531 225.776 151.394 225.776 151.255C225.776 151.116 225.74 150.98 225.67 150.86C225.601 150.739 225.501 150.64 225.38 150.57L150.46 107.57L30.61 177C30.4991 177.073 30.4081 177.172 30.3455 177.288C30.2828 177.405 30.2505 177.536 30.2515 177.668C30.2525 177.8 30.2868 177.931 30.3512 178.046C30.4156 178.162 30.508 178.26 30.62 178.33Z" fill="#BEDCE3"/>
<path d="M192.69 40.6599C190.41 39.6599 190.63 41.7299 188.39 40.6599C186.15 39.5899 185.94 37.5199 183.78 36.5199C183.78 36.5199 173 33.6999 161.78 51.5199" fill="white"/>
<path d="M201.19 110.77L119.71 192.11C115.309 196.419 109.627 199.181 103.52 199.98C97.4127 200.779 91.2113 199.572 85.85 196.54C68.85 186.89 45.28 173.54 38.97 169.92C36.49 168.48 31.73 164.43 31.73 154.76" fill="white"/>
<path d="M51.41 145.39L189.41 90.7603C189.64 90.895 189.836 91.0806 189.984 91.3028C190.131 91.5249 190.226 91.7778 190.26 92.0422C190.295 92.3065 190.269 92.5753 190.184 92.828C190.099 93.0807 189.957 93.3106 189.77 93.5003L106.77 178.61C106.495 178.894 106.133 179.078 105.742 179.132C105.35 179.187 104.952 179.109 104.61 178.91L51.79 148.14C51.5599 148.005 51.3634 147.819 51.2153 147.597C51.0671 147.375 50.9712 147.122 50.9346 146.857C50.8981 146.593 50.9219 146.323 51.0042 146.069C51.0865 145.815 51.2253 145.583 51.41 145.39Z" fill="white"/>
<path d="M32.8999 151.31L139.13 43.22C139.953 42.3827 141.029 41.8407 142.192 41.6779C143.355 41.5152 144.539 41.7409 145.56 42.32L205.56 76.32C211.73 80.38 213.56 84.65 214.56 88.98C216.73 98.62 222.98 128.74 222.98 128.74C225.11 135.15 223.39 140.44 217.4 143.99L192 158.64C179.66 165.72 168.87 163.18 156.55 156.07" fill="white"/>
<path fill-rule="evenodd" clip-rule="evenodd" d="M150.67 67.7396C150.952 67.2647 151.566 67.1083 152.041 67.3903L189.946 89.8974C189.947 89.898 189.948 89.8987 189.949 89.8993C190.309 90.111 190.616 90.4018 190.847 90.7499C191.079 91.099 191.227 91.4964 191.282 91.9118C191.336 92.3272 191.295 92.7496 191.162 93.1467C191.029 93.5426 190.807 93.903 190.514 94.2005C190.513 94.2014 190.512 94.2022 190.511 94.2031L107.519 179.306C107.518 179.306 107.518 179.307 107.517 179.307C107.087 179.751 106.521 180.038 105.909 180.123C105.297 180.208 104.673 180.086 104.138 179.775L104.137 179.774L51.2869 149.004L51.2827 149.002C50.9226 148.79 50.6151 148.499 50.3832 148.151C50.1514 147.804 50.0012 147.408 49.944 146.994C49.8868 146.58 49.924 146.158 50.0529 145.761C50.1817 145.363 50.3989 145 50.6881 144.698L50.691 144.695L97.0885 96.6874L97.8 97.3902C97.0886 96.6875 97.0884 96.6875 97.0885 96.6874L97.0893 96.6867L97.764 96.0039C98.2018 95.561 98.8398 94.9159 99.6407 94.1066C101.242 92.4881 103.495 90.213 106.101 87.587C111.313 82.3353 117.938 75.6785 123.585 70.0612C123.976 69.6717 124.61 69.6734 124.999 70.0649C125.389 70.4565 125.387 71.0897 124.995 71.4791C119.353 77.0918 112.732 83.745 107.521 88.9958C104.916 91.621 102.663 93.8954 101.062 95.5134C100.262 96.3224 99.624 96.9673 99.1864 97.41L98.5226 98.0817L98.5191 98.0851L98.5143 98.0901L98.5122 98.0922L52.132 146.082C52.1316 146.083 52.1311 146.083 52.1307 146.083C52.051 146.167 51.9911 146.268 51.9555 146.377C51.9197 146.488 51.9093 146.605 51.9252 146.72C51.9411 146.835 51.9829 146.945 52.0473 147.042C52.1115 147.138 52.1966 147.219 52.2962 147.278C52.2966 147.278 52.297 147.278 52.2973 147.278L105.142 178.045C105.291 178.131 105.464 178.165 105.634 178.142C105.804 178.118 105.962 178.038 106.082 177.915L106.084 177.912L189.084 92.802L189.089 92.7972C189.169 92.716 189.23 92.6174 189.266 92.5091C189.303 92.4008 189.314 92.2856 189.299 92.1723C189.284 92.0591 189.243 91.9507 189.18 91.8555C189.117 91.7602 189.033 91.6807 188.934 91.623L188.929 91.62L151.019 69.11C150.545 68.828 150.388 68.2145 150.67 67.7396Z" fill="#231F20"/>
<path d="M215.24 52.0596C214.791 50.4237 212.79 48.9196 210.64 47.9296C209.29 47.3096 208.8 47.8696 208.07 48.1196C207.769 48.2136 207.452 48.2435 207.138 48.2073C206.825 48.1712 206.522 48.0698 206.25 47.9096C204.06 46.9096 203.88 44.7996 201.6 43.7496C199.32 42.6996 199.54 44.8196 197.31 43.7496C196.578 43.3994 195.935 42.8863 195.43 42.2496C194.749 41.1572 193.807 40.2503 192.69 39.6096C192.363 39.4057 191.986 39.2976 191.6 39.2976C191.215 39.2976 190.837 39.4057 190.51 39.6096H188.39C186.15 38.6096 185.94 36.4696 183.78 35.4696C183.78 35.4696 172.818 33.6084 161.598 51.4284L191.581 68.4149C194.309 64.159 195.787 60.853 199.807 57.6686C205.564 53.1096 211.488 55.6523 215.24 52.0596Z" fill="#BEDCE3"/>
<path fill-rule="evenodd" clip-rule="evenodd" d="M183.946 34.4834C183.947 34.4836 183.948 34.4837 183.78 35.4696L183.948 34.4837C184.035 34.4986 184.12 34.5249 184.201 34.5622C185.491 35.1598 186.213 36.1013 186.794 36.8593C186.812 36.8833 186.831 36.9072 186.849 36.9308C187.408 37.6598 187.862 38.2232 188.617 38.6096H190.254C190.672 38.405 191.132 38.2976 191.6 38.2976C192.166 38.2976 192.721 38.4545 193.203 38.7507C194.439 39.4629 195.483 40.4643 196.247 41.6689C196.651 42.1676 197.162 42.5703 197.742 42.8474L197.743 42.8481C198.19 43.0627 198.409 43.0673 198.504 43.0581C198.615 43.0474 198.707 43.0096 198.975 42.8702C198.984 42.8654 198.993 42.8605 199.003 42.8555C199.25 42.7264 199.652 42.5166 200.18 42.4624C200.742 42.4047 201.338 42.5278 202.019 42.8413C203.393 43.474 204.136 44.4386 204.737 45.2198L204.751 45.2381C205.364 46.0329 205.823 46.6151 206.666 47C206.697 47.0144 206.728 47.0304 206.758 47.048C206.909 47.1372 207.078 47.1938 207.253 47.2139C207.423 47.2336 207.596 47.2183 207.76 47.1689C207.855 47.1354 207.943 47.0947 208.078 47.0323C208.107 47.0188 208.139 47.0043 208.173 46.9886C208.351 46.9066 208.596 46.798 208.885 46.7271C209.524 46.5704 210.216 46.6344 211.058 47.0209L211.059 47.0213C212.194 47.5443 213.316 48.2137 214.227 48.9918C215.124 49.7576 215.904 50.7023 216.205 51.7946C216.302 52.1488 216.197 52.5279 215.932 52.7819C213.909 54.7185 211.329 55.0815 208.89 55.4247C208.732 55.4469 208.574 55.4691 208.418 55.4916C205.772 55.8715 203.084 56.3494 200.428 58.4525C197.38 60.8668 195.896 63.3022 194.02 66.381C193.527 67.1906 193.006 68.0446 192.423 68.9544C192.137 69.4016 191.551 69.5468 191.089 69.285L161.105 52.2985C160.867 52.1638 160.695 51.9376 160.628 51.6726C160.561 51.4076 160.606 51.1268 160.751 50.8956C166.451 41.8431 172.144 37.7011 176.505 35.8463C178.681 34.921 180.506 34.5733 181.806 34.461C182.456 34.4048 182.973 34.4075 183.337 34.4257C183.519 34.4348 183.663 34.4478 183.766 34.4593C183.817 34.465 183.858 34.4704 183.888 34.4747C183.904 34.4768 183.916 34.4787 183.926 34.4802L183.939 34.4823L183.944 34.4831L183.946 34.4834ZM183.492 36.4416C183.43 36.4354 183.344 36.4286 183.237 36.4232C182.958 36.4092 182.532 36.4057 181.978 36.4535C180.873 36.5491 179.256 36.8499 177.288 37.6867C173.497 39.2992 168.332 42.9338 163.01 51.079L191.245 67.0749C191.587 66.5255 191.915 65.9868 192.236 65.4578C194.139 62.3286 195.834 59.5396 199.187 56.8847C202.288 54.4288 205.44 53.8986 208.133 53.5119C208.228 53.4982 208.323 53.4848 208.416 53.4714C210.758 53.1366 212.576 52.8766 214.038 51.773C213.806 51.3742 213.438 50.9476 212.929 50.513C212.19 49.8827 211.237 49.3052 210.223 48.8382C209.715 48.6049 209.486 48.6389 209.361 48.6696C209.268 48.6925 209.168 48.7321 209.008 48.806C208.987 48.8153 208.965 48.8256 208.941 48.8367C208.801 48.9021 208.603 48.9943 208.394 49.0657C208.386 49.0687 208.377 49.0715 208.368 49.0742C207.934 49.2098 207.476 49.2529 207.024 49.2007C206.589 49.1506 206.17 49.0138 205.79 48.7984C204.506 48.1983 203.793 47.2721 203.213 46.5183C203.198 46.4983 203.182 46.4784 203.167 46.4587C202.564 45.6755 202.078 45.0703 201.182 44.658C200.723 44.4465 200.491 44.4409 200.384 44.4519C200.263 44.4643 200.163 44.5062 199.899 44.644C199.889 44.6492 199.878 44.6546 199.868 44.6601C199.623 44.7881 199.222 44.9979 198.697 45.0487C198.136 45.1032 197.546 44.9717 196.879 44.6519C196.009 44.2359 195.245 43.6266 194.646 42.8704C194.623 42.8412 194.602 42.8107 194.582 42.7791C193.988 41.8265 193.167 41.0357 192.193 40.4771C192.182 40.471 192.172 40.4647 192.161 40.4582C191.993 40.3533 191.799 40.2976 191.6 40.2976C191.402 40.2976 191.208 40.3533 191.04 40.4582C190.881 40.5572 190.697 40.6096 190.51 40.6096H188.39C188.25 40.6096 188.111 40.58 187.983 40.5228C186.616 39.9127 185.872 38.9426 185.271 38.1603L185.262 38.1485C184.681 37.3916 184.239 36.8252 183.492 36.4416Z" fill="#231F20"/>
<path d="M178.8 133.2L156.51 156.07C163.74 160.25 173.51 165.42 185.51 161.68L178.8 133.2Z" fill="#BEDCE3"/>
<path fill-rule="evenodd" clip-rule="evenodd" d="M201.898 110.064C202.288 110.454 202.287 111.088 201.896 111.478L120.416 192.818L120.41 192.825C115.854 197.285 109.972 200.144 103.65 200.972C97.3275 201.799 90.9078 200.549 85.3577 197.41L85.3563 197.41C80.1376 194.447 74.2988 191.136 68.5299 187.864C55.5102 180.479 42.8468 173.297 38.4724 170.787L38.4678 170.785C35.729 169.195 30.73 164.84 30.73 154.76C30.73 154.208 31.1777 153.76 31.73 153.76C32.2823 153.76 32.73 154.208 32.73 154.76C32.73 164.017 37.2475 167.763 39.4696 169.054C43.8418 171.562 56.4956 178.739 69.511 186.121C75.2808 189.393 81.1217 192.706 86.3436 195.67C91.5159 198.595 97.4985 199.759 103.39 198.989C109.281 198.218 114.761 195.554 119.007 191.399C119.008 191.398 119.009 191.397 119.01 191.395L200.483 110.062C200.874 109.672 201.508 109.673 201.898 110.064Z" fill="#231F20"/>
<path fill-rule="evenodd" clip-rule="evenodd" d="M201.898 110.064C202.288 110.454 202.287 111.088 201.896 111.478L120.416 192.818L120.41 192.825C115.854 197.285 109.972 200.144 103.65 200.972C97.3275 201.799 90.9078 200.549 85.3577 197.41L85.3563 197.41C80.1376 194.447 74.2988 191.136 68.5299 187.864C55.5102 180.479 42.8468 173.297 38.4724 170.787L38.4678 170.785C35.729 169.195 30.73 164.84 30.73 154.76C30.73 154.208 31.1777 153.76 31.73 153.76C32.2823 153.76 32.73 154.208 32.73 154.76C32.73 164.017 37.2475 167.763 39.4696 169.054C43.8418 171.562 56.4956 178.739 69.511 186.121C75.2808 189.393 81.1217 192.706 86.3436 195.67C91.5159 198.595 97.4985 199.759 103.39 198.989C109.281 198.218 114.761 195.554 119.007 191.399C119.008 191.398 119.009 191.397 119.01 191.395L200.483 110.062C200.874 109.672 201.508 109.673 201.898 110.064Z" fill="#231F20"/>
<path fill-rule="evenodd" clip-rule="evenodd" d="M146.023 41.4603C146.023 41.4604 146.023 41.4603 146.023 41.4603L206.023 75.4602C206.042 75.4711 206.061 75.4827 206.079 75.4948C209.265 77.5911 211.372 79.7699 212.811 82.0201C214.249 84.2677 214.99 86.5382 215.504 88.7652L215.505 88.7706C216.592 93.5991 218.699 103.547 220.532 112.28C221.449 116.648 222.298 120.715 222.918 123.689C223.228 125.177 223.481 126.391 223.656 127.234L223.917 128.491C225.016 131.828 225.149 134.969 224.151 137.782C223.145 140.617 221.034 142.994 217.879 144.861L217.869 144.867L192.459 159.507L192.457 159.508C186.117 163.145 180.123 164.334 174.117 163.67C168.141 163.01 162.224 160.523 156.01 156.936C155.532 156.66 155.368 156.049 155.644 155.57C155.92 155.092 156.531 154.928 157.01 155.204C163.116 158.728 168.754 161.066 174.337 161.683C179.891 162.296 185.461 161.215 191.461 157.774M191.462 157.773L216.861 143.14C216.862 143.139 216.864 143.138 216.866 143.137C219.708 141.454 221.45 139.412 222.266 137.113C223.085 134.807 223.015 132.118 222.001 129.066C221.989 129.029 221.979 128.991 221.971 128.953L222.95 128.75C221.971 128.953 221.971 128.954 221.971 128.953L221.97 128.952L221.97 128.948L221.698 127.641C221.523 126.798 221.27 125.584 220.96 124.097C220.341 121.123 219.492 117.058 218.575 112.691C216.741 103.955 214.638 94.0248 213.555 89.2124C213.069 87.1104 212.395 85.0819 211.126 83.0978C209.862 81.1216 207.976 79.1415 205.008 77.1837L145.037 43.2002C144.207 42.7298 143.245 42.5463 142.301 42.6785C141.356 42.8107 140.482 43.2511 139.813 43.9312L33.6131 152.011C33.2806 152.349 33.0303 152.76 32.8823 153.21C32.7344 153.66 32.6924 154.139 32.7597 154.608C32.838 155.155 32.4584 155.662 31.9117 155.74C31.365 155.818 30.8583 155.439 30.7799 154.892C30.669 154.118 30.7382 153.329 30.9822 152.586C31.2262 151.843 31.6383 151.167 32.1865 150.609C32.1866 150.609 32.1864 150.609 32.1865 150.609L138.387 42.5293C139.364 41.535 140.643 40.8911 142.023 40.6978C143.404 40.5046 144.81 40.7727 146.023 41.4603" fill="#231F20"/>
<path d="M133.87 133.884L108.254 160.613C105.773 163.2 101.914 163.814 99.0064 162.08L75.3192 147.889C71.4336 145.559 70.909 140.109 74.2344 136.641L99.8511 109.913C102.332 107.325 106.191 106.712 109.098 108.446L132.786 122.637C136.671 124.966 137.196 130.417 133.87 133.884Z" fill="#FF6433"/>
<path fill-rule="evenodd" clip-rule="evenodd" d="M127.406 91.516C128.074 91.4914 128.635 92.0128 128.66 92.6806L129.147 105.899L164.048 96.6063C164.694 96.4344 165.357 96.8185 165.529 97.4643C165.701 98.11 165.317 98.7729 164.671 98.9448L128.304 108.628C127.949 108.723 127.569 108.65 127.274 108.431C126.978 108.212 126.797 107.871 126.784 107.503L126.242 92.7697C126.217 92.1019 126.738 91.5406 127.406 91.516Z" fill="#FF6433"/>
<path d="M114.202 119.507C113.535 119.124 112.495 119.32 111.873 119.96L113.082 120.663L114.202 119.516" fill="white"/>
<path d="M115.421 120.209L114.202 119.506L113.082 120.653L114.3 121.356L115.421 120.209Z" fill="white"/>
<path d="M116.025 120.556L115.42 120.209L114.86 120.778L114.291 121.356L114.896 121.703C115.225 121.889 115.749 121.792 116.06 121.472C116.372 121.151 116.345 120.742 116.016 120.556" fill="white"/>
<path d="M119.661 122.654C119.324 122.459 118.808 122.557 118.497 122.877C118.185 123.197 118.203 123.615 118.541 123.801C118.879 123.988 119.395 123.89 119.706 123.57C120.017 123.25 119.999 122.841 119.661 122.654Z" fill="white"/>
<path d="M122.08 124.05C121.742 123.855 121.226 123.953 120.915 124.273L120.346 124.851L121.555 125.553L122.125 124.975C122.436 124.655 122.409 124.246 122.08 124.05Z" fill="white"/>
<path d="M113.082 120.654L111.873 119.96L110.752 121.107L111.953 121.801L113.082 120.654Z" fill="white"/>
<path d="M117.323 123.108C116.985 122.912 116.469 123.019 116.158 123.339C115.847 123.659 115.865 124.068 116.203 124.255C116.541 124.442 117.056 124.353 117.368 124.033C117.679 123.713 117.661 123.295 117.323 123.108Z" fill="white"/>
<path d="M120.355 124.85L119.751 124.503C119.413 124.308 118.888 124.414 118.577 124.726C118.266 125.037 118.292 125.455 118.621 125.65L119.226 125.997L119.786 125.428L120.355 124.85Z" fill="white"/>
<path d="M121.564 125.553L120.355 124.851L119.235 125.998L119.839 126.344L120.444 126.691L121.564 125.544" fill="white"/>
<path d="M110.753 121.107C110.086 120.724 109.036 120.929 108.414 121.56L109.623 122.263L110.753 121.107Z" fill="white"/>
<path d="M111.953 121.8L110.752 121.107L109.623 122.254L110.823 122.956L111.953 121.8Z" fill="white"/>
<path d="M113.171 122.503L111.952 121.8L110.823 122.956L112.041 123.659L113.171 122.503Z" fill="white"/>
<path d="M114.38 123.205L113.171 122.503L112.042 123.659L113.251 124.352L114.38 123.205Z" fill="white"/>
<path d="M114.984 123.552L114.38 123.206L113.811 123.784L113.242 124.361L113.846 124.708C114.184 124.904 114.709 124.797 115.02 124.486C115.331 124.175 115.313 123.748 114.976 123.561" fill="white"/>
<path d="M120.435 126.7L119.83 126.353L119.226 126.006L118.657 126.584C118.345 126.904 118.354 127.313 118.692 127.509C119.03 127.705 119.555 127.598 119.866 127.287L120.435 126.709" fill="white"/>
<path d="M109.623 122.254L108.414 121.561L107.285 122.708L108.494 123.401L109.623 122.254Z" fill="white"/>
<path d="M110.823 122.956L109.614 122.254L108.494 123.401C109.161 123.783 110.201 123.588 110.823 122.947" fill="white"/>
<path d="M115.064 125.402C114.727 125.206 114.211 125.304 113.9 125.624L113.331 126.202L114.54 126.905L115.109 126.327C115.42 126.007 115.393 125.598 115.064 125.402Z" fill="white"/>
<path d="M108.494 123.401L107.284 122.708L106.164 123.855L107.373 124.548L108.494 123.401Z" fill="white"/>
<path d="M110.308 124.45C109.97 124.254 109.445 124.361 109.134 124.672C108.823 124.984 108.85 125.401 109.179 125.597C109.508 125.793 110.032 125.695 110.343 125.375C110.655 125.055 110.637 124.637 110.299 124.45" fill="white"/>
<path d="M114.549 126.905L113.34 126.202L112.219 127.349L113.428 128.052L114.549 126.905Z" fill="white"/>
<path d="M117.581 128.647C117.243 128.451 116.727 128.558 116.416 128.878C116.105 129.198 116.123 129.607 116.461 129.794C116.798 129.981 117.314 129.892 117.625 129.572C117.937 129.252 117.919 128.834 117.581 128.647Z" fill="white"/>
<path d="M107.373 124.548L106.164 123.854L105.035 125.002L106.244 125.704L107.373 124.548Z" fill="white"/>
<path d="M107.978 124.904L107.373 124.557L106.804 125.135L106.235 125.713L106.84 126.06C107.178 126.255 107.694 126.149 108.005 125.829C108.316 125.509 108.298 125.1 107.969 124.904" fill="white"/>
<path d="M111.002 126.646L110.397 126.3C110.059 126.104 109.534 126.211 109.223 126.522C108.912 126.833 108.93 127.26 109.268 127.447L109.872 127.794L110.441 127.216L111.01 126.638" fill="white"/>
<path d="M112.219 127.349L111.001 126.646L109.872 127.802L110.476 128.149L111.081 128.496L112.21 127.34" fill="white"/>
<path d="M113.428 128.052L112.219 127.349L111.09 128.505L112.299 129.199L113.428 128.052Z" fill="white"/>
<path d="M114.638 128.745L113.429 128.042L112.299 129.198L112.904 129.545L113.509 129.892L114.638 128.736" fill="white"/>
<path d="M115.242 129.101L114.638 128.754L114.069 129.332L113.5 129.91L114.104 130.257C114.442 130.452 114.967 130.346 115.278 130.034C115.589 129.723 115.571 129.296 115.233 129.11" fill="white"/>
<path d="M106.244 125.704L105.035 125.001L103.906 126.148L105.115 126.851L106.244 125.704Z" fill="white"/>
<path d="M108.058 126.753C107.72 126.558 107.196 126.664 106.884 126.976L106.324 127.545L107.542 128.247L108.103 127.678C108.414 127.358 108.396 126.94 108.058 126.753Z" fill="white"/>
<path d="M111.09 128.505L110.485 128.158L109.881 127.812L109.312 128.389C109.009 128.701 109.027 129.119 109.356 129.314C109.685 129.51 110.219 129.403 110.521 129.092L111.09 128.514" fill="white"/>
<path d="M113.509 129.901L112.904 129.554L112.299 129.207L111.73 129.785C111.428 130.096 111.446 130.514 111.775 130.71C112.104 130.905 112.628 130.799 112.939 130.487L113.509 129.909" fill="white"/>
<path d="M115.322 130.95C114.984 130.754 114.469 130.861 114.157 131.181L113.597 131.75L114.806 132.452L115.367 131.883C115.678 131.563 115.66 131.145 115.322 130.959" fill="white"/>
<path d="M105.115 126.851L103.906 126.148C103.283 126.78 103.319 127.616 103.986 127.998L105.115 126.842" fill="white"/>
<path d="M106.324 127.554L105.115 126.851L103.986 128.007L105.195 128.701L106.324 127.554Z" fill="white"/>
<path d="M107.542 128.247L106.324 127.544L105.195 128.7C105.862 129.083 106.92 128.887 107.542 128.247Z" fill="white"/>
<path d="M113.597 131.75C112.931 131.368 111.872 131.564 111.25 132.204L112.468 132.906L113.597 131.75Z" fill="white"/>
<path d="M114.807 132.444L113.597 131.75L112.468 132.897L113.678 133.599L114.807 132.444Z" fill="white"/>
<path d="M93.6889 122.058C93.3511 121.863 92.8353 121.96 92.5241 122.28L91.9551 122.858L93.1643 123.561L93.7334 122.983C94.0446 122.663 94.0179 122.254 93.6889 122.058Z" fill="white"/>
<path d="M96.7213 123.81C96.0544 123.428 95.0052 123.623 94.3828 124.255L95.601 124.957L96.7213 123.81Z" fill="white"/>
<path d="M97.9307 124.504L96.7214 123.81L95.6011 124.957L96.8103 125.651L97.9307 124.504Z" fill="white"/>
<path d="M99.1485 125.206L97.9304 124.503L96.8101 125.65L98.0193 126.353L99.1485 125.206Z" fill="white"/>
<path d="M100.358 125.908L99.1483 125.206L98.019 126.353L99.2283 127.056L100.358 125.908Z" fill="white"/>
<path d="M100.963 126.255L100.358 125.908L99.7981 126.477L99.229 127.055L99.8336 127.402C100.172 127.598 100.687 127.491 100.998 127.171C101.31 126.851 101.292 126.442 100.954 126.255" fill="white"/>
<path d="M110.05 131.501L109.445 131.154C109.107 130.959 108.591 131.057 108.28 131.377C107.969 131.697 107.978 132.106 108.316 132.301L108.92 132.648L109.489 132.07L110.05 131.501Z" fill="white"/>
<path d="M111.259 132.195L110.05 131.492L108.929 132.639L109.534 132.986L110.138 133.333L111.259 132.186" fill="white"/>
<path d="M112.468 132.897L111.259 132.195L110.13 133.342L111.348 134.044L112.468 132.897Z" fill="white"/>
<path d="M113.678 133.599L112.468 132.897L111.348 134.044L112.557 134.746L113.678 133.599Z" fill="white"/>
<path d="M116.105 134.996L115.5 134.649C115.162 134.453 114.647 134.551 114.336 134.871C114.024 135.191 114.042 135.609 114.38 135.796L114.985 136.143L115.554 135.565L116.114 134.996" fill="white"/>
<path d="M117.314 135.698L116.105 134.996L114.976 136.143L116.185 136.845L117.314 135.698Z" fill="white"/>
<path d="M118.524 136.401L117.314 135.698L116.185 136.845L117.403 137.548L118.524 136.401Z" fill="white"/>
<path d="M119.733 137.094L118.524 136.4L117.403 137.547L118.613 138.241L119.733 137.094Z" fill="white"/>
<path d="M120.346 137.45L119.742 137.103L119.181 137.672L118.612 138.25L119.217 138.597C119.555 138.792 120.071 138.686 120.382 138.366C120.693 138.046 120.675 137.637 120.337 137.45" fill="white"/>
<path d="M93.1733 123.552L91.9641 122.858L90.8438 124.005L92.053 124.699L93.1733 123.552Z" fill="white"/>
<path d="M95.6012 124.957L94.383 124.255L93.2627 125.402L94.472 126.104L95.6012 124.957Z" fill="white"/>
<path d="M96.8102 125.651L95.6009 124.957L94.4717 126.104L95.6809 126.798L96.8102 125.651Z" fill="white"/>
<path d="M98.0192 126.353L96.8099 125.65L95.6807 126.797L96.8988 127.5L98.0192 126.353Z" fill="white"/>
<path d="M101.656 128.452C100.989 128.069 99.9403 128.265 99.3179 128.896L100.536 129.599L101.656 128.452Z" fill="white"/>
<path d="M102.865 129.154L101.656 128.451L100.527 129.598L101.736 130.301L102.865 129.154Z" fill="white"/>
<path d="M104.074 129.847L102.865 129.154L101.736 130.301L102.945 130.994L104.074 129.847Z" fill="white"/>
<path d="M105.284 130.55L104.075 129.848L102.945 130.995L104.163 131.697L105.284 130.55Z" fill="white"/>
<path d="M106.493 131.252L105.284 130.55L104.164 131.697L105.373 132.399L106.493 131.252Z" fill="white"/>
<path d="M107.106 131.599L106.502 131.252L105.933 131.83L105.373 132.399L105.977 132.746C106.315 132.942 106.831 132.844 107.142 132.524C107.453 132.204 107.435 131.786 107.098 131.599" fill="white"/>
<path d="M110.13 133.342L109.525 132.995L108.92 132.648L108.351 133.226C108.04 133.546 108.067 133.956 108.396 134.151C108.725 134.347 109.249 134.249 109.561 133.929L110.13 133.351" fill="white"/>
<path d="M112.557 134.746L111.348 134.044L110.219 135.191L111.428 135.893L112.557 134.746Z" fill="white"/>
<path d="M112.557 134.747L111.437 135.894L112.646 136.596C113.269 135.965 113.233 135.138 112.557 134.747Z" fill="white"/>
<path d="M116.185 136.845L114.975 136.143L113.855 137.29L115.064 137.993L116.185 136.845Z" fill="white"/>
<path d="M120.426 139.29C120.088 139.094 119.564 139.201 119.253 139.512L118.692 140.081L119.911 140.784L120.471 140.215C120.782 139.895 120.764 139.477 120.426 139.29Z" fill="white"/>
<path d="M92.0529 124.699L90.8436 124.005L89.7144 125.161L90.9236 125.855L92.0529 124.699Z" fill="white"/>
<path d="M94.4718 126.104L93.2625 125.402L92.1333 126.558L93.3426 127.251L94.4718 126.104Z" fill="white"/>
<path d="M95.6808 126.798L94.4715 126.104L93.3423 127.251L94.5515 127.953L95.6808 126.798Z" fill="white"/>
<path d="M96.8991 127.5L95.681 126.797L94.5518 127.953L95.7699 128.656L96.8991 127.5Z" fill="white"/>
<path d="M98.1085 128.202L96.8993 127.5L95.77 128.656L96.9793 129.349L98.1085 128.202Z" fill="white"/>
<path d="M99.3175 128.896L98.1082 128.203L96.979 129.35L98.1883 130.052L99.3175 128.896Z" fill="white"/>
<path d="M100.527 129.598L99.3084 128.896L98.1792 130.052C98.8461 130.434 99.9042 130.239 100.527 129.598Z" fill="white"/>
<path d="M102.945 130.994L101.736 130.301L100.607 131.448L101.816 132.15L102.945 130.994Z" fill="white"/>
<path d="M104.163 131.697L102.945 130.995L101.816 132.151C102.483 132.533 103.541 132.337 104.163 131.697Z" fill="white"/>
<path d="M107.187 133.449C106.849 133.253 106.333 133.36 106.022 133.68C105.711 134 105.719 134.409 106.057 134.605C106.395 134.8 106.92 134.694 107.231 134.382C107.542 134.071 107.524 133.644 107.187 133.458" fill="white"/>
<path d="M110.218 135.191L109.614 134.844C109.276 134.649 108.751 134.755 108.44 135.066C108.129 135.378 108.147 135.804 108.484 135.991L109.089 136.338L109.658 135.76L110.227 135.182" fill="white"/>
<path d="M111.428 135.894L110.219 135.191L109.089 136.347L110.299 137.05L111.428 135.894Z" fill="white"/>
<path d="M112.637 136.587L111.428 135.894L110.298 137.049L111.508 137.743L112.637 136.587Z" fill="white"/>
<path d="M113.856 137.29L112.638 136.587L111.508 137.743L112.726 138.446L113.856 137.29Z" fill="white"/>
<path d="M115.065 137.992L113.855 137.29L112.726 138.445L113.935 139.139L115.065 137.992Z" fill="white"/>
<path d="M116.283 138.695L115.065 137.992L113.936 139.139L115.154 139.842L116.283 138.695Z" fill="white"/>
<path d="M116.878 139.041L116.274 138.694L115.705 139.272L115.136 139.85L115.74 140.197C116.078 140.393 116.603 140.286 116.914 139.975C117.225 139.664 117.207 139.237 116.87 139.05" fill="white"/>
<path d="M119.911 140.793L118.693 140.091C118.07 140.722 118.106 141.558 118.781 141.949L119.911 140.793Z" fill="white"/>
<path d="M119.91 140.793L118.781 141.949L119.991 142.651C120.613 142.02 120.577 141.184 119.91 140.802" fill="white"/>
<path d="M90.9242 125.855L89.715 125.152C89.0925 125.784 89.1281 126.611 89.8039 127.002L90.9242 125.855Z" fill="white"/>
<path d="M92.1329 126.557L90.9237 125.855L89.7944 127.002L91.0037 127.704L92.1329 126.557Z" fill="white"/>
<path d="M93.3424 127.251L92.1331 126.558L91.0039 127.705L92.2221 128.398L93.3424 127.251Z" fill="white"/>
<path d="M94.5513 127.954L93.342 127.251L92.2217 128.398L93.4309 129.101L94.5513 127.954Z" fill="white"/>
<path d="M96.9791 129.349L95.7699 128.656L94.6406 129.803L95.8499 130.496L96.9791 129.349Z" fill="white"/>
<path d="M101.816 132.15L100.607 131.448L99.4868 132.595L100.696 133.297L101.816 132.15Z" fill="white"/>
<path d="M104.244 133.547L103.639 133.2C103.301 133.004 102.785 133.102 102.474 133.422C102.163 133.742 102.181 134.16 102.519 134.347L103.123 134.694L103.692 134.116L104.253 133.547" fill="white"/>
<path d="M104.243 133.546L103.123 134.693L104.341 135.396C104.964 134.765 104.919 133.938 104.252 133.546" fill="white"/>
<path d="M110.299 137.05L109.089 136.347C108.467 136.978 108.503 137.805 109.178 138.197L110.299 137.05Z" fill="white"/>
<path d="M111.508 137.743L110.299 137.049L109.178 138.196L110.387 138.89L111.508 137.743Z" fill="white"/>
<path d="M113.936 139.139L112.726 138.446L111.606 139.593L112.815 140.286L113.936 139.139Z" fill="white"/>
<path d="M119.991 142.642L118.781 141.94L117.661 143.087L118.87 143.789L119.991 142.642Z" fill="white"/>
<path d="M93.4318 129.1L92.2225 128.398L91.0933 129.554L92.3025 130.247L93.4318 129.1Z" fill="white"/>
<path d="M94.6407 129.803L93.4315 129.101L92.3022 130.248L93.5204 130.95L94.6407 129.803Z" fill="white"/>
<path d="M95.8501 130.496L94.6409 129.803L93.5205 130.95L94.7298 131.643L95.8501 130.496Z" fill="white"/>
<path d="M97.0591 131.199L95.8498 130.497L94.7295 131.644L95.9388 132.346L97.0591 131.199Z" fill="white"/>
<path d="M97.6723 131.546L97.0677 131.199L96.4987 131.777L95.9385 132.346L96.5431 132.693C96.881 132.889 97.3967 132.791 97.7079 132.471C98.0191 132.151 98.0013 131.733 97.6635 131.546" fill="white"/>
<path d="M100.696 133.297L99.4866 132.595L98.3662 133.742L99.5755 134.444L100.696 133.297Z" fill="white"/>
<path d="M100.696 133.297L99.5752 134.444L100.793 135.147C101.407 134.516 101.371 133.689 100.704 133.297" fill="white"/>
<path d="M104.332 135.396L103.114 134.693C102.492 135.325 102.536 136.152 103.203 136.543L104.323 135.396" fill="white"/>
<path d="M105.542 136.098L104.333 135.396L103.212 136.543L104.422 137.245L105.542 136.098Z" fill="white"/>
<path d="M105.542 136.098L104.421 137.245L105.631 137.948C106.244 137.316 106.217 136.489 105.542 136.098Z" fill="white"/>
<path d="M110.387 138.89L109.178 138.196L108.058 139.343L109.267 140.037L110.387 138.89Z" fill="white"/>
<path d="M111.606 139.593L110.388 138.89L109.268 140.037L110.477 140.74L111.606 139.593Z" fill="white"/>
<path d="M112.815 140.286L111.606 139.593L110.477 140.74L111.686 141.433L112.815 140.286Z" fill="white"/>
<path d="M113.419 140.642L112.815 140.295L112.246 140.873L111.686 141.442L112.29 141.789C112.628 141.985 113.144 141.887 113.455 141.567C113.766 141.247 113.748 140.829 113.411 140.642" fill="white"/>
<path d="M116.443 142.385L115.839 142.038C115.501 141.842 114.976 141.949 114.665 142.26C114.354 142.571 114.38 142.989 114.709 143.185L115.314 143.532L115.874 142.963L116.443 142.385Z" fill="white"/>
<path d="M117.661 143.087L116.443 142.384L115.323 143.531L116.532 144.234L117.661 143.087Z" fill="white"/>
<path d="M118.87 143.789L117.661 143.087L116.541 144.234C117.207 144.616 118.248 144.421 118.87 143.78" fill="white"/>
<path d="M88.0605 127.802C87.7226 127.607 87.2069 127.713 86.8957 128.033L86.3267 128.611L87.5359 129.314L88.105 128.736C88.4162 128.416 88.3984 127.998 88.0605 127.811" fill="white"/>
<path d="M91.093 129.554C90.4261 129.172 89.368 129.367 88.7456 130.008L89.9638 130.71L91.093 129.554Z" fill="white"/>
<path d="M92.3024 130.248L91.0931 129.554L89.9639 130.701L91.1731 131.404L92.3024 130.248Z" fill="white"/>
<path d="M93.5202 130.95L92.3021 130.248L91.1729 131.403L92.391 132.106L93.5202 130.95Z" fill="white"/>
<path d="M94.7296 131.643L93.5203 130.95L92.3911 132.106L93.6004 132.799L94.7296 131.643Z" fill="white"/>
<path d="M98.3663 133.742C97.6995 133.36 96.6502 133.564 96.0278 134.196L97.2371 134.898L98.3663 133.742Z" fill="white"/>
<path d="M99.5753 134.445L98.3661 133.742L97.2368 134.898L98.4461 135.592L99.5753 134.445Z" fill="white"/>
<path d="M100.785 135.147L99.5667 134.444L98.4375 135.6C99.1044 135.983 100.162 135.787 100.785 135.147Z" fill="white"/>
<path d="M105.63 137.939L104.421 137.245L103.292 138.392L104.501 139.095L105.63 137.939Z" fill="white"/>
<path d="M108.058 139.343L107.453 138.997C107.115 138.801 106.6 138.908 106.288 139.228C105.977 139.548 105.986 139.957 106.324 140.153L106.929 140.499L107.498 139.921L108.067 139.343" fill="white"/>
<path d="M109.267 140.037L108.058 139.344L106.929 140.491L108.138 141.193L109.267 140.037Z" fill="white"/>
<path d="M111.686 141.433L110.476 140.74L109.347 141.896L110.556 142.589L111.686 141.433Z" fill="white"/>
<path d="M113.5 142.482C113.162 142.287 112.646 142.394 112.335 142.714L111.766 143.292L112.975 143.994L113.544 143.416C113.856 143.096 113.838 142.678 113.5 142.491" fill="white"/>
<path d="M116.532 144.234L115.323 143.531L114.193 144.687L115.403 145.39L116.532 144.234Z" fill="white"/>
<path d="M87.545 129.305L86.3358 128.603L85.2065 129.75L86.4158 130.452L87.545 129.305Z" fill="white"/>
<path d="M89.9636 130.701L88.7455 129.999C88.1231 130.63 88.1675 131.457 88.8344 131.848L89.9548 130.701" fill="white"/>
<path d="M91.1729 131.404L89.9636 130.701L88.8433 131.848L90.0525 132.551L91.1729 131.404Z" fill="white"/>
<path d="M93.6 132.8L92.3907 132.097C91.7683 132.728 91.8039 133.555 92.4797 133.947L93.6 132.8Z" fill="white"/>
<path d="M94.8096 133.502L93.6003 132.799L92.48 133.946L93.6892 134.649L94.8096 133.502Z" fill="white"/>
<path d="M96.028 134.195L94.8098 133.502L93.6895 134.649L94.8987 135.343L96.028 134.195Z" fill="white"/>
<path d="M97.2369 134.898L96.0277 134.195L94.8984 135.342L96.1077 136.045L97.2369 134.898Z" fill="white"/>
<path d="M98.4459 135.591L97.2367 134.898L96.1074 136.045L97.3167 136.747L98.4459 135.591Z" fill="white"/>
<path d="M100.865 136.997C100.198 136.614 99.1576 136.81 98.5352 137.45L99.7444 138.152L100.865 137.005" fill="white"/>
<path d="M101.478 137.343L100.874 136.997L100.305 137.575L99.7446 138.144L100.349 138.49C100.687 138.686 101.212 138.579 101.514 138.268C101.816 137.957 101.807 137.53 101.47 137.343" fill="white"/>
<path d="M104.501 139.095L103.292 138.392L102.172 139.539L102.777 139.886L103.381 140.233L104.501 139.086" fill="white"/>
<path d="M105.106 139.441L104.501 139.095L103.932 139.673L103.372 140.242L103.977 140.589C104.315 140.784 104.839 140.677 105.142 140.366C105.444 140.055 105.435 139.628 105.097 139.441" fill="white"/>
<path d="M108.138 141.193L106.929 140.491L105.799 141.638L107.009 142.34L108.138 141.193Z" fill="white"/>
<path d="M109.347 141.895L108.138 141.193L107.009 142.34L108.227 143.042L109.347 141.895Z" fill="white"/>
<path d="M110.556 142.589L109.347 141.896L108.227 143.043L109.436 143.736L110.556 142.589Z" fill="white"/>
<path d="M111.775 143.292L110.557 142.589L109.437 143.736L110.646 144.439L111.775 143.292Z" fill="white"/>
<path d="M112.984 143.994L111.775 143.292L110.655 144.439C111.322 144.821 112.362 144.625 112.984 143.985" fill="white"/>
<path d="M115.403 145.39L114.184 144.688C113.562 145.319 113.607 146.146 114.273 146.537L115.394 145.39" fill="white"/>
<path d="M115.403 145.39L114.282 146.537L114.887 146.884L115.491 147.23C116.114 146.599 116.069 145.772 115.403 145.381" fill="white"/>
<path d="M86.4161 130.452L85.2069 129.75L84.0776 130.905L84.6823 131.252L85.2869 131.599L86.4161 130.443" fill="white"/>
<path d="M90.0524 132.551L88.8431 131.848L87.7139 133.004L88.9231 133.698L90.0524 132.551Z" fill="white"/>
<path d="M90.6573 132.898L90.0527 132.551L89.4836 133.129L88.9146 133.707L89.5192 134.053C89.8571 134.249 90.3817 134.142 90.6929 133.831C91.0041 133.52 90.9863 133.093 90.6484 132.906" fill="white"/>
<path d="M94.8985 135.342L93.6893 134.649L92.5601 135.796L93.7693 136.498L94.8985 135.342Z" fill="white"/>
<path d="M97.317 136.747L96.1077 136.045L94.9785 137.201L95.5831 137.548L96.1878 137.894L97.317 136.738" fill="white"/>
<path d="M99.7443 138.143L98.535 137.441L97.4058 138.597L98.0104 138.944L98.615 139.29L99.7443 138.134" fill="white"/>
<path d="M103.372 140.241L102.767 139.895L102.163 139.548L101.594 140.126C101.283 140.446 101.3 140.864 101.638 141.051C101.976 141.237 102.492 141.139 102.803 140.819L103.372 140.241Z" fill="white"/>
<path d="M105.799 141.638C105.133 141.255 104.083 141.46 103.461 142.091L104.67 142.794L105.799 141.638Z" fill="white"/>
<path d="M107.008 142.34L105.799 141.638L104.67 142.794L105.879 143.487L107.008 142.34Z" fill="white"/>
<path d="M109.437 143.736L108.227 143.042L107.098 144.189L108.307 144.892L109.437 143.736Z" fill="white"/>
<path d="M110.646 144.438L109.436 143.736L108.307 144.892L109.516 145.594L110.646 144.438Z" fill="white"/>
<path d="M115.491 147.231L114.886 146.884L114.282 146.537L113.713 147.115C113.402 147.435 113.41 147.844 113.748 148.04C114.086 148.235 114.611 148.129 114.922 147.818L115.491 147.24" fill="white"/>
<path d="M85.2866 131.599L84.6819 131.253L84.0773 130.906L83.5171 131.475C83.2059 131.795 83.2237 132.204 83.5527 132.4C83.8817 132.595 84.4152 132.488 84.7264 132.177L85.2866 131.608" fill="white"/>
<path d="M87.7138 133.004L87.1092 132.657C86.7713 132.462 86.2556 132.559 85.9444 132.88C85.6332 133.2 85.651 133.618 85.9889 133.804L86.5935 134.151L87.1625 133.573L87.7227 133.004" fill="white"/>
<path d="M88.9233 133.698L87.7141 132.995L86.5938 134.142C87.2606 134.524 88.3098 134.32 88.9233 133.689" fill="white"/>
<path d="M91.3505 135.103L90.7459 134.756C90.408 134.56 89.8923 134.658 89.5811 134.978C89.2699 135.298 89.2877 135.707 89.6167 135.903L90.2213 136.25L90.7904 135.672L91.3505 135.103Z" fill="white"/>
<path d="M92.5597 135.796L91.3504 135.102L90.2212 136.249L91.4305 136.943L92.5597 135.796Z" fill="white"/>
<path d="M93.7692 136.498L92.551 135.796L91.4307 136.943C92.0975 137.325 93.1556 137.13 93.7692 136.498Z" fill="white"/>
<path d="M96.1875 137.895L95.5828 137.548L94.9782 137.201L94.418 137.77C94.1068 138.09 94.1246 138.508 94.4625 138.695C94.8004 138.882 95.3161 138.784 95.6273 138.464L96.1875 137.895Z" fill="white"/>
<path d="M98.6152 139.299L98.0106 138.952L97.4059 138.605L96.8458 139.175C96.5346 139.495 96.5523 139.913 96.8902 140.099C97.2281 140.286 97.7438 140.188 98.055 139.868L98.6152 139.299Z" fill="white"/>
<path d="M103.461 142.091L102.856 141.744C102.518 141.549 102.003 141.646 101.691 141.966C101.38 142.287 101.398 142.704 101.736 142.891L102.341 143.238L102.91 142.66L103.47 142.091" fill="white"/>
<path d="M104.67 142.794L103.461 142.091L102.341 143.238L103.55 143.941L104.67 142.794Z" fill="white"/>
<path d="M105.879 143.487L104.67 142.794L103.55 143.941L104.759 144.635L105.879 143.487Z" fill="white"/>
<path d="M107.098 144.19L105.88 143.487L104.759 144.634L105.969 145.337L107.098 144.19Z" fill="white"/>
<path d="M108.307 144.892L107.098 144.189L105.969 145.336L107.178 146.039L108.307 144.892Z" fill="white"/>
<path d="M109.516 145.595L108.307 144.892L107.178 146.039L108.396 146.742L109.516 145.595Z" fill="white"/>
<path d="M111.339 146.644C111.001 146.448 110.486 146.546 110.174 146.866C109.863 147.186 109.881 147.604 110.219 147.791C110.557 147.978 111.072 147.88 111.384 147.56C111.695 147.24 111.677 146.831 111.339 146.644Z" fill="white"/>
<path d="M93.2537 137.992C92.9158 137.797 92.4001 137.903 92.0889 138.223C91.7777 138.543 91.7955 138.953 92.1334 139.139C92.4713 139.326 92.987 139.237 93.2982 138.917C93.6094 138.597 93.5916 138.179 93.2537 137.992Z" fill="white"/>
<path d="M95.6721 139.397C95.3342 139.201 94.8096 139.308 94.4984 139.619C94.1872 139.93 94.2138 140.348 94.5428 140.544C94.8718 140.74 95.3964 140.642 95.7076 140.322C96.0188 140.002 96.0011 139.584 95.6632 139.397" fill="white"/>
<path d="M98.7039 141.14L98.0993 140.793C97.7614 140.598 97.2368 140.704 96.9256 141.016C96.6144 141.327 96.6411 141.745 96.9701 141.94L97.5747 142.287L98.1349 141.718L98.7039 141.14Z" fill="white"/>
<path d="M98.7038 141.14L97.5835 142.287L98.7927 142.989C99.4152 142.358 99.3707 141.531 98.7038 141.14Z" fill="white"/>
<path d="M103.55 143.941L102.341 143.238L101.211 144.385L102.421 145.088L103.55 143.941Z" fill="white"/>
<path d="M108.396 146.742L107.177 146.039L106.057 147.186L107.275 147.889L108.396 146.742Z" fill="white"/>
<path d="M109 147.088L108.396 146.742L107.827 147.32L107.267 147.889L107.871 148.235C108.209 148.431 108.725 148.333 109.036 148.013C109.347 147.693 109.329 147.275 108.992 147.088" fill="white"/>
<path d="M93.3424 139.842C93.0045 139.646 92.4799 139.753 92.1687 140.064L91.5996 140.642L92.8089 141.344L93.3779 140.766C93.6891 140.446 93.6714 140.037 93.3424 139.842Z" fill="white"/>
<path d="M98.7931 142.989L97.5838 142.287L96.4546 143.443L97.6638 144.145L98.7931 142.989Z" fill="white"/>
<path d="M99.3975 143.336L98.7929 142.989L98.2238 143.567L97.6548 144.145L98.2594 144.492C98.5973 144.688 99.113 144.581 99.4242 144.261C99.7354 143.941 99.7176 143.532 99.3887 143.336" fill="white"/>
<path d="M102.421 145.087L101.212 144.385L100.083 145.541L101.292 146.243L102.421 145.087Z" fill="white"/>
<path d="M104.244 146.137C103.906 145.941 103.381 146.048 103.07 146.359C102.759 146.67 102.776 147.097 103.114 147.284C103.452 147.47 103.977 147.373 104.288 147.061C104.599 146.75 104.581 146.323 104.244 146.137Z" fill="white"/>
<path d="M107.276 147.888L106.057 147.186L104.928 148.333L106.146 149.035L107.276 147.888Z" fill="white"/>
<path d="M109.694 149.284L109.089 148.937C108.751 148.742 108.227 148.848 107.916 149.16C107.604 149.471 107.622 149.898 107.96 150.084L108.565 150.431L109.134 149.853L109.703 149.275" fill="white"/>
<path d="M110.903 149.987L109.694 149.285L108.565 150.432L109.774 151.134L110.903 149.987Z" fill="white"/>
<path d="M110.903 149.987L109.774 151.143L110.983 151.845C111.606 151.214 111.57 150.378 110.903 149.996" fill="white"/>
<path d="M91.5996 140.642C90.9328 140.26 89.8924 140.455 89.27 141.096L90.4793 141.798L91.5996 140.651" fill="white"/>
<path d="M92.8086 141.344L91.5993 140.642L90.479 141.789C91.1459 142.171 92.1862 141.975 92.8086 141.335" fill="white"/>
<path d="M96.4547 143.443C95.7878 143.06 94.7386 143.256 94.1162 143.887L94.7208 144.234L95.3255 144.581L96.4458 143.434" fill="white"/>
<path d="M97.6636 144.145L96.4543 143.443L95.334 144.59C96.0009 144.972 97.0412 144.777 97.6636 144.136" fill="white"/>
<path d="M101.292 146.243L100.082 145.541L98.9619 146.688L100.171 147.39L101.292 146.243Z" fill="white"/>
<path d="M106.146 149.036L104.928 148.333L103.808 149.481L105.017 150.183L106.146 149.036Z" fill="white"/>
<path d="M106.742 149.382L106.138 149.036L105.577 149.605L105.008 150.183L105.613 150.529C105.951 150.725 106.475 150.618 106.787 150.307C107.098 149.996 107.071 149.578 106.742 149.382Z" fill="white"/>
<path d="M109.774 151.134L108.565 150.432L107.436 151.579L108.654 152.281L109.774 151.134Z" fill="white"/>
<path d="M110.983 151.836L109.774 151.134L108.654 152.281L109.863 152.983L110.983 151.836Z" fill="white"/>
<path d="M90.4795 141.789L89.2702 141.095L88.1499 142.242L89.3592 142.936L90.4795 141.789Z" fill="white"/>
<path d="M95.3255 144.59L94.7209 144.243L94.1163 143.896L93.5472 144.474C93.236 144.794 93.2627 145.203 93.5917 145.399C93.9206 145.594 94.4453 145.496 94.7565 145.176L95.3255 144.598" fill="white"/>
<path d="M97.7435 145.986L97.1389 145.639C96.801 145.443 96.2764 145.55 95.9652 145.861C95.654 146.173 95.6806 146.59 96.0096 146.786L96.6143 147.133L97.1744 146.564L97.7435 145.986Z" fill="white"/>
<path d="M98.962 146.688L97.7439 145.986L96.6235 147.133L97.8328 147.835L98.962 146.688Z" fill="white"/>
<path d="M100.171 147.39L98.9618 146.688L97.8325 147.835L99.0418 148.537L100.171 147.39Z" fill="white"/>
<path d="M101.38 148.084L100.171 147.391L99.042 148.538L100.251 149.231L101.38 148.084Z" fill="white"/>
<path d="M102.598 148.786L101.38 148.084L100.26 149.231L100.864 149.578L101.469 149.925L102.589 148.778" fill="white"/>
<path d="M103.808 149.48L102.598 148.787L101.469 149.934L102.678 150.636L103.808 149.48Z" fill="white"/>
<path d="M105.017 150.183L103.808 149.48L102.679 150.636L103.897 151.33L105.017 150.183Z" fill="white"/>
<path d="M107.436 151.579C106.769 151.196 105.719 151.401 105.106 152.032L106.315 152.734L107.436 151.587" fill="white"/>
<path d="M108.653 152.281L107.435 151.579L106.315 152.726L107.524 153.428L108.653 152.281Z" fill="white"/>
<path d="M109.863 152.984L108.654 152.281L107.525 153.428L108.734 154.131L109.863 152.984Z" fill="white"/>
<path d="M89.359 142.936L88.1497 142.242L87.0205 143.389L88.2298 144.092L89.359 142.936Z" fill="white"/>
<path d="M89.3592 142.936L88.23 144.091L89.4392 144.794C90.0617 144.163 90.0261 143.327 89.3592 142.944" fill="white"/>
<path d="M101.469 149.934L100.865 149.587L100.26 149.24L99.691 149.818C99.3798 150.138 99.3976 150.556 99.7354 150.743C100.073 150.93 100.598 150.832 100.909 150.521L101.478 149.943" fill="white"/>
<path d="M103.896 151.329L102.678 150.627C102.056 151.258 102.091 152.094 102.767 152.485L103.896 151.329Z" fill="white"/>
<path d="M105.106 152.032L103.897 151.33L102.768 152.485L103.977 153.188L105.106 152.032Z" fill="white"/>
<path d="M106.315 152.725L105.106 152.032L103.977 153.188L105.186 153.881L106.315 152.725Z" fill="white"/>
<path d="M107.525 153.428L106.315 152.726L105.186 153.881L106.395 154.584L107.525 153.428Z" fill="white"/>
<path d="M108.734 154.131L107.525 153.428L106.396 154.584L107.605 155.278L108.734 154.131Z" fill="white"/>
<path d="M88.2294 144.092L87.0201 143.39C86.3977 144.021 86.4333 144.848 87.1091 145.239L88.2294 144.092Z" fill="white"/>
<path d="M89.439 144.794L88.2297 144.092L87.1094 145.239C87.7762 145.621 88.8166 145.426 89.439 144.785" fill="white"/>
<path d="M91.8574 146.19C91.1906 145.808 90.1502 146.003 89.5278 146.643L90.7371 147.346L91.8574 146.199" fill="white"/>
<path d="M92.4707 146.537L91.8661 146.19L91.3059 146.759L90.7368 147.337L91.3414 147.684C91.6793 147.88 92.2039 147.773 92.5151 147.462C92.8263 147.151 92.7997 146.733 92.4707 146.537Z" fill="white"/>
<path d="M103.977 153.188L102.767 152.485L101.638 153.632L102.847 154.335L103.977 153.188Z" fill="white"/>
<path d="M105.186 153.881L103.977 153.179L102.856 154.326C103.523 154.708 104.564 154.512 105.186 153.872" fill="white"/>
<path d="M107.605 155.278L106.395 154.584L105.275 155.731L106.484 156.425L107.605 155.278Z" fill="white"/>
<path d="M90.7369 147.337L89.5277 146.635L88.3984 147.791L89.0031 148.137L89.6077 148.484L90.7369 147.328" fill="white"/>
<path d="M94.3648 149.436L93.7602 149.089C93.4223 148.893 92.8977 149 92.5865 149.311C92.2753 149.622 92.2931 150.049 92.6309 150.236L93.2356 150.583L93.8046 150.005L94.3737 149.427" fill="white"/>
<path d="M95.5832 150.138L94.3651 149.436L93.2358 150.583L94.454 151.285L95.5832 150.138Z" fill="white"/>
<path d="M96.7926 150.832L95.5833 150.138L94.4541 151.285L95.6634 151.988L96.7926 150.832Z" fill="white"/>
<path d="M97.3971 151.187L96.7924 150.84L96.2234 151.418L95.6543 151.996L96.2589 152.343C96.5968 152.539 97.1125 152.432 97.4237 152.112C97.7349 151.792 97.7172 151.383 97.3882 151.187" fill="white"/>
<path d="M100.429 152.93C99.762 152.548 98.7127 152.752 98.0903 153.384L99.2996 154.086L100.429 152.93Z" fill="white"/>
<path d="M101.638 153.633L100.429 152.93L99.2998 154.086L100.509 154.789L101.638 153.633Z" fill="white"/>
<path d="M102.848 154.335L101.639 153.633L100.509 154.789L101.719 155.482L102.848 154.335Z" fill="white"/>
<path d="M106.484 156.425L105.275 155.731L104.146 156.887L105.355 157.58L106.484 156.425Z" fill="white"/>
<path d="M85.9716 146.395L85.367 146.048C85.0291 145.852 84.5134 145.95 84.2022 146.27C83.891 146.59 83.9088 146.999 84.2378 147.195L84.8424 147.542L85.4115 146.964L85.9716 146.395Z" fill="white"/>
<path d="M86.5849 146.741L85.9803 146.395L85.4201 146.964L84.8511 147.542L85.4557 147.888C85.7936 148.084 86.3093 147.977 86.6205 147.657C86.9317 147.337 86.9139 146.928 86.576 146.741" fill="white"/>
<path d="M89.6079 148.493L89.0032 148.147L88.3986 147.8L87.8384 148.369C87.5272 148.689 87.545 149.107 87.8829 149.294C88.2208 149.48 88.7365 149.383 89.0477 149.062L89.6079 148.493Z" fill="white"/>
<path d="M99.2996 154.086L98.0904 153.383C97.4769 154.015 97.5035 154.842 98.1793 155.233L99.2996 154.086Z" fill="white"/>
<path d="M100.509 154.788L99.3001 154.086L98.1709 155.233L99.3891 155.935L100.509 154.788Z" fill="white"/>
<path d="M101.718 155.482L100.509 154.789L99.3887 155.936L100.598 156.629L101.718 155.482Z" fill="white"/>
<path d="M102.928 156.184L101.718 155.482L100.598 156.629L101.807 157.331L102.928 156.184Z" fill="white"/>
<path d="M104.146 156.887L102.927 156.184L101.807 157.331L103.025 158.034L104.146 156.887Z" fill="white"/>
<path d="M105.355 157.58L104.146 156.878L103.025 158.025C103.692 158.407 104.741 158.203 105.355 157.571" fill="white"/>
<path d="M98.295 121.027C97.397 120.511 97.3347 119.409 98.1528 118.582L100.714 115.968C100.963 115.71 101.274 115.497 101.612 115.354C101.941 115.221 102.278 115.141 102.616 115.132C103.043 115.114 103.47 115.194 103.817 115.399L106.502 116.946C107.4 117.462 107.462 118.555 106.644 119.391L104.083 122.005C103.274 122.832 101.878 123.09 100.98 122.574L99.6377 121.801L98.295 121.027ZM107.676 115.745L104.99 114.198C103.683 113.443 101.763 113.62 100.313 114.536C100.162 114.625 100.02 114.732 99.8777 114.839C99.7266 114.963 99.5754 115.096 99.4332 115.23L96.8724 117.844C95.4053 119.338 95.5119 121.312 97.1124 122.227L98.4551 123.001L99.7977 123.775C101.398 124.699 103.888 124.228 105.355 122.734L107.916 120.12C109.383 118.626 109.285 116.661 107.676 115.737" fill="white"/>
<path d="M120.097 133.609C119.208 133.093 119.137 131.99 119.955 131.163L122.516 128.549C122.765 128.291 123.085 128.087 123.423 127.945C123.743 127.811 124.089 127.731 124.418 127.722C124.854 127.705 125.272 127.785 125.619 127.989L128.313 129.545C129.211 130.061 129.273 131.154 128.455 131.99L125.894 134.604C125.085 135.431 123.689 135.689 122.791 135.173L121.449 134.4L120.106 133.626L120.097 133.609ZM129.496 128.345L126.801 126.789C125.494 126.033 123.583 126.211 122.124 127.127C121.982 127.224 121.831 127.322 121.689 127.429C121.538 127.553 121.386 127.687 121.244 127.82L118.683 130.434C117.216 131.928 117.323 133.902 118.923 134.818L120.266 135.591L121.609 136.365C123.2 137.29 125.699 136.818 127.166 135.325L129.727 132.71C131.194 131.217 131.087 129.243 129.487 128.327" fill="white"/>
<path d="M78.022 141.709C77.1239 141.193 77.0617 140.091 77.8797 139.255L80.4316 136.65C80.6895 136.383 80.9918 136.178 81.3297 136.036C81.6586 135.903 81.9965 135.823 82.3344 135.805C82.7612 135.787 83.188 135.867 83.5348 136.072L86.22 137.619C87.1181 138.134 87.1803 139.237 86.3623 140.073L83.8104 142.678C82.9924 143.514 81.6053 143.772 80.7072 143.256L79.3646 142.482L78.022 141.709ZM87.4115 136.418L84.7262 134.871C83.4192 134.115 81.4986 134.293 80.0493 135.209C79.8892 135.307 79.7469 135.405 79.6136 135.52C79.4624 135.645 79.3113 135.769 79.169 135.911L76.6082 138.526C75.1411 140.019 75.2478 141.993 76.8483 142.909L78.1909 143.683L79.5335 144.456C81.134 145.381 83.6237 144.91 85.0908 143.407L87.6427 140.802C89.1098 139.308 89.012 137.334 87.4115 136.409" fill="white"/>
<path d="M105.906 118.306L102.269 116.208L98.8906 119.657L102.527 121.756L105.906 118.306Z" fill="white"/>
<path d="M127.708 130.897L124.072 128.798L120.693 132.239L124.33 134.338L127.708 130.897Z" fill="white"/>
<path d="M85.6332 138.997L81.9965 136.898L78.6177 140.339L82.2632 142.447L85.6332 138.997Z" fill="white"/>
<path fill-rule="evenodd" clip-rule="evenodd" d="M31.0034 152.611C31.2792 152.132 31.8907 151.968 32.3692 152.244L84.7992 182.464C85.2777 182.739 85.442 183.351 85.1662 183.829C84.8904 184.308 84.2789 184.472 83.8004 184.196L31.3704 153.976C30.8919 153.701 30.7276 153.089 31.0034 152.611Z" fill="#231F20"/>
</svg>
