<svg width="256" height="256" viewBox="0 0 256 256" fill="none" xmlns="http://www.w3.org/2000/svg">
<path d="M85.8001 65.3991L46.7001 90.0991L24.1001 103.099C24.1001 103.099 32.8001 111.199 56.2001 96.8991C56.2001 96.8991 56.3001 96.8991 56.3001 96.7991C59.0001 95.1991 59.2001 92.7991 56.9001 91.0991L96.0001 71.0991C98.8001 69.4991 98.8001 66.8991 96.0001 65.2991C93.2001 63.6991 88.7001 63.6991 85.8001 65.3991C85.9001 65.3991 85.9001 65.3991 85.8001 65.3991Z" fill="#BEDCE3"/>
<path d="M81.5002 62.6991L42.3002 87.3991L19.7002 100.399C19.7002 100.399 28.4002 108.499 51.8002 94.1991C51.8002 94.1991 51.9002 94.1991 51.9002 94.0991C54.6002 92.4991 54.8002 90.0991 52.5002 88.3991L91.6002 68.3991C94.4002 66.7991 94.4002 64.1991 91.6002 62.5991C88.8002 61.0991 84.3002 61.0991 81.5002 62.6991Z" fill="white"/>
<path d="M45.2998 85.9992C45.2998 85.9992 47.3998 85.9992 51.6998 89.0992C59.8998 84.8992 91.5998 68.4992 91.5998 68.4992C91.5998 68.4992 97.2998 65.2992 89.4998 61.4992C84.9998 59.7992 81.4998 62.6992 81.4998 62.6992L45.2998 85.9992Z" fill="#EF5023"/>
<path d="M167.5 188.399L169 189.299L189.8 178.299C191.5 177.299 191.9 175.899 191.1 174.599L233.1 152.799C235.9 151.199 236.2 148.799 233.8 147.499C231.4 146.099 227.3 146.299 224.5 147.899L186 171.899C183.9 171.599 181.7 171.899 180.2 172.699L161.3 184.899L162.6 185.599L167.5 188.399Z" fill="#BEDCE3"/>
<path d="M206.415 136.928C208.385 113.594 174.87 91.7126 131.557 88.0561C88.2444 84.3995 51.5355 100.352 49.5655 123.687C47.5955 147.022 81.1104 168.903 124.423 172.559C167.736 176.216 204.445 160.263 206.415 136.928Z" fill="#BEDCE3"/>
<path d="M202.7 114.199C195.2 95.0989 169.9 84.7989 132.4 84.7989C104.5 84.7989 81.9001 77.1989 70.6001 101.099C66.8001 109.199 64.3001 118.199 63.3001 127.799C62.2001 137.999 69.9001 146.699 83.6001 156.199C106.2 171.799 148.1 176.099 181.6 157.099C195.6 149.399 210.7 134.399 202.7 114.199Z" fill="#BEDCE3"/>
<path fill-rule="evenodd" clip-rule="evenodd" d="M69.5103 156.403C83.7835 164.738 103.602 169.985 125.578 170.104C147.553 170.223 167.427 165.19 181.79 157.009C196.179 148.813 204.856 137.58 204.922 125.331C204.988 113.083 196.433 101.756 182.133 93.4052C167.86 85.0697 148.042 79.8228 126.066 79.7041C104.09 79.5854 84.2163 84.6179 69.8539 92.7987C55.4649 100.995 46.7879 112.228 46.7218 124.477C46.6556 136.726 55.2107 148.052 69.5103 156.403ZM68.5017 158.13C53.9012 149.603 44.6501 137.733 44.7218 124.466C44.7934 111.199 54.1722 99.4294 68.864 91.0609C83.5825 82.6772 103.814 77.5838 126.077 77.7041C148.339 77.8243 168.515 83.136 183.142 91.6782C197.742 100.205 206.993 112.075 206.922 125.342C206.85 138.609 197.471 150.379 182.779 158.747C168.061 167.131 147.829 172.224 125.567 172.104C103.304 171.984 83.1287 166.672 68.5017 158.13Z" fill="black"/>
<path fill-rule="evenodd" clip-rule="evenodd" d="M86.5435 60.4867C88.4928 60.4733 90.4917 60.8708 92.0726 61.7177L92.0846 61.7241L92.0965 61.7309C93.6771 62.6341 94.7003 63.9614 94.7003 65.4991C94.7003 67.0369 93.6771 68.3641 92.0965 69.2674L92.0764 69.2789L54.2028 88.6516C54.84 89.4567 55.1688 90.3898 55.0705 91.3849C54.9351 92.756 54.0165 93.9423 52.6309 94.8239C52.5221 94.9483 52.4005 95.0296 52.2975 95.0811C52.2683 95.0957 52.2397 95.1084 52.212 95.1194C40.4576 102.282 32.2697 103.909 26.9288 103.661C24.25 103.536 22.307 102.939 21.0122 102.352C20.366 102.059 19.8846 101.769 19.5561 101.545C19.392 101.433 19.2661 101.337 19.1771 101.266C19.1326 101.23 19.0973 101.2 19.071 101.178C19.0578 101.166 19.0469 101.156 19.0383 101.149L19.0269 101.138L19.0225 101.134L19.0206 101.133C19.0197 101.132 19.0189 101.131 19.7003 100.399L19.0189 101.131L18.0273 100.208L41.7843 86.5424L80.9855 61.8416L81.0042 61.8309C82.5899 60.9248 84.5945 60.5 86.5435 60.4867ZM21.6393 100.437C21.7031 100.468 21.7695 100.499 21.8385 100.531C22.9062 101.015 24.6007 101.55 27.0219 101.663C31.8114 101.886 39.5214 100.458 50.9003 93.576V93.5293L51.3905 93.2388C52.5822 92.5326 53.0227 91.7707 53.0802 91.1883C53.1351 90.6326 52.8708 89.9165 51.9059 89.2033L50.6079 88.2439L91.1235 67.5198C92.3275 66.8259 92.7003 66.0584 92.7003 65.4991C92.7003 64.9387 92.326 64.1691 91.1161 63.4742C89.8981 62.8252 88.2523 62.475 86.5572 62.4866C84.8645 62.4982 83.227 62.8698 82.0145 63.5571L42.8164 88.2559L21.6393 100.437Z" fill="black"/>
<path d="M164.2 185.099L165.7 185.999L186.5 174.999C188.2 173.999 188.6 172.599 187.8 171.299L229.8 149.499C232.6 147.899 232.9 145.499 230.5 144.199C228.1 142.799 224 142.999 221.2 144.599L182.7 168.599C180.6 168.299 178.4 168.599 176.9 169.399L158 181.599L159.3 182.299L164.2 185.099Z" fill="white"/>
<path fill-rule="evenodd" clip-rule="evenodd" d="M176.567 173.5C176.842 173.979 176.678 174.59 176.199 174.866L161.099 183.566C160.621 183.841 160.01 183.677 159.734 183.198C159.458 182.72 159.623 182.108 160.101 181.833L175.201 173.133C175.68 172.857 176.291 173.021 176.567 173.5Z" fill="#1D1D1B"/>
<path fill-rule="evenodd" clip-rule="evenodd" d="M178.964 175.095C179.242 175.572 179.081 176.185 178.604 176.463L163.504 185.263C163.027 185.541 162.414 185.379 162.136 184.902C161.858 184.425 162.019 183.813 162.497 183.535L177.597 174.735C178.074 174.457 178.686 174.618 178.964 175.095Z" fill="#1D1D1B"/>
<path d="M194.9 122.599C189.8 84.9986 163.3 55.5986 125.8 55.5986C97.8998 55.5986 75.2998 71.5986 63.9998 95.4986C60.1998 103.599 57.6998 112.599 56.6998 122.199C55.5998 132.399 62.2998 142.799 76.9998 150.599C104.1 164.999 148 165.099 174.9 150.799C189.5 143.199 196.2 132.799 194.9 122.599Z" fill="white"/>
<path fill-rule="evenodd" clip-rule="evenodd" d="M63.0959 95.0712C74.5472 70.8512 97.4815 54.5986 125.8 54.5986C163.922 54.5986 190.741 84.499 195.891 122.464L195.892 122.472C197.268 133.267 190.142 143.991 175.366 151.684C161.734 158.929 143.862 162.499 126.023 162.461C108.181 162.423 90.2605 158.777 76.5307 151.482C61.6564 143.589 54.5438 132.874 55.7055 122.093C56.7168 112.387 59.2455 103.279 63.0946 95.0739L63.0959 95.0712ZM64.9046 95.9248C61.1544 103.919 58.6834 112.81 57.6946 122.302L57.6942 122.306C56.6569 131.924 62.9442 142.008 77.4687 149.715L77.4692 149.716C90.8394 156.82 108.419 160.424 126.027 160.461C143.636 160.498 161.163 156.969 174.431 149.916L174.438 149.912C188.858 142.406 195.13 132.332 193.908 122.729C188.856 85.496 162.677 56.5986 125.8 56.5986C98.3188 56.5986 76.0535 72.3455 64.9046 95.9248Z" fill="black"/>
<path d="M188.2 120.199C186.6 99.4994 171.3 74.2994 151.2 64.3994C165 75.7994 176.3 95.2994 176.4 115.799C176.4 126.799 172 132.999 158.6 140.299C135 153.099 97.2998 153.599 72.2998 141.899C74.2998 143.399 76.5998 144.899 79.1998 146.199C104.3 159.499 144.8 159.599 169.8 146.399C183.2 139.199 188.9 130.099 188.2 120.199Z" fill="#BEDCE3"/>
<path d="M129.6 57.599L130.5 47.999H121.1L122 57.599C122 58.199 122.4 58.699 123.1 59.099C124.6 59.999 127 59.999 128.5 59.099C129.3 58.699 129.6 58.099 129.6 57.599Z" fill="white"/>
<path fill-rule="evenodd" clip-rule="evenodd" d="M120.361 47.3257C120.55 47.1176 120.819 46.999 121.1 46.999H130.5C130.782 46.999 131.05 47.1176 131.239 47.3257C131.429 47.5338 131.522 47.8121 131.496 48.0924L130.599 57.6524C130.579 58.5553 130.028 59.4398 128.982 59.9758C128.049 60.5258 126.9 60.774 125.8 60.774C124.691 60.774 123.532 60.5216 122.595 59.962C121.773 59.4901 121.024 58.7406 121.001 57.6519L120.104 48.0924C120.078 47.8121 120.171 47.5338 120.361 47.3257ZM122.198 48.999L122.996 57.5057C122.999 57.5367 123 57.5679 123 57.599C123 57.6775 123.035 57.9099 123.596 58.2308L123.615 58.2415C124.175 58.5781 124.963 58.774 125.8 58.774C126.638 58.774 127.425 58.5781 127.986 58.2415C128.008 58.2284 128.03 58.216 128.053 58.2046C128.564 57.9492 128.6 57.6678 128.6 57.599C128.6 57.5679 128.602 57.5367 128.604 57.5057L129.402 48.999H122.198Z" fill="black"/>
<path d="M130.582 48.0451C130.59 46.5539 128.492 45.3337 125.896 45.3197C123.3 45.3057 121.19 46.5032 121.182 47.9943C121.174 49.4855 123.271 50.7057 125.867 50.7197C128.463 50.7337 130.574 49.5363 130.582 48.0451Z" fill="white"/>
<path fill-rule="evenodd" clip-rule="evenodd" d="M123.051 49.0471C123.722 49.4375 124.717 49.714 125.872 49.7202C127.028 49.7265 128.026 49.4608 128.701 49.0776C129.404 48.6789 129.58 48.2748 129.582 48.0402C129.583 47.8057 129.411 47.3997 128.713 46.9934C128.041 46.603 127.046 46.3265 125.891 46.3202C124.736 46.314 123.737 46.5797 123.062 46.9629C122.359 47.3616 122.183 47.7657 122.182 48.0003C122.18 48.2348 122.352 48.6408 123.051 49.0471ZM122.045 50.7759C121.048 50.1958 120.175 49.2461 120.182 47.9894C120.188 46.7328 121.072 45.7926 122.075 45.2233C123.106 44.6384 124.461 44.3125 125.902 44.3202C127.342 44.328 128.694 44.6686 129.718 45.2646C130.715 45.8447 131.588 46.7944 131.582 48.051C131.575 49.3077 130.692 50.2479 129.688 50.8172C128.657 51.402 127.302 51.728 125.862 51.7202C124.421 51.7125 123.07 51.3718 122.045 50.7759Z" fill="black"/>
<path d="M182.3 169.599C182.3 169.599 185.5 169.999 186.9 171.699C191.9 169.099 231 148.399 231 148.399C231 148.399 233.6 145.799 230.5 143.999C227.4 142.199 223.4 143.099 221.2 144.399C219.1 145.699 182.3 169.599 182.3 169.599Z" fill="#EF5023"/>
<path fill-rule="evenodd" clip-rule="evenodd" d="M230.99 143.327C232.429 144.112 233.285 145.38 233.092 146.865C232.91 148.265 231.834 149.488 230.296 150.367C230.284 150.374 230.273 150.38 230.261 150.386L189.083 171.759C189.243 172.35 189.239 172.968 189.036 173.578C188.725 174.513 187.994 175.28 187.007 175.861C186.994 175.868 186.981 175.876 186.967 175.883L166.167 186.883C165.858 187.047 165.486 187.036 165.186 186.856L163.695 185.962L158.815 183.173L157.526 182.479C157.214 182.312 157.015 181.992 157.001 181.639C156.987 181.285 157.161 180.951 157.458 180.759L176.358 168.559C176.381 168.544 176.405 168.53 176.429 168.517C178.067 167.643 180.325 167.322 182.473 167.562L220.671 143.75C220.682 143.744 220.693 143.737 220.704 143.731C222.261 142.841 224.145 142.356 225.955 142.275C227.75 142.195 229.577 142.508 230.99 143.327ZM221.712 145.458L183.229 169.448C183.029 169.572 182.792 169.622 182.559 169.589C180.632 169.314 178.676 169.599 177.406 170.263L159.96 181.524L164.696 184.231L164.714 184.241L165.731 184.851L186.012 174.126C186.712 173.71 187.026 173.282 187.139 172.945C187.244 172.63 187.218 172.261 186.948 171.823C186.803 171.586 186.762 171.3 186.836 171.032C186.91 170.764 187.093 170.539 187.339 170.411L229.321 148.621C230.57 147.902 231.04 147.131 231.108 146.608C231.165 146.173 230.977 145.594 230.024 145.078C230.019 145.076 230.014 145.073 230.009 145.07C230.005 145.068 230 145.065 229.996 145.063C229.011 144.488 227.594 144.204 226.045 144.273C224.512 144.342 222.953 144.753 221.712 145.458Z" fill="#1D1D1B"/>
</svg>
