<svg width="256" height="256" viewBox="0 0 256 256" fill="none" xmlns="http://www.w3.org/2000/svg">
<g clip-path="url(#clip0_5086_11225)">
<path d="M7 210.84L59.24 136.17L110.2 153.96L103.22 225.12L67.48 245.76L7 210.84Z" fill="#F05023"/>
<path d="M243.72 19.7698C240.15 16.2398 231.9 11.4798 223.42 12.0398C210.21 12.9098 194.6 19.3598 194.6 19.3598C181.55 24.7598 167.32 32.8698 160.91 36.2498C158.37 37.5898 155.61 39.1098 152.77 40.7198C145.96 44.5798 138.67 48.9698 132.66 52.6698C127.26 50.2298 115.13 46.2098 110.96 46.7198C105.73 47.3598 102.62 53.0298 102.62 53.0298C71.9703 70.6498 58.1203 98.0998 51.9203 117.54C51.9703 117.39 52.0003 117.31 52.0003 117.31C48.3103 118.62 41.0703 137.54 42.7403 144.86C45.1503 155.44 61.2303 163.03 65.5203 166.05C69.8003 169.06 85.6803 176.94 99.8103 175.63C103 175.33 105.64 174.67 107.86 173.74C124.52 169.31 124.54 155.76 126.44 146.32C128 138.59 123.4 136.38 123.4 136.38C123.33 136.38 123.28 136.35 123.22 136.34C123.44 135.46 123.65 134.6 123.86 133.77C125.22 128.45 127.13 121.78 129.09 114.62C131.09 110.56 133.67 106.65 137.2 103.11C137.6 102.85 138 102.59 138.42 102.33C140.48 101.05 142.24 100.28 143.75 99.8798C149.35 98.3898 151.63 101.84 153.4 102.21C153.67 102.27 153.93 102.26 154.17 102.19C154.65 102.06 155.08 101.73 155.46 101.32C155.52 101.48 155.59 101.63 155.66 101.76C155.94 102.24 156.33 102.42 157.24 101.94C160.58 100.05 161.69 96.7898 166.02 92.6599C168.63 90.1699 176.49 85.4599 184.71 80.7999C190.52 77.4998 196.51 74.2298 200.94 71.7798C211.64 65.8698 217.58 64.0398 221.42 69.8098C222.68 71.6998 225.8 73.1598 228.35 71.7098C229.21 71.2198 230.26 70.5498 233.31 68.4498C238.39 64.9498 245.04 47.3398 246.05 28.8698C246.21 26.1898 245.32 20.8098 243.72 19.7698Z" fill="white"/>
<path d="M235.5 24.7297C222.41 28.7597 209.65 31.2497 183.3 46.6897C174.98 51.5697 167.27 57.6297 160.49 64.0197C149.28 73.0897 144.25 70.2397 143.73 65.9597C143.54 64.3397 140.2 61.3797 139.7 59.9197C139.21 58.4797 137.04 55.9197 135.51 53.9997C133.8 51.8497 116.19 46.0797 110.96 46.7197C105.73 47.3597 97.7202 56.6097 97.7202 56.6097C102.74 55.3797 109.91 54.4997 120.19 59.2997C130.47 64.0997 127.88 76.4397 127.74 80.9497C127.61 85.4597 118.01 156.31 86.7202 144.86C78.0802 141.7 71.3102 138.29 62.3002 133.92C48.2302 127.09 53.2302 118.32 53.2202 118.33C46.0502 119.34 41.0602 137.53 42.7302 144.86C45.1402 155.44 61.2202 163.03 65.5102 166.05C69.7902 169.06 85.6702 176.94 99.8002 175.63C102.99 175.33 105.63 174.67 107.85 173.74C124.51 169.31 124.53 155.76 126.43 146.32C127.99 138.59 123.39 136.38 123.39 136.38C121.62 136.25 125.38 128.09 125.38 128.08C128.43 118.85 130.73 108.76 132.56 99.4097L134.33 98.3997C134.14 98.8397 133.96 99.2797 133.8 99.6997C134.63 99.3497 141.91 96.2397 142.72 96.0297C143.98 95.6897 145.22 95.5197 146.41 95.5197C147.83 95.5197 148.62 95.9897 149.57 96.5797C154.88 99.8297 161.16 91.7797 163.25 89.7797C165.74 87.3997 171.75 83.5597 182.73 77.3297C187.34 74.7197 192.15 72.0697 196.02 69.9397L199.01 68.2897C205.5 64.6997 210.75 62.3097 215.26 62.3097C219.22 62.3097 222.39 64.0997 224.75 67.5997C225.98 69.4297 228.13 67.1797 231.05 65.1597C233.91 63.1897 239.31 51.2397 241.37 35.9697C241.55 34.6197 241.65 33.2597 241.67 31.8897C241.73 28.3597 242.03 22.7197 235.5 24.7297Z" fill="#BEDCE3"/>
<path d="M96.6102 177.77C83.3002 177.77 69.1702 171.06 64.3702 167.69C63.6502 167.19 62.4902 166.49 61.1402 165.69C54.3402 161.62 42.9502 154.81 40.7902 145.31C39.3702 139.05 40.9902 126.74 45.2202 120.24C47.0202 117.48 49.1702 115.83 51.6202 115.35C52.7102 115.14 53.7602 115.84 53.9702 116.93C54.1802 118.01 53.4802 119.06 52.3902 119.28C51.0402 119.55 49.7602 120.6 48.5702 122.42C44.7502 128.29 43.6002 139.64 44.6902 144.42C46.4702 152.25 57.3502 158.75 63.1902 162.25C64.6602 163.13 65.8202 163.83 66.6602 164.42C70.7802 167.32 86.2402 174.89 99.6202 173.64C102.45 173.38 104.95 172.79 107.08 171.89C107.17 171.85 107.25 171.82 107.34 171.8C120.69 168.25 122.34 158.38 123.8 149.66C124.02 148.36 124.23 147.11 124.47 145.91C125.03 143.14 124.75 140.85 123.67 139.3C122.21 137.2 121.72 134.55 122.33 132.01C122.66 130.66 122.97 129.39 123.06 129.04C123.77 126.27 124.33 124.29 124.98 121.99C125.57 119.89 126.24 117.52 127.16 114.08C128.08 110.59 131.57 104.12 137.39 100.6C139.57 99.2398 141.51 98.3598 143.28 97.9198C146.09 97.2298 148.75 98.2398 151.09 99.1298C153.15 99.9098 154.93 100.59 156.41 100.1C157.87 99.2298 158.86 97.9698 160.2 96.2498C161.36 94.7698 162.67 93.0798 164.66 91.1898C167 88.9598 173.06 85.0898 183.74 79.0398C188.29 76.4598 192.86 73.9398 196.89 71.7198L200 70.0098C209.59 64.7098 217.96 60.9498 223.11 68.6898C223.86 69.8098 225.85 70.8398 227.39 69.9598C228.18 69.5098 229.22 68.8498 232.21 66.7998C236.27 64.0098 243.07 47.4098 244.09 28.7598C244.23 26.1598 243.3 22.0898 242.59 21.3998C242.48 21.3298 242.43 21.2798 242.33 21.1898C239.13 18.0298 231.5 13.5098 223.57 14.0398C210.83 14.8798 195.53 21.1498 195.38 21.2098C184.93 25.5298 173.76 31.5898 166.36 35.5898C164.61 36.5398 163.09 37.3598 161.86 38.0098C159.46 39.2798 156.74 40.7698 153.78 42.4498C146.34 46.6698 138.77 51.2598 133.73 54.3598C133.17 54.7098 132.47 54.7498 131.86 54.4798C126.14 51.8998 114.61 48.2798 111.22 48.6898C109.56 48.8898 107.94 49.7898 106.4 51.3698C104.01 53.8098 101.16 56.1298 97.9302 58.2698C84.8502 66.9098 73.9902 78.2598 65.6602 92.0098C65.0902 92.9598 63.8602 93.2598 62.9102 92.6798C61.9602 92.0998 61.6602 90.8798 62.2402 89.9298C70.8902 75.6698 82.1602 63.8998 95.7302 54.9298C98.7202 52.9498 101.35 50.8098 103.54 48.5698C105.7 46.3598 108.19 45.0298 110.73 44.7198C115.49 44.1398 127.37 48.2398 132.51 50.3998C137.55 47.2998 144.73 42.9698 151.79 38.9598C154.79 37.2598 157.54 35.7398 159.98 34.4598C161.2 33.8098 162.71 32.9998 164.45 32.0598C171.92 28.0098 183.2 21.8998 193.84 17.4998C194.49 17.2298 209.91 10.9198 223.3 10.0398C233.14 9.38977 241.74 15.0498 245.02 18.2298C247.64 20.2398 248.18 26.8498 248.07 28.9698C247.11 46.5398 240.76 65.7598 234.47 70.0898C231.35 72.2398 230.27 72.9298 229.36 73.4398C225.93 75.3798 221.64 73.6998 219.78 70.9098C217.38 67.3198 214.1 66.7898 201.93 73.5198L198.82 75.2398C194.8 77.4498 190.25 79.9598 185.72 82.5298C175.62 88.2598 169.46 92.1498 167.43 94.0998C165.66 95.7898 164.44 97.3598 163.36 98.7298C161.82 100.7 160.49 102.41 158.26 103.67C158.18 103.72 158.09 103.76 157.99 103.8C155.06 104.93 152.2 103.84 149.68 102.88C147.71 102.13 145.85 101.42 144.26 101.81C142.92 102.14 141.32 102.88 139.51 104.01C134.97 106.76 131.83 112.15 131.05 115.11C130.13 118.58 129.45 120.97 128.85 123.09C128.21 125.36 127.65 127.32 126.96 130.05C126.87 130.39 126.57 131.63 126.25 132.96C125.91 134.38 126.17 135.86 126.98 137.02C128.18 138.74 129.41 141.82 128.42 146.71C128.19 147.86 127.98 149.08 127.77 150.33C126.28 159.22 124.24 171.39 108.52 175.63C106.05 176.65 103.19 177.32 100.01 177.62C98.8802 177.72 97.7402 177.77 96.6102 177.77Z" fill="#231F20"/>
<path d="M128.65 118.29C128.5 118.29 128.35 118.27 128.2 118.24C127.12 117.99 126.45 116.92 126.7 115.84C126.94 114.78 132.79 89.6896 142.94 80.3196C143.75 79.5696 145.02 79.6196 145.77 80.4296C146.52 81.2396 146.47 82.5096 145.66 83.2596C136.41 91.7996 130.66 116.49 130.61 116.74C130.38 117.66 129.56 118.29 128.65 118.29Z" fill="#231F20"/>
<path d="M142.06 67.9601C141.03 67.9601 140.15 67.1701 140.07 66.1201C139.29 56.5801 132.47 54.6801 132.18 54.6101C131.12 54.3301 130.47 53.2501 130.74 52.1801C131.01 51.1201 132.08 50.4701 133.15 50.7301C133.55 50.8301 143.03 53.3001 144.06 65.8001C144.15 66.9001 143.33 67.8701 142.23 67.9601C142.17 67.9601 142.11 67.9601 142.06 67.9601Z" fill="#231F20"/>
<path d="M7 210.84L42.74 190.2L45.49 191.79L9.75 212.42L7 210.84Z" fill="#231F20"/>
<path d="M20.75 218.77L56.49 198.14L59.24 199.72L23.5 220.36L20.75 218.77Z" fill="#231F20"/>
<path d="M48.2402 234.65L83.9802 214.01L86.7302 215.6L50.9902 236.23L48.2402 234.65Z" fill="#231F20"/>
<path d="M53.7402 237.82L89.4802 217.18L92.2302 218.77L56.4902 239.41L53.7402 237.82Z" fill="#231F20"/>
<path d="M59.2402 241L94.9802 220.36L97.7302 221.95L61.9802 242.58L59.2402 241Z" fill="#231F20"/>
<path d="M64.73 244.17L100.47 223.53L103.22 225.12L67.48 245.76L64.73 244.17Z" fill="#231F20"/>
<path d="M26.2402 221.95L61.9802 201.31L64.7302 202.9L28.9902 223.53L26.2402 221.95Z" fill="#231F20"/>
<path d="M34.4902 226.71L70.2302 206.07L72.9802 207.66L37.2402 228.3L34.4902 226.71Z" fill="#231F20"/>
<path d="M12.5 214.01C13.11 213.66 48.24 193.37 48.24 193.37L53.74 196.54L18 217.18L12.5 214.01Z" fill="#231F20"/>
<path d="M39.9902 229.88C40.6002 229.53 75.7302 209.24 75.7302 209.24L81.2302 212.41L45.4902 233.05L39.9902 229.88Z" fill="#231F20"/>
</g>
<defs>
<clipPath id="clip0_5086_11225">
<rect width="241.08" height="235.76" fill="white" transform="translate(7 10)"/>
</clipPath>
</defs>
</svg>
