<svg width="256" height="256" viewBox="0 0 256 256" fill="none" xmlns="http://www.w3.org/2000/svg">
<path d="M201.65 145.6L155.65 172.4L73.25 124.3L118.95 97.4004L201.65 145.6Z" fill="white"/>
<path d="M210.85 204.3L159.95 234.2L68.1504 181.3L122.45 153L210.85 204.3Z" fill="#BEDCE3"/>
<path d="M155.65 172.4L73.25 124.3V177.3L155.65 225.2V172.4Z" fill="white"/>
<path d="M155.65 225.2L201.65 198.6V145.6L155.65 172.4V225.2Z" fill="#BEDCE3"/>
<path d="M97.2041 195.024C100.399 193.156 100.367 187.159 97.1337 181.628C93.9003 176.098 88.6895 173.128 85.4951 174.995C82.3006 176.863 82.3321 182.861 85.5655 188.391C88.7988 193.922 94.0096 196.892 97.2041 195.024Z" fill="#BEDCE3"/>
<path d="M148.505 224.616C151.699 222.748 151.668 216.751 148.434 211.22C145.201 205.689 139.99 202.72 136.796 204.587C133.601 206.455 133.633 212.452 136.866 217.983C140.1 223.514 145.31 226.483 148.505 224.616Z" fill="#BEDCE3"/>
<path d="M82.2503 129.7L120.95 136.5C121.45 136.6 121.85 136.5 122.25 136.3L154.05 118.6L118.65 98.2002L73.0503 124.7L82.2503 129.7Z" fill="#BEDCE3"/>
<path d="M155.65 225.7L202.15 198.9V145.3L118.95 97.4004L72.75 124L72.85 177.5L155.65 225.7Z" stroke="#1D1D1B" stroke-width="2" stroke-miterlimit="10" stroke-linecap="round" stroke-linejoin="round"/>
<path d="M93.2021 193.82C96.3966 191.952 96.3651 185.955 93.1317 180.424C89.8984 174.893 84.6876 171.924 81.4931 173.791C78.2986 175.659 78.3301 181.656 81.5635 187.187C84.7969 192.718 90.0077 195.687 93.2021 193.82Z" fill="white" stroke="#1D1D1B" stroke-width="2" stroke-miterlimit="10" stroke-linecap="round" stroke-linejoin="round"/>
<path d="M144.503 223.412C147.697 221.544 147.666 215.547 144.432 210.016C141.199 204.485 135.988 201.516 132.794 203.383C129.599 205.251 129.631 211.248 132.864 216.779C136.098 222.31 141.308 225.279 144.503 223.412Z" fill="white" stroke="#1D1D1B" stroke-width="2" stroke-miterlimit="10" stroke-linecap="round" stroke-linejoin="round"/>
<path d="M104.882 172.011C106.837 170.868 106.795 167.159 104.788 163.726C102.781 160.293 99.5691 158.436 97.6142 159.579C95.6594 160.722 95.7016 164.431 97.7085 167.864C99.7155 171.297 102.927 173.154 104.882 172.011Z" fill="white" stroke="#1D1D1B" stroke-width="2" stroke-miterlimit="10" stroke-linecap="round" stroke-linejoin="round"/>
<path d="M103.687 163.421C105.642 162.278 105.6 158.569 103.593 155.136C101.586 151.703 98.3742 149.846 96.4194 150.989C94.4646 152.132 94.5068 155.841 96.5137 159.274C98.5206 162.707 101.732 164.564 103.687 163.421Z" fill="white" stroke="#1D1D1B" stroke-width="2" stroke-miterlimit="10" stroke-linecap="round" stroke-linejoin="round"/>
<path d="M110.582 169.311C112.537 168.169 112.495 164.459 110.488 161.026C108.481 157.594 105.269 155.737 103.314 156.88C101.36 158.023 101.402 161.732 103.409 165.165C105.416 168.598 108.627 170.454 110.582 169.311Z" fill="white" stroke="#1D1D1B" stroke-width="2" stroke-miterlimit="10" stroke-linecap="round" stroke-linejoin="round"/>
<path d="M101.55 171.501L124.65 199.701L111.85 165.601C111.95 165.601 107.85 170.601 101.55 171.501Z" fill="white" stroke="#1D1D1B" stroke-width="2" stroke-miterlimit="10" stroke-linecap="round" stroke-linejoin="round"/>
<path d="M106.65 177.701C106.65 177.701 112.15 177.101 114.65 173.101" stroke="#1D1D1B" stroke-width="2" stroke-miterlimit="10" stroke-linecap="round" stroke-linejoin="round"/>
<path d="M113.15 185.701C115.65 185.101 116.75 184.401 118.35 182.801L113.15 185.701Z" fill="white"/>
<path d="M113.15 185.701C115.65 185.101 116.75 184.401 118.35 182.801" stroke="#1D1D1B" stroke-width="2" stroke-miterlimit="10" stroke-linecap="round" stroke-linejoin="round"/>
<path d="M132.15 158.2L178.35 131.6" stroke="#1D1D1B" stroke-width="2" stroke-miterlimit="10"/>
<path d="M104.45 25.7002V106.1C104.45 106.7 105.45 107.2 106.65 107.2C107.85 107.2 108.85 106.7 108.85 106.1V25.7002H104.45Z" fill="#BEDCE3" stroke="#1D1D1B" stroke-width="2" stroke-miterlimit="10"/>
<path d="M44.1504 43.9004L59.2504 80.9004L106.95 32.9004L44.1504 43.9004Z" fill="white"/>
<path d="M44.1504 43.9L91.4504 18.5L106.95 32.9L44.1504 43.9Z" fill="#EF5023"/>
<path d="M106.95 32.9L154.95 29.4L91.4502 18.5L106.95 32.9Z" fill="white"/>
<path d="M106.95 32.9004L169.25 65.5004L154.95 29.4004L106.95 32.9004Z" fill="#EF5023"/>
<path d="M106.95 32.9004L121.85 91.9004L169.25 65.5004L106.95 32.9004Z" fill="white"/>
<path d="M106.95 32.9004L59.2505 80.9004L121.85 91.9004L106.95 32.9004Z" fill="#EF5023"/>
<path d="M59.2504 80.9L121.85 91.9L169.25 65.5L154.95 29.4L91.4504 18.5L44.1504 43.9L59.2504 80.9Z" stroke="#1D1D1B" stroke-width="2" stroke-miterlimit="10" stroke-linecap="round" stroke-linejoin="round"/>
<path d="M201.65 145.6L155.65 172.4L73.25 124.3" stroke="#1D1D1B" stroke-width="2" stroke-miterlimit="10" stroke-linecap="round" stroke-linejoin="round"/>
<path d="M201.65 145.6L155.65 172.4L73.25 124.3L118.95 97.4004L201.65 145.6Z" fill="white"/>
<path d="M210.85 204.3L159.95 234.2L68.1504 181.3L122.45 153L210.85 204.3Z" fill="#BEDCE3"/>
<path d="M155.65 172.4L73.25 124.3V177.3L155.65 225.2V172.4Z" fill="white"/>
<path d="M155.65 225.2L201.65 198.6V145.6L155.65 172.4V225.2Z" fill="#BEDCE3"/>
<path d="M97.2041 195.024C100.399 193.156 100.367 187.159 97.1337 181.628C93.9003 176.098 88.6895 173.128 85.4951 174.995C82.3006 176.863 82.3321 182.861 85.5655 188.391C88.7988 193.922 94.0096 196.892 97.2041 195.024Z" fill="#BEDCE3"/>
<path d="M148.505 224.616C151.699 222.748 151.668 216.751 148.434 211.22C145.201 205.689 139.99 202.72 136.796 204.587C133.601 206.455 133.633 212.452 136.866 217.983C140.1 223.514 145.31 226.483 148.505 224.616Z" fill="#BEDCE3"/>
<path d="M82.2503 129.7L120.95 136.5C121.45 136.6 121.85 136.5 122.25 136.3L154.05 118.6L118.65 98.2002L73.0503 124.7L82.2503 129.7Z" fill="#BEDCE3"/>
<path fill-rule="evenodd" clip-rule="evenodd" d="M118.451 96.5338C118.76 96.3559 119.14 96.3559 119.449 96.5338L202.649 144.434C202.959 144.612 203.15 144.943 203.15 145.3V198.9C203.15 199.258 202.959 199.588 202.649 199.767L156.149 226.567C155.839 226.746 155.457 226.745 155.147 226.565L72.3469 178.365C72.0398 178.186 71.8507 177.858 71.85 177.502L71.75 124.002C71.7493 123.644 71.9405 123.313 72.251 123.134L118.451 96.5338ZM118.95 98.5543L73.7511 124.578L73.8489 176.925L155.652 224.545L201.15 198.323V145.879L118.95 98.5543Z" fill="#1D1D1B"/>
<path d="M93.2021 193.82C96.3966 191.952 96.3651 185.955 93.1317 180.424C89.8984 174.893 84.6876 171.924 81.4931 173.791C78.2986 175.659 78.3301 181.656 81.5635 187.187C84.7969 192.718 90.0077 195.687 93.2021 193.82Z" fill="white"/>
<path fill-rule="evenodd" clip-rule="evenodd" d="M80.1182 179.11C80.1298 181.33 80.8829 184.041 82.4271 186.683C83.9714 189.324 85.9649 191.311 87.8929 192.409C89.8473 193.523 91.5393 193.634 92.6978 192.957C93.8562 192.28 94.5895 190.751 94.5777 188.501C94.566 186.282 93.813 183.57 92.2688 180.929C90.7245 178.288 88.731 176.301 86.803 175.202C84.8486 174.089 83.1565 173.978 81.9981 174.655C80.8397 175.332 80.1064 176.861 80.1182 179.11ZM78.1182 179.121C78.1045 176.522 78.9527 174.119 80.9887 172.928C83.0248 171.738 85.5353 172.178 87.7933 173.465C90.0776 174.767 92.3062 177.03 93.9954 179.92C95.6845 182.809 96.5639 185.861 96.5777 188.491C96.5913 191.09 95.7432 193.493 93.7072 194.683C91.6711 195.874 89.1605 195.434 86.9026 194.147C84.6182 192.845 82.3897 190.581 80.7005 187.692C79.0114 184.803 78.132 181.75 78.1182 179.121Z" fill="#1D1D1B"/>
<path d="M144.503 223.412C147.697 221.544 147.666 215.547 144.432 210.016C141.199 204.485 135.988 201.516 132.794 203.383C129.599 205.251 129.631 211.248 132.864 216.779C136.098 222.31 141.308 225.279 144.503 223.412Z" fill="white"/>
<path fill-rule="evenodd" clip-rule="evenodd" d="M131.419 208.702C131.431 210.921 132.184 213.633 133.728 216.274C135.272 218.916 137.266 220.902 139.194 222.001C141.148 223.115 142.84 223.226 143.999 222.549C145.157 221.871 145.89 220.342 145.878 218.093C145.867 215.874 145.114 213.162 143.57 210.521C142.025 207.879 140.032 205.893 138.104 204.794C136.149 203.68 134.457 203.569 133.299 204.247C132.14 204.924 131.407 206.453 131.419 208.702ZM129.419 208.713C129.405 206.114 130.253 203.71 132.289 202.52C134.326 201.33 136.836 201.77 139.094 203.057C141.378 204.358 143.607 206.622 145.296 209.511C146.985 212.401 147.865 215.453 147.878 218.082C147.892 220.681 147.044 223.085 145.008 224.275C142.972 225.466 140.461 225.025 138.203 223.739C135.919 222.437 133.69 220.173 132.001 217.284C130.312 214.395 129.433 211.342 129.419 208.713Z" fill="#1D1D1B"/>
<path d="M104.882 172.011C106.837 170.868 106.795 167.159 104.788 163.726C102.781 160.293 99.5696 158.436 97.6147 159.579C95.6599 160.722 95.7021 164.431 97.709 167.864C99.7159 171.297 102.928 173.154 104.882 172.011Z" fill="white"/>
<path fill-rule="evenodd" clip-rule="evenodd" d="M97.176 162.852C97.1908 164.148 97.64 165.765 98.5722 167.36C99.5044 168.954 100.693 170.139 101.816 170.788C102.967 171.453 103.845 171.459 104.378 171.148C104.91 170.836 105.336 170.068 105.321 168.739C105.306 167.442 104.857 165.825 103.925 164.231C102.992 162.636 101.803 161.451 100.681 160.802C99.5302 160.137 98.6517 160.131 98.1193 160.443C97.5869 160.754 97.1609 161.522 97.176 162.852ZM95.1761 162.874C95.1571 161.205 95.6874 159.548 97.1099 158.716C98.5323 157.884 100.237 158.236 101.682 159.071C103.156 159.923 104.577 161.383 105.651 163.221C106.726 165.059 107.301 167.013 107.321 168.716C107.34 170.385 106.809 172.043 105.387 172.874C103.965 173.706 102.26 173.355 100.815 172.519C99.3406 171.667 97.9203 170.207 96.8456 168.369C95.7708 166.531 95.1955 164.577 95.1761 162.874Z" fill="#1D1D1B"/>
<path d="M103.688 163.421C105.642 162.278 105.6 158.569 103.593 155.136C101.586 151.703 98.3747 149.846 96.4199 150.989C94.4651 152.132 94.5073 155.841 96.5142 159.274C98.5211 162.707 101.733 164.564 103.688 163.421Z" fill="white"/>
<path fill-rule="evenodd" clip-rule="evenodd" d="M95.9812 154.261C95.9959 155.557 96.4452 157.174 97.3773 158.769C98.3095 160.363 99.4985 161.548 100.621 162.197C101.772 162.862 102.65 162.868 103.183 162.557C103.715 162.246 104.141 161.477 104.126 160.148C104.111 158.852 103.662 157.234 102.73 155.64C101.798 154.045 100.609 152.86 99.4864 152.212C98.3354 151.546 97.4568 151.541 96.9244 151.852C96.392 152.163 95.966 152.931 95.9812 154.261ZM93.9813 154.284C93.9623 152.615 94.4926 150.957 95.915 150.125C97.3375 149.294 99.0421 149.645 100.487 150.48C101.961 151.332 103.382 152.792 104.456 154.63C105.531 156.469 106.106 158.422 106.126 160.125C106.145 161.794 105.615 163.452 104.192 164.283C102.77 165.115 101.065 164.764 99.6198 163.928C98.1458 163.076 96.7255 161.617 95.6507 159.778C94.576 157.94 94.0007 155.986 93.9813 154.284Z" fill="#1D1D1B"/>
<path d="M110.583 169.311C112.537 168.169 112.495 164.459 110.488 161.026C108.481 157.594 105.27 155.737 103.315 156.88C101.36 158.023 101.402 161.732 103.409 165.165C105.416 168.598 108.628 170.454 110.583 169.311Z" fill="white"/>
<path fill-rule="evenodd" clip-rule="evenodd" d="M102.876 160.153C102.891 161.449 103.34 163.066 104.272 164.66C105.205 166.255 106.394 167.44 107.516 168.089C108.667 168.754 109.545 168.76 110.078 168.448C110.61 168.137 111.036 167.369 111.021 166.039C111.006 164.743 110.557 163.126 109.625 161.531C108.693 159.937 107.504 158.752 106.381 158.103C105.23 157.438 104.352 157.432 103.819 157.743C103.287 158.055 102.861 158.823 102.876 160.153ZM100.876 160.175C100.857 158.506 101.388 156.848 102.81 156.017C104.232 155.185 105.937 155.536 107.382 156.372C108.856 157.224 110.277 158.684 111.351 160.522C112.426 162.36 113.001 164.314 113.021 166.017C113.04 167.686 112.51 169.343 111.087 170.175C109.665 171.007 107.96 170.655 106.515 169.82C105.041 168.968 103.62 167.508 102.546 165.67C101.471 163.832 100.896 161.878 100.876 160.175Z" fill="#1D1D1B"/>
<path d="M101.55 171.501L124.65 199.701L111.85 165.601C111.95 165.601 107.85 170.601 101.55 171.501Z" fill="white"/>
<path fill-rule="evenodd" clip-rule="evenodd" d="M112.804 165.296C112.793 165.263 112.781 165.229 112.766 165.195C112.688 165.022 112.553 164.851 112.352 164.735C112.163 164.625 111.978 164.601 111.85 164.601C111.522 164.601 111.215 164.761 111.028 165.031C111.009 165.059 110.991 165.088 110.974 165.118C110.962 165.134 110.946 165.154 110.925 165.179C110.829 165.294 110.671 165.474 110.452 165.699C110.014 166.15 109.352 166.769 108.497 167.416C106.78 168.715 104.336 170.092 101.409 170.511C101.052 170.562 100.749 170.801 100.618 171.138C100.487 171.474 100.548 171.855 100.777 172.134L123.877 200.334C124.187 200.713 124.725 200.811 125.15 200.567C125.574 200.323 125.759 199.807 125.587 199.349L112.804 165.296ZM111.49 167.487C111.024 167.936 110.424 168.465 109.704 169.01C108.145 170.191 105.987 171.472 103.376 172.151L121.585 194.381L111.49 167.487ZM111.004 165.079C111.004 165.08 111.003 165.08 111.003 165.081C111.006 165.077 111.007 165.076 111.004 165.079Z" fill="#1D1D1B"/>
<path fill-rule="evenodd" clip-rule="evenodd" d="M115.18 172.252C115.649 172.544 115.791 173.161 115.498 173.63C114.087 175.888 111.86 177.144 110.072 177.833C109.169 178.181 108.352 178.394 107.758 178.521C107.461 178.585 107.218 178.627 107.046 178.654C106.96 178.668 106.892 178.677 106.843 178.684C106.819 178.687 106.8 178.689 106.785 178.691L106.768 178.693L106.763 178.693L106.76 178.694L106.76 178.694C106.759 178.694 106.759 178.694 106.65 177.7L106.759 178.694C106.21 178.754 105.716 178.357 105.656 177.808C105.597 177.259 105.993 176.766 106.541 176.706C106.541 176.706 106.541 176.706 106.541 176.706C106.541 176.706 106.541 176.706 106.541 176.706L106.541 176.706L106.541 176.706L106.547 176.705L106.583 176.701C106.616 176.696 106.668 176.689 106.738 176.678C106.876 176.656 107.082 176.621 107.34 176.566C107.855 176.455 108.569 176.269 109.354 175.967C110.94 175.355 112.714 174.311 113.802 172.57C114.095 172.101 114.712 171.959 115.18 172.252ZM106.541 176.706C106.54 176.706 106.54 176.706 106.54 176.706L106.541 176.706Z" fill="#1D1D1B"/>
<path d="M113.15 185.7C115.65 185.1 116.75 184.4 118.35 182.8L113.15 185.7Z" fill="white"/>
<path fill-rule="evenodd" clip-rule="evenodd" d="M119.057 182.093C119.448 182.483 119.448 183.116 119.057 183.507C118.229 184.335 117.482 184.98 116.584 185.493C115.685 186.007 114.686 186.36 113.384 186.672C112.846 186.801 112.307 186.47 112.178 185.933C112.049 185.396 112.38 184.856 112.917 184.727C114.114 184.44 114.915 184.143 115.591 183.757C116.268 183.37 116.871 182.865 117.643 182.093C118.034 181.702 118.667 181.702 119.057 182.093Z" fill="#1D1D1B"/>
<path fill-rule="evenodd" clip-rule="evenodd" d="M178.849 132.467L132.649 159.067L131.651 157.333L177.851 130.733L178.849 132.467Z" fill="#1D1D1B"/>
<path d="M104.45 25.7002V106.1C104.45 106.7 105.45 107.2 106.65 107.2C107.85 107.2 108.85 106.7 108.85 106.1V25.7002H104.45Z" fill="#BEDCE3"/>
<path fill-rule="evenodd" clip-rule="evenodd" d="M103.45 24.7002H109.85V106.1C109.85 106.991 109.142 107.522 108.647 107.77C108.084 108.051 107.376 108.2 106.65 108.2C105.925 108.2 105.216 108.051 104.653 107.77C104.158 107.522 103.45 106.991 103.45 106.1V24.7002ZM105.45 26.7002V105.926C105.476 105.942 105.508 105.961 105.547 105.981C105.784 106.099 106.176 106.2 106.65 106.2C107.125 106.2 107.516 106.099 107.753 105.981C107.793 105.961 107.825 105.942 107.85 105.926V26.7002H105.45Z" fill="#1D1D1B"/>
<path d="M44.1504 43.9004L59.2504 80.9004L106.95 32.9004L44.1504 43.9004Z" fill="white"/>
<path d="M44.1504 43.9L91.4504 18.5L106.95 32.9L44.1504 43.9Z" fill="#EF5023"/>
<path d="M106.95 32.9L154.95 29.4L91.4502 18.5L106.95 32.9Z" fill="white"/>
<path d="M106.95 32.9004L169.25 65.5004L154.95 29.4004L106.95 32.9004Z" fill="#EF5023"/>
<path d="M106.95 32.9004L121.85 91.9004L169.25 65.5004L106.95 32.9004Z" fill="white"/>
<path d="M106.95 32.9004L59.2505 80.9004L121.85 91.9004L106.95 32.9004Z" fill="#EF5023"/>
<path fill-rule="evenodd" clip-rule="evenodd" d="M90.9775 17.619C91.1739 17.5135 91.4 17.4767 91.6197 17.5144L155.12 28.4144C155.464 28.4734 155.752 28.7074 155.88 29.0317L170.18 65.1317C170.365 65.5982 170.176 66.1295 169.737 66.3736L122.337 92.7736C122.137 92.8854 121.904 92.9246 121.677 92.8849L59.0775 81.8849C58.7389 81.8254 58.4546 81.5962 58.3247 81.2779L43.2247 44.2779C43.0314 43.8042 43.2267 43.261 43.6775 43.019L90.9775 17.619ZM91.6205 19.5438L45.4164 44.3553L59.9677 80.0107L121.674 90.8537L167.998 65.053L154.228 30.2905L91.6205 19.5438Z" fill="#1D1D1B"/>
<path fill-rule="evenodd" clip-rule="evenodd" d="M72.3865 123.796C72.665 123.319 73.2773 123.158 73.7543 123.436L155.651 171.242L201.147 144.736C201.624 144.458 202.236 144.619 202.514 145.097C202.792 145.574 202.631 146.186 202.154 146.464L156.154 173.264C155.842 173.445 155.457 173.445 155.146 173.264L72.746 125.164C72.2691 124.885 72.1081 124.273 72.3865 123.796Z" fill="#1D1D1B"/>
</svg>
