<svg width="256" height="256" viewBox="0 0 256 256" fill="none" xmlns="http://www.w3.org/2000/svg">
<path d="M169.227 195.174L150.483 206.201C149.176 206.954 147.694 207.35 146.185 207.35C144.676 207.35 143.193 206.954 141.886 206.201L59.9432 157.252C59.6317 157.066 59.3738 156.803 59.1947 156.487C59.0156 156.172 58.9214 155.815 58.9214 155.452C58.9214 155.089 59.0156 154.733 59.1947 154.417C59.3738 154.102 59.6317 153.838 59.9432 153.652L77.575 145.718C78.8822 144.892 80.388 144.436 81.9333 144.395C83.4787 144.355 85.0061 144.733 86.3544 145.49L169.257 191.513C169.577 191.701 169.843 191.97 170.026 192.292C170.209 192.615 170.304 192.981 170.301 193.352C170.298 193.723 170.197 194.087 170.008 194.407C169.82 194.727 169.55 194.991 169.227 195.174Z" fill="#BEDCE3"/>
<path d="M198.815 231.187L185.813 238.782C184.905 239.305 183.876 239.579 182.828 239.579C181.781 239.579 180.752 239.305 179.844 238.782L122.553 205.445C122.352 205.305 122.189 205.118 122.076 204.902C121.962 204.685 121.903 204.444 121.903 204.199C121.903 203.955 121.962 203.714 122.076 203.497C122.189 203.28 122.352 203.094 122.553 202.954L135.218 196.875C136.128 196.319 137.169 196.011 138.235 195.985C139.302 195.958 140.356 196.213 141.293 196.723L198.815 228.62C199.031 228.757 199.21 228.947 199.333 229.171C199.457 229.396 199.522 229.648 199.522 229.904C199.522 230.16 199.457 230.412 199.333 230.637C199.21 230.861 199.031 231.05 198.815 231.187Z" fill="#BEDCE3"/>
<path fill-rule="evenodd" clip-rule="evenodd" d="M86.2666 28.0371C83.4564 26.392 79.9849 26.3589 77.1437 27.9499L64.1798 35.2097L63.3003 33.6392L76.2642 26.3794C79.6625 24.4764 83.8146 24.516 87.176 26.4836L158.641 68.3171C166.42 72.8703 171.2 81.2073 171.2 90.2204V145.044C171.2 149.083 168.982 152.796 165.426 154.711L152.007 161.937L151.153 160.352L164.572 153.126C167.546 151.525 169.4 148.421 169.4 145.044V90.2204C169.4 81.8465 164.959 74.1008 157.732 69.8705L86.2666 28.0371Z" fill="#231F20"/>
<path d="M144.499 76.9714C147.848 79.1536 150.636 82.0959 152.634 85.5588C154.632 89.0217 155.784 92.9073 155.997 96.8996L155.83 153.252C155.83 160.573 150.635 163.535 144.255 159.859L101.878 135.404L79.6405 145.687L79.7165 122.6L71.818 118.043C68.4681 115.861 65.6807 112.919 63.6827 109.456C61.6847 105.993 60.5325 102.107 60.3198 98.1148L60.4869 41.7628C60.4869 34.4416 65.6816 31.4797 72.0611 35.1707L144.499 76.9714Z" fill="white"/>
<path fill-rule="evenodd" clip-rule="evenodd" d="M64.3273 35.1189C62.6096 36.0976 61.387 38.2949 61.387 41.7626L61.387 41.7653L61.22 98.0918C61.4286 101.934 62.5393 105.673 64.4623 109.006C66.3855 112.339 69.0669 115.172 72.2891 117.276L80.1663 121.82C80.4459 121.981 80.6176 122.28 80.6166 122.603L80.5452 144.277L101.5 134.587C101.765 134.464 102.074 134.478 102.327 134.625L144.705 159.079C147.731 160.823 150.268 160.879 151.989 159.897C153.707 158.917 154.93 156.719 154.93 153.251L154.93 153.249L155.097 96.9224C154.888 93.0803 153.777 89.3413 151.854 86.0083C149.931 82.6751 147.25 79.842 144.028 77.7384L71.6113 35.95C68.585 34.199 66.0477 34.1388 64.3273 35.1189ZM72.5119 34.3915C69.1587 32.4514 65.9081 32.1466 63.4362 33.555C60.962 34.9647 59.5873 37.9083 59.587 41.7612L59.4199 98.1119C59.4199 98.1288 59.4203 98.1456 59.4212 98.1625C59.6414 102.296 60.8344 106.32 62.9033 109.905C64.9721 113.491 67.8582 116.537 71.3268 118.797C71.3404 118.806 71.3543 118.814 71.3683 118.822L78.8149 123.118L78.7406 145.684C78.7396 145.992 78.8957 146.279 79.1545 146.445C79.4134 146.611 79.7392 146.633 80.0183 146.504L101.832 136.417L143.806 160.638C147.159 162.571 150.41 162.871 152.881 161.461C155.354 160.049 156.729 157.107 156.73 153.254M156.73 153.251L156.897 96.9021C156.897 96.8852 156.896 96.8684 156.896 96.8515C156.675 92.7178 155.482 88.6944 153.413 85.1088C151.344 81.5232 148.458 78.4766 144.99 76.2171C144.976 76.2082 144.963 76.1998 144.948 76.1917L72.5119 34.3915" fill="#231F20"/>
<path d="M91.4886 65.0933L85.0636 75.7257C84.9565 75.9948 84.9238 76.2878 84.9692 76.5739C85.0147 76.8599 85.1365 77.1284 85.3217 77.351L89.2709 82.3483C89.0944 83.5404 88.9981 84.7431 88.9823 85.9481C88.9823 87.2088 88.9823 88.4847 89.119 89.7606L85.0636 90.7023C84.6535 90.8087 84.5167 91.3858 84.7445 92.0238L90.6379 108.929C90.8658 109.567 91.367 109.993 91.7619 109.917L95.8327 108.96C97.2447 111.198 98.8836 113.285 100.724 115.187L100.602 121.126C100.594 121.429 100.666 121.729 100.809 121.995C100.953 122.262 101.165 122.486 101.422 122.645L113.756 128.903C114.227 129.131 114.607 128.903 114.622 128.25L114.743 122.311C116.489 122.315 118.211 121.909 119.771 121.126L123.705 126.124C124.115 126.625 124.631 126.701 124.874 126.306L131.299 115.673C131.418 115.403 131.456 115.104 131.407 114.812C131.359 114.521 131.226 114.25 131.026 114.033L127.092 109.051C127.261 107.858 127.357 106.656 127.381 105.451C127.403 104.179 127.357 102.906 127.244 101.639L131.299 100.697C131.71 100.59 131.846 100.013 131.618 99.3754L125.725 82.485C125.497 81.847 124.996 81.4065 124.586 81.4977L120.53 82.4546C119.118 80.2162 117.48 78.1293 115.64 76.227L115.761 70.288C115.762 69.9865 115.687 69.6896 115.544 69.4243C115.401 69.159 115.193 68.9338 114.941 68.7691L102.607 62.4959C102.136 62.2833 101.757 62.5719 101.741 63.1643L101.635 69.1033C99.8788 69.0915 98.1452 69.4976 96.577 70.288L92.643 65.2908C92.2481 64.7743 91.7316 64.6984 91.4886 65.0933ZM108.44 82.485C114.075 85.3405 118.541 93.5579 118.389 100.834C118.386 101.489 118.335 102.144 118.237 102.793C117.356 108.732 113.042 111.42 107.908 108.869C102.273 105.998 97.8225 97.7957 97.9592 90.5201C98.0959 83.928 101.939 80.3889 106.86 81.8774C107.402 82.0373 107.93 82.2404 108.44 82.485Z" fill="white"/>
<path fill-rule="evenodd" clip-rule="evenodd" d="M101.455 61.8144C101.929 61.4495 102.509 61.4643 102.977 61.6755L102.996 61.6841L115.391 67.9886L115.432 68.015C115.81 68.2617 116.121 68.5991 116.335 68.9965C116.55 69.3937 116.662 69.8385 116.661 70.2902L116.661 70.3062L116.547 75.873C118.176 77.5904 119.648 79.451 120.943 81.4322L124.39 80.6188C124.984 80.4868 125.496 80.7619 125.814 81.0388C126.15 81.3311 126.413 81.7369 126.572 82.182L126.574 82.1882L132.466 99.0724C132.466 99.0737 132.467 99.0749 132.467 99.0762C132.623 99.5162 132.68 100 132.573 100.445C132.464 100.9 132.146 101.407 131.525 101.568L131.514 101.571L128.201 102.34C128.272 103.38 128.298 104.424 128.28 105.467L128.28 105.468C128.259 106.58 128.177 107.69 128.035 108.793L131.713 113.451C132.018 113.792 132.219 114.213 132.295 114.664C132.372 115.128 132.312 115.605 132.123 116.035L132.1 116.089L125.644 126.771L125.641 126.777C125.325 127.29 124.776 127.526 124.216 127.44C123.717 127.364 123.303 127.054 123.008 126.693L122.997 126.68L119.503 122.242C118.272 122.768 116.961 123.085 115.625 123.18L115.521 128.268L115.521 128.271C115.51 128.736 115.365 129.298 114.879 129.642C114.364 130.006 113.777 129.913 113.364 129.713L113.348 129.706L100.981 123.43L100.949 123.41C100.557 123.168 100.236 122.828 100.017 122.423C99.7989 122.018 99.6903 121.564 99.702 121.105C99.7021 121.104 99.7021 121.103 99.7021 121.102L99.8158 115.541C98.186 113.823 96.7145 111.963 95.419 109.981L91.9496 110.797L91.9315 110.8C91.3549 110.911 90.8584 110.641 90.5465 110.37C90.2146 110.081 89.9502 109.68 89.79 109.232L89.7877 109.225L83.8966 92.3263C83.8962 92.3251 83.8958 92.324 83.8954 92.3229C83.7388 91.8827 83.6824 91.3986 83.7894 90.9533C83.8985 90.4989 84.2168 89.9918 84.8374 89.8309L84.8485 89.828L88.1544 89.0604C88.082 88.0073 88.082 86.967 88.082 85.9712V85.9361C88.0966 84.8214 88.178 83.7087 88.3256 82.6039L84.6215 77.9167C84.3373 77.5716 84.1502 77.1567 84.08 76.7149C84.0091 76.2686 84.0602 75.8118 84.2271 75.3927L84.2545 75.3236L90.7217 64.6214C91.036 64.1107 91.5874 63.8692 92.1539 63.9619C92.6562 64.0441 93.0664 64.3651 93.3533 64.7383L96.8431 69.1713C98.0834 68.6396 99.4044 68.3215 100.75 68.2302L100.841 63.141C100.853 62.6762 101.014 62.1532 101.455 61.8144ZM102.635 63.5197L102.518 70.009L101.629 70.003C100.015 69.9922 98.4224 70.3653 96.9817 71.0915L96.3246 71.4227L92.0196 65.954L85.8798 76.1145C85.8485 76.2174 85.8408 76.3261 85.8577 76.4324C85.8778 76.5585 85.9314 76.6769 86.0132 76.7751L86.0205 76.7839L90.2177 82.0951L90.1608 82.4798C89.9906 83.6303 89.8975 84.7908 89.882 85.9538C89.882 87.2202 89.883 88.4462 90.0135 89.6645L90.0984 90.4568L85.5402 91.5153C85.5479 91.573 85.5637 91.6425 85.5917 91.7209L85.594 91.7273L91.4852 108.626C91.4855 108.627 91.4858 108.628 91.4862 108.629C91.5508 108.809 91.6446 108.935 91.7174 109.002L96.2512 107.937L96.5936 108.479C97.9725 110.665 99.5732 112.704 101.37 114.561L101.631 114.831L101.502 121.145L101.501 121.15C101.498 121.296 101.532 121.439 101.601 121.567C101.665 121.686 101.757 121.788 101.869 121.863L113.729 127.88L113.861 121.409L114.745 121.411C116.35 121.415 117.933 121.042 119.367 120.322L120.023 119.992L124.331 125.464L130.492 115.269C130.527 115.17 130.536 115.064 130.519 114.96C130.499 114.842 130.445 114.731 130.364 114.643L130.341 114.617L126.147 109.306L126.201 108.924C126.364 107.768 126.458 106.603 126.481 105.435M102.635 63.5197L114.482 69.5454C114.594 69.6256 114.686 69.7303 114.752 69.8517C114.823 69.9831 114.86 70.1298 114.861 70.2788L114.732 76.5831L114.992 76.8525C116.789 78.7103 118.39 80.7484 119.769 82.9345L120.112 83.4778L124.645 82.4081C124.718 82.476 124.811 82.6042 124.876 82.7849C124.876 82.7857 124.877 82.7866 124.877 82.7874L130.768 99.6716L130.771 99.6778C130.798 99.7562 130.814 99.8257 130.822 99.8834L126.277 100.939L126.347 101.718C126.458 102.954 126.502 104.195 126.481 105.435M101.237 83.8188C99.8698 85.1257 98.9241 87.3967 98.8587 90.5371C98.7938 93.9959 99.8223 97.7128 101.56 100.917C103.301 104.127 105.705 106.735 108.312 108.064C110.669 109.234 112.696 109.146 114.205 108.242C115.737 107.325 116.932 105.452 117.346 102.661L117.347 102.658C117.438 102.053 117.486 101.442 117.488 100.829L117.488 100.815C117.561 97.3568 116.533 93.6368 114.793 90.4307C113.051 87.2211 110.646 84.6148 108.041 83.2919C107.578 83.0701 107.098 82.8857 106.605 82.7404L106.599 82.7386C104.417 82.0785 102.572 82.5429 101.237 83.8188ZM108.439 82.4848L108.846 81.6819C111.873 83.216 114.515 86.144 116.375 89.5723C118.238 93.0055 119.366 97.029 119.288 100.845C119.285 101.541 119.231 102.237 119.127 102.926C118.659 106.074 117.258 108.513 115.129 109.787C112.978 111.074 110.283 111.054 107.507 109.674L107.499 109.67C104.473 108.129 101.836 105.201 99.9777 101.775C98.1157 98.3416 96.9873 94.3197 97.059 90.5029L97.0591 90.5012C97.1306 87.0502 98.1746 84.2561 99.9932 82.5177C101.844 80.7489 104.38 80.1877 107.117 81.0148C107.705 81.1882 108.277 81.4084 108.829 81.6734L108.439 82.4848Z" fill="#F05023"/>
<path d="M199.848 162.82C199.657 160.096 198.832 157.454 197.44 155.104C196.048 152.755 194.126 150.763 191.828 149.287C191.555 149.18 141.324 120.078 141.096 119.987C140.29 119.463 139.366 119.15 138.407 119.078C137.449 119.007 136.487 119.178 135.613 119.577L125.725 125.197C126.101 124.989 126.505 124.836 126.925 124.741C128.516 124.526 130.133 124.886 131.481 125.759L181.97 154.907C184.323 156.411 186.28 158.459 187.676 160.878C189.071 163.296 189.865 166.015 189.99 168.805L189.884 208.099C189.899 208.981 189.765 209.859 189.489 210.697C189.171 211.763 188.474 212.676 187.53 213.264C188.092 212.884 197.722 207.583 198.162 207.112C198.939 206.398 199.47 205.457 199.681 204.424C199.815 203.784 199.881 203.133 199.878 202.479L200 163.185C199.958 163.06 199.907 162.938 199.848 162.82Z" fill="white"/>
<path fill-rule="evenodd" clip-rule="evenodd" d="M135.239 118.758C136.252 118.296 137.365 118.098 138.474 118.181C139.57 118.263 140.628 118.617 141.552 119.21L141.581 119.226C141.612 119.243 141.653 119.267 141.705 119.296C141.808 119.355 141.957 119.44 142.148 119.549C142.529 119.768 143.081 120.086 143.779 120.488C145.176 121.293 147.158 122.438 149.531 123.809C153.699 126.219 159.073 129.327 164.595 132.522L166.895 133.852C173.206 137.502 179.517 141.153 184.268 143.897C186.643 145.27 188.628 146.415 190.028 147.221C190.728 147.624 191.281 147.942 191.662 148.16C191.853 148.269 192.001 148.353 192.101 148.41C192.132 148.427 192.158 148.442 192.179 148.453C192.192 148.461 192.204 148.468 192.213 148.473L192.228 148.481C192.258 148.496 192.286 148.512 192.314 148.53C194.73 150.081 196.75 152.175 198.214 154.646C199.649 157.067 200.511 159.785 200.733 162.589C200.777 162.69 200.817 162.792 200.852 162.896C200.884 162.99 200.9 163.088 200.9 163.188L200.778 202.476C200.778 202.477 200.778 202.478 200.778 202.479C200.781 203.194 200.709 203.907 200.562 204.606C200.314 205.818 199.692 206.922 198.784 207.762C198.682 207.862 198.555 207.949 198.484 207.998C198.373 208.073 198.235 208.162 198.077 208.26C197.76 208.458 197.337 208.71 196.848 208.996C195.868 209.568 194.601 210.29 193.334 211.006C192.563 211.442 191.788 211.878 191.077 212.278C190.622 212.534 190.193 212.775 189.808 212.993C189.314 213.271 188.892 213.51 188.577 213.691C188.419 213.781 188.29 213.856 188.193 213.913C188.145 213.941 188.106 213.964 188.077 213.982C188.053 213.998 188.029 214.013 188.005 214.028C187.588 214.287 187.041 214.165 186.774 213.754C186.507 213.342 186.619 212.793 187.026 212.518C187.045 212.505 187.072 212.487 187.106 212.467C187.838 211.994 188.377 211.276 188.626 210.44L188.634 210.415C188.879 209.673 188.997 208.896 188.984 208.115L188.983 208.097H188.984L189.09 168.824C188.968 166.186 188.216 163.615 186.896 161.328C185.576 159.04 183.726 157.102 181.502 155.676L131.031 126.538C131.018 126.531 131.005 126.523 130.992 126.515C129.835 125.766 128.451 125.452 127.085 125.628C126.761 125.704 126.45 125.824 126.159 125.985C125.726 126.224 125.181 126.068 124.939 125.637C124.697 125.205 124.849 124.659 125.28 124.414L135.168 118.794C135.191 118.781 135.215 118.769 135.239 118.758ZM129.65 124.001C130.46 124.2 131.238 124.533 131.95 124.99L182.42 154.127C182.432 154.134 182.443 154.141 182.455 154.149C184.929 155.731 186.987 157.884 188.455 160.428C189.923 162.972 190.758 165.831 190.889 168.765C190.89 168.779 190.89 168.793 190.89 168.807L190.784 208.093C190.797 208.924 190.692 209.752 190.472 210.553C191.103 210.198 191.776 209.819 192.448 209.439C193.714 208.723 194.972 208.007 195.94 207.442C196.424 207.158 196.83 206.916 197.126 206.732C197.275 206.64 197.389 206.566 197.468 206.512C197.513 206.481 197.536 206.464 197.544 206.458C197.547 206.455 197.55 206.452 197.553 206.45C198.19 205.864 198.626 205.092 198.799 204.244L198.8 204.239C198.921 203.662 198.981 203.073 198.978 202.483V202.477L199.099 163.346C199.082 163.304 199.063 163.263 199.042 163.222L199.1 163.193L199.1 163.182L199.122 163.182L199.848 162.821L198.95 162.883C198.769 160.299 197.986 157.792 196.666 155.563C195.352 153.346 193.541 151.464 191.376 150.066C191.366 150.061 191.355 150.055 191.344 150.049C191.312 150.031 191.269 150.007 191.216 149.978C191.111 149.918 190.961 149.832 190.769 149.723C190.385 149.503 189.83 149.184 189.13 148.781C187.729 147.975 185.743 146.828 183.367 145.456C178.616 142.711 172.304 139.06 165.994 135.41L163.696 134.081C158.173 130.886 152.798 127.777 148.63 125.368C146.257 123.996 144.276 122.852 142.88 122.047C142.183 121.645 141.632 121.328 141.252 121.111C141.062 121.002 140.916 120.918 140.816 120.861C140.766 120.833 140.729 120.812 140.705 120.798L140.688 120.789C140.66 120.775 140.632 120.759 140.605 120.741C139.926 120.3 139.147 120.036 138.34 119.976C137.545 119.917 136.748 120.055 136.021 120.38L129.65 124.001ZM140.683 120.786L140.685 120.788C140.673 120.781 140.67 120.779 140.683 120.786ZM192.234 148.484L192.232 148.483C192.243 148.488 192.245 148.49 192.234 148.484Z" fill="#231F20"/>
<path d="M181.939 154.907C184.278 156.427 186.223 158.478 187.617 160.894C189.011 163.309 189.813 166.02 189.959 168.805L189.853 208.099C189.853 213.203 186.223 215.269 181.772 212.656L152.245 195.599L136.812 202.829V186.728L131.314 183.554C128.976 182.034 127.03 179.982 125.636 177.567C124.243 175.151 123.44 172.44 123.294 169.656L123.4 130.361C123.4 125.257 127.031 123.192 131.481 125.804L181.939 154.907Z" fill="white"/>
<path fill-rule="evenodd" clip-rule="evenodd" d="M126.215 125.973C125.132 126.585 124.3 128.003 124.3 130.361V130.364L124.194 169.633C124.336 172.268 125.097 174.832 126.416 177.117C127.735 179.403 129.574 181.345 131.785 182.787L137.262 185.949C137.541 186.11 137.712 186.407 137.712 186.729V201.414L151.863 194.784C152.129 194.659 152.44 194.673 152.695 194.82L182.223 211.877L182.228 211.88C184.291 213.091 185.953 213.102 187.039 212.488C188.122 211.876 188.953 210.458 188.953 208.1V208.097L189.059 168.828C188.918 166.193 188.156 163.629 186.837 161.344C185.519 159.058 183.679 157.116 181.469 155.675L131.025 126.581C128.963 125.37 127.301 125.359 126.215 125.973ZM131.934 125.027C129.547 123.626 127.17 123.365 125.329 124.406C123.485 125.449 122.501 127.616 122.5 130.36C122.5 130.36 122.5 130.36 122.5 130.36L122.394 169.653C122.394 169.67 122.394 169.686 122.395 169.703C122.549 172.63 123.392 175.479 124.857 178.017C126.322 180.555 128.366 182.711 130.823 184.309C130.837 184.317 130.85 184.325 130.864 184.333L135.912 187.248V202.829C135.912 203.137 136.07 203.423 136.33 203.589C136.589 203.754 136.916 203.775 137.194 203.644L152.201 196.613L181.317 213.433C181.318 213.433 181.319 213.434 181.32 213.434C183.707 214.835 186.084 215.096 187.925 214.055C189.769 213.012 190.753 210.845 190.753 208.1C190.753 208.1 190.753 208.1 190.753 208.1L190.86 168.808C190.86 168.791 190.859 168.775 190.858 168.758C190.705 165.831 189.861 162.983 188.397 160.444C186.932 157.906 184.887 155.75 182.43 154.153C182.417 154.144 182.403 154.135 182.389 154.127L131.937 125.028C131.936 125.028 131.935 125.027 131.934 125.027Z" fill="#231F20"/>
<path d="M156.559 178.587C157.786 179.387 158.807 180.466 159.538 181.736C160.27 183.005 160.69 184.43 160.766 185.893C160.766 188.582 158.867 189.66 156.528 188.293C155.293 187.506 154.265 186.432 153.532 185.162C152.8 183.893 152.384 182.466 152.321 181.002C152.306 178.314 154.204 177.25 156.559 178.587Z" fill="white"/>
<path fill-rule="evenodd" clip-rule="evenodd" d="M153.221 180.981C153.281 182.294 153.655 183.574 154.312 184.713C154.969 185.852 155.89 186.816 156.997 187.525C157.998 188.105 158.694 188.05 159.081 187.831C159.464 187.614 159.861 187.054 159.866 185.916C159.794 184.603 159.415 183.325 158.759 182.185C158.103 181.046 157.189 180.078 156.091 179.357C155.085 178.793 154.384 178.848 153.995 179.068C153.613 179.285 153.218 179.84 153.221 180.981ZM153.108 177.502C154.25 176.855 155.668 177.046 157.003 177.805L157.027 177.818L157.05 177.833C158.397 178.711 159.516 179.894 160.318 181.287C161.12 182.679 161.582 184.242 161.665 185.847L161.666 185.87V185.893C161.666 187.428 161.117 188.746 159.968 189.397C158.822 190.047 157.405 189.848 156.074 189.07L156.059 189.062L156.045 189.052C154.687 188.187 153.558 187.007 152.753 185.613C151.948 184.218 151.492 182.65 151.422 181.041L151.421 181.024L151.421 181.007C151.412 179.471 151.957 178.154 153.108 177.502Z" fill="#F05023"/>
<path d="M157.212 150.031C162.817 153.267 167.54 159.585 167.51 166.39C167.51 170.4 166.173 172.056 161.799 173.499C161.234 173.639 160.739 173.98 160.406 174.457C160.074 174.935 159.926 175.518 159.991 176.096V177.615L153.095 173.636V171.312C153.095 169.2 153.566 168.107 154.721 167.499C158.123 165.722 160.614 165.403 160.614 162.942C160.59 161.804 160.275 160.691 159.697 159.71C159.12 158.728 158.301 157.912 157.318 157.337C154.478 155.697 152.959 156.927 152.761 159.403L145.698 154.846C146.367 147.799 150.848 146.356 157.212 150.031Z" fill="white"/>
<path fill-rule="evenodd" clip-rule="evenodd" d="M146.654 154.392L152.137 157.93C152.405 157.128 152.874 156.44 153.619 156.036C154.789 155.401 156.244 155.678 157.768 156.558L157.772 156.56C158.888 157.212 159.818 158.139 160.473 159.253C161.128 160.367 161.487 161.631 161.514 162.923L161.514 162.942C161.514 163.724 161.311 164.392 160.905 164.963C160.513 165.516 159.972 165.919 159.396 166.255C158.822 166.588 158.145 166.892 157.444 167.205L157.4 167.225C156.698 167.538 155.944 167.875 155.138 168.296C154.738 168.507 154.48 168.78 154.303 169.195C154.11 169.646 153.995 170.307 153.995 171.311V173.116L159.084 176.052C159.033 175.305 159.238 174.561 159.667 173.943C160.118 173.296 160.784 172.832 161.546 172.634C163.672 171.93 164.884 171.225 165.593 170.343C166.287 169.48 166.61 168.308 166.61 166.39L166.61 166.386C166.638 159.988 162.167 153.931 156.762 150.811C153.652 149.015 151.255 148.626 149.647 149.256C148.195 149.824 147.046 151.37 146.654 154.392ZM157.662 149.252C154.407 147.372 151.381 146.644 148.991 147.579C146.528 148.543 145.15 151.092 144.802 154.761L144.75 155.306L153.539 160.976L153.658 159.475C153.747 158.358 154.115 157.815 154.478 157.618C154.827 157.428 155.551 157.357 156.866 158.116C157.715 158.612 158.423 159.318 158.922 160.166C159.419 161.012 159.692 161.971 159.714 162.951C159.713 163.395 159.604 163.687 159.438 163.921C159.257 164.176 158.962 164.425 158.491 164.699C158.016 164.975 157.433 165.238 156.71 165.562L156.652 165.587C155.957 165.898 155.159 166.255 154.304 166.701L154.301 166.702C153.549 167.099 152.994 167.677 152.647 168.488C152.316 169.263 152.195 170.204 152.195 171.311V174.155L160.891 179.173V176.046L160.886 175.996C160.845 175.634 160.937 175.27 161.145 174.971C161.353 174.673 161.662 174.46 162.015 174.372L162.048 174.364L162.081 174.353C164.311 173.618 165.947 172.776 166.996 171.471C168.064 170.143 168.41 168.483 168.41 166.392C168.441 159.182 163.465 152.602 157.662 149.252Z" fill="#F05023"/>
</svg>
