<svg width="256" height="256" viewBox="0 0 256 256" fill="none" xmlns="http://www.w3.org/2000/svg">
<path fill-rule="evenodd" clip-rule="evenodd" d="M170.45 226L37.3501 149.8L51.9501 142.3C47.6501 139.8 78.9501 152.2 83.2501 149.8L119.25 129C124.85 125.8 131.65 125.8 137.25 129L236.35 185.7C237.15 186.2 237.15 187.3 236.35 187.8C236.35 187.8 174.05 224.2 170.45 226Z" fill="#BEDCE3"/>
<path d="M51.7503 84.7996C51.6503 70.9996 51.6503 70.8996 51.6503 70.8996V65.0996C51.6503 65.0996 51.6503 64.9996 51.6503 64.8996L51.7503 64.7996C51.7503 64.7996 51.7503 64.7996 51.8503 64.6996L63.7503 57.4996V44.0996C63.7503 43.8996 63.8503 43.6996 64.0503 43.5996L76.4503 50.9996L103.15 35.2996C103.35 35.1996 103.45 35.1996 103.65 35.2996L207.35 91.6996C207.35 91.6996 207.35 91.6996 207.45 91.7996L207.55 91.8996V91.9996V92.0996V168.6C207.55 168.8 207.45 169 207.25 169.1L153.15 200.3C153.05 200.3 152.95 200.4 152.85 200.4C152.75 200.4 152.65 200.4 152.55 200.3L51.9503 142.3C51.7503 142.2 51.6503 142 51.6503 141.8V112C50.8503 112.6 49.9503 113 48.7503 113C48.2503 113 47.6503 112.9 47.0503 112.7C44.1503 111.7 43.4503 109.1 43.4503 107C42.6503 107.7 41.4503 108.4 40.1503 108.4C39.6503 108.4 39.0503 108.3 38.4503 108.1C35.5503 107.1 34.8503 104.3 34.9503 102.1C34.1503 102.8 51.7503 84.7996 51.7503 84.7996Z" fill="white"/>
<path d="M206.25 168.9L206.15 93.7998L153.65 123.5L153.85 198.9L206.25 168.9Z" fill="#BEDCE3"/>
<path d="M120.05 149.1L152.85 180.5V124.1L83.2505 83.5L120.05 149.1Z" fill="#BEDCE3"/>
<path d="M119.85 147.9L147.15 121L130.05 111.5L103.25 138.3L119.85 147.9Z" fill="white"/>
<path d="M86.7503 128.7L113.35 102.1L96.6503 92.7998L70.5503 119.3L86.7503 128.7Z" fill="white"/>
<path d="M103.25 138.3L130.35 111.5L113.35 102.1L86.4502 128.7L103.25 138.3Z" fill="#F05023"/>
<path d="M53.0503 109.3L78.9503 83L96.6503 92.8L70.3503 119.5L53.0503 109.3Z" fill="#F05023"/>
<path d="M52.1504 78.0004V65.3004L60.4504 60.4004" stroke="#1D1E1B" stroke-width="2" stroke-miterlimit="10" stroke-linecap="round" stroke-linejoin="round"/>
<path d="M75.5504 155.6L52.1504 142.2V110" stroke="#1D1E1B" stroke-width="2" stroke-miterlimit="10" stroke-linecap="round" stroke-linejoin="round"/>
<path d="M80.9503 48.4004L103.05 35.4004L207.05 92.2004V169L152.95 200L75.5503 155.6" stroke="#1D1E1B" stroke-width="2" stroke-miterlimit="10" stroke-linecap="round" stroke-linejoin="round"/>
<path d="M152.95 200L152.85 123.1L207.05 92.2002" stroke="#1D1E1B" stroke-width="2" stroke-miterlimit="10" stroke-linecap="round" stroke-linejoin="round"/>
<path d="M102.75 139.1C102.75 139.1 101.15 148.5 107.55 151.5C113.95 154.5 117.55 152.5 120.05 149.1C117.05 147.2 102.75 139.1 102.75 139.1Z" fill="white"/>
<path d="M86.1504 129.7C86.1504 129.7 84.5504 139.1 90.9504 142.1C97.3504 145.1 100.95 143.1 103.45 139.7C100.45 137.8 86.1504 129.7 86.1504 129.7Z" fill="#F05023"/>
<path d="M52.8501 109.9C52.8501 109.9 51.2501 119.3 57.6501 122.3C64.0501 125.3 67.6501 123.3 70.1501 119.9C67.1501 117.9 52.8501 109.9 52.8501 109.9Z" fill="#F05023"/>
<path d="M152.85 123.1L148.35 120.8" stroke="#1D1E1B" stroke-width="2" stroke-miterlimit="10"/>
<path d="M120.05 149.1L35.4502 100.2L63.3502 73L148.35 120.8L120.05 149.1Z" stroke="#1D1E1B" stroke-width="2" stroke-miterlimit="10" stroke-linecap="round" stroke-linejoin="round"/>
<path d="M35.4501 100.3C35.4501 100.4 33.3501 110 42.4501 113.1C43.8501 113.6 45.0501 113.8 46.0501 113.7C49.6501 113.7 51.5501 111.3 52.2501 110.1" stroke="#1D1E1B" stroke-width="2" stroke-miterlimit="10"/>
<path d="M52.2504 110.1C52.2504 110.2 50.1504 119.8 59.2504 122.9C60.6504 123.4 61.8504 123.6 62.8504 123.5C66.4504 123.5 68.3504 121.1 69.0504 119.9" stroke="#1D1E1B" stroke-width="2" stroke-miterlimit="10"/>
<path d="M69.0502 119.9C69.0502 120 66.9502 129.6 76.0502 132.7C77.4502 133.2 78.6502 133.4 79.6502 133.3C83.2502 133.3 85.1502 130.9 85.8502 129.7" stroke="#1D1E1B" stroke-width="2" stroke-miterlimit="10"/>
<path d="M85.8505 129.9C85.8505 130 83.7505 139.6 92.8505 142.7C94.2505 143.2 95.4505 143.4 96.4505 143.3C100.051 143.3 101.951 140.9 102.651 139.7" stroke="#1D1E1B" stroke-width="2" stroke-miterlimit="10"/>
<path d="M119.55 149.5C118.85 150.7 117.05 153.1 113.35 153.1C112.25 153.1 111.05 152.9 109.75 152.5C100.55 149.4 102.65 139.8 102.75 139.7" stroke="#1D1E1B" stroke-width="2" stroke-miterlimit="10"/>
<path d="M60.1504 123.2V136.4L112.25 167.3V154.2" stroke="#1D1E1B" stroke-width="2" stroke-miterlimit="10" stroke-linecap="round" stroke-linejoin="round"/>
<path d="M64.3501 44.0996V66.8996L141.15 110.1V87.1996L64.3501 44.0996Z" stroke="#1D1E1B" stroke-width="2" stroke-miterlimit="10" stroke-linecap="round" stroke-linejoin="round"/>
<path fill-rule="evenodd" clip-rule="evenodd" d="M170.45 226.001L37.3501 149.801L51.9501 142.301C47.6501 139.801 78.9501 152.201 83.2501 149.801L119.25 129.001C124.85 125.801 131.65 125.801 137.25 129.001L236.35 185.701C237.15 186.201 237.15 187.301 236.35 187.801C236.35 187.801 174.05 224.201 170.45 226.001Z" fill="#BEDCE3"/>
<path d="M51.7503 84.8006C51.6503 71.0006 51.6503 70.9006 51.6503 70.9006V65.1006C51.6503 65.1006 51.6503 65.0006 51.6503 64.9006L51.7503 64.8006C51.7503 64.8006 51.7503 64.8006 51.8503 64.7006L63.7503 57.5006V44.1006C63.7503 43.9006 63.8503 43.7006 64.0503 43.6006L76.4503 51.0006L103.15 35.3006C103.35 35.2006 103.45 35.2006 103.65 35.3006L207.35 91.7006C207.35 91.7006 207.35 91.7006 207.45 91.8006L207.55 91.9006V92.0006V92.1006V168.601C207.55 168.801 207.45 169.001 207.25 169.101L153.15 200.301C153.05 200.301 152.95 200.401 152.85 200.401C152.75 200.401 152.65 200.401 152.55 200.301L51.9503 142.301C51.7503 142.201 51.6503 142.001 51.6503 141.801V112.001C50.8503 112.601 49.9503 113.001 48.7503 113.001C48.2503 113.001 47.6503 112.901 47.0503 112.701C44.1503 111.701 43.4503 109.101 43.4503 107.001C42.6503 107.701 41.4503 108.401 40.1503 108.401C39.6503 108.401 39.0503 108.301 38.4503 108.101C35.5503 107.101 34.8503 104.301 34.9503 102.101C34.1503 102.801 51.7503 84.8006 51.7503 84.8006Z" fill="white"/>
<path d="M206.25 168.901L206.15 93.8008L153.65 123.501L153.85 198.901L206.25 168.901Z" fill="#BEDCE3"/>
<path d="M120.05 149.1L152.85 180.5V124.1L83.2505 83.5L120.05 149.1Z" fill="#BEDCE3"/>
<path d="M119.85 147.9L147.15 121L130.05 111.5L103.25 138.3L119.85 147.9Z" fill="white"/>
<path d="M86.7503 128.701L113.35 102.101L96.6503 92.8008L70.5503 119.301L86.7503 128.701Z" fill="white"/>
<path d="M103.25 138.301L130.35 111.501L113.35 102.101L86.4502 128.701L103.25 138.301Z" fill="#F05023"/>
<path d="M53.0503 109.3L78.9503 83L96.6503 92.8L70.3503 119.5L53.0503 109.3Z" fill="#F05023"/>
<path fill-rule="evenodd" clip-rule="evenodd" d="M61.3115 59.8922C61.5923 60.3678 61.4344 60.9809 60.9588 61.2617L53.1504 65.8714V78.0005C53.1504 78.5528 52.7027 79.0005 52.1504 79.0005C51.5981 79.0005 51.1504 78.5528 51.1504 78.0005V65.3005C51.1504 64.9467 51.3373 64.6193 51.642 64.4394L59.942 59.5394C60.4176 59.2586 61.0308 59.4166 61.3115 59.8922Z" fill="#1D1E1B"/>
<path fill-rule="evenodd" clip-rule="evenodd" d="M52.1504 109C52.7027 109 53.1504 109.448 53.1504 110V141.62L76.0473 154.732C76.5266 155.007 76.6926 155.618 76.4182 156.097C76.1437 156.576 75.5327 156.742 75.0534 156.468L51.6535 143.068C51.3423 142.89 51.1504 142.559 51.1504 142.2V110C51.1504 109.448 51.5981 109 52.1504 109Z" fill="#1D1E1B"/>
<path fill-rule="evenodd" clip-rule="evenodd" d="M102.543 34.5385C102.847 34.3601 103.221 34.3542 103.53 34.5228L207.53 91.3228C207.851 91.4981 208.05 91.8346 208.05 92.2004V169C208.05 169.359 207.859 169.69 207.548 169.868L153.448 200.868C153.14 201.045 152.761 201.045 152.453 200.868L75.0529 156.468C74.5738 156.193 74.4082 155.582 74.683 155.103C74.9579 154.624 75.569 154.458 76.048 154.733L152.951 198.848L206.05 168.421V92.7937L103.069 36.5498L81.4575 49.2623C80.9815 49.5423 80.3685 49.3834 80.0885 48.9074C79.8085 48.4314 79.9674 47.8185 80.4434 47.5385L102.543 34.5385Z" fill="#1D1E1B"/>
<path fill-rule="evenodd" clip-rule="evenodd" d="M207.919 91.7051C208.192 92.1849 208.025 92.7956 207.545 93.0691L153.851 123.681L153.95 199.999C153.951 200.551 153.504 201 152.951 201C152.399 201.001 151.951 200.554 151.95 200.002L151.85 123.102C151.85 122.742 152.042 122.41 152.355 122.232L206.555 91.3316C207.035 91.0581 207.645 91.2253 207.919 91.7051Z" fill="#1D1E1B"/>
<path d="M102.75 139.101C102.75 139.101 101.15 148.501 107.55 151.501C113.95 154.501 117.55 152.501 120.05 149.101C117.05 147.201 102.75 139.101 102.75 139.101Z" fill="white"/>
<path d="M86.1504 129.7C86.1504 129.7 84.5504 139.1 90.9504 142.1C97.3504 145.1 100.95 143.1 103.45 139.7C100.45 137.8 86.1504 129.7 86.1504 129.7Z" fill="#F05023"/>
<path d="M52.8501 109.9C52.8501 109.9 51.2501 119.3 57.6501 122.3C64.0501 125.3 67.6501 123.3 70.1501 119.9C67.1501 117.9 52.8501 109.9 52.8501 109.9Z" fill="#F05023"/>
<path fill-rule="evenodd" clip-rule="evenodd" d="M148.805 119.91L153.305 122.21L152.395 123.991L147.895 121.691L148.805 119.91Z" fill="#1D1E1B"/>
<path fill-rule="evenodd" clip-rule="evenodd" d="M62.6521 72.284C62.9698 71.9743 63.4536 71.9109 63.8404 72.1284L148.84 119.928C149.113 120.082 149.298 120.354 149.341 120.664C149.383 120.974 149.279 121.286 149.057 121.507L120.757 149.807C120.437 150.127 119.942 150.192 119.55 149.966L34.9498 101.066C34.6788 100.909 34.4967 100.635 34.4579 100.324C34.4191 100.013 34.528 99.7025 34.7521 99.484L62.6521 72.284ZM63.5124 74.2385L37.0933 99.9947L119.886 147.85L146.711 121.025L63.5124 74.2385Z" fill="#1D1E1B"/>
<path fill-rule="evenodd" clip-rule="evenodd" d="M42.1209 114.045C32.1871 110.655 34.4503 99.995 34.4503 100.3H36.4503C36.4503 100.342 36.4373 100.437 36.4179 100.579C36.2014 102.167 35.1916 109.571 42.7727 112.154L42.7797 112.156L42.7866 112.159C44.1084 112.631 45.1516 112.785 45.9508 112.705L46.0004 112.7H46.0503C49.1344 112.7 50.7668 110.659 51.3865 109.596L53.1141 110.604C52.3369 111.937 50.1833 114.678 46.0992 114.7C44.9128 114.808 43.5757 114.563 42.1209 114.045Z" fill="#1D1E1B"/>
<path fill-rule="evenodd" clip-rule="evenodd" d="M58.9207 123.844C48.9869 120.455 51.2501 109.795 51.2501 110.1H53.2501C53.2501 110.142 53.2371 110.237 53.2177 110.379C53.0012 111.967 51.9914 119.371 59.5725 121.954L59.5795 121.956L59.5864 121.958C60.9082 122.431 61.9514 122.585 62.7506 122.505L62.8002 122.5H62.8501C65.9342 122.5 67.5666 120.459 68.1863 119.396L69.9139 120.404C69.1367 121.736 66.9831 124.478 62.899 124.5C61.7126 124.608 60.3755 124.363 58.9207 123.844Z" fill="#1D1E1B"/>
<path fill-rule="evenodd" clip-rule="evenodd" d="M75.721 133.644C65.7872 130.255 68.0504 119.595 68.0504 119.9H70.0504C70.0504 119.941 70.0374 120.037 70.018 120.179C69.8015 121.767 68.7917 129.171 76.3728 131.753L76.3798 131.756L76.3867 131.758C77.7085 132.23 78.7517 132.385 79.5509 132.305L79.6005 132.3H79.6504C82.7345 132.3 84.3669 130.258 84.9866 129.196L86.7142 130.204C85.937 131.536 83.7834 134.278 79.6993 134.3C78.5129 134.408 77.1758 134.163 75.721 133.644Z" fill="#1D1E1B"/>
<path fill-rule="evenodd" clip-rule="evenodd" d="M92.5208 143.644C82.587 140.255 84.8502 129.595 84.8502 129.9H86.8502C86.8502 129.941 86.8372 130.037 86.8178 130.179C86.6013 131.767 85.5915 139.171 93.1726 141.753L93.1796 141.756L93.1865 141.758C94.5083 142.23 95.5515 142.385 96.3507 142.305L96.4003 142.3H96.4502C99.5343 142.3 101.167 140.258 101.786 139.196L103.514 140.204C102.737 141.536 100.583 144.278 96.4991 144.3C95.3127 144.408 93.9756 144.163 92.5208 143.644Z" fill="#1D1E1B"/>
<path fill-rule="evenodd" clip-rule="evenodd" d="M110.057 151.548C105.861 150.13 104.292 147.285 103.74 144.762C103.459 143.477 103.443 142.27 103.506 141.376C103.537 140.931 103.587 140.57 103.63 140.325C103.652 140.202 103.671 140.114 103.683 140.063C103.688 140.042 103.691 140.033 103.691 140.033C103.691 140.033 103.69 140.034 103.69 140.035L103.69 140.036C103.689 140.038 103.683 140.059 103.671 140.087C103.665 140.102 103.652 140.132 103.632 140.171C103.632 140.171 103.632 140.172 103.631 140.172C103.619 140.195 103.564 140.301 103.457 140.407L102.043 138.993C101.935 139.102 101.877 139.211 101.864 139.236C101.864 139.237 101.863 139.238 101.863 139.238C101.841 139.28 101.826 139.316 101.817 139.336C101.8 139.378 101.788 139.416 101.781 139.439C101.766 139.488 101.752 139.541 101.74 139.59C101.715 139.692 101.688 139.823 101.66 139.978C101.605 140.29 101.547 140.72 101.511 141.237C101.439 142.268 101.454 143.673 101.786 145.189C102.458 148.263 104.436 151.765 109.431 153.448L109.444 153.452L109.456 153.456C110.83 153.879 112.13 154.1 113.35 154.1C117.573 154.1 119.639 151.332 120.414 150.004L118.686 148.996C118.061 150.068 116.527 152.1 113.35 152.1C112.374 152.1 111.278 151.923 110.057 151.548Z" fill="#1D1E1B"/>
<path fill-rule="evenodd" clip-rule="evenodd" d="M60.1504 122.2C60.7027 122.2 61.1504 122.648 61.1504 123.2V135.831L111.25 165.544V154.2C111.25 153.648 111.698 153.2 112.25 153.2C112.803 153.2 113.25 153.648 113.25 154.2V167.3C113.25 167.66 113.058 167.991 112.745 168.169C112.433 168.347 112.049 168.344 111.74 168.16L59.6403 137.26C59.3366 137.08 59.1504 136.753 59.1504 136.4V123.2C59.1504 122.648 59.5981 122.2 60.1504 122.2Z" fill="#1D1E1B"/>
<path fill-rule="evenodd" clip-rule="evenodd" d="M63.8448 43.2376C64.1513 43.0582 64.5298 43.0547 64.8395 43.2285L141.639 86.3285C141.955 86.5055 142.15 86.839 142.15 87.2006V110.101C142.15 110.456 141.962 110.784 141.655 110.964C141.348 111.143 140.969 111.146 140.66 110.972L63.8598 67.7722C63.545 67.595 63.3501 67.2619 63.3501 66.9006V44.1006C63.3501 43.7455 63.5384 43.417 63.8448 43.2376ZM65.3501 45.8085V66.3157L140.15 108.391V87.7861L65.3501 45.8085Z" fill="#1D1E1B"/>
</svg>
