<svg width="256" height="256" viewBox="0 0 256 256" fill="none" xmlns="http://www.w3.org/2000/svg">
<g clip-path="url(#clip0_4693_10093)">
<path d="M128.23 107.66L11.1401 175.27V79.8202L128.23 12.2002V107.66Z" fill="white"/>
<path d="M11.1399 175.52C11.0999 175.52 11.0499 175.51 11.0199 175.49C10.9399 175.45 10.8999 175.36 10.8999 175.27V79.82C10.8999 79.73 10.9499 79.65 11.0199 79.6L128.12 11.99C128.2 11.95 128.29 11.95 128.37 11.99C128.45 12.03 128.49 12.12 128.49 12.21V107.66C128.49 107.75 128.44 107.83 128.37 107.88L11.2599 175.48C11.2199 175.51 11.1799 175.52 11.1399 175.52ZM11.3899 79.96V174.83L127.99 107.51V12.64L11.3899 79.96Z" fill="#BEDCE3"/>
<path d="M128.23 107.66L245.33 175.27V79.8202L128.23 12.2002V107.66Z" fill="white"/>
<path d="M245.33 175.52C245.29 175.52 245.24 175.51 245.21 175.49L128.11 107.88C128.03 107.84 127.99 107.75 127.99 107.66V12.2002C127.99 12.1102 128.04 12.0302 128.11 11.9802C128.19 11.9402 128.28 11.9402 128.36 11.9802L245.46 79.5902C245.54 79.6302 245.58 79.7202 245.58 79.8102V175.26C245.58 175.35 245.53 175.43 245.46 175.48C245.42 175.51 245.37 175.52 245.33 175.52ZM128.48 107.51L245.08 174.83V79.9602L128.48 12.6402V107.51Z" fill="#BEDCE3"/>
<path d="M11.1401 175.27L128.23 242.88L245.33 175.27L128.23 107.66L11.1401 175.27Z" fill="white"/>
<path d="M128.23 243.13C128.19 243.13 128.14 243.12 128.11 243.1L11.0101 175.48C10.9301 175.44 10.8901 175.35 10.8901 175.26C10.8901 175.17 10.9401 175.09 11.0101 175.04L128.11 107.43C128.19 107.39 128.28 107.39 128.36 107.43L245.46 175.04C245.54 175.08 245.58 175.17 245.58 175.26C245.58 175.35 245.53 175.43 245.46 175.48L128.36 243.09C128.32 243.12 128.28 243.13 128.23 243.13ZM11.6401 175.27L128.24 242.59L244.84 175.27L128.24 107.95L11.6401 175.27Z" fill="#BEDCE3"/>
<path d="M4.25 75.84L11.14 79.82L128.23 12.2L245.33 79.82L252.22 75.84L128.23 4.25L4.25 75.84Z" fill="white"/>
<path d="M245.33 80.07C245.29 80.07 245.24 80.06 245.21 80.04L128.23 12.49L11.26 80.03C11.18 80.07 11.09 80.07 11.01 80.03L4.12 76.05C4.05 76.01 4 75.93 4 75.84C4 75.75 4.05 75.67 4.12 75.62L128.11 4.03C128.19 3.99 128.28 3.99 128.36 4.03L252.34 75.62C252.42 75.66 252.46 75.75 252.46 75.84C252.46 75.93 252.41 76.01 252.34 76.06L245.45 80.04C245.42 80.05 245.37 80.07 245.33 80.07ZM128.23 11.95C128.27 11.95 128.32 11.96 128.35 11.98L245.32 79.52L251.71 75.83L128.23 4.54L4.75 75.84L11.14 79.53L128.11 11.99C128.15 11.97 128.19 11.95 128.23 11.95Z" fill="#BEDCE3"/>
<path d="M245.33 79.8198V175.27L128.23 242.88V250.83L252.22 179.24V75.8398L245.33 79.8198Z" fill="white"/>
<path d="M128.23 251.08C128.19 251.08 128.14 251.07 128.11 251.05C128.03 251.01 127.99 250.92 127.99 250.83V242.88C127.99 242.79 128.04 242.71 128.11 242.66L245.08 175.12V79.8198C245.08 79.7298 245.13 79.6498 245.2 79.5998L252.09 75.6198C252.17 75.5798 252.26 75.5798 252.34 75.6198C252.42 75.6598 252.46 75.7498 252.46 75.8398V179.25C252.46 179.34 252.41 179.42 252.34 179.47L128.36 251.06C128.32 251.07 128.28 251.08 128.23 251.08ZM128.48 243.02V250.4L251.96 179.1V76.2698L245.57 79.9598V175.27C245.57 175.36 245.52 175.44 245.45 175.49L128.48 243.02Z" fill="#BEDCE3"/>
<path d="M11.14 175.27V79.8198L4.25 75.8398V179.24L128.23 250.83V242.88L11.14 175.27Z" fill="white"/>
<path d="M128.23 251.08C128.19 251.08 128.14 251.07 128.11 251.05L4.12 179.46C4.05 179.42 4 179.33 4 179.24V75.8398C4 75.7498 4.05 75.6698 4.12 75.6198C4.2 75.5798 4.29 75.5798 4.37 75.6198L11.26 79.5998C11.34 79.6398 11.38 79.7298 11.38 79.8198V175.13L128.35 242.67C128.43 242.71 128.47 242.8 128.47 242.89V250.84C128.47 250.93 128.42 251.01 128.35 251.06C128.32 251.07 128.28 251.08 128.23 251.08ZM4.5 179.1L127.98 250.4V243.02L11.01 175.48C10.93 175.44 10.89 175.35 10.89 175.26V79.9598L4.5 76.2698V179.1Z" fill="#BEDCE3"/>
<path d="M158.9 36.4502L217.78 70.4502L199.66 80.9102L140.79 46.9102L158.9 36.4502Z" fill="white"/>
<path d="M199.66 81.1602C199.62 81.1602 199.57 81.1502 199.54 81.1302L140.66 47.1302C140.58 47.0902 140.54 47.0002 140.54 46.9102C140.54 46.8202 140.59 46.7402 140.66 46.6902L158.78 36.2302C158.86 36.1902 158.95 36.1902 159.03 36.2302L217.91 70.2302C217.99 70.2702 218.03 70.3602 218.03 70.4502C218.03 70.5402 217.98 70.6202 217.91 70.6702L199.79 81.1302C199.75 81.1502 199.71 81.1602 199.66 81.1602ZM141.29 46.9102L199.67 80.6202L217.29 70.4502L158.9 36.7402L141.29 46.9102Z" fill="#BEDCE3"/>
<path d="M199.66 80.9102V169.82L217.78 159.36V70.4502L199.66 80.9102Z" fill="white"/>
<path d="M199.66 170.07C199.62 170.07 199.57 170.06 199.54 170.04C199.46 170 199.42 169.91 199.42 169.82V80.9102C199.42 80.8202 199.47 80.7402 199.54 80.6902L217.66 70.2302C217.74 70.1902 217.83 70.1902 217.91 70.2302C217.99 70.2702 218.03 70.3602 218.03 70.4502V159.36C218.03 159.45 217.98 159.53 217.91 159.58L199.79 170.04C199.75 170.06 199.71 170.07 199.66 170.07ZM199.91 81.0502V169.38L217.53 159.21V70.8802L199.91 81.0502Z" fill="#BEDCE3"/>
<path d="M199.66 169.82L140.79 135.82V46.9102L199.66 80.9102V169.82Z" fill="white"/>
<path d="M199.66 170.07C199.62 170.07 199.57 170.06 199.54 170.04L140.66 136.04C140.58 136 140.54 135.91 140.54 135.82V46.9102C140.54 46.8202 140.59 46.7402 140.66 46.6902C140.74 46.6502 140.83 46.6502 140.91 46.6902L199.79 80.6902C199.87 80.7302 199.91 80.8202 199.91 80.9102V169.82C199.91 169.91 199.86 169.99 199.79 170.04C199.75 170.06 199.71 170.07 199.66 170.07ZM141.04 135.68L199.42 169.39V81.0502L141.04 47.3402V135.68Z" fill="#BEDCE3"/>
<path d="M158.9 125.36L195.13 146.28V161.97L145.31 133.21L158.9 125.36Z" fill="white"/>
<path d="M195.13 162.22C195.09 162.22 195.04 162.21 195.01 162.19L145.19 133.42C145.11 133.38 145.07 133.29 145.07 133.2C145.07 133.11 145.12 133.03 145.19 132.98L158.78 125.13C158.86 125.09 158.95 125.09 159.03 125.13L195.26 146.05C195.34 146.09 195.38 146.18 195.38 146.27V161.96C195.38 162.05 195.33 162.13 195.26 162.18C195.22 162.21 195.18 162.22 195.13 162.22ZM145.81 133.21L194.88 161.54V146.43L158.9 125.65L145.81 133.21Z" fill="#BEDCE3"/>
<mask id="mask0_4693_10093" style="mask-type:alpha" maskUnits="userSpaceOnUse" x="145" y="54" width="51" height="108">
<path d="M145.31 54.7603L195.13 83.5203V161.97L145.31 133.21V54.7603Z" fill="white"/>
</mask>
<g mask="url(#mask0_4693_10093)">
<path d="M145.311 54.7603V133.21L158.901 125.36V62.6003L145.311 54.7603Z" fill="white"/>
<path d="M145.31 133.46C145.27 133.46 145.22 133.45 145.19 133.43C145.11 133.39 145.07 133.3 145.07 133.21V54.7603C145.07 54.6703 145.12 54.5903 145.19 54.5403C145.27 54.5003 145.36 54.5003 145.44 54.5403L159.03 62.3903C159.11 62.4303 159.15 62.5203 159.15 62.6103V125.37C159.15 125.46 159.1 125.54 159.03 125.59L145.44 133.44C145.4 133.45 145.36 133.46 145.31 133.46ZM145.56 55.1903V132.78L158.65 125.22V62.7503L145.56 55.1903Z" fill="#BEDCE3"/>
<path d="M158.9 112.13L195.131 133.05V146.74L147.021 118.96L158.9 112.13Z" fill="white"/>
<path d="M195.13 146.99C195.09 146.99 195.04 146.98 195.01 146.96L146.9 119.18C146.82 119.14 146.78 119.05 146.78 118.96C146.78 118.87 146.83 118.79 146.91 118.74L158.79 111.9C158.87 111.86 158.96 111.86 159.04 111.9L195.27 132.82C195.35 132.86 195.39 132.95 195.39 133.04V146.73C195.39 146.82 195.34 146.9 195.27 146.95C195.22 146.98 195.18 146.99 195.13 146.99ZM147.52 118.96L194.88 146.3V133.18L158.9 112.4L147.52 118.96Z" fill="#BEDCE3"/>
<path d="M147.021 118.96V121.28L195.131 149.06V146.74L147.021 118.96Z" fill="white"/>
<path d="M195.13 149.31C195.09 149.31 195.04 149.3 195.01 149.28L146.9 121.5C146.82 121.46 146.78 121.37 146.78 121.28V118.96C146.78 118.87 146.83 118.79 146.9 118.74C146.98 118.7 147.07 118.7 147.15 118.74L195.26 146.52C195.34 146.56 195.38 146.65 195.38 146.74V149.06C195.38 149.15 195.33 149.23 195.26 149.28C195.22 149.3 195.18 149.31 195.13 149.31ZM147.27 121.14L194.88 148.63V146.89L147.27 119.4V121.14Z" fill="#BEDCE3"/>
<path d="M152.24 113.23L158.3 116.85V122.26L152.24 118.63V113.23Z" fill="white"/>
<path d="M158.3 122.51C158.26 122.51 158.21 122.5 158.17 122.47L152.11 118.84C152.03 118.8 151.99 118.71 151.99 118.63V113.23C151.99 113.14 152.04 113.06 152.12 113.01C152.2 112.97 152.29 112.97 152.37 113.01L158.43 116.64C158.51 116.68 158.55 116.77 158.55 116.85V122.25C158.55 122.34 158.5 122.42 158.42 122.47C158.38 122.5 158.34 122.51 158.3 122.51ZM152.49 118.49L158.05 121.82V117L152.49 113.67V118.49Z" fill="#BEDCE3"/>
<path d="M158.3 116.85L168.74 110.89V116.29L158.3 122.26V116.85Z" fill="white"/>
<path d="M158.3 122.51C158.26 122.51 158.21 122.5 158.17 122.48C158.09 122.44 158.05 122.35 158.05 122.26V116.86C158.05 116.77 158.1 116.69 158.18 116.64L168.62 110.67C168.7 110.63 168.79 110.63 168.87 110.67C168.95 110.71 168.99 110.8 168.99 110.89V116.29C168.99 116.38 168.94 116.46 168.86 116.51L158.42 122.48C158.38 122.5 158.34 122.51 158.3 122.51ZM158.55 117V121.83L168.49 116.15V111.32L158.55 117Z" fill="#BEDCE3"/>
<path d="M152.24 113.23L162.67 107.26L168.74 110.89L158.3 116.85L152.24 113.23Z" fill="white"/>
<path d="M158.3 117.1C158.26 117.1 158.21 117.09 158.17 117.06L152.11 113.43C152.03 113.38 151.99 113.3 151.99 113.21C151.99 113.12 152.04 113.04 152.12 113L162.56 107.03C162.64 106.99 162.73 106.99 162.81 107.03L168.87 110.66C168.95 110.71 168.99 110.79 168.99 110.88C168.99 110.97 168.94 111.05 168.86 111.09L158.42 117.06C158.38 117.09 158.34 117.1 158.3 117.1ZM152.73 113.23L158.3 116.56L168.24 110.88L162.67 107.55L152.73 113.23Z" fill="#BEDCE3"/>
<path d="M160 117.77L166.06 121.4V126.81L160 123.18V117.77Z" fill="white"/>
<path d="M166.06 127.06C166.02 127.06 165.97 127.05 165.93 127.02L159.87 123.39C159.79 123.35 159.75 123.26 159.75 123.18V117.78C159.75 117.69 159.8 117.61 159.88 117.56C159.96 117.52 160.05 117.52 160.13 117.56L166.19 121.19C166.27 121.23 166.31 121.32 166.31 121.4V126.8C166.31 126.89 166.26 126.97 166.18 127.02C166.15 127.05 166.1 127.06 166.06 127.06ZM160.25 123.04L165.81 126.37V121.55L160.25 118.22V123.04Z" fill="#BEDCE3"/>
<path d="M166.06 121.4L176.5 115.44V120.84L166.06 126.81V121.4Z" fill="white"/>
<path d="M166.06 127.06C166.02 127.06 165.97 127.05 165.93 127.03C165.85 126.99 165.81 126.9 165.81 126.81V121.41C165.81 121.32 165.86 121.24 165.94 121.19L176.38 115.22C176.46 115.18 176.55 115.18 176.63 115.22C176.71 115.26 176.75 115.35 176.75 115.44V120.84C176.75 120.93 176.7 121.01 176.62 121.06L166.18 127.03C166.15 127.05 166.1 127.06 166.06 127.06ZM166.31 121.55V126.38L176.25 120.7V115.87L166.31 121.55Z" fill="#BEDCE3"/>
<path d="M160 117.77L170.44 111.81L176.5 115.44L166.06 121.4L160 117.77Z" fill="white"/>
<path d="M166.06 121.65C166.02 121.65 165.97 121.64 165.93 121.61L159.87 117.98C159.79 117.93 159.75 117.85 159.75 117.76C159.75 117.67 159.8 117.59 159.88 117.55L170.32 111.58C170.4 111.54 170.49 111.54 170.57 111.58L176.63 115.21C176.71 115.26 176.75 115.34 176.75 115.43C176.75 115.52 176.7 115.6 176.62 115.64L166.18 121.61C166.15 121.64 166.1 121.65 166.06 121.65ZM160.49 117.78L166.06 121.11L176 115.43L170.43 112.1L160.49 117.78Z" fill="#BEDCE3"/>
<path d="M167.76 122.32L173.83 125.95V131.36L167.76 127.73V122.32Z" fill="white"/>
<path d="M173.83 131.61C173.79 131.61 173.74 131.6 173.7 131.57L167.64 127.94C167.56 127.9 167.52 127.81 167.52 127.73V122.33C167.52 122.24 167.57 122.16 167.65 122.11C167.73 122.07 167.82 122.07 167.9 122.11L173.96 125.74C174.04 125.78 174.08 125.87 174.08 125.95V131.35C174.08 131.44 174.03 131.52 173.95 131.57C173.91 131.6 173.87 131.61 173.83 131.61ZM168.01 127.59L173.57 130.92V126.1L168.01 122.77V127.59Z" fill="#BEDCE3"/>
<path d="M173.83 125.95L184.26 119.99V125.39L173.83 131.36V125.95Z" fill="white"/>
<path d="M173.83 131.61C173.79 131.61 173.74 131.6 173.7 131.58C173.62 131.54 173.58 131.45 173.58 131.36V125.96C173.58 125.87 173.63 125.79 173.71 125.74L184.15 119.77C184.23 119.73 184.32 119.73 184.4 119.77C184.48 119.81 184.52 119.9 184.52 119.99V125.39C184.52 125.48 184.47 125.56 184.39 125.61L173.95 131.58C173.91 131.6 173.87 131.61 173.83 131.61ZM174.08 126.1V130.93L184.02 125.25V120.42L174.08 126.1Z" fill="#BEDCE3"/>
<path d="M167.76 122.32L178.2 116.36L184.26 119.99L173.83 125.95L167.76 122.32Z" fill="white"/>
<path d="M173.83 126.2C173.79 126.2 173.74 126.19 173.7 126.16L167.64 122.53C167.56 122.48 167.52 122.4 167.52 122.31C167.52 122.22 167.57 122.14 167.65 122.1L178.09 116.13C178.17 116.09 178.26 116.09 178.34 116.13L184.4 119.76C184.48 119.81 184.52 119.89 184.52 119.98C184.52 120.07 184.47 120.15 184.39 120.19L173.95 126.16C173.91 126.19 173.87 126.2 173.83 126.2ZM168.26 122.33L173.83 125.66L183.77 119.98L178.2 116.65L168.26 122.33Z" fill="#BEDCE3"/>
<path d="M175.53 126.87L181.59 130.5V135.91L175.53 132.28V126.87Z" fill="white"/>
<path d="M181.59 136.16C181.55 136.16 181.5 136.15 181.46 136.12L175.4 132.49C175.32 132.45 175.28 132.36 175.28 132.28V126.88C175.28 126.79 175.33 126.71 175.41 126.66C175.49 126.62 175.58 126.62 175.66 126.66L181.72 130.29C181.8 130.33 181.84 130.42 181.84 130.5V135.9C181.84 135.99 181.79 136.07 181.71 136.12C181.67 136.15 181.63 136.16 181.59 136.16ZM175.78 132.14L181.34 135.47V130.65L175.78 127.32V132.14Z" fill="#BEDCE3"/>
<path d="M181.59 130.5L192.03 124.54V129.94L181.59 135.91V130.5Z" fill="white"/>
<path d="M181.59 136.16C181.55 136.16 181.5 136.15 181.46 136.13C181.38 136.09 181.34 136 181.34 135.91V130.51C181.34 130.42 181.39 130.34 181.47 130.29L191.91 124.32C191.99 124.28 192.08 124.28 192.16 124.32C192.24 124.36 192.28 124.45 192.28 124.54V129.94C192.28 130.03 192.23 130.11 192.15 130.16L181.71 136.13C181.67 136.15 181.63 136.16 181.59 136.16ZM181.84 130.65V135.48L191.78 129.8V124.97L181.84 130.65Z" fill="#BEDCE3"/>
<path d="M175.53 126.87L185.96 120.91L192.03 124.54L181.59 130.5L175.53 126.87Z" fill="white"/>
<path d="M181.59 130.75C181.55 130.75 181.5 130.74 181.46 130.71L175.4 127.08C175.32 127.03 175.28 126.95 175.28 126.86C175.28 126.77 175.33 126.69 175.41 126.65L185.85 120.68C185.93 120.64 186.02 120.64 186.1 120.68L192.16 124.31C192.24 124.36 192.28 124.44 192.28 124.53C192.28 124.62 192.23 124.7 192.15 124.74L181.71 130.71C181.67 130.74 181.63 130.75 181.59 130.75ZM176.02 126.88L181.59 130.21L191.53 124.53L185.96 121.2L176.02 126.88Z" fill="#BEDCE3"/>
<path d="M183.29 131.42L189.35 135.05V140.46L183.29 136.83V131.42Z" fill="white"/>
<path d="M189.35 140.71C189.31 140.71 189.26 140.7 189.22 140.67L183.16 137.04C183.08 137 183.04 136.91 183.04 136.83V131.43C183.04 131.34 183.09 131.26 183.17 131.21C183.25 131.16 183.34 131.17 183.42 131.21L189.48 134.84C189.56 134.88 189.6 134.97 189.6 135.05V140.45C189.6 140.54 189.55 140.62 189.47 140.67C189.44 140.7 189.39 140.71 189.35 140.71ZM183.54 136.69L189.1 140.02V135.2L183.54 131.87V136.69Z" fill="#BEDCE3"/>
<path d="M189.35 135.05L199.79 129.09V134.49L189.35 140.46V135.05Z" fill="white"/>
<path d="M189.35 140.71C189.31 140.71 189.26 140.7 189.22 140.68C189.14 140.64 189.1 140.55 189.1 140.46V135.06C189.1 134.97 189.15 134.89 189.23 134.84L199.67 128.87C199.75 128.83 199.84 128.83 199.92 128.87C200 128.91 200.04 129 200.04 129.09V134.49C200.04 134.58 199.99 134.66 199.91 134.71L189.47 140.68C189.44 140.7 189.39 140.71 189.35 140.71ZM189.6 135.2V140.03L199.54 134.35V129.52L189.6 135.2Z" fill="#BEDCE3"/>
<path d="M183.29 131.42L193.73 125.46L199.79 129.09L189.35 135.05L183.29 131.42Z" fill="white"/>
<path d="M189.35 135.3C189.31 135.3 189.26 135.29 189.22 135.26L183.16 131.63C183.08 131.58 183.04 131.5 183.04 131.41C183.04 131.32 183.09 131.24 183.17 131.2L193.61 125.23C193.69 125.19 193.78 125.19 193.86 125.23L199.92 128.86C200 128.91 200.04 128.99 200.04 129.08C200.04 129.17 199.99 129.25 199.91 129.29L189.47 135.26C189.44 135.29 189.39 135.3 189.35 135.3ZM183.78 131.43L189.35 134.76L199.29 129.08L193.72 125.75L183.78 131.43Z" fill="#BEDCE3"/>
<path d="M191.05 135.97L197.11 139.6V145.01L191.05 141.38V135.97Z" fill="white"/>
<path d="M197.11 145.26C197.07 145.26 197.02 145.25 196.98 145.22L190.92 141.59C190.84 141.55 190.8 141.46 190.8 141.38V135.98C190.8 135.89 190.85 135.81 190.93 135.76C191.01 135.72 191.1 135.72 191.18 135.76L197.24 139.39C197.32 139.43 197.36 139.52 197.36 139.6V145C197.36 145.09 197.31 145.17 197.23 145.22C197.2 145.25 197.16 145.26 197.11 145.26ZM191.3 141.24L196.86 144.57V139.75L191.3 136.42V141.24Z" fill="#BEDCE3"/>
<path d="M191.05 135.97L201.49 130.01L207.55 133.64L197.11 139.6L191.05 135.97Z" fill="white"/>
<path d="M197.11 139.85C197.07 139.85 197.02 139.84 196.98 139.81L190.92 136.18C190.84 136.13 190.8 136.05 190.8 135.96C190.8 135.87 190.85 135.79 190.93 135.75L201.37 129.78C201.45 129.74 201.54 129.74 201.62 129.78L207.68 133.41C207.76 133.46 207.8 133.54 207.8 133.63C207.8 133.72 207.75 133.8 207.67 133.84L197.23 139.81C197.2 139.84 197.16 139.85 197.11 139.85ZM191.55 135.98L197.12 139.31L207.06 133.63L201.49 130.3L191.55 135.98Z" fill="#BEDCE3"/>
<path d="M158.9 91.21L195.131 112.13V125.82L147.021 98.04L158.9 91.21Z" fill="white"/>
<path d="M195.13 126.07C195.09 126.07 195.04 126.06 195.01 126.04L146.9 98.2602C146.82 98.2202 146.78 98.1302 146.78 98.0402C146.78 97.9502 146.83 97.8702 146.91 97.8202L158.79 90.9802C158.87 90.9402 158.96 90.9402 159.04 90.9802L195.27 111.9C195.35 111.94 195.39 112.03 195.39 112.12V125.81C195.39 125.9 195.34 125.98 195.27 126.03C195.22 126.06 195.18 126.07 195.13 126.07ZM147.52 98.0402L194.88 125.38V112.26L158.9 91.5002L147.52 98.0402Z" fill="#BEDCE3"/>
<path d="M147.021 98.04V100.36L195.131 128.14V125.82L147.021 98.04Z" fill="white"/>
<path d="M195.13 128.39C195.09 128.39 195.04 128.38 195.01 128.36L146.9 100.58C146.82 100.54 146.78 100.45 146.78 100.36V98.04C146.78 97.95 146.83 97.87 146.9 97.82C146.98 97.78 147.07 97.78 147.15 97.82L195.26 125.6C195.34 125.64 195.38 125.73 195.38 125.82V128.14C195.38 128.23 195.33 128.31 195.26 128.36C195.22 128.38 195.18 128.39 195.13 128.39ZM147.27 100.22L194.88 127.71V125.97L147.27 98.48V100.22Z" fill="#BEDCE3"/>
<path d="M167.27 87.4702L158.7 92.4202V101.8L167.27 96.8502V87.4702Z" fill="white"/>
<path d="M158.7 102.05C158.66 102.05 158.61 102.04 158.58 102.02C158.5 101.98 158.46 101.89 158.46 101.8V92.4202C158.46 92.3302 158.51 92.2502 158.58 92.2002L167.15 87.2502C167.23 87.2102 167.32 87.2102 167.4 87.2502C167.48 87.2902 167.52 87.3802 167.52 87.4702V96.8502C167.52 96.9402 167.47 97.0202 167.4 97.0702L158.83 102.02C158.79 102.04 158.74 102.05 158.7 102.05ZM158.95 92.5602V101.36L167.02 96.7002V87.9002L158.95 92.5602Z" fill="#BEDCE3"/>
<path d="M158.701 92.42L151.811 88.29V97.68L158.701 101.8V92.42Z" fill="white"/>
<path d="M158.701 102.05C158.661 102.05 158.611 102.04 158.571 102.01L151.681 97.88C151.601 97.84 151.561 97.75 151.561 97.67V88.29C151.561 88.2 151.611 88.12 151.691 88.07C151.771 88.03 151.861 88.03 151.941 88.07L158.831 92.2C158.911 92.24 158.951 92.33 158.951 92.41V101.79C158.951 101.88 158.901 101.96 158.821 102.01C158.781 102.04 158.741 102.05 158.701 102.05ZM152.061 97.53L158.451 101.36V92.56L152.061 88.73V97.53Z" fill="#BEDCE3"/>
<path d="M167.271 87.4703L160.391 83.3403L151.811 88.2903L158.701 92.4203L167.271 87.4703Z" fill="white"/>
<path d="M158.701 92.6703C158.661 92.6703 158.611 92.6603 158.571 92.6303L151.681 88.5003C151.601 88.4503 151.561 88.3703 151.561 88.2803C151.561 88.1903 151.611 88.1103 151.681 88.0703L160.251 83.1203C160.331 83.0703 160.431 83.0803 160.501 83.1203L167.391 87.2503C167.471 87.3003 167.511 87.3803 167.511 87.4703C167.511 87.5603 167.461 87.6403 167.391 87.6803L158.821 92.6303C158.791 92.6603 158.741 92.6703 158.701 92.6703ZM152.311 88.3003L158.711 92.1303L166.791 87.4703L160.391 83.6403L152.311 88.3003Z" fill="#BEDCE3"/>
<path d="M175.73 92.3506L167.15 97.3006V106.681L175.73 101.731V92.3506Z" fill="white"/>
<path d="M167.151 106.931C167.111 106.931 167.061 106.921 167.031 106.901C166.951 106.861 166.911 106.771 166.911 106.681V97.3006C166.911 97.2106 166.961 97.1306 167.031 97.0806L175.601 92.1306C175.681 92.0906 175.771 92.0906 175.851 92.1306C175.931 92.1706 175.971 92.2606 175.971 92.3506V101.731C175.971 101.821 175.921 101.901 175.851 101.951L167.281 106.901C167.241 106.921 167.201 106.931 167.151 106.931ZM167.401 97.4406V106.241L175.471 101.581V92.7806L167.401 97.4406Z" fill="#BEDCE3"/>
<path d="M167.15 97.3004L160.271 93.1704V102.56L167.15 106.68V97.3004Z" fill="white"/>
<path d="M167.151 106.93C167.111 106.93 167.061 106.92 167.021 106.89L160.131 102.76C160.051 102.72 160.011 102.63 160.011 102.55V93.1704C160.011 93.0804 160.061 93.0004 160.141 92.9504C160.221 92.9104 160.311 92.9104 160.391 92.9504L167.281 97.0804C167.361 97.1204 167.401 97.2104 167.401 97.2904V106.67C167.401 106.76 167.351 106.84 167.271 106.89C167.241 106.92 167.201 106.93 167.151 106.93ZM160.521 102.41L166.911 106.24V97.4404L160.521 93.6104V102.41Z" fill="#BEDCE3"/>
<path d="M175.73 92.3502L168.84 88.2202L160.271 93.1702L167.15 97.3002L175.73 92.3502Z" fill="white"/>
<path d="M167.151 97.5504C167.111 97.5504 167.061 97.5404 167.021 97.5104L160.131 93.3804C160.051 93.3304 160.011 93.2504 160.011 93.1604C160.011 93.0704 160.061 92.9904 160.131 92.9504L168.701 88.0004C168.781 87.9504 168.881 87.9504 168.951 88.0004L175.841 92.1304C175.921 92.1804 175.961 92.2604 175.961 92.3504C175.961 92.4404 175.911 92.5204 175.841 92.5604L167.271 97.5104C167.241 97.5404 167.201 97.5504 167.151 97.5504ZM160.761 93.1804L167.161 97.0104L175.241 92.3504L168.841 88.5204L160.761 93.1804Z" fill="#BEDCE3"/>
<path d="M184.181 97.23L175.611 102.18V111.56L184.181 106.61V97.23Z" fill="white"/>
<path d="M175.611 111.81C175.571 111.81 175.521 111.8 175.491 111.78C175.411 111.74 175.371 111.65 175.371 111.56V102.18C175.371 102.09 175.421 102.01 175.491 101.96L184.061 97.01C184.141 96.97 184.231 96.97 184.311 97.01C184.391 97.05 184.431 97.14 184.431 97.23V106.61C184.431 106.7 184.381 106.78 184.311 106.83L175.741 111.78C175.691 111.8 175.651 111.81 175.611 111.81ZM175.861 102.33V111.13L183.931 106.47V97.67L175.861 102.33Z" fill="#BEDCE3"/>
<path d="M175.611 102.18L168.721 98.0596V107.44L175.611 111.56V102.18Z" fill="white"/>
<path d="M175.611 111.81C175.571 111.81 175.521 111.8 175.481 111.77L168.591 107.64C168.511 107.6 168.471 107.51 168.471 107.43V98.0498C168.471 97.9598 168.521 97.8798 168.601 97.8298C168.681 97.7898 168.771 97.7898 168.851 97.8298L175.741 101.96C175.821 102 175.861 102.09 175.861 102.17V111.55C175.861 111.64 175.811 111.72 175.731 111.77C175.691 111.8 175.651 111.81 175.611 111.81ZM168.971 107.3L175.361 111.13V102.33L168.971 98.4998V107.3Z" fill="#BEDCE3"/>
<path d="M184.181 97.2299L177.291 93.1099L168.721 98.0599L175.611 102.18L184.181 97.2299Z" fill="white"/>
<path d="M175.611 102.43C175.571 102.43 175.521 102.42 175.481 102.39L168.591 98.26C168.511 98.21 168.471 98.13 168.471 98.04C168.471 97.95 168.521 97.87 168.591 97.83L177.161 92.88C177.241 92.83 177.341 92.84 177.411 92.88L184.301 97.01C184.381 97.0601 184.421 97.1401 184.421 97.2301C184.421 97.3201 184.371 97.4001 184.301 97.4401L175.731 102.39C175.691 102.42 175.651 102.43 175.611 102.43ZM169.211 98.06L175.611 101.89L183.691 97.2301L177.291 93.4L169.211 98.06Z" fill="#BEDCE3"/>
<path d="M192.641 102.11L184.061 107.06V116.44L192.641 111.49V102.11Z" fill="white"/>
<path d="M184.06 116.69C184.02 116.69 183.97 116.68 183.94 116.66C183.86 116.62 183.82 116.53 183.82 116.44V107.06C183.82 106.97 183.87 106.89 183.94 106.84L192.51 101.89C192.59 101.85 192.68 101.85 192.76 101.89C192.84 101.93 192.88 102.02 192.88 102.11V111.49C192.88 111.58 192.83 111.66 192.76 111.71L184.19 116.66C184.15 116.68 184.1 116.69 184.06 116.69ZM184.31 107.21V116.01L192.38 111.35V102.55L184.31 107.21Z" fill="#BEDCE3"/>
<path d="M184.06 107.06L177.17 102.94V112.32L184.06 116.44V107.06Z" fill="white"/>
<path d="M184.06 116.69C184.02 116.69 183.97 116.68 183.93 116.65L177.04 112.52C176.96 112.48 176.92 112.39 176.92 112.31V102.93C176.92 102.84 176.97 102.76 177.05 102.71C177.13 102.66 177.22 102.67 177.3 102.71L184.19 106.84C184.27 106.88 184.31 106.97 184.31 107.05V116.43C184.31 116.52 184.26 116.6 184.18 116.65C184.15 116.68 184.1 116.69 184.06 116.69ZM177.42 112.18L183.81 116.01V107.21L177.42 103.38V112.18Z" fill="#BEDCE3"/>
<path d="M192.64 102.11L185.75 97.9902L177.17 102.94L184.06 107.06L192.64 102.11Z" fill="white"/>
<path d="M184.06 107.31C184.02 107.31 183.97 107.3 183.93 107.27L177.04 103.14C176.96 103.09 176.92 103.01 176.92 102.92C176.92 102.83 176.97 102.75 177.04 102.71L185.61 97.7602C185.69 97.7102 185.79 97.7102 185.86 97.7602L192.75 101.89C192.83 101.94 192.87 102.02 192.87 102.11C192.87 102.2 192.82 102.28 192.75 102.32L184.18 107.27C184.15 107.3 184.1 107.31 184.06 107.31ZM177.67 102.94L184.07 106.77L192.15 102.1L185.75 98.2702L177.67 102.94Z" fill="#BEDCE3"/>
<path d="M201.09 106.991L192.521 111.941V121.331L201.09 116.381V106.991Z" fill="white"/>
<path d="M192.52 121.58C192.48 121.58 192.43 121.57 192.4 121.55C192.32 121.51 192.28 121.42 192.28 121.33V111.95C192.28 111.86 192.33 111.78 192.4 111.73L200.97 106.78C201.05 106.74 201.14 106.74 201.22 106.78C201.3 106.82 201.34 106.91 201.34 107V116.38C201.34 116.47 201.29 116.55 201.22 116.6L192.65 121.55C192.6 121.56 192.56 121.58 192.52 121.58ZM192.77 112.09V120.89L200.84 116.23V107.43L192.77 112.09Z" fill="#BEDCE3"/>
<path d="M192.52 111.94L185.63 107.82V117.2L192.52 121.33V111.94Z" fill="white"/>
<path d="M192.52 121.58C192.48 121.58 192.43 121.57 192.39 121.54L185.5 117.41C185.42 117.37 185.38 117.28 185.38 117.2V107.82C185.38 107.73 185.43 107.65 185.51 107.6C185.59 107.56 185.68 107.56 185.76 107.6L192.65 111.73C192.73 111.77 192.77 111.86 192.77 111.94V121.32C192.77 121.41 192.72 121.49 192.64 121.54C192.6 121.56 192.56 121.58 192.52 121.58ZM185.88 117.06L192.27 120.89V112.09L185.88 108.26V117.06Z" fill="#BEDCE3"/>
<path d="M201.09 106.99L194.2 102.87L185.63 107.82L192.52 111.94L201.09 106.99Z" fill="white"/>
<path d="M192.52 112.19C192.48 112.19 192.43 112.18 192.39 112.15L185.5 108.02C185.42 107.97 185.38 107.89 185.38 107.8C185.38 107.71 185.43 107.63 185.5 107.59L194.07 102.64C194.15 102.59 194.25 102.6 194.32 102.64L201.21 106.77C201.29 106.82 201.33 106.9 201.33 106.99C201.33 107.08 201.28 107.16 201.21 107.2L192.64 112.15C192.6 112.18 192.56 112.19 192.52 112.19ZM186.12 107.82L192.52 111.65L200.6 106.98L194.2 103.15L186.12 107.82Z" fill="#BEDCE3"/>
<path d="M158.9 67.8301L195.131 88.7501V102.45L147.021 74.6701L158.9 67.8301Z" fill="white"/>
<path d="M195.13 102.7C195.09 102.7 195.04 102.69 195.01 102.67L146.9 74.8803C146.82 74.8403 146.78 74.7503 146.78 74.6603C146.78 74.5703 146.83 74.4903 146.91 74.4403L158.79 67.6003C158.87 67.5603 158.96 67.5603 159.04 67.6003L195.27 88.5203C195.35 88.5603 195.39 88.6503 195.39 88.7403V102.43C195.39 102.52 195.34 102.6 195.27 102.65C195.22 102.68 195.18 102.7 195.13 102.7ZM147.52 74.6703L194.88 102.01V88.9003L158.9 68.1203L147.52 74.6703Z" fill="#BEDCE3"/>
<path d="M147.021 74.6699V76.9799L195.131 104.76V102.45L147.021 74.6699Z" fill="white"/>
<path d="M195.13 105.01C195.09 105.01 195.04 105 195.01 104.98L146.9 77.2002C146.82 77.1602 146.78 77.0702 146.78 76.9802V74.6602C146.78 74.5702 146.83 74.4902 146.9 74.4402C146.98 74.4002 147.07 74.4002 147.15 74.4402L195.26 102.22C195.34 102.26 195.38 102.35 195.38 102.44V104.76C195.38 104.85 195.33 104.93 195.26 104.98C195.22 105 195.18 105.01 195.13 105.01ZM147.27 76.8402L194.88 104.33V102.59L147.27 75.1002V76.8402Z" fill="#BEDCE3"/>
<path d="M172.11 62.7407L163.54 67.7007V80.9007L172.11 75.9507V62.7407Z" fill="white"/>
<path d="M163.54 81.1505C163.5 81.1505 163.45 81.1405 163.42 81.1205C163.34 81.0805 163.3 80.9905 163.3 80.9005V67.7005C163.3 67.6105 163.35 67.5305 163.42 67.4805L171.99 62.5305C172.07 62.4905 172.16 62.4905 172.24 62.5305C172.32 62.5705 172.36 62.6605 172.36 62.7505V75.9505C172.36 76.0405 172.31 76.1205 172.24 76.1705L163.67 81.1205C163.63 81.1405 163.58 81.1505 163.54 81.1505ZM163.79 67.8405V80.4605L171.86 75.8005V63.1805L163.79 67.8405Z" fill="#BEDCE3"/>
<path d="M163.54 67.7008L152.11 61.0908V74.3008L163.54 80.9008V67.7008Z" fill="white"/>
<path d="M163.54 81.1506C163.5 81.1506 163.45 81.1406 163.42 81.1206L151.99 74.5206C151.91 74.4806 151.87 74.3906 151.87 74.3006V61.1006C151.87 61.0106 151.92 60.9306 151.99 60.8806C152.07 60.8406 152.16 60.8406 152.24 60.8806L163.67 67.4806C163.75 67.5206 163.79 67.6106 163.79 67.7006V80.9006C163.79 80.9906 163.74 81.0706 163.67 81.1206C163.63 81.1406 163.58 81.1506 163.54 81.1506ZM152.36 74.1506L163.29 80.4606V67.8406L152.36 61.5306V74.1506Z" fill="#BEDCE3"/>
<path d="M172.11 62.7406L160.68 56.1406L152.11 61.0906L163.54 67.7006L172.11 62.7406Z" fill="white"/>
<path d="M163.54 67.9504C163.5 67.9504 163.45 67.9404 163.42 67.9204L151.99 61.3204C151.91 61.2804 151.87 61.1904 151.87 61.1004C151.87 61.0104 151.92 60.9304 151.99 60.8804L160.56 55.9304C160.64 55.8904 160.73 55.8904 160.81 55.9304L172.24 62.5304C172.32 62.5704 172.36 62.6604 172.36 62.7504C172.36 62.8404 172.31 62.9204 172.24 62.9704L163.67 67.9204C163.63 67.9304 163.58 67.9504 163.54 67.9504ZM152.61 61.0904L163.54 67.4004L171.61 62.7404L160.68 56.4304L152.61 61.0904Z" fill="#BEDCE3"/>
<path d="M157.82 64.6402C157.73 64.6402 157.65 64.6002 157.6 64.5202C157.53 64.4002 157.57 64.2502 157.69 64.1802L166.26 59.2302C166.38 59.1602 166.53 59.2002 166.6 59.3202C166.67 59.4402 166.63 59.5902 166.51 59.6602L157.94 64.6102C157.91 64.6302 157.87 64.6402 157.82 64.6402Z" fill="#BEDCE3"/>
<path d="M186.13 70.7007L177.55 75.6507V88.8507L186.13 83.9007V70.7007Z" fill="white"/>
<path d="M177.55 89.1007C177.51 89.1007 177.46 89.0907 177.43 89.0707C177.35 89.0307 177.31 88.9407 177.31 88.8507V75.6507C177.31 75.5607 177.36 75.4807 177.43 75.4307L186 70.4807C186.08 70.4407 186.17 70.4407 186.25 70.4807C186.33 70.5207 186.37 70.6107 186.37 70.7007V83.9007C186.37 83.9907 186.32 84.0707 186.25 84.1207L177.68 89.0707C177.64 89.0907 177.59 89.1007 177.55 89.1007ZM177.8 75.7907V88.4107L185.87 83.7507V71.1307L177.8 75.7907Z" fill="#BEDCE3"/>
<path d="M177.55 75.6508L166.12 69.0508V82.2508L177.55 88.8508V75.6508Z" fill="white"/>
<path d="M177.55 89.1008C177.51 89.1008 177.46 89.0908 177.43 89.0708L166 82.4708C165.92 82.4308 165.88 82.3408 165.88 82.2508V69.0508C165.88 68.9608 165.93 68.8808 166 68.8308C166.08 68.7908 166.17 68.7908 166.25 68.8308L177.68 75.4308C177.76 75.4708 177.8 75.5608 177.8 75.6508V88.8508C177.8 88.9408 177.75 89.0208 177.68 89.0708C177.64 89.0908 177.59 89.1008 177.55 89.1008ZM166.37 82.1108L177.3 88.4208V75.7908L166.37 69.4808V82.1108Z" fill="#BEDCE3"/>
<path d="M186.13 70.7006L174.69 64.1006L166.12 69.0506L177.55 75.6506L186.13 70.7006Z" fill="white"/>
<path d="M177.55 75.9006C177.51 75.9006 177.46 75.8906 177.43 75.8706L166 69.2706C165.92 69.2306 165.88 69.1406 165.88 69.0506C165.88 68.9606 165.93 68.8806 166 68.8306L174.57 63.8806C174.65 63.8406 174.74 63.8406 174.82 63.8806L186.25 70.4806C186.33 70.5206 186.37 70.6106 186.37 70.7006C186.37 70.7906 186.32 70.8706 186.25 70.9206L177.68 75.8706C177.64 75.8906 177.59 75.9006 177.55 75.9006ZM166.62 69.0506L177.55 75.3606L185.62 70.7006L174.69 64.3906L166.62 69.0506Z" fill="#BEDCE3"/>
<path d="M171.83 72.6007C171.74 72.6007 171.66 72.5607 171.61 72.4807C171.54 72.3607 171.58 72.2107 171.7 72.1407L180.27 67.1907C180.39 67.1207 180.54 67.1607 180.61 67.2807C180.68 67.4007 180.64 67.5507 180.52 67.6207L171.95 72.5707C171.92 72.5907 171.88 72.6007 171.83 72.6007Z" fill="#BEDCE3"/>
<path d="M200.14 78.6504L191.56 83.6004V96.8104L200.14 91.8604V78.6504Z" fill="white"/>
<path d="M191.56 97.0604C191.52 97.0604 191.47 97.0504 191.44 97.0304C191.36 96.9904 191.32 96.9004 191.32 96.8104V83.6004C191.32 83.5104 191.37 83.4304 191.44 83.3804L200.01 78.4304C200.09 78.3904 200.18 78.3904 200.26 78.4304C200.34 78.4704 200.38 78.5604 200.38 78.6504V91.8504C200.38 91.9404 200.33 92.0204 200.26 92.0704L191.69 97.0204C191.65 97.0404 191.6 97.0604 191.56 97.0604ZM191.81 83.7504V96.3704L199.88 91.7104V79.0904L191.81 83.7504Z" fill="#BEDCE3"/>
<path d="M191.56 83.6005L180.13 77.0005V90.2005L191.56 96.8105V83.6005Z" fill="white"/>
<path d="M191.56 97.0605C191.52 97.0605 191.47 97.0505 191.44 97.0305L180 90.4205C179.92 90.3805 179.88 90.2905 179.88 90.2005V77.0005C179.88 76.9105 179.93 76.8305 180 76.7805C180.08 76.7405 180.17 76.7405 180.25 76.7805L191.68 83.3805C191.76 83.4205 191.8 83.5105 191.8 83.6005V96.8005C191.8 96.8905 191.75 96.9705 191.68 97.0205C191.65 97.0405 191.6 97.0605 191.56 97.0605ZM180.38 90.0605L191.31 96.3705V83.7505L180.38 77.4405V90.0605Z" fill="#BEDCE3"/>
<path d="M200.14 78.6503L188.7 72.0503L180.13 77.0003L191.56 83.6003L200.14 78.6503Z" fill="white"/>
<path d="M191.56 83.8503C191.52 83.8503 191.47 83.8403 191.44 83.8203L180 77.2203C179.92 77.1803 179.88 77.0903 179.88 77.0003C179.88 76.9103 179.93 76.8303 180 76.7803L188.57 71.8303C188.65 71.7903 188.74 71.7903 188.82 71.8303L200.25 78.4303C200.33 78.4703 200.37 78.5603 200.37 78.6503C200.37 78.7403 200.32 78.8203 200.25 78.8703L191.68 83.8203C191.65 83.8403 191.6 83.8503 191.56 83.8503ZM180.63 77.0003L191.56 83.3103L199.63 78.6503L188.7 72.3403L180.63 77.0003Z" fill="#BEDCE3"/>
<path d="M185.85 80.5504C185.76 80.5504 185.68 80.5104 185.63 80.4304C185.56 80.3104 185.6 80.1604 185.72 80.0904L194.29 75.1404C194.41 75.0704 194.56 75.1104 194.63 75.2304C194.7 75.3504 194.66 75.5004 194.54 75.5704L185.97 80.5204C185.93 80.5404 185.89 80.5504 185.85 80.5504Z" fill="#BEDCE3"/>
<path d="M195.13 162.22C195.09 162.22 195.04 162.21 195.01 162.19L145.19 133.42C145.11 133.38 145.07 133.29 145.07 133.2V54.7603C145.07 54.6703 145.12 54.5903 145.19 54.5403C145.27 54.5003 145.36 54.5003 145.44 54.5403L195.26 83.3103C195.34 83.3503 195.38 83.4403 195.38 83.5303V161.98C195.38 162.07 195.33 162.15 195.26 162.2C195.22 162.21 195.18 162.22 195.13 162.22ZM145.56 133.06L194.88 161.54V83.6703L145.56 55.1903V133.06Z" fill="#BEDCE3"/>
</g>
<path d="M195.13 162.22C195.09 162.22 195.04 162.21 195.01 162.19L145.19 133.42C145.11 133.38 145.07 133.29 145.07 133.2V54.7603C145.07 54.6703 145.12 54.5903 145.19 54.5403C145.27 54.5003 145.36 54.5003 145.44 54.5403L195.26 83.3103C195.34 83.3503 195.38 83.4403 195.38 83.5303V161.98C195.38 162.07 195.33 162.15 195.26 162.2C195.22 162.21 195.18 162.22 195.13 162.22ZM145.56 133.06L194.88 161.54V83.6703L145.56 55.1903V133.06Z" fill="#BEDCE3"/>
<path d="M124.98 119L183.86 152.99L152.15 171.3L93.2798 137.3L124.98 119Z" fill="white"/>
<path d="M152.15 171.55C152.11 171.55 152.06 171.54 152.03 171.52L93.1498 137.52C93.0698 137.48 93.0298 137.39 93.0298 137.3C93.0298 137.21 93.0798 137.13 93.1498 137.08L124.85 118.77C124.93 118.73 125.02 118.73 125.1 118.77L183.98 152.77C184.06 152.81 184.1 152.9 184.1 152.99C184.1 153.08 184.05 153.16 183.98 153.21L152.28 171.52C152.24 171.54 152.2 171.55 152.15 171.55ZM93.7798 137.3L152.16 171.01L183.36 152.99L124.98 119.28L93.7798 137.3Z" fill="#BEDCE3"/>
<path d="M152.149 171.3V197.45L183.859 179.15V152.99L152.149 171.3Z" fill="white"/>
<path d="M152.15 197.7C152.11 197.7 152.06 197.69 152.03 197.67C151.95 197.63 151.91 197.54 151.91 197.45V171.3C151.91 171.21 151.96 171.13 152.03 171.08L183.73 152.77C183.81 152.73 183.9 152.73 183.98 152.77C184.06 152.81 184.1 152.9 184.1 152.99V179.14C184.1 179.23 184.05 179.31 183.98 179.36L152.28 197.67C152.24 197.69 152.2 197.7 152.15 197.7ZM152.4 171.44V197.01L183.6 178.99V153.42L152.4 171.44Z" fill="#BEDCE3"/>
<path d="M152.15 197.45L93.2798 163.46V137.3L152.15 171.3V197.45Z" fill="white"/>
<path d="M152.15 197.7C152.11 197.7 152.06 197.69 152.03 197.67L93.1498 163.67C93.0698 163.63 93.0298 163.54 93.0298 163.45V137.3C93.0298 137.21 93.0798 137.13 93.1498 137.08C93.2298 137.04 93.3198 137.04 93.3998 137.08L152.28 171.08C152.36 171.12 152.4 171.21 152.4 171.3V197.45C152.4 197.54 152.35 197.62 152.28 197.67C152.24 197.69 152.2 197.7 152.15 197.7ZM93.5298 163.31L151.91 197.02V171.45L93.5298 137.74V163.31Z" fill="#BEDCE3"/>
<path d="M107.57 65.73L24.9102 113.46L36.7902 120.29L119.45 72.56L107.57 65.73Z" fill="white"/>
<path d="M36.7902 120.54C36.7502 120.54 36.7002 120.53 36.6702 120.51L24.7902 113.67C24.7102 113.63 24.6602 113.54 24.6602 113.45C24.6602 113.36 24.7102 113.28 24.7802 113.23L107.44 65.5002C107.52 65.4602 107.61 65.4602 107.69 65.5002L119.57 72.3402C119.65 72.3802 119.7 72.4702 119.7 72.5602C119.7 72.6502 119.65 72.7302 119.58 72.7802L36.9202 120.51C36.8802 120.53 36.8302 120.54 36.7902 120.54ZM25.4102 113.46L36.7902 120L118.95 72.5602L107.57 66.0102L25.4102 113.46Z" fill="#BEDCE3"/>
<path d="M119.451 72.5601V74.8801L36.7905 122.61V120.29L119.451 72.5601Z" fill="white"/>
<path d="M36.7903 122.86C36.7503 122.86 36.7003 122.85 36.6703 122.83C36.5903 122.79 36.5503 122.7 36.5503 122.61V120.29C36.5503 120.2 36.6003 120.12 36.6703 120.07L119.33 72.3401C119.41 72.3001 119.5 72.3001 119.58 72.3401C119.66 72.3801 119.7 72.4701 119.7 72.5601V74.8801C119.7 74.9701 119.65 75.0501 119.58 75.1001L36.9203 122.83C36.8803 122.85 36.8303 122.86 36.7903 122.86ZM37.0403 120.44V122.18L119.2 74.7401V73.0001L37.0403 120.44Z" fill="#BEDCE3"/>
<path d="M36.7902 122.61V120.29L24.9102 113.46V115.77L36.7902 122.61Z" fill="white"/>
<path d="M36.7902 122.86C36.7502 122.86 36.7002 122.85 36.6702 122.83L24.7902 115.99C24.7102 115.95 24.6602 115.86 24.6602 115.77V113.45C24.6602 113.36 24.7102 113.28 24.7802 113.23C24.8602 113.19 24.9502 113.19 25.0302 113.23L36.9102 120.07C36.9902 120.11 37.0402 120.2 37.0402 120.29V122.61C37.0402 122.7 36.9902 122.78 36.9202 122.83C36.8802 122.85 36.8302 122.86 36.7902 122.86ZM25.1602 115.63L36.5402 122.18V120.44L25.1602 113.89V115.63Z" fill="#BEDCE3"/>
<path d="M25.8203 116.291V124.691L27.8503 125.871L32.7703 120.291L25.8203 116.291Z" fill="white"/>
<path d="M27.8501 126.12C27.8101 126.12 27.7601 126.11 27.7301 126.09L25.7001 124.92C25.6201 124.88 25.5801 124.79 25.5801 124.7V116.3C25.5801 116.21 25.6301 116.13 25.7001 116.08C25.7801 116.04 25.8701 116.04 25.9501 116.08L32.9001 120.08C32.9701 120.12 33.0101 120.18 33.0201 120.26C33.0301 120.34 33.0101 120.41 32.9601 120.47L28.0501 126.05C27.9901 126.09 27.9201 126.12 27.8501 126.12ZM26.0701 124.55L27.8001 125.55L32.3801 120.36L26.0701 116.73V124.55Z" fill="#BEDCE3"/>
<path d="M27.8506 125.87L29.2806 125.05L33.2906 120.6L32.7706 120.29L27.8506 125.87Z" fill="white"/>
<path d="M27.8504 126.12C27.7804 126.12 27.7104 126.09 27.6604 126.03C27.5804 125.94 27.5804 125.8 27.6704 125.71L32.5804 120.13C32.6604 120.04 32.7904 120.02 32.8904 120.08L33.4204 120.38C33.4904 120.42 33.5304 120.48 33.5404 120.56C33.5504 120.63 33.5304 120.71 33.4804 120.77L29.4604 125.22C29.4404 125.24 29.4204 125.26 29.4004 125.27L27.9804 126.09C27.9404 126.11 27.9004 126.12 27.8504 126.12ZM32.8204 120.61L29.0504 124.89L29.1204 124.85L32.9004 120.66L32.8204 120.61Z" fill="#BEDCE3"/>
<path d="M107.57 89.5898L24.9102 137.32L36.7902 144.16L119.45 96.4198L107.57 89.5898Z" fill="white"/>
<path d="M36.7902 144.41C36.7502 144.41 36.7002 144.4 36.6702 144.38L24.7902 137.54C24.7102 137.5 24.6602 137.41 24.6602 137.32C24.6602 137.23 24.7102 137.15 24.7802 137.1L107.44 89.3698C107.52 89.3298 107.61 89.3298 107.69 89.3698L119.57 96.2098C119.65 96.2498 119.7 96.3398 119.7 96.4298C119.7 96.5198 119.65 96.5998 119.58 96.6498L36.9202 144.38C36.8802 144.4 36.8302 144.41 36.7902 144.41ZM25.4102 137.32L36.7902 143.87L118.95 96.4298L107.57 89.8798L25.4102 137.32Z" fill="#BEDCE3"/>
<path d="M119.451 96.4199V98.7399L36.7905 146.47V144.16L119.451 96.4199Z" fill="white"/>
<path d="M36.7903 146.72C36.7503 146.72 36.7003 146.71 36.6703 146.69C36.5903 146.65 36.5503 146.56 36.5503 146.47V144.15C36.5503 144.06 36.6003 143.98 36.6703 143.93L119.33 96.1999C119.41 96.1599 119.5 96.1599 119.58 96.1999C119.66 96.2399 119.7 96.3299 119.7 96.4199V98.7399C119.7 98.8299 119.65 98.9099 119.58 98.9599L36.9203 146.69C36.8803 146.71 36.8303 146.72 36.7903 146.72ZM37.0403 144.3V146.04L119.2 98.5999V96.8599L37.0403 144.3Z" fill="#BEDCE3"/>
<path d="M36.7902 146.47V144.16L24.9102 137.32V139.64L36.7902 146.47Z" fill="white"/>
<path d="M36.7902 146.72C36.7502 146.72 36.7002 146.71 36.6702 146.69L24.7902 139.85C24.7102 139.81 24.6602 139.72 24.6602 139.63V137.31C24.6602 137.22 24.7102 137.14 24.7802 137.09C24.8602 137.05 24.9502 137.05 25.0302 137.09L36.9102 143.93C36.9902 143.97 37.0402 144.06 37.0402 144.15V146.47C37.0402 146.56 36.9902 146.64 36.9202 146.69C36.8802 146.71 36.8302 146.72 36.7902 146.72ZM25.1602 139.49L36.5402 146.04V144.3L25.1602 137.75V139.49Z" fill="#BEDCE3"/>
<path d="M25.8203 140.16V148.56L27.8503 149.73L32.7703 144.16L25.8203 140.16Z" fill="white"/>
<path d="M27.8501 149.98C27.8101 149.98 27.7601 149.97 27.7301 149.95L25.7001 148.78C25.6201 148.74 25.5801 148.65 25.5801 148.56V140.16C25.5801 140.07 25.6301 139.99 25.7001 139.94C25.7801 139.9 25.8701 139.9 25.9501 139.94L32.9001 143.94C32.9701 143.98 33.0101 144.04 33.0201 144.12C33.0301 144.2 33.0101 144.27 32.9601 144.33L28.0501 149.91C27.9901 149.95 27.9201 149.98 27.8501 149.98ZM26.0701 148.41L27.8001 149.41L32.3801 144.22L26.0701 140.59V148.41Z" fill="#BEDCE3"/>
<path d="M27.8506 149.73L29.2806 148.91L33.2906 144.46L32.7706 144.16L27.8506 149.73Z" fill="white"/>
<path d="M27.8504 149.98C27.7804 149.98 27.7104 149.95 27.6604 149.89C27.5804 149.8 27.5804 149.66 27.6704 149.57L32.5804 143.99C32.6604 143.9 32.7904 143.88 32.8904 143.94L33.4204 144.24C33.4904 144.28 33.5304 144.34 33.5404 144.42C33.5504 144.49 33.5304 144.57 33.4804 144.63L29.4604 149.08C29.4404 149.1 29.4204 149.12 29.4004 149.13L27.9804 149.95C27.9404 149.97 27.9004 149.98 27.8504 149.98ZM32.8204 144.48L29.0504 148.76L29.1204 148.72L32.9004 144.53L32.8204 144.48Z" fill="#BEDCE3"/>
<path d="M99.71 61.2998L108.29 66.2498V75.6298L99.71 70.6798V61.2998Z" fill="white"/>
<path d="M108.29 75.8798C108.25 75.8798 108.2 75.8698 108.17 75.8498L99.6 70.8998C99.52 70.8598 99.48 70.7698 99.48 70.6798V61.2998C99.48 61.2098 99.53 61.1298 99.6 61.0798C99.68 61.0398 99.77 61.0398 99.85 61.0798L108.42 66.0298C108.5 66.0698 108.54 66.1598 108.54 66.2498V75.6298C108.54 75.7198 108.49 75.7998 108.42 75.8498C108.37 75.8698 108.33 75.8798 108.29 75.8798ZM99.96 70.5398L108.03 75.1998V66.3998L99.96 61.7398V70.5398Z" fill="#BEDCE3"/>
<path d="M108.29 66.2499L115.18 62.1299V71.5099L108.29 75.6299V66.2499Z" fill="white"/>
<path d="M108.29 75.8801C108.25 75.8801 108.21 75.8701 108.17 75.8501C108.09 75.8101 108.04 75.7201 108.04 75.6301V66.2501C108.04 66.1601 108.09 66.0801 108.16 66.0401L115.05 61.9101C115.13 61.8601 115.22 61.8601 115.3 61.9101C115.38 61.9501 115.43 62.0401 115.43 62.1301V71.5101C115.43 71.6001 115.38 71.6801 115.31 71.7201L108.42 75.8501C108.38 75.8701 108.33 75.8801 108.29 75.8801ZM108.54 66.3901V75.1901L114.93 71.3601V62.5601L108.54 66.3901Z" fill="#BEDCE3"/>
<path d="M99.71 61.2997L106.6 57.1797L115.18 62.1297L108.29 66.2497L99.71 61.2997Z" fill="white"/>
<path d="M108.29 66.4999C108.25 66.4999 108.2 66.4899 108.17 66.4699L99.6 61.5199C99.52 61.4799 99.48 61.3899 99.48 61.3099C99.48 61.2199 99.53 61.1399 99.6 61.0899L106.49 56.9599C106.57 56.9099 106.67 56.9099 106.74 56.9599L115.31 61.9099C115.39 61.9499 115.43 62.0399 115.43 62.1199C115.43 62.2099 115.38 62.2899 115.31 62.3399L108.42 66.4699C108.38 66.4899 108.33 66.4999 108.29 66.4999ZM100.21 61.2999L108.29 65.9699L114.69 62.1399L106.61 57.4799L100.21 61.2999Z" fill="#BEDCE3"/>
<path d="M91.2603 66.1802L99.8303 71.1302V80.5202L91.2603 75.5702V66.1802Z" fill="white"/>
<path d="M99.83 80.7699C99.79 80.7699 99.74 80.7599 99.71 80.7399L91.14 75.7899C91.06 75.7499 91.02 75.6599 91.02 75.5699V66.1899C91.02 66.0999 91.07 66.0199 91.14 65.9699C91.22 65.9299 91.31 65.9299 91.39 65.9699L99.96 70.9199C100.04 70.9599 100.08 71.0499 100.08 71.1399V80.5199C100.08 80.6099 100.03 80.6899 99.96 80.7399C99.92 80.7499 99.88 80.7699 99.83 80.7699ZM91.51 75.4199L99.58 80.0799V71.2799L91.51 66.6199V75.4199Z" fill="#BEDCE3"/>
<path d="M99.8301 71.1298L106.72 67.0098V76.3898L99.8301 80.5198V71.1298Z" fill="white"/>
<path d="M99.8301 80.7697C99.7901 80.7697 99.7501 80.7597 99.7101 80.7397C99.6301 80.6997 99.5801 80.6097 99.5801 80.5197V71.1397C99.5801 71.0497 99.6301 70.9697 99.7001 70.9297L106.59 66.7997C106.67 66.7497 106.76 66.7497 106.84 66.7997C106.92 66.8397 106.97 66.9297 106.97 67.0197V76.3997C106.97 76.4897 106.92 76.5697 106.85 76.6097L99.9601 80.7397C99.9201 80.7497 99.8801 80.7697 99.8301 80.7697ZM100.08 71.2797V80.0797L106.47 76.2497V67.4497L100.08 71.2797Z" fill="#BEDCE3"/>
<path d="M91.2603 66.1796L98.1503 62.0596L106.72 67.0096L99.8303 71.1296L91.2603 66.1796Z" fill="white"/>
<path d="M99.83 71.3797C99.79 71.3797 99.74 71.3697 99.71 71.3497L91.14 66.3997C91.06 66.3597 91.02 66.2697 91.02 66.1897C91.02 66.0997 91.07 66.0197 91.14 65.9697L98.03 61.8397C98.11 61.7897 98.21 61.7897 98.28 61.8397L106.85 66.7897C106.93 66.8297 106.97 66.9197 106.97 66.9997C106.97 67.0897 106.92 67.1697 106.85 67.2197L99.96 71.3497C99.92 71.3697 99.88 71.3797 99.83 71.3797ZM91.75 66.1797L99.83 70.8497L106.23 67.0197L98.15 62.3597L91.75 66.1797Z" fill="#BEDCE3"/>
<path d="M82.8105 71.0601L91.3805 76.0201V85.4001L82.8105 80.4501V71.0601Z" fill="white"/>
<path d="M91.3803 85.6498C91.3403 85.6498 91.2903 85.6398 91.2603 85.6198L82.6903 80.6698C82.6103 80.6298 82.5703 80.5398 82.5703 80.4498V71.0698C82.5703 70.9798 82.6203 70.8998 82.6903 70.8498C82.7703 70.8098 82.8603 70.8098 82.9403 70.8498L91.5103 75.7998C91.5903 75.8398 91.6303 75.9298 91.6303 76.0198V85.3998C91.6303 85.4898 91.5803 85.5698 91.5103 85.6198C91.4703 85.6398 91.4203 85.6498 91.3803 85.6498ZM83.0603 80.2998L91.1303 84.9598V76.1598L83.0603 71.4998V80.2998Z" fill="#BEDCE3"/>
<path d="M91.3804 76.0201L98.2704 71.8901V81.2701L91.3804 85.4001V76.0201Z" fill="white"/>
<path d="M91.3804 85.6501C91.3404 85.6501 91.3004 85.6401 91.2604 85.6201C91.1804 85.5801 91.1304 85.4901 91.1304 85.4001V76.0201C91.1304 75.9301 91.1804 75.8501 91.2504 75.8101L98.1404 71.6801C98.2204 71.6301 98.3104 71.6301 98.3904 71.6801C98.4704 71.7201 98.5204 71.8101 98.5204 71.9001V81.2801C98.5204 81.3701 98.4704 81.4501 98.4004 81.4901L91.5104 85.6201C91.4704 85.6401 91.4204 85.6501 91.3804 85.6501ZM91.6304 76.1601V84.9601L98.0204 81.1301V72.3301L91.6304 76.1601Z" fill="#BEDCE3"/>
<path d="M82.8105 71.0599L89.6906 66.9399L98.2705 71.8899L91.3805 76.0199L82.8105 71.0599Z" fill="white"/>
<path d="M91.3803 76.2699C91.3403 76.2699 91.2903 76.2599 91.2603 76.2399L82.6903 71.2899C82.6103 71.2499 82.5703 71.1599 82.5703 71.0799C82.5703 70.9899 82.6203 70.9099 82.6903 70.8599L89.5803 66.7299C89.6603 66.6799 89.7603 66.6799 89.8303 66.7299L98.4003 71.6799C98.4803 71.7199 98.5203 71.8099 98.5203 71.8899C98.5203 71.9799 98.4703 72.0599 98.4003 72.1099L91.5103 76.2399C91.4703 76.2499 91.4203 76.2699 91.3803 76.2699ZM83.3003 71.0599L91.3803 75.7199L97.7803 71.8899L89.7003 67.2299L83.3003 71.0599Z" fill="#BEDCE3"/>
<path d="M74.3501 75.9497L82.9301 80.8997V90.2797L74.3501 85.3297V75.9497Z" fill="white"/>
<path d="M82.9301 90.5297C82.8901 90.5297 82.8401 90.5197 82.8101 90.4997L74.2401 85.5497C74.1601 85.5097 74.1201 85.4197 74.1201 85.3297V75.9497C74.1201 75.8597 74.1701 75.7797 74.2401 75.7297C74.3201 75.6897 74.4101 75.6897 74.4901 75.7297L83.0601 80.6797C83.1401 80.7197 83.1801 80.8097 83.1801 80.8997V90.2797C83.1801 90.3697 83.1301 90.4497 83.0601 90.4997C83.0101 90.5197 82.9701 90.5297 82.9301 90.5297ZM74.6001 85.1797L82.6701 89.8397V81.0397L74.6001 76.3797V85.1797Z" fill="#BEDCE3"/>
<path d="M82.9302 80.9L89.8102 76.77V86.15L82.9302 90.28V80.9Z" fill="white"/>
<path d="M82.9302 90.53C82.8902 90.53 82.8502 90.52 82.8102 90.5C82.7302 90.46 82.6802 90.37 82.6802 90.28V80.9C82.6802 80.81 82.7302 80.73 82.8002 80.69L89.6902 76.56C89.7702 76.51 89.8602 76.51 89.9402 76.56C90.0202 76.6 90.0702 76.69 90.0702 76.78V86.16C90.0702 86.25 90.0202 86.33 89.9502 86.37L83.0602 90.5C83.0102 90.52 82.9702 90.53 82.9302 90.53ZM83.1802 81.04V89.84L89.5702 86.01V77.21L83.1802 81.04Z" fill="#BEDCE3"/>
<path d="M74.3501 75.9498L81.2401 71.8198L89.8101 76.7698L82.9301 80.8998L74.3501 75.9498Z" fill="white"/>
<path d="M82.9301 81.1498C82.8901 81.1498 82.8401 81.1398 82.8101 81.1198L74.2401 76.1698C74.1601 76.1298 74.1201 76.0398 74.1201 75.9598C74.1201 75.8698 74.1701 75.7898 74.2401 75.7398L81.1301 71.6098C81.2101 71.5598 81.3101 71.5598 81.3801 71.6098L89.9501 76.5598C90.0301 76.5998 90.0701 76.6898 90.0701 76.7698C90.0701 76.8598 90.0201 76.9398 89.9501 76.9898L83.0601 81.1198C83.0101 81.1298 82.9701 81.1498 82.9301 81.1498ZM74.8401 75.9398L82.9201 80.5998L89.3201 76.7698L81.2401 72.1098L74.8401 75.9398Z" fill="#BEDCE3"/>
<path d="M65.9004 80.8296L74.4704 85.7796V95.1596L65.9004 90.2096V80.8296Z" fill="white"/>
<path d="M74.4702 95.4096C74.4302 95.4096 74.3802 95.3996 74.3502 95.3796L65.7802 90.4296C65.7002 90.3896 65.6602 90.2996 65.6602 90.2096V80.8296C65.6602 80.7396 65.7102 80.6596 65.7802 80.6096C65.8602 80.5696 65.9502 80.5696 66.0302 80.6096L74.6002 85.5596C74.6802 85.5996 74.7202 85.6896 74.7202 85.7796V95.1596C74.7202 95.2496 74.6702 95.3296 74.6002 95.3796C74.5602 95.3996 74.5102 95.4096 74.4702 95.4096ZM66.1502 90.0596L74.2202 94.7196V85.9196L66.1502 81.2596V90.0596Z" fill="#BEDCE3"/>
<path d="M74.4702 85.7799L81.3602 81.6499V91.0299L74.4702 95.1599V85.7799Z" fill="white"/>
<path d="M74.4702 95.4098C74.4302 95.4098 74.3902 95.3998 74.3502 95.3798C74.2702 95.3398 74.2202 95.2498 74.2202 95.1598V85.7798C74.2202 85.6898 74.2702 85.6098 74.3402 85.5698L81.2302 81.4398C81.3102 81.3898 81.4002 81.3898 81.4802 81.4398C81.5602 81.4798 81.6102 81.5698 81.6102 81.6598V91.0398C81.6102 91.1298 81.5602 91.2098 81.4902 91.2498L74.6002 95.3798C74.5602 95.3998 74.5202 95.4098 74.4702 95.4098ZM74.7202 85.9198V94.7198L81.1102 90.8898V82.0898L74.7202 85.9198Z" fill="#BEDCE3"/>
<path d="M65.9004 80.8297L72.7904 76.6997L81.3604 81.6497L74.4704 85.7797L65.9004 80.8297Z" fill="white"/>
<path d="M74.4702 86.0296C74.4302 86.0296 74.3802 86.0197 74.3502 85.9997L65.7802 81.0497C65.7002 81.0097 65.6602 80.9196 65.6602 80.8396C65.6602 80.7496 65.7102 80.6697 65.7802 80.6197L72.6702 76.4896C72.7502 76.4396 72.8502 76.4396 72.9202 76.4896L81.4902 81.4397C81.5702 81.4797 81.6102 81.5697 81.6102 81.6497C81.6102 81.7397 81.5602 81.8197 81.4902 81.8697L74.6002 85.9997C74.5602 86.0197 74.5202 86.0296 74.4702 86.0296ZM66.3902 80.8197L74.4702 85.4797L80.8702 81.6497L72.7902 76.9797L66.3902 80.8197Z" fill="#BEDCE3"/>
<path d="M48.9902 90.5898L57.5602 95.5398V104.92L48.9902 99.9698V90.5898Z" fill="white"/>
<path d="M57.56 105.17C57.52 105.17 57.47 105.16 57.44 105.14L48.87 100.19C48.79 100.15 48.75 100.06 48.75 99.9698V90.5898C48.75 90.4998 48.8 90.4198 48.87 90.3698C48.95 90.3298 49.04 90.3298 49.12 90.3698L57.69 95.3198C57.77 95.3598 57.81 95.4498 57.81 95.5398V104.92C57.81 105.01 57.76 105.09 57.69 105.14C57.65 105.16 57.61 105.17 57.56 105.17ZM49.24 99.8298L57.31 104.49V95.6898L49.24 91.0298V99.8298Z" fill="#BEDCE3"/>
<path d="M57.5601 95.5402L64.4501 91.4102V100.8L57.5601 104.92V95.5402Z" fill="white"/>
<path d="M57.5601 105.17C57.5201 105.17 57.4801 105.16 57.4401 105.14C57.3601 105.1 57.3101 105.01 57.3101 104.92V95.5401C57.3101 95.4501 57.3601 95.3701 57.4301 95.3301L64.3201 91.2001C64.4001 91.1501 64.4901 91.1501 64.5701 91.2001C64.6501 91.2401 64.7001 91.3301 64.7001 91.4201V100.8C64.7001 100.89 64.6501 100.97 64.5801 101.01L57.6901 105.14C57.6501 105.16 57.6101 105.17 57.5601 105.17ZM57.8101 95.6801V104.48L64.2001 100.65V91.8501L57.8101 95.6801Z" fill="#BEDCE3"/>
<path d="M48.9902 90.59L55.8802 86.46L64.4502 91.41L57.5602 95.54L48.9902 90.59Z" fill="white"/>
<path d="M57.56 95.7899C57.52 95.7899 57.47 95.7799 57.44 95.7599L48.87 90.8099C48.79 90.7699 48.75 90.6799 48.75 90.5999C48.75 90.5099 48.8 90.4299 48.87 90.3799L55.76 86.2499C55.84 86.1999 55.94 86.1999 56.01 86.2499L64.58 91.1999C64.66 91.2399 64.7 91.3299 64.7 91.4099C64.7 91.4999 64.65 91.5799 64.58 91.6299L57.69 95.7599C57.65 95.7799 57.61 95.7899 57.56 95.7899ZM49.48 90.5899L57.56 95.2499L63.96 91.4199L55.88 86.7499L49.48 90.5899Z" fill="#BEDCE3"/>
<path d="M40.5405 95.4697L49.1105 100.42V109.8L40.5405 104.85V95.4697Z" fill="white"/>
<path d="M49.1103 110.05C49.0703 110.05 49.0203 110.04 48.9903 110.02L40.4203 105.07C40.3403 105.03 40.3003 104.94 40.3003 104.85V95.4697C40.3003 95.3797 40.3503 95.2997 40.4203 95.2497C40.5003 95.2097 40.5903 95.2097 40.6703 95.2497L49.2403 100.2C49.3203 100.24 49.3603 100.33 49.3603 100.42V109.8C49.3603 109.89 49.3103 109.97 49.2403 110.02C49.2003 110.04 49.1503 110.05 49.1103 110.05ZM40.7903 104.71L48.8603 109.37V100.57L40.7903 95.9097V104.71Z" fill="#BEDCE3"/>
<path d="M49.1104 100.42L56.0004 96.2998V105.68L49.1104 109.8V100.42Z" fill="white"/>
<path d="M49.1104 110.05C49.0704 110.05 49.0304 110.04 48.9904 110.02C48.9104 109.98 48.8604 109.89 48.8604 109.8V100.42C48.8604 100.33 48.9104 100.25 48.9804 100.21L55.8703 96.08C55.9503 96.03 56.0403 96.03 56.1203 96.08C56.2003 96.12 56.2504 96.21 56.2504 96.3V105.68C56.2504 105.77 56.2004 105.85 56.1304 105.89L49.2404 110.02C49.2004 110.04 49.1504 110.05 49.1104 110.05ZM49.3604 100.56V109.36L55.7504 105.53V96.73L49.3604 100.56Z" fill="#BEDCE3"/>
<path d="M40.5405 95.4696L47.4205 91.3496L56.0005 96.2996L49.1105 100.42L40.5405 95.4696Z" fill="white"/>
<path d="M49.1103 100.67C49.0703 100.67 49.0203 100.66 48.9903 100.64L40.4203 95.6898C40.3403 95.6498 40.3003 95.5598 40.3003 95.4798C40.3003 95.3898 40.3503 95.3098 40.4203 95.2598L47.3103 91.1298C47.3903 91.0798 47.4903 91.0798 47.5603 91.1298L56.1303 96.0798C56.2103 96.1198 56.2503 96.2098 56.2503 96.2898C56.2503 96.3798 56.2003 96.4598 56.1303 96.5098L49.2403 100.64C49.2003 100.66 49.1503 100.67 49.1103 100.67ZM41.0303 95.4698L49.1103 100.13L55.5103 96.2998L47.4303 91.6398L41.0303 95.4698Z" fill="#BEDCE3"/>
<path d="M32.0801 100.35L40.6601 105.3V114.68L32.0801 109.73V100.35Z" fill="white"/>
<path d="M40.6601 114.94C40.6201 114.94 40.5701 114.93 40.5401 114.91L31.9701 109.96C31.8901 109.92 31.8501 109.83 31.8501 109.74V100.36C31.8501 100.27 31.9001 100.19 31.9701 100.14C32.0501 100.1 32.1401 100.1 32.2201 100.14L40.7901 105.09C40.8701 105.13 40.9101 105.22 40.9101 105.31V114.69C40.9101 114.78 40.8601 114.86 40.7901 114.91C40.7401 114.92 40.7001 114.94 40.6601 114.94ZM32.3301 109.59L40.4001 114.25V105.45L32.3301 100.79V109.59Z" fill="#BEDCE3"/>
<path d="M40.6602 105.3L47.5402 101.18V110.56L40.6602 114.68V105.3Z" fill="white"/>
<path d="M40.6602 114.94C40.6202 114.94 40.5802 114.93 40.5402 114.91C40.4602 114.87 40.4102 114.78 40.4102 114.69V105.31C40.4102 105.22 40.4602 105.14 40.5302 105.1L47.4202 100.97C47.5002 100.92 47.5902 100.92 47.6702 100.97C47.7502 101.01 47.8002 101.1 47.8002 101.19V110.57C47.8002 110.66 47.7502 110.74 47.6802 110.78L40.7902 114.91C40.7502 114.92 40.7002 114.94 40.6602 114.94ZM40.9102 105.44V114.24L47.3002 110.41V101.61L40.9102 105.44Z" fill="#BEDCE3"/>
<path d="M32.0801 100.349L38.9701 96.2295L47.5401 101.179L40.6601 105.299L32.0801 100.349Z" fill="white"/>
<path d="M40.6601 105.55C40.6201 105.55 40.5701 105.54 40.5401 105.52L31.9701 100.57C31.8901 100.53 31.8501 100.44 31.8501 100.36C31.8501 100.27 31.9001 100.19 31.9701 100.14L38.8601 96.0097C38.9401 95.9597 39.0401 95.9597 39.1101 96.0097L47.6801 100.96C47.7601 101 47.8001 101.09 47.8001 101.17C47.8001 101.26 47.7501 101.34 47.6801 101.39L40.7901 105.52C40.7501 105.54 40.7001 105.55 40.6601 105.55ZM32.5801 100.35L40.6601 105.02L47.0601 101.19L38.9801 96.5297L32.5801 100.35Z" fill="#BEDCE3"/>
<path d="M96.1499 92.4702L102.21 96.1002V101.5L96.1499 97.8702V92.4702Z" fill="white"/>
<path d="M102.21 101.75C102.17 101.75 102.12 101.74 102.08 101.71L96.0199 98.0802C95.9399 98.0402 95.8999 97.9502 95.8999 97.8702V92.4702C95.8999 92.3802 95.9499 92.3002 96.0299 92.2502C96.1099 92.2102 96.1999 92.2102 96.2799 92.2502L102.34 95.8802C102.42 95.9202 102.46 96.0102 102.46 96.0902V101.49C102.46 101.58 102.41 101.66 102.33 101.71C102.3 101.74 102.25 101.75 102.21 101.75ZM96.3999 97.7302L101.96 101.06V96.2402L96.3999 92.9102V97.7302Z" fill="#BEDCE3"/>
<path d="M102.21 96.0999L112.65 90.1299V95.5399L102.21 101.5V96.0999Z" fill="white"/>
<path d="M102.21 101.75C102.17 101.75 102.12 101.74 102.08 101.72C102 101.68 101.96 101.59 101.96 101.5V96.0999C101.96 96.0099 102.01 95.9299 102.09 95.8799L112.53 89.9099C112.61 89.8699 112.7 89.8699 112.78 89.9099C112.86 89.9499 112.9 90.0399 112.9 90.1299V95.5299C112.9 95.6199 112.85 95.6999 112.77 95.7499L102.33 101.72C102.3 101.74 102.25 101.75 102.21 101.75ZM102.46 96.2399V101.07L112.4 95.3899V90.5599L102.46 96.2399Z" fill="#BEDCE3"/>
<path d="M96.1499 92.47L106.59 86.5L112.65 90.13L102.21 96.1L96.1499 92.47Z" fill="white"/>
<path d="M102.21 96.35C102.17 96.35 102.12 96.34 102.08 96.31L96.0199 92.68C95.9399 92.63 95.8999 92.55 95.8999 92.46C95.8999 92.37 95.9499 92.29 96.0299 92.25L106.47 86.28C106.55 86.24 106.64 86.24 106.72 86.28L112.78 89.91C112.86 89.96 112.9 90.04 112.9 90.13C112.9 90.22 112.85 90.3 112.77 90.34L102.33 96.31C102.3 96.34 102.25 96.35 102.21 96.35ZM96.6399 92.47L102.21 95.8L112.15 90.12L106.58 86.79L96.6399 92.47Z" fill="#BEDCE3"/>
<path d="M83.2598 99.9502L89.3198 103.58V108.99L83.2598 105.36V99.9502Z" fill="white"/>
<path d="M89.3198 109.24C89.2798 109.24 89.2298 109.23 89.1898 109.2L83.1298 105.57C83.0498 105.53 83.0098 105.44 83.0098 105.36V99.96C83.0098 99.87 83.0598 99.79 83.1398 99.74C83.2198 99.7 83.3098 99.7 83.3898 99.74L89.4498 103.37C89.5298 103.41 89.5698 103.5 89.5698 103.58V108.98C89.5698 109.07 89.5198 109.15 89.4398 109.2C89.4098 109.23 89.3698 109.24 89.3198 109.24ZM83.5098 105.22L89.0698 108.55V103.73L83.5098 100.4V105.22Z" fill="#BEDCE3"/>
<path d="M89.3198 103.58L99.7598 97.6201V103.02L89.3198 108.99V103.58Z" fill="white"/>
<path d="M89.3198 109.24C89.2798 109.24 89.2298 109.23 89.1898 109.21C89.1098 109.17 89.0698 109.08 89.0698 108.99V103.59C89.0698 103.5 89.1198 103.42 89.1998 103.37L99.6398 97.4001C99.7198 97.3601 99.8098 97.3601 99.8898 97.4001C99.9698 97.4401 100.01 97.5301 100.01 97.6201V103.02C100.01 103.11 99.9598 103.19 99.8798 103.24L89.4398 109.21C89.4098 109.23 89.3698 109.24 89.3198 109.24ZM89.5698 103.73V108.56L99.5098 102.88V98.0501L89.5698 103.73Z" fill="#BEDCE3"/>
<path d="M83.2598 99.9497L93.6998 93.9897L99.7598 97.6198L89.3198 103.58L83.2598 99.9497Z" fill="white"/>
<path d="M89.3198 103.83C89.2798 103.83 89.2298 103.82 89.1898 103.79L83.1298 100.16C83.0498 100.11 83.0098 100.03 83.0098 99.94C83.0098 99.85 83.0598 99.77 83.1398 99.73L93.5798 93.76C93.6598 93.72 93.7498 93.72 93.8298 93.76L99.8898 97.39C99.9698 97.44 100.01 97.52 100.01 97.61C100.01 97.7 99.9598 97.78 99.8798 97.82L89.4498 103.8C89.4098 103.82 89.3698 103.83 89.3198 103.83ZM83.7598 99.96L89.3298 103.29L99.2698 97.61L93.6998 94.28L83.7598 99.96Z" fill="#BEDCE3"/>
<path d="M70.3701 107.44L76.4401 111.07V116.47L70.3701 112.84V107.44Z" fill="white"/>
<path d="M76.4399 116.72C76.3999 116.72 76.3499 116.71 76.3099 116.68L70.2499 113.05C70.1699 113.01 70.1299 112.92 70.1299 112.84V107.44C70.1299 107.35 70.1799 107.27 70.2599 107.22C70.3399 107.18 70.4299 107.18 70.5099 107.22L76.5699 110.85C76.6499 110.89 76.6899 110.98 76.6899 111.06V116.46C76.6899 116.55 76.6399 116.63 76.5599 116.68C76.5199 116.71 76.4799 116.72 76.4399 116.72ZM70.6199 112.7L76.1799 116.03V111.21L70.6199 107.88V112.7Z" fill="#BEDCE3"/>
<path d="M76.4399 111.07L86.8699 105.1V110.51L76.4399 116.47V111.07Z" fill="white"/>
<path d="M76.4399 116.72C76.3999 116.72 76.3499 116.71 76.3099 116.69C76.2299 116.65 76.1899 116.56 76.1899 116.47V111.07C76.1899 110.98 76.2399 110.9 76.3199 110.85L86.7599 104.88C86.8399 104.84 86.9299 104.84 87.0099 104.88C87.0899 104.92 87.1299 105.01 87.1299 105.1V110.5C87.1299 110.59 87.0799 110.67 86.9999 110.72L76.5599 116.69C76.5199 116.71 76.4799 116.72 76.4399 116.72ZM76.6899 111.21V116.04L86.6299 110.36V105.53L76.6899 111.21Z" fill="#BEDCE3"/>
<path d="M70.3701 107.44L80.8101 101.47L86.8701 105.1L76.4401 111.07L70.3701 107.44Z" fill="white"/>
<path d="M76.4399 111.32C76.3999 111.32 76.3499 111.31 76.3099 111.28L70.2499 107.65C70.1699 107.6 70.1299 107.52 70.1299 107.43C70.1299 107.34 70.1799 107.26 70.2599 107.22L80.6999 101.25C80.7799 101.21 80.8699 101.21 80.9499 101.25L87.0099 104.88C87.0899 104.93 87.1299 105.01 87.1299 105.1C87.1299 105.19 87.0799 105.27 86.9999 105.31L76.5599 111.28C76.5199 111.31 76.4799 111.32 76.4399 111.32ZM70.8699 107.44L76.4399 110.77L86.3799 105.09L80.8099 101.76L70.8699 107.44Z" fill="#BEDCE3"/>
<path d="M57.4897 114.93L63.5497 118.55V123.96L57.4897 120.33V114.93Z" fill="white"/>
<path d="M63.5497 124.21C63.5097 124.21 63.4597 124.2 63.4197 124.17L57.3597 120.54C57.2797 120.5 57.2397 120.41 57.2397 120.33V114.93C57.2397 114.84 57.2897 114.76 57.3697 114.71C57.4497 114.67 57.5397 114.67 57.6197 114.71L63.6797 118.34C63.7597 118.38 63.7997 118.47 63.7997 118.55V123.95C63.7997 124.04 63.7497 124.12 63.6697 124.17C63.6297 124.2 63.5897 124.21 63.5497 124.21ZM57.7397 120.19L63.2997 123.52V118.7L57.7397 115.37V120.19Z" fill="#BEDCE3"/>
<path d="M63.5498 118.55L73.9898 112.59V117.99L63.5498 123.96V118.55Z" fill="white"/>
<path d="M63.5498 124.21C63.5098 124.21 63.4598 124.2 63.4198 124.18C63.3398 124.14 63.2998 124.05 63.2998 123.96V118.56C63.2998 118.47 63.3498 118.39 63.4298 118.34L73.8698 112.37C73.9498 112.33 74.0398 112.33 74.1198 112.37C74.1998 112.41 74.2398 112.5 74.2398 112.59V117.99C74.2398 118.08 74.1898 118.16 74.1098 118.21L63.6698 124.18C63.6298 124.2 63.5898 124.21 63.5498 124.21ZM63.7998 118.7V123.53L73.7398 117.85V113.02L63.7998 118.7Z" fill="#BEDCE3"/>
<path d="M57.4897 114.93L67.9297 108.96L73.9897 112.59L63.5497 118.55L57.4897 114.93Z" fill="white"/>
<path d="M63.5497 118.8C63.5097 118.8 63.4597 118.79 63.4197 118.76L57.3597 115.13C57.2797 115.08 57.2397 115 57.2397 114.91C57.2397 114.82 57.2897 114.74 57.3697 114.7L67.8097 108.73C67.8897 108.69 67.9797 108.69 68.0597 108.73L74.1197 112.36C74.1997 112.41 74.2397 112.49 74.2397 112.58C74.2397 112.67 74.1897 112.75 74.1097 112.79L63.6697 118.76C63.6297 118.79 63.5897 118.8 63.5497 118.8ZM57.9797 114.93L63.5497 118.26L73.4897 112.58L67.9197 109.25L57.9797 114.93Z" fill="#BEDCE3"/>
<path d="M31.71 129.9L37.77 133.53V138.93L31.71 135.3V129.9Z" fill="white"/>
<path d="M37.77 139.18C37.73 139.18 37.68 139.17 37.64 139.14L31.58 135.51C31.5 135.47 31.46 135.38 31.46 135.3V129.9C31.46 129.81 31.51 129.73 31.59 129.68C31.67 129.64 31.76 129.64 31.84 129.68L37.9 133.31C37.98 133.35 38.02 133.44 38.02 133.52V138.92C38.02 139.01 37.97 139.09 37.89 139.14C37.86 139.17 37.82 139.18 37.77 139.18ZM31.96 135.16L37.52 138.49V133.67L31.96 130.34V135.16Z" fill="#BEDCE3"/>
<path d="M37.77 133.53L48.21 127.56V132.97L37.77 138.93V133.53Z" fill="white"/>
<path d="M37.77 139.18C37.73 139.18 37.68 139.17 37.64 139.15C37.56 139.11 37.52 139.02 37.52 138.93V133.53C37.52 133.44 37.57 133.36 37.65 133.31L48.09 127.34C48.17 127.3 48.26 127.3 48.34 127.34C48.42 127.38 48.46 127.47 48.46 127.56V132.96C48.46 133.05 48.41 133.13 48.33 133.18L37.89 139.15C37.86 139.17 37.82 139.18 37.77 139.18ZM38.02 133.67V138.5L47.96 132.82V127.99L38.02 133.67Z" fill="#BEDCE3"/>
<path d="M31.71 129.9L42.15 123.93L48.21 127.56L37.77 133.53L31.71 129.9Z" fill="white"/>
<path d="M37.77 133.78C37.73 133.78 37.68 133.77 37.64 133.74L31.58 130.11C31.5 130.06 31.46 129.98 31.46 129.89C31.46 129.8 31.51 129.72 31.59 129.68L42.03 123.71C42.11 123.67 42.2 123.67 42.28 123.71L48.34 127.34C48.42 127.39 48.46 127.47 48.46 127.56C48.46 127.65 48.41 127.73 48.33 127.77L37.89 133.74C37.86 133.77 37.82 133.78 37.77 133.78ZM32.21 129.9L37.78 133.23L47.72 127.55L42.15 124.22L32.21 129.9Z" fill="#BEDCE3"/>
<path d="M107.57 42.1094L24.9102 89.8394L36.7902 96.6694L119.45 48.9394L107.57 42.1094Z" fill="white"/>
<path d="M36.7902 96.9196C36.7502 96.9196 36.7002 96.9096 36.6702 96.8896L24.7902 90.0496C24.7102 90.0096 24.6602 89.9196 24.6602 89.8296C24.6602 89.7396 24.7102 89.6596 24.7802 89.6096L107.44 41.8796C107.52 41.8396 107.61 41.8396 107.69 41.8796L119.57 48.7196C119.65 48.7596 119.7 48.8496 119.7 48.9396C119.7 49.0296 119.65 49.1096 119.58 49.1596L36.9202 96.8896C36.8802 96.9096 36.8302 96.9196 36.7902 96.9196ZM25.4102 89.8396L36.7902 96.3896L118.95 48.9496L107.57 42.3996L25.4102 89.8396Z" fill="#BEDCE3"/>
<path d="M119.451 48.9395V51.2595L36.7905 98.9895V96.6695L119.451 48.9395Z" fill="white"/>
<path d="M36.7903 99.2394C36.7503 99.2394 36.7003 99.2295 36.6703 99.2094C36.5903 99.1694 36.5503 99.0794 36.5503 98.9894V96.6694C36.5503 96.5794 36.6003 96.4994 36.6703 96.4494L119.33 48.7195C119.41 48.6795 119.5 48.6795 119.58 48.7195C119.66 48.7595 119.7 48.8495 119.7 48.9395V51.2595C119.7 51.3495 119.65 51.4295 119.58 51.4795L36.9203 99.2094C36.8803 99.2295 36.8303 99.2394 36.7903 99.2394ZM37.0403 96.8195V98.5594L119.2 51.1195V49.3795L37.0403 96.8195Z" fill="#BEDCE3"/>
<path d="M36.7902 98.9894V96.6694L24.9102 89.8394V92.1494L36.7902 98.9894Z" fill="white"/>
<path d="M36.7902 99.2396C36.7502 99.2396 36.7002 99.2296 36.6702 99.2096L24.7902 92.3696C24.7102 92.3296 24.6602 92.2396 24.6602 92.1496V89.8296C24.6602 89.7396 24.7102 89.6596 24.7802 89.6096C24.8602 89.5696 24.9502 89.5696 25.0302 89.6096L36.9102 96.4496C36.9902 96.4896 37.0402 96.5796 37.0402 96.6696V98.9896C37.0402 99.0796 36.9902 99.1596 36.9202 99.2096C36.8802 99.2296 36.8302 99.2396 36.7902 99.2396ZM25.1602 92.0096L36.5402 98.5596V96.8196L25.1602 90.2696V92.0096Z" fill="#BEDCE3"/>
<path d="M25.8203 92.6699V101.07L27.8503 102.25L32.7703 96.6699L25.8203 92.6699Z" fill="white"/>
<path d="M27.8501 102.5C27.8101 102.5 27.7601 102.49 27.7301 102.47L25.7001 101.3C25.6201 101.26 25.5801 101.17 25.5801 101.08V92.6797C25.5801 92.5897 25.6301 92.5097 25.7001 92.4597C25.7801 92.4197 25.8701 92.4197 25.9501 92.4597L32.9001 96.4597C32.9701 96.4997 33.0101 96.5597 33.0201 96.6397C33.0301 96.7197 33.0101 96.7897 32.9601 96.8497L28.0501 102.42C27.9901 102.47 27.9201 102.5 27.8501 102.5ZM26.0701 100.93L27.8001 101.93L32.3801 96.7397L26.0701 93.1097V100.93Z" fill="#BEDCE3"/>
<path d="M27.8506 102.25L29.2806 101.43L33.2906 96.9799L32.7706 96.6699L27.8506 102.25Z" fill="white"/>
<path d="M27.8504 102.5C27.7804 102.5 27.7104 102.47 27.6604 102.41C27.5804 102.32 27.5804 102.18 27.6704 102.09L32.5804 96.5198C32.6604 96.4298 32.7904 96.4098 32.8904 96.4698L33.4204 96.7698C33.4904 96.8098 33.5304 96.8698 33.5404 96.9498C33.5504 97.0198 33.5304 97.0998 33.4804 97.1598L29.4604 101.61C29.4404 101.63 29.4204 101.65 29.4004 101.66L27.9804 102.48C27.9404 102.49 27.9004 102.5 27.8504 102.5ZM32.8204 96.9898L29.0504 101.27L29.1204 101.23L32.9004 97.0398L32.8204 96.9898Z" fill="#BEDCE3"/>
<path d="M90.6704 39.8599L99.2404 44.8099V58.0199L90.6704 53.0699V39.8599Z" fill="white"/>
<path d="M99.2402 58.2696C99.2002 58.2696 99.1502 58.2596 99.1202 58.2396L90.5502 53.2896C90.4702 53.2496 90.4302 53.1596 90.4302 53.0696V39.8696C90.4302 39.7796 90.4802 39.6996 90.5502 39.6496C90.6302 39.6096 90.7202 39.6096 90.8002 39.6496L99.3702 44.5996C99.4502 44.6396 99.4902 44.7296 99.4902 44.8196V58.0196C99.4902 58.1096 99.4402 58.1896 99.3702 58.2396C99.3302 58.2596 99.2902 58.2696 99.2402 58.2696ZM90.9202 52.9196L98.9902 57.5796V44.9596L90.9202 40.2996V52.9196Z" fill="#BEDCE3"/>
<path d="M99.2402 44.81L110.68 38.21V51.42L99.2402 58.02V44.81Z" fill="white"/>
<path d="M99.24 58.2697C99.2 58.2697 99.15 58.2597 99.12 58.2397C99.04 58.1997 99 58.1097 99 58.0197V44.8197C99 44.7297 99.05 44.6497 99.12 44.5997L110.55 37.9997C110.63 37.9597 110.72 37.9597 110.8 37.9997C110.88 38.0397 110.92 38.1297 110.92 38.2197V51.4197C110.92 51.5097 110.87 51.5897 110.8 51.6397L99.37 58.2397C99.33 58.2597 99.29 58.2697 99.24 58.2697ZM99.49 44.9597V57.5797L110.42 51.2697V38.6497L99.49 44.9597Z" fill="#BEDCE3"/>
<path d="M90.6704 39.8598L102.1 33.2598L110.68 38.2098L99.2404 44.8098L90.6704 39.8598Z" fill="white"/>
<path d="M99.2402 45.0598C99.2002 45.0598 99.1502 45.0498 99.1202 45.0298L90.5502 40.0798C90.4702 40.0398 90.4302 39.9498 90.4302 39.8598C90.4302 39.7698 90.4802 39.6898 90.5502 39.6398L101.98 33.0398C102.06 32.9998 102.15 32.9998 102.23 33.0398L110.8 37.9998C110.88 38.0398 110.92 38.1298 110.92 38.2198C110.92 38.3098 110.87 38.3898 110.8 38.4398L99.3702 45.0398C99.3302 45.0498 99.2902 45.0598 99.2402 45.0598ZM91.1702 39.8598L99.2402 44.5198L110.17 38.2098L102.1 33.5498L91.1702 39.8598Z" fill="#BEDCE3"/>
<path d="M104.96 41.7599C104.92 41.7599 104.87 41.7499 104.84 41.7299L96.2699 36.7799C96.1499 36.7099 96.11 36.5599 96.18 36.4399C96.25 36.3199 96.3999 36.2799 96.5199 36.3499L105.09 41.2999C105.21 41.3699 105.25 41.5199 105.18 41.6399C105.13 41.7199 105.04 41.7599 104.96 41.7599Z" fill="#BEDCE3"/>
<path d="M75.7505 48.52L84.3205 53.47V66.67L75.7505 61.72V48.52Z" fill="white"/>
<path d="M84.3203 66.92C84.2803 66.92 84.2302 66.91 84.2002 66.89L75.6302 61.94C75.5502 61.9 75.5103 61.81 75.5103 61.72V48.52C75.5103 48.43 75.5602 48.35 75.6302 48.3C75.7102 48.26 75.8002 48.26 75.8802 48.3L84.4502 53.25C84.5302 53.29 84.5703 53.38 84.5703 53.47V66.67C84.5703 66.76 84.5202 66.84 84.4502 66.89C84.4102 66.91 84.3703 66.92 84.3203 66.92ZM76.0003 61.58L84.0703 66.24V53.62L76.0003 48.95V61.58Z" fill="#BEDCE3"/>
<path d="M84.3203 53.4701L95.7503 46.8701V60.0701L84.3203 66.6701V53.4701Z" fill="white"/>
<path d="M84.3201 66.9201C84.2801 66.9201 84.2301 66.9101 84.2001 66.8901C84.1201 66.8501 84.0801 66.7601 84.0801 66.6701V53.4701C84.0801 53.3801 84.1301 53.3001 84.2001 53.2501L95.6301 46.6501C95.7101 46.6101 95.8001 46.6101 95.8801 46.6501C95.9601 46.7001 96.0001 46.7801 96.0001 46.8701V60.0701C96.0001 60.1601 95.9501 60.2401 95.8801 60.2901L84.4501 66.8901C84.4101 66.9101 84.3701 66.9201 84.3201 66.9201ZM84.5701 53.6201V66.2401L95.5001 59.9301V47.3001L84.5701 53.6201Z" fill="#BEDCE3"/>
<path d="M75.7505 48.5199L87.1805 41.9199L95.7505 46.8699L84.3205 53.4699L75.7505 48.5199Z" fill="white"/>
<path d="M84.3203 53.7199C84.2803 53.7199 84.2302 53.7099 84.2002 53.6899L75.6302 48.7399C75.5502 48.6999 75.5103 48.6099 75.5103 48.5199C75.5103 48.4299 75.5602 48.3499 75.6302 48.2999L87.0602 41.6999C87.1402 41.6599 87.2302 41.6599 87.3102 41.6999L95.8802 46.6499C95.9602 46.6999 96.0003 46.7799 96.0003 46.8699C96.0003 46.9599 95.9502 47.0399 95.8802 47.0899L84.4502 53.6899C84.4102 53.7099 84.3703 53.7199 84.3203 53.7199ZM76.2503 48.5199L84.3203 53.1799L95.2503 46.8699L87.1803 42.2099L76.2503 48.5199Z" fill="#BEDCE3"/>
<path d="M90.04 50.42C90 50.42 89.95 50.41 89.92 50.39L81.35 45.44C81.23 45.37 81.19 45.22 81.26 45.1C81.33 44.98 81.48 44.94 81.6 45.01L90.17 49.96C90.29 50.03 90.33 50.18 90.26 50.3C90.21 50.38 90.12 50.42 90.04 50.42Z" fill="#BEDCE3"/>
<path d="M60.8306 57.1797L69.4006 62.1297V75.3297L60.8306 70.3797V57.1797Z" fill="white"/>
<path d="M69.4003 75.5797C69.3603 75.5797 69.3103 75.5697 69.2803 75.5497L60.7103 70.5997C60.6303 70.5597 60.5903 70.4697 60.5903 70.3797V57.1797C60.5903 57.0897 60.6403 57.0097 60.7103 56.9597C60.7903 56.9197 60.8803 56.9197 60.9603 56.9597L69.5303 61.9097C69.6103 61.9497 69.6503 62.0397 69.6503 62.1297V75.3297C69.6503 75.4197 69.6003 75.4997 69.5303 75.5497C69.4903 75.5697 69.4403 75.5797 69.4003 75.5797ZM61.0803 70.2297L69.1503 74.8897V62.2697L61.0803 57.6097V70.2297Z" fill="#BEDCE3"/>
<path d="M69.4004 62.1298L80.8304 55.5298V68.7298L69.4004 75.3298V62.1298Z" fill="white"/>
<path d="M69.4002 75.5798C69.3602 75.5798 69.3102 75.5698 69.2802 75.5498C69.2002 75.5098 69.1602 75.4198 69.1602 75.3298V62.1298C69.1602 62.0398 69.2102 61.9598 69.2802 61.9098L80.7102 55.3098C80.7902 55.2698 80.8802 55.2698 80.9602 55.3098C81.0402 55.3498 81.0802 55.4398 81.0802 55.5298V68.7298C81.0802 68.8198 81.0302 68.8998 80.9602 68.9498L69.5302 75.5498C69.4902 75.5698 69.4402 75.5798 69.4002 75.5798ZM69.6502 62.2698V74.8998L80.5802 68.5898V55.9598L69.6502 62.2698Z" fill="#BEDCE3"/>
<path d="M60.8306 57.1796L72.2606 50.5796L80.8306 55.5296L69.4006 62.1296L60.8306 57.1796Z" fill="white"/>
<path d="M69.4003 62.3796C69.3603 62.3796 69.3103 62.3696 69.2803 62.3496L60.7103 57.3996C60.6303 57.3596 60.5903 57.2696 60.5903 57.1796C60.5903 57.0896 60.6403 57.0096 60.7103 56.9596L72.1403 50.3596C72.2203 50.3196 72.3103 50.3196 72.3903 50.3596L80.9603 55.3096C81.0403 55.3496 81.0803 55.4396 81.0803 55.5296C81.0803 55.6196 81.0303 55.6996 80.9603 55.7496L69.5303 62.3496C69.4903 62.3696 69.4403 62.3796 69.4003 62.3796ZM61.3303 57.1796L69.4003 61.8396L80.3303 55.5296L72.2603 50.8696L61.3303 57.1796Z" fill="#BEDCE3"/>
<path d="M75.1201 59.0797C75.0801 59.0797 75.0301 59.0697 75.0001 59.0497L66.4301 54.0997C66.3101 54.0297 66.2701 53.8797 66.3401 53.7597C66.4101 53.6397 66.5601 53.5997 66.6801 53.6697L75.2501 58.6197C75.3701 58.6897 75.4101 58.8397 75.3401 58.9597C75.2901 59.0297 75.2001 59.0797 75.1201 59.0797Z" fill="#BEDCE3"/>
<path d="M45.9102 65.8301L54.4802 70.7801V83.9901L45.9102 79.0301V65.8301Z" fill="white"/>
<path d="M54.4799 84.2398C54.4399 84.2398 54.3899 84.2298 54.3599 84.2098L45.7899 79.2598C45.7099 79.2198 45.6699 79.1298 45.6699 79.0398V65.8398C45.6699 65.7498 45.7199 65.6698 45.7899 65.6198C45.8699 65.5798 45.9599 65.5798 46.0399 65.6198L54.6099 70.5698C54.6899 70.6098 54.7299 70.6998 54.7299 70.7898V83.9898C54.7299 84.0798 54.6799 84.1598 54.6099 84.2098C54.5699 84.2198 54.5199 84.2398 54.4799 84.2398ZM46.1599 78.8898L54.2299 83.5498V70.9298L46.1599 66.2698V78.8898Z" fill="#BEDCE3"/>
<path d="M54.48 70.7802L65.91 64.1802V77.3802L54.48 83.9902V70.7802Z" fill="white"/>
<path d="M54.4797 84.2399C54.4397 84.2399 54.3897 84.2299 54.3597 84.2099C54.2797 84.1699 54.2397 84.0799 54.2397 83.9899V70.7899C54.2397 70.6999 54.2897 70.6199 54.3597 70.5699L65.7897 63.9699C65.8697 63.9299 65.9597 63.9299 66.0397 63.9699C66.1197 64.0099 66.1597 64.0999 66.1597 64.1899V77.3899C66.1597 77.4799 66.1097 77.5599 66.0397 77.6099L54.6097 84.2099C54.5697 84.2199 54.5197 84.2399 54.4797 84.2399ZM54.7297 70.9299V83.5499L65.6597 77.2399V64.6199L54.7297 70.9299Z" fill="#BEDCE3"/>
<path d="M45.9102 65.83L57.3402 59.23L65.9102 64.18L54.4802 70.78L45.9102 65.83Z" fill="white"/>
<path d="M54.4799 71.03C54.4399 71.03 54.3899 71.02 54.3599 71L45.7899 66.05C45.7099 66.01 45.6699 65.92 45.6699 65.83C45.6699 65.74 45.7199 65.66 45.7899 65.61L57.2199 59.01C57.2999 58.97 57.3899 58.97 57.4699 59.01L66.0399 63.96C66.1199 64 66.1599 64.09 66.1599 64.18C66.1599 64.27 66.1099 64.35 66.0399 64.4L54.6099 71C54.5699 71.02 54.5199 71.03 54.4799 71.03ZM46.4099 65.83L54.4799 70.49L65.4099 64.18L57.3399 59.52L46.4099 65.83Z" fill="#BEDCE3"/>
<path d="M60.1997 67.7301C60.1597 67.7301 60.1097 67.7201 60.0797 67.7001L51.5097 62.7501C51.3897 62.6801 51.3497 62.5301 51.4197 62.4101C51.4897 62.2901 51.6397 62.2501 51.7597 62.3201L60.3297 67.2701C60.4497 67.3401 60.4897 67.4901 60.4197 67.6101C60.3697 67.6901 60.2797 67.7301 60.1997 67.7301Z" fill="#BEDCE3"/>
<path d="M30.9902 74.4897L39.5602 79.4398V92.6397L30.9902 87.6898V74.4897Z" fill="white"/>
<path d="M39.56 92.8897C39.52 92.8897 39.47 92.8798 39.44 92.8598L30.87 87.9098C30.79 87.8698 30.75 87.7798 30.75 87.6898V74.4897C30.75 74.3997 30.8 74.3197 30.87 74.2697C30.95 74.2297 31.04 74.2297 31.12 74.2697L39.69 79.2198C39.77 79.2598 39.81 79.3498 39.81 79.4398V92.6397C39.81 92.7297 39.76 92.8098 39.69 92.8598C39.65 92.8798 39.6 92.8897 39.56 92.8897ZM31.24 87.5498L39.31 92.2097V79.5798L31.24 74.9197V87.5498Z" fill="#BEDCE3"/>
<path d="M39.5601 79.4398L50.9901 72.8398V86.0398L39.5601 92.6398V79.4398Z" fill="white"/>
<path d="M39.5598 92.8898C39.5198 92.8898 39.4698 92.8798 39.4398 92.8598C39.3598 92.8198 39.3198 92.7298 39.3198 92.6398V79.4398C39.3198 79.3498 39.3698 79.2698 39.4398 79.2198L50.8698 72.6198C50.9498 72.5798 51.0398 72.5798 51.1198 72.6198C51.1998 72.6598 51.2398 72.7498 51.2398 72.8398V86.0398C51.2398 86.1298 51.1898 86.2098 51.1198 86.2598L39.6898 92.8598C39.6498 92.8798 39.5998 92.8898 39.5598 92.8898ZM39.8098 79.5798V92.1998L50.7398 85.8898V73.2698L39.8098 79.5798Z" fill="#BEDCE3"/>
<path d="M30.9902 74.4896L42.4202 67.8896L50.9902 72.8396L39.5602 79.4397L30.9902 74.4896Z" fill="white"/>
<path d="M39.56 79.6897C39.52 79.6897 39.47 79.6797 39.44 79.6597L30.87 74.7096C30.79 74.6696 30.75 74.5796 30.75 74.4896C30.75 74.3996 30.8 74.3196 30.87 74.2696L42.3 67.6696C42.38 67.6296 42.47 67.6296 42.55 67.6696L51.12 72.6197C51.2 72.6597 51.24 72.7496 51.24 72.8396C51.24 72.9296 51.19 73.0096 51.12 73.0596L39.69 79.6597C39.65 79.6797 39.6 79.6897 39.56 79.6897ZM31.49 74.4896L39.56 79.1497L50.49 72.8396L42.42 68.1797L31.49 74.4896Z" fill="#BEDCE3"/>
<path d="M45.2798 76.3898C45.2398 76.3898 45.1898 76.3798 45.1598 76.3598L36.5898 71.4098C36.4698 71.3398 36.4298 71.1898 36.4998 71.0698C36.5698 70.9498 36.7198 70.9098 36.8398 70.9798L45.4098 75.9298C45.5298 75.9998 45.5698 76.1498 45.4998 76.2698C45.4498 76.3398 45.3598 76.3898 45.2798 76.3898Z" fill="#BEDCE3"/>
<path d="M131.04 157.6L160.63 140.58L178.05 150.64C178.21 150.73 178.21 150.96 178.05 151.05L149.63 167.46C148.9 167.88 148.01 167.88 147.28 167.46L131.04 158.02C130.89 157.92 130.89 157.69 131.04 157.6Z" fill="#BEDCE3"/>
<path opacity="0.15" d="M160.89 204.11C198.694 204.11 229.34 173.464 229.34 135.66C229.34 97.8561 198.694 67.21 160.89 67.21C123.086 67.21 92.4399 97.8561 92.4399 135.66C92.4399 173.464 123.086 204.11 160.89 204.11Z" fill="#21C68B"/>
<path opacity="0.25" d="M160.89 184.51C187.869 184.51 209.74 162.639 209.74 135.66C209.74 108.681 187.869 86.8101 160.89 86.8101C133.911 86.8101 112.04 108.681 112.04 135.66C112.04 162.639 133.911 184.51 160.89 184.51Z" fill="#21C68B"/>
<path opacity="0.25" d="M160.89 165.36C177.293 165.36 190.59 152.063 190.59 135.66C190.59 119.257 177.293 105.96 160.89 105.96C144.487 105.96 131.19 119.257 131.19 135.66C131.19 152.063 144.487 165.36 160.89 165.36Z" fill="#21C68B"/>
<path opacity="0.25" d="M160.89 155.26C171.715 155.26 180.49 146.485 180.49 135.66C180.49 124.835 171.715 116.06 160.89 116.06C150.065 116.06 141.29 124.835 141.29 135.66C141.29 146.485 150.065 155.26 160.89 155.26Z" fill="#21C68B"/>
<path opacity="0.25" d="M160.89 147.75C167.567 147.75 172.98 142.337 172.98 135.66C172.98 128.983 167.567 123.57 160.89 123.57C154.213 123.57 148.8 128.983 148.8 135.66C148.8 142.337 154.213 147.75 160.89 147.75Z" fill="#21C68B"/>
<path d="M174.79 138.09L160.21 129.67L160.2 129.66C159.66 129.35 158.97 129.43 158.51 129.85L158.5 129.86L135.94 151L133.75 153.05C133.74 153.06 133.73 153.08 133.72 153.09C133.35 153.47 133.15 153.98 133.15 154.52V154.92C133.15 155.56 133.49 156.15 134.04 156.47L148.25 164.68C148.9 165.05 149.69 165.05 150.34 164.68L151.48 164.02C152.62 163.36 153.69 162.57 154.65 161.66C156.78 159.66 160.84 155.95 163.74 153.9C163.75 153.89 163.76 153.88 163.77 153.88C163.77 153.89 163.78 153.91 163.78 153.92C164.08 154.04 166.01 154.75 167.35 154.39C168.62 154.05 169.78 153.41 170.05 153.26L170.11 153.22L174.09 150.87C174.09 150.87 175.43 149.82 175.43 148.97V139.23C175.44 138.75 175.19 138.32 174.79 138.09Z" fill="white"/>
<path d="M149.23 164.25L148.71 164.86C149.25 165.02 149.85 164.96 150.35 164.67L151.49 164.01C152.63 163.35 153.69 162.56 154.65 161.66C156.77 159.67 160.84 155.94 163.75 153.89C163.76 153.88 163.77 153.87 163.78 153.87C163.78 153.88 163.79 153.9 163.79 153.91C164.09 154.03 166.02 154.74 167.36 154.38C168.63 154.04 169.79 153.4 170.06 153.25L170.12 153.21L174.1 150.86C174.1 150.86 175.44 149.81 175.44 148.96V139.22C175.44 138.88 175.31 138.56 175.08 138.32L149.56 161.95C149.36 162.14 149.24 162.41 149.24 162.68V164.25H149.23Z" fill="#BEDCE3"/>
<path d="M163.79 154.36C163.63 154.36 163.48 154.29 163.38 154.15C163.22 153.92 163.27 153.61 163.5 153.45C164.73 152.58 165.63 152.1 166.25 151.96C166.52 151.9 166.79 152.07 166.84 152.34C166.89 152.61 166.73 152.88 166.46 152.93C166.13 153 165.44 153.29 164.07 154.26C163.99 154.33 163.89 154.36 163.79 154.36Z" fill="#231F20"/>
<path d="M137.68 151.39L156.69 133.61C157.1 133.23 157.7 133.16 158.18 133.44L169.86 140.23C170.21 140.43 170.27 140.92 169.97 141.2L151.24 158.77C150.7 159.27 149.9 159.36 149.27 159L137.78 152.27C137.46 152.07 137.41 151.64 137.68 151.39Z" fill="#BEDCE3"/>
<path d="M149.3 165.45C148.85 165.45 148.41 165.34 148.01 165.1L133.8 156.89C133.09 156.48 132.66 155.72 132.66 154.91V154.51C132.66 153.8 132.96 153.11 133.47 152.63L137.04 149.29C137.24 149.1 137.56 149.11 137.75 149.31C137.94 149.51 137.93 149.83 137.73 150.02L134.16 153.36C133.84 153.66 133.66 154.08 133.66 154.51V154.91C133.66 155.37 133.91 155.8 134.3 156.03L148.51 164.24C149 164.52 149.61 164.52 150.1 164.24L151.24 163.58C152.35 162.94 153.38 162.17 154.32 161.29C156.48 159.27 160.52 155.57 163.44 153.5C163.47 153.47 163.51 153.45 163.55 153.44C163.68 153.38 163.83 153.37 163.96 153.42C164 153.44 164.04 153.46 164.07 153.48C164.51 153.64 166.15 154.19 167.24 153.9C168.47 153.57 169.6 152.94 169.82 152.82L173.85 150.44C174.26 150.11 174.94 149.38 174.94 148.97V139.23C174.94 138.94 174.79 138.68 174.54 138.53L159.96 130.11C159.6 129.9 159.15 129.95 158.85 130.24L143.81 144.36C143.61 144.55 143.29 144.54 143.1 144.34C142.91 144.14 142.92 143.82 143.12 143.63L158.16 129.51C158.79 128.92 159.71 128.82 160.46 129.25L175.04 137.67C175.6 137.99 175.94 138.59 175.94 139.23V148.97C175.94 150.01 174.66 151.07 174.41 151.27L170.38 153.65C169.98 153.88 168.81 154.52 167.5 154.87C166.21 155.21 164.5 154.7 163.84 154.46C160.99 156.52 157.11 160.07 155.02 162.03C154.03 162.96 152.93 163.78 151.76 164.46L150.62 165.12C150.2 165.34 149.75 165.45 149.3 165.45Z" fill="#231F20"/>
</g>
<defs>
<clipPath id="clip0_4693_10093">
<rect width="248.47" height="247.08" fill="white" transform="translate(4 4)"/>
</clipPath>
</defs>
</svg>
