<svg width="256" height="256" viewBox="0 0 256 256" fill="none" xmlns="http://www.w3.org/2000/svg">
<path d="M30.62 178.33L101.22 218.56C102.412 219.244 103.761 219.603 105.135 219.603C106.509 219.603 107.858 219.244 109.05 218.56L225.38 151.94C225.501 151.871 225.601 151.771 225.67 151.651C225.74 151.531 225.776 151.394 225.776 151.255C225.776 151.116 225.74 150.98 225.67 150.86C225.601 150.739 225.501 150.64 225.38 150.57L150.46 107.57L30.61 177C30.4991 177.073 30.4081 177.172 30.3455 177.288C30.2828 177.405 30.2505 177.536 30.2515 177.668C30.2525 177.8 30.2868 177.931 30.3512 178.046C30.4156 178.162 30.508 178.26 30.62 178.33Z" fill="#BEDCE3"/>
<path d="M192.69 40.6599C190.41 39.6599 190.63 41.7299 188.39 40.6599C186.15 39.5899 185.94 37.5199 183.78 36.5199C183.78 36.5199 173 33.6999 161.78 51.5199" fill="white"/>
<path d="M201.19 110.77L119.71 192.11C115.309 196.419 109.627 199.181 103.52 199.98C97.4127 200.779 91.2113 199.572 85.85 196.54C68.85 186.89 45.28 173.54 38.97 169.92C36.49 168.48 31.73 164.43 31.73 154.76" fill="white"/>
<path d="M51.41 145.39L189.41 90.7603C189.64 90.895 189.836 91.0806 189.984 91.3028C190.131 91.5249 190.226 91.7778 190.26 92.0422C190.295 92.3065 190.269 92.5753 190.184 92.828C190.099 93.0807 189.957 93.3106 189.77 93.5003L106.77 178.61C106.495 178.894 106.133 179.078 105.742 179.132C105.35 179.187 104.952 179.109 104.61 178.91L51.79 148.14C51.5599 148.005 51.3634 147.819 51.2153 147.597C51.0671 147.375 50.9712 147.122 50.9346 146.857C50.8981 146.593 50.9219 146.323 51.0042 146.069C51.0865 145.815 51.2253 145.583 51.41 145.39Z" fill="white"/>
<path d="M32.8999 151.31L139.13 43.2205C139.953 42.3832 141.029 41.8412 142.192 41.6784C143.355 41.5157 144.539 41.7414 145.56 42.3205L205.56 76.3205C211.73 80.3805 213.56 84.6505 214.56 88.9805C216.73 98.6205 222.98 128.74 222.98 128.74C225.11 135.15 223.39 140.44 217.4 143.99L192 158.64C179.66 165.72 168.87 163.18 156.55 156.07" fill="white"/>
<path fill-rule="evenodd" clip-rule="evenodd" d="M150.67 67.7396C150.952 67.2647 151.566 67.1083 152.041 67.3903L189.946 89.8974C189.947 89.898 189.948 89.8987 189.949 89.8993C190.309 90.111 190.616 90.4018 190.847 90.7499C191.079 91.099 191.227 91.4964 191.282 91.9118C191.336 92.3272 191.295 92.7496 191.162 93.1467C191.029 93.5426 190.807 93.903 190.514 94.2005C190.513 94.2014 190.512 94.2022 190.511 94.2031L107.519 179.306C107.518 179.306 107.518 179.307 107.517 179.307C107.087 179.751 106.521 180.038 105.909 180.123C105.297 180.208 104.673 180.086 104.138 179.775L104.137 179.774L51.2869 149.004L51.2827 149.002C50.9226 148.79 50.6151 148.499 50.3832 148.151C50.1514 147.804 50.0012 147.408 49.944 146.994C49.8868 146.58 49.924 146.158 50.0529 145.761C50.1817 145.363 50.3989 145 50.6881 144.698L50.691 144.695L97.0885 96.6874L97.8 97.3902C97.0886 96.6875 97.0884 96.6875 97.0885 96.6874L97.0893 96.6867L97.764 96.0039C98.2018 95.561 98.8398 94.9159 99.6407 94.1066C101.242 92.4881 103.495 90.213 106.101 87.587C111.313 82.3353 117.938 75.6785 123.585 70.0612C123.976 69.6717 124.61 69.6734 124.999 70.0649C125.389 70.4565 125.387 71.0897 124.995 71.4791C119.353 77.0918 112.732 83.745 107.521 88.9958C104.916 91.621 102.663 93.8954 101.062 95.5134C100.262 96.3224 99.624 96.9673 99.1864 97.41L98.5226 98.0817L98.5191 98.0851L98.5143 98.0901L98.5122 98.0922L52.132 146.082C52.1316 146.083 52.1311 146.083 52.1307 146.083C52.051 146.167 51.9911 146.268 51.9555 146.377C51.9197 146.488 51.9093 146.605 51.9252 146.72C51.9411 146.835 51.9829 146.945 52.0473 147.042C52.1115 147.138 52.1966 147.219 52.2962 147.278C52.2966 147.278 52.297 147.278 52.2973 147.278L105.142 178.045C105.291 178.131 105.464 178.165 105.634 178.142C105.804 178.118 105.962 178.038 106.082 177.915L106.084 177.912L189.084 92.802L189.089 92.7972C189.169 92.716 189.23 92.6174 189.266 92.5091C189.303 92.4008 189.314 92.2856 189.299 92.1723C189.284 92.0591 189.243 91.9507 189.18 91.8555C189.117 91.7602 189.033 91.6807 188.934 91.623L188.929 91.62L151.019 69.11C150.545 68.828 150.388 68.2145 150.67 67.7396Z" fill="#231F20"/>
<path d="M215.24 52.0596C214.791 50.4237 212.79 48.9196 210.64 47.9296C209.29 47.3096 208.8 47.8696 208.07 48.1196C207.769 48.2136 207.452 48.2435 207.138 48.2073C206.825 48.1712 206.522 48.0698 206.25 47.9096C204.06 46.9096 203.88 44.7996 201.6 43.7496C199.32 42.6996 199.54 44.8196 197.31 43.7496C196.578 43.3994 195.935 42.8863 195.43 42.2496C194.749 41.1572 193.807 40.2503 192.69 39.6096C192.363 39.4057 191.986 39.2976 191.6 39.2976C191.215 39.2976 190.837 39.4057 190.51 39.6096H188.39C186.15 38.6096 185.94 36.4696 183.78 35.4696C183.78 35.4696 172.818 33.6084 161.598 51.4284L191.581 68.4149C194.309 64.159 195.787 60.853 199.807 57.6686C205.564 53.1096 211.488 55.6523 215.24 52.0596Z" fill="#BEDCE3"/>
<path fill-rule="evenodd" clip-rule="evenodd" d="M183.946 34.4834C183.947 34.4836 183.948 34.4837 183.78 35.4696L183.948 34.4837C184.035 34.4986 184.12 34.5249 184.201 34.5622C185.491 35.1598 186.213 36.1013 186.794 36.8593C186.812 36.8833 186.831 36.9072 186.849 36.9308C187.408 37.6598 187.862 38.2232 188.617 38.6096H190.254C190.672 38.405 191.132 38.2976 191.6 38.2976C192.166 38.2976 192.721 38.4545 193.203 38.7507C194.439 39.4629 195.483 40.4643 196.247 41.6689C196.651 42.1676 197.162 42.5703 197.742 42.8474L197.743 42.8481C198.19 43.0627 198.409 43.0673 198.504 43.0581C198.615 43.0474 198.707 43.0096 198.975 42.8702C198.984 42.8654 198.993 42.8605 199.003 42.8555C199.25 42.7264 199.652 42.5166 200.18 42.4624C200.742 42.4047 201.338 42.5278 202.019 42.8413C203.393 43.474 204.136 44.4386 204.737 45.2198L204.751 45.2381C205.364 46.0329 205.823 46.6151 206.666 47C206.697 47.0144 206.728 47.0304 206.758 47.048C206.909 47.1372 207.078 47.1938 207.253 47.2139C207.423 47.2336 207.596 47.2183 207.76 47.1689C207.855 47.1354 207.943 47.0947 208.078 47.0323C208.107 47.0188 208.139 47.0043 208.173 46.9886C208.351 46.9066 208.596 46.798 208.885 46.7271C209.524 46.5704 210.216 46.6344 211.058 47.0209L211.059 47.0213C212.194 47.5443 213.316 48.2137 214.227 48.9918C215.124 49.7576 215.904 50.7023 216.205 51.7946C216.302 52.1488 216.197 52.5279 215.932 52.7819C213.909 54.7185 211.329 55.0815 208.89 55.4247C208.732 55.4469 208.574 55.4691 208.418 55.4916C205.772 55.8715 203.084 56.3494 200.428 58.4525C197.38 60.8668 195.896 63.3022 194.02 66.381C193.527 67.1906 193.006 68.0446 192.423 68.9544C192.137 69.4016 191.551 69.5468 191.089 69.285L161.105 52.2985C160.867 52.1638 160.695 51.9376 160.628 51.6726C160.561 51.4076 160.606 51.1268 160.751 50.8956C166.451 41.8431 172.144 37.7011 176.505 35.8463C178.681 34.921 180.506 34.5733 181.806 34.461C182.456 34.4048 182.973 34.4075 183.337 34.4257C183.519 34.4348 183.663 34.4478 183.766 34.4593C183.817 34.465 183.858 34.4704 183.888 34.4747C183.904 34.4768 183.916 34.4787 183.926 34.4802L183.939 34.4823L183.944 34.4831L183.946 34.4834ZM183.492 36.4416C183.43 36.4354 183.344 36.4286 183.237 36.4232C182.958 36.4092 182.532 36.4057 181.978 36.4535C180.873 36.5491 179.256 36.8499 177.288 37.6867C173.497 39.2992 168.332 42.9338 163.01 51.079L191.245 67.0749C191.587 66.5255 191.915 65.9868 192.236 65.4578C194.139 62.3286 195.834 59.5396 199.187 56.8847C202.288 54.4288 205.44 53.8986 208.133 53.5119C208.228 53.4982 208.323 53.4848 208.416 53.4714C210.758 53.1366 212.576 52.8766 214.038 51.773C213.806 51.3742 213.438 50.9476 212.929 50.513C212.19 49.8827 211.237 49.3052 210.223 48.8382C209.715 48.6049 209.486 48.6389 209.361 48.6696C209.268 48.6925 209.168 48.7321 209.008 48.806C208.987 48.8153 208.965 48.8256 208.941 48.8367C208.801 48.9021 208.603 48.9943 208.394 49.0657C208.386 49.0687 208.377 49.0715 208.368 49.0742C207.934 49.2098 207.476 49.2529 207.024 49.2007C206.589 49.1506 206.17 49.0138 205.79 48.7984C204.506 48.1983 203.793 47.2721 203.213 46.5183C203.198 46.4983 203.182 46.4784 203.167 46.4587C202.564 45.6755 202.078 45.0703 201.182 44.658C200.723 44.4465 200.491 44.4409 200.384 44.4519C200.263 44.4643 200.163 44.5062 199.899 44.644C199.889 44.6492 199.878 44.6546 199.868 44.6601C199.623 44.7881 199.222 44.9979 198.697 45.0487C198.136 45.1032 197.546 44.9717 196.879 44.6519C196.009 44.2359 195.245 43.6266 194.646 42.8704C194.623 42.8412 194.602 42.8107 194.582 42.7791C193.988 41.8265 193.167 41.0357 192.193 40.4771C192.182 40.471 192.172 40.4647 192.161 40.4582C191.993 40.3533 191.799 40.2976 191.6 40.2976C191.402 40.2976 191.208 40.3533 191.04 40.4582C190.881 40.5572 190.697 40.6096 190.51 40.6096H188.39C188.25 40.6096 188.111 40.58 187.983 40.5228C186.616 39.9127 185.872 38.9426 185.271 38.1603L185.262 38.1485C184.681 37.3916 184.239 36.8252 183.492 36.4416Z" fill="#231F20"/>
<path d="M178.8 133.2L156.51 156.07C163.74 160.25 173.51 165.42 185.51 161.68L178.8 133.2Z" fill="#BEDCE3"/>
<path fill-rule="evenodd" clip-rule="evenodd" d="M201.898 110.064C202.288 110.454 202.287 111.088 201.896 111.478L120.416 192.818L120.41 192.825C115.854 197.285 109.972 200.144 103.65 200.972C97.3275 201.799 90.9078 200.549 85.3577 197.41L85.3563 197.41C80.1376 194.447 74.2988 191.136 68.5299 187.864C55.5102 180.479 42.8468 173.297 38.4724 170.787L38.4678 170.785C35.729 169.195 30.73 164.84 30.73 154.76C30.73 154.208 31.1777 153.76 31.73 153.76C32.2823 153.76 32.73 154.208 32.73 154.76C32.73 164.017 37.2475 167.763 39.4696 169.054C43.8418 171.562 56.4956 178.739 69.511 186.121C75.2808 189.393 81.1217 192.706 86.3436 195.67C91.5159 198.595 97.4985 199.759 103.39 198.989C109.281 198.218 114.761 195.554 119.007 191.399C119.008 191.398 119.009 191.397 119.01 191.395L200.483 110.062C200.874 109.672 201.508 109.673 201.898 110.064Z" fill="#231F20"/>
<path fill-rule="evenodd" clip-rule="evenodd" d="M201.898 110.064C202.288 110.454 202.287 111.088 201.896 111.478L120.416 192.818L120.41 192.825C115.854 197.285 109.972 200.144 103.65 200.972C97.3275 201.799 90.9078 200.549 85.3577 197.41L85.3563 197.41C80.1376 194.447 74.2988 191.136 68.5299 187.864C55.5102 180.479 42.8468 173.297 38.4724 170.787L38.4678 170.785C35.729 169.195 30.73 164.84 30.73 154.76C30.73 154.208 31.1777 153.76 31.73 153.76C32.2823 153.76 32.73 154.208 32.73 154.76C32.73 164.017 37.2475 167.763 39.4696 169.054C43.8418 171.562 56.4956 178.739 69.511 186.121C75.2808 189.393 81.1217 192.706 86.3436 195.67C91.5159 198.595 97.4985 199.759 103.39 198.989C109.281 198.218 114.761 195.554 119.007 191.399C119.008 191.398 119.009 191.397 119.01 191.395L200.483 110.062C200.874 109.672 201.508 109.673 201.898 110.064Z" fill="#231F20"/>
<path fill-rule="evenodd" clip-rule="evenodd" d="M146.023 41.4603C146.023 41.4604 146.023 41.4603 146.023 41.4603L206.023 75.4602C206.042 75.4711 206.061 75.4827 206.079 75.4948C209.265 77.5911 211.372 79.7699 212.811 82.0201C214.249 84.2677 214.99 86.5382 215.504 88.7652L215.505 88.7706C216.592 93.5991 218.699 103.547 220.532 112.28C221.449 116.648 222.298 120.715 222.918 123.689C223.228 125.177 223.481 126.391 223.656 127.234L223.917 128.491C225.016 131.828 225.149 134.969 224.151 137.782C223.145 140.617 221.034 142.994 217.879 144.861L217.869 144.867L192.459 159.507L192.457 159.508C186.117 163.145 180.123 164.334 174.117 163.67C168.141 163.01 162.224 160.523 156.01 156.936C155.532 156.66 155.368 156.049 155.644 155.57C155.92 155.092 156.531 154.928 157.01 155.204C163.116 158.728 168.754 161.066 174.337 161.683C179.891 162.296 185.461 161.215 191.461 157.774M191.462 157.773L216.861 143.14C216.862 143.139 216.864 143.138 216.866 143.137C219.708 141.454 221.45 139.412 222.266 137.113C223.085 134.807 223.015 132.118 222.001 129.066C221.989 129.029 221.979 128.991 221.971 128.953L222.95 128.75C221.971 128.953 221.971 128.954 221.971 128.953L221.97 128.952L221.97 128.948L221.698 127.641C221.523 126.798 221.27 125.584 220.96 124.097C220.341 121.123 219.492 117.058 218.575 112.691C216.741 103.955 214.638 94.0248 213.555 89.2124C213.069 87.1104 212.395 85.0819 211.126 83.0978C209.862 81.1216 207.976 79.1415 205.008 77.1837L145.037 43.2002C144.207 42.7298 143.245 42.5463 142.301 42.6785C141.356 42.8107 140.482 43.2511 139.813 43.9312L33.6131 152.011C33.2806 152.349 33.0303 152.76 32.8823 153.21C32.7344 153.66 32.6924 154.139 32.7597 154.608C32.838 155.155 32.4584 155.662 31.9117 155.74C31.365 155.818 30.8583 155.439 30.7799 154.892C30.669 154.118 30.7382 153.329 30.9822 152.586C31.2262 151.843 31.6383 151.167 32.1865 150.609C32.1866 150.609 32.1864 150.609 32.1865 150.609L138.387 42.5293C139.364 41.535 140.643 40.8911 142.023 40.6978C143.404 40.5046 144.81 40.7727 146.023 41.4603" fill="#231F20"/>
<path d="M161 103.22L156.42 102.22C156.535 100.745 156.334 99.262 155.83 97.8705L160 95.3805C160.4 95.1305 160.5 94.7205 160.22 94.4505L152.4 87.4505C152.208 87.3297 151.987 87.2656 151.76 87.2656C151.534 87.2656 151.312 87.3297 151.12 87.4505L147 89.9205C145.156 89.2613 143.239 88.8314 141.29 88.6405L140.82 85.1505C140.77 84.8005 140.33 84.5805 139.82 84.6605L126.35 86.9005C125.84 86.9805 125.47 87.3205 125.52 87.6805L126 91.1705C125.072 91.5958 124.168 92.0698 123.29 92.5905C122.455 93.1007 121.647 93.6549 120.87 94.2505L116.29 93.2505C116.065 93.2003 115.83 93.2161 115.614 93.2959C115.397 93.3757 115.209 93.5162 115.07 93.7005L109.45 102.9C109.25 103.25 109.45 103.61 109.9 103.72L114.49 104.72C114.375 106.196 114.576 107.679 115.08 109.07L111 111.53C110.59 111.78 110.49 112.19 110.79 112.45L118.6 119.45C118.789 119.579 119.012 119.647 119.24 119.647C119.468 119.647 119.691 119.579 119.88 119.45L124 117C125.842 117.652 127.756 118.078 129.7 118.27L130.18 121.77C130.23 122.12 130.67 122.34 131.18 122.25L144.57 120C145.07 119.91 145.44 119.57 145.4 119.22L144.92 115.73C145.841 115.302 146.739 114.824 147.61 114.3C148.459 113.802 149.275 113.247 150.05 112.64L154.63 113.64C154.853 113.695 155.086 113.682 155.302 113.604C155.517 113.525 155.704 113.385 155.84 113.2L161.46 103.99C161.67 103.68 161.47 103.32 161 103.22ZM145.45 98.9305C147.87 102.12 146.45 106.5 141.91 109.24C136.91 112.24 129.91 112.11 126.35 108.93C123.1 106.03 123.77 101.63 127.66 98.5805C128.079 98.2509 128.52 97.9502 128.98 97.6805C133.98 94.6805 140.98 94.7905 144.56 97.9905C144.888 98.2755 145.19 98.5901 145.46 98.9305H145.45Z" fill="#F05023"/>
<path d="M136.56 136.71L133.66 135.71C133.922 134.733 133.983 133.712 133.84 132.71L136.84 131.28C137.14 131.14 137.26 130.86 137.1 130.66L132.85 125.41C132.737 125.31 132.596 125.246 132.446 125.228C132.295 125.211 132.143 125.239 132.01 125.31L129 126.75C127.859 126.176 126.644 125.762 125.39 125.52L125.54 123.1C125.54 122.86 125.29 122.68 124.94 122.7L115.76 123.4C115.41 123.4 115.12 123.63 115.1 123.88L115 126.3C114.32 126.533 113.652 126.8 113 127.1C112.375 127.399 111.767 127.733 111.18 128.1L108.28 127.1C108.129 127.058 107.97 127.056 107.818 127.097C107.667 127.137 107.529 127.218 107.42 127.33L102.48 133.33C102.29 133.55 102.38 133.81 102.67 133.92L105.57 134.92C105.299 135.896 105.235 136.918 105.38 137.92L102.38 139.35C102.07 139.49 101.95 139.77 102.11 139.97L106.36 145.22C106.473 145.324 106.616 145.39 106.769 145.408C106.921 145.426 107.076 145.395 107.21 145.32L110.21 143.89C111.353 144.457 112.567 144.868 113.82 145.11L113.67 147.54C113.67 147.77 113.92 147.95 114.27 147.93L123.46 147.23C123.607 147.237 123.752 147.193 123.87 147.106C123.989 147.018 124.073 146.893 124.11 146.75L124.26 144.34C124.92 144.1 125.59 143.83 126.26 143.53C126.888 143.231 127.499 142.897 128.09 142.53L130.99 143.53C131.139 143.573 131.297 143.574 131.447 143.534C131.597 143.493 131.733 143.413 131.84 143.3L136.78 137.3C136.83 137.254 136.865 137.195 136.88 137.129C136.896 137.064 136.892 136.995 136.868 136.931C136.845 136.868 136.803 136.813 136.748 136.774C136.693 136.734 136.627 136.712 136.56 136.71ZM126.82 132.81C128 135.14 126.5 138.05 123.12 139.64C119.4 141.38 114.8 140.86 112.86 138.46C111.09 136.27 112.11 133.31 115.09 131.46C115.413 131.266 115.747 131.089 116.09 130.93C119.82 129.18 124.42 129.7 126.36 132.11C126.534 132.329 126.688 132.564 126.82 132.81Z" fill="#F2C94C"/>
<path d="M99.1698 135L97.1698 134.14C97.4219 133.446 97.534 132.708 97.4998 131.97L99.7598 131.09C99.9798 131 100.09 130.81 99.9898 130.65L97.3398 126.65C97.2657 126.572 97.1687 126.519 97.0627 126.499C96.9567 126.479 96.8472 126.494 96.7498 126.54L94.4998 127.42C93.7192 126.958 92.8776 126.608 91.9998 126.38L92.2798 124.63C92.2798 124.46 92.1298 124.32 91.8798 124.32H85.3198C85.2127 124.31 85.1051 124.336 85.0144 124.394C84.9237 124.452 84.8552 124.538 84.8198 124.64L84.5498 126.38C84.0698 126.52 83.5498 126.68 83.0998 126.87C82.635 127.051 82.1809 127.258 81.7398 127.49L79.7398 126.63C79.6357 126.589 79.5222 126.579 79.4124 126.6C79.3026 126.621 79.2012 126.673 79.1198 126.75L75.2098 130.81C75.176 130.84 75.1506 130.879 75.1364 130.922C75.1221 130.965 75.1194 131.011 75.1285 131.056C75.1376 131.101 75.1582 131.142 75.1883 131.176C75.2183 131.21 75.2568 131.236 75.2998 131.25L77.2998 132.1C77.0404 132.793 76.9247 133.531 76.9598 134.27L74.6998 135.16C74.4698 135.25 74.3698 135.44 74.4698 135.59L77.1198 139.59C77.1939 139.668 77.2909 139.721 77.3969 139.741C77.5029 139.761 77.6125 139.747 77.7098 139.7L79.9698 138.82C80.7417 139.283 81.5725 139.64 82.4398 139.88L82.1598 141.63C82.1598 141.8 82.3098 141.94 82.5598 141.94L89.1198 141.89C89.2255 141.9 89.3314 141.874 89.4215 141.819C89.5117 141.763 89.5813 141.679 89.6198 141.58L89.8898 139.83C90.3698 139.7 90.8898 139.53 91.3398 139.35C91.7898 139.17 92.2698 138.95 92.7098 138.73L94.7098 139.59C94.8148 139.63 94.9289 139.638 95.0387 139.615C95.1486 139.592 95.2495 139.539 95.3298 139.46L99.2398 135.4C99.2676 135.372 99.2882 135.337 99.2999 135.299C99.3117 135.261 99.3142 135.221 99.3074 135.182C99.3006 135.143 99.2845 135.106 99.2606 135.075C99.2367 135.043 99.2056 135.017 99.1698 135ZM92.5498 131.7C93.2198 133.44 91.9498 135.47 89.4498 136.46C86.6898 137.54 83.4498 136.93 82.2598 135.09C81.1598 133.42 82.0898 131.33 84.3298 130.09C84.5699 129.963 84.8169 129.849 85.0698 129.75C87.8298 128.67 91.0698 129.28 92.2698 131.12C92.3808 131.315 92.4745 131.519 92.5498 131.73V131.7Z" fill="#F05023"/>
<path fill-rule="evenodd" clip-rule="evenodd" d="M31.0034 152.611C31.2792 152.132 31.8907 151.968 32.3692 152.244L84.7992 182.464C85.2777 182.739 85.442 183.351 85.1662 183.829C84.8904 184.308 84.2789 184.472 83.8004 184.196L31.3704 153.976C30.8919 153.701 30.7276 153.089 31.0034 152.611Z" fill="#231F20"/>
</svg>
