<svg width="256" height="256" viewBox="0 0 256 256" fill="none" xmlns="http://www.w3.org/2000/svg">
<g clip-path="url(#clip0_4687_9702)">
<path d="M27.5001 166.96L153.72 94.3604L228 137.26C228.67 137.64 228.67 138.61 228 138.99L106.8 208.99C103.7 210.78 99.8701 210.78 96.7701 208.98L27.5001 168.69C26.8301 168.31 26.8301 167.35 27.5001 166.96Z" fill="#BEDCE3"/>
<path d="M214.07 83.7302L151.9 47.8302L151.86 47.8102C149.54 46.4702 146.62 46.8102 144.67 48.6402L144.64 48.6702L48.4 138.82L39.08 147.55C39.02 147.6 38.99 147.66 38.94 147.72C37.38 149.36 36.5 151.54 36.5 153.81V155.51C36.5 158.24 37.95 160.75 40.31 162.12L100.93 197.12C103.69 198.71 107.08 198.71 109.84 197.11L114.71 194.29C119.59 191.46 124.12 188.09 128.24 184.23C137.31 175.71 154.62 159.88 167 151.12L167.01 151.11H167.02C167.06 151.08 167.11 151.04 167.16 151.01C167.17 151.07 167.19 151.12 167.2 151.18C168.48 151.67 176.72 154.7 182.42 153.18C187.84 151.74 192.77 149.02 193.92 148.36L194.18 148.21L211.14 138.21C211.14 138.21 216.86 133.71 216.86 130.09V88.5502C216.85 86.5602 215.79 84.7202 214.07 83.7302Z" fill="white"/>
<path d="M109.25 186.41C109.25 185.75 109.53 185.13 110.02 184.7C119.44 176.37 211.17 90.4804 211.17 90.4804C211.81 89.8804 212.85 90.3304 212.85 91.2104V130.1C212.75 130.97 210.76 133.36 208.85 134.92L191.9 144.92C191.04 145.41 186.37 148 181.37 149.34C180.65 149.53 179.79 149.63 178.8 149.63C177.61 149.63 176.37 149.49 175.18 149.28C172.55 148.82 170.52 146.7 170.11 144.06C170.11 144.06 139.86 166.01 127.97 178.68C124.25 182.64 117.4 188.13 112.7 190.86C111.17 191.75 109.26 190.64 109.26 188.88V186.41H109.25Z" fill="#BEDCE3"/>
<path d="M170.11 144.04C170.11 144.04 175.26 140.88 177.26 140.88C179.26 140.88 180.26 143.88 180.26 144.88C180.26 145.88 168.26 149.88 168.26 149.88L170.11 144.04Z" fill="white"/>
<path d="M167.14 153.01C166.51 153.01 165.89 152.72 165.5 152.16C164.86 151.26 165.08 150.01 165.98 149.37C171.2 145.69 175.02 143.62 177.67 143.04C178.75 142.81 179.81 143.49 180.05 144.57C180.28 145.65 179.6 146.71 178.52 146.95C177.09 147.26 174.15 148.5 168.29 152.64C167.94 152.89 167.54 153.01 167.14 153.01Z" fill="#231F20"/>
<path d="M55.8104 140.45L136.88 64.62C138.61 63 141.2 62.7 143.25 63.89L193.06 92.84C194.57 93.71 194.81 95.79 193.54 96.99L113.66 171.93C111.38 174.08 107.95 174.47 105.24 172.89L56.2304 144.18C54.8804 143.39 54.6704 141.52 55.8104 140.45Z" fill="#BEDCE3"/>
<path d="M105.37 200.32C103.49 200.32 101.6 199.84 99.9202 198.86L39.3002 163.86C36.3302 162.15 34.4902 158.95 34.4902 155.52V153.82C34.4902 150.83 35.7402 147.94 37.9302 145.9L53.1402 131.65C53.9502 130.89 55.2102 130.94 55.9702 131.74C56.7302 132.55 56.6802 133.81 55.8802 134.57L40.6702 148.82C39.2902 150.11 38.5002 151.94 38.5002 153.83V155.53C38.5002 157.53 39.5802 159.4 41.3102 160.41L101.93 195.41C104.06 196.64 106.71 196.64 108.83 195.4L113.7 192.58C118.44 189.83 122.87 186.54 126.86 182.79C136.06 174.16 153.33 158.38 165.76 149.56C165.81 149.52 165.86 149.49 165.91 149.45C165.95 149.42 165.99 149.39 165.99 149.39C166.56 148.99 167.29 148.91 167.92 149.19C168.13 149.28 168.31 149.4 168.48 149.54C170.59 150.3 177.33 152.48 181.89 151.26C187.14 149.86 192 147.16 192.92 146.64L193.17 146.49L210 136.56C212 134.96 214.86 131.86 214.86 130.09V88.5502C214.86 87.2802 214.18 86.1002 213.08 85.4602L150.9 49.5702C149.31 48.6502 147.34 48.8802 146 50.1302L81.8702 110.35C81.0602 111.11 79.8002 111.07 79.0402 110.26C78.2802 109.45 78.3202 108.19 79.1302 107.43L143.26 47.2102C145.9 44.7402 149.77 44.2902 152.9 46.1002L215.07 82.0002C217.4 83.3502 218.85 85.8602 218.85 88.5502V130.09C218.85 134.47 213.45 138.93 212.37 139.78C212.3 139.84 212.23 139.89 212.15 139.93L194.91 150.09C193.5 150.9 188.5 153.62 182.92 155.11C177.4 156.58 170.07 154.33 167.3 153.35C155.12 162.13 138.53 177.3 129.59 185.68C125.37 189.64 120.7 193.12 115.7 196.02L110.83 198.84C109.15 199.83 107.26 200.32 105.37 200.32Z" fill="#231F20"/>
<path d="M141.13 86.1903L128.13 78.9303C127.54 78.6003 127.44 77.7803 127.94 77.3203L139.11 67.0203C139.43 66.7303 139.9 66.6703 140.28 66.8803L153.28 74.1403C153.87 74.4703 153.97 75.2903 153.47 75.7503L142.3 86.0503C141.97 86.3503 141.5 86.4003 141.13 86.1903Z" fill="white"/>
<path d="M158.66 95.9901L145.66 88.7301C145.07 88.4001 144.97 87.5801 145.47 87.1201L156.64 76.8201C156.96 76.5301 157.43 76.4701 157.81 76.6801L170.81 83.9401C171.4 84.2701 171.5 85.0901 171 85.5501L159.83 95.8501C159.51 96.1401 159.04 96.2001 158.66 95.9901Z" fill="white"/>
<path d="M176.2 105.78L163.2 98.5202C162.61 98.1902 162.51 97.3702 163.01 96.9102L174.18 86.6102C174.5 86.3202 174.97 86.2602 175.35 86.4702L188.35 93.7302C188.94 94.0602 189.04 94.8802 188.54 95.3402L177.37 105.64C177.05 105.94 176.58 105.99 176.2 105.78Z" fill="white"/>
<path d="M126.09 100.05L113.09 92.7902C112.5 92.4602 112.4 91.6402 112.9 91.1802L124.07 80.8802C124.39 80.5902 124.86 80.5302 125.24 80.7402L138.24 88.0002C138.83 88.3302 138.93 89.1502 138.43 89.6102L127.26 99.9102C126.94 100.21 126.47 100.26 126.09 100.05Z" fill="white"/>
</g>
<defs>
<clipPath id="clip0_4687_9702">
<rect width="201.5" height="165.33" fill="white" transform="translate(27 45)"/>
</clipPath>
</defs>
</svg>
