<svg width="256" height="256" viewBox="0 0 256 256" fill="none" xmlns="http://www.w3.org/2000/svg">
<g clip-path="url(#clip0_11857_457)">
<path d="M217.72 182.88C217.9 183.19 217.78 183.59 217.47 183.77L205.14 190.68C204.21 191.2 203.07 191.19 202.15 190.66L160.9 166.56C160.78 166.49 160.68 166.39 160.61 166.27C160.41 165.91 160.54 165.46 160.9 165.26L172.97 158.03C173.58 157.67 174.33 157.66 174.95 158.01L217.48 182.64C217.58 182.7 217.66 182.78 217.72 182.88Z" fill="#BEDCE3"/>
<path d="M92.5 201.86L162.84 167.63L158.84 149.14L130.47 152.95L92.5 201.86Z" fill="#BEDCE3"/>
<path d="M163.59 160.1C156.41 163.85 149.39 163.82 142.51 160.18L163.59 160.1Z" fill="white"/>
<path fill-rule="evenodd" clip-rule="evenodd" d="M164.476 159.637C164.732 160.127 164.542 160.731 164.053 160.987C156.587 164.886 149.219 164.861 142.042 161.064C141.554 160.806 141.368 160.201 141.626 159.713C141.884 159.224 142.489 159.038 142.978 159.296C149.561 162.779 156.233 162.815 163.127 159.214C163.617 158.958 164.221 159.148 164.476 159.637Z" fill="#231F20"/>
<path d="M38.0198 152.92L113.9 74.25C114.42 73.71 115.25 73.6 115.9 73.98L164.44 102.83C165.2 103.29 165.45 104.29 164.98 105.06C164.92 105.16 164.85 105.25 164.77 105.34L88.7798 183.4C88.2598 183.93 87.4498 184.05 86.8098 183.67L38.3798 155.44C37.6098 154.98 37.3598 153.99 37.8198 153.22C37.8698 153.1 37.9398 153.01 38.0198 152.92Z" fill="white"/>
<path fill-rule="evenodd" clip-rule="evenodd" d="M115.393 74.8419C115.136 74.693 114.815 74.7418 114.62 74.9436L38.7555 153.598C38.7485 153.606 38.7433 153.612 38.7393 153.617C38.738 153.619 38.7368 153.62 38.7359 153.621C38.7191 153.66 38.6999 153.697 38.6784 153.733C38.5026 154.027 38.5958 154.402 38.8894 154.579C38.8905 154.58 38.8917 154.581 38.8928 154.581L87.3136 182.806L87.3205 182.81C87.5498 182.946 87.8561 182.913 88.0652 182.701C88.0655 182.7 88.0658 182.7 88.0662 182.7L164.036 104.66C164.08 104.61 164.105 104.574 164.122 104.545L164.126 104.539C164.307 104.244 164.21 103.862 163.925 103.687C163.924 103.687 163.923 103.686 163.922 103.685L115.395 74.8432C115.394 74.8428 115.394 74.8423 115.393 74.8419ZM113.18 73.5557C114.025 72.6786 115.362 72.5073 116.405 73.1166L116.411 73.1203L164.958 101.974C166.189 102.72 166.592 104.335 165.835 105.578C165.735 105.745 165.624 105.884 165.517 106.004C165.507 106.016 165.497 106.027 165.487 106.037L89.4965 184.097L89.4938 184.1C88.6637 184.946 87.3526 185.153 86.3027 184.532C86.3016 184.531 86.3005 184.53 86.2994 184.53L37.8671 156.298C36.6424 155.567 36.2305 154 36.9284 152.764C37.0372 152.531 37.1743 152.366 37.2726 152.256C37.2816 152.245 37.2908 152.235 37.3002 152.226L113.18 73.5557Z" fill="#231F20"/>
<path d="M175.19 121.19L100.57 195.77C92.3 203.9 79.65 205.56 69.56 199.86C53.92 191.02 32.41 178.8 26.63 175.46C24.36 174.14 20 170.41 20 161.55" fill="white"/>
<path fill-rule="evenodd" clip-rule="evenodd" d="M175.897 120.483C176.288 120.874 176.288 121.507 175.897 121.897L101.277 196.477L101.271 196.483C92.6826 204.926 79.5459 206.65 69.0681 200.731L69.0679 200.73C53.4287 191.891 31.9145 179.669 26.1297 176.326L26.1273 176.324C23.5976 174.853 19 170.818 19 161.55C19 160.998 19.4477 160.55 20 160.55C20.5523 160.55 21 160.998 21 161.55C21 169.999 25.1202 173.425 27.131 174.594C32.9071 177.932 54.4117 190.149 70.0519 198.989C79.7529 204.47 91.9143 202.874 99.8659 195.06C99.8669 195.059 99.8679 195.058 99.869 195.057L174.483 120.483C174.874 120.092 175.507 120.092 175.897 120.483Z" fill="#231F20"/>
<path d="M27.1101 167.26L21.9001 164.24C20.1001 163.21 19.4901 160.91 20.5201 159.11C20.6801 158.83 20.8701 158.58 21.1001 158.35L118.35 59.25C119.9 57.67 122.32 57.34 124.24 58.43L179.16 89.58C184.79 93.33 186.51 97.22 187.4 101.19C189.38 110.03 195.11 137.65 195.11 137.65C197.06 143.53 195.49 148.38 190 151.63L166.73 165.08C155.43 171.58 145.55 169.25 134.26 162.73" fill="white"/>
<path fill-rule="evenodd" clip-rule="evenodd" d="M123.746 59.2996C122.218 58.4319 120.294 58.6961 119.064 59.9502L21.8072 159.057C21.6409 159.223 21.5048 159.402 21.3883 159.606C20.6289 160.933 21.0825 162.62 22.3967 163.372L22.4015 163.375L27.6115 166.395C28.0893 166.672 28.2522 167.284 27.9752 167.761C27.6982 168.239 27.0864 168.402 26.6085 168.125L21.4034 165.108C21.4025 165.107 21.4016 165.107 21.4007 165.106C19.1171 163.798 18.3521 160.886 19.6518 158.614C19.8544 158.259 20.0972 157.939 20.3893 157.647C20.3905 157.645 20.3917 157.644 20.3929 157.643L117.636 58.5496C119.506 56.6438 122.422 56.2479 124.734 57.5603L179.653 88.7101C179.674 88.7219 179.695 88.7344 179.714 88.7477C182.627 90.6874 184.569 92.6919 185.899 94.7618C187.228 96.8306 187.915 98.9171 188.376 100.971C189.368 105.399 191.297 114.522 192.976 122.53C193.816 126.535 194.595 130.264 195.163 132.992C195.447 134.356 195.678 135.47 195.839 136.242L196.078 137.391C197.086 140.463 197.21 143.361 196.287 145.961C195.358 148.581 193.41 150.774 190.509 152.49L190.5 152.496L167.23 165.946L167.229 165.947C161.408 169.295 155.902 170.391 150.381 169.781C144.891 169.175 139.459 166.887 133.76 163.596C133.282 163.32 133.118 162.708 133.394 162.23C133.67 161.752 134.282 161.588 134.76 161.864C140.351 165.093 145.504 167.23 150.601 167.793C155.668 168.353 160.751 167.365 166.23 164.214M166.231 164.213L189.491 150.769C189.492 150.768 189.494 150.767 189.496 150.767C192.082 149.234 193.663 147.378 194.403 145.292C195.145 143.199 195.085 140.752 194.161 137.965C194.149 137.928 194.139 137.891 194.131 137.853L194.23 137.832C194.131 137.853 194.131 137.853 194.131 137.853L194.131 137.852L193.881 136.649C193.72 135.877 193.489 134.764 193.205 133.4C192.637 130.673 191.859 126.945 191.019 122.94C189.338 114.928 187.412 105.821 186.424 101.409C185.995 99.4928 185.377 97.6493 184.216 95.843C183.061 94.0445 181.336 92.2357 178.635 90.432L123.746 59.2996" fill="#231F20"/>
<path d="M171.47 89.1597L178.92 93.8197C181.35 95.3297 182.09 98.5297 180.57 100.96C180.38 101.27 180.15 101.56 179.9 101.82L94.2298 190.42C88.2898 196.27 79.1698 197.43 71.9598 193.25L33.0498 170.72" fill="white"/>
<path fill-rule="evenodd" clip-rule="evenodd" d="M170.622 88.6295C170.915 88.1613 171.532 88.0191 172 88.312L179.448 92.9704C179.448 92.9705 179.448 92.9703 179.448 92.9704C182.348 94.7728 183.23 98.5895 181.42 101.487C181.188 101.864 180.914 102.208 180.621 102.513L180.619 102.515L94.9489 191.115L94.9317 191.132C88.671 197.298 79.0585 198.521 71.4584 194.115L32.5489 171.585C32.0709 171.308 31.9078 170.697 32.1846 170.219C32.4613 169.741 33.0731 169.578 33.5511 169.854L72.4611 192.384C79.2775 196.336 87.9001 195.243 93.5196 189.716L179.179 101.127C179.385 100.912 179.569 100.679 179.717 100.437L179.722 100.429C180.949 98.4675 180.351 95.8863 178.392 94.6692L170.94 90.0076C170.471 89.7147 170.329 89.0977 170.622 88.6295Z" fill="#231F20"/>
<path d="M167.41 56.9097C169.39 57.8197 169.59 59.7597 171.64 60.6997C173.69 61.6397 173.52 59.7097 175.58 60.6597C177.64 61.6097 177.83 63.5397 179.84 64.4797C181.93 65.4397 181.88 63.5897 183.85 64.4797C185.82 65.3697 186.02 67.3297 188.07 68.2697C188.3 68.3797 177.74 67.6397 172.85 74.1097C170.18 77.2397 166.86 82.1997 166.86 82.1997" fill="white"/>
<path fill-rule="evenodd" clip-rule="evenodd" d="M166.501 56.4923C166.732 55.9905 167.326 55.7706 167.828 56.0013C169.034 56.5558 169.708 57.429 170.245 58.1236C170.26 58.1432 170.275 58.1627 170.29 58.182C170.845 58.9002 171.278 59.4337 172.057 59.7909C172.455 59.9734 172.644 59.9713 172.72 59.9628C172.814 59.9523 172.894 59.9201 173.143 59.7899C173.152 59.7853 173.161 59.7806 173.17 59.7758C173.398 59.6561 173.779 59.4564 174.277 59.4032C174.811 59.3462 175.371 59.4621 175.999 59.7518C177.26 60.3333 177.95 61.2255 178.502 61.9391L178.52 61.9616C179.083 62.6897 179.502 63.2172 180.26 63.5726C180.67 63.7601 180.886 63.771 180.995 63.7627C181.115 63.7534 181.22 63.7155 181.467 63.6002C181.481 63.5936 181.495 63.5867 181.511 63.5794C181.74 63.4718 182.113 63.2961 182.578 63.2453C183.1 63.1883 183.647 63.2909 184.262 63.5686C185.469 64.1142 186.144 64.9924 186.678 65.6885C186.693 65.7081 186.708 65.7275 186.723 65.7467C187.278 66.4684 187.71 67.0046 188.487 67.3609L188.501 67.3678C188.502 67.368 188.503 67.3683 188.504 67.3688C188.53 67.381 188.755 67.4837 188.915 67.7321C189.024 67.9022 189.121 68.1742 189.049 68.4941C188.983 68.7864 188.809 68.9634 188.711 69.0448C188.543 69.1832 188.372 69.23 188.341 69.2386C188.34 69.2389 188.339 69.2392 188.338 69.2394C188.28 69.2555 188.233 69.2632 188.21 69.2667C188.133 69.2784 188.056 69.2809 188.027 69.2819L188.024 69.282C187.954 69.2843 187.854 69.2853 187.745 69.2865C187.728 69.2866 187.711 69.2868 187.693 69.287C187.421 69.2899 187.022 69.2951 186.522 69.3179C185.521 69.3636 184.122 69.4796 182.574 69.7859C179.446 70.4047 175.874 71.7668 173.648 74.7129C173.636 74.7286 173.624 74.7439 173.611 74.7589C172.305 76.2901 170.827 78.2841 169.668 79.9094C169.09 80.7192 168.595 81.432 168.245 81.9422C168.07 82.1972 167.931 82.4013 167.836 82.5414C167.788 82.6115 167.752 82.6655 167.727 82.7019L167.7 82.7429L167.691 82.7555C167.384 83.2145 166.763 83.3381 166.304 83.0309C165.845 82.7237 165.722 82.1026 166.029 81.6437L166.86 82.1999C166.029 81.6437 166.029 81.6437 166.029 81.6437L166.068 81.585C166.094 81.5472 166.131 81.4916 166.18 81.4199C166.277 81.2765 166.418 81.0688 166.596 80.8098C166.952 80.2922 167.454 79.5694 168.04 78.7479C169.202 77.1183 170.711 75.0787 172.07 73.4831C174.734 69.9762 178.877 68.4786 182.186 67.8239C183.401 67.5835 184.526 67.4523 185.46 67.3798C185.353 67.2459 185.252 67.115 185.156 66.9899L185.137 66.9656C184.574 66.2329 184.167 65.7203 183.438 65.3912C183.068 65.2239 182.882 65.224 182.795 65.2335C182.681 65.2459 182.585 65.2851 182.313 65.4122L182.303 65.4172C182.054 65.5334 181.66 65.7176 181.148 65.7568C180.617 65.7975 180.057 65.6798 179.423 65.3886L179.416 65.3858C178.198 64.8162 177.521 63.9404 176.98 63.2406C176.966 63.2222 176.952 63.2039 176.938 63.1857C176.38 62.4654 175.947 61.9304 175.161 61.568C174.759 61.3827 174.567 61.3836 174.49 61.3919C174.396 61.4019 174.316 61.4337 174.069 61.5625C174.06 61.5675 174.05 61.5728 174.039 61.5783C173.813 61.697 173.434 61.8956 172.941 61.9505C172.409 62.0098 171.85 61.8964 171.223 61.6089C169.965 61.032 169.274 60.1379 168.724 59.427C168.719 59.4197 168.713 59.4125 168.708 59.4053C168.144 58.6762 167.732 58.1584 166.992 57.8185C166.491 57.5879 166.271 56.9941 166.501 56.4923Z" fill="#231F20"/>
<path d="M167.41 56.9099C165.32 55.9499 165.53 57.8899 163.47 56.9499C161.41 56.0099 161.22 54.0699 159.25 53.1599C159.25 53.1599 149.38 50.5699 139.13 66.8699" fill="white"/>
<path fill-rule="evenodd" clip-rule="evenodd" d="M159.502 52.1922C159.503 52.1924 159.504 52.1926 159.25 53.1599L159.504 52.1926C159.561 52.2076 159.616 52.2274 159.669 52.2521C160.867 52.8055 161.537 53.6764 162.068 54.3682C162.085 54.3902 162.102 54.4121 162.119 54.4337C162.67 55.1497 163.102 55.6829 163.885 56.0401C164.287 56.2235 164.475 56.22 164.547 56.2117C164.636 56.2015 164.712 56.171 164.96 56.0391C164.968 56.035 164.976 56.0307 164.984 56.0263C165.212 55.9048 165.594 55.7017 166.098 55.6488C166.633 55.5926 167.195 55.7106 167.827 56.0012C168.329 56.2317 168.549 56.8254 168.319 57.3273C168.088 57.8292 167.494 58.0491 166.993 57.8186C166.58 57.6292 166.385 57.6297 166.307 57.6379C166.216 57.6474 166.139 57.6775 165.898 57.8057C165.887 57.8111 165.877 57.8169 165.866 57.8228C165.643 57.9417 165.266 58.1424 164.775 58.1987C164.242 58.2598 163.683 58.1463 163.055 57.8597C161.786 57.2806 161.094 56.3818 160.545 55.6675L160.534 55.6536C159.995 54.9535 159.599 54.4508 158.922 54.1118C158.867 54.101 158.783 54.0864 158.673 54.0715C158.427 54.0385 158.05 54.0045 157.559 54.0098C156.578 54.0206 155.139 54.1883 153.381 54.84C149.879 56.1388 145.009 59.3994 139.977 67.4022C139.683 67.8698 139.065 68.0104 138.598 67.7164C138.13 67.4224 137.989 66.8051 138.283 66.3376C143.501 58.0404 148.691 54.446 152.686 52.9648C154.677 52.2265 156.346 52.023 157.537 52.01C158.131 52.0035 158.605 52.0444 158.939 52.0894C159.106 52.1118 159.238 52.1353 159.333 52.1543C159.381 52.1638 159.419 52.1722 159.447 52.1788L159.483 52.1873L159.495 52.1904L159.5 52.1916L159.502 52.1922Z" fill="#231F20"/>
<path fill-rule="evenodd" clip-rule="evenodd" d="M164.476 159.637C164.732 160.127 164.542 160.731 164.053 160.987C156.587 164.886 149.219 164.861 142.042 161.064C141.554 160.806 141.368 160.201 141.626 159.713C141.884 159.224 142.489 159.038 142.978 159.296C149.561 162.779 156.233 162.815 163.127 159.214C163.617 158.958 164.221 159.148 164.476 159.637Z" fill="#231F20"/>
<path fill-rule="evenodd" clip-rule="evenodd" d="M115.393 74.8418C115.136 74.693 114.815 74.7418 114.621 74.9436L38.74 153.624L38.7273 153.637C38.7304 153.634 38.7252 153.639 38.7128 153.656C38.7008 153.672 38.6858 153.694 38.6682 153.724C38.493 154.018 38.5862 154.392 38.8796 154.569C38.8808 154.57 38.8819 154.571 38.8831 154.571L87.3038 182.796L87.3108 182.8C87.54 182.936 87.8464 182.903 88.0554 182.691C88.0558 182.69 88.0561 182.69 88.0564 182.69L164.026 104.65C164.07 104.6 164.095 104.564 164.113 104.535L164.117 104.529C164.297 104.234 164.2 103.852 163.915 103.677C163.914 103.677 163.913 103.676 163.912 103.675L124.94 80.5297C124.465 80.2477 124.308 79.6342 124.59 79.1593C124.872 78.6845 125.486 78.5281 125.961 78.8101L164.948 101.964C166.18 102.71 166.582 104.325 165.826 105.568C165.725 105.735 165.614 105.874 165.508 105.994C165.498 106.006 165.487 106.017 165.477 106.027L89.4868 184.087L89.484 184.09C88.654 184.936 87.3428 185.143 86.293 184.522C86.2919 184.521 86.2908 184.52 86.2897 184.52L37.8573 156.288C36.6137 155.546 36.2082 153.942 36.9517 152.697L36.9527 152.695C37.0321 152.563 37.1481 152.39 37.3055 152.23L113.18 73.5563C114.025 72.6787 115.362 72.5072 116.405 73.1166L116.412 73.1208L120.692 75.6709C121.167 75.9535 121.322 76.5673 121.039 77.0418C120.757 77.5162 120.143 77.6717 119.668 77.389L115.396 74.8432C115.395 74.8427 115.394 74.8423 115.393 74.8418Z" fill="#231F20"/>
<path fill-rule="evenodd" clip-rule="evenodd" d="M175.897 120.483C176.288 120.874 176.288 121.507 175.897 121.897L101.277 196.477L101.271 196.483C92.6826 204.926 79.5459 206.65 69.0681 200.731L69.0679 200.73C53.4287 191.891 31.9145 179.669 26.1297 176.326L26.1273 176.324C23.5976 174.853 19 170.818 19 161.55C19 160.998 19.4477 160.55 20 160.55C20.5523 160.55 21 160.998 21 161.55C21 169.999 25.1202 173.425 27.131 174.594C32.9071 177.932 54.4117 190.149 70.0519 198.989C79.7529 204.47 91.9143 202.874 99.8659 195.06C99.8669 195.059 99.8679 195.058 99.869 195.057L174.483 120.483C174.874 120.092 175.507 120.092 175.897 120.483Z" fill="#231F20"/>
<path d="M191.227 66.6129C190.777 64.9769 188.777 63.4729 186.627 62.4829C185.277 61.8629 184.787 62.4229 184.057 62.6729C183.756 62.7669 183.438 62.7967 183.125 62.7606C182.811 62.7244 182.509 62.623 182.237 62.4629C180.047 61.4629 179.867 59.3529 177.587 58.3029C175.307 57.2529 175.527 59.3729 173.297 58.3029C172.564 57.9526 171.921 57.4396 171.417 56.8029C170.735 55.7104 169.794 54.8035 168.677 54.1629C168.35 53.959 167.972 53.8509 167.587 53.8509C167.201 53.8509 166.824 53.959 166.497 54.1629H164.377C162.137 53.1629 161.927 51.0229 159.767 50.0229C159.767 50.0229 148.804 48.1616 137.584 65.9816L167.568 82.9681C170.295 78.7122 171.773 75.4062 175.794 72.2218C181.55 67.6628 187.474 70.2055 191.227 66.6129Z" fill="#BEDCE3"/>
<path fill-rule="evenodd" clip-rule="evenodd" d="M159.932 49.0367C159.933 49.0368 159.934 49.037 159.767 50.0229L159.934 49.037C160.021 49.0518 160.106 49.0782 160.187 49.1154C161.478 49.713 162.199 50.6545 162.78 51.4125C162.799 51.4365 162.817 51.4604 162.835 51.484C163.395 52.2131 163.848 52.7764 164.603 53.1629H166.241C166.658 52.9582 167.119 52.8509 167.587 52.8509C168.153 52.8509 168.707 53.0078 169.189 53.304C170.425 54.0161 171.47 55.0176 172.233 56.2221C172.637 56.7209 173.148 57.1235 173.728 57.4006L173.729 57.4013C174.177 57.6159 174.396 57.6205 174.491 57.6113C174.601 57.6006 174.694 57.5628 174.961 57.4235C174.97 57.4187 174.98 57.4137 174.989 57.4087C175.236 57.2796 175.638 57.0698 176.166 57.0156C176.728 56.9579 177.324 57.081 178.005 57.3946C179.379 58.0272 180.122 58.9919 180.724 59.773L180.738 59.7914C181.35 60.5861 181.809 61.1683 182.652 61.5532C182.684 61.5676 182.714 61.5836 182.744 61.6012C182.896 61.6904 183.064 61.747 183.239 61.7671C183.409 61.7868 183.582 61.7715 183.746 61.7222C183.841 61.6886 183.929 61.648 184.064 61.5855C184.093 61.572 184.125 61.5575 184.159 61.5419C184.338 61.4598 184.582 61.3513 184.871 61.2804C185.511 61.1236 186.202 61.1876 187.044 61.5741L187.045 61.5745C188.181 62.0975 189.302 62.7669 190.214 63.5451C191.111 64.3109 191.891 65.2556 192.191 66.3478C192.288 66.702 192.184 67.0811 191.918 67.3352C189.896 69.2717 187.315 69.6348 184.876 69.9779C184.718 70.0001 184.561 70.0223 184.404 70.0448C181.758 70.4247 179.07 70.9027 176.415 73.0058C173.366 75.42 171.882 77.8555 170.006 80.9343C169.513 81.7438 168.993 82.5978 168.41 83.5076C168.123 83.9548 167.537 84.1 167.075 83.8382L137.091 66.8517C136.853 66.717 136.681 66.4908 136.614 66.2258C136.548 65.9608 136.592 65.6801 136.738 65.4488C142.437 56.3963 148.131 52.2543 152.491 50.3995C154.667 49.4742 156.492 49.1266 157.792 49.0142C158.442 48.9581 158.96 48.9607 159.324 48.9789C159.506 48.988 159.649 49.001 159.752 49.0125C159.803 49.0182 159.844 49.0236 159.875 49.0279C159.89 49.03 159.903 49.0319 159.913 49.0335L159.925 49.0355L159.93 49.0363L159.932 49.0367ZM159.479 50.9948C159.416 50.9887 159.331 50.9818 159.224 50.9764C158.945 50.9625 158.518 50.959 157.965 51.0068C156.859 51.1023 155.242 51.4031 153.274 52.24C149.483 53.8525 144.318 57.487 138.996 65.6322L167.231 81.6281C167.574 81.0787 167.901 80.54 168.223 80.011C170.125 76.8818 171.821 74.0928 175.173 71.4379C178.274 68.982 181.427 68.4518 184.12 68.0651C184.215 68.0515 184.309 68.038 184.402 68.0247C186.744 67.6898 188.562 67.4299 190.024 66.3262C189.793 65.9274 189.424 65.5008 188.915 65.0662C188.177 64.4359 187.223 63.8584 186.209 63.3914C185.701 63.1582 185.473 63.1921 185.347 63.2229C185.254 63.2457 185.155 63.2853 184.994 63.3592C184.974 63.3685 184.952 63.3788 184.928 63.3899C184.787 63.4553 184.589 63.5475 184.381 63.6189C184.372 63.6219 184.363 63.6247 184.355 63.6275C183.92 63.763 183.462 63.8061 183.01 63.754C182.576 63.7039 182.156 63.567 181.776 63.3517C180.492 62.7515 179.779 61.8253 179.199 61.0715C179.184 61.0515 179.169 61.0316 179.153 61.0119C178.55 60.2288 178.064 59.6235 177.168 59.2112C176.709 58.9997 176.478 58.9941 176.37 59.0051C176.249 59.0176 176.15 59.0594 175.885 59.1973C175.875 59.2025 175.865 59.2078 175.854 59.2133C175.609 59.3413 175.208 59.5511 174.684 59.6019C174.122 59.6564 173.533 59.525 172.866 59.2051C171.995 58.7892 171.232 58.1798 170.633 57.4237C170.61 57.3944 170.588 57.3639 170.568 57.3323C169.974 56.3797 169.153 55.5889 168.179 55.0303C168.169 55.0242 168.158 55.0179 168.148 55.0114C167.979 54.9065 167.785 54.8509 167.587 54.8509C167.388 54.8509 167.194 54.9065 167.026 55.0114C166.867 55.1104 166.684 55.1629 166.497 55.1629H164.377C164.236 55.1629 164.097 55.1333 163.969 55.076C162.602 54.4659 161.858 53.4958 161.258 52.7135L161.248 52.7017C160.668 51.9448 160.225 51.3784 159.479 50.9948Z" fill="#231F20"/>
<path d="M196.36 134.23L184.1 127.05C183.63 126.78 183.06 126.78 182.59 127.05L167.62 135.76C167.16 136.03 166.87 136.52 166.87 137.06V144.09C166.87 144.5 167.09 144.87 167.44 145.08L179.22 151.9" fill="white"/>
<path fill-rule="evenodd" clip-rule="evenodd" d="M182.092 126.183C182.87 125.735 183.82 125.735 184.598 126.183L184.606 126.187L196.865 133.367C197.342 133.646 197.502 134.258 197.223 134.735C196.944 135.212 196.331 135.372 195.855 135.093L183.599 127.915C183.439 127.824 183.25 127.824 183.09 127.916C183.089 127.916 183.089 127.916 183.088 127.917L168.126 136.622C168.126 136.622 168.125 136.623 168.125 136.623C167.963 136.718 167.87 136.884 167.87 137.06V144.09C167.87 144.131 167.89 144.182 167.951 144.22L179.721 151.034C180.199 151.311 180.362 151.923 180.086 152.401C179.809 152.879 179.197 153.042 178.719 152.765L166.939 145.945L166.926 145.937C166.289 145.555 165.87 144.868 165.87 144.09V137.06C165.87 136.155 166.356 135.342 167.114 134.897L167.117 134.895L182.092 126.183Z" fill="black"/>
<path fill-rule="evenodd" clip-rule="evenodd" d="M167.984 137.979C168.261 137.501 168.873 137.338 169.351 137.615L179.901 143.725C180.379 144.002 180.542 144.613 180.265 145.091C179.988 145.569 179.377 145.732 178.899 145.455L168.349 139.345C167.871 139.069 167.708 138.457 167.984 137.979Z" fill="black"/>
<path d="M235.22 163.54V154.58C235.22 154.44 235.18 154.3 235.11 154.18C234.89 153.8 234.4 153.67 234.02 153.89L215.82 164.49C215.27 164.81 214.93 165.4 214.93 166.03V174.37C214.93 174.56 214.98 174.75 215.08 174.91C215.38 175.42 216.03 175.59 216.55 175.29L234.52 164.68C234.94 164.45 235.21 164.01 235.22 163.54Z" fill="white"/>
<path fill-rule="evenodd" clip-rule="evenodd" d="M233.519 153.024C234.375 152.529 235.477 152.819 235.975 153.677C236.129 153.942 236.22 154.254 236.22 154.58V163.54L236.22 163.561C236.202 164.39 235.734 165.148 235.017 165.548L217.05 176.156C216.065 176.724 214.81 176.409 214.225 175.428C214.022 175.098 213.93 174.726 213.93 174.37V166.03C213.93 165.041 214.462 164.124 215.317 163.626C215.317 163.626 215.317 163.626 215.317 163.626L233.517 153.026L233.519 153.024ZM234.22 154.931L216.323 165.354C216.079 165.496 215.93 165.759 215.93 166.03V174.37C215.93 174.377 215.931 174.382 215.932 174.386C215.935 174.391 215.939 174.397 215.942 174.403C215.954 174.422 215.968 174.431 215.984 174.436C216 174.44 216.021 174.44 216.048 174.425L234.012 163.819C234.021 163.813 234.03 163.808 234.04 163.803C234.151 163.742 234.215 163.628 234.22 163.525V154.931Z" fill="black"/>
<path d="M234.77 153.86L199.61 133.48C199.06 133.16 198.38 133.16 197.83 133.48L180.12 143.79C179.57 144.11 179.23 144.7 179.23 145.33V153.65C179.23 154.13 179.49 154.58 179.9 154.82L215.44 175.27" fill="white"/>
<path fill-rule="evenodd" clip-rule="evenodd" d="M200.113 132.616C200.113 132.616 200.113 132.615 200.113 132.616L235.271 152.995C235.749 153.272 235.912 153.884 235.635 154.361C235.358 154.839 234.746 155.002 234.269 154.725L199.107 134.344C198.868 134.205 198.572 134.205 198.333 134.344C198.333 134.344 198.333 134.344 198.333 134.344L180.623 144.654C180.379 144.796 180.23 145.059 180.23 145.33V153.65C180.23 153.773 180.3 153.894 180.403 153.956C180.404 153.956 180.404 153.957 180.405 153.957L215.939 174.403C216.417 174.679 216.582 175.29 216.307 175.769C216.031 176.247 215.42 176.412 214.941 176.137L179.395 155.683C178.679 155.264 178.23 154.486 178.23 153.65V145.33C178.23 144.341 178.762 143.423 179.617 142.926C179.617 142.926 179.617 142.926 179.617 142.926L197.327 132.616C198.188 132.115 199.252 132.115 200.113 132.616Z" fill="black"/>
<path fill-rule="evenodd" clip-rule="evenodd" d="M180.683 146.522C180.959 146.043 181.57 145.878 182.049 146.153L213.219 164.083C213.697 164.359 213.862 164.97 213.587 165.449C213.311 165.928 212.7 166.092 212.221 165.817L181.051 147.887C180.573 147.612 180.408 147 180.683 146.522Z" fill="black"/>
<path d="M188.16 133.04L184.5 135.15L180.84 133.04L184.5 130.93L188.16 133.04Z" fill="white"/>
<path fill-rule="evenodd" clip-rule="evenodd" d="M184 130.063C184.31 129.885 184.69 129.885 184.999 130.063L188.659 132.173C188.969 132.352 189.16 132.682 189.16 133.04C189.16 133.397 188.969 133.727 188.659 133.906L184.999 136.016C184.69 136.194 184.31 136.194 184 136.016L180.34 133.906C180.031 133.727 179.84 133.397 179.84 133.04C179.84 132.682 180.031 132.352 180.34 132.173L184 130.063ZM182.842 133.04L184.5 133.995L186.158 133.04L184.5 132.084L182.842 133.04Z" fill="black"/>
<path d="M181.45 137L177.79 139.11L174.13 137L177.79 134.88L181.45 137Z" fill="white"/>
<path fill-rule="evenodd" clip-rule="evenodd" d="M177.289 134.015C177.599 133.835 177.981 133.835 178.291 134.015L181.951 136.135C182.26 136.314 182.45 136.644 182.45 137.001C182.45 137.358 182.259 137.688 181.949 137.866L178.289 139.976C177.98 140.154 177.6 140.154 177.29 139.976L173.63 137.866C173.321 137.688 173.13 137.358 173.13 137.001C173.13 136.644 173.32 136.314 173.629 136.135L177.289 134.015ZM177.79 136.036L176.129 136.998L177.79 137.956L179.451 136.998L177.79 136.036Z" fill="black"/>
<path d="M224.18 152.89C224.29 153.1 224.21 153.36 224 153.47L215.91 157.99C215.3 158.33 214.56 158.32 213.95 157.97L191.14 144.64C191.07 144.6 191.01 144.54 190.97 144.47C190.83 144.24 190.91 143.93 191.14 143.79L199.05 139.05C199.45 138.81 199.95 138.81 200.35 139.05L224 152.72C224.08 152.75 224.15 152.81 224.18 152.89Z" fill="white"/>
<path fill-rule="evenodd" clip-rule="evenodd" d="M199.836 139.908C199.753 139.858 199.648 139.858 199.565 139.908L192.386 144.21L214.451 157.104C214.762 157.282 215.127 157.282 215.423 157.117L222.636 153.087L199.85 139.916L199.836 139.908ZM200.857 138.188C200.142 137.763 199.25 137.764 198.536 138.192C198.536 138.192 198.536 138.192 198.536 138.192L190.626 142.932L190.62 142.936C189.936 143.352 189.683 144.264 190.109 144.979C190.237 145.196 190.42 145.379 190.639 145.505L213.446 158.833L213.453 158.837C214.36 159.358 215.474 159.378 216.397 158.864L224.479 154.348C225.155 153.984 225.415 153.157 225.091 152.477C224.951 152.154 224.7 151.944 224.454 151.827L200.857 138.188Z" fill="black"/>
<path fill-rule="evenodd" clip-rule="evenodd" d="M233.519 153.024C234.375 152.529 235.477 152.819 235.975 153.677C236.129 153.942 236.22 154.254 236.22 154.58V163.54L236.22 163.561C236.202 164.39 235.734 165.148 235.017 165.548L217.05 176.156C216.065 176.724 214.81 176.409 214.225 175.428C214.022 175.098 213.93 174.726 213.93 174.37V166.03C213.93 165.041 214.462 164.124 215.317 163.626C215.317 163.626 215.317 163.626 215.317 163.626L233.517 153.026L233.519 153.024ZM234.22 154.931L216.323 165.354C216.079 165.496 215.93 165.759 215.93 166.03V174.37C215.93 174.377 215.931 174.382 215.932 174.386C215.935 174.391 215.939 174.397 215.942 174.403C215.954 174.422 215.968 174.431 215.984 174.436C216 174.44 216.021 174.44 216.048 174.425L234.012 163.819C234.021 163.813 234.03 163.808 234.04 163.803C234.151 163.742 234.215 163.628 234.22 163.525V154.931Z" fill="black"/>
<path fill-rule="evenodd" clip-rule="evenodd" d="M230.485 151.389C230.762 150.911 231.373 150.748 231.851 151.025L235.271 153.005C235.749 153.282 235.912 153.893 235.636 154.371C235.359 154.849 234.747 155.012 234.269 154.736L230.849 152.756C230.371 152.479 230.208 151.867 230.485 151.389Z" fill="black"/>
<path fill-rule="evenodd" clip-rule="evenodd" d="M200.075 145.499C201.516 144.196 203.376 143.48 205.31 143.48C205.707 143.48 206.092 143.578 206.438 143.759C206.591 143.83 206.689 143.941 206.74 144.01C206.746 144.017 206.751 144.025 206.756 144.033C206.925 144.286 206.994 144.594 206.943 144.901C206.87 145.356 206.582 145.769 206.156 145.986C205.169 146.607 204.06 147.006 202.902 147.175C202.629 147.215 202.375 147.025 202.335 146.752C202.295 146.479 202.485 146.225 202.758 146.185C203.791 146.035 204.774 145.678 205.642 145.128C205.658 145.117 205.675 145.108 205.693 145.1C205.83 145.033 205.931 144.895 205.956 144.74L205.957 144.738C205.963 144.701 205.959 144.665 205.947 144.631C205.748 144.532 205.532 144.48 205.31 144.48C203.625 144.48 202.005 145.103 200.747 146.239C200.548 146.423 200.395 146.64 200.306 146.87C200.301 146.885 200.294 146.9 200.287 146.914C200.202 147.085 200.208 147.296 200.302 147.459C200.308 147.468 200.313 147.477 200.317 147.486C200.34 147.531 200.376 147.577 200.457 147.667C200.556 147.744 200.685 147.782 200.823 147.771C200.835 147.77 200.848 147.77 200.86 147.77C201.826 147.77 202.721 147.484 203.703 147.17C203.754 147.153 203.806 147.136 203.858 147.12C204.872 146.796 205.98 146.461 207.211 146.55C207.587 146.558 207.928 146.768 208.102 147.096C208.198 147.277 208.173 147.498 208.041 147.654C207.696 148.059 207.241 148.334 206.876 148.555C206.783 148.611 206.695 148.664 206.616 148.715C206.325 148.903 206.088 149.093 205.918 149.365C206.361 149.32 206.779 149.191 207.246 149.048C207.387 149.004 207.533 148.959 207.685 148.915C208.336 148.725 209.074 148.56 209.888 148.73C210.094 148.77 210.237 148.895 210.322 148.997C210.412 149.104 210.474 149.229 210.513 149.347C210.551 149.464 210.575 149.603 210.564 149.746C210.553 149.882 210.503 150.084 210.329 150.236L210.323 150.242L210.323 150.242C210.174 150.368 210.017 150.463 209.879 150.54C209.822 150.572 209.772 150.6 209.725 150.625C209.66 150.66 209.603 150.692 209.542 150.728C209.638 150.71 209.734 150.692 209.833 150.673C209.89 150.662 209.948 150.651 210.006 150.64C210.332 150.579 210.68 150.519 211.038 150.491C211.763 150.436 212.539 150.518 213.352 150.986C213.542 151.079 213.676 151.245 213.735 151.433C213.826 151.699 213.752 151.976 213.554 152.164L213.382 152.351L214.648 152.578C214.92 152.626 215.101 152.886 215.052 153.158C215.004 153.43 214.744 153.611 214.472 153.562L212.883 153.278C212.822 153.272 212.762 153.255 212.706 153.227C212.294 153.021 212.092 152.507 212.313 152.066C212.334 152.025 212.36 151.986 212.391 151.952L212.601 151.723C212.098 151.493 211.613 151.451 211.114 151.489C210.814 151.511 210.512 151.563 210.19 151.623C210.137 151.633 210.083 151.643 210.029 151.654C209.765 151.704 209.486 151.757 209.207 151.794C208.75 151.873 208.301 151.594 208.156 151.158C208.118 151.045 208.122 150.923 208.166 150.813C208.358 150.338 208.689 150.076 208.987 149.894C209.08 149.838 209.185 149.78 209.276 149.731C209.318 149.708 209.356 149.687 209.389 149.669C209.39 149.668 209.391 149.667 209.392 149.667C208.931 149.63 208.474 149.727 207.965 149.875C207.847 149.909 207.724 149.947 207.597 149.987C207.097 150.141 206.531 150.316 205.949 150.367C205.52 150.429 205.079 150.232 204.845 149.853C204.768 149.729 204.749 149.577 204.794 149.437C205.055 148.623 205.579 148.195 206.074 147.875C206.204 147.791 206.326 147.716 206.44 147.647C206.501 147.61 206.56 147.574 206.616 147.539C205.794 147.57 205.006 147.803 204.162 148.073C204.099 148.093 204.036 148.113 203.972 148.133C203.027 148.437 201.998 148.767 200.877 148.77C200.491 148.794 200.097 148.677 199.785 148.41C199.768 148.396 199.753 148.38 199.738 148.364C199.735 148.36 199.731 148.356 199.726 148.351C199.646 148.262 199.521 148.123 199.43 147.948C199.176 147.5 199.161 146.948 199.382 146.488C199.533 146.108 199.777 145.773 200.071 145.502L200.075 145.499L200.075 145.499Z" fill="#F05023"/>
</g>
<defs>
<clipPath id="clip0_11857_457">
<rect width="217" height="156" fill="white" transform="translate(19 48)"/>
</clipPath>
</defs>
</svg>
