<svg width="256" height="256" viewBox="0 0 256 256" fill="none" xmlns="http://www.w3.org/2000/svg">
<path d="M128 212.5V200L187.5 166V178.5L128 212.5Z" fill="#BEDCE3"/>
<path fill-rule="evenodd" clip-rule="evenodd" d="M95.7695 150.106C96.0421 150.586 95.8738 151.197 95.3935 151.469L70.3191 165.703L83.9966 173.532C84.4759 173.806 84.642 174.417 84.3677 174.897C84.0933 175.376 83.4824 175.542 83.0031 175.268L67.8031 166.568C67.4913 166.389 67.2992 166.057 67.2998 165.698C67.3004 165.339 67.4937 165.007 67.8061 164.83L94.4061 149.73C94.8864 149.457 95.4968 149.626 95.7695 150.106Z" fill="#231F20"/>
<path d="M157.6 159.1C157.7 160.2 157.7 161.3 157.7 162.4V165.3C157.7 174.8 144.2 182.4 127.4 182.4C114.8 182.4 103.9 178 99.3999 171.8C101 181.1 114.6 188.3 131.4 188.3C149.3 188.3 163.6 180.1 163.6 169.9C163.7 165.8 161.4 162.1 157.6 159.1Z" fill="#BEDCE3"/>
<path fill-rule="evenodd" clip-rule="evenodd" d="M107.08 49.8957C101.735 52.9151 98.7002 56.9218 98.7002 61.1V64C98.7002 73.6531 102.335 82.7469 106.955 90.356C111.569 97.9564 117.128 104.011 120.882 107.568C122.086 108.672 122.885 109.526 123.367 110.365C123.884 111.264 124 112.08 124 113C124 113.938 123.852 114.829 123.351 115.797C122.865 116.734 122.075 117.69 120.891 118.823L120.888 118.826C117.134 122.383 111.572 128.44 106.955 136.044C102.335 143.653 98.7002 152.747 98.7002 162.4V165.3C98.7002 169.478 101.735 173.485 107.08 176.504C112.392 179.505 119.791 181.4 128 181.4C136.262 181.4 143.661 179.529 148.959 176.541C154.285 173.538 157.3 169.533 157.3 165.3V162.4C157.3 152.747 153.665 143.653 149.045 136.044C144.431 128.444 138.873 122.389 135.118 118.831C132.717 116.629 131.5 114.968 131.5 113C131.5 111.977 131.859 111.146 132.489 110.31C133.086 109.519 133.979 108.658 135.109 107.577L135.117 107.57L135.117 107.57C138.917 104.016 144.478 97.9608 149.082 90.357C153.689 82.749 157.3 73.6546 157.3 64V61.1C157.3 56.9218 154.266 52.9151 148.921 49.8957C143.608 46.8946 136.209 45 128 45C119.791 45 112.392 46.8946 107.08 49.8957ZM106.096 48.1543C111.758 44.9554 119.509 43 128 43C136.491 43 144.242 44.9554 149.905 48.1543C155.535 51.3349 159.3 55.8782 159.3 61.1V64C159.3 74.1454 155.511 83.601 150.793 91.393C146.074 99.1864 140.387 105.379 136.487 109.027C135.319 110.144 134.564 110.882 134.086 111.515C133.641 112.104 133.5 112.523 133.5 113C133.5 114.031 134.081 115.168 136.476 117.363L136.482 117.368L136.488 117.374C140.334 121.017 146.022 127.21 150.755 135.006C155.485 142.797 159.3 152.253 159.3 162.4V165.3C159.3 170.567 155.566 175.112 149.941 178.284C144.289 181.471 136.538 183.4 128 183.4C119.509 183.4 111.758 181.445 106.096 178.246C100.466 175.065 96.7002 170.522 96.7002 165.3V162.4C96.7002 152.253 100.515 142.797 105.245 135.006C109.978 127.212 115.665 121.019 119.511 117.376C119.511 117.375 119.512 117.375 119.512 117.374L120.2 118.1L119.509 117.377C119.509 117.377 119.51 117.376 119.511 117.376C120.626 116.309 121.236 115.531 121.575 114.877C121.898 114.253 122 113.693 122 113C122 112.289 121.917 111.855 121.633 111.361C121.316 110.81 120.717 110.131 119.524 109.037L119.518 109.032L119.512 109.026C115.667 105.383 109.978 99.1896 105.245 91.394C100.515 83.6031 96.7002 74.1469 96.7002 64V61.1C96.7002 55.8782 100.466 51.3349 106.096 48.1543Z" fill="#212121"/>
<path d="M128 102.6C135.8 102.6 142.1 99.0001 142.1 94.6001C142.1 90.2001 135.8 86.6001 128 86.6001C120.2 86.6001 113.9 90.2001 113.9 94.6001C113.9 99.0001 120.2 102.6 128 102.6Z" fill="#F05023"/>
<path fill-rule="evenodd" clip-rule="evenodd" d="M154.6 161C154.6 152.7 142.7 145.9 128 145.9C113.3 145.9 101.4 152.6 101.4 161C101.4 161.6 101.4 163.8 101.4 164.4C101.4 172.7 113.3 179.5 128 179.5C142.7 179.5 154.6 172.8 154.6 164.4C154.6 163.8 154.6 161.6 154.6 161Z" fill="#F05023"/>
<path fill-rule="evenodd" clip-rule="evenodd" d="M143.5 151.5C143.5 151.5 129 138 129 132.2C129 126.4 129 117.9 129.1 115.6C129.1 108.5 131.5 107 131.5 107C143 98 142.1 94.6001 142.1 94.6001H113.9C113.9 94.6001 113 98 124 107C124 107 126.9 108.5 126.9 115.6C126.9 117.8 127 126.4 127 132.2C127 138 111.5 151.5 111.5 151.5H143.5Z" fill="#F05023"/>
<path fill-rule="evenodd" clip-rule="evenodd" d="M105.978 166.53C106.292 166.076 106.915 165.963 107.369 166.278C108.619 167.143 109.963 167.911 111.501 168.584C112.007 168.805 112.237 169.395 112.016 169.901C111.795 170.406 111.205 170.637 110.699 170.416C109.037 169.689 107.581 168.857 106.231 167.922C105.777 167.608 105.663 166.985 105.978 166.53ZM115.444 171.006C115.607 170.478 116.166 170.182 116.694 170.344C120.482 171.509 124.88 172.1 129.5 172.1C130.052 172.1 130.5 172.547 130.5 173.1C130.5 173.652 130.052 174.1 129.5 174.1C124.72 174.1 120.118 173.49 116.106 172.255C115.578 172.093 115.282 171.533 115.444 171.006Z" fill="white"/>
<path d="M186.896 179.383C186.589 179.207 186.211 179.207 185.904 179.382L128.495 212.117C128.188 212.292 127.812 212.292 127.505 212.118L75.0933 182.28C74.7874 182.106 74.4124 182.106 74.1061 182.279L68.531 185.433C67.8558 185.815 67.8538 186.787 68.5274 187.172L132.504 223.716C132.811 223.892 133.189 223.892 133.496 223.716L197.48 187.168C198.152 186.784 198.152 185.815 197.48 185.431L186.896 179.383Z" fill="#BEDCE3"/>
<path fill-rule="evenodd" clip-rule="evenodd" d="M160.129 150.008C160.401 149.527 161.011 149.358 161.492 149.63L188.192 164.73C188.506 164.907 188.7 165.24 188.7 165.6V178.3C188.7 178.659 188.507 178.99 188.196 179.169L128.496 213.269C128.189 213.444 127.812 213.444 127.505 213.269L67.8049 179.269C67.4926 179.091 67.2998 178.76 67.2998 178.4V165.7C67.2998 165.148 67.7475 164.7 68.2998 164.7C68.8521 164.7 69.2998 165.148 69.2998 165.7V177.819L127.999 211.249L186.7 177.72V166.183L160.508 151.371C160.027 151.099 159.857 150.489 160.129 150.008Z" fill="#231F20"/>
<path fill-rule="evenodd" clip-rule="evenodd" d="M153.799 62.7538C154.188 63.1459 154.185 63.7791 153.793 64.168C149.042 68.8802 139.401 71.9607 128.5 71.9607C121.741 71.9607 115.513 70.7795 110.627 68.788C110.115 68.5795 109.87 67.9959 110.078 67.4845C110.287 66.9731 110.87 66.7274 111.382 66.9359C115.992 68.8151 121.958 69.9607 128.5 69.9607C139.157 69.9607 148.17 66.928 152.385 62.748C152.777 62.3591 153.41 62.3617 153.799 62.7538Z" fill="#231F20"/>
</svg>
