<svg width="256" height="256" viewBox="0 0 256 256" fill="none" xmlns="http://www.w3.org/2000/svg">
<path d="M141.935 186.641C142.074 186.882 141.981 187.193 141.741 187.333L132.168 192.702C131.446 193.106 130.561 193.098 129.846 192.686L55.2981 148.842C55.2049 148.788 55.1273 148.71 55.0729 148.617C54.9176 148.337 55.0186 147.988 55.2981 147.832L64.669 142.215C65.1426 141.935 65.7249 141.927 66.2062 142.199L141.756 186.447C141.826 186.494 141.896 186.564 141.935 186.641Z" fill="#BEDCE3"/>
<path d="M202.21 229.074C202.45 229.494 202.3 230.034 201.87 230.274L185.2 239.614C183.94 240.314 182.41 240.304 181.16 239.584L99.14 191.904C98.98 191.814 98.84 191.684 98.75 191.514C98.48 191.034 98.65 190.424 99.14 190.154L115.45 180.374C116.27 179.884 117.29 179.874 118.12 180.354L201.88 228.754C202.01 228.824 202.13 228.934 202.21 229.074Z" fill="#BEDCE3"/>
<path d="M180.35 86.03L73.5599 25.07C71.9599 24.17 70.5299 24.07 69.5599 24.63L62.8799 27.9L65.5299 32L68.2699 31.77V122.96C68.2699 125.89 70.6399 129.61 73.5699 131.26L175.09 189.21L177.61 195.94L183.78 192.89C184.93 192.57 185.66 191.53 185.66 189.91V94.33C185.65 91.4 183.27 87.69 180.35 86.03Z" fill="white"/>
<path d="M177.6 196.94C177.48 196.94 177.35 196.92 177.23 196.87C176.97 196.77 176.76 196.56 176.66 196.29L174.27 189.9L73.0699 132.13C69.8199 130.29 67.2599 126.26 67.2599 122.96V32.8598L65.6099 32.9998C65.2399 33.0398 64.8899 32.8598 64.6899 32.5498L62.0399 28.4498C61.8799 28.2098 61.8399 27.9098 61.9199 27.6398C61.9999 27.3698 62.1799 27.1298 62.4399 26.9998L69.1299 23.7298C69.1399 23.7298 69.1399 23.7298 69.1499 23.7198C70.4699 22.9998 72.2499 23.1698 74.0699 24.1898L180.85 85.1498C184.11 86.9898 186.66 91.0198 186.66 94.3198V189.9C186.66 191.87 185.72 193.33 184.15 193.82L178.06 196.83C177.91 196.91 177.76 196.94 177.6 196.94ZM68.2599 30.7698C68.5099 30.7698 68.7499 30.8598 68.9399 31.0298C69.1499 31.2198 69.2599 31.4898 69.2599 31.7698V122.96C69.2599 125.52 71.4599 128.92 74.0499 130.39L175.57 188.35C175.77 188.47 175.93 188.65 176.01 188.87L178.14 194.57L183.31 192.01C183.37 191.98 183.42 191.96 183.48 191.94C184.43 191.67 184.63 190.69 184.63 189.92V94.3298C184.63 91.7698 182.43 88.3698 179.83 86.8998L73.0699 25.9398C71.8799 25.2698 70.7599 25.0998 70.0699 25.4998C70.0299 25.5298 69.9799 25.5498 69.9399 25.5698L64.3299 28.3098L66.0399 30.9498L68.1799 30.7698C68.2099 30.7698 68.2399 30.7698 68.2599 30.7698Z" fill="#231F20"/>
<path d="M173.69 195.46L66.9099 134.51C63.9799 132.85 61.6099 129.14 61.6099 126.21V30.6196C61.6099 27.6896 63.9799 26.6596 66.9099 28.3196L173.69 89.2796C176.62 90.9396 178.99 94.6496 178.99 97.5796V193.16C178.99 196.09 176.62 197.12 173.69 195.46Z" fill="white"/>
<path d="M176.31 197.25C175.35 197.25 174.28 196.94 173.2 196.33L66.4101 135.37C63.1601 133.53 60.6001 129.5 60.6001 126.2V30.6196C60.6001 28.9696 61.2401 27.6896 62.4001 27.0096C63.7201 26.2396 65.5501 26.3996 67.4001 27.4396L174.18 88.3996C177.43 90.2396 179.99 94.2696 179.99 97.5696V193.15C179.99 194.8 179.35 196.08 178.19 196.76C177.64 197.09 177 197.25 176.31 197.25ZM174.19 194.59C175.39 195.27 176.51 195.43 177.19 195.04C177.86 194.65 178 193.8 178 193.16V97.5796C178 95.0196 175.8 91.6196 173.21 90.1496L66.4101 29.1896C65.2101 28.5196 64.0901 28.3496 63.4101 28.7396C62.7501 29.1296 62.6101 29.9796 62.6101 30.6196V126.2C62.6101 128.76 64.8101 132.16 67.4001 133.63L174.19 194.59Z" fill="#231F20"/>
<path d="M178.22 110.029C178.05 110.029 177.88 109.989 177.73 109.899L85.6903 57.3994C85.2103 57.1294 85.0403 56.5194 85.3203 56.0394C85.5903 55.5594 86.2003 55.3894 86.6803 55.6694L178.72 108.169C179.2 108.439 179.37 109.049 179.09 109.529C178.9 109.839 178.56 110.029 178.22 110.029Z" fill="#231F20"/>
<path d="M74.8802 51.0794C74.7102 51.0794 74.5402 51.0394 74.3902 50.9494L61.1102 43.3794C60.6302 43.1094 60.4602 42.4994 60.7402 42.0194C61.0102 41.5394 61.6202 41.3694 62.1002 41.6494L75.3702 49.2194C75.8502 49.4894 76.0202 50.0994 75.7402 50.5794C75.5602 50.8994 75.2302 51.0794 74.8802 51.0794Z" fill="#231F20"/>
<path d="M73.3811 42.4082C74.4647 41.5887 74.1819 39.3888 72.7494 37.4946C71.3169 35.6005 69.2772 34.7293 68.1935 35.5488C67.1099 36.3684 67.3927 38.5682 68.8252 40.4624C70.2577 42.3566 72.2974 43.2277 73.3811 42.4082Z" fill="white"/>
<path d="M72.3898 43.7191C71.7298 43.7191 71.0098 43.5091 70.2898 43.1091C68.1798 41.9191 66.5298 39.2891 66.5298 37.1391C66.5298 35.9791 66.9898 35.0791 67.8298 34.5891C68.7698 34.0491 70.0198 34.1391 71.2798 34.8491C73.3898 36.0391 75.0398 38.6691 75.0398 40.8191C75.0398 41.9791 74.5798 42.8791 73.7498 43.3691C73.3498 43.6091 72.8898 43.7191 72.3898 43.7191ZM69.1898 36.2391C69.0398 36.2391 68.9198 36.2691 68.8398 36.3191C68.5798 36.4691 68.5398 36.8991 68.5398 37.1391C68.5398 38.5891 69.7998 40.5191 71.2898 41.3691C72.0198 41.7791 72.5298 41.7791 72.7498 41.6491C73.0098 41.4991 73.0498 41.0691 73.0498 40.8291C73.0498 39.3791 71.7898 37.4491 70.2998 36.5991C69.8298 36.3391 69.4598 36.2391 69.1898 36.2391Z" fill="#231F20"/>
<path d="M84.8313 48.8916C85.9149 48.0721 85.6321 45.8722 84.1996 43.978C82.7671 42.0839 80.7274 41.2127 79.6437 42.0322C78.5601 42.8518 78.8429 45.0516 80.2754 46.9458C81.7079 48.84 83.7476 49.7111 84.8313 48.8916Z" fill="white"/>
<path d="M83.8497 50.1996C83.1897 50.1996 82.4697 49.9896 81.7497 49.5896C79.6397 48.3996 77.9897 45.7796 77.9897 43.6196C77.9897 42.4596 78.4497 41.5596 79.2897 41.0696C80.2197 40.5296 81.4797 40.6196 82.7397 41.3296C84.8497 42.5196 86.4997 45.1496 86.4997 47.2996C86.4997 48.4596 86.0397 49.3596 85.2097 49.8496C84.7997 50.0896 84.3397 50.1996 83.8497 50.1996ZM80.6397 42.7196C80.4897 42.7196 80.3697 42.7496 80.2897 42.7996C80.0297 42.9496 79.9897 43.3796 79.9897 43.6196C79.9897 45.0696 81.2497 46.9996 82.7397 47.8496C83.4697 48.2596 83.9797 48.2596 84.1997 48.1296C84.4597 47.9796 84.4997 47.5496 84.4997 47.3096C84.4997 45.8596 83.2397 43.9296 81.7497 43.0796C81.2897 42.8196 80.9097 42.7196 80.6397 42.7196Z" fill="#231F20"/>
<path d="M96.2873 55.3823C97.3709 54.5628 97.0881 52.3629 95.6556 50.4688C94.2232 48.5746 92.1834 47.7034 91.0998 48.523C90.0162 49.3425 90.299 51.5424 91.7315 53.4365C93.164 55.3307 95.2037 56.2018 96.2873 55.3823Z" fill="white"/>
<path d="M95.2995 56.6894C94.6395 56.6894 93.9195 56.4794 93.1995 56.0794C91.0895 54.8894 89.4395 52.2594 89.4395 50.1094C89.4395 48.9494 89.8995 48.0494 90.7395 47.5594C91.6695 47.0194 92.9295 47.1094 94.1895 47.8194C96.2995 49.0094 97.9495 51.6394 97.9495 53.7894C97.9495 54.9494 97.4895 55.8494 96.6495 56.3394C96.2495 56.5694 95.7895 56.6894 95.2995 56.6894ZM92.0895 49.2094C91.9395 49.2094 91.8195 49.2394 91.7395 49.2894C91.4795 49.4394 91.4395 49.8694 91.4395 50.1094C91.4395 51.5594 92.6995 53.4894 94.1895 54.3394C94.9095 54.7494 95.4295 54.7494 95.6495 54.6194C95.9095 54.4694 95.9495 54.0394 95.9495 53.7994C95.9495 52.3494 94.6895 50.4194 93.1995 49.5694C92.7395 49.2994 92.3595 49.2094 92.0895 49.2094Z" fill="#231F20"/>
<path d="M188.41 195.7L200.5 188.68L200.49 177.74L191.07 171.07C190.07 170.36 189.25 169.19 188.97 168.06C188.35 165.57 187.5 163.02 186.44 160.47C185.96 159.31 186.03 158.27 186.64 157.81L192.35 153.44L184.61 141.32L177.01 142.72C176.2 142.87 175.12 142.33 174.24 141.35C172.28 139.18 170.22 137.16 168.08 135.33C167.11 134.5 166.4 133.27 166.26 132.2L164.92 122.02L153.97 115.82L141.88 122.83C141.88 122.83 141.88 122.82 141.87 122.82L134.27 112.82L126.53 116.18L114.44 123.2L118.38 131.27L106.29 138.29L109.12 146.35L123.09 152.04L126.3 174.89L143.1 188.7L152.83 211.17L164.92 204.15L169.16 200.57L180.26 210.8L192.35 203.78L188.41 195.7Z" fill="white"/>
<path d="M152.82 212.16C152.71 212.16 152.61 212.14 152.51 212.11C152.24 212.02 152.02 211.82 151.91 211.56L142.28 189.31L125.66 175.65C125.47 175.49 125.34 175.27 125.3 175.02L122.17 152.75L108.73 147.28C108.46 147.17 108.26 146.96 108.16 146.69L105.33 138.63C105.17 138.18 105.36 137.67 105.77 137.43L117.06 130.88L113.53 123.65C113.3 123.18 113.47 122.61 113.93 122.35L126.02 115.33C126.05 115.31 126.09 115.29 126.12 115.28L133.86 111.92C134.28 111.73 134.78 111.86 135.05 112.23L142.12 121.53L153.44 114.96C153.75 114.78 154.13 114.78 154.43 114.96L165.38 121.16C165.65 121.31 165.84 121.59 165.88 121.9L167.22 132.08C167.33 132.91 167.93 133.92 168.7 134.58C170.87 136.44 172.97 138.49 174.95 140.69C175.65 141.47 176.43 141.81 176.8 141.75L184.4 140.35C184.8 140.28 185.2 140.45 185.42 140.8L193.16 152.92C193.44 153.36 193.34 153.94 192.93 154.25L187.22 158.62C187.09 158.72 186.99 159.26 187.34 160.1C188.42 162.7 189.29 165.31 189.92 167.84C190.14 168.73 190.83 169.71 191.63 170.28L201.05 176.95C201.31 177.14 201.47 177.44 201.47 177.77L201.48 188.71C201.48 189.07 201.29 189.4 200.98 189.58L189.69 196.13L193.22 203.36C193.45 203.83 193.28 204.4 192.82 204.66L180.73 211.68C180.35 211.9 179.87 211.85 179.55 211.55L169.09 201.92L165.53 204.93C165.49 204.97 165.44 205 165.39 205.03L153.3 212.05C153.17 212.11 152.99 212.16 152.82 212.16ZM127.23 174.35L143.73 187.91C143.85 188.01 143.95 188.14 144.01 188.29L153.29 209.73L164.33 203.32L168.5 199.79C168.89 199.46 169.45 199.48 169.82 199.82L180.38 209.55L191.03 203.37L187.5 196.14C187.27 195.67 187.44 195.1 187.9 194.84L199.5 188.11V178.26L190.5 171.88C189.3 171.03 188.35 169.66 188.01 168.3C187.41 165.86 186.57 163.36 185.52 160.85C184.85 159.24 185.04 157.77 186.03 157.01L191.01 153.2L184.13 142.42L177.19 143.7C176.04 143.92 174.62 143.27 173.49 142.01C171.57 139.88 169.53 137.88 167.42 136.08C166.26 135.09 165.43 133.64 165.26 132.32L163.98 122.64L153.96 116.97L142.37 123.7C141.95 123.94 141.41 123.85 141.1 123.48L133.94 114.06L126.97 117.09L115.73 123.61L119.26 130.84C119.49 131.31 119.32 131.88 118.86 132.14L107.48 138.74L109.89 145.6L123.44 151.12C123.77 151.25 124 151.55 124.05 151.91L127.23 174.35Z" fill="#231F20"/>
<path d="M188.41 195.7L178.99 191.71C177.99 191.29 177.17 191.54 176.89 192.34C176.27 194.13 175.42 195.71 174.36 197.07C173.88 197.68 173.95 198.81 174.56 199.96L180.26 210.78L172.52 214.14L164.92 204.13C164.11 203.07 163.03 202.38 162.15 202.36C160.2 202.32 158.13 202 155.99 201.41C155.02 201.14 154.31 201.56 154.17 202.48L152.83 211.15L141.88 204.95L140.54 194.77C140.4 193.69 139.69 192.47 138.72 191.64C136.58 189.81 134.51 187.79 132.56 185.62C131.68 184.64 130.59 184.1 129.79 184.25L122.19 185.65L114.45 173.53L120.15 169.15C120.75 168.69 120.83 167.64 120.35 166.49C119.28 163.93 118.43 161.39 117.82 158.9C117.54 157.77 116.72 156.6 115.72 155.89L106.31 149.23V138.28L115.73 142.27C116.73 142.69 117.55 142.44 117.83 141.64C118.45 139.85 119.3 138.27 120.36 136.91C120.84 136.3 120.77 135.17 120.16 134.02L114.46 123.2L122.2 119.84L129.8 129.84C130.61 130.9 131.69 131.59 132.57 131.61C134.53 131.65 136.59 131.97 138.73 132.56C139.7 132.83 140.41 132.41 140.55 131.49L141.89 122.84L152.84 129.04L154.18 139.22C154.32 140.3 155.03 141.52 156 142.35C158.14 144.18 160.2 146.2 162.16 148.37C163.04 149.35 164.13 149.89 164.93 149.74L172.53 148.34L180.27 160.46L174.56 164.83C173.96 165.29 173.88 166.34 174.36 167.49C175.43 170.05 176.28 172.59 176.89 175.08C177.17 176.21 177.99 177.38 178.99 178.09L188.41 184.76V195.7Z" fill="white"/>
<path d="M172.51 215.15C172.2 215.15 171.91 215.01 171.71 214.75L164.11 204.74C163.4 203.81 162.58 203.38 162.11 203.37C160.07 203.33 157.92 203 155.7 202.38C155.46 202.31 155.31 202.33 155.25 202.37C155.2 202.4 155.15 202.5 155.13 202.64L153.79 211.3C153.74 211.63 153.53 211.9 153.24 212.05C152.95 212.19 152.6 212.18 152.31 212.02L141.36 205.82C141.09 205.67 140.9 205.39 140.86 205.08L139.52 194.9C139.41 194.07 138.81 193.06 138.04 192.4C135.87 190.55 133.77 188.49 131.79 186.29C131.09 185.51 130.31 185.16 129.94 185.23L122.34 186.63C121.94 186.7 121.54 186.53 121.32 186.18L113.58 174.06C113.3 173.62 113.4 173.04 113.81 172.73L119.51 168.35C119.64 168.25 119.75 167.71 119.39 166.87C118.31 164.27 117.44 161.66 116.81 159.13C116.59 158.24 115.9 157.26 115.1 156.69L105.69 150.03C105.42 149.84 105.27 149.54 105.27 149.21V138.26C105.27 137.93 105.44 137.61 105.72 137.43C106 137.25 106.35 137.21 106.66 137.34L116.08 141.32C116.41 141.46 116.65 141.46 116.74 141.42C116.76 141.41 116.8 141.39 116.84 141.28C117.49 139.39 118.4 137.7 119.53 136.26C119.69 136.06 119.7 135.35 119.23 134.46L113.53 123.64C113.4 123.39 113.38 123.1 113.47 122.84C113.56 122.58 113.76 122.37 114.01 122.26L121.75 118.9C122.17 118.71 122.67 118.85 122.94 119.21L130.54 129.21C131.25 130.14 132.07 130.58 132.54 130.58C134.58 130.62 136.74 130.96 138.95 131.57C139.19 131.64 139.34 131.61 139.4 131.58C139.45 131.55 139.5 131.45 139.52 131.31L140.86 122.66C140.91 122.33 141.12 122.06 141.41 121.91C141.7 121.77 142.05 121.78 142.34 121.94L153.29 128.14C153.56 128.29 153.75 128.57 153.79 128.88L155.13 139.06C155.24 139.89 155.84 140.9 156.61 141.56C158.78 143.41 160.88 145.47 162.86 147.67C163.56 148.45 164.34 148.8 164.71 148.73L172.31 147.33C172.71 147.26 173.11 147.43 173.33 147.78L181.07 159.9C181.35 160.34 181.25 160.92 180.84 161.23L175.13 165.6C175 165.7 174.9 166.24 175.25 167.08C176.33 169.68 177.2 172.29 177.83 174.82C178.05 175.71 178.74 176.69 179.54 177.26L188.96 183.93C189.22 184.12 189.38 184.42 189.38 184.74L189.39 195.68C189.39 196.02 189.22 196.33 188.94 196.51C188.66 196.7 188.31 196.73 188 196.6L178.58 192.62C178.24 192.48 178.01 192.48 177.92 192.52C177.9 192.53 177.86 192.55 177.82 192.66C177.17 194.55 176.26 196.24 175.13 197.68C174.97 197.88 174.96 198.59 175.43 199.48L181.13 210.31C181.26 210.56 181.28 210.85 181.19 211.11C181.1 211.37 180.9 211.58 180.65 211.69L172.91 215.05C172.78 215.12 172.65 215.15 172.51 215.15ZM155.44 200.34C155.7 200.34 155.97 200.38 156.25 200.45C158.31 201.02 160.3 201.33 162.17 201.37C163.36 201.39 164.72 202.22 165.72 203.53L172.85 212.92L178.88 210.3L173.68 200.43C172.88 198.91 172.84 197.39 173.58 196.46C174.57 195.2 175.37 193.71 175.95 192.03C176.16 191.43 176.58 190.96 177.13 190.72C177.79 190.43 178.57 190.46 179.38 190.8L187.41 194.2V185.28L178.41 178.9C177.21 178.05 176.26 176.68 175.92 175.32C175.32 172.88 174.48 170.38 173.43 167.87C172.76 166.26 172.95 164.79 173.94 164.03L178.92 160.22L172.04 149.44L165.1 150.72C163.95 150.94 162.53 150.29 161.4 149.03C159.48 146.89 157.44 144.9 155.33 143.1C154.17 142.11 153.34 140.66 153.17 139.34L151.89 129.66L142.63 124.42L141.51 131.64C141.4 132.35 141.04 132.93 140.51 133.28C139.94 133.65 139.21 133.74 138.44 133.52C136.38 132.95 134.39 132.64 132.52 132.6C131.33 132.58 129.97 131.75 128.97 130.44L121.85 121.07L115.82 123.69L121.02 133.56C121.82 135.08 121.86 136.6 121.12 137.53C120.13 138.79 119.33 140.28 118.75 141.96C118.54 142.56 118.12 143.03 117.57 143.27C116.91 143.56 116.13 143.53 115.32 143.19L107.29 139.79V148.71L116.28 155.08C117.48 155.93 118.43 157.3 118.77 158.66C119.37 161.1 120.21 163.6 121.26 166.11C121.93 167.72 121.74 169.19 120.75 169.95L115.78 173.77L122.67 184.55L129.61 183.27C130.77 183.05 132.18 183.7 133.31 184.96C135.23 187.1 137.27 189.09 139.37 190.89C140.53 191.89 141.36 193.33 141.53 194.65L142.81 204.33L152.07 209.57L153.19 202.34C153.3 201.63 153.66 201.05 154.2 200.7C154.54 200.46 154.97 200.34 155.44 200.34Z" fill="#231F20"/>
<path d="M147.35 184.96C137.43 179.35 129.38 166.75 129.38 156.83C129.38 146.91 137.42 143.42 147.35 149.03C157.28 154.64 165.32 167.24 165.32 177.16C165.3 187.07 157.26 190.56 147.35 184.96Z" fill="white"/>
<path d="M156.19 188.62C153.35 188.62 150.14 187.68 146.86 185.83C136.67 180.07 128.39 167.06 128.39 156.83C128.39 152.12 130.13 148.52 133.3 146.67C137.03 144.5 142.34 145.04 147.85 148.16C158.04 153.92 166.32 166.93 166.32 177.16C166.31 181.86 164.57 185.47 161.41 187.31C159.89 188.19 158.12 188.62 156.19 188.62ZM147.84 184.09C152.72 186.85 157.3 187.39 160.4 185.58C162.92 184.11 164.31 181.12 164.32 177.16C164.32 167.58 156.49 155.35 146.86 149.9C141.98 147.14 137.4 146.59 134.3 148.4C131.78 149.87 130.39 152.87 130.39 156.83C130.38 166.41 138.21 178.64 147.84 184.09Z" fill="#231F20"/>
<path d="M159.44 177.94C161.38 179.04 163.25 179.78 165.01 180.19C165.2 179.25 165.31 178.25 165.32 177.15C165.32 167.23 157.28 154.63 147.35 149.02C145.4 147.92 143.54 147.18 141.78 146.76C141.59 147.7 141.48 148.7 141.48 149.8C141.47 159.73 149.52 172.33 159.44 177.94Z" fill="white"/>
<path d="M165.01 181.2C164.93 181.2 164.85 181.19 164.78 181.17C162.88 180.72 160.92 179.92 158.95 178.81C148.76 173.05 140.48 160.04 140.48 149.81C140.48 148.7 140.59 147.64 140.8 146.57C140.85 146.3 141.01 146.07 141.24 145.93C141.47 145.78 141.75 145.74 142.01 145.8C143.92 146.26 145.88 147.05 147.84 148.16C158.03 153.92 166.31 166.93 166.31 177.16C166.31 178.26 166.2 179.32 165.98 180.4C165.93 180.67 165.77 180.9 165.54 181.04C165.38 181.14 165.19 181.2 165.01 181.2ZM159.93 177.07C161.37 177.88 162.8 178.51 164.2 178.94C164.27 178.35 164.31 177.76 164.31 177.16C164.31 167.58 156.48 155.35 146.85 149.9C145.41 149.08 143.98 148.46 142.58 148.03C142.51 148.62 142.47 149.21 142.47 149.82C142.47 159.39 150.3 171.62 159.93 177.07Z" fill="#231F20"/>
</svg>
