<svg width="80" height="40" viewBox="0 0 80 40" fill="none" xmlns="http://www.w3.org/2000/svg">
<g clip-path="url(#clip0_24872_5)">
<path d="M11.4015 32.5212C11.0911 32.606 10.8058 32.788 10.5956 33.0609C10.3855 33.3338 10.2852 33.657 10.2852 33.9802V39.3327L15.5094 37.9303C15.8198 37.8455 16.1052 37.6667 16.3153 37.3906C16.5254 37.1176 16.6258 36.7945 16.6258 36.4744V31.1313L11.4015 32.5212Z" fill="#006A40"/>
<path d="M5.03628 26.673C4.73211 26.7546 4.45303 26.9334 4.24606 27.2032C4.0391 27.4699 3.94189 27.7868 3.94189 28.1005V33.2272L9.1849 31.8154C9.48907 31.7338 9.76813 31.5549 9.97511 31.2882C10.1821 31.0215 10.2793 30.7047 10.2793 30.3909V25.2769L5.03628 26.673Z" fill="#006A40"/>
<path d="M32.6343 11.7636L12.8882 17.0691C12.1827 17.2291 11.5085 17.6558 11.0131 18.3022C10.5176 18.9484 10.2793 19.7109 10.2793 20.467V25.2861L16.6261 23.5856V31.1313L22.9541 29.4276V36.923L32.6562 34.3189C34.2899 33.8828 35.6258 32.1572 35.6258 30.5226V13.9034C35.6289 12.2688 34.2931 11.2899 32.6343 11.7636Z" fill="#006A40"/>
<path d="M0 39.5555L3.13578 38.7052C3.36156 38.6425 3.57165 38.5075 3.7253 38.3067C3.87896 38.1059 3.95422 37.8675 3.95422 37.6322V34.5229L0.818438 35.3764C0.592662 35.436 0.382565 35.5709 0.228912 35.7748C0.0752587 35.9725 0 36.214 0 36.4463V39.5555Z" fill="#006A40"/>
<path d="M0.00292969 24.4831L3.13871 23.6329C3.36449 23.5702 3.57458 23.4353 3.72824 23.2345C3.88189 23.0337 3.95715 22.7952 3.95715 22.5599V19.4507L0.821368 20.304C0.595592 20.3636 0.385495 20.4985 0.231842 20.7025C0.0781884 20.9001 0.00292969 21.1386 0.00292969 21.3739V24.4831Z" fill="#50AC25"/>
<path d="M4.92334 18.1895L9.17228 17.0348C9.4796 16.9502 9.76182 16.7713 9.97194 16.4983C10.1821 16.2254 10.2793 15.9054 10.2793 15.5885V11.3843L6.03027 12.5295C5.72297 12.6141 5.44074 12.793 5.23065 13.0691C5.02369 13.3421 4.92334 13.6621 4.92334 13.9822V18.1895Z" fill="#50AC25"/>
<path d="M26.7828 0.541047L12.8506 4.26522V4.2715C12.1513 4.47858 11.5053 4.89586 11.0287 5.52022C10.5332 6.16654 10.2949 6.92894 10.2949 7.6882V11.3842L16.6261 9.69301V16.059L22.9604 14.3585V20.6554L26.786 19.6294C28.1689 19.2561 29.3009 17.8128 29.3009 16.4323V2.37019C29.2977 0.986568 28.1657 0.16455 26.7828 0.541047Z" fill="#50AC25"/>
<path d="M53.8632 4.62903C53.7911 4.38744 53.6468 4.17723 53.4399 4.04546C53.2329 3.91369 52.9851 3.86035 52.7186 3.86035H52.3736C52.1949 3.86035 52.0256 3.88231 51.8688 3.93878C51.6336 4.01722 51.433 4.18037 51.3107 4.39686C51.1884 4.61334 51.1382 4.87061 51.1382 5.1624V12.4037C51.1382 13.7214 50.8622 14.6564 50.3574 15.2494C50.1033 15.5474 49.7867 15.7701 49.3947 15.9208C49.0027 16.0713 48.5292 16.153 47.971 16.153C47.4254 16.153 46.9582 16.0713 46.5662 15.9176C45.9799 15.6855 45.5565 15.2996 45.2586 14.7254C44.9607 14.1544 44.8039 13.3857 44.8039 12.4256V5.1624C44.8039 4.97415 44.782 4.79532 44.7286 4.6353C44.6534 4.39372 44.5028 4.18351 44.2896 4.05174C44.0795 3.91996 43.8256 3.86349 43.5465 3.86349H43.2454C43.0667 3.86349 42.9005 3.88858 42.7437 3.94507C42.5117 4.02663 42.3141 4.18978 42.1887 4.40627C42.0633 4.62275 42.0068 4.87689 42.0068 5.16554V12.4915C42.0068 14.4713 42.5085 16.0338 43.5277 17.0974C44.0356 17.6276 44.669 18.0292 45.4091 18.2958C46.1491 18.5594 46.9989 18.6912 47.9491 18.6912C48.8993 18.6912 49.7522 18.5562 50.4953 18.2864C51.6117 17.8848 52.4866 17.1664 53.0635 16.178C53.6437 15.1866 53.929 13.9347 53.929 12.4476V5.1624C53.9322 4.96788 53.9134 4.79218 53.8632 4.62903Z" fill="#003F7C"/>
<path d="M67.4315 14.4214C67.3343 14.3492 67.2403 14.2927 67.1556 14.2488C67.1117 14.2269 67.0709 14.208 67.027 14.1955C66.9831 14.1829 66.9423 14.1673 66.8702 14.1673C66.842 14.1673 66.8044 14.1703 66.7573 14.186C66.7134 14.2017 66.6538 14.2362 66.61 14.2959L66.6068 14.299L66.6037 14.3052C65.8824 15.3563 64.5372 16.1156 62.7655 16.1469L62.753 16.1344H62.6369C61.3168 16.1344 60.191 15.6261 59.3851 14.7571C58.5793 13.888 58.0931 12.6518 58.0931 11.1804C58.0931 9.69632 58.5667 8.44447 59.3569 7.56598C60.1502 6.68749 61.2603 6.17294 62.5899 6.17294L62.8188 6.17608H62.8219C64.6156 6.17294 66.0674 6.91024 66.7228 7.86403C66.7761 7.9362 66.8357 7.96444 66.8764 7.97699C66.9172 7.98954 66.9486 7.99267 66.9768 7.99267C67.027 7.99267 67.0553 7.98326 67.0834 7.97699C67.1869 7.94875 67.281 7.90169 67.4033 7.82639C67.5789 7.71658 67.789 7.55343 67.9646 7.33067C68.137 7.1079 68.2813 6.81613 68.2813 6.471C68.2781 6.11333 68.1026 5.77762 67.8267 5.46073C67.4096 4.98698 66.7416 4.54773 65.8793 4.21829C65.017 3.88886 63.957 3.67237 62.7592 3.67237H62.5679C60.4136 3.66924 58.5635 4.45361 57.2653 5.79644C55.9639 7.13928 55.2114 9.03433 55.2114 11.2242C55.2114 13.4048 55.9546 15.2841 57.2465 16.6144C58.5385 17.9448 60.3697 18.7166 62.5021 18.7134H62.6275C64.349 18.7134 65.7068 18.2961 66.6476 17.7126C67.118 17.4207 67.4848 17.085 67.7388 16.7368C67.9928 16.3885 68.137 16.0183 68.1402 15.6512C68.1402 15.4222 68.0713 15.2151 67.974 15.0394C67.8329 14.7697 67.6228 14.5689 67.4315 14.4214Z" fill="#003F7C"/>
<path d="M79.5736 12.4321C79.1628 11.654 78.4886 11.1081 77.7079 10.7096C76.927 10.308 76.0302 10.0508 75.1334 9.8437H75.1365C74.1644 9.61783 73.3553 9.44211 72.838 9.16599C72.5777 9.02793 72.3927 8.87421 72.2704 8.68283C72.1481 8.49144 72.0759 8.253 72.0759 7.91415C72.0791 7.35568 72.308 6.92584 72.7439 6.59955C73.1798 6.27639 73.8382 6.07559 74.663 6.07559C76.1744 6.07559 77.4664 6.8474 78.1405 7.82002V7.81689C78.1908 7.88904 78.2566 7.92042 78.2974 7.93297C78.3412 7.94552 78.3726 7.94866 78.3977 7.94866C78.4479 7.94866 78.4761 7.93924 78.5074 7.93297C78.6078 7.90474 78.705 7.85768 78.8273 7.78237C79.0029 7.67256 79.213 7.50942 79.3886 7.28665C79.561 7.06389 79.7053 6.77211 79.7053 6.42699C79.7053 6.09441 79.5705 5.75871 79.3384 5.44182C78.9873 4.96806 78.4134 4.52882 77.6263 4.20252C76.8392 3.87622 75.8421 3.66602 74.6473 3.66602C73.1107 3.66602 71.7937 4.09898 70.8499 4.86453C69.906 5.62693 69.3479 6.73132 69.351 7.99572C69.351 8.73616 69.4983 9.3605 69.7649 9.88136C70.1632 10.6625 70.8216 11.1866 71.5617 11.5568C72.3049 11.927 73.1453 12.1529 73.9575 12.3411C74.8793 12.5545 75.7354 12.7553 76.3187 13.0691C76.6103 13.2259 76.833 13.4048 76.9804 13.6181C77.1277 13.8314 77.2124 14.0792 77.2124 14.4244C77.2124 14.7287 77.1528 14.9891 77.0399 15.215C76.8737 15.5507 76.5884 15.8143 76.1619 16.0057C75.7354 16.1971 75.1679 16.3038 74.4717 16.3038C72.6623 16.3038 71.2669 15.3876 70.5206 14.3021L70.5175 14.2958C70.4736 14.2362 70.4108 14.1985 70.3639 14.1828C70.3168 14.1671 70.2823 14.1671 70.2541 14.1671C70.1632 14.1703 70.113 14.1891 70.0565 14.211C69.8684 14.2895 69.6301 14.4463 69.4043 14.6848C69.2945 14.8041 69.1911 14.9421 69.1126 15.1053C69.0342 15.2652 68.981 15.4503 68.981 15.6511C68.981 16.0182 69.1284 16.3853 69.3823 16.7367C69.7649 17.2606 70.3952 17.7501 71.2544 18.1141C72.1136 18.478 73.2017 18.7133 74.4936 18.7133C76.1619 18.7133 77.5322 18.3054 78.5011 17.5336C79.4702 16.7649 80.0063 15.626 80.0032 14.2738C80.0001 13.5616 79.8464 12.9466 79.5736 12.4321Z" fill="#003F7C"/>
<path d="M45.0112 21.8286H44.914C44.8137 21.8286 44.7258 21.8569 44.6631 21.9197C44.6004 21.9855 44.5753 22.0765 44.5753 22.1832V24.2006C44.5753 24.5677 44.5001 24.8312 44.3558 24.9975C44.2115 25.1638 43.9984 25.2516 43.6847 25.2516C43.3774 25.2516 43.1642 25.1638 43.02 24.9944C42.8757 24.8249 42.7973 24.5645 42.7973 24.2068V22.1832C42.7973 22.0797 42.7722 21.9887 42.7095 21.9228C42.6468 21.8569 42.5559 21.8286 42.4524 21.8286H42.3677C42.2705 21.8286 42.1827 21.8569 42.12 21.9228C42.0573 21.9887 42.0322 22.0797 42.0322 22.1832V24.2257C42.0322 24.7748 42.1733 25.2077 42.4555 25.5058C42.7378 25.8007 43.1548 25.9481 43.6816 25.9481C44.2084 25.9481 44.6287 25.7976 44.914 25.4995C45.1994 25.2015 45.3405 24.7653 45.3405 24.2131V22.1832C45.3405 22.0765 45.3185 21.9855 45.2558 21.9197C45.1994 21.8569 45.1115 21.8286 45.0112 21.8286Z" fill="#003F7C"/>
<path d="M49.2663 21.8286H49.1941C49.0938 21.8286 49.0029 21.8569 48.9433 21.926C48.8837 21.9918 48.8618 22.0828 48.8618 22.1863V24.6241L47.0807 22.0984C47.0242 22.0201 46.974 21.9542 46.905 21.9071C46.8361 21.8601 46.7514 21.8349 46.651 21.8349H46.5476C46.4347 21.8349 46.3343 21.8789 46.2716 21.9573C46.2089 22.0357 46.1807 22.1392 46.1807 22.2554V25.5497C46.1807 25.6532 46.2026 25.7411 46.259 25.8101C46.3186 25.8791 46.4065 25.9074 46.5068 25.9074H46.5727C46.673 25.9074 46.7639 25.8791 46.8266 25.8132C46.8862 25.7473 46.9113 25.6564 46.9113 25.5528V23.0272L48.7928 25.6909C48.8398 25.7567 48.8806 25.8132 48.9433 25.8509C49.006 25.8917 49.0813 25.9074 49.1816 25.9074H49.2287C49.3353 25.9074 49.4325 25.8634 49.4983 25.7881C49.561 25.7097 49.5924 25.6062 49.5924 25.4869V22.1926C49.5924 22.0891 49.5705 21.998 49.5109 21.9322C49.4513 21.8601 49.3635 21.8286 49.2663 21.8286Z" fill="#003F7C"/>
<path d="M50.9126 21.8286H50.828C50.7276 21.8286 50.6398 21.8569 50.5771 21.9228C50.5144 21.9887 50.4893 22.0797 50.4893 22.1832V25.5435C50.4893 25.6469 50.5144 25.738 50.5771 25.8039C50.6398 25.8697 50.7276 25.898 50.828 25.898H50.9126C51.013 25.898 51.1039 25.8697 51.1666 25.8039C51.2293 25.738 51.2544 25.6469 51.2544 25.5435V22.1863C51.2544 22.0828 51.2293 21.9918 51.1666 21.926C51.1039 21.8569 51.013 21.8286 50.9126 21.8286Z" fill="#003F7C"/>
<path d="M54.8857 21.854H52.145C52.0415 21.854 51.9505 21.8791 51.8816 21.9387C51.8157 21.9984 51.7812 22.0862 51.7812 22.1866V22.2148C51.7812 22.312 51.8126 22.4031 51.8784 22.4627C51.9443 22.5254 52.0384 22.5505 52.1418 22.5505H53.1264V25.5437C53.1264 25.6472 53.1515 25.7382 53.2143 25.8041C53.277 25.87 53.3648 25.8982 53.4652 25.8982H53.5498C53.6532 25.8982 53.7442 25.87 53.807 25.8041C53.8697 25.7382 53.8978 25.6472 53.8978 25.5405V22.5474H54.8825C54.986 22.5474 55.0801 22.5191 55.1428 22.4595C55.2087 22.3968 55.2368 22.3089 55.2368 22.2116V22.1834C55.2368 22.0862 55.2087 21.9984 55.1428 21.9355C55.0801 21.8791 54.9892 21.854 54.8857 21.854Z" fill="#003F7C"/>
<path d="M58.4321 25.1828H56.513V24.1569H57.9523C58.059 24.1569 58.1499 24.1318 58.2189 24.0722C58.2848 24.0125 58.3161 23.9216 58.3161 23.8243V23.8055C58.3161 23.7113 58.2878 23.6235 58.222 23.5671C58.1562 23.5105 58.0652 23.4886 57.9555 23.4886H56.5162V22.5537H58.3976C58.5043 22.5537 58.5983 22.5286 58.6642 22.469C58.73 22.4093 58.7614 22.3183 58.7614 22.2211V22.1866C58.7614 22.0925 58.7332 22.0014 58.6673 21.9418C58.6014 21.8822 58.5074 21.854 58.4008 21.854H56.1556C56.0395 21.854 55.936 21.8948 55.8639 21.9732C55.7917 22.0485 55.751 22.1583 55.751 22.2775V25.4652C55.751 25.5844 55.7887 25.6911 55.8639 25.7664C55.936 25.8417 56.0395 25.8825 56.1556 25.8794H58.4352C58.5419 25.8794 58.6359 25.8511 58.6986 25.7883C58.7645 25.7256 58.7896 25.6346 58.7896 25.5374V25.506C58.7896 25.4119 58.7614 25.324 58.6955 25.2676C58.6297 25.2048 58.5387 25.1828 58.4321 25.1828Z" fill="#003F7C"/>
<path d="M60.7054 21.854H59.7614C59.6486 21.854 59.5483 21.8948 59.473 21.97C59.3977 22.0454 59.3569 22.1521 59.3569 22.2744V25.4621C59.3569 25.688 59.5388 25.8763 59.7709 25.8763H60.674C61.3513 25.8763 61.9032 25.688 62.2858 25.3366C62.6683 24.9852 62.8785 24.477 62.8785 23.8557C62.8785 23.2345 62.6746 22.7294 62.2983 22.3842C61.922 22.0359 61.3764 21.854 60.7054 21.854ZM60.6866 25.1954H60.1127V22.5349H60.6897C61.1443 22.5349 61.4956 22.6603 61.7339 22.8862C61.9722 23.109 62.1039 23.4385 62.1071 23.862C62.1071 24.295 61.9753 24.6212 61.737 24.8471C61.5019 25.0699 61.1475 25.1954 60.6866 25.1954Z" fill="#003F7C"/>
<path d="M68.0306 24.6524C67.9365 24.5897 67.8425 24.5678 67.7766 24.5646L67.7421 24.5678C67.7296 24.574 67.7045 24.5771 67.6857 24.6179C67.5383 25.0039 67.1338 25.2454 66.6352 25.2454C65.8983 25.2423 65.3652 24.6838 65.362 23.8587C65.362 23.4445 65.4938 23.0994 65.7164 22.8578C65.9391 22.6162 66.2495 22.4782 66.6226 22.4782C67.0366 22.4782 67.4474 22.6758 67.6543 23.0398H67.6574L67.6857 23.0711L67.739 23.0837C67.7985 23.0806 67.8864 23.0586 67.9804 22.9959C68.0714 22.9331 68.1561 22.8265 68.1561 22.6695C68.1529 22.4908 68.0118 22.2805 67.7578 22.0985C67.5007 21.9166 67.1213 21.7754 66.6226 21.7754C66.0237 21.7754 65.5126 21.9919 65.1488 22.3652C64.7883 22.7386 64.5781 23.2626 64.5781 23.8743C64.5781 24.4799 64.7851 25.0039 65.1425 25.371C65.5001 25.7412 66.0111 25.9545 66.6038 25.9545C67.1338 25.9545 67.5351 25.7945 67.8017 25.5968C68.0714 25.396 68.2125 25.1607 68.2157 24.9787C68.2125 24.8219 68.1247 24.712 68.0306 24.6524Z" fill="#003F7C"/>
<path d="M72.2481 25.619L70.8589 22.0611C70.8338 21.989 70.7837 21.9168 70.7022 21.876C70.6206 21.8352 70.514 21.8164 70.3666 21.8164C70.2193 21.8164 70.1158 21.8352 70.0311 21.876C69.9496 21.9168 69.8993 21.989 69.8712 22.0611L68.4946 25.6158H68.4977L68.4883 25.6504C68.4914 25.7006 68.5134 25.7257 68.5353 25.7539C68.6074 25.8292 68.7422 25.9014 68.8991 25.9014C68.9775 25.9014 69.059 25.8825 69.1342 25.8261C69.2064 25.7728 69.266 25.688 69.3098 25.572L69.6329 24.7343H71.0816L71.4045 25.5657C71.4516 25.688 71.5175 25.7728 71.5927 25.8261C71.6711 25.8794 71.7589 25.9014 71.8373 25.8983C71.9439 25.8983 72.038 25.8637 72.1132 25.8166C72.1508 25.7947 72.1822 25.7728 72.2042 25.7445C72.2261 25.7162 72.2512 25.6943 72.2543 25.6441L72.2481 25.619ZM70.8746 24.0942H69.8398L70.3604 22.7356L70.8746 24.0942Z" fill="#003F7C"/>
<path d="M75.7697 23.0902C75.7697 22.6917 75.6348 22.3716 75.3714 22.1646C75.108 21.9544 74.7286 21.854 74.2457 21.854H73.145C73.029 21.854 72.9255 21.8948 72.8534 21.9732C72.7813 22.0485 72.7437 22.1552 72.7437 22.2775V25.5123C72.7437 25.6252 72.7688 25.7193 72.8252 25.7946C72.8816 25.8668 72.9726 25.9045 73.0729 25.9045H73.1576C73.2611 25.9045 73.3551 25.87 73.4147 25.8041C73.4743 25.7382 73.5025 25.6472 73.5025 25.5499V24.3671H73.8192L74.8572 25.6409C74.9261 25.7319 74.992 25.7978 75.0642 25.8417C75.1394 25.8887 75.2241 25.9076 75.315 25.9076C75.4499 25.9076 75.5596 25.8542 75.6317 25.7946C75.6694 25.7633 75.6975 25.7319 75.7163 25.7005C75.7352 25.6692 75.7509 25.6378 75.7509 25.6001L75.7289 25.5405L74.6815 24.2949C75.0046 24.2479 75.268 24.135 75.4529 23.9498C75.6662 23.7239 75.7729 23.4322 75.7697 23.0902ZM75.0014 23.1184C75.0014 23.3129 74.9419 23.4572 74.8227 23.5608C74.7035 23.6643 74.5123 23.7271 74.2394 23.7271H73.4994V22.5097H74.2206C74.4966 22.5097 74.691 22.5662 74.8164 22.6666C74.9356 22.767 74.9983 22.9082 75.0014 23.1184Z" fill="#003F7C"/>
<path d="M79.3918 22.3842C79.0155 22.0391 78.4699 21.854 77.7988 21.854H76.8518C76.7421 21.854 76.6386 21.8948 76.5633 21.97C76.488 22.0454 76.4473 22.1521 76.4473 22.2744V25.4621C76.4473 25.688 76.6291 25.8763 76.8644 25.8763H77.7674C78.4448 25.8763 78.9967 25.688 79.3793 25.3366C79.7618 24.9852 79.972 24.477 79.972 23.8557C79.972 23.2345 79.7713 22.7294 79.3918 22.3842ZM77.78 25.1954H77.2093V22.5349H77.7862C78.241 22.5349 78.5922 22.6603 78.8305 22.8862C79.0688 23.109 79.2005 23.4385 79.2037 23.862C79.2037 24.295 79.072 24.6212 78.8337 24.8471C78.5922 25.0699 78.241 25.1954 77.78 25.1954Z" fill="#003F7C"/>
<path d="M44.4902 30.1178C44.2331 29.9296 43.9007 29.8292 43.5682 29.7507C43.2986 29.688 43.0728 29.6378 42.9254 29.5594C42.7812 29.4778 42.7122 29.3931 42.7091 29.2049C42.7091 29.048 42.775 28.9256 42.8972 28.8347C43.0195 28.7436 43.2045 28.6872 43.4366 28.6872C43.8599 28.6872 44.2205 28.9037 44.4118 29.1766L44.4338 29.208H44.4745L44.5247 29.1986C44.5749 29.1797 44.647 29.1359 44.7128 29.07C44.7787 29.0041 44.8351 28.9099 44.8383 28.7939C44.8351 28.6118 44.6972 28.4268 44.4619 28.2793C44.2236 28.135 43.8787 28.0283 43.4366 28.0283C43.0101 28.0283 42.6432 28.1475 42.383 28.3609C42.1227 28.5711 41.9658 28.8785 41.969 29.23C41.9658 29.641 42.1384 29.9202 42.3861 30.099C42.6338 30.2779 42.9474 30.3657 43.2484 30.4348C43.5056 30.4943 43.7439 30.5508 43.907 30.6387C44.07 30.7297 44.1578 30.8301 44.1609 31.0214C44.1609 31.194 44.095 31.3164 43.9727 31.4074C43.8474 31.4983 43.6498 31.5516 43.3927 31.5516C42.8847 31.5516 42.4958 31.2944 42.2858 30.99L42.2826 30.9869L42.2795 30.9838L42.2167 30.9555C42.1728 30.9587 42.1509 30.9713 42.1164 30.99C42.0662 31.0183 42.0098 31.0654 41.9596 31.125C41.9094 31.1846 41.8687 31.2662 41.8687 31.3603C41.8718 31.5611 42.0224 31.765 42.2795 31.9282C42.5397 32.0913 42.9161 32.2074 43.3958 32.2074C43.8599 32.2074 44.2393 32.0944 44.509 31.8811C44.7787 31.6678 44.926 31.354 44.926 30.9776C44.9198 30.5853 44.7441 30.303 44.4902 30.1178Z" fill="#003F7C"/>
<path d="M68.0904 30.1178C67.8333 29.9296 67.504 29.8292 67.1685 29.7507C66.8988 29.688 66.673 29.6378 66.5256 29.5594C66.3813 29.4778 66.3124 29.3931 66.3093 29.2049C66.3093 29.048 66.3751 28.9256 66.4974 28.8347C66.6197 28.7436 66.8047 28.6872 67.0367 28.6872C67.4601 28.6872 67.8207 28.9037 68.012 29.1766L68.0339 29.208H68.0716L68.1218 29.1986C68.1719 29.1797 68.2441 29.1359 68.3099 29.07C68.3757 29.0041 68.4321 28.9099 68.4353 28.7939C68.4321 28.6118 68.2942 28.4268 68.059 28.2793C67.8207 28.135 67.4758 28.0283 67.0336 28.0283C66.6071 28.0283 66.2402 28.1475 65.98 28.3609C65.7197 28.5711 65.563 28.8785 65.5661 29.23C65.563 29.641 65.7354 29.9202 65.9831 30.099C66.2309 30.2779 66.5444 30.3657 66.8455 30.4348C67.1026 30.4943 67.3409 30.5508 67.504 30.6387C67.667 30.7297 67.7549 30.8301 67.7549 31.0214C67.7549 31.194 67.6922 31.3164 67.5667 31.4074C67.4413 31.4983 67.2469 31.5516 66.9866 31.5516C66.4786 31.5516 66.0898 31.2944 65.8796 30.99L65.8765 30.9869L65.8734 30.9838L65.8076 30.9555C65.7636 30.9587 65.7417 30.9713 65.7072 30.99C65.657 31.0183 65.6006 31.0654 65.5504 31.125C65.5002 31.1846 65.4595 31.2662 65.4595 31.3603C65.4626 31.5611 65.6131 31.765 65.8734 31.9282C66.1337 32.0913 66.5099 32.2074 66.9898 32.2074C67.4539 32.2074 67.8333 32.0944 68.103 31.8811C68.3726 31.6678 68.52 31.354 68.52 30.9776C68.52 30.5853 68.3444 30.303 68.0904 30.1178Z" fill="#003F7C"/>
<path d="M48.2689 31.4388H46.3499V30.4128H47.7892C47.8958 30.4128 47.9867 30.3877 48.0526 30.3281C48.1185 30.2685 48.1498 30.1774 48.1498 30.0833V30.0645C48.1498 29.9704 48.1216 29.8825 48.0558 29.8261C47.9899 29.7696 47.899 29.7445 47.7892 29.7445H46.3499V28.8095H48.2345C48.3411 28.8095 48.432 28.7844 48.501 28.7248C48.5669 28.6652 48.5982 28.5742 48.5982 28.4769V28.4424C48.5982 28.3483 48.57 28.2605 48.5042 28.1978C48.4383 28.1381 48.3443 28.1099 48.2376 28.1099H45.9924C45.8764 28.1099 45.7729 28.1507 45.7008 28.2291C45.6287 28.3044 45.5878 28.4142 45.591 28.5335V31.7179C45.591 31.8372 45.6286 31.9439 45.7039 32.0191C45.776 32.0945 45.8795 32.1353 45.9955 32.1321H48.2752C48.3819 32.1321 48.4759 32.1039 48.5386 32.0412C48.6045 31.9784 48.6296 31.8874 48.6296 31.787V31.7556C48.6296 31.6615 48.6014 31.5737 48.5355 31.5171C48.4634 31.4607 48.3724 31.4388 48.2689 31.4388Z" fill="#003F7C"/>
<path d="M52.2171 29.346C52.2171 28.9476 52.0822 28.6307 51.8188 28.4205C51.5554 28.2103 51.176 28.1099 50.6931 28.1099H49.5924C49.4764 28.1099 49.373 28.1507 49.3009 28.2291C49.2287 28.3044 49.1879 28.4111 49.1911 28.5335V31.7682C49.1911 31.8812 49.2162 31.9784 49.2726 32.0505C49.3322 32.1227 49.4231 32.1603 49.5235 32.1603H49.6081C49.7116 32.1603 49.8057 32.1258 49.8653 32.0599C49.9249 31.9941 49.953 31.9031 49.953 31.8058V30.623H50.2698L51.3078 31.8937C51.3767 31.9846 51.4426 32.0505 51.5178 32.0945C51.593 32.1384 51.6777 32.1603 51.7687 32.1603C51.9035 32.1603 52.0133 32.107 52.0854 32.0474C52.123 32.0161 52.1513 31.9846 52.1701 31.9533C52.1889 31.9219 52.2045 31.8905 52.2045 31.8497L52.1826 31.787L51.1353 30.5415C51.4582 30.4944 51.7216 30.3814 51.9067 30.1963C52.1105 29.9829 52.2171 29.6912 52.2171 29.346ZM51.4489 29.3742C51.4489 29.5688 51.3893 29.7131 51.2701 29.8166C51.1509 29.9202 50.9597 29.9829 50.6868 29.9829H49.9468V28.7656H50.668C50.944 28.7656 51.1384 28.8221 51.2639 28.9225C51.383 29.0229 51.4457 29.1672 51.4489 29.3742Z" fill="#003F7C"/>
<path d="M55.751 28.088C55.5911 28.0848 55.4155 28.1852 55.3402 28.4205L54.3556 31.1752L53.3709 28.4205C53.302 28.1978 53.1264 28.0848 52.9414 28.0911C52.8316 28.0911 52.7281 28.1288 52.6497 28.1727C52.6089 28.1947 52.5776 28.2197 52.5494 28.2448C52.5243 28.2731 52.4992 28.2982 52.4961 28.3515L52.5055 28.3892L53.8946 31.8937V31.8968C53.9323 31.9879 53.9792 32.06 54.0546 32.1102C54.1298 32.1604 54.2208 32.1761 54.3399 32.1761C54.4622 32.1761 54.5563 32.1573 54.6315 32.1102C54.7068 32.06 54.7538 31.9847 54.7914 31.8968L56.1775 28.386V28.3797L56.1806 28.3546C56.1775 28.3013 56.1555 28.2762 56.1304 28.248C56.0552 28.1664 55.9141 28.088 55.751 28.088Z" fill="#003F7C"/>
<path d="M57.0337 28.0881H56.949C56.8487 28.0881 56.7608 28.1164 56.6981 28.1823C56.6354 28.2482 56.6104 28.3391 56.6104 28.4427V31.8029C56.6104 31.9065 56.6354 31.9974 56.6981 32.0633C56.7608 32.1292 56.8487 32.1574 56.949 32.1574H57.0337C57.134 32.1574 57.2281 32.1292 57.2908 32.0633C57.3535 31.9974 57.3786 31.9065 57.3786 31.8029V28.4427C57.3786 28.3391 57.3535 28.2482 57.2908 28.1823C57.2281 28.1164 57.1372 28.085 57.0337 28.0881Z" fill="#003F7C"/>
<path d="M61.408 30.9085C61.3139 30.8488 61.2199 30.8238 61.154 30.8206L61.1195 30.8238C61.107 30.8269 61.0819 30.8332 61.0631 30.874C60.9157 31.2567 60.5112 31.5015 60.0126 31.5015C59.2757 31.4983 58.7426 30.9367 58.7394 30.1147C58.7394 29.7006 58.8712 29.3554 59.0938 29.1138C59.3165 28.8723 59.6269 28.7343 60 28.7343C60.414 28.7343 60.8247 28.9319 61.0317 29.2958C61.0536 29.3272 61.0724 29.3304 61.0819 29.3335L61.1132 29.3367C61.1728 29.3335 61.2606 29.3115 61.3547 29.2488C61.4456 29.186 61.5303 29.0793 61.5303 28.9225C61.5272 28.7436 61.3892 28.5335 61.132 28.3515C60.8749 28.1695 60.4955 28.0283 59.9937 28.0283C59.3948 28.0283 58.8837 28.2448 58.5199 28.6181C58.1593 28.9915 57.9492 29.5154 57.9492 30.1273C57.9492 30.7328 58.1562 31.2536 58.5136 31.6238C58.8712 31.994 59.3792 32.2074 59.9749 32.2074C60.5049 32.2074 60.9062 32.0474 61.1728 31.8466C61.4393 31.6458 61.5836 31.4105 61.5867 31.2285C61.5899 31.078 61.4989 30.9681 61.408 30.9085Z" fill="#003F7C"/>
<path d="M64.7949 31.4388H62.8757V30.4128H64.3151C64.4217 30.4128 64.5127 30.3877 64.5816 30.3281C64.6475 30.2685 64.6788 30.1774 64.6757 30.0833V30.0645C64.6757 29.9704 64.6475 29.8825 64.5816 29.8261C64.5158 29.7696 64.4248 29.7445 64.3151 29.7445H62.8757V28.8095H64.7573C64.8638 28.8095 64.9548 28.7844 65.0237 28.7248C65.0896 28.6652 65.121 28.5742 65.121 28.4769V28.4424C65.121 28.3483 65.0928 28.2605 65.0269 28.1978C64.9611 28.1349 64.867 28.1099 64.7603 28.1099H62.5151C62.3991 28.1099 62.2956 28.1507 62.2236 28.2291C62.1514 28.3044 62.1138 28.4142 62.1138 28.5335V31.7179C62.1138 31.8372 62.1514 31.9439 62.2236 32.0191C62.2956 32.0945 62.4023 32.1353 62.5151 32.1321H64.7949C64.9015 32.1321 64.9956 32.1039 65.0583 32.0412C65.1242 31.9784 65.1492 31.8874 65.1492 31.787V31.7556C65.1492 31.6615 65.121 31.5737 65.0551 31.5171C64.9924 31.4607 64.9015 31.4388 64.7949 31.4388Z" fill="#003F7C"/>
</g>
<defs>
<clipPath id="clip0_24872_5">
<rect width="80" height="39.1054" fill="white" transform="translate(0 0.450195)"/>
</clipPath>
</defs>
</svg>
