<svg width="145" height="45" viewBox="0 0 145 45" fill="none" xmlns="http://www.w3.org/2000/svg">
<path d="M14.9217 19.6143C7.5155 19.6143 1.24591 24.7412 1.24591 31.3513C1.24591 33.4314 1.90893 35.5737 3.22405 37.5366C6.73589 34.2371 9.81423 28.1836 11.0018 21.0168C11.1439 20.9619 12.1822 20.7275 13.0128 20.6726C13.0128 21.7053 12.1348 37.0862 6.71404 42.5354C2.67031 39.8511 0 35.2368 0 30C0 22.8442 4.98726 16.8567 11.6576 15.3589C12.0146 10.5505 12.0146 8.59131 12.0328 6.1853H13.2168C13.2168 6.21826 13.1767 12.9126 13.1476 15.1099C13.5556 15.0586 13.9709 15.0256 14.3862 15.011C14.3862 11.1658 14.4008 4.09424 14.4153 0H15.4208C15.4354 4.09424 15.4536 11.1658 15.4536 15.011C15.8725 15.0256 16.2842 15.0586 16.6958 15.1099C16.6667 12.9163 16.6193 6.21826 16.6193 6.1853H17.807C17.8215 8.59131 17.8215 10.5542 18.1785 15.3589C24.8561 16.8567 29.8398 22.8442 29.8398 30C29.8398 35.2368 27.1731 39.8511 23.1294 42.5354C17.7086 37.0862 16.8306 21.7053 16.8306 20.6726C17.6612 20.7275 18.6995 20.9619 18.8452 21.0168C20.0292 28.1836 23.1075 34.2371 26.6157 37.5366C27.9345 35.5774 28.5939 33.4314 28.5939 31.3513C28.6011 24.7412 22.3352 19.6143 14.9217 19.6143ZM10.2915 44.2603C12.4627 40.4773 13.6722 33.2336 14.1385 20.5518H15.7122C16.1785 33.2373 17.388 40.4773 19.5629 44.2603C18.102 44.74 16.5428 45 14.9217 45C13.3079 45 11.7487 44.74 10.2915 44.2603Z" fill="#00377B"/>
<path d="M129.135 37.1739H124.403V26.8431L118.854 37.1739H113.173V22.5H117.936V32.5991L123.346 22.5H129.135V37.1739ZM112.224 37.1739H105.711C102.137 37.1739 99.3483 34.2346 99.3483 30.0369C99.3483 25.3394 102.137 22.5 105.757 22.5H112.224V26.1571H108.03C105.476 26.1571 104.098 26.9294 104.098 29.9642C104.098 32.9716 105.49 33.5304 108.03 33.5304H112.224V37.1739ZM46.8251 37.1739H41.6776L44.0231 33.0261L38.1616 22.5H43.4447L46.4952 28.7603L49.5548 22.5H54.6977L46.8251 37.1739ZM138.897 33.7576C139.95 33.7576 139.95 32.9262 139.95 32.5809C139.95 32.2402 139.95 31.4952 138.883 31.4952H134.838V33.7576H138.897ZM139.683 28.0743C144.677 28.0743 144.677 30.9273 144.695 32.5173C144.695 34.1982 144.677 37.1739 139.724 37.1739H130.102V22.5H143.967V26.1571H134.834V28.0743H139.683ZM76.2864 26.6614L76.2728 26.6205L74.7905 30.7955H77.8003L76.2864 26.6614ZM67.5054 37.1739L73.6471 22.5H78.9573L84.0279 34.7207L89.1618 22.5H94.368L100.587 37.1739H95.5521L91.783 26.6069L88.0184 37.1739H80.0509L78.9211 34.1574H73.6471L72.4902 37.1739H67.5054ZM59.791 26.139V29.2918H63.1895C63.7724 29.2918 65.1147 29.2918 65.1147 27.6609C65.1147 26.1435 63.7679 26.1435 63.2347 26.1435H59.791V26.139ZM59.8045 37.1739H55.0773V22.5136L64.8616 22.5C69.8599 22.5 69.8599 26.6205 69.8599 27.5427C69.8599 28.5195 69.8599 32.9353 64.8616 32.9353H59.8045V37.1739Z" fill="#00377B"/>
</svg>
