<svg width="146" height="30" viewBox="0 0 146 30" fill="none" xmlns="http://www.w3.org/2000/svg">
<g clip-path="url(#clip0_24872_7)">
<path d="M140.992 5.81396L136.011 11.4147V5.81396H132.406V19.9525H136.011V14L141.343 19.9525H146L139.441 12.5445L145.525 5.81396H140.992Z" fill="#EF3124"/>
<path d="M126.049 11.087H121.068V5.81396H117.461V19.9525H121.068V14.3779H126.049V19.9525H129.654V5.81396H126.049V11.087Z" fill="#EF3124"/>
<path d="M21.4051 13.4733C21.3189 16.1108 20.9803 16.6375 19.5034 16.6375V19.9525H20.0545C23.7395 19.9525 24.6252 18.0427 24.7615 13.799L24.9118 9.10285H28.3664V19.9525H31.9713V5.81396H21.6576L21.4051 13.4733Z" fill="#EF3124"/>
<path d="M40.9306 10.108H38.3276V5.81396H34.7227V19.9546H40.9807C44.9102 19.9546 46.3129 17.3934 46.3129 14.981C46.3129 11.867 44.3591 10.108 40.9306 10.108ZM40.654 16.8386H38.3256V13.2481H40.654C41.9064 13.2481 42.6559 13.801 42.6559 14.981C42.6579 16.2616 41.9325 16.8386 40.654 16.8386Z" fill="#EF3124"/>
<path d="M58.0532 5.48625V0.237305H54.4483V5.48625C50.3184 5.83806 47.5391 8.77714 47.5391 12.8702C47.5391 16.9893 50.3184 19.9284 54.4483 20.2802V25.6055H58.0532V20.2802C62.1832 19.9545 64.9625 16.9893 64.9625 12.8702C64.9625 8.75101 62.1852 5.81393 58.0532 5.48625ZM54.4483 16.8647C52.4465 16.5872 51.1941 15.0815 51.1941 12.8722C51.1941 10.6628 52.4465 9.15508 54.4483 8.87967V16.8647ZM58.0532 16.8647V8.87766C60.0551 9.15307 61.3075 10.6608 61.3075 12.8702C61.3075 15.0795 60.0571 16.5872 58.0532 16.8647Z" fill="#EF3124"/>
<path d="M78.4825 15.6083V10.8619C78.4825 7.39615 76.2803 5.21094 72.5752 5.21094C68.7459 5.21094 66.718 7.52281 66.5416 9.93318H70.1966C70.3209 9.40648 70.8719 8.50183 72.5752 8.50183C73.9779 8.50183 74.8776 9.15518 74.8776 10.8619H71.2968C68.0926 10.8619 66.189 12.5446 66.189 15.357C66.189 18.2961 68.271 20.3044 71.2707 20.3044C73.4709 20.3044 74.6933 19.2611 75.2263 18.471C75.7012 19.4259 76.7532 19.9526 78.1299 19.9526H79.3823V16.6879C78.733 16.6879 78.4825 16.3863 78.4825 15.6083ZM74.8776 14.6795C74.8776 16.3119 73.7254 17.2407 72.2245 17.2407C70.922 17.2407 69.8961 16.7642 69.8961 15.357C69.8961 13.9759 71.0222 13.7508 71.9981 13.7508H74.8776V14.6795Z" fill="#EF3124"/>
<path d="M93.9301 7.82224H89.9004V3.82975H99.2383V0.237305H86.1191V19.9525H93.9301C98.2604 19.9525 100.739 17.7934 100.739 13.8251C100.739 10.0838 98.2604 7.82224 93.9301 7.82224ZM93.7538 16.3862H89.8984V11.2639H93.7538C95.7556 11.2639 96.8838 12.1927 96.8838 13.8251C96.8838 15.5077 95.7576 16.3862 93.7538 16.3862Z" fill="#EF3124"/>
<path d="M114.533 15.6083V10.8619C114.533 7.39615 112.331 5.21094 108.626 5.21094C104.797 5.21094 102.769 7.52281 102.592 9.93318H106.247C106.372 9.40648 106.923 8.50183 108.626 8.50183C110.029 8.50183 110.928 9.15518 110.928 10.8619H107.348C104.143 10.8619 102.24 12.5446 102.24 15.357C102.24 18.2961 104.322 20.3044 107.321 20.3044C109.522 20.3044 110.744 19.2611 111.277 18.471C111.752 19.4259 112.804 19.9526 114.181 19.9526H115.433V16.6879C114.784 16.6879 114.533 16.3863 114.533 15.6083ZM110.928 14.6795C110.928 16.3119 109.776 17.2407 108.275 17.2407C106.973 17.2407 105.947 16.7642 105.947 15.357C105.947 13.9759 107.073 13.7508 108.049 13.7508H110.928V14.6795Z" fill="#EF3124"/>
<path d="M19.277 25.9814H0V30.0001H19.277V25.9814Z" fill="#EF3124"/>
<path d="M13.1433 2.94311C12.5923 1.29867 11.959 0 9.78888 0C7.61872 0 6.94343 1.29264 6.36632 2.94311L0.400879 19.9524H4.35647L5.73311 15.9097H13.3437L14.6202 19.9524H18.8262L13.1433 2.94311ZM6.88532 12.4941L9.5885 4.43275H9.68869L12.2416 12.4941H6.88532Z" fill="#EF3124"/>
</g>
<defs>
<clipPath id="clip0_24872_7">
<rect width="146" height="30" fill="white"/>
</clipPath>
</defs>
</svg>
