<svg width="151" height="25" viewBox="0 0 151 25" fill="none" xmlns="http://www.w3.org/2000/svg">
<path fill-rule="evenodd" clip-rule="evenodd" d="M0 15.1389C0 20.0489 2.72793 25 8.83656 25C14.9396 25 17.6728 20.0489 17.6728 15.1389C17.6728 11.7853 16.5519 7.92365 14.6811 4.80376C12.8617 1.79161 10.6754 0 8.83656 0C6.99207 0 4.8053 1.79161 3.00163 4.80376C1.1216 7.92365 0 11.7853 0 15.1389ZM62.7391 7.36618H56.5535V1.33934H75.5517V7.36618H69.3664L69.3661 23.6607H62.7388L62.7391 7.36618ZM89.6871 7.36626H99.408V1.33944H89.688C80.7567 1.33944 75.9885 5.82601 75.9885 12.5001C75.9885 19.1742 80.7567 23.6609 89.688 23.6609H99.408V17.634H89.6871C85.5545 17.634 82.8365 16.1413 82.8365 12.5001C82.8365 8.85896 85.5545 7.36626 89.6871 7.36626ZM39.5394 14.6628L43.0726 1.33944H54.7836V23.6609H48.1566V5.4934L43.3389 23.6609H35.7401L30.9255 5.50474V23.6609H24.2981V1.33944H36.0063L39.5394 14.6628ZM111.496 7.80947H109.158V9.99291H111.496C112.088 9.99291 112.44 9.68581 112.44 9.11948V8.71504C112.44 8.13264 112.136 7.80947 111.496 7.80947ZM112.087 12.5001H106.037V1.33914H114.937V4.00829H109.158V5.46381H112.087C114.537 5.46381 115.722 6.69317 115.722 8.86056C115.722 11.1413 114.537 12.5001 112.087 12.5001ZM122.923 7.93859H120.458L121.69 3.81424L122.923 7.93859ZM127.661 12.5001L124.251 1.33944H119.609L116.199 12.5001H119.113L119.737 10.3649H123.643L124.284 12.5001H127.661ZM135.552 12.5001V8.18144H131.982V12.5001H128.78V1.33944H131.982V5.43166H135.552V1.33944H138.754V12.5001H135.552ZM144.437 5.43156H143.876V1.33934H140.674V12.5H143.876V8.18135H144.34L147.302 12.5H151L146.998 6.66094L150.68 1.33934H147.302L144.437 5.43156Z" fill="#E30611"/>
</svg>
