<svg width="108" height="33" viewBox="0 0 108 33" fill="none" xmlns="http://www.w3.org/2000/svg">
<g clip-path="url(#clip0_24872_4)">
<path d="M21.9844 0L10.9927 11.0003H21.9844V33L32.9771 22.0261V0H21.9844Z" fill="#EA5616"/>
<path d="M10.9927 33L21.9854 21.9997H10.9927V0L0 10.9739V33H10.9927Z" fill="#2C2D84"/>
<path d="M43.9702 27.4996H49.7408V10.4494H58.5341V27.4996H64.3047V5.49995H43.9702V27.4996ZM100.028 13.7428H95.0972V10.4494H106.076V5.49995H89.3267V27.5006C89.3267 27.5006 97.559 27.5006 100.303 27.5006C104.703 27.5006 108 25.2929 108 20.6217C108 15.9417 104.702 13.7428 100.028 13.7428ZM99.4783 22.8245H95.0982V18.4287H99.4783C100.839 18.4287 102.218 18.9657 102.218 20.6207C102.218 22.2758 100.839 22.8245 99.4783 22.8245ZM78.4299 22.8118C74.5787 22.8118 72.4126 19.9858 72.4126 16.4924C72.4126 13.688 73.9892 10.1672 78.3203 10.1672C81.0239 10.1672 82.7679 11.8213 83.3867 12.5915L86.8963 9.07951C84.7792 6.55138 81.6006 4.94141 78.0461 4.94141C71.6714 4.94141 66.6411 9.66255 66.6411 16.4915C66.6411 22.8706 71.6714 28.0415 78.0461 28.0415C81.8621 28.0415 85.2443 26.1866 87.3457 23.3302L83.8137 19.7957C82.6974 21.5487 80.8741 22.8118 78.4299 22.8118Z" fill="#2C2D84"/>
</g>
<defs>
<clipPath id="clip0_24872_4">
<rect width="108" height="33" fill="white"/>
</clipPath>
</defs>
</svg>
