<svg width="185" height="33" viewBox="0 0 185 33" fill="none" xmlns="http://www.w3.org/2000/svg">
<path fill-rule="evenodd" clip-rule="evenodd" d="M40.3669 24.2035C40.6304 24.1808 41.0239 24.1546 41.2979 24.1546C41.774 24.1546 43.3707 24.1546 43.3707 25.5944C43.3707 26.2148 43.109 27.2527 41.5087 27.2527C41.0063 27.2527 40.5426 27.1828 40.3669 27.1514V24.2035ZM38.7368 20.3715C39.2445 20.7245 39.2445 21.1666 39.2445 21.4706V26.9644C39.2445 27.2702 39.2445 27.707 38.7368 28.0652H41.4086C42.0726 28.0652 44.6355 27.9953 44.6355 25.6119C44.6355 24.1633 43.5903 23.3386 41.8056 23.3386C41.442 23.3386 40.7306 23.3962 40.3669 23.4172V21.2539H42.6751C43.0598 21.2539 43.4937 21.2714 43.8345 21.6366V20.3418C43.7115 20.3628 43.5762 20.3715 43.4357 20.3715H38.7368Z" fill="#61553F"/>
<path fill-rule="evenodd" clip-rule="evenodd" d="M48.8936 21.3709L50.0969 24.4026H47.7097L48.8936 21.3709ZM47.8625 20.3714C48.3122 20.5811 48.1594 20.9969 48.1155 21.1088L45.9109 26.669C45.7054 27.1967 45.4823 27.6894 44.9097 28.0651H46.9912C46.4748 27.6982 46.5767 27.2526 46.7295 26.8647L47.4199 25.14H50.385L51.2211 27.2037C51.3178 27.457 51.4038 27.8327 50.8891 28.0634H53.2588C52.716 27.7751 52.4982 27.3609 52.319 26.9293L49.6701 20.3696H47.8625V20.3714Z" fill="#61553F"/>
<path fill-rule="evenodd" clip-rule="evenodd" d="M59.7074 23.405V21.4707C59.7074 21.109 59.6951 20.7246 59.1997 20.3716H61.334C60.8404 20.7246 60.8316 21.109 60.8316 21.4707V26.9645C60.8316 27.3262 60.8404 27.7071 61.334 28.0653H59.1997C59.6933 27.7071 59.7074 27.3279 59.7074 26.9645V24.2805H55.4669V26.9645C55.4669 27.3262 55.481 27.7071 55.9746 28.0653H53.8403C54.3339 27.7071 54.348 27.3279 54.348 26.9645V21.4707C54.348 21.109 54.3339 20.7246 53.8403 20.3716H55.9728C55.4792 20.7246 55.4652 21.109 55.4652 21.4707V23.405H59.7074Z" fill="#61553F"/>
<path fill-rule="evenodd" clip-rule="evenodd" d="M65.0767 20.3716C64.5743 20.7246 64.5743 21.1666 64.5743 21.4707V26.9645C64.5743 27.2703 64.5743 27.7071 65.0767 28.0653H62.9424C63.45 27.7071 63.45 27.272 63.45 26.9645V21.4707C63.45 21.1666 63.45 20.7246 62.9424 20.3716H65.0767ZM66.51 21.7695C66.8069 21.3711 66.9597 21.1317 66.9597 20.9098C66.9597 20.6477 66.7489 20.4642 66.561 20.3733H68.6777L66.0006 23.8349L67.2689 25.5071C68.2702 26.8369 68.8287 27.5184 69.7879 28.0671L68.6109 28.1195C67.7414 28.1632 67.2988 27.4957 66.7472 26.7373L64.7886 24.0795L66.51 21.7695Z" fill="#61553F"/>
<path fill-rule="evenodd" clip-rule="evenodd" d="M3.75 20.0919C3.75205 20.0919 3.75205 20.0919 3.75 20.0919V20.0898V20.0919Z" fill="#61553F"/>
<path fill-rule="evenodd" clip-rule="evenodd" d="M16.2032 25.2714C16.2032 25.2714 17.0121 24.6388 17.0121 23.4759C17.0121 22.3131 16.055 21.531 14.8573 21.4307C13.9044 21.3488 12.3155 21.4676 11.8216 21.4676C11.3256 21.4676 10.6506 21.4676 10.1937 20.9025C10.1937 20.9025 10.8646 20.882 11.5726 20.7264C12.1406 20.6036 13.3384 20.1614 14.0464 20.1983C14.0464 20.1983 13.7994 19.8707 13.2334 19.8809C12.8794 19.8871 12.8033 19.9976 12.5625 20.0611C12.2312 20.143 11.6364 20.1634 11.2906 19.5124C11.2906 19.5124 11.7845 19.8973 12.2106 19.7765C12.5625 19.6742 12.5995 19.5308 12.7395 19.4223C12.8774 19.32 13.1388 19.2238 13.3857 19.2238C13.6327 19.2238 13.8673 19.2831 14.0814 19.4571C14.2933 19.6332 14.7152 19.5984 14.4703 19.3527C14.2234 19.1071 13.8673 18.8655 13.3384 18.8614C12.4452 18.8491 10.8317 19.0354 10.2657 19.32C9.86848 19.5145 9.56801 19.7642 9.42394 19.9423C9.37661 20.0079 9.26341 20.012 9.26959 19.8973C9.29428 19.3507 9.52479 17.8705 10.2163 17.2399C10.9346 16.5807 12.8136 16.1078 13.5524 15.9665C13.5524 15.9665 13.3631 15.5387 13.5833 15.2623C13.9023 14.8651 14.9519 14.1117 21.1673 14.1117C21.1673 14.1117 20.8277 14.384 20.6857 14.5949C20.6857 14.5949 23.1081 14.7259 24.4643 15.4035C24.6784 15.5079 25.1003 15.5468 25.2443 14.5949L24.8533 14.3471C24.8533 14.3471 24.8903 14.2038 24.9253 14.0298C24.9624 13.8538 24.9253 13.8189 24.7833 13.8906C24.6393 13.9602 24.6063 14.0298 24.6063 14.0298C24.6063 14.0298 24.2544 14.1752 24.2174 13.9582C24.1844 13.7473 23.7934 13.2191 23.0134 13.1126C23.0134 13.1126 23.4044 12.5844 24.3017 12.7011C24.3017 12.7011 24.3717 12.9591 24.5611 12.8895C24.7463 12.8199 25.0097 12.6561 25.0303 12.867C25.055 13.0778 25.1476 13.43 25.6415 12.8895C25.6415 12.8895 26.1375 13.1454 26.5862 12.9816C27.0307 12.8199 27.3539 12.5292 27.4588 11.8085C27.4794 11.6447 27.4794 11.5977 27.5967 11.4564C27.7161 11.3151 27.8066 11.1165 27.5967 10.9405C27.3168 10.7071 26.4442 10.2096 26.0902 10.0213C25.7383 9.83291 25.127 9.62204 25.0797 8.23399C25.0303 6.84798 24.5631 6.1212 22.8405 4.59189C22.8405 4.59189 22.8158 4.87441 22.8652 5.04024C22.8652 5.04024 22.3239 4.42811 21.0747 4.12511C21.0747 4.12511 21.2167 3.57439 21.2517 3.24274C21.2784 2.98683 21.0747 2.72068 20.6528 2.821C20.1918 2.92336 18.5638 3.52526 17.9999 3.66243C17.434 3.80778 13.713 5.08938 11.4655 7.22468C11.4655 7.22468 11.9471 5.89191 13.042 4.51819H13.04C12.2065 4.75158 11.4717 5.03205 10.7102 5.4108C9.51244 7.03019 8.00593 10.2178 8.00593 12.8977C8.00593 12.8977 7.28355 10.6969 7.8845 7.30862L7.87216 7.32295C7.09832 8.00469 6.42121 8.75195 5.82643 9.59542C5.68443 11.4994 5.67208 14.0257 7.22798 17.5552C7.22798 17.5552 5.65767 16.4251 4.22731 12.6315L4.21908 12.652C3.77454 13.8701 3.50287 15.1374 3.43701 16.4947C4.71096 18.8184 6.62702 21.1482 10.4777 23.2282C10.4777 23.2282 7.31648 22.7696 3.7519 20.0918C4.08325 21.5515 4.64922 22.8966 5.42305 24.127C7.36587 24.9766 10.3727 26.0637 14.6803 25.8139C14.6803 25.8139 12.3485 27.1324 7.57991 26.7454C7.57991 26.7454 8.40931 27.767 10.6032 28.8152C12.5851 29.7611 15.168 29.1735 16.0283 28.6023C17.0635 27.9185 18.1954 26.2418 17.6501 24.1474C17.6501 24.1454 17.2261 24.9561 16.2032 25.2714ZM22.8673 8.25856C23.3633 8.30564 23.4085 8.37525 23.5752 8.42234C23.7296 8.46738 24.0692 8.54927 24.1885 7.6239C24.2009 7.57681 24.2544 7.59319 24.2606 7.62595C24.3079 8.0784 24.3203 8.57793 24.2812 8.82156C24.2318 9.10613 24.0918 9.1266 23.8798 9.0099C23.6637 8.88707 23.5958 8.84408 23.4765 8.82156C23.3633 8.79904 23.2459 8.84408 23.3386 9.0099C23.4291 9.17369 23.5958 9.64251 23.5238 9.97212C23.5238 9.97212 22.9949 8.96282 22.3713 8.46533C21.9864 8.16233 22.7108 8.24218 22.8673 8.25856ZM18.4877 5.48245C19.0475 4.54685 19.8769 4.04936 20.0662 3.93267C20.2515 3.81392 20.3214 3.87739 20.2515 3.95519C19.9942 4.26023 19.6628 4.80276 19.6176 4.98906C19.5661 5.17741 19.5929 5.22245 19.7102 5.27158C19.8275 5.31662 19.8275 5.43332 19.6608 5.45584C19.4961 5.48041 19.1195 5.54387 18.7552 5.67285C18.4609 5.77521 18.4177 5.60119 18.4877 5.48245ZM14.5074 12.0644C15.4582 9.84724 17.4731 7.48059 18.6976 6.49176L18.7223 6.56341C17.1211 8.39777 16.0839 10.9384 16.0839 10.9384C16.2485 10.8402 16.5778 10.7706 16.8145 10.6764C17.0491 10.5843 17.1211 10.7931 17.0738 10.9384C16.8474 11.612 16.5325 12.607 16.6498 13.0512C16.7671 13.4975 17.8744 13.7575 17.8744 13.7575C17.6645 13.7821 16.4667 13.8353 16.1785 13.9008C15.8904 13.9664 15.4253 14.0114 15.5199 13.4525C15.6373 12.7748 15.9912 11.5485 15.9912 11.5485C15.664 11.6427 14.9807 11.9703 14.742 12.1136C14.5074 12.2548 14.4353 12.2282 14.5074 12.0644Z" fill="#61553F"/>
<path fill-rule="evenodd" clip-rule="evenodd" d="M22.8282 22.514C22.4824 22.0964 21.97 21.5109 21.97 21.5109C22.466 21.7934 23.4086 21.9346 23.4086 21.9346C23.1493 21.7217 22.5586 21.0195 22.324 20.7329C21.6674 19.9488 20.5314 19.0726 19.6855 18.6918C18.0247 17.9404 16.2938 17.8442 16.0592 17.7991C15.8205 17.75 15.3286 17.8442 15.6311 17.3733C15.9378 16.9024 17.7283 15.5164 17.7283 15.5164C17.3517 15.5164 15.7032 15.6597 15.2072 15.7273C14.7132 15.799 14.6 15.6352 14.5733 15.3076C14.5733 15.3076 13.5813 16.2391 14.0567 16.7161C14.1287 16.7878 14.3387 16.8103 14.6 16.6936C14.8552 16.5749 15.3739 16.4091 15.5632 16.3886C15.5632 16.3886 15.1392 17.0458 15.0466 17.3283C14.954 17.6108 14.9293 17.7521 15.3739 17.8933C15.8225 18.0305 18.0843 18.7409 19.4715 19.6806C20.8607 20.6203 22.2993 21.822 23.3612 24.029C24.4211 26.2421 23.8366 27.9168 23.672 28.2239C24.4335 27.7407 25.125 27.1879 25.7692 26.5615L25.7568 26.5697C25.2053 24.7189 23.6782 23.5397 22.8282 22.514Z" fill="#61553F"/>
<path fill-rule="evenodd" clip-rule="evenodd" d="M27.8354 23.9673C28.2388 23.304 28.5763 22.6161 28.8583 21.8832C27.4959 20.7777 25.1044 18.8062 22.186 18.1265C22.184 18.1285 26.3495 19.7889 27.8354 23.9673Z" fill="#61553F"/>
<path fill-rule="evenodd" clip-rule="evenodd" d="M18.1133 30.205C18.9797 30.1026 19.8709 29.9102 20.6756 29.6461L20.6817 29.6441C21.1263 28.6081 21.6182 26.1453 21.0995 24.2393C21.1016 24.2372 21.1983 28.7228 18.1133 30.205Z" fill="#61553F"/>
<path fill-rule="evenodd" clip-rule="evenodd" d="M29.7329 16.9861C29.3336 16.8243 26.8681 16.1283 26.8681 16.1283C27.6934 16.0832 28.0226 15.4731 28.0226 15.4731C27.2467 15.682 26.0675 15.7761 25.0796 15.6349C25.0796 15.6349 27.3641 16.6217 29.6382 18.7754V18.7549C29.6979 18.2349 29.735 17.7047 29.735 17.1601C29.737 17.0946 29.737 17.0598 29.7329 16.9861Z" fill="#61553F"/>
<path d="M16.5881 33C7.43993 33 0 25.5991 0 16.501C0 7.40294 7.43993 0 16.5881 0C25.7362 0 33.1761 7.40294 33.1761 16.501C33.1761 25.5991 25.7341 33 16.5881 33ZM16.5881 1.22836C8.12115 1.22836 1.23484 8.07854 1.23484 16.501C1.23484 24.9235 8.12115 31.7737 16.5881 31.7737C25.0529 31.7737 31.9413 24.9235 31.9413 16.501C31.9413 8.07854 25.0529 1.22836 16.5881 1.22836Z" fill="#61553F"/>
<path fill-rule="evenodd" clip-rule="evenodd" d="M42.3117 12.3367H40.9287V14.1342C40.9287 14.8364 41.1015 15.1844 41.2168 15.3421H38.7368C38.848 15.1844 39.0538 14.8364 39.0538 14.1342V6.72714C39.0538 6.02493 38.848 5.68713 38.7368 5.52539H42.3117C44.8534 5.52539 46.4134 6.78856 46.4134 8.81741C46.4134 11.225 44.4356 12.3367 42.3117 12.3367ZM41.8363 6.58383H40.9287V11.2516H42.0091C43.2522 11.2516 44.448 10.7582 44.448 8.80512C44.448 7.0199 43.1493 6.58383 41.8363 6.58383Z" fill="#61553F"/>
<path fill-rule="evenodd" clip-rule="evenodd" d="M55.5701 7.9863L52.5447 15.0514C51.6639 17.111 50.8818 18.2902 49.1098 18.2902C48.0437 18.2902 47.2802 17.7149 46.8892 17.328L47.3646 16.3187C47.8256 17.109 48.4204 17.4386 49.1654 17.4386C50.1944 17.4386 50.8407 16.5664 51.5075 14.9777L48.3133 7.9863C48.1034 7.52157 47.8997 7.13259 47.6671 6.94629H50.1677C50.0792 7.17354 50.0792 7.36393 50.3405 7.9863L52.4315 12.8363L54.4526 7.9863C54.6707 7.47858 54.7263 7.24314 54.6254 6.94629H56.1422C55.9056 7.24519 55.7594 7.53795 55.5701 7.9863Z" fill="#61553F"/>
<path fill-rule="evenodd" clip-rule="evenodd" d="M61.6289 7.59725C59.7252 7.59725 58.8876 9.38042 58.8876 11.1411C58.8876 13.7022 60.4147 14.7054 61.6289 14.7054C62.8247 14.7054 63.5882 14.1342 64.1933 13.3542L64.4999 14.0318C63.7508 15.0268 62.6065 15.5141 61.3819 15.5141C58.5233 15.5141 57.0518 13.5425 57.0518 11.1411C57.0518 8.54309 58.7703 6.78857 61.526 6.78857C62.5653 6.78857 63.1869 7.067 63.7323 7.067C64.0677 7.067 64.2674 7.03425 64.5143 6.92165L63.8352 8.47348C63.3474 7.87158 62.6086 7.59725 61.6289 7.59725Z" fill="#61553F"/>
<path fill-rule="evenodd" clip-rule="evenodd" d="M70.289 7.59725C68.3811 7.59725 67.5456 9.38042 67.5456 11.1411C67.5456 13.7022 69.0726 14.7054 70.289 14.7054C71.4806 14.7054 72.2482 14.1342 72.8533 13.3542L73.1558 14.0318C72.4067 15.0268 71.2665 15.5141 70.042 15.5141C67.1833 15.5141 65.7139 13.5425 65.7139 11.1411C65.7139 8.54309 67.4324 6.78857 70.1881 6.78857C71.2254 6.78857 71.8449 7.067 72.3944 7.067C72.7257 7.067 72.9295 7.03425 73.1723 6.92165L72.4932 8.47348C72.0013 7.87158 71.2645 7.59725 70.289 7.59725Z" fill="#61553F"/>
<path fill-rule="evenodd" clip-rule="evenodd" d="M77.1077 7.9863C77.1077 7.38236 77.2662 7.0896 77.367 6.94629H75.1196C75.2164 7.0896 75.3748 7.38236 75.3748 7.9863V14.3103C75.3748 14.9102 75.2164 15.1988 75.1196 15.3422H77.367C77.2641 15.1988 77.1077 14.9102 77.1077 14.3103V7.9863Z" fill="#61553F"/>
<path fill-rule="evenodd" clip-rule="evenodd" d="M83.1128 15.3401C82.8802 15.1681 82.5036 14.7648 82.1166 14.3083L79.0501 10.6068L81.8141 7.9863C82.4192 7.40488 82.6188 7.20629 82.9831 6.94629H80.6739C80.8468 7.19196 80.9024 7.48063 80.3858 7.9863L77.1958 11.0122L79.9516 14.3103C80.4126 14.8672 80.4126 15.1006 80.2397 15.3422H83.1128V15.3401Z" fill="#61553F"/>
<path fill-rule="evenodd" clip-rule="evenodd" d="M90.7424 15.3401C90.8453 15.1968 90.9852 14.9081 90.9852 14.3083V9.61389L87.1922 14.0913V14.3103C87.1922 14.9102 87.3507 15.1988 87.4577 15.3422H85.2041C85.3008 15.1988 85.4655 14.9102 85.4655 14.3103V7.9863C85.4655 7.38236 85.3029 7.0896 85.2041 6.94629H87.4577C87.3507 7.0896 87.1922 7.38236 87.1922 7.9863V12.65L90.9852 8.17261V7.9863C90.9852 7.38236 90.8453 7.0896 90.7424 6.94629H92.9631C92.8602 7.0896 92.7202 7.38236 92.7202 7.9863V14.3103C92.7202 14.9102 92.8602 15.1988 92.9631 15.3422H90.7424V15.3401Z" fill="#61553F"/>
<path fill-rule="evenodd" clip-rule="evenodd" d="M99.8883 5.62575C98.4312 5.62575 97.822 5.07299 97.822 4.55912C97.822 4.28274 97.9661 3.96951 98.1904 3.7832H98.9498C98.8202 3.98384 98.7502 4.14557 98.7502 4.39943C98.7502 4.68196 99.0939 5.21834 99.8904 5.21834C100.683 5.21834 101.016 4.684 101.016 4.39943C101.016 4.14352 100.942 3.98179 100.812 3.7832H101.576C101.794 3.96951 101.938 4.28274 101.938 4.55912C101.938 5.07299 101.345 5.62575 99.8883 5.62575ZM101.537 15.3401C101.629 15.1968 101.78 14.9081 101.78 14.3082V9.61384L97.9805 14.0912V14.3103C97.9805 14.9101 98.1431 15.1988 98.2398 15.3421H95.9883C96.0953 15.1988 96.2497 14.9101 96.2497 14.3103V7.98626C96.2497 7.38231 96.0953 7.08955 95.9883 6.94624H98.2419C98.1451 7.08955 97.9826 7.38231 97.9826 7.98626V12.6499L101.782 8.17256V7.98626C101.782 7.38231 101.634 7.08955 101.539 6.94624H103.753C103.65 7.08955 103.506 7.38231 103.506 7.98626V14.3103C103.506 14.9101 103.65 15.1988 103.753 15.3421H101.537V15.3401Z" fill="#61553F"/>
<path fill-rule="evenodd" clip-rule="evenodd" d="M116.386 6.24426C114.151 6.24426 113.039 8.33043 113.039 10.4023C113.039 13.4118 114.962 14.593 116.386 14.593C117.791 14.593 118.695 13.9297 119.403 13.0105L119.765 13.8028C118.886 14.9779 117.544 15.545 116.102 15.545C112.755 15.545 111.004 13.2214 111.004 10.4023C111.004 7.34978 113.025 5.28613 116.256 5.28613C117.485 5.28613 118.209 5.60755 118.858 5.60755C119.263 5.60755 119.491 5.5748 119.78 5.44787L118.975 7.27404C118.396 6.57182 117.547 6.24426 116.386 6.24426Z" fill="#61553F"/>
<path fill-rule="evenodd" clip-rule="evenodd" d="M127.911 8.33073C127.561 7.88443 127.055 7.87215 126.594 7.87215H125.24V14.3108C125.24 14.9107 125.398 15.1993 125.499 15.3426H123.245C123.348 15.1993 123.507 14.9107 123.507 14.3108V7.87215H122.366C121.735 7.87215 121.128 7.79435 120.36 8.33073L120.965 6.94678H128.51L127.911 8.33073Z" fill="#61553F"/>
<path fill-rule="evenodd" clip-rule="evenodd" d="M134.931 15.3406C135.034 15.1973 135.122 14.8677 134.869 14.3088L134.47 13.3855H130.619L130.21 14.3088C129.963 14.8656 130.056 15.1973 130.154 15.3406H128.469C128.656 15.1543 128.856 14.9086 129.131 14.3088L132.002 7.81073L131.976 7.74931C131.803 7.35214 131.613 7.11875 131.412 6.94678H133.488L136.732 14.3088C137.012 14.9086 137.211 15.1543 137.397 15.3406H134.931ZM132.552 9.03295L131.015 12.4949H134.069L132.552 9.03295Z" fill="#61553F"/>
<path fill-rule="evenodd" clip-rule="evenodd" d="M144.468 15.3406C144.571 15.1973 144.73 14.9086 144.73 14.3088V11.4733H141.184V14.3108C141.184 14.9107 141.357 15.1993 141.445 15.3426H139.191C139.294 15.1993 139.451 14.9107 139.451 14.3108V7.98679C139.451 7.38285 139.292 7.09009 139.191 6.94678H141.445C141.357 7.09009 141.184 7.38285 141.184 7.98679V10.5459H144.732V7.98679C144.732 7.38285 144.573 7.09009 144.47 6.94678H146.724C146.635 7.09009 146.463 7.38285 146.463 7.98679V14.3108C146.463 14.9107 146.635 15.1993 146.724 15.3426H144.468V15.3406Z" fill="#61553F"/>
<path fill-rule="evenodd" clip-rule="evenodd" d="M154.547 15.3406H151.124C150.49 15.3406 149.439 15.574 148.671 16.1063V14.8943C150.142 14.2207 150.457 13.324 150.457 11.7456V7.98679C150.457 7.38285 150.299 7.09009 150.198 6.94678H156.203C156.101 7.09009 155.942 7.38285 155.942 7.98679V13.4735C155.942 14.0713 156.193 14.5831 156.994 14.8472V16.1063C156.232 15.574 155.181 15.3406 154.547 15.3406ZM154.211 7.87214H152.019C151.746 7.87214 151.53 8.08711 151.53 8.34506V11.7456C151.53 12.976 151.353 13.8584 150.822 14.4214H153.721C153.997 14.4214 154.211 14.2023 154.211 13.928V7.87214Z" fill="#61553F"/>
<path fill-rule="evenodd" clip-rule="evenodd" d="M165.119 15.3406C165.222 15.1973 165.306 14.8677 165.064 14.3088L164.662 13.3855H160.803L160.398 14.3088C160.155 14.8656 160.244 15.1973 160.342 15.3406H158.657C158.844 15.1543 159.048 14.9086 159.324 14.3088L162.195 7.81073L162.158 7.74931C161.991 7.35214 161.804 7.11875 161.6 6.94678H163.676L166.922 14.3088C167.196 14.9086 167.397 15.1543 167.587 15.3406H165.119ZM162.74 9.03295L161.209 12.4949H164.257L162.74 9.03295Z" fill="#61553F"/>
<path fill-rule="evenodd" clip-rule="evenodd" d="M172.563 12.7672H171.367V14.3088C171.367 14.9086 171.544 15.1973 171.626 15.3406H169.379C169.476 15.1973 169.634 14.9086 169.634 14.3088V7.98679C169.634 7.38285 169.476 7.09009 169.379 6.94678C171.744 6.94678 172.563 6.94678 172.563 6.94678C174.746 6.94678 176.072 8.01545 176.072 9.75564C176.072 11.8111 174.382 12.7672 172.563 12.7672ZM172.161 7.85167H171.365V11.8439H172.305C173.353 11.8439 174.312 11.416 174.312 9.73926C174.312 8.21609 173.287 7.85167 172.161 7.85167Z" fill="#61553F"/>
<path fill-rule="evenodd" clip-rule="evenodd" d="M184.395 8.33073C184.045 7.88443 183.543 7.87215 183.081 7.87215H181.871V14.3108C181.871 14.9107 182.026 15.1993 182.127 15.3426H179.879C179.982 15.1993 180.134 14.9107 180.134 14.3108V7.87215H179.142C178.504 7.87215 177.899 7.79435 177.136 8.33073L177.741 6.94678H184.998L184.395 8.33073Z" fill="#61553F"/>
</svg>
