<svg width="174" height="27" viewBox="0 0 174 27" fill="none" xmlns="http://www.w3.org/2000/svg">
<path d="M23.9525 5.19922C24.5877 6.02105 25.1254 6.9139 25.5548 7.85984L13.3746 16.8453L8.28418 13.6519V9.81012L13.3746 13.0035L23.9525 5.19922Z" fill="#21A038"/>
<path d="M3.08914 13.381C3.08914 13.2086 3.09334 13.0374 3.10174 12.8671L0.0168011 12.7158C0.00630099 12.9365 3.728e-06 13.1593 3.728e-06 13.3841C-0.00130883 15.1409 0.343985 16.8806 1.01609 18.5035C1.68818 20.1264 2.67385 21.6005 3.91655 22.8413L6.10477 20.6525C5.14819 19.6991 4.38932 18.5658 3.8718 17.3179C3.35427 16.07 3.08829 14.7321 3.08914 13.381Z" fill="url(#paint0_linear_24872_9)"/>
<path d="M13.3719 3.09082C13.5441 3.09082 13.7152 3.09713 13.8853 3.10553L14.0396 0.0172361C13.8185 0.00672812 13.5959 0.00147477 13.3719 0.00147477C11.6156 -0.000668606 9.87624 0.344385 8.25362 1.01682C6.63099 1.68926 5.15707 2.67584 3.9165 3.91991L6.10473 6.10978C7.05749 5.15216 8.19002 4.39245 9.43718 3.87436C10.6844 3.35626 12.0215 3.08997 13.3719 3.09082Z" fill="url(#paint1_linear_24872_9)"/>
<path d="M13.3719 23.6717C13.1998 23.6717 13.0286 23.6717 12.8575 23.658L12.7031 26.7453C12.925 26.7565 13.148 26.7621 13.3719 26.7621C15.1275 26.7639 16.866 26.4186 18.4878 25.746C20.1096 25.0734 21.5825 24.0867 22.8221 22.8426L20.6381 20.6538C19.6852 21.6109 18.5528 22.3702 17.3058 22.8881C16.0589 23.406 14.722 23.6723 13.3719 23.6717Z" fill="url(#paint2_linear_24872_9)"/>
<path d="M19.168 4.88624L21.7678 2.96853C19.3916 1.0429 16.4254 -0.00534535 13.3677 2.04984e-05V3.09042C15.4382 3.08785 17.4607 3.71404 19.168 4.88624Z" fill="url(#paint3_linear_24872_9)"/>
<path d="M26.743 13.3808C26.7447 12.5769 26.6744 11.7743 26.533 10.9829L23.6549 13.1055C23.6549 13.197 23.6549 13.2884 23.6549 13.3808C23.6557 14.8186 23.3545 16.2405 22.771 17.5544C22.1875 18.8682 21.3345 20.0447 20.2676 21.0075L22.3435 23.3036C23.7306 22.0504 24.8391 20.5195 25.5969 18.8101C26.3549 17.1007 26.7454 15.251 26.743 13.3808Z" fill="#21A038"/>
<path d="M13.3718 23.6716C11.935 23.6721 10.5141 23.3706 9.20105 22.7867C7.88807 22.2027 6.71226 21.3493 5.74976 20.2817L3.45654 22.3581C4.70864 23.7465 6.23835 24.8559 7.94648 25.6146C9.6546 26.3733 11.503 26.7642 13.3718 26.762V23.6716Z" fill="url(#paint4_linear_24872_9)"/>
<path d="M6.47649 5.75401L4.40166 3.45801C3.01414 4.71096 1.90528 6.24177 1.14699 7.95118C0.388709 9.66058 -0.00206734 11.5104 8.22491e-06 13.3807H3.08915C3.08851 11.943 3.38972 10.5211 3.97324 9.20723C4.55677 7.89343 5.4096 6.71693 6.47649 5.75401Z" fill="url(#paint5_linear_24872_9)"/>
<path d="M77.1642 7.65263L80.9901 4.86377H68.1855V21.6224H80.9901V18.8336H71.8392V14.5408H79.6453V11.752H71.8392V7.65263H77.1642Z" fill="#21A038"/>
<path d="M59.5701 11.3922H55.1247V7.65134H62.2195L66.0431 4.854H51.4731V21.6127H59.0999C63.3758 21.6127 65.8298 19.6952 65.8298 16.3511C65.8298 13.1519 63.6071 11.3922 59.5701 11.3922ZM58.9354 18.8229H55.1247V14.1793H58.9354C61.2481 14.1793 62.3325 14.9575 62.3325 16.5011C62.3325 18.0447 61.1787 18.8229 58.9354 18.8229Z" fill="#21A038"/>
<path d="M90.4026 4.86133H83.4326V21.6199H87.0858V16.8725H90.4026C94.8495 16.8725 97.6004 14.5573 97.6004 10.858C97.6004 7.15874 94.8495 4.86133 90.4026 4.86133ZM90.3255 14.0815H87.0858V7.65232H90.3255C92.6646 7.65232 93.9555 8.79467 93.9555 10.8682C93.9555 12.9417 92.6646 14.0815 90.3255 14.0815Z" fill="#21A038"/>
<path d="M45.9908 17.6649C45.047 18.1705 43.9897 18.4323 42.9166 18.4261C39.7047 18.4261 37.3747 16.1574 37.3747 13.0333C37.3747 9.90915 39.7047 7.6355 42.9166 7.6355C44.0749 7.61603 45.2091 7.96354 46.1536 8.62731L48.7091 6.76521L48.5362 6.64372C47.0455 5.34696 45.0537 4.66016 42.7738 4.66016C40.301 4.66016 38.0587 5.48333 36.4577 6.98092C35.6482 7.75201 35.008 8.67992 34.5769 9.70673C34.1459 10.7336 33.9332 11.8372 33.9524 12.9489C33.9352 14.072 34.1469 15.1869 34.5748 16.2272C35.0027 17.2676 35.6379 18.2118 36.4427 19.0038C38.0511 20.5609 40.2884 21.4188 42.7438 21.4188C45.3093 21.4188 47.5516 20.5336 49.0699 18.922L46.7825 17.236L45.9908 17.6649Z" fill="#21A038"/>
<path d="M112.086 11.3922H107.643V7.65134H117.192V4.854H103.989V21.6127H111.606C115.881 21.6127 118.335 19.6952 118.335 16.3511C118.345 13.1519 116.123 11.3922 112.086 11.3922ZM111.452 18.8229H107.643V14.1793H111.452C113.764 14.1793 114.848 14.9575 114.848 16.5011C114.848 18.0447 113.705 18.8229 111.452 18.8229Z" fill="#21A038"/>
<path d="M159.87 21.5887H156.167V4.83008H159.87V11.8688H161.886L167.33 4.83008H171.527L165.07 12.8024L172.568 21.5887H167.654L162.143 14.9977H159.87V21.5887Z" fill="#21A038"/>
<path d="M131.792 18.4037H123.957L122.629 21.658H118.687L126.036 4.89941H129.976L137.206 21.658H133.12L131.792 18.4037ZM130.565 15.3672L127.897 8.85846L125.215 15.3672H130.565Z" fill="#21A038"/>
<path d="M142.191 4.89941V11.8975H149.856V4.89941H153.675V21.658H149.856V15.0546H142.191V21.658H138.373V4.89941H142.191Z" fill="#21A038"/>
<defs>
<linearGradient id="paint0_linear_24872_9" x1="4.54131" y1="22.4557" x2="1.16204" y2="12.6943" gradientUnits="userSpaceOnUse">
<stop offset="0.14" stop-color="#F1E813"/>
<stop offset="0.3" stop-color="#E6E418"/>
<stop offset="0.58" stop-color="#C9DA26"/>
<stop offset="0.89" stop-color="#A2CC39"/>
</linearGradient>
<linearGradient id="paint1_linear_24872_9" x1="4.79851" y1="4.46633" x2="13.4932" y2="1.15539" gradientUnits="userSpaceOnUse">
<stop offset="0.06" stop-color="#0FA7DF"/>
<stop offset="0.54" stop-color="#0098F8"/>
<stop offset="0.92" stop-color="#0290EA"/>
</linearGradient>
<linearGradient id="paint2_linear_24872_9" x1="12.4995" y1="24.8969" x2="22.3303" y2="22.6777" gradientUnits="userSpaceOnUse">
<stop offset="0.12" stop-color="#A2CC39"/>
<stop offset="0.28" stop-color="#86C239"/>
<stop offset="0.87" stop-color="#219F38"/>
</linearGradient>
<linearGradient id="paint3_linear_24872_9" x1="12.7251" y1="1.03506" x2="21.1305" y2="3.62698" gradientUnits="userSpaceOnUse">
<stop offset="0.06" stop-color="#0290EA"/>
<stop offset="0.79" stop-color="#0C89CA"/>
</linearGradient>
<linearGradient id="paint4_linear_24872_9" x1="4.23145" y1="21.9819" x2="13.3809" y2="25.3988" gradientUnits="userSpaceOnUse">
<stop offset="0.13" stop-color="#F1E813"/>
<stop offset="0.3" stop-color="#EAE616"/>
<stop offset="0.53" stop-color="#D8DF1F"/>
<stop offset="0.8" stop-color="#BAD52D"/>
<stop offset="0.98" stop-color="#A2CC39"/>
</linearGradient>
<linearGradient id="paint5_linear_24872_9" x1="1.15082" y1="13.7548" x2="4.82752" y2="4.19752" gradientUnits="userSpaceOnUse">
<stop offset="0.07" stop-color="#A2CC39"/>
<stop offset="0.26" stop-color="#81C45E"/>
<stop offset="0.92" stop-color="#0FA7DF"/>
</linearGradient>
</defs>
</svg>
