<svg width="164" height="43" viewBox="0 0 164 43" fill="none" xmlns="http://www.w3.org/2000/svg">
<path d="M47.944 20.1141L48.5745 18.1132L46.4884 18.178C46.3122 18.178 45.0311 18.142 43.7884 17.2486C43.881 17.2577 43.9736 17.2702 44.0681 17.2702C45.3474 17.2702 46.5847 16.5066 47.0808 15.4151L47.9785 13.4431C46.8537 13.4575 45.8252 13.317 45.8252 13.317C45.8161 13.3151 45.0057 13.2126 44.0681 12.2633C43.3957 11.5826 42.5636 11.2223 41.6622 11.2223C41.268 11.2223 40.9154 11.2925 40.612 11.388C40.6592 11.2277 40.7046 11.0656 40.7302 10.8981C41.0172 9.05204 39.818 7.6436 39.818 7.6455L38.2498 5.72018L37.2777 7.98223C37.274 7.98946 37.0287 8.51903 36.589 8.77831C36.4563 8.11371 36.1311 7.36632 35.4351 6.65128C34.1231 5.30408 32.526 5.10414 31.6901 5.10414C31.303 5.10414 31.0269 5.1456 30.9595 5.15638L29.0663 5.52569C29.1752 5.10604 29.4078 4.37654 29.833 3.71917L30.8779 2.10548L28.2485 2.40265L27.4108 0.639366L25.79 1.46789L24.291 0L22.7954 1.46789L21.1691 0.639366L20.3332 2.40265L17.7058 2.10548L18.7523 3.71917C19.1776 4.37654 19.4102 5.10414 19.5174 5.5238L17.7111 5.17083L17.6494 5.16005C17.5585 5.1456 17.2842 5.10414 16.8953 5.10414C16.0594 5.10414 14.4623 5.30586 13.1539 6.65128C12.4561 7.36455 12.1309 8.11371 11.9964 8.77831C11.5604 8.52258 11.3168 8.00024 11.3168 8.00024L10.3429 5.7255L8.74936 7.6635C8.55484 7.91377 7.59368 9.23765 7.85529 10.9018C7.8826 11.0675 7.92618 11.2295 7.97344 11.3899C7.67181 11.2944 7.31925 11.2242 6.925 11.2242C6.02369 11.2242 5.1915 11.5844 4.51736 12.2652C3.58327 13.2108 2.77649 13.317 2.78384 13.317C2.78384 13.317 1.93158 13.4682 0.612392 13.4448L1.50456 15.417C2.00069 16.5103 3.23984 17.2721 4.51736 17.2721C4.61366 17.2721 4.70628 17.2594 4.80081 17.2504C3.56154 18.1438 2.28047 18.1798 2.12597 18.1816L0 18.1132L0.643265 20.1123C0.966738 21.1426 2.04784 22.8499 4.11943 23.0336C3.89404 23.9702 3.39434 25.0184 2.29685 25.4704L0.714159 26.1169L1.57723 27.6064C2.06423 28.4097 3.20719 29.3498 4.83524 29.3498C5.18782 29.348 5.52755 29.3138 5.85471 29.2455C5.93831 29.6128 6.04364 29.9803 6.16726 30.344C6.65236 31.774 6.23447 32.7718 6.22901 32.7827L5.44764 34.4054L7.19207 34.8611C7.21392 34.8683 7.74081 35.0105 8.40047 35.0105C8.70031 35.0105 8.98551 34.98 9.2545 34.917C9.45793 34.87 9.65247 34.8071 9.83955 34.7314C10.0649 35.133 10.3393 35.4986 10.6591 35.8263C11.7767 36.9629 13.3594 37.5392 15.3653 37.5392H15.3726L16.8045 37.5212L13.8462 38.7387L16.0922 39.814C16.9081 40.2084 17.8765 40.6748 18.8614 41.0314L18.5816 41.7915L19.3557 42.1409C19.4247 42.1714 20.9129 42.8325 23.3879 42.9729C23.3879 42.9729 23.9857 43 24.3145 43C24.6434 43 25.2339 42.9712 25.2339 42.9712C27.6926 42.8271 29.1697 42.1733 29.2389 42.1409L30.0147 41.7897L29.7312 41.0279C30.7452 40.6604 31.7482 40.1759 32.5296 39.7978L34.7337 38.7369L31.7845 37.5177L33.2219 37.5357C35.2298 37.5357 36.8143 36.9593 37.9299 35.8211C38.2479 35.4951 38.5224 35.1295 38.7495 34.7278C38.9367 34.8035 39.1329 34.8665 39.3364 34.9133C39.6035 34.9763 39.8888 35.007 40.1886 35.007C40.8373 35.007 41.3698 34.8648 41.3842 34.8611L43.136 34.4019L42.3727 32.8097C42.3546 32.7682 41.9367 31.7722 42.4218 30.3404C42.5453 29.9748 42.6489 29.6075 42.7325 29.2418C43.0615 29.3102 43.4049 29.3462 43.7593 29.3462C45.8324 29.3462 46.8264 27.9 47.0191 27.5866L47.8731 26.1135L46.2904 25.4686C45.1911 25.0165 44.6932 23.9665 44.4697 23.0319C46.5121 22.8589 47.6096 21.1515 47.944 20.1141ZM19.6554 6.21362L19.6337 6.21906L19.6519 6.19562L19.6554 6.21362Z" fill="white"/>
<path d="M24.2928 6.12549C22.6174 6.12726 21.3619 6.67117 21.0874 7.31053L24.2928 8.56415L27.4981 7.31053C27.2255 6.67117 25.9699 6.12726 24.2928 6.12549Z" fill="white"/>
<path d="M24.3252 39.31H24.3215H24.2942H24.2633H24.2615C23.2457 39.3172 21.8484 39.11 21.1743 38.9155L20.3638 41.0894C20.8981 41.2786 22.7079 41.6387 24.2942 41.6387C25.8769 41.6387 27.6886 41.2768 28.221 41.0894L27.4123 38.9155C26.7364 39.1118 25.3408 39.3172 24.3252 39.31Z" fill="white"/>
<path d="M30.458 37.1484C29.8548 37.4871 28.5083 37.9949 27.7251 38.2309L28.3829 40.0265C29.5948 39.6986 30.5942 39.3151 31.4211 38.9045L30.0564 38.4541L30.458 37.1484Z" fill="white"/>
<path d="M18.1291 37.1484L18.5324 38.4541L17.166 38.9045C17.991 39.3151 18.9958 39.6986 20.2024 40.0265L20.8601 38.2309C20.0806 37.9949 18.7323 37.4852 18.1291 37.1484Z" fill="white"/>
<path d="M24.2929 4.04662C25.5558 4.04662 26.795 4.34558 27.7472 4.8716C27.8345 4.58153 27.9562 4.23033 28.1215 3.86291L27.7618 3.90615L27.3838 3.94582L27.2238 3.60542L26.7423 2.59686L25.8647 3.05062L25.5231 3.22355L25.2505 2.95705L24.2965 2.02051L23.3444 2.95705L23.0718 3.22355L22.7303 3.05062L21.8471 2.59686L21.371 3.60542L21.2075 3.94582L20.8295 3.90615L20.4697 3.86291C20.6352 4.23211 20.7551 4.58153 20.8441 4.8716C21.7981 4.34558 23.0336 4.04662 24.2929 4.04662Z" fill="white"/>
<path d="M43.5735 15.7033C43.7372 15.7591 43.9042 15.7843 44.0697 15.7843C44.7837 15.7843 45.4743 15.3269 45.7123 14.8027C45.7123 14.8027 44.4021 14.7235 42.9939 13.306C42.5452 12.8468 42.0709 12.71 41.6638 12.71C41.0314 12.71 40.5571 13.0413 40.5571 13.0413C42.258 13.9382 42.605 15.3791 43.5735 15.7033Z" fill="white"/>
<path d="M4.51637 15.7843C4.68167 15.7843 4.84887 15.7591 5.00883 15.7033C5.98091 15.3791 6.3298 13.9382 8.03065 13.0413C8.03065 13.0413 7.55447 12.71 6.92581 12.71C6.51695 12.71 6.04267 12.8468 5.59201 13.306C4.18566 14.7235 2.87549 14.8027 2.87549 14.8027C3.1099 15.3269 3.80221 15.7843 4.51637 15.7843Z" fill="white"/>
<path d="M44.0357 21.5585C44.0648 21.5602 44.0902 21.5602 44.1211 21.5602C45.9036 21.5602 46.5088 19.6672 46.5088 19.6672H46.4742C46.1472 19.6672 43.496 19.5917 41.6226 17.2305C40.3888 15.6781 39.3784 14.3128 37.3814 13.7761L37.1852 13.7418L37.1416 13.5438C37.0871 13.2412 37.2961 12.9584 37.7704 12.6522C40.525 10.8639 38.6552 8.58368 38.6552 8.58368C38.6552 8.58368 37.8684 10.4082 36.1077 10.4082C36.0659 10.4082 36.0204 10.4063 35.9769 10.4063C35.777 10.3955 35.5844 10.3883 35.3899 10.347L35.0646 10.2838C35.0646 10.2838 35.5663 8.93132 34.356 7.68859C33.4438 6.75028 32.3336 6.5918 31.6921 6.5918C31.3686 6.5918 31.1633 6.63313 31.1633 6.63313C31.7721 7.42197 32.2118 8.7296 31.5086 9.53645C30.9018 10.2298 29.4189 10.264 29.4189 11.2978C29.4189 11.7355 29.8315 12.2471 30.5728 12.7063C32.8024 14.0985 35.0156 15.9445 35.935 18.4193C37.0853 21.5062 35.7897 23.5541 33.9399 24.7283C33.9399 24.7283 34.5196 25.2578 35.3609 25.3244C35.5317 25.3406 35.6989 25.3478 35.8552 25.3478C37.6304 25.3478 38.5481 24.5229 38.5481 24.5229C38.5481 24.5229 38.3972 25.663 37.4723 26.722C36.6201 27.7 35.5008 28.2746 33.7945 28.2998C33.7945 28.2998 33.74 29.085 34.4959 29.764C34.9792 30.1927 36.0968 30.3331 36.0968 30.3331C36.0968 30.3331 34.0053 30.7527 33.7746 33.8146C33.6491 35.4732 33.2221 36.0496 33.2221 36.0496H33.2604C38.1137 36.0496 37.9883 31.9235 37.9883 31.9235C37.9883 31.9235 38.3263 33.1445 39.6801 33.4633C39.8435 33.5066 40.018 33.5228 40.1852 33.5228C40.6214 33.5228 40.9993 33.422 40.9993 33.422C40.9993 33.422 40.2906 31.9397 40.9938 29.8667C41.5771 28.1467 41.4826 26.8715 41.4826 26.8715C41.4826 26.8715 42.1368 27.8513 43.7577 27.8604H43.774C45.1241 27.8604 45.7128 26.8464 45.7128 26.8464C42.4766 25.5153 42.7964 21.2181 42.7964 21.2181C42.7964 21.2181 43.2162 21.5278 44.0357 21.5585ZM43.0617 26.0466C41.7461 25.4037 40.9139 23.6963 40.7122 23.0803C40.4941 26.4663 38.826 28.8167 36.8763 31.0787C35.8642 32.2512 35.5117 33.3912 35.5117 33.3912C35.5117 33.3912 35.7061 32.1 36.5819 31.0482C38.4009 28.8814 40.129 26.1853 40.2579 23.0677C40.3469 20.892 39.7818 19.1271 38.9006 17.6737C39.3929 19.1883 39.324 21.0433 37.6504 22.7741C37.6504 22.7741 40.9811 18.8172 36.3239 14.7613C34.4596 13.2179 32.4208 12.2651 31.3706 11.5897C35.1646 12.8162 37.0163 11.4654 37.0163 11.4654C35.8042 12.5063 34.2361 12.4883 33.2639 12.3389C33.5274 12.4668 33.8019 12.6 34.098 12.7567C37.2961 14.4786 40.1707 17.3116 40.6613 21.2361V21.2054C41.4063 25.0578 43.0617 26.0466 43.0617 26.0466Z" fill="white"/>
<path d="M12.4886 30.3331C12.4886 30.3331 13.6061 30.1945 14.0895 29.764C14.8435 29.085 14.791 28.2998 14.791 28.2998C13.0829 28.2763 11.9653 27.7 11.1077 26.7239C10.19 25.6648 10.0374 24.5247 10.0374 24.5247C10.0374 24.5247 10.9549 25.3497 12.7285 25.3497C12.8884 25.3497 13.0538 25.3424 13.2245 25.3262C14.0659 25.2596 14.6474 24.73 14.6474 24.73C12.7975 23.5558 11.5002 21.5062 12.6486 18.4193C13.5699 15.9463 15.7812 14.0985 18.0109 12.7063C18.7522 12.2471 19.1646 11.7372 19.1646 11.2978C19.1646 10.264 17.6837 10.2298 17.0767 9.53645C16.3737 8.7296 16.8152 7.4202 17.4221 6.63313C17.4221 6.63313 17.2203 6.5918 16.895 6.5918C16.2555 6.5918 15.1452 6.75028 14.233 7.68859C13.0192 8.93132 13.5226 10.2838 13.5226 10.2838L13.1973 10.347C13.003 10.3883 12.8084 10.3955 12.6104 10.4063C12.565 10.4063 12.525 10.4082 12.4814 10.4082C10.717 10.4082 9.93384 8.58546 9.93384 8.58546C9.93384 8.58546 8.06402 10.8657 10.8169 12.654C11.2912 12.9602 11.4984 13.243 11.4439 13.5456L11.4001 13.7437L11.2003 13.7779C9.20698 14.3146 8.19488 15.6798 6.96108 17.2323C5.09124 19.5899 2.44372 19.6672 2.11312 19.6672H2.07666C2.07666 19.6672 2.68182 21.5602 4.46436 21.5602C4.49346 21.5602 4.51887 21.5602 4.54975 21.5585C5.36923 21.5296 5.79079 21.2181 5.79079 21.2181C5.79079 21.2181 6.10703 25.5135 2.87442 26.8464C2.87442 26.8464 3.46319 27.8604 4.81325 27.8604H4.82963C6.45223 27.8513 7.10464 26.8715 7.10464 26.8715C7.10464 26.8715 7.01011 28.1467 7.59163 29.8667C8.29475 31.9397 7.58974 33.422 7.58974 33.422C7.58974 33.422 7.96772 33.5228 8.40199 33.5228C8.57096 33.5228 8.74363 33.5066 8.90537 33.4633C10.2572 33.1445 10.597 31.9235 10.597 31.9235C10.597 31.9235 10.4734 36.0496 15.327 36.0496H15.3614C15.3614 36.0496 14.9363 35.4732 14.8127 33.8146C14.5802 30.7527 12.4886 30.3331 12.4886 30.3331ZM11.7092 31.0787C9.75942 28.8167 8.09312 26.4663 7.87319 23.0803C7.67156 23.6946 6.84292 25.4037 5.52741 26.0466C5.52741 26.0466 7.18088 25.0578 7.92413 21.2054V21.2361C8.41659 17.3134 11.2894 14.4786 14.4892 12.7567C14.7818 12.5982 15.0598 12.465 15.3215 12.3389C14.3494 12.4883 12.7812 12.5063 11.5692 11.4654C11.5692 11.4654 13.4208 12.8162 17.2131 11.5897C16.1629 12.2651 14.1258 13.2179 12.2615 14.7613C7.60244 18.8172 10.935 22.7741 10.935 22.7741C9.2597 21.0415 9.19252 19.1883 9.68488 17.6737C8.80181 19.1288 8.23846 20.892 8.32931 23.0677C8.45648 26.1853 10.1845 28.8814 11.9998 31.0482C12.8776 32.0982 13.0756 33.3912 13.0756 33.3912C13.0756 33.3912 12.7193 32.2512 11.7092 31.0787Z" fill="white"/>
<path d="M20.7046 15.2477C20.7845 15.3323 20.8626 15.4243 20.9373 15.516C20.9554 15.5377 20.9717 15.5575 20.9898 15.5828C21.059 15.6745 21.1298 15.7719 21.1971 15.8709C21.2115 15.8907 21.2262 15.9141 21.2424 15.9374C21.3243 16.06 21.4006 16.1861 21.4769 16.3158C22.1764 17.5134 23.2977 18.2284 24.2915 18.2302C25.2873 18.2284 26.4049 17.5134 27.1081 16.3158C27.1862 16.1825 27.2644 16.0528 27.346 15.9322C27.3588 15.9141 27.3716 15.8979 27.3824 15.8799C27.4514 15.7773 27.5242 15.6764 27.6005 15.5791C27.6168 15.5575 27.6313 15.5395 27.6459 15.5215C27.724 15.426 27.804 15.3324 27.8858 15.2459C27.9002 15.2315 27.9111 15.2189 27.9239 15.2081C28.28 14.8461 28.7052 14.5705 29.2612 14.4175L29.0141 14.2752H28.9997L28.0147 13.7079L27.0026 13.1333L24.2988 14.5922L24.2915 14.5867L24.2861 14.5922L21.5804 13.1333L20.5702 13.706L19.5835 14.2733H19.5725L19.3218 14.4157C19.8796 14.5687 20.303 14.8407 20.661 15.2027C20.6772 15.2171 20.6882 15.2333 20.7046 15.2477ZM23.1976 15.1307H24.3424H25.4853V15.9087C25.2165 15.5828 24.6932 15.6494 24.6932 15.6494V16.7715C24.6932 16.7715 24.7131 17.3226 24.9075 17.562H24.3424H23.7755C23.9735 17.3244 23.9917 16.7715 23.9917 16.7715V15.6494C23.9917 15.6494 23.4702 15.5828 23.1976 15.9087V15.1307Z" fill="white"/>
<path d="M24.0588 13.6213V9.0665L21.1333 8.08301L21.9055 12.4975L24.0588 13.6213ZM23.4301 10.1849V10.9161L23.2884 10.8513C23.2811 10.8459 23.074 10.799 22.7105 10.5144C22.1109 10.0534 22.1001 9.62837 22.1001 9.62837L23.4301 10.1849Z" fill="white"/>
<path d="M26.6824 12.4975L27.451 8.08301L24.5273 9.0665V13.6213L26.6824 12.4975ZM25.1561 10.1849L26.4861 9.63016C26.4861 9.63016 26.4753 10.0552 25.8738 10.5162C25.5122 10.8008 25.3032 10.8476 25.296 10.8531L25.1542 10.9178V10.1849H25.1561Z" fill="white"/>
<path d="M19.9212 24.1808C20.2065 24.2834 20.5518 24.305 20.728 24.305C20.7354 24.2834 20.7443 24.2563 20.7535 24.224C20.7698 24.1717 20.7844 24.1213 20.7953 24.0636C20.8444 23.8116 20.8625 23.5252 20.8661 23.3415C20.7461 23.2676 20.5772 23.1361 20.4828 22.9398C20.3738 22.7129 20.2193 22.6084 19.9921 22.6084C19.6978 22.6084 19.3816 22.7831 19.2471 22.866C19.14 23.4945 19.6069 24.0655 19.9212 24.1808Z" fill="white"/>
<path d="M26.3911 21.7637C25.8478 22.349 24.7848 23.3685 24.732 23.4207L24.6685 23.4856L21.3087 23.4332C21.3068 23.7629 21.2523 24.0438 21.1997 24.2492C21.1906 24.2834 21.1815 24.3194 21.1724 24.3554L25.17 25.0669C25.5861 24.7787 26.7309 23.9501 27.1743 23.626C26.8508 23.1578 26.8199 22.603 26.8925 22.2122C26.6818 22.0771 26.5201 21.9258 26.3911 21.7637Z" fill="white"/>
<path d="M26.8476 17.7589C26.0734 18.5207 25.3303 18.8016 24.6671 18.8665C24.5471 18.8791 24.4254 18.8862 24.3018 18.8862H24.2927H24.2854C24.1619 18.8862 24.0383 18.8791 23.9183 18.8665C23.8021 18.8556 23.6804 18.8376 23.5587 18.8107C23.515 18.9817 23.4604 19.3401 23.6167 19.6787C23.7566 19.9867 24.042 20.2154 24.4581 20.3668L24.5979 20.4208L24.5998 20.5703C24.5998 20.6152 24.6325 21.5843 25.6991 21.8526C25.8736 21.6743 26.0316 21.514 26.148 21.3806C25.9299 20.8728 26.0443 20.3541 26.3605 20.1001C26.3461 20.1542 26.2079 21.4258 27.2365 21.8975L27.4054 21.9769L27.3545 22.1552C27.3381 22.2092 26.9947 23.4394 28.2394 23.8968L28.4593 23.9796L28.3611 24.1922C28.3394 24.239 27.8506 25.3557 29.0009 25.9896H31.4957V24.0265C30.609 23.9184 30.2328 23.2124 30.1365 22.7117C29.7241 22.6414 29.4042 22.465 29.1861 22.1768C28.6627 21.4941 29.1134 20.8692 29.1189 20.835C29.1171 20.8405 29.1189 21.5068 29.5332 21.9174C29.7385 22.1155 29.9821 22.2687 30.3509 22.3029L30.5326 22.3191L30.549 22.5028C30.5525 22.5424 30.6526 23.4429 31.4975 23.5852L31.4957 19.5761C31.4957 18.9547 31.6792 18.3298 31.8991 17.7534H26.8476V17.7589Z" fill="white"/>
<path d="M20.1341 19.5949L20.0669 22.1488L20.3593 22.1921L21.0753 19.7426L20.7119 18.9897L20.1341 19.5949Z" fill="white"/>
<path d="M28.0273 31.3078C28.0491 31.3078 28.0745 31.3115 28.0982 31.3168C28.5434 31.443 28.6561 33.035 29.4374 33.1773C29.5137 33.1935 29.5846 33.1971 29.6464 33.1971C29.8717 33.1971 30.0062 33.1016 30.1515 32.9324C30.1515 32.9324 29.759 32.32 29.4647 31.9076C29.074 31.3673 28.7706 30.7134 28.0437 30.7134C28.0273 30.7134 28.0056 30.7134 27.9874 30.7154C27.7475 30.7279 27.6003 30.8431 27.6003 30.8431C27.3059 30.6595 27.0316 30.5964 26.7826 30.5964C26.3266 30.5964 25.9723 30.8036 25.7959 30.8036H25.7887L24.1641 30.6451C23.9098 30.6217 23.7099 30.3677 23.6373 30.2687C23.619 30.2416 23.61 30.2254 23.61 30.2254C23.61 30.1822 23.61 30.1372 23.6064 30.0975C23.5519 28.781 22.5234 28.2173 22.1581 28.2082C22.1581 28.2082 22.2017 27.9579 22.1018 27.8625L21.7438 28.2929L20.5682 27.7075L21.4058 28.6783L20.6953 29.4689C20.6062 29.5591 20.6172 29.6816 20.6536 29.7319L20.9606 30.0003L21.3495 29.7661C21.3695 29.7518 21.4041 29.7481 21.4476 29.7481C21.5548 29.7481 21.7166 29.7751 21.8619 29.7751C22.02 29.7751 22.1581 29.7409 22.1745 29.5932C22.1254 30.0813 21.6694 30.9296 21.9692 31.596L22.1909 32.0985L20.7553 31.8931L20.083 33.0188C19.8759 33.3935 19.8432 33.7986 20.043 34.0184L20.2937 34.3301C20.2937 34.3301 20.6463 33.9589 20.7262 33.7158L20.6117 33.5915C20.5154 33.4871 20.5209 33.3935 20.5791 33.28L21.0006 32.5865L22.6959 32.9828L22.7849 32.8315C22.8995 32.6424 23.0649 32.5847 23.2466 32.5847C23.321 32.5847 23.3974 32.5938 23.4773 32.6064C23.7918 32.6677 24.3096 32.7504 24.8275 32.7504C25.3962 32.7504 25.9595 32.6497 26.2592 32.3165C26.8735 33.2188 28.1182 33.3628 28.02 33.8202L27.693 35.3656C27.9093 35.3566 28.1182 35.3422 28.3162 35.3151L28.627 33.7067C28.6616 33.532 28.6942 33.2961 28.6942 33.2961C28.5743 33.1755 28.2835 32.9197 28.1201 32.61C27.9001 32.1921 28.02 31.9742 27.8147 31.4302C27.822 31.4339 27.8838 31.3078 28.0273 31.3078ZM21.6857 29.0493C21.6021 29.0475 21.5421 28.9773 21.5457 28.8945C21.5531 28.8152 21.6202 28.7522 21.702 28.7593C21.7856 28.763 21.8456 28.835 21.842 28.9143C21.8346 28.9935 21.7656 29.0548 21.6857 29.0493Z" fill="white"/>
<path d="M19.3709 32.7697C19.3709 32.7697 19.9324 32.541 19.9832 32.3771L19.9087 32.1916C19.856 32.0709 19.8633 31.9394 19.965 31.8674L20.5719 31.4513L21.5859 31.644C21.5859 31.644 21.4023 31.4171 21.4206 31.1127L20.4539 30.9092L19.5417 31.4603C19.151 31.7503 19.1219 32.2239 19.2509 32.5048L19.3709 32.7697Z" fill="white"/>
<path d="M26.5371 35.3886C26.7188 35.3814 26.9186 35.3778 27.1386 35.3778C27.1386 35.3778 27.6601 33.8667 27.6891 33.8182C27.3966 33.6903 26.7897 33.3713 26.5553 33.2256C26.7097 33.4543 27.0859 33.7172 27.0114 33.919L26.5371 35.3886Z" fill="white"/>
<path d="M31.5014 26.4268H17.0864V31.801C17.0864 33.9983 18.691 35.3744 21.0586 35.3744C23.0375 35.3744 23.5589 35.4499 24.2949 36.1741C24.8019 35.6734 25.2217 35.486 26.0829 35.4157L26.1028 35.333L26.5571 33.9407C26.5317 33.9101 25.7886 33.0727 25.7886 33.0727C25.4942 33.17 25.2471 33.1862 24.831 33.1862C24.4039 33.1862 23.9224 33.1374 23.4009 33.0402C23.3482 33.0277 23.2991 33.024 23.25 33.024C23.1864 33.024 23.181 33.0294 23.1647 33.06L23.0738 33.2077L22.9084 33.4779L22.5978 33.4076L21.2149 33.0852L21.0258 33.3951L21.0549 33.4274L21.224 33.6112L21.1495 33.8507C21.0477 34.1641 20.717 34.5297 20.6171 34.6306L20.2718 34.998L19.9575 34.6036L19.7213 34.31C19.4722 34.0344 19.4142 33.6112 19.5541 33.1682C19.5504 33.1717 19.5449 33.1735 19.5396 33.1735L19.1489 33.3338L18.9725 32.9555L18.849 32.6873C18.6365 32.2154 18.7145 31.5256 19.287 31.1095L20.4009 30.4863L21.4603 30.6935C21.4857 30.5926 21.5238 30.2323 21.5547 30.1406C21.5347 30.1388 21.5148 30.1334 21.4947 30.1334L20.8842 30.3585L20.2954 29.9551C20.2954 29.9551 20.0647 29.7352 20.2736 29.5156L20.8441 28.6602L19.3996 26.8626L21.62 27.7668L21.7673 27.5849L22.067 27.2301L22.4069 27.5507C22.5032 27.6425 22.5577 27.7559 22.5849 27.8694C23.1973 28.1054 24.293 28.8024 24.3893 29.9352L24.0459 30.0721V30.0811C24.1241 30.173 24.1894 30.2108 24.2094 30.2143L25.794 30.3693C25.8339 30.3621 25.8849 30.3441 25.9412 30.3278C26.1374 30.2613 26.4336 30.1658 26.7842 30.1658C27.0696 30.1658 27.3457 30.2306 27.611 30.3531C27.7092 30.3171 27.8291 30.29 27.9673 30.2811L28.0434 30.2793C28.8921 30.2793 29.3136 30.9077 29.6517 31.4086C29.708 31.4948 29.7643 31.5778 29.8225 31.6588C30.1186 32.0731 30.5056 32.68 30.522 32.7053L30.6964 32.9755L30.482 33.2222C30.3167 33.4112 30.0695 33.6328 29.6444 33.6328C29.5572 33.6328 29.4609 33.6238 29.3573 33.6039C29.2665 33.5878 29.1847 33.5606 29.1048 33.5283C29.092 33.6112 29.0757 33.7102 29.0592 33.7948L28.7813 35.2321C30.4439 34.8269 31.4997 33.5823 31.4997 31.8029L31.5014 26.4268Z" fill="#FFDD2D"/>
<path d="M17.0862 25.9947H28.2958C27.7361 25.422 27.7435 24.6962 27.887 24.2242C27.7235 24.1467 27.589 24.053 27.4691 23.9523C27.0312 24.2728 25.6938 25.2382 25.3449 25.4795L25.2705 25.53L20.8712 24.7411H20.7822C20.6769 24.7411 20.5224 24.7375 20.3533 24.7177C20.3061 24.914 20.1354 25.0491 19.939 25.0491C19.9172 25.0491 19.8918 25.0473 19.8682 25.0419C19.7537 25.0221 19.6539 24.9644 19.5866 24.869C19.5175 24.7753 19.4903 24.6636 19.5103 24.5484L19.5266 24.4547C19.0723 24.1378 18.6544 23.4299 18.8397 22.6843L18.8579 22.6051L18.9215 22.56C18.9306 22.5529 19.0069 22.5024 19.1196 22.4376L18.7997 22.3889C18.6798 22.3674 18.5999 22.2574 18.6181 22.1404C18.6381 22.0216 18.7507 21.9368 18.8688 21.9603L19.6302 22.0792L19.6992 19.4208L20.8331 18.2321L21.54 19.7073L20.7931 22.2647L21.4655 22.3691C21.5835 22.3871 21.6653 22.497 21.6472 22.6176C21.629 22.7239 21.5382 22.7978 21.4309 22.7978C21.42 22.7978 21.4073 22.7978 21.3963 22.796L20.8494 22.7078C20.8568 22.7239 20.8675 22.7328 20.8749 22.7509C20.933 22.8698 21.0621 22.9563 21.1383 22.9923L24.4928 23.0445C24.6344 22.9076 24.987 22.5654 25.3486 22.2034C24.5237 21.8936 24.2238 21.1876 24.1728 20.7193C23.7114 20.5248 23.3934 20.2331 23.2171 19.853C23.0027 19.3831 23.079 18.9129 23.1353 18.6842C22.6883 18.5221 22.2178 18.2268 21.738 17.7549H16.6865C16.9028 18.3311 17.0862 18.9562 17.0862 19.5775V25.9947Z" fill="#FFDD2D"/>
<path d="M21.7035 28.7594C21.6217 28.7521 21.5527 28.8151 21.5472 28.8944C21.5417 28.9772 21.6035 29.0474 21.6871 29.0492C21.767 29.0565 21.8379 28.9952 21.8451 28.9142C21.8451 28.8349 21.7871 28.7612 21.7035 28.7594Z" fill="black"/>
<path d="M31.4816 38.504L30.6512 38.1887L30.8801 37.3387L31.1327 36.4111C31.1327 36.4111 29.6608 37.2019 27.5875 37.7963C26.9988 37.9637 26.5536 38.0393 26.5536 38.0393V38.6696C26.5536 38.6696 25.4452 38.8606 24.3241 38.8606H24.3112H24.295H24.2731H24.2604C23.1393 38.8606 22.0309 38.6696 22.0309 38.6696V38.0393C22.0309 38.0393 21.5838 37.9637 20.9969 37.7963C18.9236 37.2019 17.4536 36.4111 17.4536 36.4111L17.7025 37.3387L17.9369 38.1887L17.1047 38.504L16.1816 38.8461C17.241 39.3522 18.7073 40.0908 20.0503 40.4545L19.734 41.3118C19.734 41.3118 21.4366 42.0809 24.2731 42.0881V42.0899H24.2823H24.295H24.3059H24.3131V42.0881C27.1533 42.0809 28.854 41.3118 28.854 41.3118L28.536 40.4545C29.8788 40.0908 31.3489 39.3522 32.4028 38.8461L31.4816 38.504ZM17.1664 38.9038L18.5329 38.4536L18.1295 37.1478C18.7309 37.4864 20.0812 37.9943 20.8624 38.2302L20.2029 40.0258C18.9962 39.6963 17.9914 39.3127 17.1664 38.9038ZM24.295 41.6378C22.7086 41.6378 20.897 41.2758 20.3646 41.0886L21.1749 38.9146C21.8473 39.1092 23.2465 39.3162 24.2622 39.309H24.2641H24.295H24.3222H24.3259C25.3417 39.3162 26.7371 39.1092 27.4131 38.9146L28.2216 41.0886C27.6893 41.2776 25.8795 41.6378 24.295 41.6378ZM28.3834 40.0258L27.7257 38.2302C28.5088 37.9943 29.8552 37.4864 30.4585 37.1478L30.057 38.4536L31.4216 38.9038C30.5948 39.3127 29.5953 39.6963 28.3834 40.0258Z" fill="black"/>
<path d="M24.2928 4.57239C25.9827 4.57239 27.3345 5.12718 28.0814 5.71976C28.0814 5.71976 28.303 4.39591 29.0608 3.2271L27.6997 3.38012L26.9875 1.8799L25.6192 2.57873L24.2928 1.27832L22.9699 2.57873L21.5999 1.8799L20.8894 3.38012L19.5283 3.2271C20.286 4.39591 20.5077 5.71976 20.5077 5.71976C21.2563 5.12718 22.6046 4.57239 24.2928 4.57239ZM20.8275 3.90602L21.2055 3.9457L21.369 3.60529L21.8451 2.59673L22.7282 3.04871L23.0698 3.22164L23.3424 2.95514L24.2945 2.0186L25.2485 2.95514L25.5211 3.22164L25.8627 3.04871L26.7404 2.59673L27.2219 3.60529L27.3818 3.9457L27.7597 3.90602L28.1195 3.86279C27.9542 4.2321 27.8324 4.58139 27.7451 4.87146C26.793 4.34557 25.5537 4.0465 24.291 4.0465C23.0336 4.0465 21.796 4.34557 20.8402 4.87146C20.7513 4.58139 20.6313 4.2302 20.4659 3.86279L20.8275 3.90602Z" fill="black"/>
<path d="M44.119 22.1381C46.3051 22.1381 47.0354 19.9338 47.0663 19.84L47.3098 19.0637L46.4903 19.089H46.4868C46.1978 19.089 43.7865 19.0259 42.0766 16.8719L41.9149 16.672C40.7974 15.2636 39.7381 13.9254 37.8446 13.3148C37.8991 13.2662 37.9773 13.205 38.0845 13.1365C39.0893 12.481 39.6744 11.6848 39.8216 10.761C40.036 9.37053 39.1421 8.26287 39.1021 8.21786L38.4933 7.47225L38.1136 8.35656C38.0882 8.41235 37.4484 9.82804 36.1038 9.82804H36.0039C35.9113 9.82257 35.824 9.81899 35.7368 9.81173C35.7841 9.17963 35.6677 8.20163 34.7738 7.28487C33.6998 6.18085 32.3806 6.01514 31.6902 6.01514C31.3212 6.01514 31.0759 6.06015 31.0504 6.06383L30.1311 6.24386L30.698 6.98414C31.1432 7.55505 31.5466 8.60873 31.0686 9.15983C30.916 9.33452 30.6017 9.47678 30.3 9.61904C29.6804 9.90176 28.8354 10.2944 28.8354 11.2959C28.8354 11.9443 29.3424 12.6214 30.2619 13.1977C32.984 14.8943 34.6628 16.6648 35.3879 18.6188C36.5091 21.6249 35.0463 23.3394 33.6253 24.2418L32.9875 24.6488L33.5454 25.1566C33.6198 25.2216 34.3031 25.8177 35.3116 25.9042C35.5023 25.9168 35.6858 25.9275 35.8567 25.9275C36.5036 25.9275 37.0542 25.8267 37.5011 25.6915C37.3776 25.9059 37.2268 26.1239 37.036 26.3436C36.2238 27.2765 35.2244 27.7016 33.7871 27.7232L33.2528 27.7322L33.211 28.2635C33.2055 28.3697 33.1656 29.355 34.1068 30.1925C34.2504 30.322 34.4248 30.4284 34.6065 30.5167C33.9688 31.0858 33.3199 32.0763 33.1947 33.7747C33.0893 35.1921 32.7477 35.7163 32.7441 35.7216L32.1535 36.6149L33.2202 36.6294C34.9828 36.6294 36.3328 36.1467 37.2685 35.1921C37.821 34.6266 38.1372 33.989 38.3244 33.4236C38.6315 33.6828 39.0276 33.9097 39.5435 34.0304C39.7399 34.0755 39.9543 34.1006 40.1851 34.1006C40.683 34.1006 41.0991 33.9962 41.1463 33.9854L41.8277 33.8053L41.5261 33.1749C41.5042 33.1245 40.9355 31.8602 41.5478 30.0555C41.8113 29.2757 41.9458 28.5768 42.0112 28.033C42.44 28.2544 43.0143 28.4382 43.7574 28.44C45.4437 28.44 46.1869 27.1919 46.2215 27.1397L46.5539 26.5669L45.938 26.3148C43.9282 25.4881 43.4831 23.2673 43.394 22.0643C43.5757 22.0985 43.7829 22.131 44.0172 22.1381H44.119ZM45.7126 26.846C45.7126 26.846 45.1238 27.8601 43.7738 27.8601H43.7574C42.1365 27.851 41.4824 26.8713 41.4824 26.8713C41.4824 26.8713 41.5769 28.1465 40.9919 29.8664C40.2886 31.9394 40.9972 33.4218 40.9972 33.4218C40.9972 33.4218 40.6193 33.5226 40.1833 33.5226C40.016 33.5226 39.8416 33.5063 39.6781 33.4631C38.3244 33.1443 37.9864 31.9232 37.9864 31.9232C37.9864 31.9232 38.1117 36.0494 33.2582 36.0494H33.2202C33.2202 36.0494 33.6471 35.4731 33.7743 33.8142C34.0051 30.7526 36.0966 30.3329 36.0966 30.3329C36.0966 30.3329 34.9808 30.1943 34.4975 29.7638C33.7415 29.0848 33.7943 28.2995 33.7943 28.2995C35.5023 28.2761 36.6199 27.6998 37.472 26.7218C38.3952 25.6628 38.5478 24.5227 38.5478 24.5227C38.5478 24.5227 37.6301 25.3476 35.8549 25.3476C35.6987 25.3476 35.5314 25.3404 35.3606 25.3242C34.5211 25.2576 33.9397 24.728 33.9397 24.728C35.7876 23.5537 37.085 21.5041 35.9349 18.4171C35.0136 15.9443 32.8004 14.0965 30.5726 12.7043C29.8312 12.245 29.4187 11.7354 29.4187 11.2959C29.4187 10.2621 30.9015 10.2296 31.5103 9.53438C32.2116 8.72753 31.7718 7.41824 31.1632 6.63117C31.1632 6.63117 31.3685 6.58972 31.6919 6.58972C32.3333 6.58972 33.4436 6.74997 34.3558 7.68652C35.5678 8.92924 35.0644 10.2819 35.0644 10.2819L35.3897 10.3449C35.5842 10.3863 35.7768 10.3936 35.9766 10.4025C36.0202 10.4025 36.0639 10.4043 36.1074 10.4043C37.8682 10.4043 38.6551 8.57983 38.6551 8.57983C38.6551 8.57983 40.5267 10.8618 37.7719 12.6484C37.2976 12.9546 37.0886 13.2373 37.1432 13.5399L37.1869 13.7381L37.383 13.7723C39.3801 14.309 40.3904 15.6742 41.6241 17.2266C43.4976 19.5879 46.1488 19.6636 46.4758 19.6636H46.5104C46.5104 19.6636 45.9052 21.5564 44.1227 21.5564C44.0936 21.5564 44.0682 21.5564 44.0373 21.5547C43.2178 21.5257 42.798 21.2143 42.798 21.2143C42.798 21.2143 42.4764 25.5133 45.7126 26.846Z" fill="black"/>
<path d="M40.28 13.5533C41.0958 13.9837 41.5701 14.56 41.9862 15.0715C42.3951 15.5704 42.7839 16.0513 43.3907 16.2512C43.607 16.3251 43.8359 16.3593 44.0686 16.3593C44.9807 16.3593 45.8966 15.8063 46.2436 15.0409L46.5925 14.2737L45.7476 14.2232C45.7076 14.2214 44.621 14.1241 43.4109 12.8977C42.9129 12.3953 42.3114 12.1304 41.6627 12.1304C40.8705 12.1304 40.2835 12.523 40.2181 12.5627L39.4404 13.1049L40.28 13.5533ZM41.6646 12.7104C42.0715 12.7104 42.5459 12.8472 42.9947 13.3065C44.4029 14.724 45.7131 14.8032 45.7131 14.8032C45.4751 15.3254 44.7846 15.7847 44.0704 15.7847C43.9051 15.7847 43.7397 15.7596 43.5743 15.7038C42.6058 15.3796 42.2587 13.9387 40.5561 13.0417C40.5561 13.0417 41.0323 12.7104 41.6646 12.7104Z" fill="black"/>
<path d="M40.6609 21.2057V21.2346C40.1703 17.312 37.2957 14.4789 34.0976 12.7553C33.8015 12.5985 33.5289 12.4653 33.2636 12.3374C34.2375 12.4869 35.8057 12.5049 37.0158 11.4639C37.0158 11.4639 35.1642 12.8147 31.3701 11.5882C32.4205 12.2636 34.4611 13.2164 36.3235 14.7598C40.9808 18.8157 37.6482 22.7726 37.6482 22.7726C39.3218 21.0419 39.3908 19.1868 38.8984 17.6722C39.7797 19.1256 40.343 20.8905 40.2557 23.0662C40.1268 26.1838 38.3987 28.88 36.5797 31.0467C35.7057 32.0985 35.5095 33.3898 35.5095 33.3898C35.5095 33.3898 35.862 32.2498 36.8741 31.0772C38.8239 28.8153 40.4901 26.4648 40.7081 23.0788C40.9099 23.6931 41.7403 25.4022 43.0577 26.0452C43.0613 26.0469 41.4059 25.0582 40.6609 21.2057Z" fill="black"/>
<path d="M15.8417 35.7201C15.8399 35.7147 15.5019 35.1906 15.393 33.7731C15.2658 32.0748 14.6188 31.0842 13.9792 30.515C14.1646 30.4286 14.3353 30.3223 14.4789 30.1909C15.4184 29.3533 15.3783 28.3683 15.3728 28.262L15.3366 27.7307L14.7987 27.7216C13.3651 27.6982 12.3637 27.2732 11.5515 26.342C11.3626 26.1223 11.21 25.9044 11.0864 25.6901C11.5333 25.8251 12.0803 25.926 12.729 25.926C12.9035 25.926 13.0834 25.9151 13.2742 25.9026C14.2826 25.8161 14.9659 25.2217 15.0421 25.1552L15.6 24.6473L14.9622 24.2402C13.5358 23.3361 12.0785 21.6215 13.1978 18.6174C13.9228 16.6632 15.6 14.8928 18.3256 13.1962C19.2452 12.6198 19.7484 11.9427 19.7484 11.2943C19.7484 10.2929 18.9053 9.89851 18.2857 9.61748C17.984 9.47523 17.6697 9.33297 17.5171 9.15828C17.0374 8.60892 17.4425 7.55357 17.8859 6.98255L18.4565 6.24239L17.5334 6.06223C17.5062 6.05868 17.2645 6.01367 16.8938 6.01367C16.2033 6.01367 14.8878 6.17937 13.812 7.2834C12.9162 8.20194 12.7981 9.17987 12.8435 9.81018C12.7563 9.81743 12.6691 9.82111 12.5782 9.82639H12.4801C11.1318 9.82639 10.4941 8.41088 10.4686 8.35498L10.0887 7.47066L9.47459 8.21627C9.4401 8.26141 8.54249 9.37077 8.76051 10.7594C8.90587 11.6833 9.49093 12.4793 10.4958 13.135C10.6048 13.2034 10.6811 13.2646 10.7357 13.3133C8.84412 13.9238 7.78654 15.2638 6.66898 16.6722L6.50725 16.8721C4.79927 19.0262 2.38247 19.0893 2.09356 19.0893L1.27051 19.064L1.52119 19.8402C1.55028 19.9339 2.27893 22.1384 4.46665 22.1384L4.5721 22.1349C4.80283 22.1276 5.01005 22.097 5.19542 22.061C5.10445 23.2622 4.65926 25.483 2.64776 26.3114L2.03358 26.5636L2.36621 27.1363C2.39887 27.1885 3.1439 28.4367 4.8337 28.4367C5.57149 28.4348 6.14565 28.2511 6.57636 28.0296C6.64179 28.5735 6.77621 29.2723 7.03972 30.0522C7.65211 31.8568 7.08151 33.1212 7.05966 33.1716L6.75804 33.802L7.44133 33.9821C7.48669 33.9928 7.90647 34.0973 8.40249 34.0973C8.63511 34.0973 8.84958 34.0721 9.04222 34.0271C9.56009 33.9064 9.95976 33.6796 10.2632 33.4201C10.4485 33.9856 10.7666 34.6232 11.3172 35.1888C12.2547 36.1433 13.603 36.626 15.3656 36.626L16.4341 36.6116L15.8417 35.7201ZM15.3256 36.0497C10.4721 36.0497 10.5958 31.9235 10.5958 31.9235C10.5958 31.9235 10.2579 33.1446 8.90408 33.4634C8.74234 33.5066 8.56968 33.5229 8.4007 33.5229C7.96465 33.5229 7.58846 33.4219 7.58846 33.4219C7.58846 33.4219 8.29347 31.9397 7.59024 29.8667C7.00884 28.1466 7.10337 26.8716 7.10337 26.8716C7.10337 26.8716 6.45096 27.8514 4.82837 27.8603H4.81197C3.46191 27.8603 2.87315 26.8463 2.87315 26.8463C6.10753 25.5154 5.78952 21.2181 5.78952 21.2181C5.78952 21.2181 5.36986 21.5279 4.54847 21.5585C4.51938 21.5603 4.49218 21.5603 4.46308 21.5603C2.67864 21.5603 2.07539 19.6674 2.07539 19.6674H2.11172C2.44066 19.6674 5.08819 19.5917 6.96158 17.2305C8.19539 15.6781 9.20748 14.3146 11.2008 13.7762L11.4006 13.742L11.4444 13.5438C11.4989 13.2412 11.2917 12.9585 10.8175 12.6523C8.06274 10.8639 9.93434 8.58369 9.93434 8.58369C9.93434 8.58369 10.7175 10.4064 12.4819 10.4064C12.5255 10.4064 12.5655 10.4046 12.6109 10.4046C12.8089 10.3937 13.0053 10.3866 13.1978 10.3452L13.5231 10.2821C13.5231 10.2821 13.0197 8.92955 14.2336 7.68683C15.1458 6.74851 16.256 6.59002 16.8955 6.59002C17.2208 6.59002 17.4226 6.63137 17.4226 6.63137C16.8157 7.42021 16.376 8.72784 17.0772 9.53471C17.6842 10.2281 19.1651 10.2623 19.1651 11.2961C19.1651 11.7337 18.7527 12.2453 18.0114 12.7045C15.7817 14.0967 13.5686 15.9446 12.6491 18.4174C11.5007 21.5045 12.7963 23.5522 14.6479 24.7283C14.6479 24.7283 14.0664 25.2577 13.2251 25.3245C13.0543 25.3407 12.8889 25.3479 12.729 25.3479C10.9555 25.3479 10.0379 24.5229 10.0379 24.5229C10.0379 24.5229 10.1905 25.6631 11.1082 26.7221C11.9658 27.7 13.0834 28.2763 14.7915 28.2998C14.7915 28.2998 14.846 29.0851 14.09 29.764C13.6049 30.1926 12.4891 30.3331 12.4891 30.3331C12.4891 30.3331 14.5825 30.7528 14.8114 33.8146C14.9368 35.4733 15.3602 36.0497 15.3602 36.0497H15.3256Z" fill="black"/>
<path d="M4.51594 16.3609C4.75036 16.3609 4.9793 16.3266 5.19543 16.2527C5.80604 16.0528 6.19304 15.5719 6.60189 15.073C7.0199 14.5615 7.4905 13.9852 8.30631 13.5548L9.14588 13.1081L8.36628 12.5659C8.30085 12.5246 7.71577 12.1338 6.92537 12.1338C6.27487 12.1338 5.67161 12.3967 5.17548 12.9009C3.9653 14.1257 2.88052 14.2247 2.8405 14.2265L1.99561 14.2751L2.34271 15.0442C2.69147 15.806 3.60549 16.3609 4.51594 16.3609ZM5.59158 13.308C6.04223 12.8487 6.51652 12.7119 6.92537 12.7119C7.55403 12.7119 8.0301 13.0431 8.0301 13.0431C6.32936 13.9419 5.98048 15.3811 5.00828 15.7052C4.84844 15.761 4.68125 15.7863 4.51594 15.7863C3.80178 15.7863 3.11125 15.3288 2.87506 14.8047C2.87506 14.8029 4.18333 14.7236 5.59158 13.308Z" fill="black"/>
<path d="M8.32968 23.0682C8.23884 20.8925 8.80219 19.1274 9.68522 17.674C9.19277 19.1887 9.26004 21.0438 10.9354 22.7746C10.9354 22.7746 7.60281 18.8177 12.2618 14.7618C14.1262 13.2183 16.165 12.2654 17.2135 11.5901C13.4212 12.8166 11.5695 11.4658 11.5695 11.4658C12.7797 12.5069 14.3479 12.4889 15.3219 12.3376C15.0584 12.4654 14.7822 12.5987 14.4895 12.7554C11.2879 14.479 8.41506 17.312 7.92261 21.2347V21.2042C7.17948 25.0566 5.52588 26.0453 5.52588 26.0453C6.84151 25.4023 7.67015 23.6949 7.87178 23.079C8.09171 26.465 9.75788 28.8153 11.7076 31.0775C12.7198 32.2499 13.076 33.39 13.076 33.39C13.076 33.39 12.8779 32.0986 12.0003 31.0468C10.1849 28.8838 8.45686 26.1858 8.32968 23.0682Z" fill="black"/>
<path d="M23.1973 15.1309V15.9089C23.4681 15.5829 23.9914 15.6496 23.9914 15.6496V16.7717C23.9914 16.7717 23.9732 17.3228 23.7751 17.5622H24.342H24.9071C24.7128 17.3246 24.6927 16.7717 24.6927 16.7717V15.6496C24.6927 15.6496 25.216 15.5829 25.485 15.9089V15.1309H24.342H23.1973Z" fill="black"/>
<path d="M22.7101 10.5164C23.0717 10.8011 23.2806 10.8479 23.2879 10.8534L23.4296 10.9181V10.1851L22.0996 9.63037C22.0996 9.63216 22.1123 10.0554 22.7101 10.5164Z" fill="black"/>
<path d="M25.874 10.5164C26.4754 10.0554 26.4863 9.63037 26.4863 9.63037L25.1562 10.1851V10.9181L25.2961 10.8534C25.3052 10.8479 25.5124 10.8011 25.874 10.5164Z" fill="black"/>
<path d="M28.2702 7.53219C28.2702 6.42095 26.3822 5.42139 24.298 5.42139H24.2962H24.2908H24.2853C22.2011 5.42139 20.3131 6.42095 20.3131 7.53219L20.355 7.80593L21.1871 12.5409L20.3514 13.0218L18.1889 14.2735H18.1963C18.1963 14.2735 17.7093 14.5202 17.4839 14.6733C16.6609 15.2407 16.4864 16.0673 16.9642 16.4095C17.0824 15.736 17.6202 15.03 18.6269 15.03C19.3519 15.03 19.9043 15.4009 20.3514 15.9575C20.4658 16.098 20.5749 16.2475 20.6766 16.4095C20.8019 16.613 20.9273 16.7914 21.0528 16.9643H15.4834C15.8922 17.7802 16.281 18.6447 16.281 19.583V31.8013C16.281 34.7586 18.576 36.1706 21.0581 36.1706C22.977 36.1706 23.2351 36.0842 24.2945 37.1287C25.3484 36.0824 25.6064 36.1706 27.5271 36.1706C30.011 36.1706 32.3024 34.7586 32.3024 31.8013V19.583C32.3024 18.6447 32.6913 17.7802 33.1019 16.9643H27.5307C27.6542 16.7931 27.7796 16.613 27.9049 16.4095C28.0086 16.2475 28.1157 16.098 28.2284 15.9575C28.679 15.3992 29.2296 15.03 29.9546 15.03C30.9613 15.03 31.4974 15.7342 31.6173 16.4095C32.0953 16.0673 31.9226 15.2407 31.0939 14.6733C30.8723 14.5202 30.3852 14.2735 30.3852 14.2735H30.3926L28.2302 13.0218L27.398 12.5409L28.2302 7.80593L28.2702 7.53219ZM21.1326 8.08332L24.0582 9.06666V13.6215L21.905 12.4959L21.1326 8.08332ZM21.7378 17.7585C22.2175 18.2321 22.6882 18.5258 23.1351 18.6878C23.0769 18.9166 23.0007 19.3885 23.2169 19.8585C23.3931 20.2367 23.7129 20.5286 24.1726 20.7231C24.2235 21.1914 24.5215 21.8955 25.3484 22.2072C24.9868 22.5691 24.6342 22.9095 24.4906 23.0482L21.1381 22.996C21.0618 22.9581 20.9328 22.8735 20.8747 22.7528C20.8674 22.7366 20.8565 22.7276 20.8511 22.7096L21.3979 22.7978C21.4107 22.7996 21.4215 22.7996 21.4325 22.7996C21.5379 22.7996 21.6305 22.7276 21.6488 22.6195C21.6669 22.4989 21.5852 22.389 21.4671 22.371L20.7947 22.2665L21.5415 19.7108L20.8347 18.2358L19.7009 19.4246L19.6317 22.0828L18.8705 21.964C18.7523 21.9405 18.6396 22.027 18.6197 22.144C18.6015 22.2612 18.6814 22.371 18.8013 22.3926L19.1211 22.4412C19.0067 22.5061 18.9322 22.5565 18.9231 22.5636L18.8576 22.6087L18.8395 22.6881C18.6542 23.4337 19.0739 24.1415 19.5265 24.4584L19.51 24.552C19.4919 24.6674 19.5173 24.779 19.5864 24.8727C19.6517 24.9682 19.7535 25.0258 19.8661 25.0456C19.8898 25.0491 19.9152 25.0509 19.9371 25.0509C20.1332 25.0509 20.3042 24.9158 20.3532 24.7196C20.5221 24.7394 20.6766 24.7429 20.782 24.7429H20.8711L25.2702 25.53L25.3447 25.4815C25.6953 25.2382 27.0309 24.273 27.4689 23.9541C27.5888 24.0568 27.7232 24.1505 27.8868 24.2278C27.745 24.6997 27.736 25.4256 28.2975 25.9984H17.086V19.5848C17.086 18.9635 16.9025 18.3385 16.6863 17.7622H21.7378V17.7585ZM27.1745 23.6264C26.7293 23.9506 25.5846 24.779 25.1703 25.0671L21.1727 24.3558C21.1818 24.3197 21.1908 24.2855 21.2 24.2495C21.2526 24.0441 21.3053 23.7632 21.309 23.4337L24.6687 23.4877L24.7323 23.4228C24.7833 23.3724 25.8481 22.3529 26.3914 21.7658C26.5203 21.9261 26.682 22.0793 26.8928 22.2143C26.8201 22.6033 26.851 23.158 27.1745 23.6264ZM20.4822 22.9401C20.5766 23.1364 20.7474 23.268 20.8656 23.3418C20.8619 23.5254 20.8438 23.8118 20.7947 24.064C20.7838 24.1198 20.7693 24.172 20.7529 24.2243C20.7439 24.2568 20.7347 24.2837 20.7274 24.3053C20.5512 24.3053 20.2041 24.2837 19.9206 24.1811C19.6064 24.0658 19.1376 23.4949 19.2465 22.8663C19.3828 22.7834 19.6972 22.6087 19.9916 22.6087C20.2187 22.6069 20.3731 22.7132 20.4822 22.9401ZM20.0661 22.1495L20.1332 19.5974L20.7111 18.9904L21.0746 19.7433L20.3586 22.1927L20.0661 22.1495ZM27.1382 35.38C26.9201 35.38 26.7184 35.3836 26.5367 35.3908L27.0128 33.9229C27.0873 33.7194 26.7111 33.4582 26.5566 33.2295C26.791 33.3755 27.398 33.6942 27.6906 33.8221C27.6597 33.8689 27.1382 35.38 27.1382 35.38ZM28.6318 33.7122L28.3211 35.3188C28.1231 35.3458 27.9123 35.3601 27.696 35.3691L28.0231 33.8239C28.1212 33.3645 26.8765 33.2223 26.2624 32.32C25.9625 32.6549 25.3974 32.7541 24.8305 32.7541C24.3126 32.7541 23.7948 32.6712 23.4803 32.61C23.4004 32.5974 23.3241 32.5884 23.2496 32.5884C23.0679 32.5884 22.9025 32.6442 22.788 32.8351L22.6972 32.9864L21.0019 32.5902L20.5803 33.2818C20.5203 33.3935 20.5167 33.489 20.613 33.5932L20.7274 33.7177C20.6493 33.9626 20.2969 34.3318 20.2969 34.3318L20.0443 34.0201C19.8443 33.7987 19.8771 33.3953 20.0861 33.0206L20.7583 31.8949L22.1939 32.1002L21.9704 31.596C21.6706 30.9296 22.1267 30.0813 22.1757 29.5932C22.1593 29.7409 22.023 29.7733 21.8631 29.7733C21.7178 29.7733 21.5561 29.7463 21.4488 29.7463C21.4071 29.7463 21.3707 29.7498 21.3508 29.7643L20.9619 29.9984L20.6548 29.73C20.6184 29.6778 20.6057 29.5571 20.6966 29.4671L21.4071 28.6782L20.5677 27.7075L21.7432 28.2929L22.1011 27.8624C22.1994 27.9579 22.1576 28.2082 22.1576 28.2082C22.5246 28.2172 23.553 28.781 23.6076 30.0957C23.6112 30.1352 23.6112 30.1804 23.6112 30.2235C23.6112 30.2235 23.6203 30.2398 23.6385 30.2667C23.7112 30.3659 23.911 30.6198 24.1653 30.6432L25.7899 30.8017H25.7971C25.9753 30.8017 26.3296 30.5946 26.7838 30.5946C27.0309 30.5946 27.3071 30.6576 27.6015 30.8413C27.6015 30.8413 27.7486 30.726 27.9885 30.7134C28.0067 30.7116 28.0268 30.7116 28.0449 30.7116C28.7736 30.7116 29.0752 31.3637 29.4659 31.9058C29.7603 32.3182 30.1528 32.9306 30.1528 32.9306C30.0074 33.1016 29.8728 33.1953 29.6476 33.1953C29.5859 33.1953 29.5149 33.1898 29.4386 33.1755C28.6572 33.0332 28.5447 31.4411 28.0995 31.315C28.0758 31.3078 28.0504 31.306 28.0286 31.306C27.885 31.306 27.8215 31.4321 27.8215 31.4321C28.0248 31.9741 27.9068 32.1939 28.1249 32.6118C28.2883 32.9215 28.5791 33.1773 28.699 33.298C28.699 33.3016 28.6664 33.5357 28.6318 33.7122ZM19.908 32.1921L19.9824 32.3777C19.9334 32.5397 19.3702 32.7702 19.3702 32.7702L19.2483 32.5072C19.1193 32.2263 19.1465 31.7527 19.5391 31.4627L20.4513 30.9116L21.418 31.115C21.3998 31.4194 21.5833 31.6464 21.5833 31.6464L20.5694 31.4537L19.9625 31.8697C19.8607 31.94 19.8535 32.0715 19.908 32.1921ZM28.7845 35.2306L29.0625 33.7932C29.077 33.7086 29.0951 33.6095 29.1079 33.5267C29.186 33.5592 29.2696 33.5862 29.3604 33.6024C29.464 33.6222 29.5603 33.6311 29.6476 33.6311C30.0728 33.6311 30.3199 33.4096 30.4853 33.2205L30.6997 32.9738L30.5252 32.7037C30.5089 32.6766 30.1237 32.0715 29.8257 31.6572C29.7675 31.5762 29.7111 31.4951 29.6548 31.4069C29.3169 30.9061 28.8935 30.2777 28.0449 30.2777L27.9686 30.2795C27.8287 30.2884 27.7088 30.3154 27.6125 30.3514C27.3453 30.2271 27.0709 30.1642 26.7856 30.1642C26.4349 30.1642 26.1387 30.2597 25.9425 30.3262C25.8862 30.3424 25.8353 30.3604 25.7954 30.3677L24.209 30.2127C24.1891 30.2092 24.1236 30.1714 24.0454 30.0777V30.0705L24.3889 29.9336C24.2926 28.8008 23.1951 28.1037 22.5827 27.8678C22.5555 27.7543 22.501 27.6408 22.4047 27.549L22.0631 27.2284L21.7632 27.5851L21.6161 27.767L19.3956 26.8627L20.8402 28.6602L20.2696 29.5158C20.0606 29.7355 20.2914 29.9553 20.2914 29.9553L20.88 30.3569L21.4907 30.1317C21.5124 30.1317 21.5307 30.1372 21.5506 30.1389C21.5216 30.2307 21.4834 30.5909 21.4579 30.6918L20.3985 30.4847L19.2847 31.1079C18.7123 31.524 18.6342 32.2137 18.8468 32.6857L18.9703 32.9539L19.1465 33.3322L19.5354 33.1718C19.5409 33.17 19.5464 33.1683 19.5499 33.1648C19.4101 33.6078 19.4665 34.0291 19.7171 34.3066L19.9533 34.6019L20.2678 34.9964L20.613 34.6289C20.7148 34.528 21.0437 34.1625 21.1454 33.8491L21.2199 33.6095L21.051 33.4258L21.0237 33.3935L21.2127 33.0836L22.5954 33.406L22.9061 33.4762L23.0715 33.2061L23.1624 33.0583C23.1787 33.0278 23.1841 33.0223 23.2478 33.0223C23.2968 33.0223 23.3459 33.0278 23.3986 33.0386C23.9201 33.1358 24.4015 33.1846 24.8286 33.1846C25.2429 33.1846 25.49 33.1683 25.7862 33.0711C25.7862 33.0711 26.5294 33.9067 26.5548 33.9391L26.1006 35.3295L26.0806 35.4142C25.2193 35.4825 24.7996 35.67 24.2926 36.1724C23.5567 35.4483 23.0351 35.3728 21.0564 35.3728C18.6887 35.3728 17.0842 33.9968 17.0842 31.7995V26.427H31.4974L31.5011 31.7995C31.5028 33.5825 30.4471 34.8252 28.7845 35.2306ZM31.9007 17.7585C31.681 18.3349 31.4974 18.9599 31.4974 19.5812L31.4993 23.5904C30.6542 23.4499 30.5543 22.5474 30.5507 22.5079L30.5343 22.3242L30.3526 22.308C29.9855 22.2738 29.7421 22.1188 29.5367 21.9208C29.1224 21.5101 29.1205 20.8437 29.1224 20.8383C29.117 20.8725 28.6664 21.4974 29.1897 22.18C29.4095 22.4682 29.7275 22.6448 30.14 22.715C30.2363 23.2157 30.6124 23.9216 31.4993 24.0298V25.9929H29.0061C27.8559 25.359 28.3428 24.2423 28.3665 24.1955L28.4646 23.9829L28.2448 23.9C27 23.4426 27.3417 22.2107 27.3598 22.1585L27.4107 21.9783L27.2417 21.8991C26.2132 21.4272 26.3532 20.1539 26.366 20.1017C26.0497 20.3556 25.9352 20.8743 26.1533 21.3822C26.0352 21.5155 25.8772 21.6776 25.7045 21.8541C24.6396 21.5858 24.607 20.615 24.607 20.5701L24.6051 20.4205L24.4652 20.3664C24.0491 20.2133 23.7638 19.9846 23.6239 19.6766C23.4659 19.3363 23.5221 18.9797 23.5658 18.8085C23.6875 18.8355 23.8092 18.8554 23.9255 18.8644C24.0454 18.8769 24.169 18.8842 24.2926 18.8842H24.2999H24.309C24.4325 18.8842 24.5543 18.8769 24.6742 18.8644C25.3374 18.7995 26.0806 18.5168 26.8547 17.7567H31.9007V17.7585ZM28.0158 13.7061L29.0006 14.2735H29.0152L29.2624 14.4158C28.7063 14.5689 28.2811 14.8444 27.925 15.2064C27.9123 15.2173 27.8996 15.2317 27.8868 15.2442C27.805 15.3307 27.7232 15.4244 27.647 15.5199C27.6324 15.5379 27.6179 15.5577 27.6015 15.5775C27.5252 15.6747 27.4544 15.7739 27.3853 15.8782C27.3744 15.8963 27.3616 15.9143 27.349 15.9304C27.2671 16.0511 27.1891 16.1808 27.111 16.314C26.4095 17.5118 25.2902 18.2268 24.2945 18.2286C23.3005 18.2268 22.1812 17.5118 21.4797 16.314C21.4034 16.1843 21.3271 16.0584 21.2453 15.9358C21.229 15.9124 21.2144 15.8891 21.2 15.8692C21.1309 15.7702 21.0618 15.6729 20.991 15.5812C20.9728 15.5559 20.9564 15.536 20.9382 15.5144C20.8619 15.4225 20.7838 15.3307 20.7056 15.246C20.6894 15.2335 20.6784 15.2173 20.6621 15.2028C20.3042 14.8408 19.8807 14.5671 19.3228 14.4158L19.5736 14.2735H19.5845L20.5694 13.7061L21.5815 13.1317L24.2853 14.5905L24.2908 14.5851L24.298 14.5905L27.0018 13.1317L28.0158 13.7061ZM26.682 12.4976L24.527 13.6233V9.06666L27.4507 8.08332L26.682 12.4976ZM24.2926 8.56599L21.0872 7.3107C21.3598 6.67133 22.6172 6.12732 24.2926 6.12554C25.9698 6.12732 27.2272 6.67133 27.498 7.3107L24.2926 8.56599Z" fill="black"/>
<path d="M63.9855 27.6267V20.4151H68.2533V17.7908H56.6104V20.4151H60.8779V27.6267H63.9855ZM72.5008 23.5147V17.7908H69.4969V27.6267H72.1487L77.3279 21.9029V27.6267H80.3319V17.7908H77.68L72.5008 23.5147ZM90.4379 23.9693V27.6267H93.4422V17.7908H90.4379V21.3863H85.6108V17.7908H82.6069V27.6267H85.6108V23.9693H90.4379ZM101.807 27.6267C102.491 27.6267 103.112 27.5648 103.693 27.3995C105.247 26.9656 106.261 25.705 106.261 23.9899C106.261 22.3575 105.392 21.2211 104.004 20.7044C103.34 20.4565 102.554 20.4358 101.807 20.4358H98.7205V17.7908H95.7172V27.6267H101.807ZM101.289 22.7502C101.704 22.7502 102.098 22.7502 102.45 22.8742C102.947 23.0394 103.237 23.4527 103.237 23.9486C103.237 24.4653 102.947 24.8992 102.47 25.1058C102.139 25.2505 101.807 25.2505 101.289 25.2505H98.7205V22.7502H101.289ZM111.647 23.9073L115.232 27.6267H119.23L114.238 22.5021L119.044 17.7908H115.273L111.647 21.4897H110.819V17.7908H107.816V27.6267H110.819V23.9073H111.647ZM125.41 17.5223C121.371 17.5223 118.947 19.7952 118.947 22.7294C118.947 25.6638 121.371 27.9368 125.41 27.9368C129.431 27.9368 131.855 25.6638 131.855 22.7294C131.855 19.7952 129.431 17.5223 125.41 17.5223ZM125.41 25.5398C123.401 25.5398 122.118 24.3413 122.118 22.7294C122.118 21.1178 123.401 19.9399 125.41 19.9399C127.4 19.9399 128.705 21.1178 128.705 22.7294C128.705 24.3413 127.4 25.5398 125.41 25.5398ZM141.859 17.2329H138.855V18.2247C135.084 18.3074 132.826 19.8985 132.826 22.7088C132.826 25.519 135.084 26.9862 138.855 27.0689V28.0608H141.859V27.0689C145.649 26.9862 147.908 25.519 147.908 22.7088C147.908 19.8985 145.649 18.3074 141.859 18.2247V17.2329ZM138.855 24.9612C136.783 24.8785 135.871 24.0313 135.871 22.7088C135.871 21.3863 136.783 20.4358 138.855 20.3532V24.9612ZM141.859 20.3532C143.952 20.4358 144.842 21.3863 144.842 22.7088C144.842 24.0313 143.952 24.8785 141.859 24.9612V20.3532ZM157.902 17.2329H154.897V18.2247C151.127 18.3074 148.87 19.8985 148.87 22.7088C148.87 25.519 151.127 26.9862 154.897 27.0689V28.0608H157.902V27.0689C161.693 26.9862 163.951 25.519 163.951 22.7088C163.951 19.8985 161.693 18.3074 157.902 18.2247V17.2329ZM154.897 24.9612C152.826 24.8785 151.915 24.0313 151.915 22.7088C151.915 21.3863 152.826 20.4358 154.897 20.3532V24.9612ZM157.902 20.3532C159.994 20.4358 160.885 21.3863 160.885 22.7088C160.885 24.0313 159.994 24.8785 157.902 24.9612V20.3532Z" fill="black"/>
</svg>
