<svg width="24" height="24" viewBox="0 0 24 24" fill="none" xmlns="http://www.w3.org/2000/svg">
<path fill-rule="evenodd" clip-rule="evenodd" d="M20.99 2.00998C20.9933 2.00991 20.9967 2.00988 21 2.00988H20.99V2.00998ZM20.99 2.00998C20.8634 2.01248 20.7377 2.06244 20.65 2.15988L19.86 2.94988C19.66 3.14988 19.35 3.14988 19.15 2.94988L18.36 2.15988C18.16 1.95988 17.85 1.95988 17.65 2.15988L16.86 2.94988C16.66 3.14988 16.35 3.14988 16.15 2.94988L15.36 2.15988C15.16 1.95988 14.85 1.95988 14.65 2.15988L13.86 2.94988C13.66 3.14988 13.35 3.14988 13.15 2.94988L12.36 2.15988C12.16 1.95988 11.85 1.95988 11.65 2.15988L10.86 2.94988C10.66 3.14988 10.35 3.14988 10.15 2.94988L9.35 2.14988C9.15 1.94988 8.84 1.94988 8.64 2.14988L7.85 2.94988C7.65 3.14988 7.34 3.14988 7.14 2.94988L6.35 2.14988C6.15 1.94988 5.84 1.94988 5.64 2.14988L4.85 2.94988C4.65 3.14988 4.34 3.14988 4.14 2.94988L3.35 2.14988C3.26 2.05988 3.13 2.00988 3 2.00988V21.5999C3.13 21.5999 3.26 21.5499 3.35 21.4499L4.14 20.6599C4.34 20.4599 4.65 20.4599 4.85 20.6599L5.64 21.4499C5.84 21.6499 6.15 21.6499 6.35 21.4499L7.14 20.6599C7.34 20.4599 7.65 20.4599 7.85 20.6599L8.64 21.4499C8.84 21.6499 9.15 21.6499 9.35 21.4499L10.14 20.6599C10.34 20.4599 10.65 20.4599 10.85 20.6599L11.64 21.4499C11.84 21.6499 12.15 21.6499 12.35 21.4499L13.14 20.6599C13.34 20.4599 13.65 20.4599 13.85 20.6599L14.64 21.4499C14.84 21.6499 15.15 21.6499 15.35 21.4499L16.14 20.6599C16.34 20.4599 16.65 20.4599 16.85 20.6599L17.64 21.4499C17.84 21.6499 18.15 21.6499 18.35 21.4499L19.14 20.6599C19.34 20.4599 19.65 20.4599 19.85 20.6599L20.64 21.4499C20.74 21.5499 20.87 21.5999 20.99 21.5999V2.00998ZM11.4211 9.09363C11.4211 10.3202 10.507 11.1405 9.15156 11.1405C7.87422 11.1405 6.96016 10.4022 6.94062 9.35144H8.24141C8.30781 9.75769 8.68672 10.0389 9.16328 10.0389C9.70234 10.0389 10.0695 9.66394 10.0695 9.12878C10.0695 8.5741 9.70625 8.19128 9.16719 8.19128C8.79609 8.19128 8.47578 8.36316 8.29609 8.65222H7.03047L7.29609 5.36316H11.0695V6.46472H8.40547L8.3 7.85535H8.32734C8.54219 7.453 8.98359 7.1991 9.57734 7.1991C10.6477 7.1991 11.4211 7.99207 11.4211 9.09363ZM16.4513 10.9999H15.0958V10.0858H12.3106V8.8866C12.8067 7.92566 13.3927 6.95691 14.4591 5.36316H16.4513V8.96863H17.1544V10.0858H16.4513V10.9999ZM15.1075 6.33191C14.4161 7.36316 13.9864 8.04285 13.5255 8.98035V9.01941H15.1348V6.33191H15.1075ZM8.47188 16.4139C7.72969 16.3749 7.2375 15.9178 7.2375 15.1757C7.2375 14.4374 7.72969 13.9803 8.47188 13.9374V16.4139ZM11.0695 15.1796C11.0695 15.9178 10.5734 16.3749 9.83516 16.4139V13.9374C10.5734 13.9764 11.0695 14.4374 11.0695 15.1796ZM8.45234 17.5311V18.1366H9.85469V17.5311C11.4367 17.4764 12.507 16.6249 12.507 15.1796C12.507 13.7264 11.4445 12.8788 9.85469 12.8241V12.2264H8.45234V12.8241C6.87031 12.8788 5.8 13.7303 5.8 15.1757C5.8 16.6288 6.8625 17.4764 8.45234 17.5311ZM15.7091 15.6561H14.9708V14.5858H15.7091C16.2091 14.5858 16.5411 14.328 16.5411 13.9296C16.5411 13.5311 16.2247 13.285 15.7052 13.285C15.1817 13.285 14.8341 13.5741 14.8184 14.0155H13.5138C13.5372 12.9139 14.4005 12.2108 15.7364 12.2108C17.0255 12.2108 17.8848 12.828 17.8848 13.7499C17.8848 14.3944 17.4513 14.9061 16.8145 15.0272V15.0585C17.5802 15.1405 18.0723 15.6718 18.0723 16.4218C18.0723 17.4413 17.0997 18.1522 15.7013 18.1522C14.3614 18.1522 13.4513 17.4335 13.4005 16.328H14.7677C14.7872 16.7577 15.1583 17.0233 15.7286 17.0233C16.252 17.0233 16.6036 16.7343 16.6036 16.3124C16.6036 15.9022 16.2677 15.6561 15.7091 15.6561Z" fill="black"/>
</svg>
