<svg width="24" height="24" viewBox="0 0 24 24" fill="none" xmlns="http://www.w3.org/2000/svg">
<path fill-rule="evenodd" clip-rule="evenodd" d="M12 2C6.48 2 2 6.48 2 12C2 17.52 6.48 22 12 22C13.1262 22 14.2091 21.8135 15.2195 21.4698C15.0768 21.0051 15 20.5115 15 20C15 17.2386 17.2386 15 20 15C20.5115 15 21.0051 15.0768 21.4698 15.2195C21.8135 14.2091 22 13.1262 22 12C22 6.48 17.52 2 12 2ZM12 17C11.45 17 11 16.55 11 16V12C11 11.45 11.45 11 12 11C12.55 11 13 11.45 13 12V16C13 16.55 12.55 17 12 17ZM13 8C13 8.55228 12.5523 9 12 9C11.4477 9 11 8.55228 11 8C11 7.44772 11.4477 7 12 7C12.5523 7 13 7.44772 13 8ZM20 17C20.5523 17 21 17.4477 21 18V19H22C22.5523 19 23 19.4477 23 20C23 20.5523 22.5523 21 22 21H21V22C21 22.5523 20.5523 23 20 23C19.4477 23 19 22.5523 19 22V21H18C17.4477 21 17 20.5523 17 20C17 19.4477 17.4477 19 18 19H19V18C19 17.4477 19.4477 17 20 17Z" fill="black"/>
</svg>
