<svg width="24" height="24" viewBox="0 0 24 24" fill="none" xmlns="http://www.w3.org/2000/svg">
<path fill-rule="evenodd" clip-rule="evenodd" d="M5 2C5 1.44772 5.44772 1 6 1H8C8.55228 1 9 1.44772 9 2V3H5V2ZM5 4H9V8.12602C10.0508 8.39648 10.9346 9.08324 11.4649 10H14V14H12H10V18H12H14V14H18V18H22V20C22 21.1046 21.1046 22 20 22H18H14H10H6H4C2.89543 22 2 21.1046 2 20V18V14V12C2 10.1362 3.27477 8.57006 5 8.12602V4ZM18 10V14H22V10H18ZM18 6H14V10H18V6ZM18 6V2H20C21.1046 2 22 2.89543 22 4V6H18Z" fill="black"/>
</svg>
