<svg width="24" height="24" viewBox="0 0 24 24" fill="none" xmlns="http://www.w3.org/2000/svg">
<path fill-rule="evenodd" clip-rule="evenodd" d="M21.26 16.9999C22.03 18.3299 21.07 19.9999 19.53 19.9999H4.47C2.93 19.9999 1.97 18.3299 2.74 16.9999L10.27 3.98993C11.04 2.65993 12.96 2.65993 13.73 3.98993L21.26 16.9999ZM11 11.9999C11 12.5499 11.45 12.9999 12 12.9999C12.55 12.9999 13 12.5499 13 11.9999V7.99994C13 7.44994 12.55 6.99994 12 6.99994C11.45 6.99994 11 7.44994 11 7.99994V11.9999ZM12 16.9999C12.5523 16.9999 13 16.5522 13 15.9999C13 15.4477 12.5523 14.9999 12 14.9999C11.4477 14.9999 11 15.4477 11 15.9999C11 16.5522 11.4477 16.9999 12 16.9999Z" fill="black"/>
</svg>
