<svg width="24" height="24" viewBox="0 0 24 24" fill="none" xmlns="http://www.w3.org/2000/svg">
<path fill-rule="evenodd" clip-rule="evenodd" d="M4 10H3.2961H3C2.71667 10 2.47933 10.0957 2.288 10.287C2.096 10.479 2 10.7167 2 11V12C2 12.2833 2.096 12.5207 2.288 12.712C2.41085 12.8353 2.55266 12.919 2.71344 12.9631C2.62748 13.2513 2.51951 13.5149 2.3895 13.7541C2.33448 13.8619 2.27993 13.9692 2.22586 14.076C2.10069 14.3232 2.2021 14.6246 2.45058 14.7473L3.02929 15.0331C3.20916 15.1219 3.42662 15.0964 3.5681 14.9542C3.93694 14.5834 4.25125 14.1337 4.51105 13.605C4.70596 13.2117 4.84055 12.8175 4.91482 12.4221C4.97161 12.2951 5 12.1544 5 12V11C5 10.7167 4.90433 10.479 4.713 10.287C4.521 10.0957 4.28333 10 4 10ZM9.5 13C8.53333 13 7.70833 12.6583 7.025 11.975C6.34167 11.2917 6 10.4667 6 9.5V5.5C6 4.53333 6.34167 3.70833 7.025 3.025C7.70833 2.34167 8.53333 2 9.5 2C10.4667 2 11.2917 2.34167 11.975 3.025C12.6583 3.70833 13 4.53333 13 5.5V9.5C13 10.4667 12.6583 11.2917 11.975 11.975C11.2917 12.6583 10.4667 13 9.5 13ZM18.5 13C17.5333 13 16.7083 12.6583 16.025 11.975C15.3417 11.2917 15 10.4667 15 9.5V5.5C15 4.53333 15.3417 3.70833 16.025 3.025C16.7083 2.34167 17.5333 2 18.5 2C19.4667 2 20.2917 2.34167 20.975 3.025C21.6583 3.70833 22 4.53333 22 5.5V9.5C22 10.4667 21.6583 11.2917 20.975 11.975C20.2917 12.6583 19.4667 13 18.5 13ZM9.5 11C9.91667 11 10.2707 10.854 10.562 10.562C10.854 10.2707 11 9.91667 11 9.5V5.5C11 5.08333 10.854 4.72933 10.562 4.438C10.2707 4.146 9.91667 4 9.5 4C9.08333 4 8.72933 4.146 8.438 4.438C8.146 4.72933 8 5.08333 8 5.5V9.5C8 9.91667 8.146 10.2707 8.438 10.562C8.72933 10.854 9.08333 11 9.5 11ZM18.5 11C18.9167 11 19.2707 10.854 19.562 10.562C19.854 10.2707 20 9.91667 20 9.5V5.5C20 5.08333 19.854 4.72933 19.562 4.438C19.2707 4.146 18.9167 4 18.5 4C18.0833 4 17.7293 4.146 17.438 4.438C17.146 4.72933 17 5.08333 17 5.5V9.5C17 9.91667 17.146 10.2707 17.438 10.562C17.7293 10.854 18.0833 11 18.5 11ZM15.425 18.9999L16.3 19.8749C16.4833 20.0749 16.5793 20.3122 16.588 20.5869C16.596 20.8622 16.5 21.0999 16.3 21.2999C16.1 21.4999 15.8627 21.5999 15.588 21.5999C15.3127 21.5999 15.075 21.4999 14.875 21.2999L12.3 18.6999C12.1 18.4999 12 18.2666 12 17.9999C12 17.7332 12.1 17.4999 12.3 17.2999L14.875 14.6999C15.075 14.4999 15.3127 14.3999 15.588 14.3999C15.8627 14.3999 16.1 14.4999 16.3 14.6999C16.5 14.8999 16.596 15.1372 16.588 15.4119C16.5793 15.6872 16.4833 15.9249 16.3 16.1249L15.425 16.9999H20.575C20.8583 16.9999 21.096 17.0959 21.288 17.2879C21.4793 17.4792 21.575 17.7166 21.575 17.9999C21.575 18.2832 21.4793 18.5206 21.288 18.7119C21.096 18.9039 20.8583 18.9999 20.575 18.9999H15.425Z" fill="black"/>
</svg>
