<svg width="24" height="24" viewBox="0 0 24 24" fill="none" xmlns="http://www.w3.org/2000/svg">
<path d="M20.54 5.23L19.15 3.55C18.88 3.21 18.47 3 18 3H6C5.53 3 5.12 3.21 4.84 3.55L3.46 5.23C3.17 5.57 3 6.02 3 6.5V19C3 20.1 3.9 21 5 21H19C20.1 21 21 20.1 21 19V6.5C21 6.02 20.83 5.57 20.54 5.23ZM11.65 17.15L7.35355 12.8536C7.03857 12.5386 7.26165 12 7.70711 12H10V10.5C10 10.2239 10.2239 10 10.5 10H13.5C13.7761 10 14 10.2239 14 10.5V12H16.2929C16.7383 12 16.9614 12.5386 16.6464 12.8536L12.35 17.15C12.16 17.34 11.84 17.34 11.65 17.15ZM5.12 5L5.93 4H17.93L18.87 5H5.12Z" fill="black"/>
</svg>
