<svg width="24" height="24" viewBox="0 0 24 24" fill="none" xmlns="http://www.w3.org/2000/svg">
<path fill-rule="evenodd" clip-rule="evenodd" d="M4 5C3.72386 5 3.5 5.22386 3.5 5.5V18.5C3.5 18.7761 3.72386 19 4 19H5C5.27614 19 5.5 18.7761 5.5 18.5V5.5C5.5 5.22386 5.27614 5 5 5H4ZM13 5C12.7239 5 12.5 5.22386 12.5 5.5V18.5C12.5 18.7761 12.7239 19 13 19H14C14.2761 19 14.5 18.7761 14.5 18.5V5.5C14.5 5.22386 14.2761 5 14 5H13ZM18.5 5.5C18.5 5.22386 18.7239 5 19 5H20C20.2761 5 20.5 5.22386 20.5 5.5V18.5C20.5 18.7761 20.2761 19 20 19H19C18.7239 19 18.5 18.7761 18.5 18.5V5.5ZM7 5C6.72386 5 6.5 5.22386 6.5 5.5V16.5C6.5 16.7761 6.72386 17 7 17H8C8.27614 17 8.5 16.7761 8.5 16.5V5.5C8.5 5.22386 8.27614 5 8 5H7ZM9.5 5.5C9.5 5.22386 9.72386 5 10 5H11C11.2761 5 11.5 5.22386 11.5 5.5V16.5C11.5 16.7761 11.2761 17 11 17H10C9.72386 17 9.5 16.7761 9.5 16.5V5.5ZM16 5C15.7239 5 15.5 5.22386 15.5 5.5V16.5C15.5 16.7761 15.7239 17 16 17H17C17.2761 17 17.5 16.7761 17.5 16.5V5.5C17.5 5.22386 17.2761 5 17 5H16Z" fill="black"/>
</svg>
