<svg width="24" height="24" viewBox="0 0 24 24" fill="none" xmlns="http://www.w3.org/2000/svg">
<path fill-rule="evenodd" clip-rule="evenodd" d="M0.00516289 2.89776C0.00174889 2.93137 0 2.96548 0 3V6C0 6.55228 0.447715 7 1 7C1.55228 7 2 6.55228 2 6L2 4H4C4.55228 4 5 3.55228 5 3C5 2.44772 4.55228 2 4 2H1C0.482233 2 0.0563729 2.3935 0.00516289 2.89776ZM23.9948 21.1022C23.9983 21.0686 24 21.0345 24 21V18C24 17.4477 23.5523 17 23 17C22.4477 17 22 17.4477 22 18V20H20C19.4477 20 19 20.4477 19 21C19 21.5523 19.4477 22 20 22H23C23.5178 22 23.9436 21.6065 23.9948 21.1022ZM23 2C23.0345 2 23.0686 2.00175 23.1022 2.00516C23.6065 2.05637 24 2.48223 24 3V6C24 6.55228 23.5523 7 23 7C22.4477 7 22 6.55228 22 6V4L20 4C19.4477 4 19 3.55228 19 3C19 2.44771 19.4477 2 20 2H23ZM0.897756 21.9948C0.931373 21.9983 0.965482 22 1 22H4C4.55228 22 5 21.5523 5 21C5 20.4477 4.55229 20 4 20H2L2 18C2 17.4477 1.55229 17 1 17C0.447716 17 0 17.4477 0 18V21C0 21.5178 0.3935 21.9436 0.897756 21.9948ZM3.19922 5.60011H4.79922V18.4001H3.19922V5.60011ZM8.00039 5.60011H6.40039V15.2001H8.00039V5.60011ZM9.59961 5.60011H11.1996V15.2001H9.59961V5.60011ZM14.4008 5.60011H12.8008V18.4001H14.4008V5.60011ZM16 5.60011H17.6V15.2001H16V5.60011ZM20.7992 5.60011H19.1992V18.4001H20.7992V5.60011ZM6.40039 16.8001H8.00039V18.4001H6.40039V16.8001ZM11.1996 16.8001H9.59961V18.4001H11.1996V16.8001ZM16 16.8001H17.6V18.4001H16V16.8001Z" fill="black"/>
</svg>
