<svg width="24" height="24" viewBox="0 0 24 24" fill="none" xmlns="http://www.w3.org/2000/svg">
<path fill-rule="evenodd" clip-rule="evenodd" d="M6 4C6 3.44772 6.44772 3 7 3H18C18.5523 3 19 3.44772 19 4V8C19 8.55228 18.5523 9 18 9H7C6.44772 9 6 8.55228 6 8V4ZM10 6C10 5.44772 10.4477 5 11 5H14C14.5523 5 15 5.44772 15 6C15 6.55228 14.5523 7 14 7H11C10.4477 7 10 6.55228 10 6ZM6 11C6 10.4477 6.44772 10 7 10H18C18.5523 10 19 10.4477 19 11V15C19 15.5523 18.5523 16 18 16H7C6.44772 16 6 15.5523 6 15V11ZM6 18C6 17.4477 6.44772 17 7 17H18C18.5523 17 19 17.4477 19 18V20C19 20.5523 18.5523 21 18 21H7C6.44772 21 6 20.5523 6 20V18Z" fill="#1A1818"/>
</svg>
