<svg width="24" height="24" viewBox="0 0 24 24" fill="none" xmlns="http://www.w3.org/2000/svg">
<path d="M8.386 20.3479C8.04793 20.2573 7.86736 19.888 8.00624 19.5628L10.5165 13.6718L7.13575 12.7659C6.28573 12.5382 7.01111 11.9561 7.03819 11.9323C8.83242 10.1044 11.5121 7.40598 15.0657 3.80295C15.2089 3.65496 15.4306 3.60048 15.6238 3.65224C15.9618 3.74283 16.1424 4.11215 16.0035 4.43728L13.4933 10.3283L16.8837 11.2368C17.27 11.3403 17.4334 11.5808 17.0992 11.9778C12.4357 16.6707 9.72375 19.4122 8.94402 20.1971C8.80084 20.3451 8.58884 20.4022 8.386 20.3479Z" fill="black"/>
</svg>
