<svg width="24" height="24" viewBox="0 0 24 24" fill="none" xmlns="http://www.w3.org/2000/svg">
<path d="M6.5 16.5C7.28333 16.5 8.046 16.5873 8.788 16.762C9.52933 16.9373 10.2667 17.2 11 17.55V7.7C10.3167 7.3 9.59167 7 8.825 6.8C8.05833 6.6 7.28333 6.5 6.5 6.5C5.9 6.5 5.30433 6.55833 4.713 6.675C4.121 6.79167 3.55 6.96667 3 7.2V17.1C3.58333 16.9 4.16267 16.75 4.738 16.65C5.31267 16.55 5.9 16.5 6.5 16.5ZM13 17.55C13.7333 17.2 14.471 16.9373 15.213 16.762C15.9543 16.5873 16.7167 16.5 17.5 16.5C18.1 16.5 18.6877 16.55 19.263 16.65C19.8377 16.75 20.4167 16.9 21 17.1V7.2C20.45 6.96667 19.8793 6.79167 19.288 6.675C18.696 6.55833 18.1 6.5 17.5 6.5C16.7167 6.5 15.9417 6.6 15.175 6.8C14.4083 7 13.6833 7.3 13 7.7V17.55ZM12 19.975C11.7667 19.975 11.546 19.946 11.338 19.888C11.1293 19.8293 10.9333 19.75 10.75 19.65C10.1 19.2667 9.41667 18.9793 8.7 18.788C7.98333 18.596 7.25 18.5 6.5 18.5C5.8 18.5 5.11267 18.5917 4.438 18.775C3.76267 18.9583 3.11667 19.2167 2.5 19.55C2.15 19.7333 1.81267 19.725 1.488 19.525C1.16267 19.325 1 19.0333 1 18.65V6.6C1 6.41667 1.046 6.24167 1.138 6.075C1.22933 5.90833 1.36667 5.78333 1.55 5.7C2.31667 5.3 3.11667 5 3.95 4.8C4.78333 4.6 5.63333 4.5 6.5 4.5C7.46667 4.5 8.41267 4.625 9.338 4.875C10.2627 5.125 11.15 5.5 12 6C12.85 5.5 13.7377 5.125 14.663 4.875C15.5877 4.625 16.5333 4.5 17.5 4.5C18.3667 4.5 19.2167 4.6 20.05 4.8C20.8833 5 21.6833 5.3 22.45 5.7C22.6333 5.78333 22.771 5.90833 22.863 6.075C22.9543 6.24167 23 6.41667 23 6.6V18.65C23 19.0333 22.8377 19.325 22.513 19.525C22.1877 19.725 21.85 19.7333 21.5 19.55C20.8833 19.2167 20.2373 18.9583 19.562 18.775C18.8873 18.5917 18.2 18.5 17.5 18.5C16.75 18.5 16.0167 18.596 15.3 18.788C14.5833 18.9793 13.9 19.2667 13.25 19.65C13.0667 19.75 12.871 19.8293 12.663 19.888C12.4543 19.946 12.2333 19.975 12 19.975Z" fill="black"/>
</svg>
