<svg width="24" height="24" viewBox="0 0 24 24" fill="none" xmlns="http://www.w3.org/2000/svg">
<path fill-rule="evenodd" clip-rule="evenodd" d="M4 3.25109C4 2.56013 4.56064 2 5.24988 2H17.7501C18.4404 2 19 2.56106 19 3.25109V20.7489C19 21.4399 18.4394 22 17.7501 22H5.24988C4.55959 22 4 21.4389 4 20.7489V3.25109ZM7.12554 4.5C6.78053 4.5 6.5 4.78012 6.5 5.12567V8.87433C6.5 9.22046 6.78007 9.5 7.12554 9.5H15.8745C16.2195 9.5 16.5 9.21988 16.5 8.87433V5.12567C16.5 4.77954 16.2199 4.5 15.8745 4.5M7.75 19.5C8.44036 19.5 9 18.9404 9 18.25C9 17.5596 8.44036 17 7.75 17C7.05964 17 6.5 17.5596 6.5 18.25C6.5 18.9404 7.05964 19.5 7.75 19.5ZM11.5 19.5C12.1904 19.5 12.75 18.9404 12.75 18.25C12.75 17.5596 12.1904 17 11.5 17C10.8096 17 10.25 17.5596 10.25 18.25C10.25 18.9404 10.8096 19.5 11.5 19.5ZM15.25 19.5C15.9404 19.5 16.5 18.9404 16.5 18.25C16.5 17.5596 15.9404 17 15.25 17C14.5596 17 14 17.5596 14 18.25C14 18.9404 14.5596 19.5 15.25 19.5ZM7.75 14.5C8.44036 14.5 9 13.9404 9 13.25C9 12.5596 8.44036 12 7.75 12C7.05964 12 6.5 12.5596 6.5 13.25C6.5 13.9404 7.05964 14.5 7.75 14.5ZM11.5 14.5C12.1904 14.5 12.75 13.9404 12.75 13.25C12.75 12.5596 12.1904 12 11.5 12C10.8096 12 10.25 12.5596 10.25 13.25C10.25 13.9404 10.8096 14.5 11.5 14.5ZM15.25 14.5C15.9404 14.5 16.5 13.9404 16.5 13.25C16.5 12.5596 15.9404 12 15.25 12C14.5596 12 14 12.5596 14 13.25C14 13.9404 14.5596 14.5 15.25 14.5Z" fill="black"/>
</svg>
