<svg width="24" height="24" viewBox="0 0 24 24" fill="none" xmlns="http://www.w3.org/2000/svg">
<path fill-rule="evenodd" clip-rule="evenodd" d="M12.0502 10.6C11.9669 10.6334 11.8752 10.65 11.7752 10.65C11.6752 10.65 11.5835 10.6375 11.5002 10.6125C11.4169 10.5875 11.3335 10.5334 11.2502 10.45L5.42521 4.62505C5.27521 4.47505 5.20021 4.29588 5.20021 4.08755C5.20021 3.87922 5.27521 3.70005 5.42521 3.55005C5.57521 3.40005 5.75437 3.32922 5.96271 3.33755C6.17104 3.34588 6.35021 3.42505 6.50021 3.57505L11.7502 8.82505L16.0752 4.55005H13.6752C13.4585 4.55005 13.2794 4.47922 13.1377 4.33755C12.996 4.19588 12.9252 4.01672 12.9252 3.80005C12.9252 3.58338 12.996 3.40422 13.1377 3.26255C13.2794 3.12088 13.4585 3.05005 13.6752 3.05005H17.8002C18.0169 3.05005 18.196 3.12088 18.3377 3.26255C18.4794 3.40422 18.5502 3.58338 18.5502 3.80005V7.92505C18.5502 8.14172 18.4794 8.32088 18.3377 8.46255C18.196 8.60422 18.0169 8.67505 17.8002 8.67505C17.5835 8.67505 17.4044 8.60422 17.2627 8.46255C17.121 8.32088 17.0502 8.14172 17.0502 7.92505V5.62505L12.3002 10.425C12.2169 10.5084 12.1335 10.5667 12.0502 10.6ZM6.58153 18.9069L4.58042 20.4979C3.78139 21.1273 2.64295 21.0636 1.93584 20.3424L0.712549 19.1191C-0.0864812 18.3201 -0.0864821 16.9907 0.762046 16.2412C7.16843 10.5843 16.8204 10.5772 23.2339 16.2412C24.0824 16.9907 24.0824 18.3201 23.2834 19.1191L22.0601 20.3424C21.3389 21.0636 20.2004 21.1273 19.4014 20.4979L17.4144 18.9211C16.9336 18.5393 16.6578 17.9665 16.6578 17.3584V14.7421C13.6314 13.7521 10.3575 13.7592 7.33814 14.7421L7.33814 17.3442C7.33814 17.9524 7.06237 18.5251 6.58153 18.9069Z" fill="black"/>
</svg>
