<svg width="24" height="24" viewBox="0 0 24 24" fill="none" xmlns="http://www.w3.org/2000/svg">
<path d="M4.59066 16.7874L6.59178 15.1964C7.07261 14.8145 7.34838 14.2418 7.34838 13.6337L7.34838 11.0315C10.3677 10.0486 13.6416 10.0416 16.668 11.0315L16.668 13.6478C16.668 14.2559 16.9438 14.8287 17.4247 15.2105L19.4116 16.7874C20.2107 17.4167 21.3491 17.3531 22.0703 16.6318L23.2936 15.4085C24.0927 14.6095 24.0927 13.2801 23.2441 12.5306C16.8307 6.86666 7.17868 6.87373 0.772288 12.5306C-0.0762401 13.2801 -0.0762387 14.6095 0.722791 15.4085L1.94609 16.6318C2.65319 17.3531 3.79163 17.4167 4.59066 16.7874Z" fill="black"/>
</svg>
