<svg width="24" height="24" viewBox="0 0 24 24" fill="none" xmlns="http://www.w3.org/2000/svg">
<path d="M16.5 3.92015V5.13727C16.5 5.44325 16.8713 5.59284 17.0844 5.37526L19.0025 3.47818C19.14 3.34219 19.14 3.1314 19.0025 2.99541L17.0844 1.09833C16.8713 0.887548 16.5 1.03714 16.5 1.34312V2.56024C13.4612 2.56024 11 4.99448 11 7.99989C11 8.70704 11.1375 9.387 11.3919 10.0058C11.5775 10.4613 12.1687 10.5837 12.5194 10.2369C12.705 10.0534 12.7806 9.77457 12.6775 9.52979C12.4781 9.06062 12.375 8.53705 12.375 7.99989C12.375 5.74923 14.2244 3.92015 16.5 3.92015ZM20.4806 5.76283C20.295 5.94642 20.2194 6.232 20.3225 6.46999C20.515 6.94596 20.625 7.46272 20.625 7.99989C20.625 10.2505 18.7756 12.0796 16.5 12.0796V10.8625C16.5 10.5565 16.1288 10.4069 15.9156 10.6245L13.9975 12.5216C13.86 12.6576 13.86 12.8684 13.9975 13.0044L15.9156 14.9014C16.1288 15.1122 16.5 14.9626 16.5 14.6635V13.4395C19.5387 13.4395 22 11.0053 22 7.99989C22 7.29273 21.8625 6.61278 21.6081 5.99402C21.4225 5.53845 20.8312 5.41605 20.4806 5.76283Z" fill="black"/>
<path d="M18.2364 17.2748L15.6912 16.9842C15.08 16.914 14.4788 17.1245 14.0479 17.5553L12.2042 19.3991C9.3685 17.9561 7.04383 15.6415 5.60092 12.7957L7.45465 10.942C7.88552 10.5111 8.09594 9.90991 8.0258 9.29868L7.73522 6.77358C7.61497 5.76154 6.76326 5 5.7412 5H4.00771C2.87544 5 1.93354 5.9419 2.00368 7.07419C2.53475 15.6315 9.37852 22.4652 17.9257 22.9963C19.058 23.0665 19.9999 22.1246 19.9999 20.9923V19.2588C20.0099 18.2467 19.2484 17.395 18.2364 17.2748Z" fill="black"/>
</svg>
