<svg width="24" height="24" viewBox="0 0 24 24" fill="none" xmlns="http://www.w3.org/2000/svg">
<path fill-rule="evenodd" clip-rule="evenodd" d="M18 20.0007C20.4289 18.1763 22 15.2716 22 12C22 6.47715 17.5228 2 12 2C6.47715 2 2 6.47715 2 12C2 15.2716 3.57111 18.1763 6 20.0007V10.5385C6 9.85872 6.3723 9.26172 6.92308 8.9413V6.84615C6.92308 5.83076 7.75387 5 8.76923 5H15.2308C16.2461 5 17.0769 5.83076 17.0769 6.84615V8.9413C17.6277 9.26172 18 9.85872 18 10.5385V20.0007ZM9.24392 21.6154H11.0769C11.3318 21.6154 11.5385 21.4087 11.5385 21.1538V19.3077C11.5385 19.0528 11.3318 18.8462 11.0769 18.8462H9.23077C8.97589 18.8462 8.76923 19.0528 8.76923 19.3077V21.1538C8.76923 21.3097 8.84648 21.4475 8.96477 21.5311C9.05724 21.5605 9.1503 21.5886 9.24392 21.6154ZM15.2308 8.69231V7.76923C15.2308 7.26154 14.8154 6.84615 14.3077 6.84615H9.69231C9.18463 6.84615 8.76923 7.26154 8.76923 7.76923V8.69231H15.2308ZM8.76923 11.9231C8.76923 11.6682 8.97589 11.4615 9.23077 11.4615H14.7692C15.0241 11.4615 15.2308 11.6682 15.2308 11.9231V13.7692C15.2308 14.0241 15.0241 14.2308 14.7692 14.2308H9.23077C8.97589 14.2308 8.76923 14.0241 8.76923 13.7692V11.9231ZM9.23077 15.1538C8.97589 15.1538 8.76923 15.3605 8.76923 15.6154V17.4615C8.76923 17.7164 8.97589 17.9231 9.23077 17.9231H11.0769C11.3318 17.9231 11.5385 17.7164 11.5385 17.4615V15.6154C11.5385 15.3605 11.3318 15.1538 11.0769 15.1538H9.23077ZM12.9231 15.1538C12.6682 15.1538 12.4615 15.3605 12.4615 15.6154V17.4615C12.4615 17.7164 12.6682 17.9231 12.9231 17.9231H14.7692C15.0241 17.9231 15.2308 17.7164 15.2308 17.4615V15.6154C15.2308 15.3605 15.0241 15.1538 14.7692 15.1538H12.9231Z" fill="black"/>
</svg>
