<svg width="24" height="24" viewBox="0 0 24 24" fill="none" xmlns="http://www.w3.org/2000/svg">
<path fill-rule="evenodd" clip-rule="evenodd" d="M12.1538 4.69231C12.1538 3.76153 11.3923 3 10.4615 3H4.53846C3.60771 3 2.84615 3.76153 2.84615 4.69231V6.61286C2.34127 6.90658 2 7.45382 2 8.07692V19.0769C2 20.0077 2.76156 20.7692 3.69231 20.7692H11.3077C12.2384 20.7692 13 20.0077 13 19.0769V8.07692C13 7.45382 12.6587 6.90658 12.1538 6.61286V4.69231ZM10.4615 6.38462V5.53846C10.4615 5.07307 10.0808 4.69231 9.61538 4.69231H5.38462C4.91924 4.69231 4.53846 5.07307 4.53846 5.53846V6.38462H10.4615ZM4.53125 9.34593C4.53125 9.11227 4.72068 8.92285 4.95433 8.92285H10.0312C10.2649 8.92285 10.4543 9.11227 10.4543 9.34593V11.0382C10.4543 11.2719 10.2649 11.4613 10.0312 11.4613H4.95433C4.72068 11.4613 4.53125 11.2719 4.53125 11.0382V9.34593ZM4.95433 12.3075C4.72068 12.3075 4.53125 12.4969 4.53125 12.7305V14.4229C4.53125 14.6565 4.72068 14.8459 4.95433 14.8459H6.64663C6.88028 14.8459 7.06971 14.6565 7.06971 14.4229V12.7305C7.06971 12.4969 6.88028 12.3075 6.64663 12.3075H4.95433ZM8.33894 12.3075C8.1053 12.3075 7.91586 12.4969 7.91586 12.7305V14.4229C7.91586 14.6565 8.1053 14.8459 8.33894 14.8459H10.0312C10.2649 14.8459 10.4543 14.6565 10.4543 14.4229V12.7305C10.4543 12.4969 10.2649 12.3075 10.0312 12.3075H8.33894ZM4.95433 15.6921C4.72068 15.6921 4.53125 15.8815 4.53125 16.1152V17.8075C4.53125 18.0411 4.72068 18.2305 4.95433 18.2305H6.64663C6.88028 18.2305 7.06971 18.0411 7.06971 17.8075V16.1152C7.06971 15.8815 6.88028 15.6921 6.64663 15.6921H4.95433ZM19.273 19.004H14.497V8.01408C14.5987 8.00766 14.7012 8.00439 14.8044 8.00439C17.465 8.00439 19.6168 10.1562 19.6168 12.8167C21.1636 12.9955 22.3667 14.2948 22.3667 15.8966C22.3667 17.6084 20.9848 18.9971 19.273 19.004Z" fill="black"/>
</svg>
