<svg width="24" height="24" viewBox="0 0 24 24" fill="none" xmlns="http://www.w3.org/2000/svg">
<path fill-rule="evenodd" clip-rule="evenodd" d="M22 12C22 15.0413 20.6423 17.7655 18.5 19.5996V7.85714C18.5 6.83571 17.6643 6.00929 16.6429 6.00929L7.35714 6C6.33571 6 5.5 6.83571 5.5 7.85714V19.5996C3.35767 17.7655 2 15.0413 2 12C2 6.47715 6.47715 2 12 2C17.5228 2 22 6.47715 22 12ZM16.6429 9.71429V20.8591C15.2554 21.5878 13.6759 22 12 22C10.3241 22 8.74456 21.5878 7.35714 20.8591V9.71429H16.6429ZM11.7 7C11.3134 7 11 7.3134 11 7.7C11 8.0866 11.3134 8.4 11.7 8.4H12.3C12.6866 8.4 13 8.0866 13 7.7C13 7.3134 12.6866 7 12.3 7H11.7ZM14.5403 15.8353H12.9096V12.911C12.9096 12.41 12.4996 12 11.9986 12C11.4975 12 11.0876 12.41 11.0876 12.911V15.8353H9.4569C9.04695 15.8353 8.84653 16.3273 9.13805 16.6097L11.6797 19.1514C11.8619 19.3336 12.1444 19.3336 12.3266 19.1514L14.8683 16.6097C15.1507 16.3273 14.9502 15.8353 14.5403 15.8353Z" fill="black"/>
</svg>
