<svg width="24" height="24" viewBox="0 0 24 24" fill="none" xmlns="http://www.w3.org/2000/svg">
<path fill-rule="evenodd" clip-rule="evenodd" d="M2 12C2 6.48 6.47 2 11.99 2C17.52 2 22 6.48 22 12C22 17.52 17.52 22 11.99 22C6.47 22 2 17.52 2 12ZM4 12C4 16.42 7.58 20 12 20C16.42 20 20 16.42 20 12C20 7.58 16.42 4 12 4C7.58 4 4 7.58 4 12ZM12 6C11.4477 6 11 6.44771 11 7V13L11 13.0084C10.9992 13.2655 11.0968 13.5228 11.2929 13.7189L14.1213 16.5474C14.5119 16.9379 15.1451 16.9379 15.5356 16.5474C15.9261 16.1568 15.9261 15.5237 15.5356 15.1332L13 12.5976V7C13 6.44771 12.5523 6 12 6Z" fill="black"/>
</svg>
