<svg width="24" height="24" viewBox="0 0 24 24" fill="none" xmlns="http://www.w3.org/2000/svg">
<path fill-rule="evenodd" clip-rule="evenodd" d="M10.5632 7.86479C11.427 7.14089 12.8894 6.83329 14.8905 6.83329C16.6306 6.83329 17.9812 7.06513 18.8767 7.61931C19.6829 8.11822 20.2226 8.94137 20.2226 10.4999C20.2226 11.8501 19.8195 12.6641 19.3275 13.1725C18.8168 13.7001 18.1224 13.988 17.4157 14.105C16.9311 14.1852 16.6013 14.6555 16.6791 15.1554C16.7569 15.6552 17.2128 15.9954 17.6974 15.9151C18.6505 15.7573 19.7335 15.3477 20.5853 14.4677C21.4556 13.5685 22 12.2649 22 10.4999C22 8.39179 21.2067 6.92333 19.7911 6.04727C18.4649 5.22648 16.7051 5 14.8905 5C12.8339 5 10.8175 5.28963 9.44243 6.44191C9.0615 6.76113 9.00358 7.33844 9.31307 7.73136C9.62255 8.12427 10.1822 8.18402 10.5632 7.86479ZM9.73798 11.864C9.59306 11.3803 9.09545 11.1094 8.62653 11.2589C8.1576 11.4084 7.89494 11.9216 8.03986 12.4053C8.77647 14.8639 10.8683 15.5831 11.9336 15.9494L11.9433 15.9527C12.409 16.1128 12.9122 15.8532 13.0674 15.373C13.2226 14.8927 12.971 14.3736 12.5054 14.2135C11.4081 13.8362 10.1848 13.3552 9.73798 11.864ZM7.25 9C4.35051 9 2 11.2386 2 14C2 16.7614 4.35051 19 7.25 19H10.75C13.6495 19 16 16.7614 16 14C16 11.2386 13.6495 9 10.75 9H7.25ZM3.75 14C3.75 12.1591 5.317 10.6667 7.25 10.6667H10.75C12.683 10.6667 14.25 12.1591 14.25 14C14.25 15.8409 12.683 17.3333 10.75 17.3333H7.25C5.317 17.3333 3.75 15.8409 3.75 14Z" fill="black"/>
</svg>
