<svg width="24" height="24" viewBox="0 0 24 24" fill="none" xmlns="http://www.w3.org/2000/svg">
<path fill-rule="evenodd" clip-rule="evenodd" d="M17.4134 5.42826H3.14319V4.2854C3.14319 3.73312 3.5909 3.2854 4.14319 3.2854H18.9944C20.0892 3.2854 20.6803 4.40317 20.0731 5.309L18.997 6.91422L20.0731 8.51943C20.4705 9.11231 20.4269 9.93984 19.9669 10.4888L18.6764 12.029L19.9669 13.5691C20.4244 14.1151 20.4703 14.945 20.075 15.537L19.002 17.1438L20.075 18.7505C20.6821 19.6597 20.0825 20.7726 18.9944 20.7726H4.14319C3.5909 20.7726 3.14319 20.3249 3.14319 19.7726V18.6297H17.4176L17.0601 18.0944C16.6888 17.5385 16.6884 16.7497 17.0601 16.1931L18.0845 14.6591L16.7331 13.0462C16.2452 12.4639 16.2471 11.5917 16.7331 11.0118L18.0836 9.40002L17.0555 7.86638C16.6824 7.30975 16.682 6.51927 17.0555 5.96205L17.4134 5.42826ZM12.6057 8.16856C12.6057 8.87864 12.03 9.45427 11.3199 9.45427C10.6099 9.45427 10.0342 8.87864 10.0342 8.16856C10.0342 7.45848 10.6099 6.88284 11.3199 6.88284C12.03 6.88284 12.6057 7.45848 12.6057 8.16856ZM11.3199 13.3147C12.03 13.3147 12.6057 12.7391 12.6057 12.029C12.6057 11.3189 12.03 10.7433 11.3199 10.7433C10.6099 10.7433 10.0342 11.3189 10.0342 12.029C10.0342 12.7391 10.6099 13.3147 11.3199 13.3147ZM12.6057 15.8861C12.6057 16.5962 12.03 17.1719 11.3199 17.1719C10.6099 17.1719 10.0342 16.5962 10.0342 15.8861C10.0342 15.1761 10.6099 14.6004 11.3199 14.6004C12.03 14.6004 12.6057 15.1761 12.6057 15.8861Z" fill="black"/>
</svg>
