<svg width="24" height="24" viewBox="0 0 24 24" fill="none" xmlns="http://www.w3.org/2000/svg">
<path fill-rule="evenodd" clip-rule="evenodd" d="M20.56 9.22007L22.42 11.3401C22.75 11.7201 22.75 12.2801 22.41 12.6401L20.55 14.7601L20.81 17.5701C20.86 18.0701 20.53 18.5301 20.04 18.6401L17.28 19.2701L15.84 21.7001C15.59 22.1301 15.05 22.3101 14.59 22.1101L12 21.0001L9.41002 22.1301C8.94002 22.3301 8.41002 22.1501 8.15002 21.7201L6.71002 19.3001L3.95002 18.6701C3.47002 18.5601 3.13002 18.1001 3.18002 17.6001L3.44002 14.7801L1.58002 12.6601C1.25002 12.2801 1.25002 11.7201 1.58002 11.3401L3.44002 9.21007L3.18002 6.41007C3.13002 5.90007 3.47002 5.45007 3.96002 5.34007L6.71002 4.72007L8.16002 2.30007C8.41002 1.87007 8.95002 1.69007 9.41002 1.89007L12 3.00007L14.6 1.87007C15.06 1.67007 15.59 1.85007 15.85 2.28007L17.29 4.71007L20.05 5.34007C20.53 5.45007 20.87 5.91007 20.82 6.41007L20.56 9.22007ZM15.0476 7.06049C14.6734 6.82559 14.1796 6.93854 13.9447 7.31275L8.7444 15.5975C8.50951 15.9717 8.62245 16.4654 8.99667 16.7003C9.37088 16.9352 9.86466 16.8223 10.0996 16.4481L15.2998 8.16338C15.5347 7.78916 15.4218 7.29538 15.0476 7.06049ZM11.25 9.50009C11.25 10.8808 10.1307 12.0001 8.75 12.0001C7.36929 12.0001 6.25 10.8808 6.25 9.50009C6.25 8.11937 7.36929 7.00009 8.75 7.00009C10.1307 7.00009 11.25 8.11937 11.25 9.50009ZM9.75 9.50009C9.75 10.0524 9.30228 10.5001 8.75 10.5001C8.19772 10.5001 7.75 10.0524 7.75 9.50009C7.75 8.9478 8.19772 8.50009 8.75 8.50009C9.30228 8.50009 9.75 8.9478 9.75 9.50009ZM15.25 17.0001C16.6307 17.0001 17.75 15.8808 17.75 14.5001C17.75 13.1194 16.6307 12.0001 15.25 12.0001C13.8693 12.0001 12.75 13.1194 12.75 14.5001C12.75 15.8808 13.8693 17.0001 15.25 17.0001ZM15.25 15.5001C15.8023 15.5001 16.25 15.0524 16.25 14.5001C16.25 13.9478 15.8023 13.5001 15.25 13.5001C14.6977 13.5001 14.25 13.9478 14.25 14.5001C14.25 15.0524 14.6977 15.5001 15.25 15.5001Z" fill="black"/>
</svg>
