<svg width="24" height="24" viewBox="0 0 24 24" fill="none" xmlns="http://www.w3.org/2000/svg">
<path d="M5 11C4.71667 11 4.479 10.904 4.287 10.712C4.09567 10.5207 4 10.2833 4 10C4 9.71667 4.09567 9.479 4.287 9.287C4.479 9.09567 4.71667 9 5 9H19C19.2833 9 19.5207 9.09567 19.712 9.287C19.904 9.479 20 9.71667 20 10C20 10.2833 19.904 10.5207 19.712 10.712C19.5207 10.904 19.2833 11 19 11H5ZM5 15C4.71667 15 4.479 14.904 4.287 14.712C4.09567 14.5207 4 14.2833 4 14C4 13.7167 4.09567 13.479 4.287 13.287C4.479 13.0957 4.71667 13 5 13H19C19.2833 13 19.5207 13.0957 19.712 13.287C19.904 13.479 20 13.7167 20 14C20 14.2833 19.904 14.5207 19.712 14.712C19.5207 14.904 19.2833 15 19 15H5Z" fill="black"/>
</svg>
