<svg width="24" height="24" viewBox="0 0 24 24" fill="none" xmlns="http://www.w3.org/2000/svg">
<path fill-rule="evenodd" clip-rule="evenodd" d="M12 2C6.48 2 2 6.48 2 12C2 17.52 6.48 22 12 22C12.2274 22 12.4531 21.9924 12.6768 21.9774C12.5709 20.834 12.9557 19.6536 13.8312 18.7782L18.7809 13.8284C19.6558 12.9536 20.835 12.5687 21.9776 12.6737C21.9925 12.4511 22 12.2264 22 12C22 6.48 17.52 2 12 2ZM12 17C11.45 17 11 16.55 11 16V12C11 11.45 11.45 11 12 11C12.55 11 13 11.45 13 12V16C13 16.55 12.55 17 12 17ZM13 8C13 8.55228 12.5523 9 12 9C11.4477 9 11 8.55228 11 8C11 7.44772 11.4477 7 12 7C12.5523 7 13 7.44772 13 8ZM20.2603 15.8767L22.1233 17.7397L22.7589 17.1041C22.9196 16.9434 23 16.7388 23 16.4904C23 16.242 22.9196 16.0374 22.7589 15.8767L22.1233 15.2411C21.9626 15.0804 21.758 15 21.5096 15C21.2612 15 21.0566 15.0804 20.8959 15.2411L20.2603 15.8767ZM15 22.5C15 22.7761 15.2239 23 15.5 23H16.863L21.5096 18.3534L19.6466 16.4904L15 21.137V22.5Z" fill="black"/>
</svg>
