<svg width="24" height="24" viewBox="0 0 24 24" fill="none" xmlns="http://www.w3.org/2000/svg">
<path fill-rule="evenodd" clip-rule="evenodd" d="M19 13.7699C18.83 13.7399 18.67 13.7399 18.5 13.7399C17.61 13.7399 16.76 13.9399 16 14.2899V12.2399C16 11.4115 16.6716 10.7399 17.5 10.7399C18.3284 10.7399 19 11.4115 19 12.2399V13.7699ZM7 16.2399C7 17.0683 6.32843 17.7399 5.5 17.7399C4.67157 17.7399 4 17.0683 4 16.2399V12.2399C4 11.4115 4.67157 10.7399 5.5 10.7399C6.32843 10.7399 7 11.4115 7 12.2399V16.2399ZM20.3337 6.38924C20.7435 6.60489 21 7.02979 21 7.49281C21 8.18156 20.4417 8.7399 19.7529 8.7399H3.24709C2.55834 8.7399 2 8.18156 2 7.49281C2 7.02979 2.25653 6.60489 2.66626 6.38924L10.5685 2.23016C11.1516 1.92328 11.8484 1.92328 12.4315 2.23016L20.3337 6.38924ZM2 21.2399C2 20.4115 2.67157 19.7399 3.5 19.7399H12.5C12.5 20.8299 12.8 21.8599 13.31 22.7399H3.5C2.67157 22.7399 2 22.0683 2 21.2399ZM20.132 17.4479C20.5114 17.0685 21.1352 17.0988 21.4762 17.5132C21.7733 17.8744 21.7477 18.4022 21.417 18.7329L17.25 22.8999L15.0422 20.4914C14.739 20.1607 14.7501 19.6498 15.0674 19.3325C15.3947 19.0052 15.9253 19.0052 16.2526 19.3325L17.25 20.3299L20.132 17.4479ZM13 16.2399V12.2399C13 11.4115 12.3284 10.7399 11.5 10.7399C10.6716 10.7399 10 11.4115 10 12.2399V16.2399C10 17.0683 10.6716 17.7399 11.5 17.7399C12.3284 17.7399 13 17.0683 13 16.2399Z" fill="black"/>
</svg>
