<svg width="24" height="24" viewBox="0 0 24 24" fill="none" xmlns="http://www.w3.org/2000/svg">
<path fill-rule="evenodd" clip-rule="evenodd" d="M7 16.2399C7 17.0683 6.32843 17.7399 5.5 17.7399C4.67157 17.7399 4 17.0683 4 16.2399V12.2399C4 11.4115 4.67157 10.7399 5.5 10.7399C6.32843 10.7399 7 11.4115 7 12.2399V16.2399ZM20.3337 6.38924C20.7435 6.60489 21 7.02979 21 7.49281C21 8.18156 20.4417 8.7399 19.7529 8.7399H3.24709C2.55834 8.7399 2 8.18156 2 7.49281C2 7.02979 2.25653 6.60489 2.66626 6.38924L10.5685 2.23016C11.1516 1.92328 11.8484 1.92328 12.4315 2.23016L20.3337 6.38924ZM21 21.2399C21 22.0683 20.3284 22.7399 19.5 22.7399H3.5C2.67157 22.7399 2 22.0683 2 21.2399C2 20.4114 2.67157 19.7399 3.5 19.7399H19.5C20.3284 19.7399 21 20.4114 21 21.2399ZM13 12.2399V16.2399C13 17.0683 12.3284 17.7399 11.5 17.7399C10.6716 17.7399 10 17.0683 10 16.2399V12.2399C10 11.4114 10.6716 10.7399 11.5 10.7399C12.3284 10.7399 13 11.4114 13 12.2399ZM19 16.2399V12.2399C19 11.4114 18.3284 10.7399 17.5 10.7399C16.6716 10.7399 16 11.4114 16 12.2399V16.2399C16 17.0683 16.6716 17.7399 17.5 17.7399C18.3284 17.7399 19 17.0683 19 16.2399Z" fill="black"/>
</svg>
