<svg width="24" height="24" viewBox="0 0 24 24" fill="none" xmlns="http://www.w3.org/2000/svg">
<path fill-rule="evenodd" clip-rule="evenodd" d="M10.58 3.59L11.99 5H2C2 3.9 2.89 3 3.99 3H9.16C9.69 3 10.2 3.21 10.58 3.59ZM2 6H20C21.1046 6 22 6.89543 22 8V18C22 19.1046 21.1046 20 20 20H4C2.89543 20 2 19.1046 2 18V6ZM11 12C11 12.55 11.45 13 12 13C12.55 13 13 12.55 13 12V8C13 7.45 12.55 7 12 7C11.45 7 11 7.45 11 8V12ZM12 17C12.5523 17 13 16.5523 13 16C13 15.4477 12.5523 15 12 15C11.4477 15 11 15.4477 11 16C11 16.5523 11.4477 17 12 17Z" fill="black"/>
</svg>
