<svg width="24" height="24" viewBox="0 0 24 24" fill="none" xmlns="http://www.w3.org/2000/svg">
<path fill-rule="evenodd" clip-rule="evenodd" d="M4 2C2.89543 2 2 2.89543 2 4V4.99999C2 6.10456 2.89543 6.99999 4 6.99999H20C21.1046 6.99999 22 6.10456 22 4.99999V4C22 2.89543 21.1046 2 20 2H4ZM20 8.49999C20.5523 8.49999 21 8.94771 21 9.49999V20C21 21.1046 20.1046 22 19 22H5C3.89543 22 3 21.1046 3 20V9.49999C3 8.94771 3.44772 8.49999 4 8.49999H20ZM8 11C8 10.4477 8.44772 9.99999 9 9.99999H15C15.5523 9.99999 16 10.4477 16 11C16 11.5523 15.5523 12 15 12H9C8.44772 12 8 11.5523 8 11Z" fill="black"/>
</svg>
