<svg width="24" height="24" viewBox="0 0 24 24" fill="none" xmlns="http://www.w3.org/2000/svg">
<path fill-rule="evenodd" clip-rule="evenodd" d="M4 3.5C4 2.67157 4.67157 2 5.5 2H18.5C19.3284 2 20 2.67157 20 3.5V4.5C20 5.05228 19.5523 5.5 19 5.5H5C4.44772 5.5 4 5.05228 4 4.5V3.5ZM5 7.5C5 6.94772 5.44772 6.5 6 6.5H18C18.5523 6.5 19 6.94772 19 7.5V12.5C19 13.6046 18.1046 14.5 17 14.5H7C5.89543 14.5 5 13.6046 5 12.5V7.5ZM13.4697 22.2803C13.1768 21.9874 13.1768 21.5126 13.4697 21.2197L14.4393 20.25H7.75C7.33579 20.25 7 19.9142 7 19.5C7 19.0858 7.33579 18.75 7.75 18.75H14.4393L13.4697 17.7803C13.1768 17.4874 13.1768 17.0126 13.4697 16.7197C13.7626 16.4268 14.2374 16.4268 14.5303 16.7197L16.7803 18.9697C16.9016 19.0909 16.9727 19.2434 16.9935 19.4013C16.9975 19.4313 16.9996 19.4616 17 19.4918C17.0021 19.6865 16.9285 19.8822 16.78 20.0307L14.5303 22.2803C14.2374 22.5732 13.7626 22.5732 13.4697 22.2803Z" fill="black"/>
</svg>
