<svg width="24" height="24" viewBox="0 0 24 24" fill="none" xmlns="http://www.w3.org/2000/svg">
<path fill-rule="evenodd" clip-rule="evenodd" d="M4 12C4 6.94995 8.17 2.85995 13.26 2.99995C17.95 3.12995 21.87 7.04995 22 11.74C22.14 16.83 18.05 21 13 21C10.91 21 9 20.29 7.48 19.09C7.01 18.7299 6.98 18.02 7.4 17.6C7.76 17.24 8.32 17.21 8.72 17.52C9.9 18.45 11.39 19 13 19C16.9 19 20.05 15.8099 20 11.9C19.95 8.17995 16.82 5.04995 13.1 4.99995C9.18 4.94995 6 8.09995 6 12H7.79C8.24 12 8.46 12.54 8.15 12.85L5.36 15.65C5.16 15.8499 4.85 15.8499 4.65 15.65L1.86 12.85C1.54 12.54 1.76 12 2.21 12H4ZM13 7C12.4477 7 12 7.44771 12 8V13L12 13.0084C11.9992 13.2655 12.0968 13.5228 12.2929 13.7189L14.1213 15.5474C14.5119 15.9379 15.1451 15.9379 15.5356 15.5474C15.9261 15.1568 15.9261 14.5237 15.5356 14.1332L14 12.5976V8C14 7.44771 13.5523 7 13 7Z" fill="black"/>
</svg>
