<svg width="24" height="24" viewBox="0 0 24 24" fill="none" xmlns="http://www.w3.org/2000/svg">
<path fill-rule="evenodd" clip-rule="evenodd" d="M4.00003 12C4.00003 6.94995 8.17003 2.85995 13.26 2.99995C17.95 3.12995 21.87 7.04995 22 11.74C22.14 16.83 18.05 21 13 21C10.91 21 9.00003 20.29 7.48003 19.09C7.01003 18.73 6.98003 18.02 7.40003 17.6C7.76003 17.24 8.32003 17.21 8.72003 17.52C9.90003 18.45 11.39 19 13 19C16.9 19 20.05 15.8099 20 11.9C19.95 8.17995 16.82 5.04995 13.1 4.99995C9.18003 4.94995 6.00003 8.09995 6.00003 12H7.79003C8.24003 12 8.46003 12.54 8.15003 12.85L5.36003 15.65C5.16003 15.8499 4.85003 15.8499 4.65003 15.65L1.86003 12.85C1.54003 12.54 1.76003 12 2.21003 12H4.00003ZM13 7C12.4478 7 12 7.44771 12 8V13L12.0001 13.0084C11.9992 13.2655 12.0968 13.5228 12.2929 13.7189L14.1214 15.5474C14.5119 15.9379 15.1451 15.9379 15.5356 15.5474C15.9261 15.1568 15.9261 14.5237 15.5356 14.1332L14 12.5976V8C14 7.44771 13.5523 7 13 7Z" fill="black"/>
</svg>
