<svg width="24" height="24" viewBox="0 0 24 24" fill="none" xmlns="http://www.w3.org/2000/svg">
<path fill-rule="evenodd" clip-rule="evenodd" d="M15.7333 6.26667L13 5L15.7333 3.73333L17 1L18.2667 3.73333L21 5L18.2667 6.26667L17 9L15.7333 6.26667ZM18.8625 14.1375L16.8 13.2L18.8625 12.2625L19.8 10.2L20.7376 12.2625L22.8 13.2L20.7376 14.1375L19.8 16.2L18.8625 14.1375ZM6.8704 21.5304C7.18347 21.8435 7.56 22 8 22C8.44 22 8.8168 21.8435 9.1304 21.5304C9.44347 21.2168 9.6 20.84 9.6 20.4H6.4C6.4 20.84 6.5568 21.2168 6.8704 21.5304ZM5.0296 19.3696C5.1832 19.5232 5.37333 19.6 5.6 19.6H10.4C10.6267 19.6 10.8168 19.5232 10.9704 19.3696C11.1235 19.2165 11.2 19.0267 11.2 18.8C11.2 18.5733 11.1235 18.3835 10.9704 18.2304C10.8168 18.0768 10.6267 18 10.4 18H5.6C5.37333 18 5.1832 18.0768 5.0296 18.2304C4.87653 18.3835 4.8 18.5733 4.8 18.8C4.8 19.0267 4.87653 19.2165 5.0296 19.3696ZM2.8104 15C3.35013 15.92 4.08 16.6533 5 17.2H11C11.92 16.6533 12.6501 15.92 13.1904 15C13.7301 14.08 14 13.08 14 12C14 10.3333 13.4165 8.9168 12.2496 7.7504C11.0832 6.58347 9.66667 6 8 6C6.33333 6 4.9168 6.58347 3.7504 7.7504C2.58347 8.9168 2 10.3333 2 12C2 13.08 2.27013 14.08 2.8104 15Z" fill="black"/>
</svg>
