<svg width="24" height="24" viewBox="0 0 24 24" fill="none" xmlns="http://www.w3.org/2000/svg">
<path fill-rule="evenodd" clip-rule="evenodd" d="M13.6001 11.0749C13.3834 11.0749 13.2043 11.0041 13.0626 10.8624C12.9209 10.7207 12.8501 10.5416 12.8501 10.3249V5.8999C12.8501 5.68324 12.9209 5.50407 13.0626 5.3624C13.2043 5.22074 13.3834 5.1499 13.6001 5.1499C13.8168 5.1499 13.9959 5.22074 14.1376 5.3624C14.2793 5.50407 14.3501 5.68324 14.3501 5.8999V8.5249L19.7501 3.1249C19.9001 2.9749 20.0793 2.8999 20.2876 2.8999C20.4959 2.8999 20.6751 2.9749 20.8251 3.1249C20.9751 3.2749 21.0501 3.45407 21.0501 3.6624C21.0501 3.87074 20.9751 4.0499 20.8251 4.1999L15.4501 9.5749H18.0251C18.2418 9.5749 18.4209 9.64574 18.5626 9.7874C18.7043 9.92907 18.7751 10.1082 18.7751 10.3249C18.7751 10.5416 18.7043 10.7207 18.5626 10.8624C18.4209 11.0041 18.2418 11.0749 18.0251 11.0749H13.6001ZM16.69 14.9699L19.23 15.2599C20.24 15.3799 21 16.2299 20.99 17.2399V18.9699C20.99 20.0999 20.05 21.0399 18.92 20.9699C10.39 20.4399 3.56004 13.6199 3.03004 5.07989C2.96004 3.94989 3.90004 3.00989 5.03004 3.00989H6.76004C7.78004 3.00989 8.63004 3.76989 8.75004 4.77989L9.04004 7.29989C9.11004 7.90989 8.90004 8.50989 8.47004 8.93989L6.62004 10.7899C8.06004 13.6299 10.38 15.9399 13.21 17.3799L15.05 15.5399C15.48 15.1099 16.08 14.8999 16.69 14.9699Z" fill="black"/>
</svg>
