<svg width="24" height="24" viewBox="0 0 24 24" fill="none" xmlns="http://www.w3.org/2000/svg">
<path fill-rule="evenodd" clip-rule="evenodd" d="M15.5417 20.1385C15.2896 19.6999 14.7513 19.5259 14.2662 19.6689C14.136 19.7073 14.0045 19.7424 13.8715 19.7741C13.3797 19.8912 13.0001 20.3102 13.0001 20.8158V20.8441C13.0001 21.436 13.5133 21.9026 14.0919 21.7775C14.4275 21.705 14.7572 21.6153 15.0797 21.5096C15.6389 21.3261 15.847 20.6697 15.5538 20.1595L15.5417 20.1385ZM3.1843 13.0001C3.6899 13.0001 4.10887 13.3797 4.22604 13.8715C4.25772 14.0045 4.29278 14.136 4.33116 14.2662C4.47425 14.7513 4.30017 15.2896 3.8616 15.5417L3.8406 15.5538C3.33036 15.847 2.67371 15.639 2.48986 15.08C2.38382 14.7575 2.29404 14.4277 2.22147 14.0911C2.09679 13.5128 2.56342 13.0001 3.15504 13.0001H3.1843ZM15.5417 3.8616C15.2896 4.30017 14.7513 4.47425 14.2662 4.33116C14.136 4.29278 14.0045 4.25772 13.8715 4.22604C13.3797 4.10887 13.0001 3.6899 13.0001 3.1843V3.15504C13.0001 2.56342 13.5128 2.09679 14.0911 2.22147C14.4277 2.29404 14.7575 2.38382 15.08 2.48986C15.639 2.67371 15.847 3.33036 15.5538 3.8406L15.5417 3.8616ZM20.8158 11.0001C20.3102 11.0001 19.8912 10.6204 19.7741 10.1286C19.7424 9.99564 19.7073 9.86408 19.6689 9.73393C19.5259 9.24876 19.6999 8.71046 20.1385 8.45841L20.1595 8.44634C20.6697 8.1531 21.3264 8.36109 21.5102 8.92014C21.6163 9.24257 21.7061 9.57241 21.7786 9.90901C21.9033 10.4873 21.4367 11.0001 20.8451 11.0001H20.8158ZM8.45841 20.1385C8.71046 19.6999 9.24876 19.5259 9.73393 19.6689C9.86408 19.7073 9.99564 19.7424 10.1286 19.7741C10.6204 19.8912 11.0001 20.3102 11.0001 20.8158V20.8441C11.0001 21.436 10.4868 21.9026 9.90817 21.7775C9.57265 21.705 9.24286 21.6153 8.9204 21.5096C8.36121 21.3261 8.1531 20.6697 8.44634 20.1595L8.45841 20.1385ZM11.0001 3.1843C11.0001 3.6899 10.6204 4.10887 10.1286 4.22604C9.99564 4.25772 9.86408 4.29278 9.73393 4.33116C9.24876 4.47425 8.71046 4.30017 8.45841 3.8616L8.44634 3.8406C8.1531 3.33036 8.36108 2.67371 8.92014 2.48986C9.24257 2.38382 9.57241 2.29404 9.90901 2.22147C10.4873 2.09679 11.0001 2.56342 11.0001 3.15504V3.1843ZM19.1245 6.72631C18.6879 6.97973 18.1358 6.8627 17.7881 6.49673C17.692 6.39562 17.5932 6.29697 17.4916 6.20068C17.1258 5.85419 17.0097 5.30331 17.2626 4.86757L17.2747 4.84681C17.5719 4.33475 18.25 4.18912 18.6888 4.58654C18.9387 4.81277 19.1773 5.05143 19.4036 5.30127C19.801 5.74015 19.6554 6.41818 19.1433 6.71541L19.1245 6.72631ZM3.8616 8.45841C4.30017 8.71046 4.47425 9.24876 4.33116 9.73393C4.29278 9.86408 4.25772 9.99564 4.22604 10.1286C4.10887 10.6204 3.6899 11.0001 3.1843 11.0001H3.15504C2.56342 11.0001 2.09679 10.4873 2.22147 9.90901C2.29404 9.57241 2.38382 9.24257 2.48986 8.92014C2.67371 8.36109 3.33036 8.1531 3.8406 8.44634L3.8616 8.45841ZM19.7741 13.8715C19.8912 13.3797 20.3102 13.0001 20.8158 13.0001H20.8441C21.436 13.0001 21.9026 13.5133 21.7775 14.0919C21.705 14.4275 21.6153 14.7572 21.5096 15.0797C21.3261 15.6389 20.6697 15.847 20.1595 15.5538L20.1385 15.5417C19.6999 15.2896 19.5259 14.7513 19.6689 14.2662C19.7073 14.136 19.7424 14.0045 19.7741 13.8715ZM17.2738 19.1245C17.0204 18.6879 17.1374 18.1358 17.5034 17.7881C17.6045 17.692 17.7031 17.5932 17.7994 17.4915C18.1459 17.1258 18.6968 17.0097 19.1325 17.2626L19.1533 17.2747C19.6654 17.5719 19.811 18.25 19.4136 18.6888C19.1873 18.9387 18.9487 19.1773 18.6988 19.4036C18.26 19.801 17.5819 19.6554 17.2847 19.1433L17.2738 19.1245ZM6.73449 4.87782C6.98366 5.31387 6.8652 5.86199 6.5014 6.20823C6.40274 6.30213 6.30657 6.39866 6.21288 6.49789C5.86417 6.86723 5.30853 6.98762 4.86923 6.73262L4.85161 6.7224C4.34142 6.42625 4.19432 5.75139 4.58864 5.31262C4.81473 5.06105 5.0534 4.82139 5.30432 4.59366C5.74537 4.19337 6.4283 4.34199 6.72381 4.85913L6.73449 4.87782ZM4.87097 17.2721C5.30723 17.0213 5.86274 17.1359 6.20974 17.5003C6.30317 17.5984 6.3992 17.694 6.49789 17.7872C6.86723 18.1359 6.9844 18.6971 6.7294 19.1364C6.43217 19.6485 5.75015 19.801 5.31126 19.4036C5.06261 19.1784 4.82504 18.9409 4.59977 18.6924C4.20099 18.2524 4.35614 17.5679 4.87097 17.2721ZM12.0001 6C11.4478 6 11.0001 6.44771 11.0001 7V13L11.0001 13.0084C10.9992 13.2655 11.0969 13.5228 11.293 13.7189L14.1214 16.5474C14.5119 16.9379 15.1451 16.9379 15.5356 16.5474C15.9261 16.1568 15.9261 15.5237 15.5356 15.1332L13.0001 12.5976V7C13.0001 6.44771 12.5523 6 12.0001 6Z" fill="black"/>
</svg>
