<svg width="24" height="24" viewBox="0 0 24 24" fill="none" xmlns="http://www.w3.org/2000/svg">
<path fill-rule="evenodd" clip-rule="evenodd" d="M15.5416 20.1385C15.2896 19.6999 14.7513 19.5259 14.2661 19.6689C14.136 19.7073 14.0044 19.7424 13.8714 19.7741C13.3796 19.8912 13 20.3102 13 20.8158V20.8441C13 21.436 13.5132 21.9026 14.0919 21.7775C14.4274 21.705 14.7572 21.6153 15.0796 21.5096C15.6388 21.3261 15.8469 20.6697 15.5537 20.1595L15.5416 20.1385ZM3.18424 13.0001C3.68983 13.0001 4.10881 13.3797 4.22598 13.8715C4.25765 14.0045 4.29272 14.136 4.3311 14.2662C4.47419 14.7513 4.30011 15.2896 3.86154 15.5417L3.84054 15.5538C3.3303 15.847 2.67365 15.639 2.4898 15.08C2.38376 14.7575 2.29398 14.4277 2.22141 14.0911C2.09673 13.5128 2.56336 13.0001 3.15498 13.0001H3.18424ZM15.5416 3.8616C15.2896 4.30017 14.7513 4.47425 14.2661 4.33116C14.136 4.29278 14.0044 4.25772 13.8714 4.22604C13.3796 4.10887 13 3.6899 13 3.1843V3.15504C13 2.56342 13.5127 2.09679 14.091 2.22147C14.4276 2.29404 14.7575 2.38382 15.0799 2.48986C15.639 2.67371 15.8469 3.33036 15.5537 3.8406L15.5416 3.8616ZM20.8157 11.0001C20.3101 11.0001 19.8912 10.6204 19.774 10.1286C19.7423 9.99564 19.7073 9.86408 19.6689 9.73393C19.5258 9.24876 19.6999 8.71046 20.1384 8.45841L20.1594 8.44634C20.6697 8.1531 21.3263 8.36109 21.5102 8.92014C21.6162 9.24257 21.706 9.57241 21.7786 9.90901C21.9032 10.4873 21.4366 11.0001 20.845 11.0001H20.8157ZM8.45835 20.1385C8.7104 19.6999 9.2487 19.5259 9.73387 19.6689C9.86402 19.7073 9.99558 19.7424 10.1286 19.7741C10.6204 19.8912 11 20.3102 11 20.8158V20.8441C11 21.436 10.4867 21.9026 9.90811 21.7775C9.57259 21.705 9.24279 21.6153 8.92034 21.5096C8.36115 21.3261 8.15304 20.6697 8.44628 20.1595L8.45835 20.1385ZM11 3.1843C11 3.6899 10.6204 4.10887 10.1286 4.22604C9.99558 4.25772 9.86402 4.29278 9.73387 4.33116C9.2487 4.47425 8.7104 4.30017 8.45835 3.8616L8.44628 3.8406C8.15304 3.33036 8.36102 2.67371 8.92008 2.48986C9.24251 2.38382 9.57235 2.29404 9.90895 2.22147C10.4873 2.09679 11 2.56342 11 3.15504V3.1843ZM19.1245 6.72631C18.6879 6.97973 18.1357 6.8627 17.788 6.49673C17.6919 6.39562 17.5931 6.29697 17.4915 6.20068C17.1257 5.85419 17.0096 5.30331 17.2626 4.86757L17.2746 4.84681C17.5719 4.33475 18.2499 4.18912 18.6888 4.58654C18.9386 4.81277 19.1773 5.05143 19.4035 5.30126C19.8009 5.74015 19.6553 6.41818 19.1432 6.71541L19.1245 6.72631ZM3.86154 8.45841C4.30011 8.71046 4.47419 9.24876 4.3311 9.73393C4.29272 9.86408 4.25765 9.99564 4.22598 10.1286C4.10881 10.6204 3.68983 11.0001 3.18424 11.0001H3.15498C2.56336 11.0001 2.09673 10.4873 2.22141 9.90901C2.29398 9.57241 2.38376 9.24257 2.4898 8.92014C2.67365 8.36109 3.33029 8.1531 3.84054 8.44634L3.86154 8.45841ZM19.774 13.8715C19.8912 13.3797 20.3101 13.0001 20.8157 13.0001H20.844C21.436 13.0001 21.9025 13.5133 21.7774 14.0919C21.7049 14.4275 21.6153 14.7572 21.5095 15.0797C21.3261 15.6389 20.6697 15.847 20.1594 15.5538L20.1384 15.5417C19.6999 15.2896 19.5258 14.7513 19.6689 14.2662C19.7073 14.136 19.7423 14.0045 19.774 13.8715ZM17.2737 19.1245C17.0203 18.6879 17.1373 18.1358 17.5033 17.7881C17.6044 17.692 17.7031 17.5932 17.7994 17.4916C18.1459 17.1258 18.6967 17.0097 19.1325 17.2626L19.1532 17.2747C19.6653 17.5719 19.8109 18.25 19.4135 18.6888C19.1873 18.9387 18.9486 19.1773 18.6988 19.4036C18.2599 19.801 17.5819 19.6554 17.2846 19.1433L17.2737 19.1245ZM6.73443 4.87782C6.9836 5.31387 6.86514 5.86199 6.50134 6.20823C6.40268 6.30213 6.30651 6.39866 6.21282 6.49789C5.86411 6.86723 5.30847 6.98762 4.86917 6.73262L4.85155 6.7224C4.34136 6.42625 4.19426 5.75139 4.58858 5.31262C4.81467 5.06105 5.05333 4.82139 5.30426 4.59366C5.74531 4.19337 6.42824 4.34199 6.72375 4.85913L6.73443 4.87782ZM4.87091 17.2721C5.30716 17.0213 5.86268 17.1359 6.20968 17.5003C6.30311 17.5984 6.39913 17.694 6.49783 17.7872C6.86717 18.1359 6.98434 18.6971 6.72934 19.1364C6.43211 19.6485 5.75009 19.801 5.3112 19.4036C5.06255 19.1784 4.82498 18.9409 4.5997 18.6924C4.20093 18.2524 4.35607 17.5679 4.87091 17.2721ZM12 6C11.4477 6 11 6.44771 11 7V13L11 13.0084C10.9992 13.2655 11.0968 13.5228 11.2929 13.7189L14.1213 16.5474C14.5119 16.9379 15.1451 16.9379 15.5356 16.5474C15.9261 16.1568 15.9261 15.5237 15.5356 15.1332L13 12.5976V7C13 6.44771 12.5523 6 12 6Z" fill="black"/>
</svg>
