<svg width="24" height="24" viewBox="0 0 24 24" fill="none" xmlns="http://www.w3.org/2000/svg">
<path fill-rule="evenodd" clip-rule="evenodd" d="M12 4C15.87 4 19 7.13 19 11C21.25 11.26 23 13.15 23 15.48C23 17.97 20.99 19.99 18.5 20H6.5C3.46 20 1 17.54 1 14.5C1 11.89 2.82 9.71 5.26 9.15C6.07 6.18 8.78 4 12 4ZM16.6413 10.2657L16.7257 10.3478C17.0914 10.7035 17.0914 11.2782 16.7257 11.634L11.4937 16.7332C11.128 17.0889 10.5373 17.0889 10.1716 16.7332L7.27426 13.9145C6.90858 13.5587 6.90858 12.984 7.27426 12.6283L7.35865 12.5462C7.72433 12.1904 8.31505 12.1904 8.68073 12.5462L10.8373 14.6442L15.3193 10.2748C15.6756 9.90993 16.2757 9.90993 16.6413 10.2657Z" fill="black"/>
</svg>
