<svg width="24" height="24" viewBox="0 0 24 24" fill="none" xmlns="http://www.w3.org/2000/svg">
<path fill-rule="evenodd" clip-rule="evenodd" d="M12 4C15.87 4 19 7.13 19 11C21.25 11.26 23 13.15 23 15.48C23 17.97 20.99 19.99 18.5 20H6.5C3.46 20 1 17.54 1 14.5C1 11.89 2.82 9.71 5.26 9.15C6.07 6.18 8.78 4 12 4ZM12 14C11.45 14 11 13.55 11 13V9C11 8.45 11.45 8 12 8C12.55 8 13 8.45 13 9V13C13 13.55 12.55 14 12 14ZM12 16C12.5523 16 13 16.4477 13 17C13 17.5523 12.5523 18 12 18C11.4477 18 11 17.5523 11 17C11 16.4477 11.4477 16 12 16Z" fill="black"/>
</svg>
