<svg width="24" height="24" viewBox="0 0 24 24" fill="none" xmlns="http://www.w3.org/2000/svg">
<path d="M10.9766 17.075C10.8433 17.075 10.7183 17.054 10.6016 17.012C10.4849 16.9707 10.3766 16.9 10.2766 16.8L7.47659 14C7.29325 13.8167 7.14725 13.6 7.03859 13.35C6.93059 13.1 6.87659 12.8333 6.87659 12.55C6.87659 11.9833 7.07659 11.5 7.47659 11.1C7.87659 10.7 8.35992 10.5 8.92659 10.5C9.24325 10.5 9.55559 10.5917 9.86359 10.775C10.1723 10.9583 10.5433 11.2667 10.9766 11.7C11.4766 11.2333 11.8683 10.9167 12.1516 10.75C12.4349 10.5833 12.7266 10.5 13.0266 10.5C13.5933 10.5 14.0766 10.7 14.4766 11.1C14.8766 11.5 15.0766 11.9833 15.0766 12.55C15.0766 12.8333 15.0226 13.1 14.9146 13.35C14.8059 13.6 14.6599 13.8167 14.4766 14L11.6766 16.8C11.5766 16.9 11.4683 16.9707 11.3516 17.012C11.2349 17.054 11.1099 17.075 10.9766 17.075ZM11.1266 22C11.4099 22 11.6766 21.9457 11.9266 21.837C12.1766 21.729 12.3933 21.5833 12.5766 21.4L21.3766 12.6C21.5599 12.4167 21.7056 12.2 21.8136 11.95C21.9223 11.7 21.9766 11.4333 21.9766 11.15V4C21.9766 3.45 21.7806 2.979 21.3886 2.587C20.9973 2.19567 20.5266 2 19.9766 2H12.8266C12.5433 2 12.2766 2.054 12.0266 2.162C11.7766 2.27067 11.5599 2.41667 11.3766 2.6L2.57659 11.425C2.19325 11.8083 2.00159 12.279 2.00159 12.837C2.00159 13.3957 2.19325 13.8667 2.57659 14.25L9.72659 21.4C9.90992 21.5833 10.1223 21.729 10.3636 21.837C10.6056 21.9457 10.8599 22 11.1266 22ZM17.4766 8C17.0599 8 16.7059 7.854 16.4146 7.562C16.1226 7.27067 15.9766 6.91667 15.9766 6.5C15.9766 6.08333 16.1226 5.72933 16.4146 5.438C16.7059 5.146 17.0599 5 17.4766 5C17.8933 5 18.2473 5.146 18.5386 5.438C18.8306 5.72933 18.9766 6.08333 18.9766 6.5C18.9766 6.91667 18.8306 7.27067 18.5386 7.562C18.2473 7.854 17.8933 8 17.4766 8Z" fill="black"/>
</svg>
