<svg width="24" height="24" viewBox="0 0 24 24" fill="none" xmlns="http://www.w3.org/2000/svg">
<path fill-rule="evenodd" clip-rule="evenodd" d="M3 4C2.44772 4 2 4.44772 2 5L2 19C2 19.5523 2.44772 20 3 20C3.55228 20 4 20.4477 4 21C4 21.5523 3.55229 22 3 22H2C0.895432 22 0 21.1046 0 20L0 4C0 2.89543 0.895432 2 2 2L3 2C3.55229 2 4 2.44772 4 3C4 3.55228 3.55229 4 3 4ZM21 4C21.5523 4 22 4.44772 22 5L22 19C22 19.5523 21.5523 20 21 20C20.4477 20 20 20.4477 20 21C20 21.5523 20.4477 22 21 22H22C23.1046 22 24 21.1046 24 20L24 4C24 2.89543 23.1046 2 22 2L21 2C20.4477 2 20 2.44772 20 3C20 3.55228 20.4477 4 21 4ZM3 7C3 6.44772 3.44772 6 4 6L5 6C5.41685 6 5.78997 6.25857 5.93633 6.64888L8 12.152L10.0637 6.64888C10.21 6.25857 10.5832 6 11 6H12C12.5523 6 13 6.44772 13 7L13 17C13 17.5523 12.5523 18 12 18C11.4477 18 11 17.5523 11 17V9.848L8.93633 15.3511C8.78997 15.7414 8.41685 16 8 16C7.58316 16 7.21004 15.7414 7.06367 15.3511L5 9.848L5 17C5 17.5523 4.55229 18 4 18C3.44772 18 3 17.5523 3 17L3 7ZM15 11C14.4477 11 14 11.4477 14 12C14 12.5523 14.4477 13 15 13H16.5L16.5 14.5C16.5 15.1627 16.9477 15.5 17.5 15.5C18.0523 15.5 18.5 15.1627 18.5 14.5L18.5 13H20C20.5523 13 21 12.5523 21 12C21 11.4477 20.5523 11 20 11H18.5V9.5C18.5 8.83726 18.0523 8.5 17.5 8.5C16.9477 8.5 16.5 8.83726 16.5 9.5V11H15Z" fill="black"/>
</svg>
