<svg width="24" height="24" viewBox="0 0 24 24" fill="none" xmlns="http://www.w3.org/2000/svg">
<path fill-rule="evenodd" clip-rule="evenodd" d="M2 5C2 4.44772 2.44772 4 3 4C3.55229 4 4 3.55228 4 3C4 2.44772 3.55229 2 3 2L2 2C0.895432 2 0 2.89543 0 4L0 20C0 21.1046 0.895432 22 2 22H3C3.55229 22 4 21.5523 4 21C4 20.4477 3.55228 20 3 20C2.44772 20 2 19.5523 2 19L2 5ZM22 5C22 4.44772 21.5523 4 21 4C20.4477 4 20 3.55228 20 3C20 2.44772 20.4477 2 21 2H22C23.1046 2 24 2.89543 24 4L24 20C24 21.1046 23.1046 22 22 22H21C20.4477 22 20 21.5523 20 21C20 20.4477 20.4477 20 21 20C21.5523 20 22 19.5523 22 19L22 5ZM4 6C3.44772 6 3 6.44772 3 7L3 17C3 17.5523 3.44772 18 4 18C4.55229 18 5 17.5523 5 17L5 9.848L7.06367 15.3511C7.21004 15.7414 7.58316 16 8 16C8.41685 16 8.78997 15.7414 8.93633 15.3511L11 9.848V17C11 17.5523 11.4477 18 12 18C12.5523 18 13 17.5523 13 17L13 7C13 6.44772 12.5523 6 12 6H11C10.5832 6 10.21 6.25857 10.0637 6.64888L8 12.152L5.93633 6.64888C5.78997 6.25857 5.41685 6 5 6L4 6ZM14 12C14 11.4477 14.4477 11 15 11L20 11C20.5523 11 21 11.4477 21 12C21 12.5523 20.5523 13 20 13L15 13C14.4477 13 14 12.5523 14 12Z" fill="black"/>
</svg>
