<svg width="24" height="24" viewBox="0 0 24 24" fill="none" xmlns="http://www.w3.org/2000/svg">
<path fill-rule="evenodd" clip-rule="evenodd" d="M2 5C2 4.44772 2.44772 4 3 4C3.55229 4 4 3.55228 4 3C4 2.44772 3.55229 2 3 2L2 2C0.895432 2 0 2.89543 0 4L0 20C0 21.1046 0.895432 22 2 22H3C3.55229 22 4 21.5523 4 21C4 20.4477 3.55228 20 3 20C2.44772 20 2 19.5523 2 19L2 5ZM22 5C22 4.44772 21.5523 4 21 4C20.4477 4 20 3.55228 20 3C20 2.44772 20.4477 2 21 2H22C23.1046 2 24 2.89543 24 4L24 20C24 21.1046 23.1046 22 22 22H21C20.4477 22 20 21.5523 20 21C20 20.4477 20.4477 20 21 20C21.5523 20 22 19.5523 22 19L22 5ZM8 6C7.44772 6 7 6.44772 7 7L7 17C7 17.5523 7.44772 18 8 18C8.55229 18 9 17.5523 9 17V9.848L11.0637 15.3511C11.21 15.7414 11.5832 16 12 16C12.4168 16 12.79 15.7414 12.9363 15.3511L15 9.848V17C15 17.5523 15.4477 18 16 18C16.5523 18 17 17.5523 17 17L17 7C17 6.44772 16.5523 6 16 6L15 6C14.5832 6 14.21 6.25857 14.0637 6.64888L12 12.152L9.93633 6.64888C9.78997 6.25857 9.41685 6 9 6H8Z" fill="black"/>
</svg>
