<svg width="24" height="24" viewBox="0 0 24 24" fill="none" xmlns="http://www.w3.org/2000/svg">
<path d="M17.15 14.975L16.075 13.9C16.3583 13.55 16.5792 13.1667 16.7375 12.75C16.8958 12.3333 17 11.9 17.05 11.45C17.0833 11.2667 17.1708 11.1083 17.3125 10.975C17.4542 10.8417 17.6167 10.775 17.8 10.775C18.0333 10.775 18.225 10.8542 18.375 11.0125C18.525 11.1708 18.5833 11.3583 18.55 11.575C18.4667 12.1917 18.3083 12.7917 18.075 13.375C17.8417 13.9583 17.5333 14.4917 17.15 14.975ZM13.95 11.775C11.2191 9.09566 10.0842 7.90924 9.07499 6.9V4.525C9.07499 3.825 9.32082 3.22917 9.81249 2.7375C10.3042 2.24583 10.9 2 11.6 2C12.3 2 12.8958 2.24583 13.3875 2.7375C13.8792 3.22917 14.125 3.825 14.125 4.525V10.775C14.125 10.9083 14.1125 11.075 14.0875 11.275C14.0625 11.475 14.0167 11.6417 13.95 11.775ZM20.275 22.15L1.37499 3.25C1.24165 3.11667 1.17499 2.95417 1.17499 2.7625C1.17499 2.57083 1.24165 2.40833 1.37499 2.275C1.50832 2.14167 1.66665 2.075 1.84999 2.075C2.03332 2.075 2.19165 2.14167 2.32499 2.275L21.25 21.2C21.3833 21.3333 21.45 21.4917 21.45 21.675C21.45 21.8583 21.3833 22.0167 21.25 22.15C21.1167 22.2833 20.9542 22.35 20.7625 22.35C20.5708 22.35 20.4083 22.2833 20.275 22.15ZM10.85 20.25V17.6C9.21665 17.4167 7.82082 16.7625 6.66249 15.6375C5.50415 14.5125 4.83332 13.1583 4.64999 11.575C4.61665 11.3583 4.67915 11.1708 4.83749 11.0125C4.99582 10.8542 5.19165 10.775 5.42499 10.775C5.60832 10.775 5.76665 10.8417 5.89999 10.975C6.03332 11.1083 6.11665 11.2667 6.14999 11.45C6.33332 12.8 6.94165 13.9208 7.97499 14.8125C9.00832 15.7042 10.2167 16.15 11.6 16.15C12.2333 16.15 12.8417 16.0458 13.425 15.8375C14.0083 15.6292 14.5417 15.3417 15.025 14.975L16.1 16.05C15.5833 16.4833 15.0083 16.8292 14.375 17.0875C13.7417 17.3458 13.0667 17.5167 12.35 17.6V20.25C12.35 20.4667 12.2792 20.6458 12.1375 20.7875C11.9958 20.9292 11.8167 21 11.6 21C11.3833 21 11.2042 20.9292 11.0625 20.7875C10.9208 20.6458 10.85 20.4667 10.85 20.25Z" fill="black"/>
</svg>
