<svg width="24" height="24" viewBox="0 0 24 24" fill="none" xmlns="http://www.w3.org/2000/svg">
<path d="M2 4C2 2.89543 2.89543 2 4 2H10C11.1046 2 12 2.89543 12 4V10C12 11.1046 11.1046 12 10 12H4C2.89543 12 2 11.1046 2 10V4Z" fill="black"/>
<path fill-rule="evenodd" clip-rule="evenodd" d="M6 14C4.89543 14 4 14.8954 4 16V20C4 21.1046 4.89543 22 6 22H10C11.1046 22 12 21.1046 12 20V16C12 14.8954 11.1046 14 10 14H6ZM7 16C6.44772 16 6 16.4477 6 17V19C6 19.5523 6.44772 20 7 20H9C9.55228 20 10 19.5523 10 19V17C10 16.4477 9.55228 16 9 16H7Z" fill="black"/>
<path fill-rule="evenodd" clip-rule="evenodd" d="M16 14C14.8954 14 14 14.8954 14 16V20C14 21.1046 14.8954 22 16 22H20C21.1046 22 22 21.1046 22 20V16C22 14.8954 21.1046 14 20 14H16ZM17 16C16.4477 16 16 16.4477 16 17V19C16 19.5523 16.4477 20 17 20H19C19.5523 20 20 19.5523 20 19V17C20 16.4477 19.5523 16 19 16H17Z" fill="black"/>
<path fill-rule="evenodd" clip-rule="evenodd" d="M16 4C14.8954 4 14 4.89543 14 6V10C14 11.1046 14.8954 12 16 12H20C21.1046 12 22 11.1046 22 10V6C22 4.89543 21.1046 4 20 4H16ZM17 6C16.4477 6 16 6.44772 16 7V9C16 9.55228 16.4477 10 17 10H19C19.5523 10 20 9.55228 20 9V7C20 6.44772 19.5523 6 19 6H17Z" fill="black"/>
</svg>
