<svg width="24" height="24" viewBox="0 0 24 24" fill="none" xmlns="http://www.w3.org/2000/svg">
<path d="M22.42 11.3399L20.56 9.21994L20.82 6.40994C20.87 5.90994 20.53 5.44994 20.05 5.33994L17.29 4.70994L15.85 2.27994C15.59 1.84994 15.06 1.66994 14.6 1.86994L12 2.99994L9.41 1.88994C8.95 1.68994 8.41 1.86994 8.16 2.29994L6.71 4.71994L3.96 5.33994C3.47 5.44994 3.13 5.89994 3.18 6.40994L3.44 9.20994L1.58 11.3399C1.25 11.7199 1.25 12.2799 1.58 12.6599L3.44 14.7799L3.18 17.5999C3.13 18.0999 3.47 18.5599 3.95 18.6699L6.71 19.2999L8.15 21.7199C8.41 22.1499 8.94 22.3299 9.41 22.1299L12 20.9999L14.59 22.1099C15.05 22.3099 15.59 22.1299 15.84 21.6999L17.28 19.2699L20.04 18.6399C20.53 18.5299 20.86 18.0699 20.81 17.5699L20.55 14.7599L22.41 12.6399C22.75 12.2799 22.75 11.7199 22.42 11.3399ZM13 15.9999C13 16.5522 12.5523 16.9999 12 16.9999C11.4477 16.9999 11 16.5522 11 15.9999C11 15.4477 11.4477 14.9999 12 14.9999C12.5523 14.9999 13 15.4477 13 15.9999ZM12 12.9999C11.45 12.9999 11 12.5499 11 11.9999V7.99994C11 7.44994 11.45 6.99994 12 6.99994C12.55 6.99994 13 7.44994 13 7.99994V11.9999C13 12.5499 12.55 12.9999 12 12.9999Z" fill="black"/>
</svg>
