<svg width="24" height="24" viewBox="0 0 24 24" fill="none" xmlns="http://www.w3.org/2000/svg">
<path fill-rule="evenodd" clip-rule="evenodd" d="M3.26936 2.85515C2.87884 3.24567 2.87884 3.87884 3.26936 4.26936L6.00009 7.00009V8C6.00009 8.55228 6.44781 9 7.00009 9H8L9 10H7.00009C6.44781 10 6.00009 10.4477 6.00009 11V15C6.00009 15.5523 6.44781 16 7.00009 16H15L16 17H7.00009C6.44781 17 6.00009 17.4477 6.00009 18V20C6.00009 20.5523 6.44781 21 7.00009 21H18.0001C18.5523 21 19 20.5523 19.0001 20.0001L20.3102 21.3102C20.7008 21.7008 21.3339 21.7008 21.7244 21.3102C22.115 20.9197 22.115 20.2865 21.7244 19.896L17.8284 16H17.8377L11.8377 10H11.8284L10.8284 9H10.8377L6.1071 4.26936C6.0674 4.22966 6.03173 4.18744 6.00009 4.14323V4.17167L4.68358 2.85515C4.29305 2.46462 3.65989 2.46462 3.26936 2.85515ZM10.1459 5.47975L7.66617 3H18.0001C18.5524 3 19.0001 3.44772 19.0001 4V8C19.0001 8.55228 18.5524 9 18.0001 9H13.6662L11.6662 7H14.0001C14.5524 7 15.0001 6.55228 15.0001 6C15.0001 5.44772 14.5524 5 14.0001 5H11.0001C10.6384 5 10.3215 5.19205 10.1459 5.47975ZM14.6662 10L19.0001 14.3339V11C19.0001 10.4477 18.5524 10 18.0001 10H14.6662Z" fill="#1A1818"/>
</svg>
