<svg width="24" height="24" viewBox="0 0 24 24" fill="none" xmlns="http://www.w3.org/2000/svg">
<path fill-rule="evenodd" clip-rule="evenodd" d="M3.11708 1.70708C2.72656 1.31655 2.09339 1.31655 1.70287 1.70708C1.31234 2.0976 1.31234 2.73077 1.70287 3.12129L2.89029 4.30871C2.86143 4.43205 2.84615 4.56047 2.84615 4.69228V6.61283C2.34127 6.90655 2 7.4538 2 8.0769V19.0769C2 20.0077 2.76156 20.7692 3.69231 20.7692H11.3077C12.2384 20.7692 13 20.0077 13 19.0769V14.4184L14.497 15.9155V19.004H17.5856L20.7947 22.2132C21.1853 22.6037 21.8184 22.6037 22.209 22.2132C22.5995 21.8227 22.5995 21.1895 22.209 20.799L3.11708 1.70708ZM7.5044 8.92282L10.0427 11.4611C10.0389 11.4612 10.0351 11.4613 10.0312 11.4613H4.95433C4.72068 11.4613 4.53125 11.2719 4.53125 11.0382V9.3459C4.53125 9.11225 4.72068 8.92282 4.95433 8.92282H7.5044ZM4.96616 6.38459L4.53846 5.95689V6.38459H4.96616ZM10.4615 5.53843V6.25731L13 8.79577V8.0769C13 7.4538 12.6587 6.90655 12.1538 6.61283V4.69228C12.1538 3.76151 11.3923 2.99997 10.4615 2.99997H7.2042L8.89651 4.69228H9.61538C10.0808 4.69228 10.4615 5.07305 10.4615 5.53843ZM14.497 10.2928L21.8373 17.6331C22.1716 17.1373 22.3667 16.5397 22.3667 15.8966C22.3667 14.2948 21.1636 12.9954 19.6168 12.8167C19.6168 10.1562 17.465 8.00437 14.8044 8.00437C14.7012 8.00437 14.5987 8.00763 14.497 8.01405V10.2928ZM4.95433 12.3074C4.72068 12.3074 4.53125 12.4969 4.53125 12.7305V14.4228C4.53125 14.6565 4.72068 14.8459 4.95433 14.8459H6.64663C6.88028 14.8459 7.06971 14.6565 7.06971 14.4228V12.7305C7.06971 12.4969 6.88028 12.3074 6.64663 12.3074H4.95433ZM8.33894 12.3074C8.1053 12.3074 7.91586 12.4969 7.91586 12.7305V14.4228C7.91586 14.6565 8.1053 14.8459 8.33894 14.8459H10.0312C10.2649 14.8459 10.4543 14.6565 10.4543 14.4228V12.7305C10.4543 12.4969 10.2649 12.3074 10.0312 12.3074H8.33894ZM4.95433 15.6921C4.72068 15.6921 4.53125 15.8815 4.53125 16.1151V17.8074C4.53125 18.0411 4.72068 18.2305 4.95433 18.2305H6.64663C6.88028 18.2305 7.06971 18.0411 7.06971 17.8074V16.1151C7.06971 15.8815 6.88028 15.6921 6.64663 15.6921H4.95433Z" fill="black"/>
</svg>
