<svg width="24" height="24" viewBox="0 0 24 24" fill="none" xmlns="http://www.w3.org/2000/svg">
<path d="M11.59 8.30005L7.28 3.99005L11.4585 1.79043C12.0416 1.48347 12.7385 1.48344 13.3216 1.79036L21.2237 5.94938C21.6335 6.16503 21.89 6.58994 21.89 7.05296C21.89 7.74171 21.3317 8.30005 20.6429 8.30005H11.59ZM19.89 16.6V11.8C19.89 10.9716 19.2184 10.3 18.39 10.3C17.5616 10.3 16.89 10.9716 16.89 11.8V13.6L19.89 16.6ZM21.89 21.15V21.14L20.05 19.3H20.04L18.04 17.3H18.05L16.89 16.14V16.15L13.89 13.15V13.14L11.05 10.3L9.05 8.30005L3.415 2.66505C3.0639 2.31395 2.49499 2.31283 2.14251 2.66256C1.78807 3.01423 1.78695 3.587 2.14 3.94005L3.95 5.75005L3.56106 5.95186C3.14877 6.16578 2.89 6.59158 2.89 7.05606C2.89 7.7431 3.44695 8.30005 4.13399 8.30005H6.5L10.89 12.69V15.8C10.89 16.6285 11.5616 17.3 12.39 17.3C13.2184 17.3 13.89 16.6285 13.89 15.8V15.69L17.5 19.3H4.39C3.56157 19.3 2.89 19.9716 2.89 20.8C2.89 21.6285 3.56157 22.3 4.39 22.3H20.5L20.595 22.395C20.9457 22.7457 21.5143 22.7457 21.865 22.395L21.89 22.37C22.2269 22.0332 22.2269 21.4869 21.89 21.15ZM6.39 10.3C5.56157 10.3 4.89 10.9716 4.89 11.8V15.8C4.89 16.6285 5.56157 17.3 6.39 17.3C7.21843 17.3 7.89 16.6285 7.89 15.8V11.8C7.89 10.9716 7.21843 10.3 6.39 10.3Z" fill="black"/>
</svg>
