<svg width="24" height="24" viewBox="0 0 24 24" fill="none" xmlns="http://www.w3.org/2000/svg">
<path fill-rule="evenodd" clip-rule="evenodd" d="M3.12117 1.70708C2.73064 1.31655 2.09748 1.31655 1.70696 1.70708C1.31643 2.0976 1.31643 2.73077 1.70696 3.12129L5.56828 6.98261C5.52376 7.14778 5.5 7.32124 5.5 7.49997V20.5C5.5 21.6 6.40002 22.5 7.5 22.5H16.5C17.6 22.5 18.5 21.6 18.5 20.5V19.9143L20.7988 22.2132C21.1894 22.6037 21.8225 22.6037 22.2131 22.2132C22.6036 21.8227 22.6036 21.1895 22.2131 20.799L18.5 17.0859V17.0784L15.5 14.0784V14.0859L13.9141 12.5H13.9216L12.9216 11.5H12.9141L9.91406 8.49997H9.92157L6.5 5.0784V5.08591L3.12117 1.70708ZM8.5 9.91434V11C8.5 11.2761 8.72388 11.5 9 11.5H10.0856L8.5 9.91434ZM11.0946 12.5089C11.0639 12.503 11.0323 12.5 11 12.5H9C8.72388 12.5 8.5 12.7238 8.5 13V15C8.5 15.2761 8.72388 15.5 9 15.5H11C11.2761 15.5 11.5 15.2761 11.5 15V13C11.5 12.9676 11.4969 12.936 11.4911 12.9054L11.0946 12.5089ZM12.5 13.9143V15C12.5 15.2761 12.7239 15.5 13 15.5H14.0856L12.5 13.9143ZM15.5 11C15.5 11.0733 15.4842 11.143 15.4558 11.2058L18.5 14.25V7.49997C18.5 6.76358 18.0967 6.11684 17.5 5.76972V3.49997C17.5 2.39997 16.6 1.49997 15.5 1.49997H8.5C7.75849 1.49997 7.10784 1.90896 6.76252 2.51249L8.52556 4.27554C8.62813 3.83265 9.02711 3.49997 9.5 3.49997H14.5C15.05 3.49997 15.5 3.94997 15.5 4.49997V5.49997H9.75L12.75 8.49997H15C15.2761 8.49997 15.5 8.72383 15.5 8.99997V11ZM8.5 17C8.5 16.7238 8.72388 16.5 9 16.5H11C11.2761 16.5 11.5 16.7238 11.5 17V19C11.5 19.2761 11.2761 19.5 11 19.5H9C8.72388 19.5 8.5 19.2761 8.5 19V17Z" fill="black"/>
</svg>
