<svg width="24" height="24" viewBox="0 0 24 24" fill="none" xmlns="http://www.w3.org/2000/svg">
<path fill-rule="evenodd" clip-rule="evenodd" d="M20.3003 2.90015C20.517 2.90015 20.6961 2.97098 20.8378 3.11265C20.9795 3.25431 21.0503 3.43348 21.0503 3.65015V8.07515C21.0503 8.29181 20.9795 8.47098 20.8378 8.61265C20.6961 8.75431 20.517 8.82515 20.3003 8.82515C20.0836 8.82515 19.9045 8.75431 19.7628 8.61265C19.6211 8.47098 19.5503 8.29181 19.5503 8.07515V5.45015L14.1503 10.8501C14.0003 11.0001 13.8211 11.0751 13.6128 11.0751C13.4045 11.0751 13.2253 11.0001 13.0753 10.8501C12.9253 10.7001 12.8503 10.521 12.8503 10.3126C12.8503 10.1043 12.9253 9.92515 13.0753 9.77515L18.4503 4.40015L15.8753 4.40015C15.6586 4.40015 15.4795 4.32931 15.3378 4.18765C15.1961 4.04598 15.1253 3.86681 15.1253 3.65015C15.1253 3.43348 15.1961 3.25431 15.3378 3.11265C15.4795 2.97098 15.6586 2.90015 15.8753 2.90015H20.3003ZM16.69 14.9701L19.23 15.2601C20.24 15.3801 21 16.2301 20.99 17.2401V18.9701C20.99 20.1001 20.05 21.0401 18.92 20.9701C10.39 20.4401 3.56004 13.6201 3.03004 5.08008C2.96004 3.95008 3.90004 3.01008 5.03004 3.01008H6.76004C7.78004 3.01008 8.63004 3.77008 8.75004 4.78008L9.04004 7.30008C9.11004 7.91008 8.90004 8.51008 8.47004 8.94008L6.62004 10.7901C8.06004 13.6301 10.38 15.9401 13.21 17.3801L15.05 15.5401C15.48 15.1101 16.08 14.9001 16.69 14.9701Z" fill="black"/>
</svg>
