<svg width="24" height="24" viewBox="0 0 24 24" fill="none" xmlns="http://www.w3.org/2000/svg">
<path fill-rule="evenodd" clip-rule="evenodd" d="M7.38467 2H3.53848L3.42361 2.00422C2.62724 2.06296 2 2.72749 2 3.53848V7.38467L2.00518 7.47438C2.04961 7.85695 2.37475 8.15391 2.76924 8.15391C3.19408 8.15391 3.53848 7.80951 3.53848 7.38467V3.53848H7.38467L7.47438 3.5333C7.85695 3.48887 8.15391 3.16373 8.15391 2.76924C8.15391 2.3444 7.80951 2 7.38467 2ZM16.6153 2.00004H20.4615C21.273 2.00004 21.9371 2.62771 21.9958 3.4237L22 3.53851V7.38471C22 7.80954 21.6556 8.15394 21.2308 8.15394C20.8363 8.15394 20.5111 7.85699 20.4667 7.47441L20.4615 7.38471V3.53851H16.6153C16.1905 3.53851 15.8461 3.19411 15.8461 2.76927C15.8461 2.37478 16.1431 2.04965 16.5256 2.00521L16.6153 2.00004ZM9.69211 9.6921V6.61515H6.61516V9.6921H9.69211ZM14.3079 14.3076V9.69213H9.69246V11.2306H8.15398V12.7691H9.69246V14.3076H14.3079ZM12.7694 12.7691H9.69246V11.2306H12.7694V12.7691ZM17.3849 14.3079V17.3849H14.3079V14.3079H17.3849ZM3.53333 16.5256C3.48889 16.143 3.16376 15.8461 2.76926 15.8461C2.34443 15.8461 2.00003 16.1905 2.00003 16.6153V20.4615L2.00424 20.5763C2.06294 21.3723 2.72706 22 3.5385 22H7.3847L7.47441 21.9948C7.85698 21.9504 8.15393 21.6252 8.15393 21.2308C8.15393 20.8059 7.80954 20.4615 7.3847 20.4615H3.5385V16.6153L3.53333 16.5256ZM21.9948 16.5256C21.9504 16.143 21.6253 15.8461 21.2308 15.8461C20.8059 15.8461 20.4615 16.1905 20.4615 16.6153V20.4615H16.6153L16.5256 20.4667C16.1431 20.5111 15.8461 20.8363 15.8461 21.2308C15.8461 21.6556 16.1905 22 16.6153 22H20.4615L20.5764 21.9958C21.3728 21.937 22 21.2725 22 20.4615V16.6153L21.9948 16.5256ZM9.69211 17.3849V14.3079H6.61516V17.3849H9.69211ZM12.7694 15.8461V17.3846H11.231V15.8461H12.7694ZM17.3846 11.231V12.7694H15.8461V11.231H17.3846ZM14.3079 6.61515H17.3849V9.6921H14.3079V6.61515ZM12.7694 8.15363V6.61515H11.231V8.15363H12.7694Z" fill="black"/>
</svg>
