<svg width="24" height="24" viewBox="0 0 24 24" fill="none" xmlns="http://www.w3.org/2000/svg">
<path fill-rule="evenodd" clip-rule="evenodd" d="M2.73902 4.19836C2.20729 4.34084 1.89173 4.8874 2.03421 5.41913L2.37775 6.70122L12.3759 4.02223L12.8345 5.73385L2.83637 8.41284L3.52475 10.9819C3.66723 11.5136 4.21379 11.8292 4.74552 11.6867L12.8222 9.52257C13.354 9.38009 13.6695 8.83353 13.5271 8.3018L12.0365 2.73902C11.894 2.20729 11.3475 1.89173 10.8157 2.03421L2.73902 4.19836ZM18.2331 6.49498C18.5064 6.22161 18.9496 6.22161 19.223 6.49497C19.4964 6.76834 19.4964 7.21156 19.223 7.48492L7.48503 19.2229C7.21166 19.4963 6.76845 19.4963 6.49508 19.2229C6.22171 18.9495 6.22171 18.5063 6.49508 18.2329L18.2331 6.49498ZM17.9999 21C20.2091 21 21.9999 19.2092 21.9999 17C21.9999 14.7909 20.2091 13 17.9999 13C15.7908 13 13.9999 14.7909 13.9999 17C13.9999 19.2092 15.7908 21 17.9999 21ZM17.9999 19.8C19.5463 19.8 20.7999 18.5464 20.7999 17C20.7999 15.4536 19.5463 14.2 17.9999 14.2C16.4535 14.2 15.1999 15.4536 15.1999 17C15.1999 18.5464 16.4535 19.8 17.9999 19.8ZM18.6999 19H17.6909V16.044L16.6999 16.3105V15.6072L18.6074 15H18.6999V19Z" fill="black"/>
</svg>
