<svg width="24" height="24" viewBox="0 0 24 24" fill="none" xmlns="http://www.w3.org/2000/svg">
<path fill-rule="evenodd" clip-rule="evenodd" d="M9.17773 11.0312H7.12109V4.08789H4.05664V11.0312H2V2.5H9.17773V11.0312ZM12.5176 8.13672V11.0312H10.4609V2.5H13.8652C14.5176 2.5 15.0938 2.62109 15.5938 2.86328C16.0977 3.10156 16.4863 3.44336 16.7598 3.88867C17.0371 4.33008 17.1758 4.83203 17.1758 5.39453C17.1758 6.22656 16.877 6.89258 16.2793 7.39258C15.6855 7.88867 14.8691 8.13672 13.8301 8.13672H12.5176ZM12.5176 6.54883H13.8652C14.2637 6.54883 14.5664 6.44922 14.7734 6.25C14.9844 6.05078 15.0898 5.76953 15.0898 5.40625C15.0898 5.00781 14.9824 4.68945 14.7676 4.45117C14.5527 4.21289 14.2598 4.0918 13.8887 4.08789H12.5176V6.54883ZM15.2125 12.7913L9.33252 18.6713L6.85253 16.2013C6.46253 15.8113 5.83252 15.8113 5.44252 16.2013C5.05252 16.5913 5.05252 17.2213 5.44252 17.6113L8.62252 20.7913C9.01252 21.1813 9.64252 21.1813 10.0325 20.7913L16.6225 14.2113C17.0125 13.8213 17.0125 13.1913 16.6225 12.8013H16.6125C16.2325 12.4013 15.6025 12.4013 15.2125 12.7913ZM21.7071 14.2071C22.0976 13.8166 22.0976 13.1834 21.7071 12.7929C21.3166 12.4024 20.6834 12.4024 20.2929 12.7929L13.7929 19.2929C13.4024 19.6834 13.4024 20.3166 13.7929 20.7071C14.1834 21.0976 14.8166 21.0976 15.2071 20.7071L21.7071 14.2071Z" fill="black"/>
</svg>
