<svg width="24" height="24" viewBox="0 0 24 24" fill="none" xmlns="http://www.w3.org/2000/svg">
<path fill-rule="evenodd" clip-rule="evenodd" d="M7.53711 9.27344H4.45508L3.86914 11.0312H2L5.17578 2.5H6.80469L9.99805 11.0312H8.12891L7.53711 9.27344ZM4.92969 7.84961H7.0625L5.99023 4.65625L4.92969 7.84961ZM10.7949 11.0312V2.5H13.7832C14.8184 2.5 15.6035 2.69922 16.1387 3.09766C16.6738 3.49219 16.9414 4.07227 16.9414 4.83789C16.9414 5.25586 16.834 5.625 16.6191 5.94531C16.4043 6.26172 16.1055 6.49414 15.7227 6.64258C16.1602 6.75195 16.5039 6.97266 16.7539 7.30469C17.0078 7.63672 17.1348 8.04297 17.1348 8.52344C17.1348 9.34375 16.873 9.96484 16.3496 10.3867C15.8262 10.8086 15.0801 11.0234 14.1113 11.0312H10.7949ZM12.5527 7.31641V9.61914H14.0586C14.4727 9.61914 14.7949 9.52148 15.0254 9.32617C15.2598 9.12695 15.377 8.85352 15.377 8.50586C15.377 7.72461 14.9727 7.32812 14.1641 7.31641H12.5527ZM12.5527 6.07422H13.8535C14.7402 6.05859 15.1836 5.70508 15.1836 5.01367C15.1836 4.62695 15.0703 4.34961 14.8438 4.18164C14.6211 4.00977 14.2676 3.92383 13.7832 3.92383H12.5527V6.07422ZM15.2126 12.7913L9.33255 18.6713L6.85255 16.2013C6.46255 15.8113 5.83255 15.8113 5.44255 16.2013C5.05255 16.5913 5.05255 17.2213 5.44255 17.6113L8.62255 20.7913C9.01255 21.1813 9.64255 21.1813 10.0325 20.7913L16.6226 14.2113C17.0126 13.8213 17.0126 13.1913 16.6226 12.8013H16.6126C16.2326 12.4013 15.6026 12.4013 15.2126 12.7913ZM21.7071 14.2071C22.0977 13.8166 22.0977 13.1834 21.7071 12.7929C21.3166 12.4024 20.6834 12.4024 20.2929 12.7929L13.7929 19.2929C13.4024 19.6834 13.4024 20.3166 13.7929 20.7071C14.1834 21.0976 14.8166 21.0976 15.2071 20.7071L21.7071 14.2071Z" fill="black"/>
</svg>
