<svg width="24" height="24" viewBox="0 0 24 24" fill="none" xmlns="http://www.w3.org/2000/svg">
<path fill-rule="evenodd" clip-rule="evenodd" d="M14.7929 3.70711L17.0858 6L14.7929 8.29289C14.4024 8.68342 14.4024 9.31658 14.7929 9.70711C15.1834 10.0976 15.8166 10.0976 16.2071 9.70711L19.2071 6.70711C19.2559 6.65829 19.2986 6.60568 19.3352 6.55023C19.5915 6.16208 19.5488 5.6346 19.2071 5.29289C19.207 5.29275 19.2068 5.29262 19.2067 5.29248L16.2071 2.29289C15.8166 1.90237 15.1834 1.90237 14.7929 2.29289C14.4024 2.68342 14.4024 3.31658 14.7929 3.70711ZM14.2061 5.29188L11.2071 2.29289C10.8166 1.90237 10.1834 1.90237 9.79289 2.29289C9.40237 2.68342 9.40237 3.31658 9.79289 3.70711L11.0858 5H7C4.23858 5 2 7.23858 2 10C2 10.5523 2.44772 11 3 11C3.55228 11 4 10.5523 4 10C4 8.34315 5.34315 7 7 7H11.0858L9.79289 8.29289C9.40237 8.68342 9.40237 9.31658 9.79289 9.70711C10.1834 10.0976 10.8166 10.0976 11.2071 9.70711L14.2065 6.70769L14.2071 6.70711C14.5488 6.3654 14.5915 5.83792 14.3352 5.44977C14.2986 5.39432 14.2559 5.34171 14.2071 5.29289L14.2061 5.29188ZM8.95508 19.2734H12.0371L12.6289 21.0312H14.498L11.3047 12.5H9.67578L6.5 21.0312H8.36914L8.95508 19.2734ZM11.5625 17.8496H9.42969L10.4902 14.6562L11.5625 17.8496ZM15.2949 12.5V21.0312H18.6113C19.5801 21.0234 20.3262 20.8086 20.8496 20.3867C21.373 19.9648 21.6348 19.3438 21.6348 18.5234C21.6348 18.043 21.5078 17.6367 21.2539 17.3047C21.0039 16.9727 20.6602 16.752 20.2227 16.6426C20.6055 16.4941 20.9043 16.2617 21.1191 15.9453C21.334 15.625 21.4414 15.2559 21.4414 14.8379C21.4414 14.0723 21.1738 13.4922 20.6387 13.0977C20.1035 12.6992 19.3184 12.5 18.2832 12.5H15.2949ZM17.0527 19.6191V17.3164H18.6641C19.4727 17.3281 19.877 17.7246 19.877 18.5059C19.877 18.8535 19.7598 19.127 19.5254 19.3262C19.2949 19.5215 18.9727 19.6191 18.5586 19.6191H17.0527ZM18.3535 16.0742H17.0527V13.9238H18.2832C18.7676 13.9238 19.1211 14.0098 19.3438 14.1816C19.5703 14.3496 19.6836 14.627 19.6836 15.0137C19.6836 15.7051 19.2402 16.0586 18.3535 16.0742Z" fill="black"/>
</svg>
