<svg width="24" height="24" viewBox="0 0 24 24" fill="none" xmlns="http://www.w3.org/2000/svg">
<path fill-rule="evenodd" clip-rule="evenodd" d="M14.7929 3.70711L17.0858 6L14.7929 8.29289C14.4024 8.68342 14.4024 9.31658 14.7929 9.70711C15.1834 10.0976 15.8166 10.0976 16.2071 9.70711L19.2071 6.70711C19.2559 6.65829 19.2986 6.60568 19.3352 6.55023C19.5915 6.16208 19.5488 5.6346 19.2071 5.29289C19.207 5.29275 19.2068 5.29262 19.2067 5.29248L16.2071 2.29289C15.8166 1.90237 15.1834 1.90237 14.7929 2.29289C14.4024 2.68342 14.4024 3.31658 14.7929 3.70711ZM14.2061 5.29188L11.2071 2.29289C10.8166 1.90237 10.1834 1.90237 9.79289 2.29289C9.40237 2.68342 9.40237 3.31658 9.79289 3.70711L11.0858 5H7C4.23858 5 2 7.23858 2 10C2 10.5523 2.44772 11 3 11C3.55228 11 4 10.5523 4 10C4 8.34315 5.34315 7 7 7H11.0858L9.79289 8.29289C9.40237 8.68342 9.40237 9.31658 9.79289 9.70711C10.1834 10.0976 10.8166 10.0976 11.2071 9.70711L14.2065 6.70769L14.2071 6.70711C14.5488 6.3654 14.5915 5.83792 14.3352 5.44977C14.2986 5.39432 14.2559 5.34171 14.2071 5.29289L14.2061 5.29188ZM11.6211 21H13.6777V12.4688H6.5V21H8.55664V14.0566H11.6211V21ZM17.0176 21V18.1055H18.3301C19.3691 18.1055 20.1855 17.8574 20.7793 17.3613C21.377 16.8613 21.6758 16.1953 21.6758 15.3633C21.6758 14.8008 21.5371 14.2988 21.2598 13.8574C20.9863 13.4121 20.5977 13.0703 20.0938 12.832C19.5938 12.5898 19.0176 12.4688 18.3652 12.4688H14.9609V21H17.0176ZM18.3652 16.5176H17.0176V14.0566H18.3887C18.7598 14.0605 19.0527 14.1816 19.2676 14.4199C19.4824 14.6582 19.5898 14.9766 19.5898 15.375C19.5898 15.7383 19.4844 16.0195 19.2734 16.2188C19.0664 16.418 18.7637 16.5176 18.3652 16.5176Z" fill="black"/>
</svg>
