<svg width="24" height="24" viewBox="0 0 24 24" fill="none" xmlns="http://www.w3.org/2000/svg">
<path fill-rule="evenodd" clip-rule="evenodd" d="M23.1025 14.1701L20 14.9704V17.8571C20 18.4883 19.4883 19 18.8571 19H1.14286C0.511675 19 0 18.4883 0 17.8571V8.14286C0 7.51168 0.511675 7 1.14286 7H18.8571C19.4883 7 20 7.51167 20 8.14286V13.7902L22.817 13.0635C22.8516 13.0546 20.5052 4.59849 20.5052 4.59849C20.5012 4.58426 20.461 4.56195 20.4095 4.57523L11.0099 7H6.43457L20.124 3.4686C20.7697 3.30205 21.4327 3.66883 21.6062 4.29205L23.9584 12.7435C24.1313 13.3649 23.7483 14.0035 23.1025 14.1701ZM3.30013 8.2C3.48849 8.45071 3.6001 8.76237 3.6001 9.1001C3.6001 9.92852 2.92852 10.6001 2.1001 10.6001C1.76235 10.6001 1.45067 10.4885 1.19995 10.3001V15.6999C1.45067 15.5115 1.76235 15.3999 2.1001 15.3999C2.92852 15.3999 3.6001 16.0715 3.6001 16.8999C3.6001 17.2376 3.48849 17.5493 3.30013 17.8H16.9001C16.7117 17.5493 16.6001 17.2376 16.6001 16.8999C16.6001 16.0715 17.2717 15.3999 18.1001 15.3999C18.3529 15.3999 18.591 15.4624 18.8 15.5728V10.4271C18.591 10.5375 18.3529 10.6 18.1001 10.6C17.2717 10.6 16.6001 9.92843 16.6001 9.1C16.6001 8.76232 16.7117 8.4507 16.9 8.2H3.30013ZM13 13C13 14.933 11.6569 16.5 10 16.5C8.34315 16.5 7 14.933 7 13C7 11.067 8.34315 9.5 10 9.5C11.6569 9.5 13 11.067 13 13Z" fill="black"/>
</svg>
