<svg width="24" height="24" viewBox="0 0 24 24" fill="none" xmlns="http://www.w3.org/2000/svg">
<path fill-rule="evenodd" clip-rule="evenodd" d="M6 1C5.44772 1 5 1.44772 5 2V22C5 22.5523 5.44772 23 6 23H19C19.5523 23 20 22.5523 20 22V2C20 1.44772 19.5523 1 19 1H6ZM7 3.00037H18V11.0004H7V3.00037ZM7 13.0004H10V15.0004H7V13.0004ZM10 16.0004H7V18.0004H10V16.0004ZM7 19.0004H10V21.0004H7V19.0004ZM14 13.0004H11V15.0004H14V13.0004ZM11 16.0004H14V18.0004H11V16.0004ZM14 19.0004H11V21.0004H14V19.0004ZM15 13.0004H18V15.0004H15V13.0004ZM18 16.0004H15V18.0004H18V16.0004ZM15 19.0004H18V21.0004H15V19.0004Z" fill="black"/>
</svg>
