<svg width="24" height="24" viewBox="0 0 24 24" fill="none" xmlns="http://www.w3.org/2000/svg">
<path fill-rule="evenodd" clip-rule="evenodd" d="M7 1L17 1.01C18.1 1.01 19 1.9 19 3V21C19 22.1 18.1 23 17 23H7C5.9 23 5 22.1 5 21V3C5 1.9 5.9 1 7 1ZM7 19H17V5H7V19ZM10.2025 14.2425C10.5925 14.6325 11.2225 14.6325 11.6125 14.2425L15.1525 10.7025C15.5425 10.3125 15.5425 9.6825 15.1525 9.2925C14.7625 8.9025 14.1325 8.9025 13.7425 9.2925L10.9125 12.1225L10.2025 11.4125C9.8125 11.0225 9.1825 11.0225 8.7925 11.4125C8.4025 11.8025 8.4025 12.4325 8.7925 12.8225L10.2025 14.2425Z" fill="black"/>
</svg>
