<svg width="24" height="24" viewBox="0 0 24 24" fill="none" xmlns="http://www.w3.org/2000/svg">
<path d="M20.1589 4.8C20.0689 4.34 19.6589 4 19.1789 4H4.81885C4.33885 4 3.92885 4.34 3.83885 4.8L2.83885 9.8C2.71885 10.42 3.18885 11 3.81885 11H3.99885V19C3.99885 19.55 4.44885 20 4.99885 20H12.9989C13.5489 20 13.9989 19.55 13.9989 19V11H17.9989V19C17.9989 19.55 18.4489 20 18.9989 20C19.5489 20 19.9989 19.55 19.9989 19V11H20.1789C20.8089 11 21.2789 10.42 21.1589 9.8L20.1589 4.8ZM11.9989 16H5.99885V11H11.9989V16Z" fill="black"/>
</svg>
