<svg width="24" height="24" viewBox="0 0 24 24" fill="none" xmlns="http://www.w3.org/2000/svg">
<path fill-rule="evenodd" clip-rule="evenodd" d="M14.3115 4.28003C13.9381 3.90666 13.3328 3.90666 12.9594 4.28003C12.586 4.6534 12.586 5.25875 12.9594 5.63212L13.7802 6.45298L9.2412 10.0263L8.22724 9.01231C7.85387 8.63894 7.24852 8.63894 6.87515 9.01231C6.50178 9.38568 6.50178 9.99104 6.87515 10.3644L9.57921 13.0685C9.57916 13.0685 9.5791 13.0686 9.57905 13.0686L5.25476 17.3929C5.2082 17.4395 5.16635 17.4905 5.12982 17.5453L4.09782 19.0933C3.94364 19.3246 3.97413 19.6325 4.17068 19.8291C4.36722 20.0256 4.67518 20.0561 4.90645 19.9019L6.45445 18.8699C6.50924 18.8334 6.56029 18.7916 6.60686 18.745L10.9311 14.4207C10.9312 14.4207 10.9312 14.4206 10.9313 14.4206L13.6356 17.1249C14.009 17.4982 14.6143 17.4982 14.9877 17.1249C15.3611 16.7515 15.3611 16.1461 14.9877 15.7728L13.9735 14.7586L17.5468 10.2195L18.3678 11.0405C18.7411 11.4139 19.3465 11.4139 19.7199 11.0405C20.0932 10.6671 20.0932 10.0618 19.7199 9.6884L14.3115 4.28003Z" fill="black"/>
</svg>
