<svg width="24" height="24" viewBox="0 0 24 24" fill="none" xmlns="http://www.w3.org/2000/svg">
<path d="M14.3989 7.23878L15.2142 6.59694L15.2334 6.61618L14.6054 7.10963L10.0625 10.6791L9.24574 11.3208L9.23159 11.3066L9.85982 10.8121L14.3989 7.23878ZM16.8902 9.39448L17.3837 8.76645L17.403 8.78572L16.7611 9.60103L13.1878 14.1401L12.6932 14.7684L12.679 14.7542L13.3208 13.9374L16.8902 9.39448ZM19.0749 10.3334L19.0747 10.3333L19.0749 10.3334ZM14.2806 16.4799C14.2806 16.4799 14.2806 16.4799 14.2806 16.4798L14.2806 16.4799ZM14.3427 16.4178L14.3427 16.4177C14.3427 16.4177 14.3427 16.4178 14.3427 16.4178ZM10.2242 12.4235L11.5763 13.7755L10.9312 14.4207L10.2862 13.7757L10.2863 13.7756L10.2788 13.768C10.1114 13.3632 9.944 13.0713 9.78621 12.8615L10.2242 12.4235ZM10.279 13.7686C10.2796 13.7692 10.2855 13.7751 10.2861 13.7757L10.279 13.7686ZM10.2788 13.768L9.57921 13.0685L9.78619 12.8615C9.94398 13.0713 10.1113 13.3632 10.2788 13.768ZM10.2862 13.7757L10.279 13.7686L10.2862 13.7757Z" stroke="black" stroke-width="2"/>
</svg>
