<svg width="24" height="24" viewBox="0 0 24 24" fill="none" xmlns="http://www.w3.org/2000/svg">
<path fill-rule="evenodd" clip-rule="evenodd" d="M4.12833 4.49625C3.70682 3.96936 2.85714 4.26742 2.85714 4.94216V17.6902H21.1429V4.94216C21.1429 4.26742 20.2932 3.96936 19.8717 4.49625C19.5859 4.85344 19.0427 4.85344 18.7569 4.49625L18.3781 4.02279C17.9206 3.4509 17.0508 3.4509 16.5933 4.02279L16.5496 4.07745C16.0921 4.64935 15.2222 4.64934 14.7647 4.07745L14.721 4.02279C14.2635 3.4509 13.3937 3.4509 12.9361 4.02279L12.8924 4.07745C12.4349 4.64935 11.5651 4.64934 11.1076 4.07745L11.0639 4.02279C10.6063 3.4509 9.73652 3.4509 9.27901 4.02279L9.23528 4.07745C8.77776 4.64935 7.90795 4.64934 7.45044 4.07745L7.40671 4.02279C6.94919 3.4509 6.07938 3.4509 5.62186 4.02279L5.2431 4.49625C4.95735 4.85344 4.41408 4.85344 4.12833 4.49625ZM23.122 21.1429H0.878049C0.393116 21.1429 0 20.7591 0 20.2857C0 19.8124 0.393116 19.4286 0.878049 19.4286H23.122C23.6069 19.4286 24 19.8124 24 20.2857C24 20.7591 23.6069 21.1429 23.122 21.1429ZM18.2148 10.2857C18.6115 10.2857 18.9331 9.90199 18.9331 9.4286C18.9331 8.95522 18.6115 8.57146 18.2148 8.57146H5.81248C5.41578 8.57146 5.09419 8.95522 5.09419 9.4286C5.09419 9.90199 5.41578 10.2857 5.81248 10.2857H18.2148ZM10.3617 13.4286C10.3617 13.902 10.0401 14.2857 9.64337 14.2857H5.81248C5.41578 14.2857 5.09419 13.902 5.09419 13.4286C5.09419 12.9552 5.41578 12.5715 5.81248 12.5715H9.64337C10.0401 12.5715 10.3617 12.9552 10.3617 13.4286Z" fill="black"/>
</svg>
