<svg width="24" height="24" viewBox="0 0 24 24" fill="none" xmlns="http://www.w3.org/2000/svg">
<path d="M20.2322 18.0129C20.5651 18.2241 21 17.9849 21 17.5907V3C21 2.44772 20.5523 2 20 2H8C7.44772 2 7 2.44772 7 3V4H18C18.5523 4 19 4.44772 19 5L19 17.2314L20.2322 18.0129Z" fill="black"/>
<path fill-rule="evenodd" clip-rule="evenodd" d="M16.0252 21.7201C16.418 22.0343 17 21.7546 17 21.2515L17 7C17 6.44771 16.5523 6 16 6H4C3.44772 6 3 6.44771 3 7V21.2515C3 21.7546 3.58196 22.0343 3.97482 21.7201L5.02672 20.8785C5.28733 20.67 5.66798 20.7143 5.87382 20.977L6.52772 21.8115C6.76794 22.1181 7.23206 22.1181 7.47228 21.8115L8.02772 21.1026C8.26794 20.7961 8.73206 20.7961 8.97228 21.1026L9.52772 21.8115C9.76794 22.1181 10.2321 22.1181 10.4723 21.8115L11.0277 21.1026C11.2679 20.7961 11.7321 20.7961 11.9723 21.1026L12.5277 21.8115C12.7679 22.1181 13.2321 22.1181 13.4723 21.8115L14.1262 20.977C14.332 20.7143 14.7127 20.67 14.9733 20.8785L16.0252 21.7201ZM6 8C5.44772 8 5 8.44771 5 9C5 9.55228 5.44772 10 6 10H10C10.5523 10 11 9.55228 11 9C11 8.44771 10.5523 8 10 8H6ZM14 8C13.4477 8 13 8.44771 13 9C13 9.55228 13.4477 10 14 10C14.5523 10 15 9.55228 15 9C15 8.44771 14.5523 8 14 8ZM5 13C5 12.4477 5.44772 12 6 12H10C10.5523 12 11 12.4477 11 13C11 13.5523 10.5523 14 10 14H6C5.44772 14 5 13.5523 5 13ZM14 12C13.4477 12 13 12.4477 13 13C13 13.5523 13.4477 14 14 14C14.5523 14 15 13.5523 15 13C15 12.4477 14.5523 12 14 12ZM5 17C5 16.4477 5.44772 16 6 16H14C14.5523 16 15 16.4477 15 17C15 17.5523 14.5523 18 14 18H6C5.44772 18 5 17.5523 5 17Z" fill="black"/>
</svg>
