<svg width="24" height="24" viewBox="0 0 24 24" fill="none" xmlns="http://www.w3.org/2000/svg">
<path fill-rule="evenodd" clip-rule="evenodd" d="M17 4C17 2.89543 17.8954 2 19 2C20.1046 2 21 2.89543 21 4V20C21 21.1046 20.1046 22 19 22C17.8954 22 17 21.1046 17 20V4ZM10 10C10 8.89543 10.8954 8 12 8C13.1046 8 14 8.89543 14 10V20C14 21.1046 13.1046 22 12 22C10.8954 22 10 21.1046 10 20V10ZM5 14C3.89543 14 3 14.8954 3 16V20C3 21.1046 3.89543 22 5 22C6.10457 22 7 21.1046 7 20V16C7 14.8954 6.10457 14 5 14Z" fill="black"/>
</svg>
