<svg width="24" height="24" viewBox="0 0 24 24" fill="none" xmlns="http://www.w3.org/2000/svg">
<path fill-rule="evenodd" clip-rule="evenodd" d="M12 22C17.5228 22 22 17.5228 22 12C22 6.47715 17.5228 2 12 2C6.47715 2 2 6.47715 2 12C2 17.5228 6.47715 22 12 22ZM8.93934 6.14745L6.14645 8.94034C5.95118 9.1356 5.95118 9.45219 6.14645 9.64745L8.93934 12.4403C9.25432 12.7553 9.79289 12.5322 9.79289 12.0868V10.2939H12.7928C14.4497 10.2939 15.7928 11.637 15.7928 13.2939C15.7928 14.9507 14.4497 16.2939 12.7928 16.2939H9.79285C9.24056 16.2939 8.79285 16.7416 8.79285 17.2939C8.79285 17.8462 9.24056 18.2939 9.79285 18.2939H12.7928C15.5543 18.2939 17.7928 16.0553 17.7928 13.2939C17.7928 10.5325 15.5543 8.29388 12.7928 8.29388H9.79289V6.501C9.79289 6.05555 9.25432 5.83247 8.93934 6.14745Z" fill="black"/>
</svg>
