<svg width="24" height="24" viewBox="0 0 24 24" fill="none" xmlns="http://www.w3.org/2000/svg">
<path fill-rule="evenodd" clip-rule="evenodd" d="M2 12C2 6.48 6.48 2 12 2C17.52 2 22 6.48 22 12C22 17.52 17.52 22 12 22C6.48 22 2 17.52 2 12ZM12.1975 16.0962C12.6596 16.0962 13.0341 15.7216 13.0341 15.2596C13.0341 14.7976 12.6596 14.4231 12.1975 14.4231H10.5399V13.5412H12.9876C14.2476 13.5247 15.2313 13.1868 15.9388 12.5275C16.6463 11.8626 17 10.9478 17 9.78297C17 8.64011 16.6282 7.72527 15.8846 7.03846C15.141 6.34615 14.1469 6 12.9024 6H9.58792C9.03563 6 8.58792 6.44771 8.58792 7V11.8681H7.83654C7.37453 11.8681 7 12.2427 7 12.7047C7 13.1667 7.37453 13.5412 7.83654 13.5412H8.58792V14.4231H7.83654C7.37453 14.4231 7 14.7976 7 15.2596C7 15.7216 7.37453 16.0962 7.83654 16.0962H8.58792V17.024C8.58792 17.563 9.02488 18 9.5639 18C10.1029 18 10.5399 17.563 10.5399 17.024V16.0962H12.1975ZM12.8714 11.8681H10.5399V7.68132H12.9876C13.6279 7.6978 14.1288 7.9011 14.4903 8.29121C14.857 8.68132 15.0403 9.18407 15.0403 9.79945C15.0403 10.4863 14.8544 11.0027 14.4826 11.3489C14.1108 11.6951 13.5737 11.8681 12.8714 11.8681Z" fill="black"/>
</svg>
