<svg width="24" height="24" viewBox="0 0 24 24" fill="none" xmlns="http://www.w3.org/2000/svg">
<path fill-rule="evenodd" clip-rule="evenodd" d="M8.00005 21.1998C8.66051 21.1998 9.20005 20.6603 9.20005 19.9998V18.1998H12C12.6605 18.1998 13.2 17.6603 13.2 16.9998C13.2 16.3393 12.6605 15.7998 12 15.7998H9.20005V14.1998H13.5C16.8367 14.1998 19.5005 11.3395 19.1691 7.9407C18.8882 4.96696 16.2315 2.7998 13.26 2.7998H8.00005C7.33959 2.7998 6.80005 3.33935 6.80005 3.9998V11.7998H6.00005C5.33959 11.7998 4.80005 12.3393 4.80005 12.9998C4.80005 13.6603 5.33959 14.1998 6.00005 14.1998H6.80005V15.7998H6.00005C5.33959 15.7998 4.80005 16.3393 4.80005 16.9998C4.80005 17.6603 5.33959 18.1998 6.00005 18.1998H6.80005V19.9998C6.80005 20.6603 7.33959 21.1998 8.00005 21.1998ZM13.5 11.7998H9.20005V5.1998H13.5C15.3196 5.1998 16.8 6.68026 16.8 8.4998C16.8 10.3193 15.3196 11.7998 13.5 11.7998Z" fill="black"/>
</svg>
