<svg width="24" height="24" viewBox="0 0 24 24" fill="none" xmlns="http://www.w3.org/2000/svg">
<path d="M7 2.93354C7 2.67518 7.12477 2.43273 7.33501 2.28256C7.61317 2.08387 7.98683 2.08387 8.26499 2.28256L8.61876 2.53525C8.96646 2.78361 9.43354 2.78361 9.78124 2.53525L10.0188 2.36559C10.3665 2.11724 10.8335 2.11724 11.1812 2.36559L11.4188 2.53525C11.7665 2.78361 12.2335 2.78361 12.5812 2.53525L12.8188 2.36559C13.1665 2.11724 13.6335 2.11724 13.9812 2.36559L14.2188 2.53525C14.5665 2.78361 15.0335 2.78361 15.3812 2.53525L15.735 2.28256C16.0132 2.08387 16.3868 2.08387 16.665 2.28256C16.8752 2.43273 17 2.67518 17 2.93355V5.95035C17 6.50263 16.5523 6.95035 16 6.95035H8C7.44772 6.95035 7 6.50263 7 5.95035V2.93354Z" fill="black"/>
<path fill-rule="evenodd" clip-rule="evenodd" d="M5.66914 6.99991H6.00121C6.02704 7.52917 6.46433 7.95035 7 7.95035H17C17.5357 7.95035 17.973 7.52917 17.9988 6.99991H18.3308C19.2974 6.99991 20.1257 7.69115 20.2986 8.64213L21.8928 17.4105C21.9486 17.7174 21.7128 17.9999 21.4009 17.9999H2.5991C2.28714 17.9999 2.05136 17.7174 2.10716 17.4105L3.7014 8.64214C3.87431 7.69116 4.70257 6.99991 5.66914 6.99991ZM11 11.9503C11 11.3981 11.4477 10.9503 12 10.9503C12.5522 10.9503 13 11.3981 13 11.9503C13 12.5026 12.5522 12.9503 12 12.9503C11.4477 12.9503 11 12.5026 11 11.9503ZM12 13.9503C11.4477 13.9503 11 14.3981 11 14.9503C11 15.5026 11.4477 15.9503 12 15.9503C12.5522 15.9503 13 15.5026 13 14.9503C13 14.3981 12.5522 13.9503 12 13.9503ZM14 11.9503C14 11.3981 14.4477 10.9503 15 10.9503C15.5522 10.9503 16 11.3981 16 11.9503C16 12.5026 15.5522 12.9503 15 12.9503C14.4477 12.9503 14 12.5026 14 11.9503ZM15 13.9503C14.4477 13.9503 14 14.3981 14 14.9503C14 15.5026 14.4477 15.9503 15 15.9503C15.5522 15.9503 16 15.5026 16 14.9503C16 14.3981 15.5522 13.9503 15 13.9503ZM17 11.9503C17 11.3981 17.4477 10.9503 18 10.9503C18.5522 10.9503 19 11.3981 19 11.9503C19 12.5026 18.5522 12.9503 18 12.9503C17.4477 12.9503 17 12.5026 17 11.9503ZM18 13.9503C17.4477 13.9503 17 14.3981 17 14.9503C17 15.5026 17.4477 15.9503 18 15.9503C18.5522 15.9503 19 15.5026 19 14.9503C19 14.3981 18.5522 13.9503 18 13.9503ZM5.99995 10.9503C5.44767 10.9503 4.99995 11.3981 4.99995 11.9503V14.9503C4.99995 15.5026 5.44767 15.9503 5.99995 15.9503H7.99995C8.55224 15.9503 8.99995 15.5026 8.99995 14.9503V11.9503C8.99995 11.3981 8.55224 10.9503 7.99995 10.9503H5.99995Z" fill="black"/>
<path d="M2.5 19C2.22386 19 2 19.2239 2 19.5V20C2 21.1046 2.89543 22 4 22H20C21.1046 22 22 21.1046 22 20V19.5C22 19.2239 21.7761 19 21.5 19H2.5Z" fill="black"/>
</svg>
