<svg width="24" height="24" viewBox="0 0 24 24" fill="none" xmlns="http://www.w3.org/2000/svg">
<path fill-rule="evenodd" clip-rule="evenodd" d="M10.2857 7.14289C10.2857 9.50592 8.36298 11.4286 5.99995 11.4286C3.63692 11.4286 1.71423 9.50592 1.71423 7.14289C1.71423 4.77986 3.63692 2.85718 5.99995 2.85718C8.36324 2.85718 10.2857 4.77986 10.2857 7.14289ZM7.88569 7.14289C7.88569 6.10329 7.03955 5.25715 5.99995 5.25715C4.96034 5.25715 4.1142 6.10329 4.1142 7.14289C4.1142 8.1825 4.96034 9.02864 5.99995 9.02864C7.03955 9.02864 7.88569 8.1825 7.88569 7.14289ZM20.217 5.01185C20.641 4.58785 20.641 3.90041 20.217 3.47641C19.793 3.05242 19.1056 3.05242 18.6816 3.47641L3.06848 19.0895C2.64448 19.5135 2.64448 20.2009 3.06848 20.6249C3.49248 21.0489 4.17991 21.0489 4.60391 20.6249L20.217 5.01185ZM18.0319 20.9665C20.4454 20.9665 22.4092 19.0027 22.4092 16.5891C22.4092 14.1756 20.4457 12.2118 18.0319 12.2118C15.6184 12.2118 13.6546 14.1756 13.6546 16.5891C13.6546 19.0027 15.6184 20.9665 18.0319 20.9665ZM18.0319 14.6631C19.0937 14.6631 19.958 15.5273 19.958 16.5891C19.958 17.651 19.0937 18.5152 18.0319 18.5152C16.9701 18.5152 16.1058 17.651 16.1058 16.5891C16.1058 15.5273 16.9701 14.6631 18.0319 14.6631Z" fill="black"/>
</svg>
