<svg width="24" height="24" viewBox="0 0 24 24" fill="none" xmlns="http://www.w3.org/2000/svg">
<path fill-rule="evenodd" clip-rule="evenodd" d="M3 5C3 3.89543 3.89543 3 5 3H8C8.55228 3 9 3.44772 9 4C9 4.55228 8.55228 5 8 5L5 5V15H8C8.55228 15 8.98357 15.46 9.16368 15.982C9.56934 17.158 10.6841 18 12 18C13.3159 18 14.4307 17.158 14.8363 15.982C15.0164 15.46 15.4477 15 16 15H19V5L16 5C15.4477 5 15 4.55228 15 4C15 3.44772 15.4477 3 16 3H19C20.1046 3 21 3.89543 21 5V15V19C21 20.1 20.1 21 19 21H5C3.89 21 3 20.1 3 19V15V5ZM13.0884 4.00004V9.00004H14.8884C15.3284 9.00004 15.5484 9.54004 15.2384 9.85004L12.4484 12.64C12.2484 12.84 11.9384 12.84 11.7384 12.64L8.94841 9.85004C8.62841 9.54004 8.84841 9.00004 9.29841 9.00004H11.0884V4.00004C11.0884 3.45004 11.5384 3.00004 12.0884 3.00004C12.6384 3.00004 13.0884 3.45004 13.0884 4.00004Z" fill="black"/>
</svg>
