<svg width="24" height="24" viewBox="0 0 24 24" fill="none" xmlns="http://www.w3.org/2000/svg">
<path fill-rule="evenodd" clip-rule="evenodd" d="M15.4577 16.8719C14.309 17.587 12.9527 18 11.5 18C7.35786 18 4 14.6421 4 10.5C4 6.35786 7.35786 3 11.5 3C15.6421 3 19 6.35786 19 10.5C19 12.4657 18.2438 14.2548 17.0064 15.5922L20.793 19.3788C21.1835 19.7693 21.1835 20.4025 20.793 20.793C20.4025 21.1835 19.7693 21.1835 19.3788 20.793L15.4577 16.8719ZM17 10.5C17 13.5376 14.5376 16 11.5 16C8.46243 16 6 13.5376 6 10.5C6 7.46243 8.46243 5 11.5 5C14.5376 5 17 7.46243 17 10.5Z" fill="black"/>
</svg>
