<svg width="24" height="24" viewBox="0 0 24 24" fill="none" xmlns="http://www.w3.org/2000/svg">
<path fill-rule="evenodd" clip-rule="evenodd" d="M4.4125 10.9525L2.2925 8.8325C1.9025 8.4425 1.9025 7.8125 2.2925 7.4225C2.6825 7.0325 3.3125 7.0325 3.7025 7.4225L5.1125 8.8325L8.6525 5.2925C9.0425 4.9025 9.6725 4.9025 10.0625 5.2925C10.4525 5.6825 10.4525 6.3125 10.0625 6.7025L5.8225 10.9425C5.4325 11.3425 4.8025 11.3425 4.4125 10.9525ZM20.3555 7.66211H13.3555C12.8055 7.66211 12.3555 8.11211 12.3555 8.66211C12.3555 9.21211 12.8055 9.66211 13.3555 9.66211H20.3555C20.9055 9.66211 21.3555 9.21211 21.3555 8.66211C21.3555 8.11211 20.9055 7.66211 20.3555 7.66211ZM20.3555 15.6621H13.3555C12.8055 15.6621 12.3555 16.1121 12.3555 16.6621C12.3555 17.2121 12.8055 17.6621 13.3555 17.6621H20.3555C20.9055 17.6621 21.3555 17.2121 21.3555 16.6621C21.3555 16.1121 20.9055 15.6621 20.3555 15.6621ZM2.2925 16.4946L4.4125 18.6146C4.8025 19.0046 5.4325 19.0046 5.8225 18.6046L10.0625 14.3646C10.4525 13.9746 10.4525 13.3446 10.0625 12.9546C9.6725 12.5646 9.0425 12.5646 8.6525 12.9546L5.1125 16.4946L3.7025 15.0846C3.3125 14.6946 2.6825 14.6946 2.2925 15.0846C1.9025 15.4746 1.9025 16.1046 2.2925 16.4946Z" fill="black"/>
</svg>
