<svg width="24" height="24" viewBox="0 0 24 24" fill="none" xmlns="http://www.w3.org/2000/svg">
<path fill-rule="evenodd" clip-rule="evenodd" d="M10.7071 10.7071C10.3166 11.0976 9.68342 11.0976 9.29289 10.7071L8 9.41421L8 17C8 17.5523 7.55228 18 7 18C6.44772 18 6 17.5523 6 17V9.41421L4.70711 10.7071C4.31658 11.0976 3.68342 11.0976 3.29289 10.7071C2.90237 10.3166 2.90237 9.68342 3.29289 9.29289L6.29289 6.29289C6.45459 6.13119 6.6579 6.03644 6.86835 6.00865C6.90842 6.00336 6.94874 6.0005 6.98909 6.00006C7.24864 5.99724 7.50956 6.09534 7.70759 6.29338L10.7071 9.29289C11.0976 9.68342 11.0976 10.3166 10.7071 10.7071ZM20.7071 13.2929C20.3166 12.9024 19.6834 12.9024 19.2929 13.2929L18 14.5858V7.00001C18 6.44773 17.5523 6.00001 17 6.00001C16.4477 6.00001 16 6.44773 16 7.00001V14.5858L14.7071 13.2929C14.3166 12.9024 13.6834 12.9024 13.2929 13.2929C12.9024 13.6834 12.9024 14.3166 13.2929 14.7071L16.2929 17.7071C16.4546 17.8688 16.6579 17.9636 16.8683 17.9914C16.9084 17.9967 16.9487 17.9995 16.9891 18C17.2486 18.0028 17.5096 17.9047 17.7076 17.7066L20.7071 14.7071C21.0976 14.3166 21.0976 13.6834 20.7071 13.2929Z" fill="black"/>
</svg>
