<svg width="24" height="24" viewBox="0 0 24 24" fill="none" xmlns="http://www.w3.org/2000/svg">
<path fill-rule="evenodd" clip-rule="evenodd" d="M21.7071 10.7071C21.3166 11.0976 20.6834 11.0976 20.2929 10.7071L19 9.41421V17C19 17.5523 18.5523 18 18 18C17.4477 18 17 17.5523 17 17V9.41421L15.7071 10.7071C15.3166 11.0976 14.6834 11.0976 14.2929 10.7071C13.9024 10.3166 13.9024 9.68342 14.2929 9.29289L17.2929 6.29289C17.4546 6.13119 17.6579 6.03644 17.8683 6.00865C17.9084 6.00336 17.9487 6.0005 17.9891 6.00006C18.2486 5.99724 18.5096 6.09534 18.7076 6.29338L21.7071 9.29289C22.0976 9.68342 22.0976 10.3166 21.7071 10.7071ZM8 6.00001H4C3.45 6.00001 3 6.45001 3 7.00001C3 7.55001 3.45 8.00001 4 8.00001H8C8.55 8.00001 9 7.55001 9 7.00001C9 6.45001 8.55 6.00001 8 6.00001ZM4 16C3.45 16 3 16.45 3 17C3 17.55 3.45 18 4 18H14C14.55 18 15 17.55 15 17C15 16.45 14.55 16 14 16H4ZM11 11H4C3.45 11 3 11.45 3 12C3 12.55 3.45 13 4 13H11C11.55 13 12 12.55 12 12C12 11.45 11.55 11 11 11Z" fill="black"/>
</svg>
