<svg width="24" height="24" viewBox="0 0 24 24" fill="none" xmlns="http://www.w3.org/2000/svg">
<path fill-rule="evenodd" clip-rule="evenodd" d="M8 18H4C3.45 18 3 17.55 3 17C3 16.45 3.45 16 4 16H8C8.55 16 9 16.45 9 17C9 17.55 8.55 18 8 18ZM4 8C3.45 8 3 7.55 3 7C3 6.45 3.45 6 4 6H14C14.55 6 15 6.45 15 7C15 7.55 14.55 8 14 8H4ZM11 13H4C3.45 13 3 12.55 3 12C3 11.45 3.45 11 4 11H11C11.55 11 12 11.45 12 12C12 12.55 11.55 13 11 13ZM21.7071 13.2929C21.3166 12.9024 20.6834 12.9024 20.2929 13.2929L19 14.5858V7C19 6.44772 18.5523 6 18 6C17.4477 6 17 6.44771 17 7V14.5858L15.7071 13.2929C15.3166 12.9024 14.6834 12.9024 14.2929 13.2929C13.9024 13.6834 13.9024 14.3166 14.2929 14.7071L17.2929 17.7071C17.4546 17.8688 17.6579 17.9636 17.8683 17.9914C17.9084 17.9967 17.9487 17.9995 17.9891 18C18.2486 18.0028 18.5096 17.9047 18.7076 17.7066L21.7071 14.7071C22.0976 14.3166 22.0976 13.6834 21.7071 13.2929Z" fill="black"/>
</svg>
