<svg width="24" height="24" viewBox="0 0 24 24" fill="none" xmlns="http://www.w3.org/2000/svg">
<path fill-rule="evenodd" clip-rule="evenodd" d="M4 2C2.89543 2 2 2.89543 2 4V10C2 11.1046 2.89543 12 4 12H10C11.1046 12 12 11.1046 12 10V4C12 2.89543 11.1046 2 10 2H4ZM16 4C14.8954 4 14 4.89543 14 6V10C14 11.1046 14.8954 12 16 12H20C21.1046 12 22 11.1046 22 10V6C22 4.89543 21.1046 4 20 4H16ZM4 16C4 14.8954 4.89543 14 6 14H10C11.1046 14 12 14.8954 12 16V20C12 21.1046 11.1046 22 10 22H6C4.89543 22 4 21.1046 4 20V16ZM16 14C14.8954 14 14 14.8954 14 16V20C14 21.1046 14.8954 22 16 22H20C21.1046 22 22 21.1046 22 20V16C22 14.8954 21.1046 14 20 14H16Z" fill="black"/>
</svg>
