<svg width="24" height="24" viewBox="0 0 24 24" fill="none" xmlns="http://www.w3.org/2000/svg">
<path d="M17.9399 20.275L13.5149 15.85L15.6149 13.75L20.0399 18.175C20.3232 18.4584 20.4649 18.8084 20.4649 19.225C20.4649 19.6417 20.3232 19.9917 20.0399 20.275C19.7566 20.5584 19.4066 20.7 18.9899 20.7C18.5732 20.7 18.2232 20.5584 17.9399 20.275ZM4.13989 20.275C3.85656 19.9917 3.71489 19.6417 3.71489 19.225C3.71489 18.8084 3.85656 18.4584 4.13989 18.175L9.98989 12.325L8.28989 10.625C8.07323 10.8417 7.83156 10.9417 7.56489 10.925C7.29823 10.9084 7.07323 10.8084 6.88989 10.625L6.31489 10.05V12.1L6.13989 12.275C5.98989 12.425 5.81489 12.5 5.61489 12.5C5.41489 12.5 5.23989 12.425 5.08989 12.275L3.11489 10.3C2.96489 10.15 2.88989 9.97505 2.88989 9.77505C2.88989 9.57505 2.96489 9.40005 3.11489 9.25005L3.28989 9.07505H5.33989L4.78989 8.52505C4.58989 8.32505 4.48989 8.09172 4.48989 7.82505C4.48989 7.55838 4.58989 7.32505 4.78989 7.12505L7.63989 4.27505C7.97323 3.94172 8.33156 3.70005 8.71489 3.55005C9.09823 3.40005 9.48989 3.32505 9.88989 3.32505C10.2899 3.32505 10.6816 3.40005 11.0649 3.55005C11.4482 3.70005 11.8066 3.94172 12.1399 4.27505L9.83989 6.57505L10.3899 7.12505C10.5732 7.30838 10.6732 7.53338 10.6899 7.80005C10.7066 8.06672 10.6066 8.30838 10.3899 8.52505L12.0899 10.225L14.3399 7.97505C14.2732 7.79172 14.2192 7.60005 14.1779 7.40005C14.1359 7.20005 14.1149 7.00005 14.1149 6.80005C14.1149 5.81672 14.4526 4.98738 15.1279 4.31205C15.8026 3.63738 16.6316 3.30005 17.6149 3.30005C17.8649 3.30005 18.1026 3.32505 18.3279 3.37505C18.5526 3.42505 18.7816 3.50005 19.0149 3.60005L16.5399 6.07505L18.3399 7.87505L20.8149 5.40005C20.9316 5.63338 21.0109 5.86238 21.0529 6.08705C21.0942 6.31238 21.1149 6.55005 21.1149 6.80005C21.1149 7.78338 20.7776 8.61238 20.1029 9.28705C19.4276 9.96238 18.5982 10.3 17.6149 10.3C17.4149 10.3 17.2149 10.2834 17.0149 10.25C16.8149 10.2167 16.6232 10.1584 16.4399 10.075L6.23989 20.275C5.95656 20.5584 5.60656 20.7 5.18989 20.7C4.77323 20.7 4.42323 20.5584 4.13989 20.275Z" fill="black"/>
</svg>
