<svg width="24" height="24" viewBox="0 0 24 24" fill="none" xmlns="http://www.w3.org/2000/svg">
<path d="M20.54 5.23L19.15 3.55C18.88 3.21 18.47 3 18 3H6C5.53 3 5.12 3.21 4.84 3.55L3.46 5.23C3.17 5.57 3 6.02 3 6.5V19C3 20.1 3.9 21 5 21H19C20.1 21 21 20.1 21 19V6.5C21 6.02 20.83 5.57 20.54 5.23ZM12.35 10L16.6464 14.2964C16.9614 14.6114 16.7383 15.15 16.2929 15.15H14V16.65C14 16.9261 13.7761 17.15 13.5 17.15H10.5C10.2239 17.15 10 16.9261 10 16.65V15.15H7.70711C7.26165 15.15 7.03857 14.6114 7.35355 14.2964L11.65 10C11.84 9.81 12.16 9.81 12.35 10ZM5.12 5L5.93 4H17.93L18.87 5H5.12Z" fill="black"/>
</svg>
