<svg width="24" height="24" viewBox="0 0 24 24" fill="none" xmlns="http://www.w3.org/2000/svg">
<path d="M5.83021 11.9999L8.29021 9.53986C8.68021 9.14986 8.68021 8.51986 8.29021 8.12986C7.90021 7.73986 7.27022 7.73986 6.88021 8.12986L3.70021 11.2999C3.31021 11.6899 3.31021 12.3199 3.70021 12.7099L6.88021 15.8799C7.27022 16.2699 7.90021 16.2699 8.29021 15.8799C8.68021 15.4899 8.68021 14.8599 8.29021 14.4699L5.83021 11.9999ZM18.1702 11.9999L15.7102 14.4599C15.3202 14.8499 15.3202 15.4799 15.7102 15.8699C16.1002 16.2599 16.7302 16.2599 17.1202 15.8699L20.3002 12.6999C20.6902 12.3099 20.6902 11.6799 20.3002 11.2899L17.1302 8.11986C16.7402 7.72986 16.1102 7.72986 15.7202 8.11986C15.3302 8.50986 15.3302 9.13986 15.7202 9.52986L18.1702 11.9999Z" fill="black"/>
</svg>
