<svg width="24" height="24" viewBox="0 0 24 24" fill="none" xmlns="http://www.w3.org/2000/svg">
<path fill-rule="evenodd" clip-rule="evenodd" d="M3.29289 2.29289C3.68342 1.90237 4.31658 1.90237 4.70711 2.29289L21.7071 19.2929C22.0976 19.6834 22.0976 20.3166 21.7071 20.7071C21.3166 21.0976 20.6834 21.0976 20.2929 20.7071L3.29289 3.70711C2.90237 3.31658 2.90237 2.68342 3.29289 2.29289Z" fill="black"/>
<path d="M10.6642 8.57843L9.97487 9.26777C8.60804 10.6346 8.60804 12.8507 9.97487 14.2175C10.0949 14.3376 10.2215 14.447 10.3535 14.546L11.803 13.0965C11.6533 13.025 11.5131 12.9273 11.3891 12.8033C10.8033 12.2175 10.8033 11.2678 11.3891 10.682L12.0784 9.99264L10.6642 8.57843Z" fill="black"/>
<path d="M12.7855 10.6997L15.1826 13.0969C15.0573 13.7665 14.7356 14.4065 14.2175 14.9246L9.97487 19.1673C8.60804 20.5341 6.39196 20.5341 5.02513 19.1673C3.65829 17.8004 3.65829 15.5843 5.02513 14.2175L6.08579 13.1569C6.47631 12.7663 7.10948 12.7663 7.5 13.1569C7.89052 13.5474 7.89052 14.1805 7.5 14.5711L6.43934 15.6317C5.85355 16.2175 5.85355 17.1673 6.43934 17.753C7.02513 18.3388 7.97487 18.3388 8.56066 17.753L12.8033 13.5104C13.3891 12.9246 13.3891 11.9749 12.8033 11.3891C12.6793 11.2651 12.5391 11.1674 12.3894 11.0959L12.7855 10.6997Z" fill="black"/>
<path d="M13.4926 8.57843L12.0784 7.16421L14.2175 5.02513C15.5843 3.65829 17.8004 3.65829 19.1673 5.02513C20.5341 6.39196 20.5341 8.60804 19.1673 9.97487L18.1066 11.0355C17.7161 11.4261 17.0829 11.4261 16.6924 11.0355C16.3019 10.645 16.3019 10.0118 16.6924 9.62132L17.753 8.56066C18.3388 7.97487 18.3388 7.02513 17.753 6.43934C17.1673 5.85355 16.2175 5.85355 15.6317 6.43934L13.4926 8.57843Z" fill="black"/>
</svg>
