<svg width="24" height="24" viewBox="0 0 24 24" fill="none" xmlns="http://www.w3.org/2000/svg">
<path fill-rule="evenodd" clip-rule="evenodd" d="M3.74812 3.74858C3.3576 4.13911 3.3576 4.77227 3.74812 5.1628L7.34093 8.7556C7.17028 8.79392 7.0081 8.87949 6.87528 9.01231C6.50191 9.38568 6.5019 9.99104 6.87527 10.3644L9.57933 13.0685L9.57917 13.0686L5.25489 17.3929C5.20832 17.4395 5.16647 17.4905 5.12994 17.5453L4.09794 19.0933C3.94376 19.3246 3.97425 19.6325 4.1708 19.8291C4.36735 20.0256 4.6753 20.0561 4.90657 19.9019L6.45457 18.8699C6.50937 18.8334 6.56042 18.7916 6.60698 18.745L10.9313 14.4207L10.9314 14.4206L13.6357 17.1249C14.0091 17.4982 14.6145 17.4982 14.9878 17.1249C15.1207 16.992 15.2062 16.8299 15.2445 16.6592L18.8369 20.2516C19.2274 20.6421 19.8606 20.6421 20.2511 20.2516C20.6416 19.861 20.6416 19.2279 20.2511 18.8374L5.16234 3.74858C4.77181 3.35806 4.13865 3.35806 3.74812 3.74858ZM17.5469 10.2195L16.1731 11.9647L12.0352 7.82681L13.7804 6.45298L12.9595 5.63212C12.5861 5.25875 12.5861 4.6534 12.9595 4.28003C13.3329 3.90666 13.9382 3.90666 14.3116 4.28003L19.72 9.6884C20.0933 10.0618 20.0933 10.6671 19.72 11.0405C19.3466 11.4139 18.7413 11.4139 18.3679 11.0405L17.5469 10.2195Z" fill="black"/>
</svg>
