<svg width="24" height="24" viewBox="0 0 24 24" fill="none" xmlns="http://www.w3.org/2000/svg">
<path d="M19.35 10.04C18.67 6.59 15.64 4 12 4C9.11 4 6.6 5.64 5.35 8.04C2.34 8.36 0 10.91 0 14C0 17.31 2.69 20 6 20H19C21.76 20 24 17.76 24 15C24 12.36 21.95 10.22 19.35 10.04ZM14 13V16.5C14 16.7761 13.7761 17 13.5 17H10.5C10.2239 17 10 16.7761 10 16.5V13H8.20711C7.76165 13 7.53857 12.4614 7.85355 12.1464L11.6464 8.35355C11.8417 8.15829 12.1583 8.15829 12.3536 8.35355L16.1464 12.1464C16.4614 12.4614 16.2383 13 15.7929 13H14Z" fill="black"/>
</svg>
