<svg width="24" height="24" viewBox="0 0 24 24" fill="none" xmlns="http://www.w3.org/2000/svg">
<path fill-rule="evenodd" clip-rule="evenodd" d="M1.70708 1.70708C1.31655 2.0976 1.31655 2.73077 1.70708 3.12129L2.99997 4.41418V21.8C3.12997 21.8 3.25997 21.75 3.34997 21.65L4.13997 20.86C4.33997 20.66 4.64997 20.66 4.84997 20.86L5.63997 21.65C5.83997 21.85 6.14997 21.85 6.34997 21.65L7.13997 20.86C7.33997 20.66 7.64997 20.66 7.84997 20.86L8.63997 21.65C8.83997 21.85 9.14997 21.85 9.34997 21.65L10.14 20.86C10.34 20.66 10.65 20.66 10.85 20.86L11.64 21.65C11.84 21.85 12.15 21.85 12.35 21.65L13.14 20.86C13.34 20.66 13.65 20.66 13.85 20.86L14.64 21.65C14.84 21.85 15.15 21.85 15.35 21.65L16.14 20.86C16.34 20.66 16.65 20.66 16.85 20.86L17.64 21.65C17.84 21.85 18.15 21.85 18.35 21.65L19.14 20.86C19.1951 20.8048 19.2587 20.7649 19.3259 20.7401L20.799 22.2132C21.1895 22.6037 21.8226 22.6037 22.2132 22.2132C22.6037 21.8226 22.6037 21.1895 22.2132 20.799L3.12129 1.70708C2.73077 1.31655 2.0976 1.31655 1.70708 1.70708ZM15.5858 17L13.5858 15H6.99997C6.44997 15 5.99997 15.45 5.99997 16C5.99997 16.55 6.44997 17 6.99997 17H15.5858ZM11.5858 13L9.58577 11H6.99997C6.44997 11 5.99997 11.45 5.99997 12C5.99997 12.55 6.44997 13 6.99997 13H11.5858ZM7.58577 8.99998L6.11727 7.53148C6.04245 7.67144 5.99997 7.83099 5.99997 7.99998C5.99997 8.54998 6.44997 8.99998 6.99997 8.99998H7.58577ZM11.0142 6.99998L7.24671 3.2325C7.43906 3.34456 7.6829 3.31706 7.84997 3.14998L8.63997 2.34998C8.83997 2.14998 9.14997 2.14998 9.34997 2.34998L10.15 3.14998C10.35 3.34998 10.66 3.34998 10.86 3.14998L11.65 2.35998C11.85 2.15998 12.16 2.15998 12.36 2.35998L13.15 3.14998C13.35 3.34998 13.66 3.34998 13.86 3.14998L14.65 2.35998C14.85 2.15998 15.16 2.15998 15.36 2.35998L16.15 3.14998C16.35 3.34998 16.66 3.34998 16.86 3.14998L17.65 2.35998C17.85 2.15998 18.16 2.15998 18.36 2.35998L19.15 3.14998C19.35 3.34998 19.66 3.34998 19.86 3.14998L20.65 2.35998C20.7377 2.26255 20.8633 2.21258 20.99 2.21008V16.9758L17.0141 12.9999C17.5577 12.9923 18 12.5453 18 12C18 11.45 17.55 11 17 11H15.0142L13.0142 8.99998H17C17.55 8.99998 18 8.54998 18 7.99998C18 7.44998 17.55 6.99998 17 6.99998H11.0142ZM20.99 2.21008V2.20998H21L20.99 2.21008Z" fill="black"/>
</svg>
